<?xml version="1.0" encoding="UTF-8"?>
<svg id="Layer_1" xmlns="http://www.w3.org/2000/svg" xmlns:xlink="http://www.w3.org/1999/xlink" version="1.1" viewBox="0 0 370.99 98">
  <!-- Generator: Adobe Illustrator 30.2.1, SVG Export Plug-In . SVG Version: 2.1.1 Build 1)  -->
  <defs>
    <style>
      .st0, .st1, .st2 {
        fill: none;
      }

      .st1, .st2 {
        stroke: #f89621;
        stroke-linecap: round;
        stroke-linejoin: round;
        stroke-width: 4.74px;
      }

      .st3 {
        fill: url(#linear-gradient2);
      }

      .st4 {
        fill: url(#linear-gradient1);
      }

      .st5 {
        fill: #a27837;
      }

      .st6 {
        fill: url(#linear-gradient);
      }

      .st7 {
        isolation: isolate;
      }

      .st8 {
        clip-path: url(#clippath-1);
      }

      .st9 {
        clip-path: url(#clippath-2);
      }

      .st10 {
        fill: #fff;
      }

      .st2 {
        stroke-dasharray: 0 13.9;
      }

      .st11 {
        clip-path: url(#clippath);
      }
    </style>
    <clipPath id="clippath">
      <polygon class="st0" points="2.37 83.5 10.74 88.33 19.11 83.5 10.74 78.67 2.37 83.5"/>
    </clipPath>
    <linearGradient id="linear-gradient" x1="-768.05" y1="489.83" x2="-767.05" y2="489.83" gradientTransform="translate(75415.29 118271.75) rotate(90) scale(153.94)" gradientUnits="userSpaceOnUse">
      <stop offset="0" stop-color="#fbee43"/>
      <stop offset=".04" stop-color="#fbe336"/>
      <stop offset=".11" stop-color="#fbd224"/>
      <stop offset=".19" stop-color="#fbc919"/>
      <stop offset=".28" stop-color="#fcc616"/>
      <stop offset=".55" stop-color="#f4a032"/>
      <stop offset=".67" stop-color="#f19040"/>
      <stop offset=".89" stop-color="#ed673c"/>
      <stop offset="1" stop-color="#ea3e38"/>
    </linearGradient>
    <clipPath id="clippath-1">
      <polygon class="st0" points="2.37 93.16 10.74 98 10.74 88.33 2.37 83.5 2.37 93.16"/>
    </clipPath>
    <linearGradient id="linear-gradient1" x1="-762.15" y1="475.41" x2="-761.15" y2="475.41" gradientTransform="translate(23254.23 37317.61) rotate(90) scale(48.9)" gradientUnits="userSpaceOnUse">
      <stop offset="0" stop-color="#fbee43"/>
      <stop offset=".04" stop-color="#fbe336"/>
      <stop offset=".11" stop-color="#fbd224"/>
      <stop offset=".19" stop-color="#fbc919"/>
      <stop offset=".28" stop-color="#fcc616"/>
      <stop offset=".55" stop-color="#f4a032"/>
      <stop offset=".67" stop-color="#f19040"/>
      <stop offset=".89" stop-color="#ed673c"/>
      <stop offset="1" stop-color="#ea3e38"/>
    </linearGradient>
    <clipPath id="clippath-2">
      <polygon class="st0" points="10.74 88.33 10.74 98 19.11 93.16 19.11 83.5 10.74 88.33"/>
    </clipPath>
    <linearGradient id="linear-gradient2" x1="-762.03" y1="487.75" x2="-761.03" y2="487.75" gradientTransform="translate(36761.75 57448.96) rotate(90) scale(75.34)" gradientUnits="userSpaceOnUse">
      <stop offset="0" stop-color="#fbee43"/>
      <stop offset=".04" stop-color="#fbe336"/>
      <stop offset=".11" stop-color="#fbd224"/>
      <stop offset=".19" stop-color="#fbc919"/>
      <stop offset=".28" stop-color="#fcc616"/>
      <stop offset=".55" stop-color="#f4a032"/>
      <stop offset=".67" stop-color="#f19040"/>
      <stop offset=".89" stop-color="#ed673c"/>
      <stop offset="1" stop-color="#ea3e38"/>
    </linearGradient>
  </defs>
  <polygon class="st5" points="10.74 92.93 314.1 92.93 370.99 18.71 10.74 18.71 10.74 92.93"/>
  <g class="st11">
    <rect class="st6" x="2.07" y="73.86" width="17.33" height="19.29" transform="translate(-64.69 46.11) rotate(-56.3)"/>
  </g>
  <g class="st8">
    <rect class="st4" x="1.53" y="83.05" width="10.05" height="15.4" transform="translate(-10.85 1.45) rotate(-6.9)"/>
  </g>
  <g class="st9">
    <rect class="st3" x="6.75" y="82.77" width="16.34" height="15.96" transform="translate(-62.07 40.44) rotate(-47.5)"/>
  </g>
  <line class="st2" x1="16.27" y1="10.08" x2="245.56" y2="10.08"/>
  <path class="st1" d="M252.51,10.08h0M2.37,10.08h0"/>
  <g class="st7">
    <g class="st7">
      <path class="st10" d="M40.63,32.34l-5.22,15.91h-4.21l7.13-19.2h2.68l-.38,3.28ZM44.73,41.1v3.1h-10.14v-3.1h10.14ZM44.97,48.25l-5.23-15.91-.42-3.28h2.7l7.17,19.2h-4.22Z"/>
    </g>
    <g class="st7">
      <path class="st10" d="M54.63,36.73v17.01h-3.8v-19.75h3.52l.28,2.74ZM63.66,40.96v.28c0,1.04-.12,2-.36,2.89-.24.89-.6,1.66-1.06,2.31-.47.65-1.04,1.16-1.73,1.53-.69.36-1.48.55-2.38.55s-1.63-.18-2.27-.53-1.18-.85-1.61-1.48c-.44-.64-.78-1.38-1.05-2.22s-.47-1.75-.61-2.71v-.73c.14-1.04.34-1.99.61-2.85.26-.87.61-1.62,1.05-2.25.43-.64.97-1.13,1.61-1.48.64-.35,1.39-.53,2.25-.53.91,0,1.7.17,2.39.51.69.34,1.27.83,1.74,1.48.47.64.83,1.41,1.07,2.29.24.89.36,1.87.36,2.95ZM59.85,41.24v-.28c0-.61-.05-1.17-.15-1.68-.1-.51-.26-.96-.47-1.35-.22-.39-.5-.69-.84-.9-.35-.22-.77-.32-1.26-.32-.52,0-.96.08-1.32.25-.37.17-.66.41-.89.73s-.4.69-.51,1.13-.18.94-.21,1.49v1.83c.04.65.17,1.23.37,1.75.2.51.51.92.94,1.22s.98.45,1.66.45c.5,0,.92-.11,1.27-.34.34-.22.62-.53.84-.93.21-.39.37-.85.46-1.37.09-.52.14-1.08.14-1.67Z"/>
    </g>
    <g class="st7">
      <path class="st10" d="M69.79,36.73v17.01h-3.8v-19.75h3.52l.28,2.74ZM78.82,40.96v.28c0,1.04-.12,2-.36,2.89-.24.89-.6,1.66-1.06,2.31-.47.65-1.04,1.16-1.73,1.53-.69.36-1.48.55-2.38.55s-1.63-.18-2.27-.53-1.18-.85-1.61-1.48c-.44-.64-.78-1.38-1.05-2.22s-.47-1.75-.61-2.71v-.73c.14-1.04.34-1.99.61-2.85.26-.87.61-1.62,1.05-2.25.43-.64.97-1.13,1.61-1.48.64-.35,1.39-.53,2.25-.53.91,0,1.7.17,2.39.51.69.34,1.27.83,1.74,1.48.47.64.83,1.41,1.07,2.29.24.89.36,1.87.36,2.95ZM75.01,41.24v-.28c0-.61-.05-1.17-.15-1.68-.1-.51-.26-.96-.47-1.35-.22-.39-.5-.69-.84-.9-.35-.22-.77-.32-1.26-.32-.52,0-.96.08-1.32.25-.37.17-.66.41-.89.73s-.4.69-.51,1.13-.18.94-.21,1.49v1.83c.04.65.17,1.23.37,1.75.2.51.51.92.94,1.22s.98.45,1.66.45c.5,0,.92-.11,1.27-.34.34-.22.62-.53.84-.93.21-.39.37-.85.46-1.37.09-.52.14-1.08.14-1.67Z"/>
    </g>
    <g class="st7">
      <path class="st10" d="M85.08,28v20.25h-3.81v-20.25h3.81Z"/>
    </g>
    <g class="st7">
      <path class="st10" d="M87.94,30.27c0-.55.19-1.01.58-1.37s.91-.54,1.56-.54,1.16.18,1.55.54c.39.36.59.82.59,1.37s-.2,1.01-.59,1.37c-.39.36-.91.54-1.55.54s-1.17-.18-1.56-.54-.58-.82-.58-1.37ZM91.98,33.99v14.26h-3.81v-14.26h3.81Z"/>
    </g>
    <g class="st7">
      <path class="st10" d="M100.8,45.55c.47,0,.88-.09,1.24-.27.36-.18.64-.44.85-.76.21-.33.31-.72.32-1.17h3.57c0,1-.28,1.89-.8,2.67-.53.78-1.23,1.39-2.12,1.83-.89.44-1.88.67-2.98.67s-2.07-.18-2.89-.55-1.5-.88-2.05-1.54c-.54-.65-.95-1.42-1.23-2.29-.27-.87-.41-1.81-.41-2.81v-.38c0-1.01.14-1.95.41-2.83.27-.88.68-1.64,1.23-2.29.54-.66,1.23-1.17,2.04-1.54s1.78-.55,2.87-.55c1.17,0,2.19.22,3.08.67.88.45,1.58,1.09,2.08,1.92.5.83.76,1.81.77,2.95h-3.57c0-.47-.11-.91-.3-1.29s-.46-.7-.82-.93c-.36-.23-.79-.35-1.31-.35-.55,0-1.01.12-1.36.35-.35.23-.62.55-.82.95-.19.4-.33.85-.4,1.36-.08.5-.11,1.03-.11,1.59v.38c0,.55.04,1.09.11,1.59.07.51.2.96.4,1.36.2.4.47.71.82.94s.81.34,1.37.34Z"/>
    </g>
    <g class="st7">
      <path class="st10" d="M117.15,39.56l.03,2.15h-2.12c-.5,0-.94.06-1.31.17s-.67.27-.91.48c-.24.21-.41.45-.52.72-.11.27-.16.57-.16.9s.07.62.22.88c.15.26.37.46.65.61.28.14.61.22.99.22.57,0,1.07-.11,1.49-.34.42-.23.75-.51.98-.84.23-.33.35-.65.36-.95l1,1.61c-.14.36-.33.73-.57,1.12-.24.39-.55.75-.92,1.09-.37.34-.81.62-1.33.83-.52.22-1.13.32-1.85.32-.91,0-1.73-.18-2.46-.55-.73-.37-1.31-.87-1.74-1.52-.43-.65-.64-1.38-.64-2.21,0-.75.14-1.41.42-1.99s.7-1.07,1.25-1.47c.55-.4,1.24-.7,2.06-.91.83-.21,1.78-.31,2.87-.31h2.2ZM116.65,45.03v-6.35c0-.46-.07-.85-.22-1.18-.15-.33-.38-.59-.69-.77-.31-.18-.71-.28-1.21-.28-.42,0-.79.07-1.09.22-.31.15-.54.35-.71.62-.17.27-.25.58-.25.94h-3.8c0-.61.14-1.18.42-1.73s.69-1.03,1.23-1.44c.54-.42,1.18-.75,1.92-.98.74-.24,1.58-.36,2.5-.36,1.11,0,2.09.18,2.95.55s1.54.92,2.04,1.66c.5.74.75,1.66.75,2.77v6.1c0,.78.05,1.42.15,1.92.1.5.24.93.42,1.3v.22h-3.84c-.18-.39-.32-.87-.42-1.46-.09-.58-.14-1.17-.14-1.76Z"/>
    </g>
    <g class="st7">
      <path class="st10" d="M130.24,33.99v2.69h-8.31v-2.69h8.31ZM124,30.46h3.8v13.49c0,.41.05.73.17.95.11.22.27.37.49.46.22.08.5.12.83.12.24,0,.45-.01.64-.03.19-.02.35-.05.48-.07v2.79c-.31.11-.66.19-1.04.25-.38.06-.79.09-1.25.09-.83,0-1.56-.14-2.18-.42-.62-.28-1.1-.72-1.43-1.34-.33-.61-.5-1.42-.5-2.43v-13.87Z"/>
      <path class="st10" d="M132.35,30.27c0-.55.19-1.01.58-1.37s.91-.54,1.56-.54,1.16.18,1.55.54c.39.36.59.82.59,1.37s-.2,1.01-.59,1.37c-.39.36-.91.54-1.55.54s-1.17-.18-1.56-.54-.58-.82-.58-1.37ZM136.4,33.99v14.26h-3.81v-14.26h3.81Z"/>
    </g>
    <g class="st7">
      <path class="st10" d="M138.5,41.26v-.28c0-1.05.15-2.01.45-2.89.3-.88.73-1.65,1.31-2.3.57-.65,1.27-1.16,2.11-1.52.83-.36,1.79-.55,2.87-.55s2.04.18,2.89.55c.84.37,1.55.87,2.13,1.52.58.65,1.01,1.42,1.31,2.3.3.88.45,1.85.45,2.89v.28c0,1.04-.15,2-.45,2.88-.3.88-.74,1.65-1.31,2.31-.58.66-1.28,1.16-2.12,1.52-.83.36-1.79.54-2.87.54s-2.04-.18-2.88-.54c-.84-.36-1.55-.87-2.12-1.52-.58-.65-1.01-1.42-1.31-2.31-.3-.88-.45-1.84-.45-2.88ZM142.3,40.99v.28c0,.6.05,1.16.16,1.67s.27.97.51,1.36c.23.39.54.7.92.92s.84.33,1.38.33.98-.11,1.36-.33.68-.53.91-.92c.23-.39.4-.85.51-1.36s.17-1.08.17-1.67v-.28c0-.58-.06-1.13-.17-1.64-.11-.51-.28-.97-.51-1.37-.23-.4-.54-.71-.92-.94s-.83-.34-1.37-.34-.99.12-1.36.34-.68.54-.91.94c-.23.4-.4.86-.51,1.37-.11.51-.16,1.06-.16,1.64Z"/>
      <path class="st10" d="M158.06,37.03v11.22h-3.8v-14.26h3.56l.24,3.05ZM157.51,40.62h-1.03c0-1.05.14-2.01.41-2.85.27-.85.65-1.57,1.15-2.18.49-.6,1.08-1.06,1.76-1.38.68-.32,1.44-.48,2.29-.48.67,0,1.28.1,1.83.29s1.03.5,1.43.92c.4.42.71.98.92,1.67.21.69.32,1.54.32,2.54v9.1h-3.82v-9.11c0-.63-.09-1.12-.26-1.48s-.43-.6-.77-.75c-.34-.15-.75-.22-1.25-.22s-.95.1-1.33.3c-.37.2-.68.48-.92.84-.24.36-.42.77-.55,1.25s-.18.98-.18,1.53Z"/>
    </g>
    <g class="st7">
      <path class="st10" d="M175.59,41.26v-.28c0-1.05.15-2.01.45-2.89.3-.88.73-1.65,1.31-2.3.57-.65,1.27-1.16,2.11-1.52.83-.36,1.79-.55,2.87-.55s2.04.18,2.89.55c.84.37,1.55.87,2.13,1.52.58.65,1.01,1.42,1.31,2.3.3.88.45,1.85.45,2.89v.28c0,1.04-.15,2-.45,2.88-.3.88-.74,1.65-1.31,2.31-.58.66-1.28,1.16-2.12,1.52-.83.36-1.79.54-2.87.54s-2.04-.18-2.88-.54c-.84-.36-1.55-.87-2.12-1.52-.58-.65-1.01-1.42-1.31-2.31-.3-.88-.45-1.84-.45-2.88ZM179.39,40.99v.28c0,.6.05,1.16.16,1.67s.27.97.51,1.36c.23.39.54.7.92.92s.84.33,1.38.33.98-.11,1.36-.33.68-.53.91-.92c.23-.39.4-.85.51-1.36.11-.52.17-1.08.17-1.67v-.28c0-.58-.05-1.13-.17-1.64-.11-.51-.28-.97-.51-1.37-.23-.4-.54-.71-.92-.94s-.83-.34-1.37-.34-.99.12-1.37.34c-.37.23-.68.54-.91.94-.23.4-.4.86-.51,1.37-.11.51-.16,1.06-.16,1.64Z"/>
    </g>
    <g class="st7">
      <path class="st10" d="M198.85,33.99v2.69h-8.79v-2.69h8.79ZM196,48.25h-3.82v-15.53c0-1.08.21-1.99.64-2.74.43-.74,1.03-1.31,1.81-1.69.78-.38,1.7-.57,2.77-.57.35,0,.69.02,1.02.07.33.05.64.11.95.18l-.04,2.86c-.17-.04-.34-.07-.53-.09s-.4-.03-.65-.03c-.46,0-.85.08-1.17.23-.32.15-.56.38-.73.68-.17.3-.25.66-.25,1.09v15.53Z"/>
    </g>
    <g class="st7">
      <path class="st10" d="M215.29,39.83h-4.93l-.03-2.72h4.14c.73,0,1.33-.09,1.79-.28.47-.19.82-.47,1.05-.83.23-.37.35-.81.35-1.34,0-.6-.11-1.08-.34-1.45-.22-.37-.57-.64-1.04-.8-.47-.17-1.07-.25-1.81-.25h-2.74v16.1h-3.96v-19.2h6.7c1.12,0,2.12.11,3,.32.88.21,1.63.53,2.25.96s1.09.97,1.41,1.63c.33.65.49,1.43.49,2.33,0,.79-.18,1.52-.53,2.19-.36.67-.91,1.21-1.67,1.63-.76.42-1.75.66-2.97.7l-1.15,1.02ZM215.12,48.25h-5.84l1.54-3.08h4.3c.69,0,1.26-.11,1.7-.34.44-.22.76-.53.98-.92.21-.39.32-.83.32-1.33,0-.56-.09-1.05-.28-1.46-.19-.41-.49-.73-.9-.96-.41-.22-.96-.34-1.63-.34h-3.81l.03-2.72h4.75l.91,1.07c1.17-.02,2.11.19,2.83.61.72.43,1.24.98,1.57,1.65.33.68.5,1.4.5,2.18,0,1.23-.27,2.26-.8,3.1-.54.84-1.32,1.47-2.35,1.89-1.03.42-2.29.63-3.78.63Z"/>
    </g>
    <g class="st7">
      <path class="st10" d="M229.03,29.05v19.2h-3.94v-19.2h3.94Z"/>
    </g>
    <g class="st7">
      <path class="st10" d="M232.66,29.05h3.33l.61,13.74v5.46h-3.94v-19.2ZM234.47,29.05h3.35l4.93,14.09,4.93-14.09h3.35l-6.93,19.2h-2.69l-6.93-19.2ZM249.5,29.05h3.35v19.2h-3.96v-5.46l.61-13.74Z"/>
    </g>
    <g class="st7">
      <path class="st10" d="M270.98,39.56l.03,2.15h-2.12c-.5,0-.94.06-1.31.17s-.67.27-.91.48c-.24.21-.41.45-.52.72-.11.27-.16.57-.16.9s.07.62.22.88c.15.26.37.46.65.61.28.14.61.22.99.22.57,0,1.07-.11,1.49-.34.42-.23.75-.51.98-.84.23-.33.35-.65.36-.95l1,1.61c-.14.36-.33.73-.57,1.12-.24.39-.55.75-.92,1.09-.37.34-.81.62-1.33.83-.52.22-1.13.32-1.85.32-.91,0-1.73-.18-2.46-.55-.73-.37-1.31-.87-1.74-1.52-.43-.65-.64-1.38-.64-2.21,0-.75.14-1.41.42-1.99s.7-1.07,1.25-1.47c.55-.4,1.24-.7,2.06-.91.83-.21,1.78-.31,2.87-.31h2.2ZM270.48,45.03v-6.35c0-.46-.07-.85-.22-1.18-.15-.33-.38-.59-.69-.77-.31-.18-.71-.28-1.21-.28-.42,0-.79.07-1.09.22-.31.15-.54.35-.71.62-.17.27-.25.58-.25.94h-3.8c0-.61.14-1.18.42-1.73s.69-1.03,1.23-1.44c.54-.42,1.18-.75,1.92-.98.74-.24,1.58-.36,2.5-.36,1.11,0,2.09.18,2.95.55s1.54.92,2.04,1.66c.5.74.75,1.66.75,2.77v6.1c0,.78.05,1.42.15,1.92.1.5.24.93.42,1.3v.22h-3.84c-.18-.39-.32-.87-.42-1.46-.09-.58-.14-1.17-.14-1.76Z"/>
    </g>
    <g class="st7">
      <path class="st10" d="M280.91,37.03v11.22h-3.8v-14.26h3.56l.24,3.05ZM280.36,40.62h-1.03c0-1.05.14-2.01.41-2.85.27-.85.65-1.57,1.15-2.18.49-.6,1.08-1.06,1.76-1.38.68-.32,1.44-.48,2.29-.48.67,0,1.28.1,1.83.29s1.03.5,1.43.92c.4.42.71.98.92,1.67.21.69.32,1.54.32,2.54v9.1h-3.82v-9.11c0-.63-.09-1.12-.26-1.48s-.43-.6-.77-.75c-.34-.15-.75-.22-1.25-.22s-.95.1-1.33.3c-.37.2-.68.48-.92.84-.24.36-.42.77-.55,1.25s-.18.98-.18,1.53Z"/>
    </g>
    <g class="st7">
      <path class="st10" d="M291.68,41.29v-.28c0-1.09.12-2.08.37-2.97.25-.89.61-1.66,1.08-2.3.47-.64,1.06-1.14,1.75-1.49s1.49-.53,2.37-.53c.83,0,1.57.18,2.2.53.63.35,1.16.85,1.61,1.5.44.65.8,1.41,1.07,2.28.27.87.47,1.83.59,2.87v.61c-.12.99-.32,1.92-.59,2.77s-.63,1.6-1.07,2.23c-.44.64-.98,1.13-1.62,1.48s-1.37.53-2.21.53c-.89,0-1.68-.18-2.37-.54-.69-.36-1.27-.87-1.74-1.52-.47-.65-.83-1.42-1.07-2.29s-.37-1.84-.37-2.87ZM295.48,41.01v.28c0,.59.05,1.14.14,1.65.09.51.25.96.46,1.35.21.39.5.69.84.91.35.21.77.32,1.27.32.65,0,1.19-.15,1.61-.44.42-.29.74-.7.97-1.22.22-.52.35-1.12.39-1.79v-1.73c-.03-.55-.1-1.05-.23-1.5-.13-.44-.31-.82-.55-1.14-.24-.32-.54-.56-.9-.74-.36-.18-.78-.26-1.26-.26s-.91.11-1.27.34c-.35.22-.64.53-.85.92-.22.39-.37.84-.47,1.37-.1.52-.15,1.09-.15,1.69ZM300.7,45.14v-17.14h3.82v20.25h-3.44l-.38-3.11Z"/>
    </g>
  </g>
  <g class="st7">
    <g class="st7">
      <path class="st10" d="M37.03,61.46v19.2h-3.94v-19.2h3.94Z"/>
    </g>
    <g class="st7">
      <path class="st10" d="M44.12,69.43v11.22h-3.8v-14.26h3.56l.24,3.05ZM43.57,73.02h-1.03c0-1.05.14-2.01.41-2.85.27-.85.65-1.57,1.15-2.18.49-.6,1.08-1.06,1.76-1.38.68-.32,1.44-.48,2.29-.48.67,0,1.28.1,1.83.29s1.03.5,1.43.92c.4.42.71.98.92,1.67.21.69.32,1.54.32,2.54v9.1h-3.82v-9.11c0-.63-.09-1.12-.26-1.48s-.43-.6-.77-.75c-.34-.15-.75-.22-1.25-.22s-.95.1-1.33.3c-.37.2-.68.48-.92.84-.24.36-.42.77-.55,1.25s-.18.98-.18,1.53Z"/>
    </g>
    <g class="st7">
      <path class="st10" d="M59.25,69.43v11.22h-3.8v-14.26h3.56l.24,3.05ZM58.7,73.02h-1.03c0-1.05.14-2.01.41-2.85.27-.85.65-1.57,1.15-2.18.49-.6,1.08-1.06,1.76-1.38.68-.32,1.44-.48,2.29-.48.67,0,1.28.1,1.83.29s1.03.5,1.43.92c.4.42.71.98.92,1.67.21.69.32,1.54.32,2.54v9.1h-3.82v-9.11c0-.63-.09-1.12-.26-1.48s-.43-.6-.77-.75c-.34-.15-.75-.22-1.25-.22s-.95.1-1.33.3c-.37.2-.68.48-.92.84-.24.36-.42.77-.55,1.25s-.18.98-.18,1.53Z"/>
    </g>
    <g class="st7">
      <path class="st10" d="M69.96,73.66v-.28c0-1.05.15-2.01.45-2.89.3-.88.73-1.65,1.31-2.3.57-.65,1.27-1.16,2.11-1.52.83-.36,1.79-.55,2.87-.55s2.04.18,2.89.55c.84.37,1.55.87,2.13,1.52.58.65,1.01,1.42,1.31,2.3.3.88.45,1.85.45,2.89v.28c0,1.04-.15,2-.45,2.88-.3.88-.74,1.65-1.31,2.31-.58.66-1.28,1.16-2.12,1.52-.83.36-1.79.54-2.87.54s-2.04-.18-2.88-.54c-.84-.36-1.55-.87-2.12-1.52-.58-.65-1.01-1.42-1.31-2.31-.3-.88-.45-1.84-.45-2.88ZM73.76,73.39v.28c0,.6.05,1.16.16,1.67s.27.97.51,1.36c.23.39.54.7.92.92s.84.33,1.38.33.98-.11,1.36-.33.68-.53.91-.92c.23-.39.4-.85.51-1.36s.17-1.08.17-1.67v-.28c0-.58-.06-1.13-.17-1.64-.11-.51-.28-.97-.51-1.37-.23-.4-.54-.71-.92-.94s-.83-.34-1.37-.34-.99.12-1.36.34-.68.54-.91.94c-.23.4-.4.86-.51,1.37-.11.51-.16,1.06-.16,1.64Z"/>
    </g>
    <g class="st7">
      <path class="st10" d="M87.88,66.39l3.18,11.51.07,2.76h-2.41l-4.81-14.26h3.98ZM90.06,77.88l3.16-11.5h3.97l-4.81,14.26h-2.4l.08-2.77Z"/>
    </g>
    <g class="st7">
      <path class="st10" d="M106.63,71.96l.03,2.15h-2.12c-.5,0-.94.06-1.31.17s-.67.27-.91.48c-.24.21-.41.45-.52.72s-.16.57-.16.9.07.62.22.88c.15.26.36.46.65.61.28.14.61.22.99.22.57,0,1.07-.11,1.49-.34.42-.23.75-.51.98-.84.23-.33.35-.65.36-.95l1,1.61c-.14.36-.33.73-.57,1.12s-.55.75-.92,1.09c-.37.34-.81.62-1.33.83-.52.22-1.13.32-1.85.32-.91,0-1.73-.18-2.46-.55-.73-.37-1.31-.87-1.74-1.52-.43-.65-.64-1.38-.64-2.21,0-.75.14-1.41.42-1.99s.7-1.07,1.25-1.47c.55-.4,1.24-.7,2.06-.91.83-.21,1.78-.31,2.87-.31h2.2ZM106.13,77.43v-6.35c0-.46-.07-.85-.22-1.18-.15-.33-.38-.59-.69-.77-.31-.18-.71-.28-1.21-.28-.42,0-.79.07-1.09.22-.31.15-.54.35-.71.62-.17.27-.25.58-.25.94h-3.8c0-.61.14-1.18.42-1.73s.69-1.03,1.23-1.44c.54-.42,1.18-.75,1.92-.98.74-.24,1.58-.36,2.5-.36,1.11,0,2.09.18,2.95.55s1.54.92,2.04,1.66.75,1.66.75,2.77v6.1c0,.78.05,1.42.15,1.92.1.5.24.93.42,1.3v.22h-3.84c-.18-.39-.32-.87-.42-1.46-.09-.58-.14-1.17-.14-1.76Z"/>
    </g>
    <g class="st7">
      <path class="st10" d="M119.72,66.39v2.69h-8.31v-2.69h8.31ZM113.47,62.87h3.8v13.49c0,.41.05.73.17.95.11.22.27.37.49.46.22.08.5.12.83.12.24,0,.45-.01.64-.03.19-.02.35-.05.48-.07v2.79c-.31.11-.66.19-1.04.25-.38.06-.8.09-1.25.09-.83,0-1.56-.14-2.18-.42-.62-.28-1.1-.72-1.43-1.34-.33-.61-.5-1.42-.5-2.43v-13.87Z"/>
    </g>
    <g class="st7">
      <path class="st10" d="M121.62,62.67c0-.55.19-1.01.58-1.37s.91-.54,1.56-.54,1.16.18,1.55.54c.39.36.59.82.59,1.37s-.2,1.01-.59,1.37c-.39.36-.91.54-1.55.54s-1.17-.18-1.56-.54-.58-.82-.58-1.37ZM125.66,66.39v14.26h-3.81v-14.26h3.81Z"/>
    </g>
    <g class="st7">
      <path class="st10" d="M131.34,66.39l3.18,11.51.07,2.76h-2.41l-4.81-14.26h3.98ZM133.52,77.88l3.16-11.5h3.97l-4.81,14.26h-2.4l.08-2.77Z"/>
    </g>
    <g class="st7">
      <path class="st10" d="M148.25,80.91c-1.11,0-2.1-.18-2.98-.53-.88-.36-1.62-.85-2.23-1.48-.61-.63-1.08-1.37-1.4-2.21-.33-.84-.49-1.73-.49-2.68v-.53c0-1.08.15-2.07.46-2.97s.75-1.67,1.33-2.33c.58-.66,1.28-1.17,2.1-1.52.83-.36,1.76-.53,2.79-.53s1.91.17,2.69.5,1.44.81,1.97,1.42.93,1.35,1.21,2.21c.27.86.41,1.81.41,2.85v1.58h-11.34v-2.53h7.61v-.29c0-.53-.09-1-.28-1.42-.19-.42-.47-.75-.85-1-.38-.25-.86-.37-1.45-.37-.5,0-.93.11-1.29.33s-.65.53-.88.92c-.22.4-.39.86-.5,1.39-.11.53-.17,1.11-.17,1.75v.53c0,.57.08,1.1.24,1.58.16.48.4.9.7,1.25.3.35.67.62,1.11.82.44.19.93.29,1.48.29.69,0,1.33-.13,1.92-.4.59-.27,1.11-.67,1.54-1.22l1.85,2c-.3.43-.71.84-1.22,1.24-.51.4-1.13.72-1.85.97-.72.25-1.54.38-2.47.38Z"/>
    </g>
    <g class="st7">
      <path class="st10" d="M177.71,61.46v3.1h-15.66v-3.1h15.66ZM171.81,61.46v19.2h-3.94v-19.2h3.94Z"/>
    </g>
    <g class="st7">
      <path class="st10" d="M183.71,80.91c-1.11,0-2.1-.18-2.98-.53-.88-.36-1.62-.85-2.23-1.48-.61-.63-1.08-1.37-1.4-2.21-.33-.84-.49-1.73-.49-2.68v-.53c0-1.08.15-2.07.46-2.97s.75-1.67,1.33-2.33c.58-.66,1.28-1.17,2.1-1.52.83-.36,1.76-.53,2.79-.53s1.91.17,2.69.5,1.44.81,1.97,1.42c.53.62.93,1.35,1.21,2.21.27.86.41,1.81.41,2.85v1.58h-11.34v-2.53h7.61v-.29c0-.53-.09-1-.28-1.42-.19-.42-.47-.75-.85-1-.38-.25-.86-.37-1.45-.37-.5,0-.93.11-1.29.33s-.65.53-.88.92c-.22.4-.39.86-.5,1.39-.11.53-.17,1.11-.17,1.75v.53c0,.57.08,1.1.24,1.58.16.48.4.9.7,1.25.3.35.67.62,1.11.82.44.19.93.29,1.48.29.69,0,1.33-.13,1.92-.4.59-.27,1.11-.67,1.54-1.22l1.85,2c-.3.43-.71.84-1.22,1.24-.51.4-1.13.72-1.85.97-.72.25-1.54.38-2.47.38Z"/>
    </g>
    <g class="st7">
      <path class="st10" d="M197.6,77.95c.47,0,.88-.09,1.24-.27.36-.18.64-.44.85-.76.21-.33.31-.72.32-1.17h3.57c0,1-.28,1.89-.8,2.67-.53.78-1.24,1.39-2.12,1.83-.89.44-1.88.67-2.98.67s-2.07-.18-2.89-.55c-.82-.37-1.51-.88-2.05-1.54-.54-.65-.95-1.42-1.23-2.29-.27-.87-.41-1.81-.41-2.81v-.38c0-1.01.14-1.95.41-2.83.27-.88.68-1.64,1.23-2.29.54-.66,1.23-1.17,2.04-1.54s1.78-.55,2.87-.55c1.17,0,2.2.22,3.08.67.88.45,1.58,1.09,2.08,1.92.5.83.76,1.81.77,2.95h-3.57c0-.47-.11-.91-.3-1.29-.19-.39-.46-.7-.82-.93-.36-.23-.79-.35-1.31-.35-.55,0-1.01.12-1.36.35-.35.23-.62.55-.82.95-.19.4-.33.85-.4,1.36-.08.5-.11,1.03-.11,1.59v.38c0,.55.04,1.09.11,1.59.07.51.21.96.4,1.36s.47.71.82.94.81.34,1.37.34Z"/>
    </g>
    <g class="st7">
      <path class="st10" d="M209.5,60.4v20.25h-3.8v-20.25h3.8ZM208.96,73.02h-1.04c0-.99.14-1.91.4-2.75.25-.84.62-1.57,1.09-2.19.47-.62,1.04-1.1,1.71-1.44.66-.34,1.4-.51,2.21-.51.7,0,1.34.1,1.92.3.58.2,1.07.51,1.49.95.42.43.74,1,.97,1.71s.34,1.56.34,2.56v9.02h-3.82v-9.04c0-.63-.09-1.13-.27-1.5-.18-.37-.44-.62-.78-.78-.34-.15-.75-.23-1.25-.23-.54,0-1.01.1-1.39.3-.38.2-.69.48-.92.84-.23.36-.4.77-.5,1.25s-.16.98-.16,1.53Z"/>
    </g>
    <g class="st7">
      <path class="st10" d="M224.63,69.43v11.22h-3.8v-14.26h3.56l.24,3.05ZM224.08,73.02h-1.03c0-1.05.14-2.01.41-2.85.27-.85.66-1.57,1.15-2.18.49-.6,1.08-1.06,1.76-1.38.68-.32,1.44-.48,2.29-.48.67,0,1.28.1,1.83.29s1.03.5,1.43.92c.4.42.71.98.92,1.67.21.69.32,1.54.32,2.54v9.1h-3.82v-9.11c0-.63-.09-1.12-.26-1.48s-.43-.6-.77-.75c-.34-.15-.75-.22-1.25-.22s-.95.1-1.33.3c-.37.2-.68.48-.92.84-.24.36-.42.77-.55,1.25s-.18.98-.18,1.53Z"/>
    </g>
    <g class="st7">
      <path class="st10" d="M235.34,73.66v-.28c0-1.05.15-2.01.45-2.89.3-.88.73-1.65,1.31-2.3.57-.65,1.27-1.16,2.11-1.52.83-.36,1.79-.55,2.87-.55s2.04.18,2.89.55c.84.37,1.55.87,2.13,1.52.58.65,1.01,1.42,1.31,2.3.3.88.45,1.85.45,2.89v.28c0,1.04-.15,2-.45,2.88-.3.88-.74,1.65-1.31,2.31-.58.66-1.28,1.16-2.12,1.52-.83.36-1.79.54-2.87.54s-2.04-.18-2.88-.54c-.84-.36-1.55-.87-2.12-1.52-.58-.65-1.01-1.42-1.31-2.31-.3-.88-.45-1.84-.45-2.88ZM239.14,73.39v.28c0,.6.05,1.16.16,1.67s.27.97.51,1.36c.23.39.54.7.92.92s.84.33,1.38.33.98-.11,1.36-.33.68-.53.91-.92c.23-.39.4-.85.51-1.36.11-.52.17-1.08.17-1.67v-.28c0-.58-.05-1.13-.17-1.64-.11-.51-.28-.97-.51-1.37-.23-.4-.54-.71-.92-.94s-.83-.34-1.37-.34-.99.12-1.37.34c-.37.23-.68.54-.91.94-.23.4-.4.86-.51,1.37-.11.51-.16,1.06-.16,1.64Z"/>
      <path class="st10" d="M255.19,60.4v20.25h-3.81v-20.25h3.81Z"/>
    </g>
    <g class="st7">
      <path class="st10" d="M257.4,73.66v-.28c0-1.05.15-2.01.45-2.89.3-.88.73-1.65,1.3-2.3.57-.65,1.27-1.16,2.11-1.52.83-.36,1.79-.55,2.87-.55s2.04.18,2.89.55c.84.37,1.55.87,2.13,1.52.58.65,1.01,1.42,1.31,2.3.3.88.45,1.85.45,2.89v.28c0,1.04-.15,2-.45,2.88-.3.88-.74,1.65-1.31,2.31-.58.66-1.28,1.16-2.12,1.52-.83.36-1.79.54-2.87.54s-2.04-.18-2.88-.54c-.84-.36-1.55-.87-2.12-1.52-.58-.65-1.01-1.42-1.31-2.31-.3-.88-.45-1.84-.45-2.88ZM261.2,73.39v.28c0,.6.05,1.16.16,1.67s.27.97.51,1.36c.23.39.54.7.92.92s.84.33,1.38.33.98-.11,1.36-.33.68-.53.91-.92c.23-.39.4-.85.51-1.36.11-.52.17-1.08.17-1.67v-.28c0-.58-.06-1.13-.17-1.64-.11-.51-.28-.97-.51-1.37-.23-.4-.54-.71-.92-.94s-.83-.34-1.37-.34-.99.12-1.36.34c-.37.23-.68.54-.91.94-.23.4-.4.86-.51,1.37-.11.51-.16,1.06-.16,1.64Z"/>
    </g>
    <g class="st7">
      <path class="st10" d="M272.57,73.69v-.28c0-1.09.13-2.08.4-2.97.27-.89.65-1.66,1.15-2.3.5-.64,1.1-1.14,1.81-1.49s1.52-.53,2.41-.53c.95,0,1.75.18,2.39.53s1.17.85,1.58,1.5c.41.65.74,1.41.97,2.28.23.87.42,1.83.55,2.87v.61c-.13.99-.33,1.92-.59,2.77s-.61,1.6-1.04,2.23c-.43.64-.96,1.13-1.6,1.48-.64.35-1.4.53-2.27.53s-1.67-.18-2.38-.54c-.71-.36-1.31-.87-1.81-1.52s-.89-1.42-1.15-2.29c-.27-.88-.4-1.84-.4-2.87ZM282.17,66.39h3.44v13.79c0,1.3-.29,2.41-.86,3.32-.58.91-1.38,1.6-2.41,2.07-1.03.47-2.22.71-3.59.71-.6,0-1.23-.08-1.89-.24-.66-.16-1.3-.4-1.9-.74-.6-.33-1.11-.76-1.51-1.27l1.67-2.24c.44.51.95.91,1.53,1.19.58.29,1.22.43,1.92.43s1.27-.13,1.74-.38c.47-.25.84-.62,1.09-1.09.25-.48.38-1.06.38-1.73v-10.52l.37-3.3ZM276.37,73.41v.28c0,.59.06,1.14.17,1.65s.29.96.53,1.35c.24.39.54.69.91.91.36.21.8.32,1.3.32.69,0,1.26-.15,1.7-.44.44-.29.77-.7.99-1.22.22-.52.35-1.12.38-1.79v-1.73c-.02-.55-.09-1.05-.22-1.5-.13-.44-.32-.82-.55-1.14s-.54-.56-.92-.74-.83-.26-1.34-.26-.93.11-1.3.34c-.37.22-.67.53-.91.92-.24.39-.42.84-.55,1.37-.12.52-.18,1.09-.18,1.69Z"/>
      <path class="st10" d="M291.21,66.39l3.1,10.34.54,4.02-2.58.28-5.13-14.63h4.07ZM292.79,79.04l3.78-12.66h4.07l-5.73,16.41c-.12.36-.29.75-.49,1.16-.21.41-.48.81-.83,1.18-.35.37-.78.68-1.3.92-.52.24-1.16.36-1.92.36-.36,0-.65-.02-.88-.07s-.5-.11-.82-.18v-2.78c.1,0,.2,0,.3,0,.11,0,.21,0,.3,0,.5,0,.91-.06,1.23-.17s.57-.29.76-.52c.19-.23.35-.53.46-.9l1.07-2.75Z"/>
    </g>
  </g>
</svg>