<?xml version="1.0" encoding="UTF-8"?>
<svg id="Txt" xmlns="http://www.w3.org/2000/svg" xmlns:xlink="http://www.w3.org/1999/xlink" version="1.1" viewBox="0 0 251.56 60.84">
  <!-- Generator: Adobe Illustrator 30.2.1, SVG Export Plug-In . SVG Version: 2.1.1 Build 1)  -->
  <defs>
    <style>
      .st0 {
        fill: url(#linear-gradient2);
      }

      .st1 {
        fill: url(#linear-gradient1);
      }

      .st2 {
        fill: #be141b;
      }

      .st3 {
        fill: url(#linear-gradient);
      }

      .st4 {
        isolation: isolate;
      }

      .st5, .st6 {
        fill: none;
        stroke: #bd202f;
        stroke-linecap: round;
        stroke-linejoin: round;
        stroke-width: 4.74px;
      }

      .st7 {
        fill: #fff;
      }

      .st6 {
        stroke-dasharray: 0 17.09;
      }
    </style>
    <linearGradient id="linear-gradient" x1="-29.4" y1="40.74" x2="98.07" y2="-44.25" gradientTransform="translate(0 62) scale(1 -1)" gradientUnits="userSpaceOnUse">
      <stop offset="0" stop-color="#fcef43"/>
      <stop offset=".04" stop-color="#fce233"/>
      <stop offset=".12" stop-color="#fdd321"/>
      <stop offset=".2" stop-color="#fdca15"/>
      <stop offset=".28" stop-color="#fec712"/>
      <stop offset=".67" stop-color="#f3913f"/>
      <stop offset=".89" stop-color="#ed683c"/>
      <stop offset="1" stop-color="#e93f39"/>
    </linearGradient>
    <linearGradient id="linear-gradient1" x1="-.86" y1="50.11" x2="4.96" y2="1.8" gradientTransform="translate(0 62) scale(1 -1)" gradientUnits="userSpaceOnUse">
      <stop offset="0" stop-color="#fcef43"/>
      <stop offset=".04" stop-color="#fce233"/>
      <stop offset=".12" stop-color="#fdd321"/>
      <stop offset=".2" stop-color="#fdca15"/>
      <stop offset=".28" stop-color="#fec712"/>
      <stop offset=".67" stop-color="#f3913f"/>
      <stop offset=".89" stop-color="#ed683c"/>
      <stop offset="1" stop-color="#e93f39"/>
    </linearGradient>
    <linearGradient id="linear-gradient2" x1="-26.62" y1="44.19" x2="28.68" y2="-6.45" gradientTransform="translate(0 62) scale(1 -1)" gradientUnits="userSpaceOnUse">
      <stop offset="0" stop-color="#fcef43"/>
      <stop offset=".04" stop-color="#fce233"/>
      <stop offset=".12" stop-color="#fdd321"/>
      <stop offset=".2" stop-color="#fdca15"/>
      <stop offset=".28" stop-color="#fec712"/>
      <stop offset=".67" stop-color="#f3913f"/>
      <stop offset=".89" stop-color="#ed683c"/>
      <stop offset="1" stop-color="#e93f39"/>
    </linearGradient>
  </defs>
  <g>
    <line class="st5" x1="8.29" y1="3.3" x2="8.29" y2="3.3"/>
    <line class="st6" x1="25.38" y1="3.3" x2="187.72" y2="3.3"/>
    <line class="st5" x1="196.26" y1="3.3" x2="196.26" y2="3.3"/>
  </g>
  <polygon class="st2" points="8.33 55.5 218.14 55.5 251.56 11.89 8.33 11.89 8.33 55.5"/>
  <g class="st4">
    <g class="st4">
      <path class="st7" d="M32.88,22.21v19.44h-3.99v-19.44h3.99Z"/>
      <path class="st7" d="M40.14,30.29v11.36h-3.85v-14.45h3.61l.24,3.08ZM39.58,33.92h-1.04c0-1.07.14-2.03.41-2.89.28-.86.66-1.59,1.16-2.2.5-.61,1.09-1.08,1.78-1.4.69-.32,1.46-.49,2.32-.49.68,0,1.3.1,1.86.29.56.2,1.04.51,1.45.93.4.43.72.99.93,1.7s.33,1.56.33,2.58v9.21h-3.87v-9.23c0-.64-.09-1.14-.27-1.5-.18-.36-.44-.61-.78-.75-.34-.15-.76-.22-1.26-.22s-.96.1-1.34.31c-.38.21-.69.49-.94.85-.25.36-.43.78-.55,1.26s-.19,1-.19,1.55Z"/>
      <path class="st7" d="M58.78,27.2v2.72h-8.41v-2.72h8.41ZM52.45,23.63h3.85v13.66c0,.42.06.74.17.96s.28.38.5.46c.22.08.5.13.84.13.24,0,.46-.01.65-.03.19-.02.35-.05.49-.07v2.83c-.32.11-.67.19-1.06.25-.38.06-.81.09-1.27.09-.85,0-1.58-.14-2.21-.42-.63-.28-1.11-.73-1.45-1.36s-.51-1.44-.51-2.46v-14.05Z"/>
      <path class="st7" d="M64.81,30.35v11.3h-3.85v-14.45h3.62l.23,3.15ZM69.16,27.11l-.07,3.57c-.19-.03-.41-.05-.67-.07s-.5-.03-.71-.03c-.54,0-1.01.07-1.41.21-.4.14-.73.34-.99.61-.26.27-.46.59-.59.97s-.2.82-.22,1.31l-.77-.24c0-.93.09-1.8.28-2.58.19-.79.46-1.48.82-2.06.36-.59.8-1.04,1.33-1.36.53-.32,1.13-.48,1.8-.48.21,0,.43.02.65.05.22.03.4.07.55.13Z"/>
      <path class="st7" d="M69.95,34.57v-.28c0-1.06.15-2.04.45-2.93.3-.9.74-1.67,1.32-2.33.58-.66,1.29-1.17,2.14-1.54.85-.37,1.82-.55,2.91-.55s2.07.18,2.92.55c.85.37,1.57.88,2.16,1.54.58.66,1.03,1.44,1.33,2.33.3.9.45,1.87.45,2.93v.28c0,1.05-.15,2.02-.45,2.92s-.75,1.67-1.33,2.34c-.58.66-1.3,1.18-2.14,1.54-.85.37-1.82.55-2.91.55s-2.07-.18-2.92-.55c-.85-.37-1.57-.88-2.15-1.54-.58-.66-1.03-1.44-1.33-2.34s-.45-1.87-.45-2.92ZM73.79,34.29v.28c0,.61.05,1.17.16,1.7s.28.99.51,1.38c.24.4.55.71.93.93s.85.33,1.4.33.99-.11,1.38-.33c.38-.22.69-.53.92-.93.23-.4.4-.86.51-1.38s.17-1.09.17-1.7v-.28c0-.59-.06-1.14-.17-1.66-.11-.52-.29-.98-.52-1.39-.24-.4-.55-.72-.93-.95s-.85-.35-1.39-.35-1,.12-1.38.35-.69.55-.92.95c-.24.41-.41.87-.51,1.39-.11.52-.16,1.07-.16,1.66Z"/>
      <path class="st7" d="M85.4,34.6v-.28c0-1.1.12-2.11.37-3.01.25-.9.61-1.68,1.1-2.33.48-.65,1.07-1.15,1.78-1.51.7-.36,1.5-.53,2.4-.53.85,0,1.59.18,2.22.53.64.36,1.18.86,1.63,1.52.45.65.81,1.42,1.09,2.31.28.89.48,1.85.6,2.9v.61c-.12,1.01-.33,1.94-.6,2.8-.28.86-.64,1.62-1.09,2.26-.45.65-1,1.15-1.64,1.5-.64.36-1.39.54-2.24.54-.9,0-1.7-.18-2.4-.55-.7-.37-1.29-.88-1.76-1.54-.48-.66-.84-1.43-1.09-2.32-.25-.89-.37-1.86-.37-2.91ZM89.25,34.32v.28c0,.6.05,1.15.14,1.67.09.52.25.97.47,1.37.22.4.5.7.85.92.35.22.78.33,1.29.33.66,0,1.2-.15,1.63-.45.43-.3.75-.71.98-1.24s.36-1.13.39-1.82v-1.75c-.03-.56-.1-1.07-.23-1.52-.13-.45-.32-.83-.56-1.16-.25-.32-.55-.57-.91-.75-.36-.18-.79-.27-1.28-.27s-.93.11-1.28.34c-.36.23-.64.54-.86.93-.22.39-.38.85-.48,1.38-.1.53-.15,1.1-.15,1.72ZM94.53,38.5v-17.36h3.87v20.51h-3.49l-.39-3.15Z"/>
      <path class="st7" d="M110.37,35.23l1.14-.03c0,.96-.11,1.85-.33,2.68s-.56,1.54-1,2.14c-.45.6-1.01,1.07-1.68,1.4-.68.33-1.47.5-2.39.5-.7,0-1.35-.1-1.94-.3-.59-.2-1.1-.52-1.52-.95s-.75-.99-.99-1.67c-.24-.68-.35-1.5-.35-2.46v-9.33h3.85v9.36c0,.43.05.79.15,1.08.1.29.25.53.43.72.19.19.41.32.66.4.25.08.54.12.85.12.79,0,1.42-.16,1.88-.48s.78-.76.97-1.32.29-1.18.29-1.86ZM109.94,38.19v-10.99h3.85v14.45h-3.62l-.23-3.46Z"/>
      <path class="st7" d="M122.69,38.91c.47,0,.89-.09,1.26-.27.36-.18.65-.44.86-.77.21-.33.32-.73.33-1.18h3.62c0,1.01-.28,1.92-.81,2.7s-1.25,1.41-2.15,1.86c-.9.45-1.91.67-3.02.67s-2.1-.19-2.93-.56-1.52-.89-2.08-1.56c-.55-.66-.97-1.44-1.24-2.32s-.41-1.84-.41-2.85v-.39c0-1.02.14-1.98.41-2.86.28-.89.69-1.66,1.24-2.32.55-.66,1.24-1.18,2.07-1.56.83-.37,1.8-.56,2.91-.56,1.18,0,2.22.23,3.12.68.9.45,1.6,1.1,2.11,1.94.51.84.77,1.84.78,2.99h-3.62c0-.48-.11-.92-.3-1.31-.19-.39-.47-.71-.83-.94-.36-.24-.8-.35-1.33-.35-.56,0-1.02.12-1.38.35-.36.24-.63.56-.83.96-.2.41-.33.86-.41,1.38-.08.51-.11,1.05-.11,1.61v.39c0,.56.04,1.1.11,1.62.07.52.21.97.41,1.38s.48.72.83.95.82.35,1.39.35Z"/>
      <path class="st7" d="M138.04,27.2v2.72h-8.41v-2.72h8.41ZM131.71,23.63h3.85v13.66c0,.42.05.74.17.96s.28.38.5.46c.22.08.5.13.84.13.24,0,.46-.01.65-.03s.35-.05.49-.07v2.83c-.32.11-.67.19-1.05.25-.38.06-.81.09-1.27.09-.85,0-1.58-.14-2.21-.42-.63-.28-1.11-.73-1.45-1.36-.34-.62-.51-1.44-.51-2.46v-14.05Z"/>
      <path class="st7" d="M140.18,23.43c0-.56.2-1.02.59-1.39.39-.37.92-.55,1.58-.55s1.17.18,1.57.55.59.83.59,1.39-.2,1.02-.59,1.39c-.4.36-.92.55-1.57.55s-1.18-.18-1.58-.55c-.39-.37-.59-.83-.59-1.39ZM144.28,27.2v14.45h-3.86v-14.45h3.86Z"/>
      <path class="st7" d="M146.84,34.57v-.28c0-1.06.15-2.04.45-2.93.3-.9.74-1.67,1.32-2.33.58-.66,1.29-1.17,2.14-1.54.85-.37,1.82-.55,2.91-.55s2.07.18,2.92.55c.85.37,1.57.88,2.16,1.54.58.66,1.03,1.44,1.33,2.33.3.9.45,1.87.45,2.93v.28c0,1.05-.15,2.02-.45,2.92s-.75,1.67-1.33,2.34c-.58.66-1.3,1.18-2.14,1.54s-1.82.55-2.91.55-2.07-.18-2.92-.55-1.57-.88-2.15-1.54c-.58-.66-1.03-1.44-1.33-2.34s-.45-1.87-.45-2.92ZM150.69,34.29v.28c0,.61.05,1.17.16,1.7.11.53.28.99.51,1.38.24.4.54.71.93.93s.85.33,1.4.33.99-.11,1.38-.33c.38-.22.69-.53.92-.93.23-.4.4-.86.51-1.38s.17-1.09.17-1.7v-.28c0-.59-.06-1.14-.17-1.66-.11-.52-.29-.98-.52-1.39-.24-.4-.54-.72-.93-.95s-.85-.35-1.39-.35-1,.12-1.38.35c-.38.23-.69.55-.92.95-.24.41-.41.87-.51,1.39-.11.52-.16,1.07-.16,1.66Z"/>
      <path class="st7" d="M166.66,30.29v11.36h-3.85v-14.45h3.61l.24,3.08ZM166.1,33.92h-1.04c0-1.07.14-2.03.41-2.89.28-.86.66-1.59,1.16-2.2.5-.61,1.09-1.08,1.78-1.4.69-.32,1.46-.49,2.32-.49.68,0,1.3.1,1.86.29.56.2,1.04.51,1.45.93.4.43.72.99.93,1.7.22.7.33,1.56.33,2.58v9.21h-3.87v-9.23c0-.64-.09-1.14-.27-1.5-.18-.36-.44-.61-.78-.75-.34-.15-.76-.22-1.26-.22s-.96.1-1.34.31c-.38.21-.69.49-.93.85-.25.36-.43.78-.55,1.26-.12.48-.19,1-.19,1.55Z"/>
    </g>
  </g>
  <g>
    <polygon class="st3" points="16.66 46.42 8.33 41.61 0 46.42 8.33 51.22 16.66 46.42"/>
    <polygon class="st1" points="8.33 51.22 0 46.42 0 56.03 8.33 60.84 8.33 51.22"/>
    <polygon class="st0" points="16.66 46.42 8.33 51.22 8.33 60.84 16.66 56.03 16.66 46.42"/>
  </g>
</svg>