<?xml version="1.0" encoding="UTF-8"?>
<svg id="Text" xmlns="http://www.w3.org/2000/svg" version="1.1" viewBox="0 0 388.12 88.52">
  <!-- Generator: Adobe Illustrator 30.2.1, SVG Export Plug-In . SVG Version: 2.1.1 Build 1)  -->
  <defs>
    <style>
      .st0 {
        fill: none;
        stroke: #9b3018;
        stroke-miterlimit: 10;
        stroke-width: .51px;
      }

      .st1 {
        fill: #9b3018;
      }

      .st2 {
        fill: #f4001d;
      }
    </style>
  </defs>
  <line class="st0" y1="60.38" x2="388.12" y2="60.38"/>
  <g>
    <path class="st2" d="M1.54.26h7.84c1.71,0,2.99.41,3.84,1.22s1.27,1.97,1.27,3.47-.46,2.74-1.39,3.61c-.93.87-2.34,1.3-4.24,1.3h-2.58v5.66H1.54V.26ZM6.28,6.76h1.16c.91,0,1.55-.16,1.92-.47.37-.32.55-.72.55-1.21s-.16-.88-.48-1.22c-.32-.33-.92-.5-1.8-.5h-1.34v3.4Z"/>
    <path class="st2" d="M16.85.26h4.71v11.5h7.36v3.76h-12.07V.26Z"/>
    <path class="st2" d="M40.34,13h-5.35l-.74,2.52h-4.81L35.16.26h5.14l5.73,15.26h-4.94l-.76-2.52ZM39.36,9.7l-1.68-5.48-1.67,5.48h3.35Z"/>
    <path class="st2" d="M47.46.26h4.4l5.75,8.44V.26h4.44v15.26h-4.44l-5.71-8.38v8.38h-4.43V.26Z"/>
    <path class="st2" d="M65.11.26h4.4l5.75,8.44V.26h4.44v15.26h-4.44l-5.71-8.38v8.38h-4.43V.26Z"/>
    <path class="st2" d="M82.91.26h4.73v15.26h-4.73V.26Z"/>
    <path class="st2" d="M90.95.26h4.4l5.75,8.44V.26h4.44v15.26h-4.44l-5.71-8.38v8.38h-4.43V.26Z"/>
    <path class="st2" d="M116.23,9.99v-3.17h7.29v6.5c-1.39.95-2.63,1.6-3.7,1.94-1.07.34-2.34.51-3.81.51-1.81,0-3.29-.31-4.43-.93-1.14-.62-2.03-1.54-2.65-2.76s-.94-2.62-.94-4.2c0-1.67.34-3.11,1.03-4.35.69-1.23,1.69-2.17,3.02-2.8,1.03-.49,2.42-.74,4.17-.74s2.95.15,3.78.46c.84.3,1.53.78,2.08,1.42.55.64.97,1.46,1.24,2.44l-4.55.81c-.19-.58-.5-1.02-.95-1.32-.45-.3-1.02-.46-1.71-.46-1.03,0-1.86.36-2.47,1.08-.61.72-.92,1.85-.92,3.41,0,1.65.31,2.83.93,3.54.62.71,1.49,1.06,2.6,1.06.53,0,1.03-.08,1.51-.23.48-.15,1.03-.41,1.64-.78v-1.44h-3.15Z"/>
    <path class="st1" d="M134.07,5.65l-3.58,9.86h-1.46l4.13-10.82h.94l-.02.96ZM136.88,11.51v1.17h-6.08v-1.17h6.08ZM137.07,15.52l-3.59-9.86-.02-.96h.94l4.14,10.82h-1.47Z"/>
    <path class="st1" d="M148.24,4.69v10.82h-1.44l-5.45-8.35v8.35h-1.44V4.69h1.44l5.47,8.37V4.69h1.42Z"/>
    <path class="st1" d="M152.13,4.69v10.82h-1.44V4.69h1.44ZM153.63,15.52h-2.26v-1.17h2.26c.77,0,1.42-.16,1.93-.49.52-.32.9-.78,1.16-1.37.26-.59.39-1.28.39-2.06v-.66c0-.62-.07-1.17-.22-1.65-.15-.48-.37-.89-.65-1.23-.29-.33-.64-.59-1.05-.76-.41-.17-.89-.26-1.42-.26h-2.44v-1.17h2.44c.71,0,1.36.12,1.94.35s1.09.57,1.51,1.02c.42.44.75.98.98,1.61.23.63.34,1.33.34,2.11v.65c0,.78-.11,1.49-.34,2.11-.23.63-.56,1.16-.99,1.6-.43.44-.94.78-1.55,1.01s-1.28.35-2.03.35Z"/>
    <path class="st2" d="M165.13.26h7c1.38,0,2.5.19,3.35.56.85.37,1.55.91,2.11,1.61.56.7.96,1.52,1.21,2.45s.37,1.92.37,2.96c0,1.63-.19,2.89-.56,3.79-.37.9-.89,1.65-1.55,2.26-.66.61-1.37,1.01-2.12,1.21-1.03.28-1.97.42-2.81.42h-7V.26ZM169.85,3.72v8.34h1.16c.99,0,1.69-.11,2.1-.33s.74-.6.98-1.14c.24-.54.35-1.43.35-2.65,0-1.62-.26-2.72-.79-3.32s-1.4-.9-2.62-.9h-1.18Z"/>
    <path class="st2" d="M181.53.26h12.63v3.26h-7.91v2.42h7.34v3.11h-7.34v3.01h8.14v3.46h-12.86V.26Z"/>
    <path class="st2" d="M196.01,10.47l4.49-.28c.1.73.29,1.28.59,1.67.49.62,1.18.93,2.08.93.67,0,1.19-.16,1.56-.47s.55-.68.55-1.1-.17-.75-.52-1.06c-.35-.31-1.15-.61-2.41-.88-2.07-.46-3.54-1.08-4.42-1.85-.89-.77-1.33-1.75-1.33-2.95,0-.78.23-1.52.68-2.22.45-.7,1.14-1.25,2.05-1.64s2.16-.6,3.75-.6c1.95,0,3.44.36,4.46,1.09s1.63,1.88,1.83,3.46l-4.44.26c-.12-.69-.37-1.19-.74-1.5-.38-.31-.9-.47-1.57-.47-.55,0-.96.12-1.24.35s-.42.52-.42.85c0,.24.11.46.34.66.22.2.75.39,1.58.56,2.06.44,3.54.89,4.43,1.35.89.45,1.54,1.02,1.95,1.69.41.67.61,1.43.61,2.26,0,.98-.27,1.88-.81,2.71-.54.83-1.3,1.45-2.27,1.88s-2.2.64-3.67.64c-2.59,0-4.39-.5-5.39-1.5s-1.56-2.27-1.7-3.81Z"/>
    <path class="st2" d="M212.3.26h4.73v15.26h-4.73V.26Z"/>
    <path class="st2" d="M227.97,9.99v-3.17h7.29v6.5c-1.4.95-2.63,1.6-3.7,1.94-1.07.34-2.34.51-3.81.51-1.81,0-3.29-.31-4.43-.93-1.14-.62-2.03-1.54-2.65-2.76s-.94-2.62-.94-4.2c0-1.67.34-3.11,1.03-4.35.69-1.23,1.69-2.17,3.02-2.8,1.03-.49,2.42-.74,4.17-.74s2.95.15,3.78.46c.84.3,1.53.78,2.08,1.42.55.64.97,1.46,1.24,2.44l-4.55.81c-.19-.58-.5-1.02-.95-1.32-.45-.3-1.02-.46-1.71-.46-1.03,0-1.86.36-2.47,1.08s-.92,1.85-.92,3.41c0,1.65.31,2.83.93,3.54.62.71,1.49,1.06,2.6,1.06.53,0,1.03-.08,1.51-.23.48-.15,1.03-.41,1.64-.78v-1.44h-3.15Z"/>
    <path class="st2" d="M237.98.26h4.4l5.75,8.44V.26h4.44v15.26h-4.44l-5.71-8.38v8.38h-4.43V.26Z"/>
    <path class="st1" d="M260.88,4.69v10.82h-1.43V4.69h1.43ZM266.16,4.69v1.17h-5.58v-1.17h5.58ZM265.42,9.56v1.17h-4.85v-1.17h4.85Z"/>
    <path class="st1" d="M276.12,9.76v.68c0,.81-.1,1.54-.3,2.19s-.5,1.19-.88,1.64c-.38.45-.84.8-1.37,1.03-.53.24-1.13.36-1.79.36s-1.23-.12-1.76-.36c-.53-.24-.99-.58-1.38-1.03-.39-.45-.69-1-.9-1.64s-.32-1.37-.32-2.19v-.68c0-.81.11-1.54.32-2.18.21-.64.51-1.19.9-1.64.39-.45.85-.8,1.38-1.04.53-.24,1.12-.36,1.76-.36s1.25.12,1.79.36c.53.24.99.58,1.38,1.04.38.45.68,1,.88,1.64.21.64.31,1.37.31,2.18ZM274.7,10.45v-.7c0-.64-.07-1.21-.2-1.71-.13-.5-.32-.91-.58-1.25s-.56-.59-.93-.77c-.36-.17-.78-.26-1.24-.26s-.85.09-1.21.26c-.36.17-.67.43-.92.77s-.45.75-.59,1.25-.21,1.07-.21,1.71v.7c0,.65.07,1.22.21,1.72s.34.92.6,1.26c.26.34.57.6.93.77.36.17.76.26,1.21.26s.88-.09,1.24-.26c.36-.17.67-.43.92-.77.25-.34.44-.76.57-1.26s.19-1.07.19-1.72Z"/>
    <path class="st1" d="M278.19,4.69h3.58c.81,0,1.5.12,2.06.37s.99.61,1.29,1.1.44,1.08.44,1.78c0,.5-.1.95-.3,1.36-.2.41-.49.76-.86,1.04-.38.29-.82.5-1.34.64l-.4.16h-3.37v-1.17s2.53,0,2.53,0c.51,0,.94-.09,1.29-.27.34-.18.6-.42.77-.73.17-.31.26-.65.26-1.02,0-.42-.08-.78-.25-1.09-.16-.31-.42-.55-.77-.73-.35-.17-.8-.26-1.35-.26h-2.15v9.65h-1.44V4.69ZM284.51,15.52l-2.63-4.91h1.49s2.67,4.82,2.67,4.82v.09h-1.53Z"/>
    <path class="st2" d="M291.13,10.47l4.49-.28c.1.73.29,1.28.59,1.67.49.62,1.18.93,2.08.93.67,0,1.19-.16,1.56-.47s.55-.68.55-1.1-.17-.75-.52-1.06c-.35-.31-1.15-.61-2.42-.88-2.07-.46-3.54-1.08-4.42-1.85-.89-.77-1.33-1.75-1.33-2.95,0-.78.23-1.52.68-2.22.45-.7,1.14-1.25,2.05-1.64.91-.4,2.16-.6,3.75-.6,1.95,0,3.44.36,4.46,1.09s1.63,1.88,1.83,3.46l-4.44.26c-.12-.69-.37-1.19-.74-1.5-.38-.31-.9-.47-1.57-.47-.55,0-.96.12-1.24.35-.28.23-.42.52-.42.85,0,.24.11.46.34.66.22.2.75.39,1.58.56,2.06.44,3.54.89,4.43,1.35.89.45,1.54,1.02,1.95,1.69.41.67.61,1.43.61,2.26,0,.98-.27,1.88-.81,2.71-.54.83-1.3,1.45-2.27,1.88s-2.2.64-3.67.64c-2.59,0-4.39-.5-5.39-1.5-1-1-1.57-2.27-1.7-3.81Z"/>
    <path class="st2" d="M316.62,13h-5.35l-.74,2.52h-4.81l5.73-15.26h5.14l5.73,15.26h-4.94l-.76-2.52ZM315.64,9.7l-1.68-5.48-1.67,5.48h3.35Z"/>
    <path class="st2" d="M323.73.26h11.66v3.28h-6.92v2.66h5.91v3.08h-5.91v6.23h-4.74V.26Z"/>
    <path class="st2" d="M337.81.26h12.63v3.26h-7.91v2.42h7.34v3.11h-7.34v3.01h8.14v3.46h-12.86V.26Z"/>
    <path class="st2" d="M352.03.26h14.33v3.77h-4.81v11.49h-4.71V4.03h-4.81V.26Z"/>
    <path class="st2" d="M366.85.26h5.24l3.07,5.15,3.08-5.15h5.21l-5.93,8.87v6.39h-4.73v-6.39l-5.94-8.87Z"/>
  </g>
  <g>
    <path class="st1" d="M12.02,42.27h-6.62v-2.67h6.62c1.28,0,2.32-.2,3.11-.61.79-.41,1.38-.98,1.74-1.7s.55-1.55.55-2.48c0-.85-.18-1.65-.55-2.4-.37-.75-.95-1.35-1.74-1.81-.79-.46-1.83-.69-3.11-.69h-5.85v22.09h-3.29v-24.78h9.14c1.87,0,3.46.32,4.75.97,1.29.65,2.28,1.54,2.94,2.68s1,2.44,1,3.91c0,1.59-.33,2.94-1,4.07s-1.65,1.98-2.94,2.56c-1.29.58-2.88.88-4.75.88Z"/>
    <path class="st1" d="M28.39,27.2v24.78h-3.28v-24.78h3.28Z"/>
    <path class="st1" d="M49.31,44.1h3.27c-.17,1.57-.62,2.97-1.34,4.2-.73,1.24-1.75,2.21-3.08,2.94s-2.98,1.08-4.97,1.08c-1.45,0-2.77-.27-3.96-.82s-2.2-1.32-3.06-2.32c-.85-1-1.51-2.21-1.97-3.62-.46-1.41-.69-2.99-.69-4.72v-2.47c0-1.74.23-3.31.69-4.72.46-1.41,1.12-2.62,1.99-3.63.87-1.01,1.91-1.79,3.14-2.33s2.6-.82,4.14-.82c1.87,0,3.46.35,4.75,1.06,1.29.7,2.3,1.68,3.02,2.92s1.17,2.68,1.34,4.31h-3.27c-.16-1.16-.45-2.15-.89-2.99s-1.04-1.48-1.84-1.93-1.83-.68-3.11-.68c-1.1,0-2.07.21-2.9.63-.83.42-1.53,1.02-2.09,1.79-.56.77-.98,1.7-1.27,2.77-.28,1.08-.43,2.27-.43,3.59v2.5c0,1.21.13,2.35.38,3.42.26,1.07.64,2,1.17,2.81.52.81,1.19,1.44,1.99,1.9.81.46,1.76.69,2.86.69,1.4,0,2.51-.22,3.34-.66.83-.44,1.46-1.08,1.88-1.91.43-.83.73-1.82.91-2.98Z"/>
    <path class="st1" d="M74.16,27.2v2.69h-19.15v-2.69h19.15ZM66.19,27.2v24.78h-3.23v-24.78h3.23Z"/>
    <path class="st1" d="M96.92,38.81v1.57c0,1.86-.23,3.53-.7,5-.47,1.47-1.13,2.73-2.01,3.76-.87,1.03-1.92,1.82-3.14,2.37s-2.58.82-4.09.82-2.81-.27-4.03-.82c-1.22-.54-2.27-1.33-3.17-2.37-.89-1.03-1.58-2.29-2.07-3.76-.49-1.48-.73-3.14-.73-5v-1.57c0-1.86.24-3.53.72-5,.48-1.47,1.17-2.72,2.05-3.76s1.94-1.83,3.16-2.37,2.56-.82,4.03-.82,2.87.27,4.09.82,2.27,1.34,3.15,2.37c.88,1.04,1.55,2.29,2.03,3.76.47,1.47.71,3.13.71,5ZM93.66,40.38v-1.6c0-1.47-.15-2.78-.45-3.91-.3-1.13-.74-2.09-1.32-2.86-.58-.77-1.29-1.36-2.12-1.75-.83-.4-1.78-.6-2.83-.6s-1.94.2-2.77.6c-.82.4-1.53.98-2.11,1.75-.58.77-1.04,1.73-1.35,2.86-.32,1.13-.48,2.44-.48,3.91v1.6c0,1.49.16,2.8.48,3.94s.77,2.1,1.37,2.88,1.31,1.36,2.13,1.76c.82.4,1.75.6,2.77.6s2.01-.2,2.84-.6,1.53-.98,2.1-1.76c.57-.78,1.01-1.74,1.3-2.88s.44-2.45.44-3.94Z"/>
    <path class="st1" d="M101.82,27.2h8.2c1.86,0,3.44.28,4.72.85,1.29.57,2.27,1.4,2.94,2.51.67,1.11,1.01,2.46,1.01,4.08,0,1.13-.23,2.17-.69,3.11-.46.94-1.12,1.73-1.97,2.38s-1.88,1.14-3.07,1.46l-.92.36h-7.71l-.03-2.67h5.82c1.18,0,2.16-.21,2.94-.62.78-.41,1.37-.97,1.77-1.68.4-.7.6-1.48.6-2.33,0-.95-.19-1.79-.56-2.5-.38-.71-.96-1.27-1.76-1.66-.8-.39-1.83-.59-3.09-.59h-4.92v22.09h-3.28v-24.78ZM116.3,51.99l-6.03-11.23,3.42-.02,6.11,11.05v.2h-3.51Z"/>
    <path class="st1" d="M126.82,27.2v24.78h-3.29v-24.78h3.29Z"/>
    <path class="st1" d="M141.95,29.4l-8.2,22.59h-3.35l9.45-24.78h2.16l-.05,2.2ZM148.4,42.81v2.69h-13.92v-2.69h13.92ZM148.83,51.99l-8.22-22.59-.05-2.2h2.16l9.48,24.78h-3.37Z"/>
    <path class="st1" d="M158.8,27.2v24.78h-3.28v-24.78h3.28ZM170.55,49.31v2.67h-12.39v-2.67h12.39Z"/>
    <path class="st1" d="M201.25,39.65v9.07c-.31.45-.79.96-1.46,1.52-.67.56-1.59,1.05-2.77,1.46s-2.69.62-4.54.62c-1.51,0-2.9-.26-4.16-.79-1.27-.53-2.36-1.3-3.29-2.31s-1.64-2.25-2.14-3.71c-.5-1.46-.76-3.11-.76-4.96v-1.92c0-1.85.22-3.5.66-4.95.44-1.45,1.08-2.69,1.93-3.7.85-1.02,1.89-1.79,3.13-2.32,1.24-.53,2.66-.79,4.25-.79,1.9,0,3.48.33,4.76.98s2.27,1.55,3,2.7,1.18,2.45,1.39,3.91h-3.29c-.15-.9-.44-1.71-.88-2.45s-1.06-1.33-1.86-1.78-1.84-.67-3.11-.67c-1.15,0-2.14.21-2.98.63-.84.42-1.53,1.02-2.08,1.8-.54.78-.95,1.73-1.22,2.84-.27,1.11-.4,2.37-.4,3.76v1.96c0,1.43.17,2.71.5,3.83.33,1.12.81,2.08,1.44,2.87.62.79,1.37,1.39,2.24,1.8.87.41,1.83.61,2.88.61,1.17,0,2.12-.1,2.84-.3.73-.2,1.29-.44,1.7-.71.41-.28.72-.54.94-.79v-5.55h-5.74v-2.66h9Z"/>
    <path class="st1" d="M220.86,27.2h3.27v16.77c0,1.86-.41,3.41-1.24,4.65-.83,1.24-1.93,2.17-3.29,2.78-1.37.62-2.85.93-4.45.93-1.68,0-3.2-.31-4.55-.93-1.36-.62-2.43-1.55-3.22-2.78-.79-1.24-1.18-2.79-1.18-4.65v-16.77h3.25v16.77c0,1.29.24,2.36.71,3.2s1.14,1.46,2,1.87,1.85.61,2.99.61,2.15-.2,3-.61c.86-.41,1.52-1.03,2-1.87s.71-1.91.71-3.2v-16.77Z"/>
    <path class="st1" d="M232.81,27.2v24.78h-3.29v-24.78h3.29Z"/>
    <path class="st1" d="M242.05,27.2v24.78h-3.29v-24.78h3.29ZM245.47,51.99h-5.17l.03-2.67h5.14c1.77,0,3.25-.37,4.43-1.12,1.18-.74,2.07-1.79,2.66-3.13.6-1.34.89-2.92.89-4.72v-1.52c0-1.42-.17-2.68-.51-3.79-.34-1.11-.84-2.04-1.5-2.81-.66-.77-1.46-1.35-2.41-1.75-.95-.4-2.03-.6-3.26-.6h-5.58v-2.69h5.58c1.62,0,3.1.27,4.44.81,1.34.54,2.49,1.32,3.46,2.33s1.72,2.24,2.24,3.68c.52,1.44.78,3.05.78,4.84v1.48c0,1.79-.26,3.41-.78,4.84-.52,1.44-1.27,2.66-2.26,3.67-.98,1.01-2.16,1.78-3.54,2.32-1.38.54-2.93.81-4.66.81Z"/>
    <path class="st1" d="M264.93,27.2v24.78h-3.29v-24.78h3.29ZM277.21,27.2v2.69h-12.95v-2.69h12.95ZM275.65,37.86v2.67h-11.39v-2.67h11.39ZM277.38,49.31v2.67h-13.12v-2.67h13.12Z"/>
    <path class="st1" d="M305.52,49.4v2.59h-16.22v-2.26l8.12-9.04c1-1.11,1.77-2.06,2.32-2.83.55-.78.94-1.47,1.16-2.09.22-.62.33-1.25.33-1.9,0-.82-.17-1.56-.5-2.22-.33-.66-.83-1.19-1.47-1.59-.65-.4-1.43-.6-2.35-.6-1.1,0-2.02.21-2.75.64-.73.43-1.28,1.02-1.64,1.78-.36.76-.54,1.63-.54,2.62h-3.15c0-1.4.31-2.67.92-3.83.61-1.16,1.52-2.08,2.72-2.77,1.2-.69,2.68-1.03,4.44-1.03,1.57,0,2.91.28,4.02.83,1.11.55,1.97,1.32,2.56,2.31.6.99.89,2.15.89,3.48,0,.73-.12,1.46-.37,2.2s-.58,1.48-1,2.22c-.43.74-.92,1.46-1.48,2.18s-1.16,1.42-1.8,2.11l-6.64,7.2h12.42Z"/>
    <path class="st1" d="M324.43,37.62v3.78c0,2.03-.18,3.75-.54,5.14s-.88,2.52-1.57,3.37c-.68.85-1.5,1.47-2.46,1.85s-2.04.57-3.24.57c-.95,0-1.83-.12-2.64-.36s-1.53-.62-2.17-1.15c-.64-.53-1.19-1.22-1.64-2.07-.45-.85-.8-1.88-1.04-3.1-.24-1.21-.36-2.63-.36-4.26v-3.78c0-2.03.18-3.73.55-5.11.37-1.37.89-2.48,1.57-3.31s1.5-1.43,2.46-1.8c.96-.36,2.03-.54,3.23-.54.96,0,1.85.12,2.66.35.81.23,1.53.6,2.17,1.11s1.18,1.17,1.63,2.01c.45.83.79,1.85,1.03,3.05.24,1.2.36,2.62.36,4.24ZM321.26,41.91v-4.82c0-1.11-.07-2.09-.2-2.94-.13-.84-.32-1.57-.57-2.17s-.56-1.09-.94-1.46c-.38-.37-.82-.65-1.31-.83-.49-.18-1.05-.26-1.66-.26-.75,0-1.41.14-1.99.42-.58.28-1.06.72-1.46,1.32-.39.6-.69,1.39-.89,2.37-.2.98-.31,2.16-.31,3.56v4.82c0,1.11.07,2.09.2,2.94.13.85.33,1.59.59,2.2.26.62.58,1.13.95,1.52.37.4.81.69,1.3.88.49.19,1.04.28,1.64.28.77,0,1.45-.15,2.03-.44.58-.29,1.06-.76,1.46-1.39.39-.63.68-1.44.88-2.43.19-.99.29-2.18.29-3.57Z"/>
    <path class="st1" d="M344.7,49.4v2.59h-16.22v-2.26l8.12-9.04c1-1.11,1.77-2.06,2.32-2.83.55-.78.94-1.47,1.16-2.09.22-.62.33-1.25.33-1.9,0-.82-.17-1.56-.5-2.22-.33-.66-.83-1.19-1.47-1.59-.65-.4-1.43-.6-2.35-.6-1.1,0-2.02.21-2.75.64-.73.43-1.28,1.02-1.64,1.78-.36.76-.54,1.63-.54,2.62h-3.15c0-1.4.31-2.67.92-3.83.61-1.16,1.52-2.08,2.72-2.77,1.2-.69,2.68-1.03,4.44-1.03,1.57,0,2.91.28,4.02.83,1.11.55,1.97,1.32,2.56,2.31.6.99.89,2.15.89,3.48,0,.73-.12,1.46-.37,2.2s-.58,1.48-1,2.22c-.43.74-.92,1.46-1.48,2.18s-1.16,1.42-1.8,2.11l-6.64,7.2h12.42Z"/>
    <path class="st1" d="M360.14,27.17h.27v2.67h-.27c-1.67,0-3.06.27-4.19.81s-2.01,1.26-2.67,2.16c-.66.9-1.13,1.92-1.42,3.04-.29,1.12-.43,2.26-.43,3.42v3.64c0,1.1.13,2.07.39,2.92.26.85.62,1.56,1.07,2.14.45.58.97,1.02,1.54,1.31s1.17.44,1.8.44c.73,0,1.37-.14,1.94-.42s1.05-.67,1.44-1.17c.39-.5.69-1.1.89-1.79s.31-1.45.31-2.28c0-.74-.09-1.45-.27-2.14-.18-.69-.46-1.3-.83-1.84-.38-.54-.84-.96-1.4-1.28-.56-.31-1.23-.47-2-.47-.87,0-1.69.21-2.44.64-.75.43-1.37.98-1.85,1.67-.48.69-.76,1.43-.83,2.24l-1.67-.02c.16-1.27.46-2.36.89-3.26.44-.9.98-1.64,1.63-2.21.65-.57,1.38-.99,2.2-1.26.81-.27,1.67-.4,2.58-.4,1.24,0,2.3.23,3.2.7.9.47,1.63,1.09,2.21,1.86.58.78,1.01,1.65,1.29,2.62s.42,1.97.42,2.99c0,1.17-.17,2.26-.49,3.28-.33,1.02-.82,1.92-1.47,2.69-.65.77-1.46,1.37-2.41,1.8-.95.43-2.06.65-3.32.65-1.34,0-2.51-.28-3.51-.83-1-.55-1.83-1.29-2.49-2.21-.66-.92-1.15-1.94-1.48-3.06-.33-1.12-.49-2.26-.49-3.42v-1.48c0-1.75.18-3.46.53-5.14.35-1.68.96-3.2,1.83-4.56s2.07-2.45,3.62-3.25c1.54-.81,3.51-1.21,5.91-1.21Z"/>
  </g>
  <g>
    <path class="st1" d="M4.21,74.06v14.27H1.27v-14.27h2.94ZM10.59,74.06v2.3H3.41v-2.3h7.17ZM9.9,80.15v2.29H3.41v-2.29h6.49Z"/>
    <path class="st1" d="M14.09,74.96c0-.41.14-.75.43-1.02s.67-.4,1.16-.4.86.13,1.15.4.44.61.44,1.02-.15.75-.44,1.02c-.29.27-.67.4-1.15.4s-.87-.13-1.16-.4c-.29-.27-.43-.61-.43-1.02ZM17.1,77.72v10.61h-2.83v-10.61h2.83Z"/>
    <path class="st1" d="M24.26,80.04v8.29h-2.82v-10.61h2.66l.17,2.31ZM27.46,77.65l-.05,2.62c-.14-.02-.3-.04-.49-.05-.19-.02-.37-.02-.52-.02-.4,0-.74.05-1.03.15-.29.1-.53.25-.73.45-.19.2-.34.43-.43.71-.09.28-.15.6-.16.96l-.57-.18c0-.69.07-1.32.21-1.9.14-.58.34-1.08.6-1.51.26-.43.59-.76.98-1,.39-.24.83-.35,1.32-.35.16,0,.32.01.48.03.16.02.3.05.4.09Z"/>
    <path class="st1" d="M36.53,85.4c0-.2-.06-.39-.18-.55-.12-.16-.33-.32-.65-.46-.32-.14-.77-.27-1.37-.39-.54-.12-1.03-.27-1.5-.45s-.86-.4-1.2-.65c-.34-.25-.6-.56-.79-.91s-.28-.75-.28-1.2.1-.86.29-1.25.47-.74.83-1.04c.36-.3.81-.54,1.33-.71.53-.17,1.12-.26,1.78-.26.92,0,1.71.15,2.38.44.66.29,1.17.7,1.53,1.21s.53,1.1.53,1.75h-2.82c0-.27-.06-.52-.17-.74-.11-.22-.29-.39-.53-.52-.24-.13-.55-.19-.93-.19-.31,0-.58.05-.81.16-.23.11-.4.25-.52.43-.12.18-.18.38-.18.59,0,.16.03.31.1.44s.18.24.34.35c.16.1.36.2.61.29.25.09.56.17.94.24.76.16,1.45.36,2.05.61.6.25,1.08.59,1.43,1.02.35.43.53.99.53,1.68,0,.47-.1.9-.31,1.29-.21.39-.51.73-.9,1.02-.39.29-.86.52-1.41.68-.55.16-1.16.24-1.84.24-.99,0-1.82-.18-2.5-.53s-1.2-.8-1.55-1.35-.52-1.11-.52-1.68h2.68c.01.38.11.7.3.93s.42.41.72.51.61.16.95.16c.37,0,.67-.05.91-.15s.43-.24.55-.41c.13-.17.19-.37.19-.6Z"/>
    <path class="st1" d="M48.31,77.72v2h-6.17v-2h6.17ZM43.67,75.1h2.82v10.03c0,.31.04.54.12.71.08.16.2.28.37.34s.37.09.62.09c.18,0,.33,0,.48-.02s.26-.03.36-.05v2.08c-.23.08-.49.14-.77.19-.28.05-.59.07-.93.07-.62,0-1.16-.1-1.62-.31-.46-.21-.82-.54-1.06-.99s-.37-1.06-.37-1.8v-10.31Z"/>
    <path class="st1" d="M62.03,74.06v14.27h-2.94v-14.27h2.94ZM68.66,74.06v2.3h-7.59v-2.3h7.59ZM67.68,79.87v2.24h-6.61v-2.24h6.61ZM68.67,86.03v2.29h-7.6v-2.29h7.6Z"/>
    <path class="st1" d="M71.77,83.15v-.21c0-.81.09-1.55.27-2.21.18-.66.45-1.23.8-1.71.35-.48.79-.85,1.3-1.11.52-.26,1.1-.39,1.76-.39.62,0,1.16.13,1.63.39.47.26.87.63,1.2,1.11.33.48.6,1.05.8,1.7.2.65.35,1.36.44,2.13v.45c-.09.74-.24,1.42-.44,2.06s-.47,1.19-.8,1.66c-.33.47-.73.84-1.2,1.1-.47.26-1.02.39-1.65.39-.66,0-1.25-.13-1.76-.4-.51-.27-.94-.64-1.29-1.13s-.62-1.05-.8-1.71c-.18-.65-.27-1.37-.27-2.14ZM74.6,82.95v.21c0,.44.03.85.1,1.23.07.38.18.71.34,1,.16.29.37.52.63.68.26.16.57.24.95.24.48,0,.88-.11,1.2-.33s.55-.52.72-.91.26-.83.29-1.33v-1.28c-.02-.41-.08-.78-.17-1.11s-.23-.61-.41-.85c-.18-.23-.4-.42-.67-.55-.26-.13-.58-.2-.94-.2s-.68.08-.94.25c-.26.17-.47.39-.63.68-.16.29-.28.63-.35,1.01s-.11.81-.11,1.26ZM78.48,86.01v-12.74h2.84v15.05h-2.56l-.28-2.31Z"/>
    <path class="st1" d="M85.49,74.96c0-.41.14-.75.43-1.02s.67-.4,1.16-.4.86.13,1.15.4.44.61.44,1.02-.15.75-.44,1.02c-.29.27-.67.4-1.15.4s-.87-.13-1.16-.4c-.29-.27-.43-.61-.43-1.02ZM88.5,77.72v10.61h-2.83v-10.61h2.83Z"/>
    <path class="st1" d="M98.04,77.72v2h-6.17v-2h6.17ZM93.39,75.1h2.82v10.03c0,.31.04.54.12.71.08.16.2.28.37.34s.37.09.62.09c.18,0,.33,0,.48-.02.14-.02.26-.03.36-.05v2.08c-.23.08-.49.14-.77.19-.28.05-.59.07-.93.07-.62,0-1.16-.1-1.62-.31-.46-.21-.81-.54-1.06-.99s-.37-1.06-.37-1.8v-10.31Z"/>
    <path class="st1" d="M101.61,74.96c0-.41.14-.75.43-1.02.29-.27.67-.4,1.16-.4s.86.13,1.15.4.44.61.44,1.02-.15.75-.44,1.02c-.29.27-.67.4-1.15.4s-.87-.13-1.16-.4c-.29-.27-.43-.61-.43-1.02ZM104.62,77.72v10.61h-2.83v-10.61h2.83Z"/>
    <path class="st1" d="M108.51,83.13v-.21c0-.78.11-1.5.33-2.15.22-.66.55-1.23.97-1.71s.95-.86,1.57-1.13c.62-.27,1.33-.41,2.14-.41s1.52.13,2.15.41c.63.27,1.15.65,1.58,1.13.43.48.75,1.05.98,1.71.22.66.33,1.37.33,2.15v.21c0,.77-.11,1.49-.33,2.14-.22.66-.55,1.23-.98,1.71-.43.49-.95.86-1.57,1.13-.62.27-1.33.4-2.14.4s-1.52-.13-2.14-.4c-.62-.27-1.15-.65-1.58-1.13-.43-.49-.75-1.06-.98-1.71-.22-.66-.33-1.37-.33-2.14ZM111.33,82.93v.21c0,.45.04.86.12,1.25s.2.72.38,1.01c.17.29.4.52.68.68.28.16.62.24,1.03.24s.73-.08,1.01-.24c.28-.16.51-.39.68-.68s.3-.63.38-1.01.12-.8.12-1.25v-.21c0-.43-.04-.84-.12-1.22-.08-.38-.21-.72-.38-1.02-.17-.3-.4-.53-.68-.7s-.62-.25-1.02-.25-.74.08-1.01.25c-.28.17-.5.4-.68.7-.17.3-.3.64-.38,1.02-.08.38-.12.79-.12,1.22Z"/>
    <path class="st1" d="M125.06,79.99v8.34h-2.82v-10.61h2.65l.18,2.26ZM124.65,82.65h-.76c0-.78.1-1.49.3-2.12.2-.63.49-1.17.85-1.62s.8-.79,1.31-1.03,1.07-.36,1.7-.36c.5,0,.95.07,1.36.21.41.14.77.37,1.06.69s.53.73.69,1.25c.16.52.24,1.15.24,1.89v6.76h-2.84v-6.77c0-.47-.07-.84-.2-1.1-.13-.26-.32-.45-.57-.55-.25-.11-.56-.16-.93-.16s-.71.08-.99.22c-.28.15-.51.36-.69.62s-.32.57-.41.93c-.09.35-.14.73-.14,1.14Z"/>
  </g>
</svg>