<?xml version="1.0" encoding="UTF-8"?>
<svg id="Layer_2" data-name="Layer 2" xmlns="http://www.w3.org/2000/svg" xmlns:xlink="http://www.w3.org/1999/xlink" viewBox="0 0 743.3 170.63">
  <defs>
    <style>
      .cls-1, .cls-2, .cls-3 {
        fill: none;
      }

      .cls-2 {
        stroke-dasharray: 0 12.29;
      }

      .cls-2, .cls-3 {
        stroke: #f69421;
        stroke-linecap: round;
        stroke-linejoin: round;
        stroke-width: 4.19px;
      }

      .cls-4 {
        fill: url(#linear-gradient-3);
      }

      .cls-5 {
        fill: url(#linear-gradient-2);
      }

      .cls-6 {
        fill: url(#linear-gradient);
      }

      .cls-7 {
        clip-path: url(#clippath-1);
      }

      .cls-8 {
        clip-path: url(#clippath-2);
      }

      .cls-3 {
        stroke-dasharray: 0 13.43;
      }

      .cls-9 {
        fill: #fff;
      }

      .cls-10 {
        fill: #efc8b7;
      }

      .cls-11 {
        fill: #f06522;
      }

      .cls-12 {
        clip-path: url(#clippath);
      }
    </style>
    <clipPath id="clippath">
      <polygon class="cls-1" points="121.64 121.89 138.11 131.4 154.59 121.89 138.11 112.38 121.64 121.89"/>
    </clipPath>
    <linearGradient id="linear-gradient" x1="-5078.29" y1="-4703.51" x2="-5076.32" y2="-4703.51" gradientTransform="translate(724210.77 781798.35) rotate(90) scale(153.94 -153.94)" gradientUnits="userSpaceOnUse">
      <stop offset="0" stop-color="#f9ec43"/>
      <stop offset=".04" stop-color="#f9e136"/>
      <stop offset=".11" stop-color="#f9d024"/>
      <stop offset=".19" stop-color="#f9c719"/>
      <stop offset=".28" stop-color="#fac416"/>
      <stop offset=".55" stop-color="#f29e32"/>
      <stop offset=".67" stop-color="#ef8e40"/>
      <stop offset=".89" stop-color="#eb673c"/>
      <stop offset="1" stop-color="#e83e38"/>
    </linearGradient>
    <clipPath id="clippath-1">
      <polygon class="cls-1" points="121.64 140.91 138.11 150.43 138.11 131.4 121.64 121.89 121.64 140.91"/>
    </clipPath>
    <linearGradient id="linear-gradient-2" x1="-5002.77" y1="-4600.91" x2="-5000.8" y2="-4600.91" gradientTransform="translate(225096.07 244668.3) rotate(90) scale(48.9 -48.9)" xlink:href="#linear-gradient"/>
    <clipPath id="clippath-2">
      <polygon class="cls-1" points="138.11 131.4 138.11 150.43 154.59 140.91 154.59 121.89 138.11 131.4"/>
    </clipPath>
    <linearGradient id="linear-gradient-3" x1="-5026.59" y1="-4699.6" x2="-5024.62" y2="-4699.6" gradientTransform="translate(354227.04 378748.1) rotate(90) scale(75.34 -75.34)" xlink:href="#linear-gradient"/>
  </defs>
  <g id="Layer_5" data-name="Layer 5">
    <path class="cls-10" d="M75.22,152.68h-33.25V46.84l-32.66,9.54v-25.18l62.85-21.74h3.05v143.21Z"/>
    <path class="cls-11" d="M65.9,143.21h-33.25V37.38L0,46.92v-25.18L62.85,0h3.05v143.21Z"/>
    <polygon class="cls-11" points="138.11 139.85 677.2 139.85 743.3 53.6 138.11 53.6 138.11 139.85"/>
    <g>
      <path class="cls-9" d="M186.77,98.19v14.28h-8.35v-40.52h15.81c3.04,0,5.72.56,8.03,1.67,2.31,1.11,4.09,2.7,5.33,4.75,1.24,2.05,1.87,4.38,1.87,7,0,3.97-1.36,7.1-4.08,9.39s-6.48,3.44-11.29,3.44h-7.32ZM186.77,91.43h7.46c2.21,0,3.89-.52,5.05-1.56,1.16-1.04,1.74-2.52,1.74-4.45s-.58-3.59-1.75-4.81c-1.17-1.22-2.78-1.86-4.84-1.89h-7.65v12.72Z"/>
      <path class="cls-9" d="M231.58,89.9c-1.09-.15-2.06-.22-2.89-.22-3.04,0-5.04,1.03-5.98,3.09v19.71h-8.04v-30.11h7.6l.22,3.59c1.61-2.76,3.85-4.15,6.71-4.15.89,0,1.73.12,2.5.36l-.11,7.74Z"/>
      <path class="cls-9" d="M249.31,113.03c-4.42,0-8.01-1.35-10.79-4.06-2.77-2.71-4.16-6.32-4.16-10.83v-.78c0-3.02.58-5.73,1.75-8.11,1.17-2.38,2.83-4.22,4.97-5.51,2.14-1.29,4.59-1.93,7.33-1.93,4.12,0,7.36,1.3,9.73,3.9,2.37,2.6,3.55,6.28,3.55,11.05v3.28h-19.18c.26,1.97,1.04,3.54,2.35,4.73,1.31,1.19,2.96,1.78,4.97,1.78,3.1,0,5.52-1.12,7.26-3.37l3.95,4.42c-1.21,1.71-2.84,3.04-4.9,3.99-2.06.96-4.34,1.43-6.85,1.43ZM248.39,88.28c-1.6,0-2.89.54-3.88,1.62s-1.63,2.63-1.91,4.64h11.19v-.64c-.04-1.79-.52-3.17-1.45-4.15s-2.25-1.47-3.95-1.47Z"/>
      <path class="cls-9" d="M274.74,112.47h-8.07v-42.75h8.07v42.75Z"/>
      <path class="cls-9" d="M281.31,74.56c0-1.21.4-2.2,1.21-2.98.81-.78,1.91-1.17,3.3-1.17s2.47.39,3.28,1.17,1.22,1.77,1.22,2.98-.41,2.23-1.24,3.01-1.92,1.17-3.27,1.17-2.45-.39-3.27-1.17c-.83-.78-1.24-1.78-1.24-3.01ZM289.86,112.47h-8.07v-30.11h8.07v30.11Z"/>
      <path class="cls-9" d="M304.02,82.35l.25,3.37c2.13-2.62,5.02-3.92,8.66-3.92,3.88,0,6.54,1.53,7.99,4.59,2.12-3.06,5.13-4.59,9.04-4.59,3.27,0,5.7.95,7.29,2.85,1.59,1.9,2.39,4.76,2.39,8.59v19.23h-8.07v-19.2c0-1.71-.33-2.95-1-3.74s-1.85-1.18-3.54-1.18c-2.41,0-4.08,1.15-5.01,3.45l.03,20.68h-8.04v-19.18c0-1.74-.34-3.01-1.03-3.79-.69-.78-1.86-1.17-3.51-1.17-2.28,0-3.93.95-4.95,2.84v21.29h-8.04v-30.11h7.54Z"/>
      <path class="cls-9" d="M345.77,74.56c0-1.21.4-2.2,1.21-2.98.81-.78,1.91-1.17,3.3-1.17s2.47.39,3.28,1.17,1.22,1.77,1.22,2.98-.41,2.23-1.24,3.01-1.92,1.17-3.27,1.17-2.45-.39-3.27-1.17c-.83-.78-1.24-1.78-1.24-3.01ZM354.32,112.47h-8.07v-30.11h8.07v30.11Z"/>
      <path class="cls-9" d="M368.34,82.35l.25,3.48c2.15-2.69,5.04-4.04,8.66-4.04,3.19,0,5.57.94,7.12,2.81s2.36,4.68,2.39,8.4v19.46h-8.04v-19.26c0-1.71-.37-2.95-1.11-3.72-.74-.77-1.98-1.16-3.7-1.16-2.26,0-3.96.97-5.09,2.89v21.24h-8.04v-30.11h7.57Z"/>
      <path class="cls-9" d="M410.31,112.47c-.37-.72-.64-1.62-.81-2.7-1.95,2.17-4.48,3.26-7.6,3.26-2.95,0-5.4-.85-7.33-2.56s-2.91-3.86-2.91-6.46c0-3.19,1.18-5.64,3.55-7.35,2.37-1.71,5.78-2.57,10.26-2.59h3.7v-1.73c0-1.39-.36-2.5-1.07-3.34-.71-.83-1.84-1.25-3.38-1.25-1.36,0-2.42.33-3.19.97s-1.15,1.54-1.15,2.67h-8.04c0-1.74.54-3.36,1.61-4.84,1.08-1.48,2.6-2.65,4.56-3.49s4.17-1.27,6.62-1.27c3.71,0,6.66.93,8.84,2.8,2.18,1.87,3.27,4.49,3.27,7.86v13.05c.02,2.86.42,5.02,1.2,6.49v.47h-8.13ZM403.66,106.88c1.19,0,2.28-.26,3.29-.79,1-.53,1.74-1.24,2.23-2.13v-5.18h-3.01c-4.03,0-6.17,1.39-6.43,4.17l-.03.47c0,1,.35,1.83,1.06,2.48s1.67.97,2.89.97Z"/>
      <path class="cls-9" d="M440.34,89.9c-1.1-.15-2.06-.22-2.89-.22-3.04,0-5.04,1.03-5.98,3.09v19.71h-8.04v-30.11h7.6l.22,3.59c1.61-2.76,3.85-4.15,6.71-4.15.89,0,1.73.12,2.51.36l-.11,7.74Z"/>
      <path class="cls-9" d="M455.46,101.09l5.57-18.73h8.63l-12.11,34.79-.67,1.59c-1.8,3.93-4.77,5.9-8.91,5.9-1.17,0-2.36-.18-3.56-.53v-6.09l1.22.03c1.52,0,2.66-.23,3.41-.7.75-.46,1.34-1.23,1.77-2.31l.95-2.48-10.55-30.2h8.66l5.59,18.73Z"/>
      <path class="cls-9" d="M487.55,112.47v-40.52h12.47c3.56,0,6.75.8,9.56,2.41,2.81,1.61,5,3.89,6.58,6.85,1.58,2.96,2.37,6.32,2.37,10.09v1.86c0,3.77-.78,7.12-2.32,10.05s-3.73,5.2-6.55,6.82-6,2.43-9.55,2.45h-12.55ZM495.9,78.71v27.05h4.04c3.27,0,5.76-1.07,7.49-3.2,1.73-2.13,2.61-5.19,2.64-9.16v-2.14c0-4.12-.85-7.24-2.56-9.37s-4.2-3.19-7.49-3.19h-4.12Z"/>
      <path class="cls-9" d="M537.92,113.03c-4.42,0-8.01-1.35-10.78-4.06-2.77-2.71-4.16-6.32-4.16-10.83v-.78c0-3.02.58-5.73,1.75-8.11,1.17-2.38,2.82-4.22,4.97-5.51,2.14-1.29,4.59-1.93,7.33-1.93,4.12,0,7.36,1.3,9.73,3.9,2.37,2.6,3.55,6.28,3.55,11.05v3.28h-19.18c.26,1.97,1.04,3.54,2.35,4.73,1.31,1.19,2.96,1.78,4.97,1.78,3.1,0,5.52-1.12,7.26-3.37l3.95,4.42c-1.21,1.71-2.84,3.04-4.9,3.99-2.06.96-4.34,1.43-6.85,1.43ZM537,88.28c-1.6,0-2.89.54-3.88,1.62s-1.63,2.63-1.91,4.64h11.19v-.64c-.04-1.79-.52-3.17-1.45-4.15s-2.25-1.47-3.95-1.47Z"/>
      <path class="cls-9" d="M571.18,104.15c0-.98-.49-1.76-1.46-2.32-.97-.57-2.54-1.07-4.69-1.52-7.16-1.5-10.74-4.55-10.74-9.13,0-2.67,1.11-4.9,3.33-6.69,2.22-1.79,5.12-2.69,8.7-2.69,3.82,0,6.88.9,9.17,2.7s3.44,4.14,3.44,7.01h-8.04c0-1.15-.37-2.1-1.11-2.85-.74-.75-1.9-1.13-3.48-1.13-1.35,0-2.4.31-3.14.92-.74.61-1.11,1.39-1.11,2.34,0,.89.42,1.61,1.27,2.16.84.55,2.27,1.02,4.27,1.42s3.69.85,5.07,1.35c4.25,1.56,6.37,4.26,6.37,8.1,0,2.75-1.18,4.97-3.53,6.67-2.36,1.7-5.4,2.55-9.13,2.55-2.52,0-4.76-.45-6.72-1.35-1.96-.9-3.49-2.13-4.61-3.7-1.11-1.57-1.67-3.26-1.67-5.08h7.62c.07,1.43.6,2.52,1.59,3.28s2.3,1.14,3.95,1.14c1.54,0,2.7-.29,3.49-.88.79-.58,1.18-1.35,1.18-2.3Z"/>
      <path class="cls-9" d="M584.12,74.56c0-1.21.4-2.2,1.21-2.98.81-.78,1.91-1.17,3.3-1.17s2.47.39,3.28,1.17,1.22,1.77,1.22,2.98-.41,2.23-1.24,3.01-1.92,1.17-3.27,1.17-2.45-.39-3.27-1.17c-.83-.78-1.24-1.78-1.24-3.01ZM592.67,112.47h-8.07v-30.11h8.07v30.11Z"/>
      <path class="cls-9" d="M598.12,97.19c0-4.62,1.1-8.34,3.3-11.16,2.2-2.82,5.16-4.23,8.89-4.23,3.3,0,5.87,1.13,7.71,3.4l.33-2.84h7.29v29.11c0,2.63-.6,4.93-1.79,6.88-1.2,1.95-2.88,3.43-5.05,4.45-2.17,1.02-4.71,1.53-7.63,1.53-2.21,0-4.36-.44-6.46-1.32s-3.68-2.02-4.76-3.41l3.56-4.9c2,2.25,4.43,3.37,7.29,3.37,2.13,0,3.79-.57,4.98-1.71,1.19-1.14,1.78-2.76,1.78-4.86v-1.61c-1.86,2.1-4.3,3.14-7.32,3.14-3.62,0-6.54-1.42-8.78-4.24s-3.35-6.58-3.35-11.26v-.33ZM606.17,97.79c0,2.73.55,4.87,1.64,6.42s2.6,2.33,4.51,2.33c2.45,0,4.2-.92,5.26-2.76v-12.68c-1.08-1.84-2.81-2.76-5.21-2.76-1.93,0-3.45.79-4.55,2.37s-1.66,3.94-1.66,7.08Z"/>
      <path class="cls-9" d="M639.23,82.35l.25,3.48c2.15-2.69,5.04-4.04,8.66-4.04,3.19,0,5.57.94,7.12,2.81s2.36,4.68,2.39,8.4v19.46h-8.04v-19.26c0-1.71-.37-2.95-1.11-3.72-.74-.77-1.98-1.16-3.7-1.16-2.26,0-3.96.97-5.09,2.89v21.24h-8.04v-30.11h7.57Z"/>
    </g>
    <g class="cls-12">
      <rect class="cls-6" x="121.06" y="102.91" width="34.11" height="37.97" transform="translate(-39.93 169.16) rotate(-56.3)"/>
    </g>
    <g class="cls-7">
      <rect class="cls-5" x="119.98" y="121" width="19.78" height="30.31" transform="translate(-15.42 16.59) rotate(-6.9)"/>
    </g>
    <g class="cls-8">
      <rect class="cls-4" x="130.27" y="120.45" width="32.17" height="31.42" transform="translate(-52.91 152.07) rotate(-47.5)"/>
    </g>
    <line class="cls-2" x1="121.64" y1="36.62" x2="614.03" y2="36.62"/>
    <line class="cls-3" x1="2.78" y1="168.53" x2="151.67" y2="168.53"/>
  </g>
</svg>