<?xml version="1.0" encoding="UTF-8"?>
<svg id="Layer_2" data-name="Layer 2" xmlns="http://www.w3.org/2000/svg" xmlns:xlink="http://www.w3.org/1999/xlink" viewBox="0 0 737.85 172.69">
  <defs>
    <style>
      .cls-1, .cls-2, .cls-3 {
        fill: none;
      }

      .cls-2 {
        stroke-dasharray: 0 12.29;
      }

      .cls-2, .cls-3 {
        stroke: #f69421;
        stroke-linecap: round;
        stroke-linejoin: round;
        stroke-width: 4.19px;
      }

      .cls-4 {
        fill: url(#linear-gradient-3);
      }

      .cls-5 {
        fill: url(#linear-gradient-2);
      }

      .cls-6 {
        fill: url(#linear-gradient);
      }

      .cls-7 {
        clip-path: url(#clippath-1);
      }

      .cls-8 {
        clip-path: url(#clippath-2);
      }

      .cls-3 {
        stroke-dasharray: 0 13.43;
      }

      .cls-9 {
        fill: #fff;
      }

      .cls-10 {
        fill: #efc8b7;
      }

      .cls-11 {
        fill: #f0823c;
      }

      .cls-12 {
        clip-path: url(#clippath);
      }
    </style>
    <clipPath id="clippath">
      <polygon class="cls-1" points="123.32 123.96 139.8 133.47 156.27 123.96 139.8 114.45 123.32 123.96"/>
    </clipPath>
    <linearGradient id="linear-gradient" x1="-5078.56" y1="-4966.84" x2="-5076.59" y2="-4966.84" gradientTransform="translate(764751.04 781841.76) rotate(90) scale(153.94 -153.94)" gradientUnits="userSpaceOnUse">
      <stop offset="0" stop-color="#f9ec43"/>
      <stop offset=".04" stop-color="#f9e136"/>
      <stop offset=".11" stop-color="#f9d024"/>
      <stop offset=".19" stop-color="#f9c719"/>
      <stop offset=".28" stop-color="#fac416"/>
      <stop offset=".55" stop-color="#f29e32"/>
      <stop offset=".67" stop-color="#ef8e40"/>
      <stop offset=".89" stop-color="#eb673c"/>
      <stop offset="1" stop-color="#e83e38"/>
    </linearGradient>
    <clipPath id="clippath-1">
      <polygon class="cls-1" points="123.32 142.98 139.8 152.49 139.8 133.47 123.32 123.96 123.32 142.98"/>
    </clipPath>
    <linearGradient id="linear-gradient-2" x1="-4998.63" y1="-4863.42" x2="-4996.67" y2="-4863.42" gradientTransform="translate(237933.37 244468.38) rotate(90) scale(48.9 -48.9)" xlink:href="#linear-gradient"/>
    <clipPath id="clippath-2">
      <polygon class="cls-1" points="139.8 133.47 139.8 152.49 156.27 142.98 156.27 123.96 139.8 133.47"/>
    </clipPath>
    <linearGradient id="linear-gradient-3" x1="-5025.43" y1="-4964.08" x2="-5023.46" y2="-4964.08" gradientTransform="translate(374155.07 378662.8) rotate(90) scale(75.34 -75.34)" xlink:href="#linear-gradient"/>
  </defs>
  <g id="Layer_5" data-name="Layer 5">
    <path class="cls-10" d="M110.37,154.75H10.43v-21.64l46.03-48.39c11.34-12.92,17.02-23.18,17.02-30.79,0-6.16-1.34-10.85-4.03-14.06-2.69-3.21-6.59-4.82-11.7-4.82s-9.15,2.15-12.29,6.44-4.72,9.66-4.72,16.08H7.48c0-8.79,2.2-16.9,6.59-24.34,4.39-7.44,10.49-13.26,18.29-17.46,7.8-4.2,16.52-6.29,26.16-6.29,15.48,0,27.39,3.57,35.75,10.72,8.36,7.15,12.54,17.41,12.54,30.79,0,5.64-1.05,11.13-3.15,16.47-2.1,5.35-5.36,10.95-9.79,16.82-4.43,5.87-11.56,13.72-21.39,23.56l-18.49,21.34h56.36v25.57Z"/>
    <path class="cls-11" d="M102.88,145.28H2.95v-21.64l46.03-48.39c11.34-12.92,17.02-23.18,17.02-30.79,0-6.16-1.34-10.85-4.03-14.07-2.69-3.21-6.59-4.82-11.7-4.82s-9.15,2.15-12.29,6.44c-3.15,4.3-4.72,9.66-4.72,16.08H0c0-8.79,2.2-16.9,6.59-24.34,4.39-7.44,10.49-13.26,18.29-17.46C32.69,2.1,41.41,0,51.05,0c15.48,0,27.39,3.57,35.75,10.72,8.36,7.15,12.54,17.41,12.54,30.79,0,5.64-1.05,11.13-3.15,16.47-2.1,5.35-5.36,10.95-9.79,16.82-4.43,5.87-11.56,13.72-21.39,23.56l-18.49,21.35h56.36v25.57Z"/>
    <polygon class="cls-11" points="139.8 141.92 671.74 141.92 737.85 55.66 139.8 55.66 139.8 141.92"/>
    <g>
      <path class="cls-9" d="M178.1,114.54v-40.52h12.47c3.56,0,6.75.8,9.56,2.41,2.81,1.61,5,3.89,6.58,6.85s2.37,6.32,2.37,10.09v1.86c0,3.77-.78,7.12-2.32,10.05-1.55,2.93-3.73,5.2-6.55,6.82-2.82,1.61-6,2.43-9.55,2.45h-12.55ZM186.45,80.78v27.05h4.04c3.26,0,5.76-1.07,7.49-3.2,1.73-2.13,2.61-5.19,2.64-9.16v-2.14c0-4.12-.85-7.24-2.56-9.37-1.71-2.12-4.2-3.19-7.49-3.19h-4.12Z"/>
      <path class="cls-9" d="M228.48,115.09c-4.42,0-8.01-1.36-10.79-4.06s-4.16-6.32-4.16-10.83v-.78c0-3.02.58-5.73,1.75-8.11,1.17-2.38,2.83-4.22,4.97-5.51,2.14-1.29,4.59-1.94,7.33-1.94,4.12,0,7.36,1.3,9.73,3.9,2.37,2.6,3.55,6.28,3.55,11.05v3.28h-19.18c.26,1.97,1.04,3.54,2.35,4.73,1.31,1.19,2.96,1.78,4.97,1.78,3.1,0,5.52-1.12,7.26-3.37l3.95,4.43c-1.21,1.71-2.84,3.04-4.9,3.99s-4.34,1.43-6.85,1.43ZM227.56,90.35c-1.6,0-2.89.54-3.88,1.62-.99,1.08-1.63,2.63-1.91,4.64h11.19v-.64c-.04-1.79-.52-3.17-1.45-4.15s-2.25-1.47-3.95-1.47Z"/>
      <path class="cls-9" d="M255.06,77.02v7.4h5.15v5.9h-5.15v15.03c0,1.11.21,1.91.64,2.39s1.24.72,2.45.72c.89,0,1.68-.06,2.37-.19v6.09c-1.58.48-3.2.72-4.87.72-5.64,0-8.52-2.85-8.63-8.54v-16.23h-4.4v-5.9h4.4v-7.4h8.04Z"/>
      <path class="cls-9" d="M282.14,114.54c-.37-.72-.64-1.62-.81-2.7-1.95,2.17-4.48,3.26-7.6,3.26-2.95,0-5.4-.85-7.33-2.56s-2.91-3.86-2.91-6.46c0-3.19,1.18-5.64,3.55-7.35,2.37-1.71,5.78-2.57,10.26-2.59h3.7v-1.73c0-1.39-.36-2.5-1.07-3.34-.71-.83-1.84-1.25-3.38-1.25-1.36,0-2.42.32-3.19.97-.77.65-1.15,1.54-1.15,2.67h-8.04c0-1.74.54-3.36,1.61-4.84s2.6-2.65,4.56-3.49c1.97-.85,4.17-1.27,6.62-1.27,3.71,0,6.66.93,8.84,2.8,2.18,1.87,3.27,4.49,3.27,7.86v13.05c.02,2.86.42,5.02,1.2,6.49v.47h-8.13ZM275.48,108.94c1.19,0,2.28-.27,3.29-.79,1-.53,1.74-1.24,2.23-2.13v-5.18h-3.01c-4.03,0-6.17,1.39-6.43,4.17l-.03.47c0,1,.35,1.83,1.06,2.48.71.65,1.67.97,2.89.97Z"/>
      <path class="cls-9" d="M295.19,76.63c0-1.21.4-2.2,1.21-2.98.81-.78,1.91-1.17,3.3-1.17s2.47.39,3.28,1.17,1.22,1.77,1.22,2.98-.41,2.23-1.24,3.01-1.92,1.17-3.27,1.17-2.45-.39-3.27-1.17c-.83-.78-1.24-1.78-1.24-3.01ZM303.73,114.54h-8.07v-30.12h8.07v30.12Z"/>
      <path class="cls-9" d="M318.85,114.54h-8.07v-42.75h8.07v42.75Z"/>
      <path class="cls-9" d="M339.33,115.09c-4.42,0-8.01-1.36-10.79-4.06-2.77-2.71-4.16-6.32-4.16-10.83v-.78c0-3.02.58-5.73,1.75-8.11,1.17-2.38,2.83-4.22,4.97-5.51,2.14-1.29,4.59-1.94,7.33-1.94,4.12,0,7.36,1.3,9.73,3.9,2.37,2.6,3.55,6.28,3.55,11.05v3.28h-19.18c.26,1.97,1.04,3.54,2.35,4.73,1.31,1.19,2.96,1.78,4.97,1.78,3.1,0,5.52-1.12,7.26-3.37l3.95,4.43c-1.21,1.71-2.84,3.04-4.9,3.99-2.06.96-4.34,1.43-6.85,1.43ZM338.41,90.35c-1.6,0-2.89.54-3.88,1.62-.99,1.08-1.63,2.63-1.91,4.64h11.19v-.64c-.04-1.79-.52-3.17-1.45-4.15s-2.25-1.47-3.95-1.47Z"/>
      <path class="cls-9" d="M355.03,99.26c0-4.7,1.05-8.43,3.16-11.22s4.99-4.18,8.64-4.18c2.93,0,5.35,1.1,7.26,3.29v-15.36h8.07v42.75h-7.26l-.39-3.2c-2,2.51-4.58,3.76-7.74,3.76-3.54,0-6.39-1.4-8.53-4.19-2.14-2.79-3.21-6.67-3.21-11.65ZM363.07,99.85c0,2.82.49,4.99,1.47,6.49.98,1.51,2.41,2.26,4.29,2.26,2.49,0,4.24-1.05,5.26-3.15v-11.9c-1-2.1-2.74-3.15-5.21-3.15-3.88,0-5.82,3.15-5.82,9.45Z"/>
      <path class="cls-9" d="M403.12,114.54v-40.52h12.47c3.56,0,6.75.8,9.56,2.41,2.81,1.61,5,3.89,6.58,6.85,1.58,2.96,2.37,6.32,2.37,10.09v1.86c0,3.77-.78,7.12-2.32,10.05s-3.73,5.2-6.55,6.82c-2.82,1.61-6,2.43-9.55,2.45h-12.55ZM411.47,80.78v27.05h4.04c3.27,0,5.76-1.07,7.49-3.2,1.73-2.13,2.61-5.19,2.64-9.16v-2.14c0-4.12-.85-7.24-2.56-9.37s-4.2-3.19-7.49-3.19h-4.12Z"/>
      <path class="cls-9" d="M453.5,115.09c-4.42,0-8.01-1.36-10.78-4.06-2.77-2.71-4.16-6.32-4.16-10.83v-.78c0-3.02.58-5.73,1.75-8.11,1.17-2.38,2.82-4.22,4.97-5.51,2.14-1.29,4.59-1.94,7.33-1.94,4.12,0,7.36,1.3,9.73,3.9,2.37,2.6,3.55,6.28,3.55,11.05v3.28h-19.18c.26,1.97,1.04,3.54,2.35,4.73,1.31,1.19,2.96,1.78,4.97,1.78,3.1,0,5.52-1.12,7.26-3.37l3.95,4.43c-1.21,1.71-2.84,3.04-4.9,3.99-2.06.96-4.34,1.43-6.85,1.43ZM452.58,90.35c-1.6,0-2.89.54-3.88,1.62-.99,1.08-1.63,2.63-1.91,4.64h11.19v-.64c-.04-1.79-.52-3.17-1.45-4.15s-2.25-1.47-3.95-1.47Z"/>
      <path class="cls-9" d="M486.76,106.21c0-.98-.49-1.76-1.46-2.32-.97-.57-2.54-1.07-4.69-1.52-7.16-1.5-10.74-4.55-10.74-9.13,0-2.67,1.11-4.9,3.33-6.7,2.22-1.79,5.12-2.69,8.7-2.69,3.82,0,6.88.9,9.17,2.7,2.29,1.8,3.44,4.14,3.44,7.01h-8.04c0-1.15-.37-2.1-1.11-2.85s-1.9-1.13-3.48-1.13c-1.35,0-2.4.31-3.14.92-.74.61-1.11,1.39-1.11,2.34,0,.89.42,1.61,1.27,2.16.84.55,2.27,1.02,4.27,1.42,2,.4,3.69.85,5.07,1.35,4.25,1.56,6.37,4.26,6.37,8.1,0,2.75-1.18,4.97-3.53,6.67s-5.4,2.55-9.13,2.55c-2.52,0-4.76-.45-6.72-1.35-1.96-.9-3.49-2.13-4.61-3.7-1.11-1.57-1.67-3.26-1.67-5.08h7.62c.07,1.43.6,2.52,1.59,3.28.98.76,2.3,1.14,3.95,1.14,1.54,0,2.7-.29,3.49-.88.79-.59,1.18-1.35,1.18-2.3Z"/>
      <path class="cls-9" d="M499.7,76.63c0-1.21.4-2.2,1.21-2.98.81-.78,1.91-1.17,3.3-1.17s2.47.39,3.28,1.17,1.22,1.77,1.22,2.98-.41,2.23-1.24,3.01-1.92,1.17-3.27,1.17-2.45-.39-3.27-1.17c-.83-.78-1.24-1.78-1.24-3.01ZM508.24,114.54h-8.07v-30.12h8.07v30.12Z"/>
      <path class="cls-9" d="M513.7,99.26c0-4.62,1.1-8.34,3.3-11.16,2.2-2.82,5.16-4.23,8.89-4.23,3.3,0,5.87,1.13,7.71,3.4l.33-2.84h7.29v29.11c0,2.63-.6,4.93-1.79,6.88-1.2,1.95-2.88,3.43-5.05,4.45-2.17,1.02-4.71,1.53-7.63,1.53-2.21,0-4.36-.44-6.46-1.32s-3.68-2.02-4.76-3.41l3.56-4.9c2,2.24,4.43,3.37,7.29,3.37,2.13,0,3.79-.57,4.98-1.71,1.19-1.14,1.78-2.76,1.78-4.86v-1.61c-1.86,2.1-4.3,3.14-7.32,3.14-3.62,0-6.54-1.42-8.78-4.24-2.24-2.83-3.35-6.58-3.35-11.26v-.33ZM521.74,99.85c0,2.73.55,4.87,1.64,6.43,1.09,1.55,2.6,2.33,4.51,2.33,2.45,0,4.2-.92,5.26-2.76v-12.68c-1.08-1.84-2.81-2.76-5.21-2.76-1.93,0-3.45.79-4.55,2.37-1.1,1.58-1.66,3.94-1.66,7.08Z"/>
      <path class="cls-9" d="M554.81,84.42l.25,3.48c2.15-2.69,5.04-4.04,8.66-4.04,3.19,0,5.57.94,7.12,2.81,1.56,1.87,2.36,4.68,2.39,8.4v19.46h-8.04v-19.26c0-1.71-.37-2.95-1.11-3.72-.74-.77-1.98-1.15-3.7-1.15-2.26,0-3.96.96-5.09,2.89v21.24h-8.04v-30.12h7.57Z"/>
    </g>
    <g class="cls-12">
      <rect class="cls-6" x="122.74" y="104.97" width="34.11" height="37.97" transform="translate(-40.9 171.48) rotate(-56.3)"/>
    </g>
    <g class="cls-7">
      <rect class="cls-5" x="121.67" y="123.07" width="19.78" height="30.31" transform="translate(-15.65 16.81) rotate(-6.9)"/>
    </g>
    <g class="cls-8">
      <rect class="cls-4" x="131.95" y="122.51" width="32.17" height="31.42" transform="translate(-53.89 153.98) rotate(-47.5)"/>
    </g>
    <line class="cls-2" x1="123.32" y1="38.69" x2="615.71" y2="38.69"/>
    <line class="cls-3" x1="11.47" y1="170.6" x2="160.35" y2="170.6"/>
  </g>
</svg>