<?xml version="1.0" encoding="UTF-8"?>
<svg id="Layer_2" data-name="Layer 2" xmlns="http://www.w3.org/2000/svg" xmlns:xlink="http://www.w3.org/1999/xlink" viewBox="0 0 737.95 172.69">
  <defs>
    <style>
      .cls-1, .cls-2, .cls-3 {
        fill: none;
      }

      .cls-2 {
        stroke-dasharray: 0 12.29;
      }

      .cls-2, .cls-3 {
        stroke: #f69421;
        stroke-linecap: round;
        stroke-linejoin: round;
        stroke-width: 4.19px;
      }

      .cls-4 {
        fill: url(#linear-gradient-3);
      }

      .cls-5 {
        fill: url(#linear-gradient-2);
      }

      .cls-6 {
        fill: url(#linear-gradient);
      }

      .cls-7 {
        clip-path: url(#clippath-1);
      }

      .cls-8 {
        clip-path: url(#clippath-2);
      }

      .cls-3 {
        stroke-dasharray: 0 13.43;
      }

      .cls-9 {
        fill: #f4d77d;
      }

      .cls-10 {
        fill: #fff;
      }

      .cls-11 {
        fill: #f8ac38;
      }

      .cls-12 {
        clip-path: url(#clippath);
      }
    </style>
    <clipPath id="clippath">
      <polygon class="cls-1" points="118.49 123.96 134.97 133.47 151.44 123.96 134.97 114.44 118.49 123.96"/>
    </clipPath>
    <linearGradient id="linear-gradient" x1="-5080.47" y1="-5226.22" x2="-5078.5" y2="-5226.22" gradientTransform="translate(804676.23 782135.66) rotate(90) scale(153.94 -153.94)" gradientUnits="userSpaceOnUse">
      <stop offset="0" stop-color="#f9ec43"/>
      <stop offset=".04" stop-color="#f9e136"/>
      <stop offset=".11" stop-color="#f9d024"/>
      <stop offset=".19" stop-color="#f9c719"/>
      <stop offset=".28" stop-color="#fac416"/>
      <stop offset=".55" stop-color="#f29e32"/>
      <stop offset=".67" stop-color="#ef8e40"/>
      <stop offset=".89" stop-color="#eb673c"/>
      <stop offset="1" stop-color="#e83e38"/>
    </linearGradient>
    <clipPath id="clippath-1">
      <polygon class="cls-1" points="118.49 142.98 134.97 152.49 134.97 133.47 118.49 123.96 118.49 142.98"/>
    </clipPath>
    <linearGradient id="linear-gradient-2" x1="-4996.23" y1="-5122.07" x2="-4994.26" y2="-5122.07" gradientTransform="translate(250575.75 244350.81) rotate(90) scale(48.9 -48.9)" xlink:href="#linear-gradient"/>
    <clipPath id="clippath-2">
      <polygon class="cls-1" points="134.97 133.47 134.97 152.49 151.44 142.98 151.44 123.96 134.97 133.47"/>
    </clipPath>
    <linearGradient id="linear-gradient-3" x1="-5025.96" y1="-5224.6" x2="-5023.99" y2="-5224.6" gradientTransform="translate(393778.74 378703.09) rotate(90) scale(75.34 -75.34)" xlink:href="#linear-gradient"/>
  </defs>
  <g id="Layer_5" data-name="Layer 5">
    <path class="cls-9" d="M45.9,69.27h15.64c12.39,0,18.59-6.06,18.59-18.2,0-4.72-1.48-8.57-4.43-11.56-2.95-2.98-7.12-4.48-12.49-4.48-4.39,0-8.21,1.28-11.46,3.84s-4.87,5.74-4.87,9.54H13.74c0-7.54,2.1-14.26,6.29-20.16,4.2-5.9,10.02-10.51,17.46-13.82,7.44-3.31,15.62-4.97,24.54-4.97,15.93,0,28.46,3.64,37.57,10.92,9.11,7.28,13.67,17.28,13.67,30,0,6.17-1.89,11.99-5.66,17.46-3.77,5.48-9.26,9.92-16.47,13.33,7.61,2.75,13.57,6.93,17.9,12.54s6.49,12.54,6.49,20.8c0,12.79-4.92,23.02-14.75,30.69s-22.75,11.51-38.75,11.51c-9.38,0-18.08-1.79-26.11-5.36-8.03-3.57-14.12-8.52-18.25-14.85-4.13-6.33-6.2-13.52-6.2-21.59h33.34c0,4.39,1.77,8.2,5.31,11.41,3.54,3.21,7.9,4.82,13.08,4.82,5.84,0,10.49-1.62,13.97-4.87,3.47-3.25,5.21-7.39,5.21-12.44,0-7.21-1.8-12.33-5.41-15.34-3.61-3.02-8.59-4.52-14.95-4.52h-16.13v-24.69Z"/>
    <path class="cls-11" d="M34.43,59.8h15.64c12.39,0,18.59-6.06,18.59-18.2,0-4.72-1.48-8.57-4.43-11.56-2.95-2.98-7.12-4.48-12.49-4.48-4.39,0-8.21,1.28-11.46,3.84s-4.87,5.74-4.87,9.54H2.26c0-7.54,2.1-14.26,6.29-20.16,4.2-5.9,10.02-10.51,17.46-13.82C33.46,1.66,41.64,0,50.56,0c15.93,0,28.46,3.64,37.57,10.92,9.11,7.28,13.67,17.28,13.67,30,0,6.17-1.89,11.99-5.66,17.46-3.77,5.48-9.26,9.92-16.47,13.33,7.61,2.75,13.57,6.93,17.9,12.54s6.49,12.54,6.49,20.8c0,12.79-4.92,23.02-14.75,30.69s-22.75,11.51-38.75,11.51c-9.38,0-18.08-1.79-26.11-5.36-8.03-3.57-14.12-8.52-18.25-14.85-4.13-6.33-6.2-13.52-6.2-21.59h33.34c0,4.39,1.77,8.2,5.31,11.41,3.54,3.21,7.9,4.82,13.08,4.82,5.84,0,10.49-1.62,13.97-4.87,3.47-3.25,5.21-7.39,5.21-12.44,0-7.21-1.8-12.33-5.41-15.34-3.61-3.02-8.59-4.52-14.95-4.52h-16.13v-24.69Z"/>
    <polygon class="cls-11" points="134.97 141.92 671.84 141.92 737.95 55.66 134.97 55.66 134.97 141.92"/>
    <g>
      <path class="cls-10" d="M205.78,80.77h-12.41v33.76h-8.35v-33.76h-12.25v-6.76h33.01v6.76Z"/>
      <path class="cls-10" d="M223.87,115.09c-4.42,0-8.01-1.35-10.79-4.06s-4.16-6.32-4.16-10.83v-.78c0-3.02.58-5.73,1.75-8.11s2.83-4.22,4.97-5.51c2.14-1.29,4.59-1.93,7.33-1.93,4.12,0,7.36,1.3,9.73,3.9,2.37,2.6,3.55,6.28,3.55,11.05v3.28h-19.18c.26,1.97,1.04,3.54,2.35,4.73,1.31,1.19,2.96,1.78,4.97,1.78,3.1,0,5.52-1.12,7.26-3.37l3.95,4.42c-1.21,1.71-2.84,3.04-4.9,3.99-2.06.96-4.34,1.43-6.85,1.43ZM222.95,90.35c-1.6,0-2.89.54-3.88,1.62-.99,1.08-1.63,2.63-1.91,4.64h11.19v-.64c-.04-1.79-.52-3.17-1.45-4.15s-2.25-1.47-3.95-1.47Z"/>
      <path class="cls-10" d="M248.22,84.42l.25,3.48c2.15-2.69,5.04-4.04,8.66-4.04,3.19,0,5.57.94,7.12,2.81s2.36,4.68,2.39,8.4v19.46h-8.04v-19.26c0-1.71-.37-2.95-1.11-3.72-.74-.77-1.98-1.16-3.7-1.16-2.26,0-3.96.97-5.09,2.89v21.24h-8.04v-30.11h7.57Z"/>
      <path class="cls-10" d="M271.49,99.25c0-4.69,1.05-8.43,3.16-11.22s4.99-4.17,8.64-4.17c2.93,0,5.35,1.09,7.26,3.28v-15.36h8.07v42.75h-7.26l-.39-3.2c-2,2.51-4.58,3.76-7.74,3.76-3.54,0-6.39-1.4-8.53-4.19-2.14-2.79-3.21-6.67-3.21-11.65ZM279.53,99.85c0,2.82.49,4.99,1.47,6.49.98,1.51,2.41,2.26,4.29,2.26,2.49,0,4.24-1.05,5.26-3.15v-11.9c-1-2.1-2.74-3.15-5.21-3.15-3.88,0-5.82,3.15-5.82,9.45Z"/>
      <path class="cls-10" d="M318.72,115.09c-4.42,0-8.01-1.35-10.79-4.06s-4.16-6.32-4.16-10.83v-.78c0-3.02.58-5.73,1.75-8.11s2.83-4.22,4.97-5.51c2.14-1.29,4.59-1.93,7.33-1.93,4.12,0,7.36,1.3,9.73,3.9,2.37,2.6,3.55,6.28,3.55,11.05v3.28h-19.18c.26,1.97,1.04,3.54,2.35,4.73,1.31,1.19,2.96,1.78,4.97,1.78,3.1,0,5.52-1.12,7.26-3.37l3.95,4.42c-1.21,1.71-2.84,3.04-4.9,3.99-2.06.96-4.34,1.43-6.85,1.43ZM317.8,90.35c-1.6,0-2.89.54-3.88,1.62-.99,1.08-1.63,2.63-1.91,4.64h11.19v-.64c-.04-1.79-.52-3.17-1.45-4.15s-2.25-1.47-3.95-1.47Z"/>
      <path class="cls-10" d="M352.59,91.96c-1.09-.15-2.06-.22-2.89-.22-3.04,0-5.04,1.03-5.98,3.09v19.71h-8.04v-30.11h7.6l.22,3.59c1.61-2.76,3.85-4.15,6.71-4.15.89,0,1.72.12,2.5.36l-.11,7.74Z"/>
      <path class="cls-10" d="M356.4,76.63c0-1.21.4-2.2,1.21-2.98.81-.78,1.91-1.17,3.3-1.17s2.47.39,3.28,1.17,1.22,1.77,1.22,2.98-.41,2.23-1.24,3.01c-.83.78-1.92,1.17-3.27,1.17s-2.45-.39-3.27-1.17-1.24-1.78-1.24-3.01ZM364.95,114.53h-8.07v-30.11h8.07v30.11Z"/>
      <path class="cls-10" d="M378.97,84.42l.25,3.48c2.15-2.69,5.04-4.04,8.66-4.04,3.19,0,5.57.94,7.12,2.81s2.36,4.68,2.39,8.4v19.46h-8.04v-19.26c0-1.71-.37-2.95-1.11-3.72-.74-.77-1.98-1.16-3.7-1.16-2.26,0-3.96.97-5.09,2.89v21.24h-8.04v-30.11h7.57Z"/>
      <path class="cls-10" d="M402.33,99.25c0-4.62,1.1-8.34,3.3-11.16,2.2-2.82,5.16-4.23,8.89-4.23,3.3,0,5.87,1.13,7.71,3.4l.33-2.84h7.29v29.11c0,2.63-.6,4.93-1.79,6.88-1.2,1.95-2.88,3.43-5.05,4.45-2.17,1.02-4.71,1.53-7.63,1.53-2.21,0-4.36-.44-6.46-1.32s-3.68-2.02-4.76-3.41l3.56-4.9c2,2.25,4.43,3.37,7.29,3.37,2.13,0,3.79-.57,4.98-1.71,1.19-1.14,1.78-2.76,1.78-4.86v-1.61c-1.86,2.1-4.3,3.14-7.32,3.14-3.62,0-6.54-1.42-8.78-4.24s-3.35-6.58-3.35-11.26v-.33ZM410.37,99.85c0,2.73.55,4.87,1.64,6.42s2.6,2.33,4.51,2.33c2.45,0,4.2-.92,5.26-2.76v-12.68c-1.08-1.84-2.81-2.76-5.21-2.76-1.93,0-3.45.79-4.55,2.37s-1.66,3.94-1.66,7.08Z"/>
    </g>
    <g class="cls-12">
      <rect class="cls-6" x="117.91" y="104.97" width="34.11" height="37.97" transform="translate(-43.04 167.47) rotate(-56.3)"/>
    </g>
    <g class="cls-7">
      <rect class="cls-5" x="116.84" y="123.07" width="19.78" height="30.31" transform="translate(-15.69 16.23) rotate(-6.9)"/>
    </g>
    <g class="cls-8">
      <rect class="cls-4" x="127.12" y="122.51" width="32.17" height="31.42" transform="translate(-55.45 150.42) rotate(-47.5)"/>
    </g>
    <line class="cls-2" x1="118.49" y1="38.69" x2="610.88" y2="38.69"/>
    <line class="cls-3" x1="19.64" y1="170.6" x2="168.52" y2="170.6"/>
  </g>
</svg>