<?xml version="1.0" encoding="UTF-8"?>
<svg id="Layer_2" data-name="Layer 2" xmlns="http://www.w3.org/2000/svg" xmlns:xlink="http://www.w3.org/1999/xlink" viewBox="0 0 745.47 170.63">
  <defs>
    <style>
      .cls-1, .cls-2, .cls-3 {
        fill: none;
      }

      .cls-2 {
        stroke-dasharray: 0 12.29;
      }

      .cls-2, .cls-3 {
        stroke: #f69421;
        stroke-linecap: round;
        stroke-linejoin: round;
        stroke-width: 4.19px;
      }

      .cls-4 {
        fill: #4e4f50;
      }

      .cls-5 {
        fill: url(#linear-gradient-3);
      }

      .cls-6 {
        fill: url(#linear-gradient-2);
      }

      .cls-7 {
        fill: #f8dab0;
      }

      .cls-8 {
        fill: #e19e5c;
      }

      .cls-9 {
        fill: url(#linear-gradient);
      }

      .cls-10 {
        clip-path: url(#clippath-1);
      }

      .cls-11 {
        clip-path: url(#clippath-2);
      }

      .cls-3 {
        stroke-dasharray: 0 13.43;
      }

      .cls-12 {
        clip-path: url(#clippath);
      }

      .cls-13 {
        fill: #e7d8bb;
      }
    </style>
    <clipPath id="clippath">
      <polygon class="cls-1" points="125.31 121.89 141.79 131.4 158.26 121.89 141.79 112.38 125.31 121.89"/>
    </clipPath>
    <linearGradient id="linear-gradient" x1="-5073.63" y1="-5509.35" x2="-5071.66" y2="-5509.35" gradientTransform="translate(848268.97 781081.77) rotate(90) scale(153.94 -153.94)" gradientUnits="userSpaceOnUse">
      <stop offset="0" stop-color="#f9ec43"/>
      <stop offset=".04" stop-color="#f9e136"/>
      <stop offset=".11" stop-color="#f9d024"/>
      <stop offset=".19" stop-color="#f9c719"/>
      <stop offset=".28" stop-color="#fac416"/>
      <stop offset=".55" stop-color="#f29e32"/>
      <stop offset=".67" stop-color="#ef8e40"/>
      <stop offset=".89" stop-color="#eb673c"/>
      <stop offset="1" stop-color="#e83e38"/>
    </linearGradient>
    <clipPath id="clippath-1">
      <polygon class="cls-1" points="125.31 140.91 141.79 150.42 141.79 131.4 125.31 121.89 125.31 140.91"/>
    </clipPath>
    <linearGradient id="linear-gradient-2" x1="-4984.73" y1="-5404.36" x2="-4982.76" y2="-5404.36" gradientTransform="translate(264385.41 243786.55) rotate(90) scale(48.9 -48.9)" xlink:href="#linear-gradient"/>
    <clipPath id="clippath-2">
      <polygon class="cls-1" points="141.79 131.4 141.79 150.42 158.26 140.91 158.26 121.89 141.79 131.4"/>
    </clipPath>
    <linearGradient id="linear-gradient-3" x1="-5017.62" y1="-5508.95" x2="-5015.66" y2="-5508.95" gradientTransform="translate(415209.24 378072.99) rotate(90) scale(75.34 -75.34)" xlink:href="#linear-gradient"/>
  </defs>
  <g id="Layer_5" data-name="Layer 5">
    <path class="cls-13" d="M100.96,96.71h14.56v25.57h-14.56v30.39h-33.15v-30.39H12.44l-1.97-20.26L67.82,9.76v-.29h33.15v87.25ZM42.05,96.71h25.77v-44.07l-2.07,3.34-23.7,40.72Z"/>
    <path class="cls-8" d="M90.49,87.25h14.56v25.57h-14.56v30.39h-33.15v-30.39H1.97l-1.97-20.26L57.34.29v-.29h33.15v87.25ZM31.57,87.25h25.77v-44.07l-2.07,3.34-23.7,40.72Z"/>
    <polygon class="cls-7" points="141.79 139.85 679.36 139.85 745.47 53.6 141.79 53.6 141.79 139.85"/>
    <g>
      <path class="cls-4" d="M213.9,98.97c-.32,4.36-1.92,7.79-4.83,10.3-2.9,2.51-6.73,3.76-11.48,3.76-5.2,0-9.28-1.75-12.26-5.25-2.98-3.5-4.47-8.3-4.47-14.4v-2.48c0-3.9.69-7.33,2.06-10.3s3.33-5.25,5.89-6.83c2.55-1.59,5.51-2.38,8.89-2.38,4.68,0,8.44,1.25,11.3,3.76,2.86,2.5,4.51,6.02,4.96,10.55h-8.35c-.21-2.62-.93-4.51-2.19-5.69-1.25-1.18-3.16-1.77-5.72-1.77-2.78,0-4.87,1-6.25,2.99s-2.09,5.09-2.13,9.28v3.06c0,4.38.66,7.58,1.99,9.6,1.33,2.02,3.42,3.03,6.28,3.03,2.58,0,4.5-.59,5.77-1.77s2-3,2.18-5.47h8.35Z"/>
      <path class="cls-4" d="M217.61,97.13c0-2.99.58-5.65,1.73-7.99s2.81-4.15,4.97-5.43c2.16-1.28,4.67-1.92,7.53-1.92,4.06,0,7.38,1.24,9.95,3.73s4,5.86,4.3,10.13l.06,2.06c0,4.62-1.29,8.33-3.87,11.12s-6.04,4.19-10.38,4.19-7.81-1.39-10.4-4.17c-2.59-2.78-3.88-6.57-3.88-11.36v-.36ZM225.65,97.7c0,2.86.54,5.05,1.61,6.56,1.08,1.51,2.62,2.27,4.62,2.27s3.47-.75,4.56-2.24c1.09-1.5,1.64-3.89,1.64-7.18,0-2.81-.55-4.98-1.64-6.52-1.1-1.54-2.64-2.31-4.62-2.31s-3.49.77-4.56,2.3c-1.08,1.53-1.61,3.91-1.61,7.12Z"/>
      <path class="cls-4" d="M258.49,82.35l.25,3.48c2.15-2.69,5.04-4.04,8.66-4.04,3.19,0,5.57.94,7.12,2.81s2.36,4.68,2.39,8.4v19.46h-8.04v-19.26c0-1.71-.37-2.95-1.11-3.72-.74-.77-1.98-1.16-3.7-1.16-2.26,0-3.96.97-5.09,2.89v21.24h-8.04v-30.11h7.57Z"/>
      <path class="cls-4" d="M299.32,104.15c0-.98-.49-1.76-1.46-2.32-.97-.57-2.54-1.07-4.69-1.52-7.16-1.5-10.74-4.55-10.74-9.13,0-2.67,1.11-4.9,3.33-6.69,2.22-1.79,5.12-2.69,8.7-2.69,3.82,0,6.88.9,9.17,2.7s3.44,4.14,3.44,7.01h-8.04c0-1.15-.37-2.1-1.11-2.85-.74-.75-1.9-1.13-3.48-1.13-1.35,0-2.4.31-3.15.92-.74.61-1.11,1.39-1.11,2.34,0,.89.42,1.61,1.27,2.16.84.55,2.27,1.02,4.27,1.42s3.69.85,5.07,1.35c4.25,1.56,6.37,4.26,6.37,8.1,0,2.75-1.18,4.97-3.54,6.67-2.36,1.7-5.4,2.55-9.13,2.55-2.52,0-4.76-.45-6.72-1.35-1.96-.9-3.49-2.13-4.61-3.7-1.11-1.57-1.67-3.26-1.67-5.08h7.63c.07,1.43.6,2.52,1.59,3.28s2.3,1.14,3.95,1.14c1.54,0,2.7-.29,3.49-.88.79-.58,1.18-1.35,1.18-2.3Z"/>
      <path class="cls-4" d="M321.95,74.95v7.4h5.15v5.9h-5.15v15.03c0,1.11.21,1.91.64,2.39s1.24.72,2.45.72c.89,0,1.68-.06,2.37-.19v6.09c-1.58.48-3.2.72-4.87.72-5.64,0-8.52-2.85-8.63-8.54v-16.23h-4.4v-5.9h4.4v-7.4h8.04Z"/>
      <path class="cls-4" d="M348.5,89.9c-1.09-.15-2.06-.22-2.89-.22-3.04,0-5.04,1.03-5.98,3.09v19.71h-8.04v-30.11h7.6l.22,3.59c1.61-2.76,3.85-4.15,6.71-4.15.89,0,1.72.12,2.5.36l-.11,7.74Z"/>
      <path class="cls-4" d="M370.4,109.41c-1.99,2.41-4.73,3.62-8.24,3.62-3.23,0-5.69-.93-7.39-2.78-1.7-1.86-2.57-4.57-2.6-8.15v-19.73h8.04v19.48c0,3.14,1.43,4.71,4.29,4.71s4.6-.95,5.62-2.84v-21.34h8.07v30.11h-7.57l-.22-3.06Z"/>
      <path class="cls-4" d="M396.79,106.54c1.48,0,2.69-.41,3.62-1.22s1.41-1.9,1.45-3.26h7.54c-.02,2.04-.58,3.91-1.67,5.61-1.09,1.7-2.59,3.02-4.49,3.95-1.9.94-4,1.41-6.3,1.41-4.3,0-7.7-1.37-10.19-4.11-2.49-2.74-3.73-6.52-3.73-11.34v-.53c0-4.64,1.23-8.34,3.7-11.1s5.85-4.15,10.16-4.15c3.77,0,6.79,1.07,9.06,3.21,2.27,2.14,3.43,5,3.46,8.56h-7.54c-.04-1.57-.52-2.84-1.45-3.82s-2.15-1.47-3.67-1.47c-1.87,0-3.29.68-4.24,2.05-.96,1.37-1.43,3.58-1.43,6.65v.84c0,3.1.47,5.33,1.42,6.69.95,1.36,2.38,2.04,4.31,2.04Z"/>
      <path class="cls-4" d="M423.62,74.95v7.4h5.15v5.9h-5.15v15.03c0,1.11.21,1.91.64,2.39.43.48,1.24.72,2.45.72.89,0,1.68-.06,2.37-.19v6.09c-1.58.48-3.2.72-4.87.72-5.64,0-8.52-2.85-8.63-8.54v-16.23h-4.4v-5.9h4.4v-7.4h8.04Z"/>
      <path class="cls-4" d="M433.19,74.56c0-1.21.4-2.2,1.21-2.98.81-.78,1.91-1.17,3.3-1.17s2.47.39,3.28,1.17,1.22,1.77,1.22,2.98-.41,2.23-1.24,3.01c-.83.78-1.92,1.17-3.27,1.17s-2.44-.39-3.27-1.17-1.24-1.78-1.24-3.01ZM441.74,112.47h-8.07v-30.11h8.07v30.11Z"/>
      <path class="cls-4" d="M447.11,97.13c0-2.99.58-5.65,1.73-7.99s2.81-4.15,4.97-5.43c2.16-1.28,4.67-1.92,7.53-1.92,4.06,0,7.38,1.24,9.95,3.73s4,5.86,4.3,10.13l.05,2.06c0,4.62-1.29,8.33-3.87,11.12s-6.04,4.19-10.38,4.19-7.81-1.39-10.39-4.17c-2.59-2.78-3.88-6.57-3.88-11.36v-.36ZM455.15,97.7c0,2.86.54,5.05,1.62,6.56,1.08,1.51,2.62,2.27,4.62,2.27s3.47-.75,4.56-2.24,1.64-3.89,1.64-7.18c0-2.81-.55-4.98-1.64-6.52-1.09-1.54-2.63-2.31-4.62-2.31s-3.49.77-4.56,2.3c-1.08,1.53-1.62,3.91-1.62,7.12Z"/>
      <path class="cls-4" d="M487.99,82.35l.25,3.48c2.15-2.69,5.04-4.04,8.66-4.04,3.19,0,5.57.94,7.12,2.81s2.36,4.68,2.39,8.4v19.46h-8.04v-19.26c0-1.71-.37-2.95-1.11-3.72-.74-.77-1.98-1.16-3.7-1.16-2.26,0-3.96.97-5.09,2.89v21.24h-8.04v-30.11h7.57Z"/>
    </g>
    <g class="cls-12">
      <rect class="cls-9" x="124.73" y="102.91" width="34.11" height="37.97" transform="translate(-38.29 172.22) rotate(-56.3)"/>
    </g>
    <g class="cls-10">
      <rect class="cls-6" x="123.66" y="121" width="19.78" height="30.31" transform="translate(-15.39 17.03) rotate(-6.9)"/>
    </g>
    <g class="cls-11">
      <rect class="cls-5" x="133.94" y="120.45" width="32.17" height="31.42" transform="translate(-51.72 154.78) rotate(-47.5)"/>
    </g>
    <line class="cls-2" x1="133.31" y1="36.62" x2="625.7" y2="36.62"/>
    <line class="cls-3" x1="14.46" y1="168.53" x2="163.34" y2="168.53"/>
  </g>
</svg>