<?xml version="1.0" encoding="UTF-8"?>
<svg id="Layer_2" data-name="Layer 2" xmlns="http://www.w3.org/2000/svg" xmlns:xlink="http://www.w3.org/1999/xlink" viewBox="0 0 878.14 170.63">
  <defs>
    <style>
      .cls-1, .cls-2, .cls-3 {
        fill: none;
      }

      .cls-4 {
        fill: #b08f5f;
      }

      .cls-2 {
        stroke-dasharray: 0 12.29;
      }

      .cls-2, .cls-3 {
        stroke: #f69421;
        stroke-linecap: round;
        stroke-linejoin: round;
        stroke-width: 4.19px;
      }

      .cls-5 {
        fill: url(#linear-gradient-3);
      }

      .cls-6 {
        fill: url(#linear-gradient-2);
      }

      .cls-7 {
        fill: url(#linear-gradient);
      }

      .cls-8 {
        clip-path: url(#clippath-1);
      }

      .cls-9 {
        clip-path: url(#clippath-2);
      }

      .cls-3 {
        stroke-dasharray: 0 13.43;
      }

      .cls-10 {
        fill: #fff;
      }

      .cls-11 {
        fill: #eacfc8;
      }

      .cls-12 {
        clip-path: url(#clippath);
      }
    </style>
    <clipPath id="clippath">
      <polygon class="cls-1" points="114.16 121.89 130.63 131.4 147.11 121.89 130.63 112.38 114.16 121.89"/>
    </clipPath>
    <linearGradient id="linear-gradient" x1="-5084.45" y1="-5807.49" x2="-5082.48" y2="-5807.49" gradientTransform="translate(894153.47 782746.65) rotate(90) scale(153.94 -153.94)" gradientUnits="userSpaceOnUse">
      <stop offset="0" stop-color="#f9ec43"/>
      <stop offset=".04" stop-color="#f9e136"/>
      <stop offset=".11" stop-color="#f9d024"/>
      <stop offset=".19" stop-color="#f9c719"/>
      <stop offset=".28" stop-color="#fac416"/>
      <stop offset=".55" stop-color="#f29e32"/>
      <stop offset=".67" stop-color="#ef8e40"/>
      <stop offset=".89" stop-color="#eb673c"/>
      <stop offset="1" stop-color="#e83e38"/>
    </linearGradient>
    <clipPath id="clippath-1">
      <polygon class="cls-1" points="114.16 140.91 130.63 150.43 130.63 131.4 114.16 121.89 114.16 140.91"/>
    </clipPath>
    <linearGradient id="linear-gradient-2" x1="-4990.6" y1="-5701.61" x2="-4988.63" y2="-5701.61" gradientTransform="translate(278908.5 244073.35) rotate(90) scale(48.9 -48.9)" xlink:href="#linear-gradient"/>
    <clipPath id="clippath-2">
      <polygon class="cls-1" points="130.63 131.4 130.63 150.43 147.11 140.91 147.11 121.89 130.63 131.4"/>
    </clipPath>
    <linearGradient id="linear-gradient-3" x1="-5026.85" y1="-5808.38" x2="-5024.88" y2="-5808.38" gradientTransform="translate(437757.91 378767.79) rotate(90) scale(75.34 -75.34)" xlink:href="#linear-gradient"/>
  </defs>
  <g id="Layer_5" data-name="Layer 5">
    <path class="cls-11" d="M10.24,82.72L18.99,9.47h83.7v25.77h-56.75l-3.25,28.45c2.36-1.38,5.46-2.6,9.29-3.65s7.59-1.58,11.26-1.58c14.23,0,25.16,4.21,32.8,12.64,7.64,8.43,11.46,20.25,11.46,35.46,0,9.18-2.05,17.49-6.15,24.93-4.1,7.44-9.85,13.17-17.26,17.16-7.41,4-16.17,6-26.26,6-8.98,0-17.41-1.85-25.28-5.55-7.87-3.7-14.03-8.78-18.49-15.23-4.46-6.45-6.66-13.74-6.59-21.87h33.25c.33,5.23,2,9.39,5.02,12.47,3.02,3.08,6.98,4.61,11.9,4.61,11.15,0,16.72-8.25,16.72-24.74,0-15.25-6.82-22.87-20.46-22.87-7.74,0-13.51,2.49-17.31,7.46l-26.36-6.2Z"/>
    <path class="cls-4" d="M2.76,73.26L11.51,0h83.7v25.77h-56.75l-3.25,28.45c2.36-1.38,5.46-2.6,9.29-3.65s7.59-1.58,11.26-1.58c14.23,0,25.16,4.21,32.8,12.64,7.64,8.43,11.46,20.25,11.46,35.46,0,9.18-2.05,17.49-6.15,24.93-4.1,7.44-9.85,13.17-17.26,17.16-7.41,4-16.17,6-26.26,6-8.98,0-17.41-1.85-25.28-5.55-7.87-3.7-14.03-8.78-18.49-15.23C2.13,117.94-.06,110.65,0,102.53h33.25c.33,5.23,2,9.39,5.02,12.47,3.02,3.08,6.98,4.61,11.9,4.61,11.15,0,16.72-8.25,16.72-24.74,0-15.25-6.82-22.87-20.46-22.87-7.74,0-13.51,2.49-17.31,7.46l-26.36-6.2Z"/>
    <polygon class="cls-4" points="130.63 139.85 812.03 139.85 878.14 53.6 130.63 53.6 130.63 139.85"/>
    <g>
      <path class="cls-10" d="M203.49,93.12c0,3.99-.71,7.49-2.12,10.49s-3.43,5.33-6.05,6.96-5.64,2.45-9.03,2.45-6.36-.81-8.99-2.42c-2.63-1.61-4.68-3.92-6.12-6.92-1.45-3-2.18-6.44-2.2-10.34v-2c0-3.99.72-7.5,2.16-10.53,1.44-3.03,3.47-5.36,6.09-6.99s5.63-2.44,9-2.44,6.38.81,9,2.44c2.62,1.62,4.66,3.95,6.09,6.99,1.44,3.03,2.16,6.54,2.16,10.51v1.81ZM195.03,91.29c0-4.25-.76-7.48-2.28-9.69s-3.69-3.31-6.51-3.31-4.96,1.09-6.49,3.27-2.29,5.38-2.31,9.59v1.98c0,4.14.76,7.35,2.28,9.63,1.52,2.28,3.71,3.42,6.57,3.42s4.95-1.1,6.46-3.3c1.5-2.2,2.26-5.4,2.28-9.62v-1.98Z"/>
      <path class="cls-10" d="M236.14,97.69c0,4.64-1.05,8.35-3.16,11.15-2.11,2.79-4.95,4.19-8.53,4.19-3.04,0-5.5-1.06-7.38-3.17v14.19h-8.04v-41.69h7.46l.28,2.95c1.95-2.34,4.49-3.51,7.62-3.51,3.71,0,6.6,1.37,8.66,4.12s3.09,6.53,3.09,11.36v.42ZM228.1,97.11c0-2.8-.5-4.96-1.49-6.48s-2.44-2.28-4.33-2.28c-2.52,0-4.26.97-5.2,2.89v12.33c.98,1.99,2.74,2.98,5.26,2.98,3.84,0,5.76-3.15,5.76-9.44Z"/>
      <path class="cls-10" d="M254.98,113.03c-4.42,0-8.01-1.35-10.79-4.06s-4.16-6.32-4.16-10.83v-.78c0-3.02.58-5.73,1.75-8.11s2.83-4.22,4.97-5.51c2.14-1.29,4.59-1.93,7.33-1.93,4.12,0,7.36,1.3,9.73,3.9,2.37,2.6,3.55,6.28,3.55,11.05v3.28h-19.18c.26,1.97,1.04,3.54,2.35,4.73,1.31,1.19,2.96,1.78,4.97,1.78,3.1,0,5.52-1.12,7.26-3.37l3.95,4.42c-1.21,1.71-2.84,3.04-4.9,3.99-2.06.96-4.34,1.43-6.85,1.43ZM254.06,88.28c-1.6,0-2.89.54-3.88,1.62-.99,1.08-1.63,2.63-1.91,4.64h11.19v-.64c-.04-1.79-.52-3.17-1.45-4.15s-2.25-1.47-3.95-1.47Z"/>
      <path class="cls-10" d="M288.85,89.9c-1.09-.15-2.06-.22-2.89-.22-3.04,0-5.04,1.03-5.98,3.09v19.71h-8.04v-30.11h7.6l.22,3.59c1.61-2.76,3.85-4.15,6.71-4.15.89,0,1.72.12,2.5.36l-.11,7.74Z"/>
      <path class="cls-10" d="M310.17,112.47c-.37-.72-.64-1.62-.81-2.7-1.95,2.17-4.48,3.26-7.6,3.26-2.95,0-5.39-.85-7.33-2.56-1.94-1.71-2.91-3.86-2.91-6.46,0-3.19,1.18-5.64,3.55-7.35,2.37-1.71,5.78-2.57,10.26-2.59h3.7v-1.73c0-1.39-.36-2.5-1.07-3.34-.71-.83-1.84-1.25-3.38-1.25-1.35,0-2.42.33-3.19.97-.77.65-1.16,1.54-1.16,2.67h-8.04c0-1.74.54-3.36,1.62-4.84,1.08-1.48,2.6-2.65,4.56-3.49,1.97-.84,4.17-1.27,6.62-1.27,3.71,0,6.66.93,8.84,2.8,2.18,1.87,3.27,4.49,3.27,7.86v13.05c.02,2.86.42,5.02,1.2,6.49v.47h-8.13ZM303.52,106.88c1.19,0,2.28-.26,3.28-.79,1-.53,1.74-1.24,2.23-2.13v-5.18h-3.01c-4.03,0-6.17,1.39-6.43,4.17l-.03.47c0,1,.35,1.83,1.06,2.48s1.67.97,2.89.97Z"/>
      <path class="cls-10" d="M332.91,74.95v7.4h5.15v5.9h-5.15v15.03c0,1.11.21,1.91.64,2.39.43.48,1.24.72,2.45.72.89,0,1.68-.06,2.37-.19v6.09c-1.58.48-3.2.72-4.87.72-5.64,0-8.52-2.85-8.63-8.54v-16.23h-4.4v-5.9h4.4v-7.4h8.04Z"/>
      <path class="cls-10" d="M342.49,74.56c0-1.21.4-2.2,1.21-2.98.81-.78,1.91-1.17,3.3-1.17s2.47.39,3.28,1.17,1.22,1.77,1.22,2.98-.41,2.23-1.24,3.01c-.83.78-1.92,1.17-3.27,1.17s-2.44-.39-3.27-1.17-1.24-1.78-1.24-3.01ZM351.03,112.47h-8.07v-30.11h8.07v30.11Z"/>
      <path class="cls-10" d="M356.4,97.13c0-2.99.58-5.65,1.73-7.99s2.81-4.15,4.97-5.43c2.16-1.28,4.67-1.92,7.53-1.92,4.06,0,7.38,1.24,9.95,3.73s4,5.86,4.3,10.13l.05,2.06c0,4.62-1.29,8.33-3.87,11.12s-6.04,4.19-10.38,4.19-7.81-1.39-10.39-4.17c-2.59-2.78-3.88-6.57-3.88-11.36v-.36ZM364.44,97.7c0,2.86.54,5.05,1.62,6.56,1.08,1.51,2.62,2.27,4.62,2.27s3.47-.75,4.56-2.24,1.64-3.89,1.64-7.18c0-2.81-.55-4.98-1.64-6.52-1.09-1.54-2.63-2.31-4.62-2.31s-3.49.77-4.56,2.3c-1.08,1.53-1.62,3.91-1.62,7.12Z"/>
      <path class="cls-10" d="M397.29,82.35l.25,3.48c2.15-2.69,5.04-4.04,8.66-4.04,3.19,0,5.57.94,7.12,2.81s2.36,4.68,2.39,8.4v19.46h-8.04v-19.26c0-1.71-.37-2.95-1.11-3.72-.74-.77-1.98-1.16-3.7-1.16-2.26,0-3.96.97-5.09,2.89v21.24h-8.04v-30.11h7.57Z"/>
      <path class="cls-10" d="M434.89,101.56c0-1.87.52-3.61,1.57-5.21,1.05-1.59,2.97-3.37,5.78-5.32-1.21-1.61-2.15-3.13-2.84-4.55-.69-1.42-1.03-2.9-1.03-4.44,0-3.15,1-5.72,2.99-7.7,1.99-1.98,4.68-2.96,8.06-2.96,3.02,0,5.51.9,7.45,2.7,1.94,1.8,2.91,4.05,2.91,6.74,0,3.23-1.63,6.08-4.9,8.54l-3.12,2.25,6.99,8.13c1.09-2.15,1.64-4.53,1.64-7.12h6.85c0,5.27-1.22,9.54-3.65,12.8l6.07,7.04h-9.13l-2.09-2.39c-2.99,1.97-6.42,2.95-10.3,2.95s-7.22-1.05-9.63-3.16c-2.41-2.11-3.62-4.88-3.62-8.31ZM448.53,106.54c1.93,0,3.76-.54,5.48-1.61l-7.99-9.22-.58.42c-1.65,1.41-2.48,3.06-2.48,4.97,0,1.61.51,2.92,1.54,3.93,1.03,1.01,2.37,1.51,4.02,1.51ZM445.57,81.94c0,1.39.82,3.14,2.45,5.26l2.14-1.42c1.09-.7,1.85-1.39,2.27-2.06.42-.67.63-1.47.63-2.39s-.34-1.73-1.03-2.42-1.57-1.03-2.64-1.03c-1.15,0-2.07.37-2.77,1.11-.7.74-1.04,1.73-1.04,2.95Z"/>
      <path class="cls-10" d="M499.04,71.95l10.41,29.39,10.35-29.39h10.96v40.52h-8.38v-11.08l.83-19.12-10.94,30.2h-5.73l-10.91-30.17.83,19.09v11.08h-8.35v-40.52h10.91Z"/>
      <path class="cls-10" d="M554.98,112.47c-.37-.72-.64-1.62-.81-2.7-1.95,2.17-4.48,3.26-7.6,3.26-2.95,0-5.39-.85-7.33-2.56-1.94-1.71-2.91-3.86-2.91-6.46,0-3.19,1.18-5.64,3.55-7.35,2.37-1.71,5.78-2.57,10.26-2.59h3.7v-1.73c0-1.39-.36-2.5-1.07-3.34-.71-.83-1.84-1.25-3.38-1.25-1.35,0-2.42.33-3.19.97-.77.65-1.16,1.54-1.16,2.67h-8.04c0-1.74.54-3.36,1.62-4.84,1.08-1.48,2.6-2.65,4.56-3.49,1.97-.84,4.17-1.27,6.62-1.27,3.71,0,6.66.93,8.84,2.8,2.18,1.87,3.27,4.49,3.27,7.86v13.05c.02,2.86.42,5.02,1.2,6.49v.47h-8.13ZM548.33,106.88c1.19,0,2.28-.26,3.28-.79,1-.53,1.74-1.24,2.23-2.13v-5.18h-3.01c-4.03,0-6.17,1.39-6.43,4.17l-.03.47c0,1,.35,1.83,1.06,2.48s1.67.97,2.89.97Z"/>
      <path class="cls-10" d="M568.04,74.56c0-1.21.4-2.2,1.21-2.98.81-.78,1.91-1.17,3.3-1.17s2.47.39,3.28,1.17,1.22,1.77,1.22,2.98-.41,2.23-1.24,3.01c-.83.78-1.92,1.17-3.27,1.17s-2.44-.39-3.27-1.17-1.24-1.78-1.24-3.01ZM576.58,112.47h-8.07v-30.11h8.07v30.11Z"/>
      <path class="cls-10" d="M590.61,82.35l.25,3.48c2.15-2.69,5.04-4.04,8.66-4.04,3.19,0,5.57.94,7.12,2.81s2.36,4.68,2.39,8.4v19.46h-8.04v-19.26c0-1.71-.37-2.95-1.11-3.72-.74-.77-1.98-1.16-3.7-1.16-2.26,0-3.96.97-5.09,2.89v21.24h-8.04v-30.11h7.57Z"/>
      <path class="cls-10" d="M624.76,74.95v7.4h5.15v5.9h-5.15v15.03c0,1.11.21,1.91.64,2.39s1.24.72,2.45.72c.89,0,1.68-.06,2.37-.19v6.09c-1.58.48-3.2.72-4.87.72-5.64,0-8.52-2.85-8.63-8.54v-16.23h-4.4v-5.9h4.4v-7.4h8.04Z"/>
      <path class="cls-10" d="M648.25,113.03c-4.42,0-8.01-1.35-10.79-4.06s-4.16-6.32-4.16-10.83v-.78c0-3.02.58-5.73,1.75-8.11s2.83-4.22,4.97-5.51c2.14-1.29,4.59-1.93,7.33-1.93,4.12,0,7.36,1.3,9.73,3.9,2.37,2.6,3.55,6.28,3.55,11.05v3.28h-19.18c.26,1.97,1.04,3.54,2.35,4.73,1.31,1.19,2.96,1.78,4.97,1.78,3.1,0,5.52-1.12,7.26-3.37l3.95,4.42c-1.21,1.71-2.84,3.04-4.9,3.99-2.06.96-4.34,1.43-6.85,1.43ZM647.33,88.28c-1.6,0-2.89.54-3.88,1.62-.99,1.08-1.63,2.63-1.91,4.64h11.19v-.64c-.04-1.79-.52-3.17-1.45-4.15-.93-.98-2.25-1.47-3.95-1.47Z"/>
      <path class="cls-10" d="M672.6,82.35l.25,3.48c2.15-2.69,5.04-4.04,8.66-4.04,3.19,0,5.57.94,7.12,2.81s2.36,4.68,2.39,8.4v19.46h-8.04v-19.26c0-1.71-.37-2.95-1.11-3.72-.74-.77-1.98-1.16-3.7-1.16-2.26,0-3.96.97-5.09,2.89v21.24h-8.04v-30.11h7.57Z"/>
      <path class="cls-10" d="M714.57,112.47c-.37-.72-.64-1.62-.81-2.7-1.95,2.17-4.48,3.26-7.6,3.26-2.95,0-5.4-.85-7.33-2.56-1.94-1.71-2.91-3.86-2.91-6.46,0-3.19,1.18-5.64,3.55-7.35,2.37-1.71,5.78-2.57,10.26-2.59h3.7v-1.73c0-1.39-.36-2.5-1.07-3.34-.71-.83-1.84-1.25-3.38-1.25-1.35,0-2.42.33-3.19.97-.77.65-1.16,1.54-1.16,2.67h-8.04c0-1.74.54-3.36,1.61-4.84,1.08-1.48,2.6-2.65,4.56-3.49s4.18-1.27,6.62-1.27c3.71,0,6.66.93,8.84,2.8,2.18,1.87,3.27,4.49,3.27,7.86v13.05c.02,2.86.42,5.02,1.2,6.49v.47h-8.13ZM707.92,106.88c1.19,0,2.28-.26,3.28-.79,1-.53,1.74-1.24,2.23-2.13v-5.18h-3.01c-4.03,0-6.17,1.39-6.43,4.17l-.03.47c0,1,.35,1.83,1.06,2.48s1.67.97,2.89.97Z"/>
      <path class="cls-10" d="M735.08,82.35l.25,3.48c2.15-2.69,5.04-4.04,8.66-4.04,3.19,0,5.57.94,7.12,2.81s2.36,4.68,2.39,8.4v19.46h-8.04v-19.26c0-1.71-.37-2.95-1.11-3.72-.74-.77-1.98-1.16-3.7-1.16-2.26,0-3.96.97-5.09,2.89v21.24h-8.04v-30.11h7.57Z"/>
      <path class="cls-10" d="M772.13,106.54c1.48,0,2.69-.41,3.62-1.22.93-.82,1.41-1.9,1.45-3.26h7.54c-.02,2.04-.58,3.91-1.67,5.61-1.09,1.7-2.59,3.02-4.5,3.95s-4,1.41-6.3,1.41c-4.3,0-7.7-1.37-10.19-4.11-2.49-2.74-3.73-6.52-3.73-11.34v-.53c0-4.64,1.23-8.34,3.7-11.1,2.47-2.76,5.85-4.15,10.16-4.15,3.77,0,6.79,1.07,9.06,3.21,2.27,2.14,3.43,5,3.46,8.56h-7.54c-.04-1.57-.52-2.84-1.45-3.82-.93-.98-2.15-1.47-3.67-1.47-1.88,0-3.29.68-4.25,2.05-.96,1.37-1.43,3.58-1.43,6.65v.84c0,3.1.47,5.33,1.42,6.69s2.38,2.04,4.31,2.04Z"/>
      <path class="cls-10" d="M803.19,113.03c-4.42,0-8.01-1.35-10.78-4.06-2.77-2.71-4.16-6.32-4.16-10.83v-.78c0-3.02.58-5.73,1.75-8.11,1.17-2.38,2.82-4.22,4.97-5.51,2.14-1.29,4.59-1.93,7.33-1.93,4.12,0,7.36,1.3,9.73,3.9,2.37,2.6,3.55,6.28,3.55,11.05v3.28h-19.18c.26,1.97,1.04,3.54,2.35,4.73,1.31,1.19,2.96,1.78,4.97,1.78,3.1,0,5.52-1.12,7.26-3.37l3.95,4.42c-1.21,1.71-2.84,3.04-4.9,3.99-2.06.96-4.34,1.43-6.85,1.43ZM802.27,88.28c-1.6,0-2.89.54-3.88,1.62s-1.63,2.63-1.91,4.64h11.19v-.64c-.04-1.79-.52-3.17-1.45-4.15s-2.25-1.47-3.95-1.47Z"/>
    </g>
    <g class="cls-12">
      <rect class="cls-7" x="113.58" y="102.91" width="34.11" height="37.97" transform="translate(-43.26 162.94) rotate(-56.3)"/>
    </g>
    <g class="cls-8">
      <rect class="cls-6" x="112.5" y="121" width="19.78" height="30.31" transform="translate(-15.47 15.69) rotate(-6.9)"/>
    </g>
    <g class="cls-9">
      <rect class="cls-5" x="122.78" y="120.45" width="32.17" height="31.42" transform="translate(-55.34 146.56) rotate(-47.5)"/>
    </g>
    <line class="cls-2" x1="128.16" y1="36.62" x2="620.55" y2="36.62"/>
    <line class="cls-3" x1="9.3" y1="168.53" x2="158.19" y2="168.53"/>
  </g>
</svg>