<?xml version="1.0" encoding="UTF-8"?>
<svg id="Layer_1" xmlns="http://www.w3.org/2000/svg" xmlns:xlink="http://www.w3.org/1999/xlink" version="1.1" viewBox="0 0 381.42 101.8">
  <!-- Generator: Adobe Illustrator 30.2.1, SVG Export Plug-In . SVG Version: 2.1.1 Build 1)  -->
  <defs>
    <style>
      .st0, .st1, .st2, .st3 {
        fill: none;
      }

      .st1, .st2, .st3 {
        stroke: #f89621;
        stroke-linecap: round;
        stroke-linejoin: round;
        stroke-width: 4.74px;
      }

      .st4 {
        fill: #f1cab9;
      }

      .st5 {
        fill: url(#linear-gradient2);
      }

      .st6 {
        fill: url(#linear-gradient1);
      }

      .st2 {
        stroke-dasharray: 0 15.19;
      }

      .st7 {
        fill: url(#linear-gradient);
      }

      .st8 {
        fill: #f26522;
      }

      .st9 {
        isolation: isolate;
      }

      .st10 {
        clip-path: url(#clippath-1);
      }

      .st11 {
        clip-path: url(#clippath-3);
      }

      .st12 {
        clip-path: url(#clippath-2);
      }

      .st13 {
        fill: #fff;
      }

      .st3 {
        stroke-dasharray: 0 13.9;
      }

      .st14 {
        clip-path: url(#clippath);
      }
    </style>
    <clipPath id="clippath">
      <rect class="st0" width="381.42" height="101.8"/>
    </clipPath>
    <clipPath id="clippath-1">
      <polygon class="st0" points="70.69 65.87 79.06 70.7 87.43 65.87 79.06 61.04 70.69 65.87"/>
    </clipPath>
    <linearGradient id="linear-gradient" x1="-762.09" y1="488.04" x2="-761.09" y2="488.04" gradientTransform="translate(75207.33 117336.57) rotate(90) scale(153.94)" gradientUnits="userSpaceOnUse">
      <stop offset="0" stop-color="#fbee43"/>
      <stop offset=".04" stop-color="#fbe336"/>
      <stop offset=".11" stop-color="#fbd224"/>
      <stop offset=".19" stop-color="#fbc919"/>
      <stop offset=".28" stop-color="#fcc616"/>
      <stop offset=".55" stop-color="#f4a032"/>
      <stop offset=".67" stop-color="#f19040"/>
      <stop offset=".89" stop-color="#ed673c"/>
      <stop offset="1" stop-color="#ea3e38"/>
    </linearGradient>
    <clipPath id="clippath-2">
      <polygon class="st0" points="70.69 75.53 79.06 80.37 79.06 70.7 70.69 65.87 70.69 75.53"/>
    </clipPath>
    <linearGradient id="linear-gradient1" x1="-756.21" y1="473.72" x2="-755.21" y2="473.72" gradientTransform="translate(23239.98 37009.28) rotate(90) scale(48.9)" gradientUnits="userSpaceOnUse">
      <stop offset="0" stop-color="#fbee43"/>
      <stop offset=".04" stop-color="#fbe336"/>
      <stop offset=".11" stop-color="#fbd224"/>
      <stop offset=".19" stop-color="#fbc919"/>
      <stop offset=".28" stop-color="#fcc616"/>
      <stop offset=".55" stop-color="#f4a032"/>
      <stop offset=".67" stop-color="#f19040"/>
      <stop offset=".89" stop-color="#ed673c"/>
      <stop offset="1" stop-color="#ea3e38"/>
    </linearGradient>
    <clipPath id="clippath-3">
      <polygon class="st0" points="79.06 70.7 79.06 80.37 87.43 75.53 87.43 65.87 79.06 70.7"/>
    </clipPath>
    <linearGradient id="linear-gradient2" x1="-756.11" y1="485.98" x2="-755.11" y2="485.98" gradientTransform="translate(36696.62 56985.07) rotate(90) scale(75.34)" gradientUnits="userSpaceOnUse">
      <stop offset="0" stop-color="#fbee43"/>
      <stop offset=".04" stop-color="#fbe336"/>
      <stop offset=".11" stop-color="#fbd224"/>
      <stop offset=".19" stop-color="#fbc919"/>
      <stop offset=".28" stop-color="#fcc616"/>
      <stop offset=".55" stop-color="#f4a032"/>
      <stop offset=".67" stop-color="#f19040"/>
      <stop offset=".89" stop-color="#ed673c"/>
      <stop offset="1" stop-color="#ea3e38"/>
    </linearGradient>
  </defs>
  <g class="st14">
    <g>
      <g class="st9">
        <g class="st9">
          <path class="st4" d="M46.26,8.7v72.81h-15.64V26.49l-16.89,5.15v-12.09l30.98-10.84h1.55Z"/>
        </g>
      </g>
      <g class="st9">
        <g class="st9">
          <path class="st8" d="M40.94,3.89v72.81h-15.64V21.68l-16.89,5.15v-12.09L39.39,3.89h1.55Z"/>
        </g>
      </g>
    </g>
  </g>
  <polygon class="st8" points="79.06 31.18 79.06 74.99 347.84 74.99 381.42 31.18 79.06 31.18"/>
  <g class="st9">
    <g class="st9">
      <path class="st13" d="M107.05,54.11h-4.98v-3.14h4.98c.77,0,1.4-.13,1.88-.38s.84-.61,1.06-1.07c.22-.46.34-.97.34-1.54s-.11-1.12-.34-1.62-.58-.9-1.06-1.21c-.48-.3-1.11-.46-1.88-.46h-3.58v16.39h-4.03v-19.54h7.61c1.53,0,2.84.28,3.94.83,1.1.55,1.94,1.31,2.52,2.27.58.97.87,2.07.87,3.32s-.29,2.35-.87,3.28-1.42,1.63-2.52,2.13-2.41.75-3.94.75Z"/>
      <path class="st13" d="M120.78,49.72v11.36h-3.87v-14.52h3.64l.23,3.17ZM125.15,46.46l-.07,3.58c-.19-.03-.41-.05-.68-.07-.26-.02-.5-.03-.72-.03-.55,0-1.02.07-1.42.21-.4.14-.73.34-.99.61-.26.27-.46.6-.59.98-.13.39-.2.82-.22,1.32l-.78-.24c0-.94.09-1.81.28-2.6.19-.79.46-1.48.83-2.07s.81-1.05,1.34-1.37c.53-.32,1.13-.48,1.81-.48.21,0,.43.02.66.05.22.03.41.07.55.13Z"/>
      <path class="st13" d="M133.41,61.35c-1.13,0-2.14-.18-3.03-.54s-1.65-.87-2.27-1.51c-.62-.64-1.1-1.39-1.43-2.25s-.5-1.77-.5-2.73v-.54c0-1.1.16-2.11.47-3.02.31-.91.76-1.71,1.35-2.38.59-.67,1.3-1.19,2.14-1.55s1.79-.54,2.85-.54,1.94.17,2.74.51c.8.34,1.47.82,2.01,1.45.54.63.95,1.38,1.23,2.25s.42,1.84.42,2.91v1.61h-11.54v-2.58h7.75v-.29c0-.54-.1-1.02-.29-1.44-.19-.42-.48-.76-.87-1.01-.39-.25-.88-.38-1.48-.38-.51,0-.95.11-1.32.33-.37.22-.66.54-.89.94-.23.4-.4.88-.51,1.42-.11.54-.17,1.13-.17,1.78v.54c0,.58.08,1.12.25,1.61s.4.92.71,1.28c.31.36.68.63,1.13.83s.95.29,1.51.29c.7,0,1.35-.14,1.95-.41.6-.27,1.12-.69,1.56-1.24l1.88,2.04c-.3.44-.72.86-1.24,1.26s-1.15.73-1.89.99c-.73.25-1.57.38-2.51.38Z"/>
      <path class="st13" d="M145.65,40.46v20.62h-3.88v-20.62h3.88Z"/>
      <path class="st13" d="M148.8,42.77c0-.56.2-1.03.59-1.4.39-.37.92-.55,1.58-.55s1.18.18,1.58.55c.4.37.6.83.6,1.4s-.2,1.03-.6,1.4c-.4.37-.92.55-1.58.55s-1.19-.18-1.58-.55c-.39-.37-.59-.83-.59-1.4ZM152.93,46.56v14.52h-3.88v-14.52h3.88Z"/>
      <path class="st13" d="M159.99,49.56v11.52h-3.88v-14.52h3.64l.24,3.01ZM159.45,53.31h-1.07c0-1.01.12-1.94.37-2.8s.61-1.6,1.09-2.23c.48-.63,1.07-1.12,1.78-1.47s1.53-.52,2.46-.52c.64,0,1.23.1,1.77.29.54.19,1,.49,1.39.9.39.41.69.94.91,1.58.21.65.32,1.43.32,2.33v9.69h-3.87v-9.26c0-.66-.09-1.17-.27-1.53-.18-.36-.43-.61-.76-.75-.33-.14-.72-.21-1.17-.21-.5,0-.94.1-1.31.31-.37.21-.68.49-.92.85-.24.36-.42.79-.54,1.27-.12.48-.17,1-.17,1.56ZM168.09,52.87l-1.38.17c0-.95.12-1.83.36-2.64.24-.81.59-1.53,1.06-2.15s1.05-1.1,1.75-1.44c.7-.34,1.5-.52,2.42-.52.7,0,1.33.1,1.91.3s1.06.52,1.47.95c.41.43.72,1,.94,1.7s.33,1.55.33,2.56v9.28h-3.88v-9.28c0-.67-.09-1.18-.26-1.54-.17-.35-.42-.6-.75-.74-.33-.14-.71-.21-1.16-.21s-.87.09-1.22.28c-.35.18-.64.44-.87.76-.23.32-.41.7-.52,1.12-.12.43-.17.89-.17,1.39Z"/>
      <path class="st13" d="M179.89,42.77c0-.56.2-1.03.59-1.4.39-.37.92-.55,1.58-.55s1.18.18,1.58.55c.4.37.6.83.6,1.4s-.2,1.03-.6,1.4c-.4.37-.92.55-1.58.55s-1.19-.18-1.58-.55c-.39-.37-.59-.83-.59-1.4ZM184.01,46.56v14.52h-3.88v-14.52h3.88Z"/>
      <path class="st13" d="M190.99,49.66v11.42h-3.87v-14.52h3.62l.24,3.1ZM190.43,53.31h-1.05c0-1.07.14-2.04.42-2.91s.67-1.6,1.17-2.21,1.1-1.08,1.79-1.41c.69-.33,1.47-.49,2.33-.49.68,0,1.3.1,1.87.29.56.2,1.05.51,1.46.94.41.43.72,1,.94,1.7.22.71.33,1.57.33,2.59v9.26h-3.89v-9.28c0-.64-.09-1.15-.27-1.5-.18-.36-.44-.61-.79-.76s-.77-.22-1.27-.22-.97.1-1.35.31c-.38.21-.69.49-.94.85s-.43.79-.56,1.27-.19,1-.19,1.56Z"/>
      <path class="st13" d="M210.97,52.23l.03,2.19h-2.16c-.51,0-.95.06-1.33.17-.38.12-.68.28-.93.49s-.42.45-.53.73-.17.58-.17.91.08.63.23.89c.15.26.37.47.66.62.29.15.62.22,1.01.22.58,0,1.09-.12,1.52-.35.43-.23.76-.52,1-.86.24-.34.36-.66.37-.97l1.02,1.64c-.14.37-.34.75-.58,1.14-.25.39-.56.76-.93,1.11-.38.34-.83.63-1.36.85-.53.22-1.15.33-1.88.33-.92,0-1.76-.19-2.5-.56-.75-.37-1.34-.89-1.77-1.54-.43-.66-.65-1.41-.65-2.25,0-.76.14-1.44.43-2.03.29-.59.71-1.09,1.27-1.5.56-.41,1.26-.72,2.1-.93.84-.21,1.82-.32,2.93-.32h2.24ZM210.46,57.8v-6.47c0-.46-.08-.87-.23-1.2-.15-.34-.39-.6-.71-.79-.32-.19-.73-.28-1.23-.28-.43,0-.8.07-1.11.22-.31.15-.55.36-.72.63-.17.27-.25.59-.25.96h-3.87c0-.62.14-1.2.43-1.76.29-.55.7-1.04,1.25-1.47.54-.42,1.2-.76,1.95-1,.76-.24,1.6-.36,2.54-.36,1.13,0,2.13.19,3.01.56s1.57.94,2.07,1.69c.5.75.76,1.69.76,2.82v6.21c0,.8.05,1.45.15,1.95.1.51.24.95.43,1.32v.23h-3.91c-.19-.39-.33-.89-.42-1.48-.09-.59-.14-1.19-.14-1.79Z"/>
      <path class="st13" d="M221.19,49.72v11.36h-3.87v-14.52h3.64l.23,3.17ZM225.57,46.46l-.07,3.58c-.19-.03-.41-.05-.68-.07s-.5-.03-.72-.03c-.55,0-1.02.07-1.42.21-.4.14-.73.34-.99.61-.26.27-.46.6-.59.98-.13.39-.2.82-.22,1.32l-.78-.24c0-.94.09-1.81.28-2.6.19-.79.46-1.48.83-2.07s.81-1.05,1.33-1.37c.53-.32,1.13-.48,1.81-.48.21,0,.43.02.66.05.22.03.41.07.55.13Z"/>
      <path class="st13" d="M230.33,46.56l3.15,10.52.55,4.09-2.63.28-5.22-14.9h4.15ZM231.95,59.44l3.85-12.89h4.15l-5.84,16.71c-.12.37-.29.76-.5,1.18-.21.42-.49.82-.85,1.2-.35.38-.8.69-1.33.93-.53.24-1.18.36-1.95.36-.37,0-.67-.02-.9-.07-.23-.04-.51-.11-.83-.19v-2.83c.1,0,.2,0,.31,0s.21,0,.31,0c.51,0,.93-.06,1.25-.17s.58-.29.78-.53c.2-.24.35-.54.47-.92l1.09-2.81Z"/>
      <path class="st13" d="M252.58,41.54v19.54h-4.03v-19.54h4.03ZM254.55,61.08h-4.26l.03-3.14h4.23c1.06,0,1.95-.24,2.67-.72.72-.48,1.27-1.18,1.64-2.1.37-.92.56-2.04.56-3.34v-.95c0-1-.11-1.88-.32-2.64s-.52-1.4-.93-1.92c-.41-.52-.92-.91-1.52-1.17-.6-.26-1.29-.4-2.07-.4h-4.38v-3.15h4.38c1.31,0,2.5.22,3.59.67,1.09.44,2.03,1.08,2.83,1.9.8.82,1.41,1.8,1.85,2.95.43,1.14.65,2.41.65,3.8v.93c0,1.39-.22,2.65-.65,3.8-.43,1.15-1.05,2.13-1.84,2.95-.79.82-1.74,1.45-2.83,1.89-1.1.44-2.31.66-3.63.66Z"/>
      <path class="st13" d="M272.86,61.35c-1.13,0-2.14-.18-3.03-.54-.9-.36-1.65-.87-2.28-1.51s-1.1-1.39-1.43-2.25-.5-1.77-.5-2.73v-.54c0-1.1.16-2.11.47-3.02.31-.91.76-1.71,1.35-2.38s1.3-1.19,2.14-1.55c.84-.36,1.79-.54,2.85-.54s1.94.17,2.74.51c.8.34,1.47.82,2.01,1.45.54.63.95,1.38,1.23,2.25s.42,1.84.42,2.91v1.61h-11.54v-2.58h7.75v-.29c0-.54-.1-1.02-.29-1.44-.19-.42-.48-.76-.87-1.01-.38-.25-.88-.38-1.48-.38-.51,0-.95.11-1.32.33s-.66.54-.89.94c-.23.4-.4.88-.51,1.42-.11.54-.17,1.13-.17,1.78v.54c0,.58.08,1.12.25,1.61.17.49.4.92.71,1.28.31.36.68.63,1.13.83.44.2.95.29,1.51.29.7,0,1.35-.14,1.95-.41.6-.27,1.12-.69,1.56-1.24l1.88,2.04c-.3.44-.72.86-1.24,1.26s-1.15.73-1.89.99c-.73.25-1.57.38-2.51.38Z"/>
      <path class="st13" d="M288.87,57.07c0-.28-.08-.53-.24-.75s-.46-.43-.89-.62c-.43-.19-1.06-.37-1.87-.53-.73-.16-1.42-.36-2.05-.61s-1.18-.54-1.64-.89c-.46-.35-.82-.76-1.08-1.24s-.39-1.03-.39-1.64.13-1.18.4-1.72c.26-.54.64-1.01,1.14-1.43.5-.42,1.11-.74,1.83-.98.72-.24,1.53-.36,2.44-.36,1.26,0,2.35.2,3.26.6.91.4,1.61.96,2.09,1.66.49.7.73,1.5.73,2.4h-3.87c0-.38-.08-.71-.23-1.01-.16-.3-.4-.54-.72-.71-.33-.17-.75-.26-1.27-.26-.43,0-.8.07-1.11.22-.31.15-.55.34-.72.59-.17.25-.25.52-.25.81,0,.22.05.42.14.6.09.17.25.33.46.48.21.14.49.28.84.4.34.12.77.23,1.28.33,1.05.21,1.98.5,2.81.84.82.34,1.48.81,1.96,1.4s.72,1.35.72,2.3c0,.64-.14,1.24-.43,1.77-.29.54-.7,1-1.23,1.4s-1.18.71-1.93.93c-.75.22-1.59.33-2.52.33-1.35,0-2.49-.24-3.43-.72-.93-.48-1.64-1.1-2.12-1.85-.48-.75-.72-1.51-.72-2.3h3.67c.02.53.15.95.41,1.28s.58.56.98.7c.4.14.83.21,1.3.21.5,0,.92-.07,1.25-.21s.58-.33.76-.56c.17-.24.26-.51.26-.83Z"/>
      <path class="st13" d="M295.1,42.77c0-.56.2-1.03.59-1.4.39-.37.92-.55,1.58-.55s1.18.18,1.58.55c.4.37.6.83.6,1.4s-.2,1.03-.6,1.4c-.4.37-.92.55-1.58.55s-1.19-.18-1.58-.55c-.39-.37-.59-.83-.59-1.4ZM299.22,46.56v14.52h-3.88v-14.52h3.88Z"/>
      <path class="st13" d="M301.84,53.99v-.28c0-1.11.14-2.12.41-3.03.27-.91.66-1.69,1.17-2.34s1.12-1.16,1.85-1.52c.72-.36,1.54-.54,2.46-.54.97,0,1.78.18,2.43.54.65.36,1.19.87,1.61,1.52.42.66.75,1.43.99,2.32s.42,1.86.56,2.92v.62c-.13,1.01-.33,1.95-.6,2.82s-.62,1.63-1.06,2.28-.98,1.15-1.63,1.51-1.42.54-2.32.54-1.7-.18-2.42-.55c-.72-.37-1.34-.88-1.85-1.54s-.9-1.44-1.17-2.34c-.27-.89-.41-1.87-.41-2.93ZM311.61,46.56h3.5v14.04c0,1.32-.29,2.45-.88,3.38-.59.93-1.4,1.63-2.45,2.11s-2.26.72-3.65.72c-.61,0-1.25-.08-1.93-.24s-1.32-.41-1.93-.75c-.61-.34-1.13-.77-1.54-1.29l1.71-2.28c.45.52.97.92,1.56,1.21s1.24.44,1.96.44,1.29-.13,1.77-.38.85-.63,1.11-1.11.39-1.08.39-1.76v-10.71l.38-3.36ZM305.7,53.71v.28c0,.6.06,1.16.17,1.68.12.52.3.98.54,1.38.25.4.55.71.93.93.37.22.81.33,1.32.33.71,0,1.28-.15,1.73-.45.45-.3.78-.71,1.01-1.24s.35-1.14.39-1.83v-1.76c-.02-.56-.09-1.07-.23-1.52-.13-.45-.32-.84-.56-1.16s-.55-.57-.94-.75c-.38-.18-.84-.27-1.37-.27s-.95.11-1.32.34-.68.54-.93.93c-.25.39-.43.86-.56,1.39s-.19,1.11-.19,1.72Z"/>
      <path class="st13" d="M321.91,49.66v11.42h-3.87v-14.52h3.62l.24,3.1ZM321.34,53.31h-1.05c0-1.07.14-2.04.42-2.91s.67-1.6,1.17-2.21,1.1-1.08,1.79-1.41c.69-.33,1.47-.49,2.33-.49.68,0,1.3.1,1.87.29.56.2,1.05.51,1.46.94.41.43.72,1,.94,1.7.22.71.33,1.57.33,2.59v9.26h-3.89v-9.28c0-.64-.09-1.15-.27-1.5-.18-.36-.44-.61-.79-.76s-.77-.22-1.27-.22-.97.1-1.35.31c-.38.21-.69.49-.94.85s-.43.79-.56,1.27c-.12.48-.19,1-.19,1.56Z"/>
    </g>
  </g>
  <g class="st10">
    <rect class="st7" x="70.39" y="56.23" width="17.33" height="19.29" transform="translate(-19.61 95.1) rotate(-56.3)"/>
  </g>
  <g class="st12">
    <rect class="st6" x="69.85" y="65.42" width="10.05" height="15.4" transform="translate(-8.24 9.53) rotate(-6.9)"/>
  </g>
  <g class="st11">
    <rect class="st5" x="75.08" y="65.14" width="16.34" height="15.96" transform="translate(-26.9 85.1) rotate(-47.5)"/>
  </g>
  <line class="st3" x1="84.58" y1="22.55" x2="313.88" y2="22.55"/>
  <path class="st1" d="M320.83,22.55h0M70.69,22.55h0"/>
  <line class="st2" x1="25.49" y1="89.57" x2="78.65" y2="89.57"/>
  <path class="st1" d="M86.25,89.57h0M10.31,89.57h0"/>
</svg>