<?xml version="1.0" encoding="UTF-8"?>
<svg xmlns="http://www.w3.org/2000/svg" xmlns:xlink="http://www.w3.org/1999/xlink" viewBox="0 0 940 220">
  <defs>
    <style>
      .cls-1, .cls-2, .cls-3 {
        fill: none;
      }

      .cls-4 {
        mask: url(#mask);
      }

      .cls-2 {
        stroke-dasharray: 0 12.29;
      }

      .cls-2, .cls-3 {
        stroke: #f69421;
        stroke-linecap: round;
        stroke-linejoin: round;
        stroke-width: 4.19px;
      }

      .cls-5 {
        fill: #ecd7c2;
        mix-blend-mode: multiply;
      }

      .cls-6 {
        fill: url(#linear-gradient-4);
      }

      .cls-7 {
        fill: url(#linear-gradient-3);
      }

      .cls-8 {
        fill: url(#linear-gradient-2);
      }

      .cls-9 {
        isolation: isolate;
      }

      .cls-10 {
        clip-path: url(#clippath-1);
      }

      .cls-11 {
        clip-path: url(#clippath-3);
      }

      .cls-12 {
        clip-path: url(#clippath-4);
      }

      .cls-13 {
        clip-path: url(#clippath-2);
      }

      .cls-3 {
        stroke-dasharray: 0 13.43;
      }

      .cls-14 {
        fill: url(#linear-gradient);
        opacity: .86;
      }

      .cls-15 {
        fill: #fff;
      }

      .cls-16 {
        fill: #efc8b7;
        font-family: Roboto-Black, Roboto;
        font-size: 201.44px;
        font-weight: 800;
      }

      .cls-17 {
        fill: #f06522;
      }

      .cls-18 {
        clip-path: url(#clippath);
      }
    </style>
    <clipPath id="clippath">
      <rect class="cls-1" x="-3193.22" y="358.47" width="2465.74" height="2206.89"/>
    </clipPath>
    <filter id="luminosity-noclip" x="-3328.88" y="-1708.52" width="3877.55" height="2048.49" color-interpolation-filters="sRGB" filterUnits="userSpaceOnUse">
      <feFlood flood-color="#fff" result="bg"/>
      <feBlend in="SourceGraphic" in2="bg"/>
    </filter>
    <mask id="mask" x="-3328.88" y="-1708.52" width="3877.55" height="2048.49" maskUnits="userSpaceOnUse"/>
    <clipPath id="clippath-1">
      <rect class="cls-1" x="-3328.88" y="-1638.4" width="1966.73" height="1108.72"/>
    </clipPath>
    <linearGradient id="linear-gradient" x1="-4946.2" y1="-3687.81" x2="2879.65" y2="1570.6" gradientUnits="userSpaceOnUse">
      <stop offset="0" stop-color="#edac77"/>
      <stop offset=".26" stop-color="#e86d60"/>
      <stop offset=".5" stop-color="#e63e4f"/>
      <stop offset=".5" stop-color="#e43c4d"/>
      <stop offset=".56" stop-color="#d3323c"/>
      <stop offset=".63" stop-color="#c82b30"/>
      <stop offset=".73" stop-color="#c12729"/>
      <stop offset="1" stop-color="#c02628"/>
    </linearGradient>
    <clipPath id="clippath-2">
      <polygon class="cls-1" points="133.63 129.66 150.1 139.17 166.58 129.66 150.1 120.15 133.63 129.66"/>
    </clipPath>
    <linearGradient id="linear-gradient-2" x1="-2959.19" y1="-1293.3" x2="-2957.22" y2="-1293.3" gradientTransform="translate(199245.24 455586.74) rotate(90) scale(153.94 -153.94)" gradientUnits="userSpaceOnUse">
      <stop offset="0" stop-color="#f9ec43"/>
      <stop offset=".04" stop-color="#f9e136"/>
      <stop offset=".11" stop-color="#f9d024"/>
      <stop offset=".19" stop-color="#f9c719"/>
      <stop offset=".28" stop-color="#fac416"/>
      <stop offset=".55" stop-color="#f29e32"/>
      <stop offset=".67" stop-color="#ef8e40"/>
      <stop offset=".89" stop-color="#eb673c"/>
      <stop offset="1" stop-color="#e83e38"/>
    </linearGradient>
    <clipPath id="clippath-3">
      <polygon class="cls-1" points="133.63 148.68 150.1 158.2 150.1 139.17 133.63 129.66 133.63 148.68"/>
    </clipPath>
    <linearGradient id="linear-gradient-3" x1="-2934.03" y1="-1236.28" x2="-2932.06" y2="-1236.28" gradientTransform="translate(60591.19 143523.11) rotate(90) scale(48.9 -48.9)" xlink:href="#linear-gradient-2"/>
    <clipPath id="clippath-4">
      <polygon class="cls-1" points="150.1 139.17 150.1 158.2 166.58 148.68 166.58 129.66 150.1 139.17"/>
    </clipPath>
    <linearGradient id="linear-gradient-4" x1="-2935.02" y1="-1285.96" x2="-2933.05" y2="-1285.96" gradientTransform="translate(97046.22 221171.18) rotate(90) scale(75.34 -75.34)" xlink:href="#linear-gradient-2"/>
  </defs>
  <g class="cls-9">
    <g id="bg">
      <g class="cls-18">
        <polygon class="cls-5" points="-1325.09 -234.62 -2706.65 597.13 -1325.07 1428.91 56.48 597.13 -1325.09 -234.62"/>
      </g>
    </g>
    <g id="Text">
      <g class="cls-4">
        <g class="cls-10">
          <path class="cls-14" d="M-176.04-850.98l-491.74,283.52c-106.03,61.13-106.13,214.12-.18,275.4L-181.85-10.93c49.2,28.45,109.85,28.48,159.08.08l491.91-283.86c106.03-61.18,106.05-214.21.04-275.42L-17.11-850.93c-49.17-28.39-109.75-28.41-158.93-.05Z"/>
        </g>
      </g>
      <text class="cls-16" transform="translate(4.98 160.45)"><tspan x="0" y="0">1</tspan></text>
      <path class="cls-17" d="M76.74,150.98h-33.25V45.15l-32.66,9.54v-25.18L73.69,7.77h3.05v143.21Z"/>
      <polygon class="cls-17" points="150.1 147.62 787.43 147.62 867.05 61.37 150.1 61.37 150.1 147.62"/>
      <g>
        <path class="cls-15" d="M198.15,106.69v13.55h-7.92v-38.46h15c2.89,0,5.43.53,7.62,1.58s3.88,2.56,5.06,4.5c1.18,1.95,1.77,4.16,1.77,6.64,0,3.77-1.29,6.74-3.87,8.92-2.58,2.18-6.15,3.26-10.71,3.26h-6.95ZM198.15,100.27h7.08c2.1,0,3.69-.49,4.79-1.48s1.65-2.4,1.65-4.23-.55-3.41-1.66-4.57c-1.11-1.16-2.64-1.76-4.6-1.8h-7.27v12.07Z"/>
        <path class="cls-15" d="M240.68,98.81c-1.04-.14-1.95-.21-2.75-.21-2.89,0-4.78.98-5.68,2.93v18.7h-7.63v-28.58h7.21l.21,3.41c1.53-2.62,3.65-3.94,6.37-3.94.85,0,1.64.11,2.38.34l-.11,7.34Z"/>
        <path class="cls-15" d="M257.51,120.77c-4.19,0-7.6-1.29-10.24-3.86-2.63-2.57-3.95-6-3.95-10.28v-.74c0-2.87.55-5.44,1.66-7.7,1.11-2.26,2.68-4.01,4.72-5.23,2.03-1.22,4.35-1.84,6.96-1.84,3.91,0,6.99,1.23,9.23,3.7,2.25,2.47,3.37,5.96,3.37,10.49v3.12h-18.2c.25,1.87.99,3.36,2.23,4.49s2.81,1.69,4.72,1.69c2.94,0,5.24-1.07,6.9-3.2l3.75,4.2c-1.15,1.62-2.69,2.88-4.65,3.79s-4.12,1.36-6.5,1.36ZM256.64,97.28c-1.51,0-2.74.51-3.69,1.54s-1.54,2.49-1.81,4.4h10.62v-.61c-.04-1.7-.49-3.01-1.37-3.94-.88-.93-2.13-1.39-3.75-1.39Z"/>
        <path class="cls-15" d="M281.65,120.24h-7.66v-40.58h7.66v40.58Z"/>
        <path class="cls-15" d="M287.89,84.26c0-1.14.38-2.09,1.15-2.83.77-.74,1.81-1.11,3.13-1.11s2.34.37,3.12,1.11c.78.74,1.16,1.68,1.16,2.83s-.39,2.11-1.18,2.85c-.78.74-1.82,1.11-3.1,1.11s-2.32-.37-3.1-1.11c-.78-.74-1.17-1.69-1.17-2.85ZM296,120.24h-7.66v-28.58h7.66v28.58Z"/>
        <path class="cls-15" d="M309.45,91.66l.24,3.2c2.02-2.48,4.76-3.72,8.22-3.72,3.68,0,6.21,1.45,7.58,4.36,2.01-2.91,4.87-4.36,8.59-4.36,3.1,0,5.41.9,6.92,2.71,1.51,1.81,2.27,4.52,2.27,8.15v18.25h-7.66v-18.23c0-1.62-.32-2.8-.95-3.55-.63-.75-1.75-1.12-3.36-1.12-2.29,0-3.87,1.09-4.75,3.28l.03,19.63h-7.63v-18.2c0-1.66-.33-2.85-.98-3.59-.65-.74-1.76-1.11-3.33-1.11-2.17,0-3.73.9-4.7,2.69v20.21h-7.63v-28.58h7.16Z"/>
        <path class="cls-15" d="M349.07,84.26c0-1.14.38-2.09,1.15-2.83.77-.74,1.81-1.11,3.13-1.11s2.34.37,3.12,1.11c.78.74,1.16,1.68,1.16,2.83s-.39,2.11-1.18,2.85c-.78.74-1.82,1.11-3.1,1.11s-2.32-.37-3.1-1.11c-.78-.74-1.17-1.69-1.17-2.85ZM357.18,120.24h-7.66v-28.58h7.66v28.58Z"/>
        <path class="cls-15" d="M370.5,91.66l.24,3.3c2.04-2.55,4.78-3.83,8.22-3.83,3.03,0,5.28.89,6.76,2.67s2.24,4.44,2.27,7.98v18.47h-7.63v-18.28c0-1.62-.35-2.8-1.06-3.53-.7-.73-1.88-1.1-3.51-1.1-2.15,0-3.76.92-4.83,2.75v20.16h-7.63v-28.58h7.19Z"/>
        <path class="cls-15" d="M410.34,120.24c-.35-.69-.61-1.54-.77-2.56-1.85,2.06-4.25,3.09-7.21,3.09-2.8,0-5.12-.81-6.96-2.43-1.84-1.62-2.76-3.66-2.76-6.13,0-3.03,1.12-5.35,3.37-6.97,2.25-1.62,5.49-2.44,9.73-2.46h3.51v-1.64c0-1.32-.34-2.38-1.02-3.17-.68-.79-1.75-1.19-3.21-1.19-1.29,0-2.29.31-3.03.92-.73.62-1.1,1.46-1.1,2.54h-7.63c0-1.66.51-3.19,1.53-4.6,1.02-1.41,2.47-2.51,4.33-3.32,1.87-.8,3.96-1.2,6.29-1.2,3.52,0,6.32.88,8.39,2.65,2.07,1.77,3.1,4.26,3.1,7.46v12.39c.02,2.71.4,4.76,1.14,6.16v.45h-7.71ZM404.02,114.93c1.13,0,2.17-.25,3.12-.75s1.66-1.18,2.11-2.02v-4.91h-2.85c-3.82,0-5.86,1.32-6.1,3.96l-.03.45c0,.95.33,1.74,1,2.35.67.62,1.59.92,2.75.92Z"/>
        <path class="cls-15" d="M438.84,98.81c-1.04-.14-1.96-.21-2.75-.21-2.89,0-4.78.98-5.68,2.93v18.7h-7.63v-28.58h7.21l.21,3.41c1.53-2.62,3.65-3.94,6.37-3.94.85,0,1.64.11,2.38.34l-.11,7.34Z"/>
        <path class="cls-15" d="M453.19,109.43l5.28-17.78h8.19l-11.49,33.02-.63,1.51c-1.71,3.73-4.53,5.6-8.45,5.6-1.11,0-2.24-.17-3.38-.5v-5.79l1.16.03c1.44,0,2.52-.22,3.24-.66.71-.44,1.27-1.17,1.68-2.19l.9-2.35-10.01-28.66h8.22l5.31,17.78Z"/>
        <path class="cls-15" d="M483.65,120.24v-38.46h11.84c3.38,0,6.41.76,9.07,2.29s4.75,3.69,6.25,6.5,2.25,6,2.25,9.58v1.77c0,3.58-.74,6.75-2.21,9.54-1.47,2.78-3.54,4.94-6.22,6.47-2.68,1.53-5.7,2.31-9.06,2.33h-11.92ZM491.57,88.19v25.68h3.83c3.1,0,5.47-1.01,7.11-3.04,1.64-2.02,2.47-4.92,2.51-8.69v-2.03c0-3.91-.81-6.87-2.43-8.89-1.62-2.02-3.99-3.02-7.11-3.02h-3.91Z"/>
        <path class="cls-15" d="M531.46,120.77c-4.19,0-7.6-1.29-10.24-3.86-2.63-2.57-3.95-6-3.95-10.28v-.74c0-2.87.55-5.44,1.67-7.7,1.11-2.26,2.68-4.01,4.72-5.23,2.03-1.22,4.35-1.84,6.96-1.84,3.91,0,6.99,1.23,9.23,3.7,2.25,2.47,3.37,5.96,3.37,10.49v3.12h-18.2c.25,1.87.99,3.36,2.23,4.49,1.24,1.13,2.81,1.69,4.72,1.69,2.94,0,5.24-1.07,6.89-3.2l3.75,4.2c-1.15,1.62-2.7,2.88-4.65,3.79s-4.12,1.36-6.5,1.36ZM530.59,97.28c-1.51,0-2.74.51-3.69,1.54s-1.55,2.49-1.81,4.4h10.62v-.61c-.04-1.7-.49-3.01-1.37-3.94s-2.13-1.39-3.75-1.39Z"/>
        <path class="cls-15" d="M563.03,112.34c0-.93-.46-1.67-1.39-2.21-.92-.54-2.41-1.02-4.45-1.44-6.8-1.43-10.2-4.31-10.2-8.67,0-2.54,1.05-4.65,3.16-6.35,2.1-1.7,4.86-2.55,8.26-2.55,3.63,0,6.53.85,8.7,2.56,2.18,1.71,3.26,3.93,3.26,6.66h-7.63c0-1.09-.35-2-1.06-2.71-.7-.71-1.81-1.07-3.3-1.07-1.29,0-2.28.29-2.99.87-.71.58-1.06,1.32-1.06,2.22,0,.85.4,1.53,1.2,2.05.8.52,2.15.97,4.05,1.35s3.5.81,4.81,1.28c4.03,1.48,6.05,4.04,6.05,7.69,0,2.61-1.12,4.72-3.35,6.33-2.24,1.61-5.12,2.42-8.67,2.42-2.4,0-4.52-.43-6.38-1.28-1.86-.85-3.32-2.03-4.37-3.51s-1.59-3.09-1.59-4.82h7.24c.07,1.36.57,2.4,1.51,3.12.93.72,2.18,1.08,3.75,1.08,1.46,0,2.57-.28,3.32-.83s1.12-1.28,1.12-2.18Z"/>
        <path class="cls-15" d="M575.32,84.26c0-1.14.38-2.09,1.15-2.83.77-.74,1.81-1.11,3.13-1.11s2.34.37,3.12,1.11c.77.74,1.16,1.68,1.16,2.83s-.39,2.11-1.18,2.85c-.78.74-1.82,1.11-3.1,1.11s-2.32-.37-3.1-1.11c-.78-.74-1.18-1.69-1.18-2.85ZM583.43,120.24h-7.66v-28.58h7.66v28.58Z"/>
        <path class="cls-15" d="M588.61,105.74c0-4.38,1.04-7.92,3.13-10.59,2.09-2.68,4.9-4.01,8.44-4.01,3.13,0,5.57,1.07,7.32,3.22l.32-2.69h6.92v27.63c0,2.5-.57,4.68-1.7,6.53s-2.73,3.26-4.79,4.23-4.47,1.45-7.24,1.45c-2.1,0-4.14-.42-6.13-1.25-1.99-.84-3.5-1.92-4.52-3.24l3.38-4.65c1.9,2.13,4.21,3.2,6.92,3.2,2.03,0,3.6-.54,4.73-1.62,1.13-1.08,1.69-2.62,1.69-4.61v-1.53c-1.76,1.99-4.08,2.99-6.95,2.99-3.43,0-6.21-1.34-8.33-4.03s-3.18-6.25-3.18-10.69v-.32ZM596.24,106.3c0,2.59.52,4.63,1.56,6.1,1.04,1.47,2.46,2.21,4.28,2.21,2.32,0,3.99-.87,4.99-2.62v-12.04c-1.02-1.75-2.67-2.62-4.94-2.62-1.83,0-3.27.75-4.32,2.25s-1.57,3.74-1.57,6.72Z"/>
        <path class="cls-15" d="M627.63,91.66l.24,3.3c2.04-2.55,4.78-3.83,8.22-3.83,3.03,0,5.28.89,6.76,2.67,1.48,1.78,2.24,4.44,2.27,7.98v18.47h-7.63v-18.28c0-1.62-.35-2.8-1.06-3.53-.71-.73-1.88-1.1-3.51-1.1-2.15,0-3.76.92-4.83,2.75v20.16h-7.63v-28.58h7.19Z"/>
      </g>
      <g class="cls-13">
        <rect class="cls-8" x="133.05" y="110.68" width="34.11" height="37.97" transform="translate(-41.05 182.6) rotate(-56.3)"/>
      </g>
      <g class="cls-11">
        <rect class="cls-7" x="131.97" y="128.77" width="19.78" height="30.31" transform="translate(-16.26 18.09) rotate(-6.9)"/>
      </g>
      <g class="cls-12">
        <rect class="cls-6" x="142.25" y="128.22" width="32.17" height="31.42" transform="translate(-54.75 163.43) rotate(-47.5)"/>
      </g>
      <line class="cls-2" x1="133.63" y1="44.39" x2="626.01" y2="44.39"/>
      <line class="cls-3" x1="14.77" y1="176.3" x2="163.66" y2="176.3"/>
    </g>
  </g>
</svg>