<?xml version="1.0" encoding="UTF-8"?>
<svg id="Layer_1" xmlns="http://www.w3.org/2000/svg" xmlns:xlink="http://www.w3.org/1999/xlink" version="1.1" viewBox="0 0 334.78 89.58">
  <!-- Generator: Adobe Illustrator 30.2.1, SVG Export Plug-In . SVG Version: 2.1.1 Build 1)  -->
  <defs>
    <style>
      .st0, .st1, .st2, .st3 {
        fill: none;
      }

      .st1, .st2, .st3 {
        stroke: #f89621;
        stroke-linecap: round;
        stroke-linejoin: round;
        stroke-width: 4.74px;
      }

      .st4 {
        fill: url(#linear-gradient2);
      }

      .st5 {
        fill: url(#linear-gradient1);
      }

      .st6 {
        fill: #eccbc0;
      }

      .st2 {
        stroke-dasharray: 0 15.19;
      }

      .st7 {
        fill: url(#linear-gradient);
      }

      .st8 {
        fill: #f68b33;
      }

      .st9 {
        isolation: isolate;
      }

      .st10 {
        clip-path: url(#clippath-1);
      }

      .st11 {
        clip-path: url(#clippath-2);
      }

      .st12 {
        fill: #fff;
      }

      .st3 {
        stroke-dasharray: 0 13.9;
      }

      .st13 {
        clip-path: url(#clippath);
      }
    </style>
    <clipPath id="clippath">
      <polygon class="st0" points="69.17 63.46 77.54 68.3 85.91 63.46 77.54 58.63 69.17 63.46"/>
    </clipPath>
    <linearGradient id="linear-gradient" x1="-862.21" y1="475.95" x2="-861.21" y2="475.95" gradientTransform="translate(73344.56 132747.28) rotate(90) scale(153.94)" gradientUnits="userSpaceOnUse">
      <stop offset="0" stop-color="#fbee43"/>
      <stop offset=".04" stop-color="#fbe336"/>
      <stop offset=".11" stop-color="#fbd224"/>
      <stop offset=".19" stop-color="#fbc919"/>
      <stop offset=".28" stop-color="#fcc616"/>
      <stop offset=".55" stop-color="#f4a032"/>
      <stop offset=".67" stop-color="#f19040"/>
      <stop offset=".89" stop-color="#ed673c"/>
      <stop offset="1" stop-color="#ea3e38"/>
    </linearGradient>
    <clipPath id="clippath-1">
      <polygon class="st0" points="69.17 73.13 77.54 77.96 77.54 68.3 69.17 63.46 69.17 73.13"/>
    </clipPath>
    <linearGradient id="linear-gradient1" x1="-856.3" y1="461.22" x2="-855.3" y2="461.22" gradientTransform="translate(22626.8 41901.13) rotate(90) scale(48.9)" gradientUnits="userSpaceOnUse">
      <stop offset="0" stop-color="#fbee43"/>
      <stop offset=".04" stop-color="#fbe336"/>
      <stop offset=".11" stop-color="#fbd224"/>
      <stop offset=".19" stop-color="#fbc919"/>
      <stop offset=".28" stop-color="#fcc616"/>
      <stop offset=".55" stop-color="#f4a032"/>
      <stop offset=".67" stop-color="#f19040"/>
      <stop offset=".89" stop-color="#ed673c"/>
      <stop offset="1" stop-color="#ea3e38"/>
    </linearGradient>
    <clipPath id="clippath-2">
      <polygon class="st0" points="77.54 68.3 77.54 77.96 85.91 73.13 85.91 63.46 77.54 68.3"/>
    </clipPath>
    <linearGradient id="linear-gradient2" x1="-856.09" y1="473.78" x2="-855.09" y2="473.78" gradientTransform="translate(35776.46 64515.76) rotate(90) scale(75.34)" gradientUnits="userSpaceOnUse">
      <stop offset="0" stop-color="#fbee43"/>
      <stop offset=".04" stop-color="#fbe336"/>
      <stop offset=".11" stop-color="#fbd224"/>
      <stop offset=".19" stop-color="#fbc919"/>
      <stop offset=".28" stop-color="#fcc616"/>
      <stop offset=".55" stop-color="#f4a032"/>
      <stop offset=".67" stop-color="#f19040"/>
      <stop offset=".89" stop-color="#ed673c"/>
      <stop offset="1" stop-color="#ea3e38"/>
    </linearGradient>
  </defs>
  <g class="st9">
    <g class="st9">
      <path class="st6" d="M58.83,66.97v12.14H8.56v-10.29l23.49-24.89c2.2-2.53,3.96-4.76,5.27-6.7,1.32-1.93,2.27-3.69,2.87-5.27.6-1.58.9-3.04.9-4.37,0-2.17-.34-4-1.02-5.5-.68-1.5-1.67-2.65-2.97-3.45-1.3-.8-2.88-1.2-4.75-1.2-2,0-3.71.52-5.15,1.55-1.43,1.03-2.53,2.46-3.3,4.27-.77,1.82-1.15,3.87-1.15,6.17H7.06c0-4.43,1.07-8.47,3.2-12.12,2.13-3.65,5.11-6.56,8.94-8.74,3.83-2.18,8.31-3.27,13.44-3.27s9.68.83,13.24,2.5c3.56,1.67,6.26,4.05,8.1,7.15,1.83,3.1,2.75,6.83,2.75,11.19,0,2.47-.39,4.85-1.17,7.15-.78,2.3-1.91,4.58-3.37,6.85-1.47,2.27-3.23,4.57-5.3,6.92-2.07,2.35-4.4,4.82-7,7.42l-10.99,12.49h29.93Z"/>
    </g>
  </g>
  <g class="st9">
    <g class="st9">
      <path class="st8" d="M53.5,62.21v12.14H3.23v-10.29l23.49-24.89c2.2-2.53,3.96-4.76,5.27-6.7,1.32-1.93,2.27-3.69,2.87-5.27.6-1.58.9-3.04.9-4.37,0-2.17-.34-4-1.02-5.5-.68-1.5-1.67-2.65-2.97-3.45-1.3-.8-2.88-1.2-4.75-1.2-2,0-3.71.52-5.15,1.55-1.43,1.03-2.53,2.46-3.3,4.27-.77,1.82-1.15,3.87-1.15,6.17H1.73c0-4.43,1.07-8.47,3.2-12.12,2.13-3.65,5.11-6.56,8.94-8.74,3.83-2.18,8.31-3.27,13.44-3.27s9.68.83,13.24,2.5c3.56,1.67,6.26,4.05,8.1,7.15,1.83,3.1,2.75,6.83,2.75,11.19,0,2.47-.39,4.85-1.17,7.15-.78,2.3-1.91,4.58-3.37,6.85-1.47,2.27-3.23,4.57-5.3,6.92-2.07,2.35-4.4,4.82-7,7.42l-10.99,12.49h29.93Z"/>
    </g>
  </g>
  <polygon class="st8" points="77.54 72.59 301.2 72.59 334.78 28.77 77.54 28.77 77.54 72.59"/>
  <g class="st13">
    <rect class="st7" x="68.87" y="53.82" width="17.33" height="19.29" transform="translate(-18.28 92.76) rotate(-56.3)"/>
  </g>
  <g class="st10">
    <rect class="st5" x="68.33" y="63.01" width="10.05" height="15.4" transform="translate(-7.96 9.33) rotate(-6.9)"/>
  </g>
  <g class="st11">
    <rect class="st4" x="73.55" y="62.73" width="16.34" height="15.96" transform="translate(-25.62 83.19) rotate(-47.5)"/>
  </g>
  <line class="st3" x1="83.06" y1="20.15" x2="312.36" y2="20.15"/>
  <path class="st1" d="M319.31,20.15h0M69.17,20.15h0"/>
  <line class="st2" x1="17.97" y1="87.16" x2="71.13" y2="87.16"/>
  <path class="st1" d="M78.73,87.16h0M2.79,87.16h0"/>
  <g class="st9">
    <g class="st9">
      <path class="st12" d="M97.57,41.11v19.19h-3.96v-19.19h3.96ZM99.51,60.31h-4.18l.03-3.08h4.15c1.04,0,1.91-.24,2.62-.71.71-.47,1.25-1.16,1.62-2.06.36-.91.55-2,.55-3.28v-.94c0-.98-.1-1.85-.31-2.6-.21-.75-.51-1.38-.92-1.88-.4-.51-.9-.89-1.49-1.15-.59-.26-1.27-.39-2.03-.39h-4.3v-3.1h4.3c1.28,0,2.46.22,3.53.65,1.07.44,1.99,1.06,2.78,1.87.78.81,1.39,1.77,1.81,2.89.43,1.12.64,2.37.64,3.74v.91c0,1.36-.21,2.61-.64,3.73s-1.03,2.09-1.81,2.89c-.78.8-1.71,1.42-2.78,1.86-1.08.43-2.27.65-3.57.65Z"/>
    </g>
    <g class="st9">
      <path class="st12" d="M117.33,60.57c-1.11,0-2.1-.18-2.98-.53-.88-.36-1.62-.85-2.23-1.48-.61-.63-1.08-1.37-1.4-2.21-.33-.84-.49-1.73-.49-2.68v-.53c0-1.08.15-2.07.46-2.97s.75-1.67,1.33-2.33c.58-.66,1.28-1.17,2.1-1.52.83-.36,1.76-.53,2.79-.53s1.91.17,2.69.5c.78.33,1.44.81,1.97,1.42s.93,1.35,1.21,2.21c.27.86.41,1.81.41,2.85v1.58h-11.34v-2.53h7.61v-.29c0-.53-.09-1-.28-1.42-.19-.42-.47-.75-.85-1-.38-.25-.86-.37-1.45-.37-.5,0-.93.11-1.29.33s-.65.53-.88.92c-.22.4-.39.86-.5,1.39-.11.53-.17,1.11-.17,1.75v.53c0,.57.08,1.1.24,1.58.16.48.4.9.7,1.25.3.35.67.62,1.11.82.44.19.93.29,1.48.29.69,0,1.33-.13,1.92-.4.59-.27,1.11-.67,1.54-1.22l1.85,2c-.3.43-.71.84-1.22,1.24-.51.4-1.13.72-1.85.97-.72.25-1.54.38-2.47.38Z"/>
    </g>
    <g class="st9">
      <path class="st12" d="M132.33,46.04v2.69h-8.31v-2.69h8.31ZM126.08,42.52h3.8v13.49c0,.41.05.73.17.95.11.22.27.37.49.46.22.08.5.12.83.12.24,0,.45-.01.64-.03.19-.02.35-.05.48-.07v2.79c-.31.11-.66.19-1.04.25-.38.06-.8.09-1.25.09-.83,0-1.56-.14-2.18-.42-.62-.28-1.1-.72-1.43-1.34-.33-.61-.5-1.42-.5-2.43v-13.87Z"/>
    </g>
    <g class="st9">
      <path class="st12" d="M142.71,51.62l.03,2.15h-2.12c-.5,0-.94.06-1.3.17s-.67.27-.91.48c-.24.21-.41.45-.52.72-.11.27-.17.57-.17.9s.08.62.22.88c.15.26.36.46.65.61.28.14.61.22.99.22.57,0,1.07-.11,1.49-.34.42-.23.75-.51.98-.84.23-.33.35-.65.36-.95l1,1.61c-.14.36-.33.73-.57,1.12-.24.39-.55.75-.92,1.09-.37.34-.81.62-1.33.83-.52.22-1.13.32-1.85.32-.91,0-1.72-.18-2.46-.55-.73-.37-1.31-.87-1.74-1.52-.43-.65-.64-1.38-.64-2.21,0-.75.14-1.41.42-1.99s.7-1.07,1.25-1.47c.55-.4,1.24-.7,2.06-.91.83-.21,1.78-.31,2.87-.31h2.2ZM142.21,57.09v-6.35c0-.46-.08-.85-.22-1.18-.15-.33-.38-.59-.69-.77-.31-.18-.71-.28-1.21-.28-.42,0-.79.07-1.09.22-.31.15-.54.35-.71.62-.17.27-.25.58-.25.94h-3.8c0-.61.14-1.18.42-1.73s.69-1.03,1.23-1.44c.54-.42,1.17-.75,1.92-.98.74-.24,1.58-.36,2.5-.36,1.11,0,2.09.18,2.95.55.86.37,1.54.92,2.04,1.66.5.74.75,1.66.75,2.77v6.1c0,.78.05,1.42.14,1.92.1.5.24.93.42,1.3v.22h-3.84c-.18-.39-.32-.87-.42-1.46-.09-.58-.14-1.17-.14-1.76Z"/>
    </g>
    <g class="st9">
      <path class="st12" d="M148.73,42.33c0-.55.19-1.01.58-1.37s.91-.54,1.56-.54,1.16.18,1.55.54c.39.36.59.82.59,1.37s-.2,1.01-.59,1.37c-.39.36-.91.54-1.55.54s-1.17-.18-1.56-.54-.58-.82-.58-1.37ZM152.77,46.04v14.26h-3.81v-14.26h3.81Z"/>
    </g>
    <g class="st9">
      <path class="st12" d="M159.67,40.06v20.25h-3.81v-20.25h3.81Z"/>
    </g>
    <g class="st9">
      <path class="st12" d="M169.19,60.57c-1.11,0-2.1-.18-2.98-.53-.88-.36-1.62-.85-2.23-1.48-.61-.63-1.08-1.37-1.4-2.21-.33-.84-.49-1.73-.49-2.68v-.53c0-1.08.15-2.07.46-2.97s.75-1.67,1.33-2.33c.58-.66,1.28-1.17,2.1-1.52.83-.36,1.76-.53,2.8-.53s1.91.17,2.69.5c.78.33,1.44.81,1.97,1.42.53.62.93,1.35,1.21,2.21.27.86.41,1.81.41,2.85v1.58h-11.34v-2.53h7.61v-.29c0-.53-.09-1-.28-1.42-.19-.42-.47-.75-.85-1-.38-.25-.86-.37-1.45-.37-.5,0-.93.11-1.29.33s-.65.53-.88.92c-.22.4-.39.86-.5,1.39-.11.53-.17,1.11-.17,1.75v.53c0,.57.08,1.1.24,1.58.16.48.4.9.7,1.25.3.35.67.62,1.11.82.44.19.93.29,1.48.29.69,0,1.33-.13,1.92-.4.59-.27,1.11-.67,1.54-1.22l1.85,2c-.3.43-.71.84-1.22,1.24-.51.4-1.13.72-1.85.97-.72.25-1.54.38-2.46.38Z"/>
    </g>
    <g class="st9">
      <path class="st12" d="M176.64,53.35v-.28c0-1.09.12-2.08.37-2.97.25-.89.61-1.66,1.08-2.3.47-.64,1.06-1.14,1.75-1.49.69-.35,1.49-.53,2.37-.53.83,0,1.57.18,2.2.53.63.35,1.16.85,1.61,1.5.44.65.8,1.41,1.07,2.28.27.87.47,1.83.59,2.87v.61c-.12.99-.32,1.92-.59,2.77s-.63,1.6-1.07,2.23c-.44.64-.98,1.13-1.62,1.48s-1.37.53-2.21.53c-.89,0-1.68-.18-2.37-.54-.69-.36-1.27-.87-1.74-1.52-.47-.65-.83-1.42-1.07-2.29s-.37-1.84-.37-2.87ZM180.44,53.07v.28c0,.59.05,1.14.14,1.65.09.51.25.96.46,1.35.21.39.5.69.84.91.35.21.77.32,1.27.32.65,0,1.19-.15,1.61-.44.42-.29.74-.7.97-1.22.22-.52.35-1.12.39-1.79v-1.73c-.03-.55-.1-1.05-.23-1.5-.13-.44-.31-.82-.55-1.14-.24-.32-.54-.56-.9-.74-.36-.18-.78-.26-1.26-.26s-.91.11-1.27.34c-.35.22-.64.53-.85.92-.22.39-.37.84-.47,1.37-.1.52-.15,1.09-.15,1.69ZM185.66,57.2v-17.14h3.82v20.25h-3.44l-.38-3.11Z"/>
    </g>
    <g class="st9">
      <path class="st12" d="M203.34,41.11v19.19h-3.96v-19.19h3.96ZM205.28,60.31h-4.18l.03-3.08h4.15c1.04,0,1.91-.24,2.62-.71.71-.47,1.25-1.16,1.62-2.06.36-.91.55-2,.55-3.28v-.94c0-.98-.1-1.85-.31-2.6-.21-.75-.51-1.38-.92-1.88-.4-.51-.9-.89-1.49-1.15-.59-.26-1.27-.39-2.03-.39h-4.3v-3.1h4.3c1.28,0,2.46.22,3.53.65,1.07.44,1.99,1.06,2.78,1.87.78.81,1.39,1.77,1.81,2.89.43,1.12.64,2.37.64,3.74v.91c0,1.36-.21,2.61-.64,3.73-.43,1.12-1.03,2.09-1.81,2.89-.78.8-1.71,1.42-2.78,1.86-1.08.43-2.26.65-3.57.65Z"/>
    </g>
    <g class="st9">
      <path class="st12" d="M223.09,60.57c-1.11,0-2.1-.18-2.98-.53-.88-.36-1.62-.85-2.23-1.48-.61-.63-1.08-1.37-1.4-2.21-.33-.84-.49-1.73-.49-2.68v-.53c0-1.08.15-2.07.46-2.97s.75-1.67,1.33-2.33c.58-.66,1.28-1.17,2.1-1.52.83-.36,1.76-.53,2.79-.53s1.91.17,2.69.5c.78.33,1.44.81,1.97,1.42.53.62.93,1.35,1.21,2.21.27.86.41,1.81.41,2.85v1.58h-11.34v-2.53h7.61v-.29c0-.53-.09-1-.28-1.42-.19-.42-.47-.75-.85-1-.38-.25-.86-.37-1.45-.37-.5,0-.93.11-1.29.33s-.65.53-.88.92c-.22.4-.39.86-.5,1.39-.11.53-.17,1.11-.17,1.75v.53c0,.57.08,1.1.24,1.58.16.48.4.9.7,1.25.3.35.67.62,1.11.82.44.19.93.29,1.48.29.69,0,1.33-.13,1.92-.4.59-.27,1.11-.67,1.54-1.22l1.85,2c-.3.43-.71.84-1.22,1.24-.51.4-1.13.72-1.85.97-.72.25-1.54.38-2.47.38Z"/>
    </g>
    <g class="st9">
      <path class="st12" d="M238.69,56.37c0-.27-.08-.52-.24-.74s-.45-.42-.88-.61c-.43-.19-1.04-.36-1.84-.52-.72-.16-1.39-.36-2.01-.6-.62-.24-1.16-.53-1.61-.88-.45-.34-.81-.75-1.06-1.22-.25-.47-.38-1.01-.38-1.62s.13-1.16.39-1.69c.26-.53.63-1,1.12-1.4.49-.41,1.08-.73,1.79-.96.71-.23,1.5-.35,2.39-.35,1.24,0,2.3.2,3.2.59.89.4,1.58.94,2.06,1.63.48.69.72,1.47.72,2.35h-3.8c0-.37-.08-.7-.23-1-.15-.29-.39-.53-.71-.7-.32-.17-.74-.26-1.25-.26-.42,0-.79.07-1.09.22-.31.15-.54.34-.71.58-.16.24-.24.51-.24.8,0,.22.05.42.14.59.09.17.24.33.46.47s.49.27.82.39c.34.12.76.23,1.26.32,1.03.21,1.95.49,2.76.82.81.34,1.45.79,1.92,1.37.47.58.71,1.33.71,2.26,0,.63-.14,1.21-.42,1.74s-.69.99-1.21,1.38c-.53.39-1.16.69-1.89.91-.73.22-1.56.32-2.47.32-1.33,0-2.45-.24-3.37-.71-.92-.47-1.61-1.08-2.08-1.81-.47-.73-.71-1.49-.71-2.26h3.6c.02.52.15.94.4,1.25.25.32.57.54.96.69s.82.21,1.27.21c.49,0,.9-.07,1.23-.2.32-.14.57-.32.74-.55.17-.23.26-.5.26-.81Z"/>
    </g>
    <g class="st9">
      <path class="st12" d="M244.57,42.33c0-.55.19-1.01.58-1.37s.91-.54,1.56-.54,1.16.18,1.55.54c.39.36.59.82.59,1.37s-.2,1.01-.59,1.37c-.39.36-.91.54-1.55.54s-1.17-.18-1.56-.54-.58-.82-.58-1.37ZM248.61,46.04v14.26h-3.81v-14.26h3.81Z"/>
    </g>
    <g class="st9">
      <path class="st12" d="M250.99,53.35v-.28c0-1.09.13-2.08.4-2.97.27-.89.65-1.66,1.15-2.3.5-.64,1.1-1.14,1.81-1.49.71-.35,1.52-.53,2.41-.53.95,0,1.75.18,2.39.53.64.35,1.17.85,1.58,1.5.41.65.74,1.41.97,2.28.23.87.42,1.83.55,2.87v.61c-.13.99-.33,1.92-.59,2.77s-.61,1.6-1.04,2.23c-.43.64-.96,1.13-1.6,1.48-.64.35-1.4.53-2.27.53s-1.67-.18-2.38-.54c-.71-.36-1.31-.87-1.81-1.52s-.89-1.42-1.15-2.29c-.27-.88-.4-1.84-.4-2.87ZM260.59,46.04h3.44v13.79c0,1.3-.29,2.41-.86,3.32-.58.91-1.38,1.6-2.41,2.07-1.03.47-2.22.71-3.59.71-.6,0-1.23-.08-1.89-.24-.66-.16-1.3-.4-1.9-.74-.6-.33-1.11-.76-1.51-1.27l1.67-2.24c.44.51.95.91,1.53,1.19.58.29,1.22.43,1.92.43s1.27-.13,1.74-.38c.47-.25.84-.62,1.09-1.09.25-.48.38-1.06.38-1.73v-10.52l.37-3.3ZM254.79,53.07v.28c0,.59.06,1.14.17,1.65s.29.96.53,1.35c.24.39.54.69.91.91.36.21.8.32,1.3.32.69,0,1.26-.15,1.7-.44.44-.29.77-.7.99-1.22.22-.52.35-1.12.38-1.79v-1.73c-.02-.55-.09-1.05-.22-1.5-.13-.44-.32-.82-.55-1.14s-.54-.56-.92-.74-.83-.26-1.34-.26-.93.11-1.3.34c-.37.22-.67.53-.91.92-.24.39-.42.84-.55,1.37-.12.52-.18,1.09-.18,1.69Z"/>
      <path class="st12" d="M270.7,49.09v11.22h-3.8v-14.26h3.56l.24,3.05ZM270.15,52.68h-1.03c0-1.05.14-2.01.41-2.85.27-.85.66-1.57,1.15-2.18.49-.6,1.08-1.06,1.76-1.38.68-.32,1.44-.48,2.29-.48.67,0,1.28.1,1.83.29.55.19,1.03.5,1.43.92.4.42.71.98.92,1.67.21.69.32,1.54.32,2.54v9.1h-3.82v-9.11c0-.63-.09-1.12-.26-1.48s-.43-.6-.77-.75c-.34-.15-.75-.22-1.25-.22s-.95.1-1.33.3c-.37.2-.68.48-.92.84-.24.36-.42.77-.55,1.25s-.18.98-.18,1.53Z"/>
    </g>
  </g>
</svg>