<?xml version="1.0" encoding="UTF-8"?>
<svg id="Layer_2" data-name="Layer 2" xmlns="http://www.w3.org/2000/svg" viewBox="0 0 161.18 111.95">
  <defs>
    <style>
      .cls-1 {
        fill: #1e7d69;
      }

      .cls-2 {
        fill: #57241d;
      }

      .cls-3 {
        fill: #8c403c;
      }

      .cls-4 {
        fill: #da7031;
      }

      .cls-5 {
        fill: #fff;
      }

      .cls-6 {
        fill: #23624b;
      }

      .cls-7 {
        fill: #fdd77e;
      }

      .cls-8 {
        fill: #268974;
      }

      .cls-9 {
        fill: #f28b34;
      }
    </style>
  </defs>
  <g id="Text">
    <g>
      <g>
        <path class="cls-6" d="M20.63,80.19c-.07-.07-.15-.1-.24-.11,0-.03.02-.06.02-.09.02-.09.05-.21.02-.31.09-.02.18-.09.22-.17.1-.2-.05-.38-.24-.44.01-.02.02-.03.02-.06.02-.08,0-.18-.04-.26.23-.15.27-.57.14-.78,0,0,0,0,0,0,.08-.12.03-.31-.04-.42-.03-.05-.07-.09-.11-.13-.03-.08-.09-.11-.16-.11.04-.05.05-.13.03-.21-.04-.2-.22-.26-.39-.26,0-.07-.01-.13-.04-.17.11-.05.19-.14.16-.28-.03-.17-.16-.22-.29-.2.09-.09.16-.21.17-.33.01-.15-.09-.2-.21-.18.1-.1.14-.23.05-.37-.06-.09-.15-.13-.24-.14,0-.03,0-.05-.02-.08-.03-.09-.08-.17-.17-.21-.01,0-.02,0-.03,0-.03-.06-.09-.11-.2-.13-.16-.03-.23.11-.25.28-.03,0-.05,0-.08,0-.05-.1-.12-.17-.23-.13-.05.02-.09.05-.11.08-.11.03-.24.13-.34.24-.21-.06-.36.08-.41.27-.12-.06-.27-.05-.39.06-.03.03-.07.11-.1.2-.02,0-.03-.02-.05-.02-.26-.05-.41.18-.44.41-.1,0-.21.07-.28.18-.07-.05-.17-.06-.29,0-.1.04-.19.15-.23.26-.19-.03-.45.09-.53.31-.06-.02-.14,0-.22.08-.03.03-.06.06-.08.1-.02,0-.03,0-.05,0-.1,0-.21.07-.28.17-.05-.04-.11-.05-.17-.03-.08.02-.14.07-.18.12-.04-.02-.08-.02-.15,0-.12.03-.17.1-.19.18-.11-.06-.24-.08-.37-.02-.3.15-.11.33.1.44-.02.03-.03.06-.02.09-.1.05-.13.19-.06.28-.02.16.04.26.15.31-.09.1-.09.27.02.38-.06.08-.07.19,0,.25-.09.1-.09.28.03.39v.04c-.18.12-.2.39-.05.53-.1.11-.13.29-.02.39,0,.04,0,.07.01.11-.12.1-.2.32-.06.43-.01.04-.02.09-.02.14-.03,0-.07,0-.07.04-.02.09-.07.35.04.42.01.04.03.09.07.12-.13.1-.19.34-.03.45-.04.04-.06.11-.04.16,0,.02.01.03.02.04,0,.03.01.06.03.08-.06.09-.09.22-.04.31-.13.07-.18.26-.1.39-.11.11-.19.29-.12.44-.04.12-.06.27-.05.37,0,.03.01.05.04.06-.06.08-.1.17-.13.28,0,.03,0,.07.04.07.07.01.14,0,.2-.02.05.14.16.25.28.33.09.06.21.09.31.05.11-.04.17-.15.2-.26.16.08.35.15.53.13.06,0,.11-.03.15-.06.03,0,.05.02.08.02.2.04.35-.04.43-.18,0,0,.01,0,.02,0,.06.13.21.22.37.22.28-.01.32-.3.35-.53.03-.02.05-.04.07-.06.14.07.3.08.44.03.12-.05.15-.13.14-.23.21.12.57.05.61-.18.01,0,.03.01.04.02.03.02.07.03.1.05,0,0,.02,0,.03,0,.13.16.34.23.49.04.04-.05.07-.1.09-.16.16-.02.19-.24.19-.41.06.09.17.13.3.06.14-.07.2-.21.18-.35.1.08.25.09.37.03.15-.07.21-.19.18-.32.05.05.11.08.19.07.1-.01.16-.11.19-.2.04-.11.04-.23,0-.33.08-.07.13-.18.15-.28,0-.06,0-.12,0-.18.09-.04.15-.12.15-.26,0-.05-.02-.12-.04-.17.02-.01.04-.03.06-.05.11-.11.1-.28.04-.4.38.11.74-.38.42-.69Z"/>
        <path class="cls-1" d="M19.2,74.95c.02-.06,0-.14-.06-.21-.07-.07-.17-.1-.27-.08-.01-.02-.03-.04-.04-.06.09-.04.17-.1.19-.19.04-.18-.17-.18-.34-.16.08-.04.16-.1.22-.17,0,0,0-.02,0-.03-.14-.15-.36-.15-.56-.11.09-.07.13-.17,0-.28-.12-.12-.29-.16-.46-.15,0,0,0-.01-.01-.02-.06-.08-.18-.17-.29-.21,0-.11-.06-.25-.13-.34-.08-.1-.2-.2-.33-.22-.06,0-.12,0-.17.04-.02-.06-.05-.11-.08-.15-.07-.09-.18-.17-.3-.18-.04,0-.08,0-.11.01-.02-.07-.05-.14-.1-.19-.07-.09-.17-.18-.29-.2-.1-.01-.18.05-.23.13-.06-.25-.26-.41-.54-.35-.09.02-.24.09-.3.18-.11-.27-.34-.51-.65-.47-.15.02-.33.12-.4.24-.03,0-.07,0-.1.02-.04-.08-.13-.08-.21-.03-.3-.11-.61-.1-.6.26-.17-.22-.41-.45-.7-.29-.1.06-.2.17-.23.28-.12-.12-.29-.17-.47-.14-.19.03-.3.16-.3.32-.13-.13-.33-.15-.51-.04-.18.11-.25.28-.21.45-.25-.13-.63.18-.63.45-.11-.05-.26-.05-.35,0-.27.12-.32.4-.29.66-.15-.17-.36-.15-.5.04-.08.1-.12.23-.12.36-.19-.13-.45-.13-.63.07-.14.15-.12.38-.09.57.01.08.04.15.07.23,0,.01,0,.02,0,.04,0,0,0,0,0,0-.11.01-.19.06-.24.2-.05.17.06.36.21.48-.12,0-.23.04-.31.15-.01.02-.03.05-.03.07-.04.02-.09.05-.12.09-.09.1-.1.21-.05.3-.07,0-.14.04-.17.14-.05.16.07.27.2.31-.1.04-.16.14-.16.26,0,.06.02.1.05.13-.04.04-.06.08-.08.14,0,.02-.01.04-.02.06-.29.1-.54.61-.28.82,0,0,.01.01.02.02-.05.07-.09.15-.12.22-.02.05-.03.09-.03.14-.28.06-.34.4-.26.67.04.12.1.25.2.35-.09.2-.01.52.09.67,0,0,0,.01.01.02-.07.09-.12.22-.14.32-.04.15.03.32.09.46.03.06.07.14.12.2-.02.03-.04.05-.05.08-.09.18-.04.39.05.55.03.05.07.1.12.14-.01.02-.02.04-.02.07-.03.18.14.4.32.48,0,.1.01.21.03.3.03.15.16.28.31.34,0,0,0,.02,0,.02-.07.18-.06.32.06.48.05.06.17.16.29.23.01.25.3.41.55.37.05.05.11.09.2.11.1.03.24.02.31-.05.03.08.1.14.2.16.11.02.19-.02.23-.1.07.1.23.13.36.11.05,0,.11-.02.16-.05.08.14.28.22.44.24.13.01.29,0,.38-.11.05-.06.06-.12.06-.19.08.06.19.09.31.08,0,0,.02,0,.02,0,0,.14.1.26.28.3.1.02.22,0,.3-.06.02-.02.03-.03.05-.05.06.07.17.11.29.11.07,0,.15-.03.2-.07.04.12.17.2.34.2.23,0,.41-.15.46-.36.07.07.21.07.33.02.07-.03.12-.06.17-.11.02,0,.03-.01.05-.02.07-.04.13-.1.17-.18.13-.04.25-.15.28-.27.02-.09-.03-.14-.11-.17.05-.05.09-.13.11-.19.04-.12.06-.28,0-.38.1-.05.18-.2.21-.32.05-.18.03-.4-.09-.52.06,0,.11-.02.16-.07.1-.1.1-.28.09-.41,0-.07-.04-.23-.1-.34.31-.1.3-.7.05-.87.12-.05.18-.18.18-.34,0-.03,0-.07,0-.1.02,0,.05-.02.07-.04.15-.13.19-.35.19-.55.1.13.28.01.38-.1.15-.19.17-.45.04-.64.35.03.43-.39.3-.67.32.13.48-.33.32-.58.42.06.68-.43.6-.8,0,0,0,0,0,0,.37.21.72-.05.83-.4.07-.08.1-.2.06-.33,0,0,0,0,0,0,.28.13.62.03.86-.14.15-.11.25-.28.19-.41.04,0,.08-.03.12-.07,0,0,.02-.02.02-.03.14.02.29-.11.3-.22.11-.01.16-.23.08-.31Z"/>
        <path class="cls-8" d="M19.2,74.95c.02-.06,0-.14-.06-.21-.07-.07-.17-.1-.27-.08-.01-.02-.03-.04-.04-.06.09-.04.17-.1.19-.19.04-.18-.17-.18-.34-.16.08-.04.16-.1.22-.17,0,0,0-.02,0-.03-.14-.15-.36-.15-.56-.11.09-.07.13-.17,0-.28-.12-.12-.29-.16-.46-.15,0,0,0-.01-.01-.02-.06-.08-.18-.17-.29-.21,0-.11-.06-.25-.13-.34-.08-.1-.2-.2-.33-.22-.06,0-.12,0-.17.04-.02-.06-.05-.11-.08-.15-.07-.09-.18-.17-.3-.18-.04,0-.08,0-.11.01-.02-.07-.05-.14-.1-.19-.07-.09-.17-.18-.29-.2-.1-.01-.18.05-.23.13-.06-.25-.26-.41-.54-.35-.09.02-.24.09-.3.18-.11-.27-.34-.51-.65-.47-.15.02-.33.12-.4.24-.03,0-.07,0-.1.02-.04-.08-.13-.08-.21-.03-.3-.11-.61-.1-.6.26-.17-.22-.41-.45-.7-.29-.1.06-.2.17-.23.28-.12-.12-.29-.17-.47-.14-.19.03-.3.16-.3.32-.13-.13-.33-.15-.51-.04-.18.11-.25.28-.21.45-.25-.13-.63.18-.63.45-.11-.05-.26-.05-.35,0-.27.12-.32.4-.29.66-.15-.17-.36-.15-.5.04-.08.1-.12.23-.12.36-.19-.13-.45-.13-.63.07-.14.15-.12.38-.09.57.01.08.04.15.07.23,0,.01,0,.02,0,.04,0,0,0,0,0,0-.11.01-.19.06-.24.2-.05.17.06.36.21.48-.12,0-.23.04-.31.15,0,0,0,0,0,.01.02.01.04.02.05.04.09.05.23.09.32.03.03-.02.05-.05.06-.08.04.06.1.11.19.12.21.03.29-.17.29-.35.1.16.29.17.46.08.01,0,.02-.01.03-.02.13.11.31.16.47.05.12-.07.16-.23.17-.36.02,0,.04,0,.06,0,.15-.03.31-.1.4-.22,0,0,0,0,0,0,.04.02.08.04.13.04.12.01.21-.05.27-.14.03-.05.06-.12.07-.19.17-.06.33-.2.43-.36.11.23.32.43.58.29.11-.06.17-.19.19-.33.17-.08.31-.22.38-.39.16.16.37.29.53.11.02-.02.03-.03.04-.06.03,0,.06,0,.08,0,.04,0,.09,0,.13-.02,0,.19.03.37.19.42.16.05.28-.11.34-.23,0-.02.02-.04.02-.06.08,0,.16-.04.23-.09.07.19.22.32.46.25.07-.02.14-.08.18-.16.22.16.55.22.79.15,0,.14.04.26.2.24.12-.02.18-.17.21-.27,0,0,0-.02,0-.03.11.08.27.11.4.06.04.06.09.11.15.15.08.05.16.04.23,0,.08.06.18.1.27.13.05.01.11.02.16.01-.05.21-.02.43.25.44.18,0,.32-.11.41-.26.04,0,.09-.01.13-.03,0,.04.02.08.03.11.03.1.13.2.24.15.11-.05.15-.17.18-.28.06.09.14.15.26.18.22.06.39-.08.49-.26.02.16.15.24.31.26,0-.01-.01-.02-.02-.03Z"/>
      </g>
      <g>
        <path class="cls-6" d="M13.9,86.86c-.07-.06-.15-.1-.24-.11,0-.03.01-.06.02-.09.02-.09.05-.21.02-.31.09-.02.18-.09.22-.17.1-.2-.05-.38-.24-.44.01-.02.02-.03.02-.06.02-.08,0-.18-.04-.26.23-.15.27-.56.14-.77,0,0,0,0,0,0,.08-.12.03-.31-.04-.42-.03-.05-.07-.09-.11-.13-.03-.08-.09-.11-.16-.11.04-.05.05-.12.03-.21-.04-.19-.22-.26-.39-.26,0-.07-.01-.13-.04-.16.11-.05.18-.14.16-.28-.02-.17-.16-.22-.29-.2.09-.09.16-.21.17-.33.01-.15-.09-.2-.21-.18.1-.1.13-.23.05-.37-.06-.09-.15-.13-.24-.14,0-.03,0-.05-.02-.08-.03-.09-.08-.17-.17-.21-.01,0-.02,0-.03,0-.03-.06-.09-.11-.2-.13-.16-.03-.23.11-.25.28-.03,0-.05,0-.08,0-.05-.1-.12-.17-.23-.13-.05.02-.09.05-.11.08-.11.03-.24.13-.34.24-.21-.06-.36.08-.41.27-.12-.06-.27-.05-.39.06-.03.03-.07.11-.09.2-.02,0-.03-.01-.05-.02-.26-.05-.41.18-.44.41-.1,0-.21.06-.27.18-.07-.05-.17-.06-.29,0-.1.04-.19.15-.23.26-.19-.03-.45.09-.53.3-.06-.02-.14,0-.22.08-.03.03-.06.06-.08.1-.02,0-.03,0-.05,0-.1,0-.21.07-.28.17-.05-.04-.11-.05-.17-.03-.08.02-.14.07-.18.12-.04-.02-.08-.02-.15,0-.12.03-.17.1-.19.18-.1-.06-.24-.08-.37-.02-.3.15-.11.33.1.44-.02.03-.03.06-.02.09-.1.05-.13.19-.06.28-.02.16.04.25.15.31-.09.1-.09.27.02.37-.06.08-.07.19,0,.25-.09.1-.09.28.03.39v.04c-.18.12-.2.39-.05.53-.1.1-.13.29-.02.39,0,.04,0,.07.01.11-.12.1-.2.32-.06.43-.01.04-.02.09-.02.14-.03,0-.07,0-.07.04-.02.09-.07.35.04.42,0,.04.03.09.07.12-.13.1-.19.33-.03.45-.04.04-.05.1-.04.16,0,.02.01.03.02.04,0,.03.01.06.03.08-.06.09-.09.22-.04.31-.13.07-.18.26-.1.39-.11.11-.19.29-.12.43-.04.12-.06.27-.05.36,0,.03.02.05.04.06-.06.08-.1.17-.13.28,0,.03,0,.07.04.07.07.01.14,0,.2-.02.05.13.16.25.28.33.09.06.21.09.31.05.11-.04.17-.15.2-.26.16.08.34.15.53.13.06,0,.11-.03.15-.06.02,0,.05.02.07.02.2.04.35-.04.43-.18,0,0,.01,0,.02,0,.06.13.2.22.36.21.28-.01.32-.3.34-.53.03-.02.05-.04.07-.06.13.07.3.08.44.03.12-.05.15-.13.14-.23.21.12.57.05.61-.18.01,0,.03.01.04.02.03.02.07.03.1.05,0,0,.02,0,.03,0,.13.16.34.23.49.04.04-.05.07-.1.09-.16.16-.02.19-.24.19-.41.06.09.17.13.3.06.14-.07.2-.21.18-.35.1.08.25.09.37.03.15-.07.21-.19.18-.32.05.05.11.07.19.07.1-.01.16-.11.19-.2.04-.11.04-.23,0-.33.08-.07.13-.18.15-.28,0-.06,0-.12,0-.18.09-.04.16-.12.15-.26,0-.05-.02-.11-.04-.17.02-.01.04-.03.06-.05.11-.11.1-.28.04-.4.38.11.74-.38.42-.69Z"/>
        <path class="cls-1" d="M12.48,81.65c.02-.06,0-.14-.06-.21-.07-.07-.17-.1-.27-.08,0-.02-.02-.04-.04-.06.09-.04.17-.1.19-.19.04-.18-.18-.18-.34-.16.08-.04.16-.1.22-.17,0,0,0-.02,0-.03-.14-.15-.36-.15-.56-.11.09-.07.12-.17,0-.28-.12-.11-.29-.16-.45-.14,0,0,0-.01-.01-.02-.06-.08-.18-.17-.29-.21,0-.11-.06-.24-.13-.34-.08-.1-.2-.2-.33-.21-.06,0-.12,0-.17.04-.02-.06-.05-.11-.08-.15-.07-.09-.18-.17-.3-.18-.04,0-.08,0-.11.01-.02-.07-.05-.14-.1-.19-.07-.09-.17-.18-.29-.2-.1-.01-.18.05-.22.13-.06-.25-.26-.41-.54-.35-.09.02-.24.09-.3.18-.11-.27-.34-.51-.65-.46-.15.02-.33.12-.4.24-.03,0-.07,0-.1.02-.04-.08-.13-.08-.21-.03-.3-.11-.61-.1-.6.26-.17-.22-.41-.45-.7-.28-.1.06-.2.17-.23.28-.12-.12-.29-.17-.47-.14-.19.03-.3.16-.3.32-.13-.13-.33-.15-.51-.04-.18.11-.24.28-.21.45-.24-.13-.62.18-.63.45-.11-.05-.26-.05-.35,0-.27.11-.32.4-.29.66-.15-.17-.35-.15-.5.04-.08.1-.12.23-.12.36-.19-.13-.45-.13-.62.07-.14.15-.12.38-.09.56.01.08.03.15.07.23,0,.01,0,.02,0,.04,0,0,0,0,0,0-.1.01-.19.06-.24.2-.05.17.06.36.21.47-.12,0-.23.04-.31.15-.01.02-.03.04-.03.07-.04.02-.08.05-.12.09-.09.1-.1.21-.05.29-.07,0-.14.04-.17.14-.05.16.07.26.2.31-.1.04-.16.14-.16.25,0,.06.02.1.05.13-.04.04-.06.08-.08.14,0,.02-.01.04-.02.06-.29.1-.54.61-.28.82,0,0,.01.01.02.02-.05.07-.09.15-.12.22-.02.05-.03.09-.03.14-.28.06-.34.4-.26.67.04.12.1.25.2.35-.09.2-.01.52.09.66,0,0,0,.01.01.02-.07.09-.12.22-.14.31-.04.15.03.32.09.45.03.06.07.14.12.2-.02.03-.04.05-.05.08-.09.18-.04.39.05.55.03.05.07.1.12.14-.01.02-.02.04-.02.07-.03.18.14.39.32.48,0,.1.01.21.03.3.03.15.16.28.31.34,0,0,0,.01,0,.02-.07.18-.06.32.06.48.05.06.17.16.29.23.01.25.3.41.55.37.04.05.11.09.2.11.1.03.24.02.31-.04.03.08.1.14.2.16.11.02.19-.02.23-.1.07.1.23.12.36.11.05,0,.11-.02.16-.05.08.14.28.22.44.24.13.02.29,0,.38-.11.05-.06.06-.12.06-.19.08.06.19.09.31.08,0,0,.02,0,.02,0,0,.14.1.26.28.3.1.02.22,0,.3-.06.02-.02.03-.03.05-.05.06.07.17.11.29.11.07,0,.14-.03.2-.07.04.12.17.2.34.2.23,0,.41-.15.46-.36.07.07.21.07.32.02.07-.03.12-.06.17-.11.02,0,.03-.01.05-.02.07-.04.13-.1.17-.18.13-.04.25-.15.28-.27.02-.09-.03-.14-.11-.17.05-.05.09-.13.11-.19.04-.12.06-.27,0-.38.1-.05.18-.19.21-.32.05-.18.03-.39-.09-.52.06,0,.11-.02.16-.07.1-.1.1-.28.09-.41,0-.07-.04-.23-.1-.34.31-.1.3-.69.05-.87.12-.05.18-.18.18-.34,0-.03,0-.07,0-.1.02,0,.05-.02.07-.04.15-.13.19-.35.19-.55.1.13.28.01.38-.1.15-.19.17-.44.04-.64.35.03.43-.39.3-.66.32.12.48-.32.32-.58.42.06.68-.42.6-.8,0,0,0,0,0,0,.37.21.72-.05.83-.4.07-.08.1-.2.06-.33,0,0,0,0,0,0,.28.13.62.03.85-.14.15-.11.25-.27.18-.41.04,0,.08-.03.12-.07,0,0,.02-.02.02-.03.14.02.28-.11.3-.22.11,0,.16-.23.08-.31Z"/>
        <path class="cls-8" d="M12.48,81.65c.02-.06,0-.14-.06-.21-.07-.07-.17-.1-.27-.08,0-.02-.02-.04-.04-.06.09-.04.17-.1.19-.19.04-.18-.18-.18-.34-.16.08-.04.16-.1.22-.17,0,0,0-.02,0-.03-.14-.15-.36-.15-.56-.11.09-.07.12-.17,0-.28-.12-.11-.29-.16-.45-.14,0,0,0-.01-.01-.02-.06-.08-.18-.17-.29-.21,0-.11-.06-.24-.13-.34-.08-.1-.2-.2-.33-.21-.06,0-.12,0-.17.04-.02-.06-.05-.11-.08-.15-.07-.09-.18-.17-.3-.18-.04,0-.08,0-.11.01-.02-.07-.05-.14-.1-.19-.07-.09-.17-.18-.29-.2-.1-.01-.18.05-.22.13-.06-.25-.26-.41-.54-.35-.09.02-.24.09-.3.18-.11-.27-.34-.51-.65-.46-.15.02-.33.12-.4.24-.03,0-.07,0-.1.02-.04-.08-.13-.08-.21-.03-.3-.11-.61-.1-.6.26-.17-.22-.41-.45-.7-.28-.1.06-.2.17-.23.28-.12-.12-.29-.17-.47-.14-.19.03-.3.16-.3.32-.13-.13-.33-.15-.51-.04-.18.11-.24.28-.21.45-.24-.13-.62.18-.63.45-.11-.05-.26-.05-.35,0-.27.11-.32.4-.29.66-.15-.17-.35-.15-.5.04-.08.1-.12.23-.12.36-.19-.13-.45-.13-.62.07-.14.15-.12.38-.09.56.01.08.03.15.07.23,0,.01,0,.02,0,.04,0,0,0,0,0,0-.1.01-.19.06-.24.2-.05.17.06.36.21.47-.12,0-.23.04-.31.15,0,0,0,0,0,.01.02.01.04.03.05.04.09.05.22.09.32.03.03-.02.05-.05.06-.08.04.06.1.11.19.12.21.03.29-.17.29-.34.1.16.29.17.46.08.01,0,.02-.01.03-.02.13.11.31.15.47.05.12-.07.16-.23.17-.36.02,0,.04,0,.06,0,.15-.03.31-.1.4-.22,0,0,0,0,0,0,.04.02.08.04.13.04.11.01.21-.05.27-.14.04-.05.06-.12.07-.19.17-.06.33-.2.43-.36.11.23.32.43.58.29.11-.06.17-.19.19-.33.17-.08.31-.22.38-.39.16.16.37.29.53.11.01-.02.03-.03.04-.06.03,0,.06,0,.08,0,.04,0,.08,0,.13-.02,0,.19.03.37.19.42.16.05.28-.11.34-.23,0-.02.01-.04.02-.06.08,0,.16-.04.23-.09.07.19.22.32.46.25.07-.02.14-.08.18-.16.22.16.55.22.79.15,0,.14.04.26.2.24.12-.02.18-.17.21-.27,0,0,0-.02,0-.03.11.08.27.11.39.06.04.06.09.11.15.15.08.05.16.04.23,0,.08.06.18.1.27.13.05.01.11.02.16.01-.05.21-.02.43.25.44.18,0,.32-.11.41-.26.04,0,.09-.01.13-.03,0,.04.02.08.03.11.03.1.13.2.24.15.1-.05.15-.17.17-.28.06.09.14.15.26.18.22.06.39-.08.49-.26.02.16.15.24.31.26,0-.01-.01-.02-.02-.03Z"/>
      </g>
      <g>
        <path class="cls-6" d="M26.31,85.41c-.06-.05-.13-.08-.2-.09,0-.02.01-.05.02-.08.02-.08.04-.17.02-.25.07-.02.15-.07.18-.14.08-.16-.04-.31-.2-.36,0-.01.02-.03.02-.05.02-.07,0-.15-.03-.22.19-.12.22-.46.11-.64,0,0,0,0,0,0,.06-.1.02-.25-.03-.35-.02-.04-.05-.08-.09-.1-.02-.06-.08-.09-.14-.09.03-.04.04-.1.03-.17-.03-.16-.18-.21-.32-.22,0-.05,0-.1-.04-.14.09-.04.15-.12.13-.23-.02-.14-.13-.18-.24-.16.08-.07.13-.17.14-.27.01-.13-.07-.16-.17-.15.08-.08.11-.19.04-.3-.05-.07-.12-.11-.2-.12,0-.02,0-.04-.01-.07-.02-.07-.07-.14-.14-.17,0,0-.02,0-.03,0-.02-.05-.07-.09-.17-.11-.14-.02-.19.09-.2.23-.02,0-.04,0-.06,0-.04-.08-.1-.14-.19-.11-.04.02-.07.04-.09.07-.09.03-.2.1-.28.19-.17-.05-.3.07-.34.22-.1-.05-.22-.04-.32.05-.03.02-.06.09-.08.16-.01,0-.03-.01-.04-.01-.21-.04-.34.15-.36.34-.08,0-.18.05-.23.15-.06-.04-.14-.05-.24,0-.08.04-.16.12-.19.22-.15-.02-.37.07-.44.25-.05-.02-.11,0-.18.06-.03.03-.05.05-.07.08-.01,0-.03,0-.04,0-.08,0-.17.06-.23.14-.04-.03-.09-.04-.14-.03-.07.02-.12.06-.15.1-.03-.02-.07-.02-.12,0-.1.03-.14.08-.16.15-.09-.05-.2-.06-.3-.01-.25.12-.09.27.08.36-.02.03-.02.05-.02.08-.08.04-.11.16-.05.23-.02.13.03.21.12.26-.07.08-.07.22.02.31-.05.06-.06.15,0,.21-.07.08-.07.23.02.32v.03c-.15.1-.17.32-.04.44-.08.09-.11.24-.01.32,0,.03,0,.06,0,.09-.1.08-.17.27-.05.35-.01.03-.01.07-.01.12-.02,0-.05,0-.06.03-.02.08-.06.28.03.35,0,.04.03.07.06.1-.11.08-.16.28-.02.37-.03.04-.05.09-.03.13,0,.01,0,.02.02.04,0,.03.01.05.02.06-.05.08-.07.18-.03.25-.11.06-.15.22-.08.32-.09.09-.16.24-.1.36-.04.1-.05.23-.04.3,0,.02.01.04.03.05-.05.06-.08.14-.11.23,0,.02,0,.05.03.06.05.01.11,0,.17-.01.04.11.13.21.23.27.08.05.17.07.26.04.09-.03.14-.13.16-.21.13.06.28.12.43.1.05,0,.09-.02.12-.05.02,0,.04.01.06.02.16.03.29-.03.35-.15,0,0,.01,0,.02,0,.05.11.17.18.3.18.23-.01.27-.24.28-.44.02-.01.04-.03.06-.05.11.06.25.07.36.02.1-.04.12-.11.11-.19.17.1.47.04.5-.15.01,0,.02.01.04.01.03.02.05.03.08.04,0,0,.02,0,.02,0,.1.13.28.19.41.04.03-.04.06-.08.07-.13.13-.02.15-.2.16-.34.05.08.14.11.25.05.11-.06.16-.17.15-.29.08.07.21.07.31.03.12-.06.18-.16.15-.26.04.04.09.06.15.05.08-.01.13-.09.16-.16.04-.09.03-.19,0-.27.07-.06.11-.15.12-.23,0-.05,0-.1,0-.15.08-.03.13-.1.12-.21,0-.04-.01-.09-.04-.14.02,0,.04-.02.05-.04.09-.09.09-.23.03-.33.31.09.61-.31.35-.57Z"/>
        <path class="cls-1" d="M25.13,81.11c.02-.05,0-.12-.05-.17-.06-.06-.14-.08-.22-.07,0-.02-.02-.03-.04-.05.08-.03.14-.08.16-.16.03-.14-.14-.15-.28-.13.07-.04.13-.08.18-.14,0,0,0-.02,0-.02-.12-.12-.29-.13-.46-.09.07-.06.1-.14,0-.23-.1-.09-.24-.13-.37-.12,0,0,0,0-.01-.01-.05-.06-.15-.14-.24-.17,0-.09-.05-.2-.11-.28-.07-.08-.17-.17-.28-.18-.05,0-.1,0-.14.03-.02-.05-.04-.09-.07-.12-.06-.08-.15-.14-.25-.15-.03,0-.06,0-.09.01-.02-.06-.04-.11-.08-.16-.06-.07-.14-.15-.24-.16-.09,0-.15.04-.19.11-.05-.21-.22-.33-.44-.29-.07.01-.2.07-.25.15-.09-.22-.28-.42-.53-.38-.13.02-.28.1-.33.2-.03,0-.06,0-.08.01-.04-.06-.11-.06-.18-.02-.24-.09-.5-.08-.49.21-.14-.18-.34-.37-.57-.23-.08.05-.16.14-.19.23-.1-.1-.23-.14-.39-.12-.16.03-.25.14-.25.26-.1-.11-.27-.13-.42-.03-.15.09-.2.23-.17.37-.2-.11-.51.15-.52.37-.09-.04-.21-.04-.29,0-.22.09-.26.33-.24.54-.12-.14-.29-.12-.41.04-.06.08-.1.19-.1.29-.15-.1-.37-.1-.51.05-.11.13-.1.31-.07.46.01.06.03.13.06.19,0,0,0,.02,0,.03,0,0,0,0,0,0-.09,0-.16.05-.19.16-.04.14.05.29.17.39-.1,0-.19.03-.26.12-.01.02-.02.04-.03.06-.03.02-.07.04-.1.07-.07.08-.08.17-.04.24-.06,0-.11.03-.14.11-.04.13.06.22.17.25-.08.03-.13.11-.13.21,0,.05.02.08.04.11-.03.03-.05.07-.07.11,0,.02-.01.04-.01.05-.24.09-.44.5-.23.67,0,0,.01,0,.02.01-.04.05-.07.12-.1.18-.01.04-.02.08-.02.11-.23.05-.28.33-.21.55.03.1.08.21.16.29-.07.16,0,.43.07.55,0,0,0,0,0,.01-.06.08-.1.18-.12.26-.03.12.02.26.07.37.02.05.06.11.1.16-.02.02-.03.04-.04.07-.07.15-.04.32.04.45.02.04.06.08.1.11,0,.02-.02.04-.02.05-.03.15.11.33.26.4,0,.08.01.17.03.24.03.12.13.23.25.28,0,0,0,.01,0,.02-.06.15-.05.26.05.39.04.05.14.13.24.19,0,.2.25.34.45.31.04.04.09.07.16.09.09.02.2.01.26-.04.02.06.08.11.16.13.09.02.15-.02.19-.08.05.08.19.1.3.09.04,0,.09-.02.13-.04.06.11.23.18.36.2.11.01.24,0,.31-.09.04-.04.05-.1.05-.16.07.05.16.07.25.07,0,0,.01,0,.02,0,0,.12.08.22.23.25.08.02.18,0,.25-.05.02-.01.03-.03.04-.04.05.06.14.09.24.09.06,0,.12-.02.17-.06.04.1.14.17.28.17.19,0,.34-.13.38-.29.06.06.17.06.27.02.05-.02.1-.05.14-.09.01,0,.03-.01.04-.02.06-.03.11-.09.14-.15.1-.03.21-.12.23-.22.02-.08-.03-.12-.09-.14.04-.04.07-.1.09-.15.04-.09.05-.23,0-.31.08-.04.15-.16.18-.26.04-.15.02-.32-.07-.43.05,0,.09-.02.13-.06.08-.08.08-.23.08-.34,0-.06-.03-.19-.08-.28.26-.08.24-.57.04-.71.1-.04.15-.15.15-.28,0-.03,0-.06,0-.08.02,0,.04-.02.06-.03.13-.1.16-.29.16-.45.08.1.23.01.31-.08.12-.16.14-.37.03-.53.29.03.35-.32.24-.55.26.1.4-.27.26-.48.34.05.56-.35.49-.66,0,0,0,0,0,0,.3.17.59-.04.69-.33.06-.07.08-.16.05-.27,0,0,0,0,0,0,.23.11.51.03.7-.11.12-.09.2-.23.15-.34.03,0,.07-.03.1-.06,0,0,.01-.02.02-.02.11.02.24-.09.25-.18.09,0,.13-.19.07-.26Z"/>
        <path class="cls-8" d="M25.13,81.11c.02-.05,0-.12-.05-.17-.06-.06-.14-.08-.22-.07,0-.02-.02-.03-.04-.05.08-.03.14-.08.16-.16.03-.14-.14-.15-.28-.13.07-.04.13-.08.18-.14,0,0,0-.02,0-.02-.12-.12-.29-.13-.46-.09.07-.06.1-.14,0-.23-.1-.09-.24-.13-.37-.12,0,0,0,0-.01-.01-.05-.06-.15-.14-.24-.17,0-.09-.05-.2-.11-.28-.07-.08-.17-.17-.28-.18-.05,0-.1,0-.14.03-.02-.05-.04-.09-.07-.12-.06-.08-.15-.14-.25-.15-.03,0-.06,0-.09.01-.02-.06-.04-.11-.08-.16-.06-.07-.14-.15-.24-.16-.09,0-.15.04-.19.11-.05-.21-.22-.33-.44-.29-.07.01-.2.07-.25.15-.09-.22-.28-.42-.53-.38-.13.02-.28.1-.33.2-.03,0-.06,0-.08.01-.04-.06-.11-.06-.18-.02-.24-.09-.5-.08-.49.21-.14-.18-.34-.37-.57-.23-.08.05-.16.14-.19.23-.1-.1-.23-.14-.39-.12-.16.03-.25.14-.25.26-.1-.11-.27-.13-.42-.03-.15.09-.2.23-.17.37-.2-.11-.51.15-.52.37-.09-.04-.21-.04-.29,0-.22.09-.26.33-.24.54-.12-.14-.29-.12-.41.04-.06.08-.1.19-.1.29-.15-.1-.37-.1-.51.05-.11.13-.1.31-.07.46.01.06.03.13.06.19,0,0,0,.02,0,.03,0,0,0,0,0,0-.09,0-.16.05-.19.16-.04.14.05.29.17.39-.1,0-.19.03-.26.12,0,0,0,0,0,0,.01.01.03.02.05.03.08.04.19.08.27.03.03-.02.04-.04.05-.06.03.05.09.09.16.1.17.02.24-.14.24-.28.08.13.24.14.38.07,0,0,.02,0,.02-.01.1.09.25.13.39.04.1-.06.13-.19.14-.3.02,0,.03,0,.05,0,.12-.02.25-.08.33-.18,0,0,0,0,0,0,.03.02.07.03.1.04.1,0,.17-.04.22-.12.03-.04.05-.1.06-.16.14-.05.27-.16.35-.3.09.19.26.35.48.24.09-.05.14-.16.15-.27.14-.07.26-.18.31-.32.13.13.3.24.44.09.01-.01.02-.03.03-.05.02,0,.05,0,.07,0,.03,0,.07,0,.11-.01,0,.15.02.3.16.34.13.04.23-.09.28-.19,0-.02.01-.03.02-.05.07,0,.13-.03.19-.07.06.15.19.26.38.21.06-.02.11-.07.15-.13.18.13.45.18.65.12,0,.12.04.21.16.2.1-.01.15-.14.17-.22,0,0,0-.02,0-.02.09.07.22.09.32.05.03.05.07.09.12.12.07.04.13.03.19,0,.07.05.14.09.23.1.04.01.09.01.13.01-.04.17-.01.35.2.36.15,0,.26-.09.33-.21.04,0,.07-.01.1-.02,0,.03.01.06.02.09.03.08.1.16.19.12.09-.04.13-.14.14-.23.05.07.12.13.21.15.18.05.32-.07.4-.21.02.13.12.2.26.22,0-.01-.01-.02-.02-.03Z"/>
      </g>
      <g>
        <path class="cls-6" d="M12.59,96.9c-.06-.06-.14-.09-.22-.1,0-.03.01-.06.02-.08.02-.08.05-.19.02-.28.08-.02.16-.08.2-.16.09-.18-.05-.34-.22-.4,0-.01.02-.03.02-.05.02-.08,0-.16-.04-.24.21-.13.24-.51.12-.7,0,0,0,0,0,0,.07-.11.02-.28-.03-.38-.03-.05-.06-.09-.1-.12-.03-.07-.08-.1-.15-.1.03-.05.05-.11.03-.19-.04-.18-.19-.23-.35-.24,0-.06,0-.12-.04-.15.1-.04.17-.13.15-.25-.02-.15-.14-.2-.27-.18.08-.08.14-.19.15-.3.01-.14-.08-.18-.19-.16.09-.09.12-.21.05-.33-.05-.08-.13-.12-.22-.13,0-.02,0-.05-.02-.07-.02-.08-.08-.16-.16-.19,0,0-.02,0-.03,0-.02-.06-.08-.1-.18-.12-.15-.03-.21.1-.22.25-.02,0-.05,0-.07,0-.04-.09-.11-.16-.21-.12-.04.02-.08.04-.1.07-.1.03-.22.11-.31.21-.19-.06-.33.08-.37.25-.11-.05-.24-.05-.36.05-.03.03-.06.1-.09.18-.02,0-.03-.01-.04-.02-.23-.05-.37.16-.4.37-.09,0-.19.06-.25.16-.07-.04-.16-.05-.26,0-.09.04-.17.14-.21.24-.17-.02-.4.08-.48.28-.06-.02-.12,0-.2.07-.03.03-.05.06-.07.09-.01,0-.03,0-.04,0-.09,0-.19.07-.25.15-.04-.03-.1-.05-.16-.03-.07.02-.13.06-.16.11-.03-.02-.08-.02-.13,0-.1.03-.16.09-.17.16-.1-.06-.22-.07-.33-.01-.27.13-.1.3.09.4-.02.03-.03.06-.02.08-.09.04-.12.17-.06.25-.02.14.04.23.14.28-.08.09-.08.25.02.34-.06.07-.06.17,0,.23-.08.09-.08.26.03.35v.03c-.16.11-.19.35-.04.48-.09.09-.12.26-.02.35,0,.03,0,.07.01.1-.11.09-.18.29-.06.39-.01.04-.02.08-.01.13-.03,0-.06,0-.07.04-.02.08-.06.31.03.38,0,.04.03.08.06.11-.12.09-.17.3-.02.4-.03.04-.05.09-.04.15,0,.01.01.03.02.04,0,.03.01.05.03.07-.06.09-.08.2-.03.28-.12.07-.16.24-.09.35-.1.1-.17.26-.11.39-.04.11-.05.25-.05.33,0,.02.01.04.04.05-.05.07-.09.16-.12.25,0,.03,0,.06.04.06.06.01.12,0,.18-.02.05.12.14.23.25.3.08.05.19.08.28.05.1-.03.15-.14.18-.24.15.07.31.13.48.11.05,0,.1-.03.13-.05.02,0,.05.01.07.02.18.04.32-.04.38-.17,0,0,.01,0,.02,0,.06.12.19.2.33.19.26-.01.29-.27.31-.48.03-.01.05-.03.07-.05.12.06.27.08.4.03.11-.04.13-.12.12-.21.19.1.51.05.55-.17.01,0,.03.01.04.02.03.02.06.03.09.04,0,0,.02,0,.03,0,.12.14.31.21.45.04.04-.04.06-.09.08-.15.14-.02.17-.22.17-.37.06.09.16.12.27.06.13-.06.18-.19.16-.32.09.07.23.08.34.03.13-.06.19-.17.17-.29.05.04.1.07.17.06.09-.01.14-.1.17-.18.04-.1.04-.21,0-.29.07-.06.12-.16.13-.25,0-.05,0-.11,0-.16.08-.03.14-.1.14-.23,0-.05-.02-.1-.04-.16.02,0,.04-.02.06-.04.1-.1.09-.25.04-.36.34.1.67-.34.38-.62Z"/>
        <path class="cls-1" d="M11.3,92.18c.02-.06,0-.13-.06-.19-.07-.07-.16-.09-.24-.08,0-.02-.02-.04-.04-.05.08-.04.15-.09.17-.17.04-.16-.16-.16-.31-.14.08-.04.14-.09.2-.16,0,0,0-.02,0-.02-.13-.13-.32-.14-.51-.1.08-.06.11-.15,0-.26-.1-.1-.26-.14-.41-.13,0,0,0,0-.01-.01-.06-.07-.16-.15-.26-.19,0-.1-.05-.22-.12-.31-.07-.09-.18-.18-.3-.19-.06,0-.11,0-.15.03-.02-.05-.05-.1-.07-.13-.07-.09-.16-.15-.27-.17-.04,0-.07,0-.1.01-.02-.06-.05-.12-.09-.17-.06-.08-.15-.17-.26-.18-.1-.01-.16.04-.2.12-.06-.23-.24-.37-.49-.32-.08.02-.21.08-.27.16-.1-.24-.31-.46-.59-.42-.14.02-.3.11-.36.22-.03,0-.06,0-.09.01-.04-.07-.12-.07-.19-.03-.27-.1-.55-.09-.54.23-.16-.2-.37-.41-.63-.26-.09.05-.18.15-.21.25-.1-.11-.26-.16-.43-.13-.17.03-.27.15-.27.29-.11-.12-.29-.14-.46-.04-.16.1-.22.26-.19.41-.22-.12-.56.16-.57.41-.1-.05-.23-.04-.32,0-.24.1-.29.36-.26.6-.13-.15-.32-.13-.46.04-.07.09-.11.21-.1.32-.17-.12-.41-.11-.57.06-.12.14-.11.34-.08.51.01.07.03.14.06.2,0,.01,0,.02,0,.03,0,0,0,0,0,0-.1.01-.18.06-.21.18-.05.16.05.32.19.43-.11,0-.21.04-.28.13-.01.02-.02.04-.03.06-.04.02-.08.04-.11.08-.08.09-.09.19-.04.27-.07,0-.13.04-.16.12-.05.14.06.24.19.28-.09.04-.14.12-.14.23,0,.05.02.09.05.12-.03.03-.06.08-.08.13,0,.02-.01.04-.01.06-.26.09-.49.55-.25.74,0,0,.01,0,.02.01-.05.06-.08.13-.11.2-.02.04-.02.08-.03.12-.26.06-.31.36-.23.6.03.11.09.23.18.31-.08.18,0,.47.08.6,0,0,0,.01.01.01-.07.08-.11.2-.13.28-.03.13.02.29.08.41.03.06.06.12.11.18-.02.02-.03.05-.05.07-.08.16-.04.35.05.5.03.05.06.09.1.13-.01.02-.02.04-.02.06-.03.17.12.36.29.44,0,.09.01.19.03.27.03.14.15.25.28.3,0,0,0,.01,0,.02-.07.16-.06.29.05.43.04.06.15.15.27.2.01.22.27.37.5.34.04.05.1.08.18.1.09.03.22.02.28-.04.03.07.09.13.18.14.1.02.17-.02.21-.09.06.09.21.11.33.1.05,0,.1-.02.15-.04.07.12.26.2.4.22.12.01.26,0,.34-.1.04-.05.05-.11.05-.17.07.06.17.08.28.07,0,0,.01,0,.02,0,0,.13.09.24.26.27.09.02.2,0,.27-.05.02-.01.03-.03.04-.05.06.07.15.1.26.1.06,0,.13-.02.18-.06.04.11.15.18.31.18.21,0,.37-.14.42-.32.06.06.19.06.29.02.06-.02.11-.06.15-.1.01,0,.03-.01.04-.02.07-.04.12-.09.15-.16.11-.03.23-.13.25-.24.02-.09-.03-.13-.1-.16.05-.05.08-.11.1-.17.04-.1.06-.25,0-.34.09-.05.16-.18.19-.29.04-.16.02-.36-.08-.47.05,0,.1-.02.14-.06.09-.09.09-.25.08-.37,0-.06-.04-.2-.09-.31.28-.09.27-.63.05-.78.1-.04.16-.16.16-.31,0-.03,0-.06,0-.09.02,0,.04-.02.06-.04.14-.12.17-.32.17-.49.09.12.26.01.34-.09.13-.17.16-.4.04-.58.32.03.39-.35.27-.6.29.11.44-.29.29-.52.38.05.61-.38.54-.72,0,0,0,0,0,0,.33.19.65-.04.75-.36.07-.08.09-.18.06-.3,0,0,0,0,0,0,.25.12.56.03.77-.13.13-.1.22-.25.17-.37.04,0,.07-.03.11-.07,0,0,.02-.02.02-.03.12.02.26-.1.27-.2.1,0,.14-.2.07-.28Z"/>
        <path class="cls-8" d="M11.3,92.18c.02-.06,0-.13-.06-.19-.07-.07-.16-.09-.24-.08,0-.02-.02-.04-.04-.05.08-.04.15-.09.17-.17.04-.16-.16-.16-.31-.14.08-.04.14-.09.2-.16,0,0,0-.02,0-.02-.13-.13-.32-.14-.51-.1.08-.06.11-.15,0-.26-.1-.1-.26-.14-.41-.13,0,0,0,0-.01-.01-.06-.07-.16-.15-.26-.19,0-.1-.05-.22-.12-.31-.07-.09-.18-.18-.3-.19-.06,0-.11,0-.15.03-.02-.05-.05-.1-.07-.13-.07-.09-.16-.15-.27-.17-.04,0-.07,0-.1.01-.02-.06-.05-.12-.09-.17-.06-.08-.15-.17-.26-.18-.1-.01-.16.04-.2.12-.06-.23-.24-.37-.49-.32-.08.02-.21.08-.27.16-.1-.24-.31-.46-.59-.42-.14.02-.3.11-.36.22-.03,0-.06,0-.09.01-.04-.07-.12-.07-.19-.03-.27-.1-.55-.09-.54.23-.16-.2-.37-.41-.63-.26-.09.05-.18.15-.21.25-.1-.11-.26-.16-.43-.13-.17.03-.27.15-.27.29-.11-.12-.29-.14-.46-.04-.16.1-.22.26-.19.41-.22-.12-.56.16-.57.41-.1-.05-.23-.04-.32,0-.24.1-.29.36-.26.6-.13-.15-.32-.13-.46.04-.07.09-.11.21-.1.32-.17-.12-.41-.11-.57.06-.12.14-.11.34-.08.51.01.07.03.14.06.2,0,.01,0,.02,0,.03,0,0,0,0,0,0-.1.01-.18.06-.21.18-.05.16.05.32.19.43-.11,0-.21.04-.28.13,0,0,0,0,0,0,.02.01.03.02.05.03.08.05.2.08.29.03.03-.02.05-.04.06-.07.04.06.09.1.17.11.19.03.26-.15.27-.31.09.14.26.16.42.07,0,0,.02-.01.03-.02.11.1.28.14.43.05.11-.07.14-.2.15-.32.02,0,.04,0,.05,0,.13-.02.28-.09.36-.2,0,0,0,0,0,0,.04.02.07.03.11.04.1,0,.19-.05.25-.13.03-.05.06-.11.07-.18.15-.05.3-.18.39-.33.1.21.29.39.52.26.1-.05.16-.17.17-.3.15-.07.28-.19.34-.35.15.14.33.26.48.1.01-.01.02-.03.03-.05.03,0,.05,0,.08,0,.04,0,.08,0,.12-.02,0,.17.03.33.17.38.14.04.26-.1.31-.21,0-.02.01-.04.02-.05.08,0,.14-.04.21-.08.07.17.2.29.42.22.07-.02.12-.07.16-.14.2.14.5.2.71.13,0,.13.04.23.18.21.11-.02.16-.16.19-.25,0,0,0-.02,0-.03.1.07.24.1.36.06.03.05.08.1.13.13.08.05.15.04.2,0,.07.05.16.09.25.11.05.01.1.01.15.01-.04.19-.01.39.22.4.16,0,.29-.1.37-.23.04,0,.08-.01.11-.03,0,.03.01.07.02.1.03.09.11.18.21.13.1-.04.14-.15.16-.25.05.08.13.14.23.17.19.05.35-.07.44-.23.02.15.13.22.28.24,0-.01-.01-.02-.02-.03Z"/>
      </g>
      <g>
        <path class="cls-6" d="M27.67,95.77c-.06-.06-.14-.09-.22-.1,0-.03.01-.05.02-.08.02-.08.05-.19.02-.28.08-.02.16-.08.2-.15.09-.18-.05-.34-.22-.4,0-.01.02-.03.02-.05.02-.08,0-.16-.04-.24.21-.13.24-.51.12-.7,0,0,0,0,0,0,.07-.11.02-.28-.03-.38-.02-.05-.06-.09-.1-.12-.03-.07-.08-.09-.15-.1.03-.05.05-.11.03-.19-.04-.18-.19-.23-.35-.24,0-.06,0-.12-.04-.15.1-.04.17-.13.15-.25-.02-.15-.14-.2-.27-.18.08-.08.14-.19.15-.3.01-.14-.08-.18-.19-.16.09-.09.12-.21.05-.33-.05-.08-.13-.12-.22-.13,0-.02,0-.05-.02-.07-.02-.08-.08-.16-.16-.19,0,0-.02,0-.03,0-.03-.06-.08-.1-.18-.12-.15-.03-.21.1-.22.25-.02,0-.05,0-.07,0-.04-.09-.11-.16-.21-.12-.04.02-.08.04-.1.07-.1.03-.22.11-.31.21-.19-.06-.33.08-.37.25-.11-.05-.24-.05-.36.05-.03.03-.06.1-.09.18-.02,0-.03-.01-.04-.02-.23-.05-.37.16-.4.37-.09,0-.19.06-.25.16-.07-.04-.16-.05-.26,0-.09.04-.17.14-.21.24-.17-.02-.4.08-.48.28-.06-.02-.12,0-.2.07-.03.03-.05.06-.07.09-.01,0-.03,0-.04,0-.09,0-.19.07-.25.15-.04-.03-.1-.05-.16-.03-.07.02-.13.06-.16.11-.03-.02-.08-.02-.13,0-.1.03-.16.09-.17.16-.09-.06-.22-.07-.33-.01-.27.13-.1.3.09.4-.02.03-.03.06-.02.08-.09.04-.12.17-.06.25-.02.14.04.23.14.28-.08.09-.08.25.02.34-.06.07-.06.17,0,.23-.08.09-.08.25.03.35v.03c-.16.11-.18.35-.04.48-.09.1-.12.26-.02.35,0,.03,0,.07.01.1-.11.09-.18.29-.06.39-.01.04-.02.08-.01.13-.03,0-.06,0-.07.04-.02.08-.06.31.03.38,0,.04.03.08.06.11-.12.09-.17.3-.02.4-.03.04-.05.09-.04.15,0,.01.01.03.02.04,0,.03.01.05.02.07-.06.09-.08.2-.03.28-.12.07-.16.24-.09.35-.1.1-.17.26-.11.39-.04.11-.05.25-.05.33,0,.02.01.04.04.05-.05.07-.09.16-.12.25,0,.03,0,.06.04.06.06.01.12,0,.18-.02.05.12.14.23.25.3.08.05.19.08.28.05.1-.03.15-.14.18-.24.15.07.31.13.48.11.05,0,.1-.03.14-.05.02,0,.04.01.07.02.18.04.32-.04.38-.17,0,0,.01,0,.02,0,.06.12.19.2.33.19.26-.01.29-.27.31-.48.03-.02.05-.03.07-.05.12.06.27.08.4.03.1-.04.13-.12.12-.21.19.1.51.05.55-.17.01,0,.03.01.04.02.03.02.06.03.09.04,0,0,.02,0,.03,0,.12.14.31.21.45.04.04-.04.06-.09.08-.15.15-.02.17-.22.17-.37.06.09.16.12.27.06.12-.06.18-.19.16-.32.09.07.22.08.34.03.13-.06.19-.17.17-.29.05.04.1.07.17.06.09-.01.14-.1.17-.18.04-.1.04-.21,0-.29.07-.06.12-.16.13-.25,0-.05,0-.11,0-.16.08-.03.14-.1.14-.24,0-.05-.02-.1-.04-.16.02,0,.04-.02.06-.04.1-.1.09-.25.04-.36.34.1.67-.34.38-.62Z"/>
        <path class="cls-1" d="M26.38,91.05c.02-.06,0-.13-.06-.19-.07-.07-.16-.09-.24-.08,0-.02-.02-.04-.04-.05.08-.04.16-.09.17-.17.04-.16-.16-.16-.31-.14.07-.04.14-.09.2-.15,0,0,0-.02,0-.02-.13-.13-.32-.14-.5-.1.08-.06.11-.15,0-.26-.1-.1-.26-.14-.41-.13,0,0,0,0-.01-.01-.06-.07-.16-.16-.26-.19,0-.1-.05-.22-.12-.31-.07-.09-.18-.18-.3-.19-.06,0-.11,0-.15.03-.02-.05-.05-.1-.07-.13-.07-.09-.16-.15-.27-.16-.04,0-.07,0-.1.01-.02-.06-.05-.12-.09-.17-.06-.08-.15-.17-.26-.18-.1-.01-.16.04-.2.12-.06-.23-.24-.37-.49-.32-.08.02-.21.08-.27.16-.1-.24-.31-.46-.59-.42-.14.02-.3.11-.36.22-.03,0-.06,0-.09.01-.04-.07-.12-.07-.19-.03-.27-.1-.55-.09-.54.23-.16-.2-.37-.41-.63-.26-.09.05-.18.15-.21.25-.11-.11-.26-.16-.43-.13-.17.03-.27.15-.27.29-.12-.12-.29-.14-.46-.04-.16.1-.22.26-.19.41-.22-.12-.57.16-.57.41-.1-.05-.23-.04-.32,0-.24.1-.29.36-.26.59-.13-.15-.32-.13-.46.04-.07.09-.11.21-.1.32-.17-.12-.41-.11-.57.06-.12.14-.11.34-.08.51.01.07.03.14.06.2,0,.01,0,.02,0,.03,0,0,0,0,0,0-.1,0-.18.06-.21.18-.05.16.05.32.19.43-.11,0-.21.04-.28.13-.01.02-.02.04-.03.06-.04.02-.08.04-.11.08-.08.09-.09.19-.04.27-.07,0-.13.04-.16.12-.05.14.06.24.18.28-.09.04-.14.12-.14.23,0,.05.02.09.05.12-.03.03-.06.08-.08.13,0,.02-.01.04-.02.06-.26.09-.49.55-.25.74,0,0,.01,0,.02.01-.05.06-.08.13-.11.2-.02.04-.02.08-.03.12-.26.06-.31.36-.24.6.03.11.09.23.18.31-.08.18,0,.47.08.6,0,0,0,.01.01.02-.07.08-.11.2-.13.28-.03.14.02.29.08.41.03.06.06.12.11.18-.02.02-.03.05-.05.07-.08.16-.04.35.05.5.03.05.06.09.1.13-.01.02-.02.04-.02.06-.03.17.12.36.29.44,0,.09.01.19.03.27.03.14.15.25.28.3,0,0,0,.01,0,.02-.07.16-.06.29.05.43.04.06.15.15.27.21.01.22.27.37.5.34.04.05.1.08.18.1.09.03.22.02.28-.04.03.07.09.13.18.14.1.02.17-.02.21-.09.06.09.21.11.33.1.05,0,.1-.02.15-.04.07.12.26.2.4.22.12.01.26,0,.34-.1.04-.05.06-.11.05-.17.07.06.17.08.28.07,0,0,.01,0,.02,0,0,.13.09.24.26.27.09.02.2,0,.27-.05.02-.01.03-.03.04-.05.06.07.15.1.26.1.06,0,.13-.02.18-.06.04.11.15.18.31.18.21,0,.37-.14.42-.32.06.06.19.06.29.02.06-.02.11-.06.15-.1.01,0,.03-.01.04-.02.07-.04.12-.09.15-.16.11-.03.23-.13.25-.24.02-.09-.03-.13-.1-.16.05-.05.08-.11.1-.17.04-.1.06-.25,0-.34.09-.05.17-.18.19-.29.04-.16.02-.36-.08-.47.05,0,.1-.02.15-.06.09-.09.09-.25.08-.37,0-.06-.04-.21-.09-.31.28-.09.27-.63.04-.78.1-.04.16-.16.16-.31,0-.03,0-.06,0-.09.02,0,.04-.02.06-.04.14-.12.17-.32.17-.49.09.12.26.01.34-.09.13-.17.16-.4.04-.58.32.03.39-.35.27-.6.29.11.44-.29.29-.52.38.05.61-.38.54-.72,0,0,0,0,0,0,.33.19.65-.04.75-.36.06-.08.09-.18.06-.3,0,0,0,0,0,0,.25.12.56.03.77-.13.13-.1.22-.25.17-.37.04,0,.08-.03.11-.07,0,0,.01-.02.02-.03.13.02.26-.1.27-.2.1,0,.14-.2.07-.28Z"/>
        <path class="cls-8" d="M26.38,91.05c.02-.06,0-.13-.06-.19-.07-.07-.16-.09-.24-.08,0-.02-.02-.04-.04-.05.08-.04.16-.09.17-.17.04-.16-.16-.16-.31-.14.07-.04.14-.09.2-.15,0,0,0-.02,0-.02-.13-.13-.32-.14-.5-.1.08-.06.11-.15,0-.26-.1-.1-.26-.14-.41-.13,0,0,0,0-.01-.01-.06-.07-.16-.16-.26-.19,0-.1-.05-.22-.12-.31-.07-.09-.18-.18-.3-.19-.06,0-.11,0-.15.03-.02-.05-.05-.1-.07-.13-.07-.09-.16-.15-.27-.16-.04,0-.07,0-.1.01-.02-.06-.05-.12-.09-.17-.06-.08-.15-.17-.26-.18-.1-.01-.16.04-.2.12-.06-.23-.24-.37-.49-.32-.08.02-.21.08-.27.16-.1-.24-.31-.46-.59-.42-.14.02-.3.11-.36.22-.03,0-.06,0-.09.01-.04-.07-.12-.07-.19-.03-.27-.1-.55-.09-.54.23-.16-.2-.37-.41-.63-.26-.09.05-.18.15-.21.25-.11-.11-.26-.16-.43-.13-.17.03-.27.15-.27.29-.12-.12-.29-.14-.46-.04-.16.1-.22.26-.19.41-.22-.12-.57.16-.57.41-.1-.05-.23-.04-.32,0-.24.1-.29.36-.26.59-.13-.15-.32-.13-.46.04-.07.09-.11.21-.1.32-.17-.12-.41-.11-.57.06-.12.14-.11.34-.08.51.01.07.03.14.06.2,0,.01,0,.02,0,.03,0,0,0,0,0,0-.1,0-.18.06-.21.18-.05.16.05.32.19.43-.11,0-.21.04-.28.13,0,0,0,0,0,0,.02.01.03.02.05.03.08.05.2.08.29.03.03-.02.05-.04.06-.07.04.06.09.1.17.11.19.03.26-.15.27-.31.09.14.26.16.42.07,0,0,.02-.01.03-.02.11.1.28.14.43.05.11-.07.14-.2.15-.32.02,0,.04,0,.05,0,.13-.03.28-.09.36-.2,0,0,0,0,0,0,.03.02.07.03.11.04.1,0,.19-.05.25-.13.03-.05.05-.11.07-.18.15-.05.3-.18.39-.33.1.21.29.39.52.26.1-.05.16-.17.17-.3.15-.07.28-.19.34-.35.15.14.33.26.48.1.01-.01.02-.03.03-.05.03,0,.05,0,.08,0,.04,0,.08,0,.12-.02,0,.17.03.33.17.38.14.04.26-.1.31-.21,0-.02.01-.04.02-.05.08,0,.14-.04.21-.08.07.17.2.29.42.22.07-.02.12-.07.16-.14.2.14.49.2.71.13,0,.13.04.23.18.22.11-.02.16-.16.19-.25,0,0,0-.02,0-.03.1.07.24.1.36.06.03.05.08.1.13.13.08.05.15.04.2,0,.07.05.16.09.25.11.05.01.1.01.15.01-.04.19-.02.39.22.4.16,0,.29-.1.37-.23.04,0,.08-.01.11-.03,0,.04.01.07.02.1.03.09.11.18.21.13.09-.04.14-.15.16-.25.05.08.13.14.23.17.2.05.35-.07.44-.23.02.14.13.22.28.24,0-.01-.01-.02-.02-.03Z"/>
      </g>
      <g>
        <g>
          <path class="cls-3" d="M15.13,102.15c-.36-.14-1.55-.14-1.91,0,0,0-.24.08.15.21.39.13,1.22.13,1.61,0,.39-.13.15-.21.15-.21Z"/>
          <path class="cls-3" d="M13.37,102.3c-.17-.09-.22-.17-.22-.23h0s0,9.5,0,9.5c0,0,0,0,0,0,0,.06.06.13.22.21.19.11.5.16.8.16v-9.49c-.3,0-.61-.05-.8-.16Z"/>
          <path class="cls-2" d="M15.2,102.06c0,.06-.04.14-.22.24-.2.11-.5.16-.8.16v9.49c.3,0,.61-.05.8-.16.16-.08.21-.16.22-.21,0,0,0,0,0,0v-9.52s0,0,0,.01Z"/>
        </g>
        <g>
          <g>
            <path class="cls-3" d="M13.07,100.77c-.16-.1-.68-.1-.84,0,0,0-.1.06.07.15.17.09.53.09.7,0,.17-.09.07-.15.07-.15Z"/>
            <path class="cls-3" d="M12.3,100.92c-.08-.04-.1-.07-.1-.1h0s0,.03,0,.03l1.08,1.9s0,0,0,0c0,.02.03.06.1.09.09.05.22.07.35.07l-1.08-1.92c-.13,0-.27-.02-.35-.07Z"/>
            <path class="cls-2" d="M13.1,100.82s-.02.06-.1.1c-.08.05-.22.07-.35.07l1.08,1.92c.13,0,.27-.02.35-.07.07-.04.09-.07.1-.09,0,0,0,0,0,0l-1.08-1.93h0Z"/>
          </g>
          <g>
            <path class="cls-3" d="M12.41,97.98c-.16-.1-.68-.1-.84,0,0,0-.1.06.07.15.17.09.53.09.7,0,.17-.09.07-.15.07-.15Z"/>
            <path class="cls-3" d="M11.64,98.13c-.07-.04-.1-.08-.1-.1h0s.66,2.8.66,2.8c0,0,0,0,0,0,0,.02.03.06.1.09.08.05.22.07.35.07l-.66-2.8c-.13,0-.27-.02-.35-.07Z"/>
            <path class="cls-2" d="M12.44,98.02s-.02.06-.1.11c-.08.05-.22.07-.35.07l.66,2.8c.13,0,.27-.02.35-.07.07-.04.09-.07.1-.09,0,0,0,0,0,0l-.66-2.81h0Z"/>
          </g>
          <g>
            <path class="cls-3" d="M8.64,98.64c-.08-.04-.1-.07-.1-.1t0,0l.1.1s3.6,2.24,3.67,2.27c.09.05.22.07.35.07l-3.67-2.27c-.13,0-.27-.02-.35-.07Z"/>
            <path class="cls-2" d="M8.99,98.71l3.67,2.27c.13,0,.27-.02.35-.07.07-.04.09-.07.1-.09,0,0,0,0,0,0l-3.69-2.32s-.3.21-.43.21Z"/>
            <path class="cls-3" d="M9.4,98.49c-.16-.1-.68-.1-.83,0,0,0-.1.06.07.15.17.09.53.09.7,0,.17-.09.07-.15.07-.15Z"/>
          </g>
        </g>
        <g>
          <g>
            <path class="cls-2" d="M16.9,101.39v.03s0-.02,0-.03c0,0,0,0,0,0Z"/>
            <path class="cls-2" d="M18.93,97.56l-2.55,3.52h0l-1.78,1.59c.13,0,.31.05.4,0,.07-.04,1.6-1.47,1.6-1.47-.02.02,2.65-3.68,2.65-3.68l.1-.19s0-.03-.42.22Z"/>
          </g>
          <path class="cls-3" d="M19.35,97.34c-.15-.09-.62-.1-.81-.01h0l-2.47,3.49s-1.92,1.7-1.92,1.7c0,0,0,0,0,0,0,.02.03.06.1.09.09.05.22.07.35.07l1.78-1.59h0l2.55-3.52c.13,0,.42-.22.42-.22Z"/>
        </g>
        <g>
          <g>
            <path class="cls-3" d="M14.59,101.53c-.16-.1-.67-.1-.83,0,0,0-.1.06.07.15.17.09.53.09.7,0,.17-.09.07-.15.07-.15Z"/>
            <path class="cls-3" d="M13.82,101.68c-.08-.04-.1-.07-.1-.1h0s0,1.46,0,1.46c0,0,0,0,0,0,0,.02.03.06.1.09.09.05.22.07.35.07v-1.46c-.13,0-.26-.02-.35-.07Z"/>
            <path class="cls-2" d="M14.62,101.57s-.02.06-.1.1c-.08.05-.22.07-.35.07v1.46c.13,0,.27-.02.35-.07.07-.04.09-.07.1-.09,0,0,0,0,0,0v-1.48h0Z"/>
          </g>
          <g>
            <path class="cls-3" d="M13.56,97.08c-.16-.1-.68-.1-.84,0,0,0-.1.06.07.15.17.09.53.09.7,0,.17-.09.07-.15.07-.15Z"/>
            <path class="cls-3" d="M12.79,97.23c-.08-.04-.1-.07-.1-.1,0,0,0,0,0,0l1.03,4.45s0,0,0,0c0,.02.03.06.1.09.08.05.22.07.35.07l-1.03-4.45c-.13,0-.27-.02-.35-.07Z"/>
            <path class="cls-2" d="M13.59,97.12s-.02.06-.1.1c-.09.05-.22.07-.35.07l1.03,4.45c.13,0,.27-.02.35-.07.07-.04.09-.07.1-.09,0,0,0,0,0,0v-.02l-1.03-4.45s0,0,0,0Z"/>
          </g>
          <g>
            <path class="cls-2" d="M16.47,97.49s-1.88,4.15-1.95,4.19c-.09.05-.22.07-.35.07l1.86-4.11c.13,0,.44-.15.44-.15Z"/>
            <path class="cls-3" d="M16.03,97.63l-1.86,4.11c-.13,0-.27-.02-.35-.07-.07-.04-.09-.07-.1-.09,0,0,0,0,0,0l1.89-4.17s.28.22.42.22Z"/>
            <path class="cls-3" d="M15.61,97.41c.16-.1.68-.1.84,0,0,0,.1.06-.07.15-.17.09-.53.09-.7,0-.17-.09-.07-.15-.07-.15Z"/>
          </g>
        </g>
      </g>
      <g>
        <path class="cls-6" d="M23.43,92.48c-.1-.09-.22-.14-.36-.17.01-.04.02-.09.03-.14.03-.13.08-.31.03-.45.13-.03.26-.13.32-.25.14-.29-.08-.55-.35-.64.02-.02.03-.05.03-.08.03-.12,0-.26-.06-.38.33-.22.39-.82.2-1.13,0,0,0,0,0,0,.11-.18.04-.45-.05-.62-.04-.08-.1-.14-.16-.19-.04-.11-.13-.15-.24-.16.05-.08.08-.18.05-.3-.06-.28-.31-.38-.57-.38,0-.1-.02-.19-.07-.24.16-.07.27-.21.24-.41-.04-.24-.23-.32-.43-.29.13-.13.23-.31.25-.48.02-.23-.13-.29-.3-.27.15-.14.2-.34.07-.54-.08-.13-.22-.2-.36-.2,0-.04-.01-.08-.03-.12-.04-.13-.12-.25-.25-.3-.02,0-.03,0-.05-.01-.04-.09-.13-.17-.3-.2-.24-.04-.34.17-.36.41-.04,0-.08,0-.11,0-.07-.15-.18-.25-.33-.19-.07.03-.13.07-.16.12-.17.05-.36.18-.49.35-.3-.09-.53.12-.6.4-.17-.09-.39-.08-.57.09-.05.04-.1.16-.14.29-.02-.01-.05-.02-.07-.03-.38-.08-.6.26-.64.6-.15,0-.31.1-.4.26-.11-.07-.25-.08-.42,0-.14.07-.28.22-.34.38-.27-.04-.65.13-.78.45-.09-.03-.2,0-.32.11-.05.05-.08.09-.12.14-.02,0-.05,0-.07,0-.15,0-.3.11-.41.25-.07-.05-.16-.08-.25-.05-.12.03-.21.1-.27.18-.05-.03-.12-.04-.21-.01-.17.05-.25.15-.28.26-.15-.09-.35-.12-.54-.02-.44.22-.17.49.14.64-.03.04-.04.09-.03.13-.15.07-.2.28-.09.41-.04.23.06.37.22.46-.13.14-.13.4.03.55-.09.11-.1.27-.01.37-.13.15-.13.41.04.57v.05c-.26.18-.3.57-.07.78-.15.15-.19.43-.03.57-.01.05,0,.11.02.16-.18.15-.3.47-.09.63-.02.06-.03.13-.02.21-.04-.01-.1.01-.11.06-.04.14-.1.5.06.62.01.07.05.12.1.18-.19.14-.27.49-.04.65-.05.07-.08.15-.06.24,0,.02.02.04.03.06,0,.04.02.08.04.11-.09.14-.13.32-.05.45-.2.11-.26.38-.14.56-.16.16-.28.43-.17.63-.06.18-.08.4-.07.53,0,.04.02.07.06.08-.09.11-.15.25-.19.41-.01.04.01.1.06.1.1.02.2,0,.3-.03.08.2.23.37.41.48.13.09.3.13.46.08.16-.06.24-.22.29-.38.24.12.5.22.77.18.09-.01.16-.04.22-.09.04.01.07.02.11.03.29.06.51-.06.62-.27,0,0,.02,0,.03,0,.09.19.3.32.53.31.42-.02.47-.43.5-.78.04-.02.08-.05.11-.09.2.1.44.12.64.04.17-.07.22-.2.2-.33.3.17.83.08.89-.27.02.01.04.02.06.03.05.03.1.05.15.07.01,0,.03.01.04.01.19.23.49.34.72.06.06-.07.1-.15.13-.24.23-.03.27-.35.28-.6.09.14.25.19.44.09.2-.1.29-.31.26-.51.15.12.36.13.54.05.22-.1.31-.28.27-.47.08.07.17.11.27.1.14-.02.23-.17.28-.29.06-.16.06-.34,0-.48.12-.1.2-.26.21-.4,0-.09,0-.18-.01-.26.13-.05.23-.17.22-.38,0-.07-.02-.17-.06-.25.03-.01.06-.04.1-.07.16-.16.15-.4.06-.59.55.16,1.08-.55.62-1Z"/>
        <path class="cls-1" d="M21.35,84.86c.03-.09,0-.21-.09-.3-.11-.11-.25-.14-.39-.12-.01-.03-.04-.06-.06-.09.14-.06.25-.15.28-.28.06-.26-.26-.26-.5-.23.12-.06.23-.14.33-.25,0-.01.01-.03,0-.04-.21-.22-.52-.23-.82-.16.13-.1.18-.25.01-.41-.17-.17-.42-.23-.66-.21,0,0-.01-.02-.02-.02-.09-.11-.26-.25-.42-.31,0-.16-.08-.36-.19-.49-.11-.15-.29-.3-.49-.31-.09,0-.17.01-.24.05-.03-.08-.07-.16-.12-.21-.11-.14-.26-.25-.44-.27-.06,0-.11,0-.16.02-.03-.1-.08-.2-.14-.28-.1-.13-.25-.27-.42-.29-.15-.02-.26.07-.33.19-.09-.37-.38-.59-.79-.51-.13.03-.35.13-.44.27-.16-.39-.5-.75-.95-.68-.22.03-.49.17-.58.35-.05-.01-.1,0-.14.02-.06-.11-.19-.11-.31-.04-.43-.16-.89-.14-.88.37-.25-.32-.6-.66-1.02-.42-.15.09-.29.24-.34.41-.17-.17-.42-.25-.69-.2-.27.05-.44.24-.43.46-.19-.19-.48-.22-.75-.06-.26.16-.36.41-.3.66-.36-.19-.91.26-.92.65-.16-.07-.38-.07-.51,0-.39.17-.46.58-.42.96-.22-.25-.52-.22-.73.07-.11.15-.18.34-.17.52-.27-.19-.66-.18-.91.1-.2.22-.17.55-.13.82.02.11.05.23.1.33,0,.02,0,.03,0,.05,0,0,0,0,0,0-.15.02-.28.09-.34.29-.08.25.09.52.31.69-.17,0-.34.06-.45.22-.02.03-.04.07-.04.1-.06.03-.12.07-.18.13-.13.15-.14.31-.07.43-.11,0-.2.06-.25.2-.08.23.1.39.3.45-.14.06-.23.2-.23.37,0,.09.03.15.08.19-.05.06-.1.12-.13.2-.01.03-.02.06-.02.09-.43.15-.78.88-.4,1.2,0,0,.02.02.03.02-.08.1-.13.21-.17.32-.02.07-.04.13-.04.2-.41.09-.5.58-.38.98.05.18.15.37.29.51-.13.29-.02.76.12.97,0,0,.01.02.02.02-.11.14-.17.33-.2.46-.05.22.04.47.13.66.04.09.1.2.18.29-.03.04-.05.08-.07.12-.13.26-.07.56.07.8.04.07.1.14.17.2-.02.03-.03.06-.03.1-.05.27.2.58.47.7,0,.15.02.3.05.43.05.22.24.41.45.49,0,.01,0,.02-.01.03-.11.26-.09.47.08.7.07.09.24.23.43.33.02.36.44.6.8.54.07.07.16.13.29.17.15.04.35.02.46-.07.04.11.15.2.29.23.16.03.27-.04.33-.15.1.14.34.18.53.16.07,0,.16-.03.23-.07.11.2.42.32.65.35.19.02.42-.01.55-.16.07-.08.09-.18.08-.28.12.09.28.13.45.12.01,0,.02,0,.03,0,0,.21.15.38.41.44.15.03.32.01.44-.09.03-.02.05-.05.07-.08.09.11.24.16.43.16.1,0,.21-.04.29-.1.06.18.25.3.49.3.34,0,.6-.22.68-.52.1.1.3.1.48.03.1-.04.18-.09.24-.16.02,0,.05-.02.07-.03.1-.06.2-.15.25-.26.18-.05.36-.22.41-.39.04-.14-.05-.21-.16-.25.07-.07.13-.19.16-.27.07-.17.09-.4.01-.55.15-.07.27-.28.31-.47.07-.26.04-.57-.13-.76.08,0,.17-.03.23-.1.14-.15.15-.4.13-.59,0-.1-.06-.33-.15-.49.46-.15.43-1.02.07-1.27.17-.07.26-.27.26-.5,0-.05,0-.1,0-.15.04-.01.07-.03.1-.06.22-.19.28-.52.28-.8.15.19.42.02.55-.15.22-.28.25-.65.06-.94.51.05.63-.57.43-.97.46.18.7-.47.46-.84.61.08.99-.62.87-1.17,0,0,0,0,0-.01.54.3,1.05-.07,1.21-.58.1-.12.15-.29.09-.48,0,0,0,0,0,0,.4.19.9.05,1.25-.2.22-.16.36-.4.27-.6.06-.01.12-.05.18-.11.01-.01.02-.03.03-.04.2.03.42-.16.44-.32.15-.01.23-.33.12-.45Z"/>
        <path class="cls-8" d="M21.35,84.86c.03-.09,0-.21-.09-.3-.11-.11-.25-.14-.39-.12-.01-.03-.04-.06-.06-.09.14-.06.25-.15.28-.28.06-.26-.26-.26-.5-.23.12-.06.23-.14.33-.25,0-.01.01-.03,0-.04-.21-.22-.52-.23-.82-.16.13-.1.18-.25.01-.41-.17-.17-.42-.23-.66-.21,0,0-.01-.02-.02-.02-.09-.11-.26-.25-.42-.31,0-.16-.08-.36-.19-.49-.11-.15-.29-.3-.49-.31-.09,0-.17.01-.24.05-.03-.08-.07-.16-.12-.21-.11-.14-.26-.25-.44-.27-.06,0-.11,0-.16.02-.03-.1-.08-.2-.14-.28-.1-.13-.25-.27-.42-.29-.15-.02-.26.07-.33.19-.09-.37-.38-.59-.79-.51-.13.03-.35.13-.44.27-.16-.39-.5-.75-.95-.68-.22.03-.49.17-.58.35-.05-.01-.1,0-.14.02-.06-.11-.19-.11-.31-.04-.43-.16-.89-.14-.88.37-.25-.32-.6-.66-1.02-.42-.15.09-.29.24-.34.41-.17-.17-.42-.25-.69-.2-.27.05-.44.24-.43.46-.19-.19-.48-.22-.75-.06-.26.16-.36.41-.3.66-.36-.19-.91.26-.92.65-.16-.07-.38-.07-.51,0-.39.17-.46.58-.42.96-.22-.25-.52-.22-.73.07-.11.15-.18.34-.17.52-.27-.19-.66-.18-.91.1-.2.22-.17.55-.13.82.02.11.05.23.1.33,0,.02,0,.03,0,.05,0,0,0,0,0,0-.15.02-.28.09-.34.29-.08.25.09.52.31.69-.17,0-.34.06-.45.22,0,0,0,.01,0,.02.03.02.05.04.08.05.14.08.33.14.47.05.05-.03.08-.07.09-.12.06.09.15.16.28.18.31.04.42-.25.43-.5.14.23.42.25.67.12.01,0,.03-.02.04-.03.19.16.45.23.69.08.17-.11.23-.33.24-.52.03,0,.06,0,.09-.01.22-.04.45-.14.58-.32,0,0,0,0,0,0,.06.03.12.06.19.06.17.02.3-.07.4-.21.05-.07.09-.18.11-.28.25-.08.48-.29.62-.53.16.33.47.63.84.42.16-.09.25-.28.27-.48.25-.12.46-.31.55-.56.24.23.54.42.77.16.02-.02.04-.05.05-.08.04,0,.08,0,.12,0,.06,0,.12-.01.19-.02-.01.27.04.54.28.61.23.07.41-.16.49-.34.01-.03.02-.06.03-.09.12-.01.23-.06.34-.13.11.27.33.47.67.36.11-.03.2-.12.26-.23.33.23.8.32,1.15.21,0,.21.06.38.29.35.18-.03.26-.25.31-.4,0-.01,0-.03.01-.04.16.12.39.16.58.09.05.09.13.16.22.22.12.07.24.06.33,0,.12.09.26.15.4.18.08.02.16.02.24.02-.07.31-.02.63.36.64.26,0,.47-.15.59-.37.06,0,.12-.02.18-.04,0,.06.02.11.04.17.04.14.18.29.34.22.15-.07.22-.25.26-.41.09.13.21.22.38.27.32.08.57-.12.71-.37.03.23.22.35.46.38,0-.02-.02-.04-.03-.05Z"/>
      </g>
    </g>
    <g>
      <g>
        <g>
          <path class="cls-5" d="M57.76,6.34l-25.44,11.87,22.19,13.6,25.39-11.87-22.14-13.59ZM42.43,18.57l14.64-6.83,12.77,7.83-14.64,6.83-12.77-7.83Z"/>
          <polygon class="cls-4" points="57.07 11.74 57.07 25.53 69.84 19.57 57.07 11.74"/>
          <polygon class="cls-7" points="57.07 11.74 42.43 18.57 55.2 26.4 57.07 25.53 57.07 11.74"/>
        </g>
        <polygon class="cls-7" points="54.51 90.38 54.51 31.8 32.32 18.2 32.32 76.78 54.51 90.38"/>
        <polygon class="cls-4" points="74.55 27.53 74.55 81.04 54.51 90.38 54.51 31.8 69.84 24.65 74.55 27.53"/>
        <polygon class="cls-4" points="92.03 25.46 117.47 13.6 117.47 79.88 92.03 91.75 92.03 25.46"/>
        <g>
          <path class="cls-5" d="M95.28,0l-25.44,11.87,22.19,13.6,25.39-11.87L95.28,0ZM79.95,12.23l14.64-6.83,12.77,7.83-14.64,6.83-12.77-7.83Z"/>
          <polygon class="cls-4" points="94.59 5.4 94.59 19.19 107.36 13.23 94.59 5.4"/>
          <polygon class="cls-7" points="94.59 5.4 79.95 12.23 92.72 20.06 94.59 19.19 94.59 5.4"/>
        </g>
      </g>
      <g>
        <polygon class="cls-9" points="39.96 29.85 36.24 27.44 36.24 24.9 39.96 27.31 39.96 29.85"/>
        <polygon class="cls-9" points="39.96 34.68 36.24 32.26 36.24 29.73 39.96 32.14 39.96 34.68"/>
        <polygon class="cls-9" points="39.96 39.51 36.24 37.09 36.24 34.55 39.96 36.97 39.96 39.51"/>
        <polygon class="cls-9" points="39.96 44.64 36.24 42.23 36.24 39.68 39.96 42.1 39.96 44.64"/>
        <polygon class="cls-9" points="39.96 49.47 36.24 47.05 36.24 44.51 39.96 46.93 39.96 49.47"/>
        <polygon class="cls-9" points="45.36 48.53 41.63 46.11 41.64 43.57 45.36 45.99 45.36 48.53"/>
        <polygon class="cls-9" points="45.36 53.36 41.63 50.94 41.64 48.4 45.36 50.82 45.36 53.36"/>
        <polygon class="cls-9" points="39.96 54.46 36.24 52.05 36.24 49.51 39.96 51.92 39.96 54.46"/>
        <polygon class="cls-9" points="45.36 58.35 41.63 55.93 41.64 53.39 45.36 55.81 45.36 58.35"/>
        <polygon class="cls-9" points="39.96 58.98 36.24 56.56 36.24 54.02 39.96 56.44 39.96 58.98"/>
        <polygon class="cls-9" points="45.36 62.87 41.63 60.45 41.64 57.91 45.36 60.32 45.36 62.87"/>
        <polygon class="cls-9" points="50.79 52.22 47.06 49.81 47.06 47.26 50.79 49.68 50.79 52.22"/>
        <polygon class="cls-9" points="45.36 43.06 41.63 40.64 41.64 38.1 45.36 40.52 45.36 43.06"/>
        <polygon class="cls-9" points="50.79 46.75 47.06 44.33 47.06 41.79 50.79 44.21 50.79 46.75"/>
        <polygon class="cls-9" points="45.36 38.32 41.63 35.9 41.64 33.36 45.36 35.77 45.36 38.32"/>
        <polygon class="cls-9" points="50.79 42 47.06 39.59 47.06 37.05 50.79 39.46 50.79 42"/>
        <polygon class="cls-9" points="45.36 33.71 41.63 31.29 41.64 28.75 45.36 31.17 45.36 33.71"/>
        <polygon class="cls-9" points="50.79 37.39 47.06 34.98 47.06 32.44 50.79 34.86 50.79 37.39"/>
        <polygon class="cls-9" points="50.79 57.05 47.06 54.63 47.06 52.09 50.79 54.5 50.79 57.05"/>
        <polygon class="cls-9" points="50.79 61.72 47.06 59.3 47.06 56.77 50.79 59.18 50.79 61.72"/>
        <polygon class="cls-9" points="50.79 66.52 47.06 64.11 47.06 61.57 50.79 63.98 50.79 66.52"/>
        <polygon class="cls-9" points="50.79 71.35 47.06 68.93 47.06 66.4 50.79 68.81 50.79 71.35"/>
        <polygon class="cls-9" points="50.79 76.03 47.06 73.61 47.06 71.07 50.79 73.48 50.79 76.03"/>
        <polygon class="cls-9" points="50.79 80.93 47.06 78.52 47.06 75.98 50.79 78.39 50.79 80.93"/>
      </g>
      <polygon class="cls-7" points="92.03 91.75 92.03 25.46 69.84 11.86 69.84 78.13 92.03 91.75"/>
      <g>
        <polygon class="cls-9" points="77.6 25.94 73.88 23.53 73.88 20.98 77.6 23.39 77.6 25.94"/>
        <polygon class="cls-9" points="77.6 30.77 73.88 28.35 73.88 25.81 77.6 28.23 77.6 30.77"/>
        <polygon class="cls-9" points="77.6 35.59 73.88 33.18 73.88 30.63 77.6 33.05 77.6 35.59"/>
        <polygon class="cls-9" points="77.6 40.73 73.88 38.31 73.88 35.77 77.6 38.19 77.6 40.73"/>
        <polygon class="cls-9" points="77.6 45.56 73.88 43.14 73.88 40.6 77.6 43.02 77.6 45.56"/>
        <polygon class="cls-9" points="83 44.62 79.27 42.2 79.27 39.66 83 42.07 83 44.62"/>
        <polygon class="cls-9" points="83 49.44 79.27 47.02 79.27 44.48 83 46.9 83 49.44"/>
        <polygon class="cls-9" points="77.6 50.55 73.88 48.13 73.88 45.59 77.6 48.01 77.6 50.55"/>
        <polygon class="cls-9" points="83 54.44 79.27 52.02 79.27 49.48 83 51.9 83 54.44"/>
        <polygon class="cls-9" points="77.6 55.06 73.88 52.65 73.88 50.11 77.6 52.53 77.6 55.06"/>
        <polygon class="cls-9" points="83 58.95 79.27 56.53 79.27 53.99 83 56.41 83 58.95"/>
        <polygon class="cls-9" points="83 39.15 79.27 36.73 79.27 34.19 83 36.6 83 39.15"/>
        <polygon class="cls-9" points="83 34.4 79.27 31.98 79.27 29.44 83 31.86 83 34.4"/>
        <polygon class="cls-9" points="83 29.8 79.27 27.38 79.27 24.84 83 27.25 83 29.8"/>
      </g>
      <polygon class="cls-9" points="88.22 62.15 84.5 59.73 84.5 57.2 88.22 59.61 88.22 62.15"/>
      <polygon class="cls-9" points="88.22 66.95 84.5 64.54 84.5 62 88.22 64.41 88.22 66.95"/>
      <polygon class="cls-9" points="88.22 71.78 84.5 69.36 84.5 66.83 88.22 69.24 88.22 71.78"/>
      <polygon class="cls-9" points="88.22 76.46 84.5 74.04 84.5 71.5 88.22 73.91 88.22 76.46"/>
      <polygon class="cls-9" points="88.22 81.36 84.5 78.95 84.5 76.41 88.22 78.82 88.22 81.36"/>
    </g>
    <g>
      <g>
        <path class="cls-6" d="M154.03,24.72c-.07-.07-.15-.1-.24-.11,0-.03.02-.06.02-.09.02-.09.05-.21.02-.31.09-.02.18-.09.22-.17.1-.2-.05-.38-.24-.44.01-.02.02-.03.02-.06.02-.08,0-.18-.04-.26.23-.15.27-.57.14-.78,0,0,0,0,0,0,.08-.12.03-.31-.04-.42-.03-.05-.07-.09-.11-.13-.03-.08-.09-.11-.16-.11.04-.05.05-.13.03-.21-.04-.2-.22-.26-.39-.26,0-.07-.01-.13-.04-.17.11-.05.19-.14.16-.28-.03-.17-.16-.22-.29-.2.09-.09.16-.21.17-.33.01-.15-.09-.2-.21-.18.1-.1.14-.23.05-.37-.06-.09-.15-.13-.24-.14,0-.03,0-.05-.02-.08-.03-.09-.08-.17-.17-.21-.01,0-.02,0-.03,0-.03-.06-.09-.11-.2-.13-.16-.03-.23.11-.25.28-.03,0-.05,0-.08,0-.05-.1-.12-.17-.23-.13-.05.02-.09.05-.11.08-.11.03-.24.13-.34.24-.21-.06-.36.08-.41.27-.12-.06-.27-.05-.39.06-.03.03-.07.11-.1.2-.02,0-.03-.02-.05-.02-.26-.05-.41.18-.44.41-.1,0-.21.07-.28.18-.07-.05-.17-.06-.29,0-.1.04-.19.15-.23.26-.19-.03-.45.09-.53.31-.06-.02-.14,0-.22.08-.03.03-.06.06-.08.1-.02,0-.03,0-.05,0-.1,0-.21.07-.28.17-.05-.04-.11-.05-.17-.03-.08.02-.14.07-.18.12-.04-.02-.08-.02-.15,0-.12.03-.17.1-.19.18-.11-.06-.24-.08-.37-.02-.3.15-.11.33.1.44-.02.03-.03.06-.02.09-.1.05-.13.19-.06.28-.02.16.04.26.15.31-.09.1-.09.27.02.38-.06.08-.07.19,0,.25-.09.1-.09.28.03.39v.04c-.18.12-.2.39-.05.53-.1.11-.13.29-.02.39,0,.04,0,.07.01.11-.12.1-.2.32-.06.43-.01.04-.02.09-.02.14-.03,0-.07,0-.07.04-.02.09-.07.35.04.42.01.04.03.09.07.12-.13.1-.19.34-.03.45-.04.04-.06.11-.04.16,0,.02.01.03.02.04,0,.03.01.06.03.08-.06.09-.09.22-.04.31-.13.07-.18.26-.1.39-.11.11-.19.29-.12.44-.04.12-.06.27-.05.37,0,.03.01.05.04.06-.06.08-.1.17-.13.28,0,.03,0,.07.04.07.07.01.14,0,.2-.02.05.14.16.25.28.33.09.06.21.09.31.05.11-.04.17-.15.2-.26.16.08.35.15.53.13.06,0,.11-.03.15-.06.03,0,.05.02.08.02.2.04.35-.04.43-.18,0,0,.01,0,.02,0,.06.13.21.22.37.22.28-.01.32-.3.35-.53.03-.02.05-.04.07-.06.14.07.3.08.44.03.12-.05.15-.13.14-.23.21.12.57.05.61-.18.01,0,.03.01.04.02.03.02.07.03.1.05,0,0,.02,0,.03,0,.13.16.34.23.49.04.04-.05.07-.1.09-.16.16-.02.19-.24.19-.41.06.09.17.13.3.06.14-.07.2-.21.18-.35.1.08.25.09.37.03.15-.07.21-.19.18-.32.05.05.11.08.19.07.1-.01.16-.11.19-.2.04-.11.04-.23,0-.33.08-.07.13-.18.15-.28,0-.06,0-.12,0-.18.09-.04.15-.12.15-.26,0-.05-.02-.12-.04-.17.02-.01.04-.03.06-.05.11-.11.1-.28.04-.4.38.11.74-.38.42-.69Z"/>
        <path class="cls-1" d="M152.6,19.49c.02-.06,0-.14-.06-.21-.07-.07-.17-.1-.27-.08-.01-.02-.03-.04-.04-.06.09-.04.17-.1.19-.19.04-.18-.17-.18-.34-.16.08-.04.16-.1.22-.17,0,0,0-.02,0-.03-.14-.15-.36-.15-.56-.11.09-.07.13-.17,0-.28-.12-.12-.29-.16-.46-.15,0,0,0-.01-.01-.02-.06-.08-.18-.17-.29-.21,0-.11-.06-.25-.13-.34-.08-.1-.2-.2-.33-.22-.06,0-.12,0-.17.04-.02-.06-.05-.11-.08-.15-.07-.09-.18-.17-.3-.18-.04,0-.08,0-.11.01-.02-.07-.05-.14-.1-.19-.07-.09-.17-.18-.29-.2-.1-.01-.18.05-.23.13-.06-.25-.26-.41-.54-.35-.09.02-.24.09-.3.18-.11-.27-.34-.51-.65-.47-.15.02-.33.12-.4.24-.03,0-.07,0-.1.02-.04-.08-.13-.08-.21-.03-.3-.11-.61-.1-.6.26-.17-.22-.41-.45-.7-.29-.1.06-.2.17-.23.28-.12-.12-.29-.17-.47-.14-.19.03-.3.16-.3.32-.13-.13-.33-.15-.51-.04-.18.11-.25.28-.21.45-.25-.13-.63.18-.63.45-.11-.05-.26-.05-.35,0-.27.12-.32.4-.29.66-.15-.17-.36-.15-.5.04-.08.1-.12.23-.12.36-.19-.13-.45-.13-.63.07-.14.15-.12.38-.09.57.01.08.04.15.07.23,0,.01,0,.02,0,.04,0,0,0,0,0,0-.11.01-.19.06-.24.2-.05.17.06.36.21.48-.12,0-.23.04-.31.15-.01.02-.03.05-.03.07-.04.02-.09.05-.12.09-.09.1-.1.21-.05.3-.07,0-.14.04-.17.14-.05.16.07.27.2.31-.1.04-.16.14-.16.26,0,.06.02.1.05.13-.04.04-.06.08-.08.14,0,.02-.01.04-.02.06-.29.1-.54.61-.28.82,0,0,.01.01.02.02-.05.07-.09.15-.12.22-.02.05-.03.09-.03.14-.28.06-.34.4-.26.67.04.12.1.25.2.35-.09.2-.01.52.09.67,0,0,0,.01.01.02-.07.09-.12.22-.14.32-.04.15.03.32.09.46.03.06.07.14.12.2-.02.03-.04.05-.05.08-.09.18-.04.39.05.55.03.05.07.1.12.14-.01.02-.02.04-.02.07-.03.18.14.4.32.48,0,.1.01.21.03.3.03.15.16.28.31.34,0,0,0,.02,0,.02-.07.18-.06.32.06.48.05.06.17.16.29.23.01.25.3.41.55.37.05.05.11.09.2.11.1.03.24.02.31-.05.03.08.1.14.2.16.11.02.19-.02.23-.1.07.1.23.13.36.11.05,0,.11-.02.16-.05.08.14.28.22.44.24.13.01.29,0,.38-.11.05-.06.06-.12.06-.19.08.06.19.09.31.08,0,0,.02,0,.02,0,0,.14.1.26.28.3.1.02.22,0,.3-.06.02-.02.03-.03.05-.05.06.07.17.11.29.11.07,0,.15-.03.2-.07.04.12.17.2.34.2.23,0,.41-.15.46-.36.07.07.21.07.33.02.07-.03.12-.06.17-.11.02,0,.03-.01.05-.02.07-.04.13-.1.17-.18.13-.04.25-.15.28-.27.02-.09-.03-.14-.11-.17.05-.05.09-.13.11-.19.04-.12.06-.28,0-.38.1-.05.18-.2.21-.32.05-.18.03-.4-.09-.52.06,0,.11-.02.16-.07.1-.1.1-.28.09-.41,0-.07-.04-.23-.1-.34.31-.1.3-.7.05-.87.12-.05.18-.18.18-.34,0-.03,0-.07,0-.1.02,0,.05-.02.07-.04.15-.13.19-.35.19-.55.1.13.28.01.38-.1.15-.19.17-.45.04-.64.35.03.43-.39.3-.67.32.13.48-.33.32-.58.42.06.68-.43.6-.8,0,0,0,0,0,0,.37.21.72-.05.83-.4.07-.08.1-.2.06-.33,0,0,0,0,0,0,.28.13.62.03.86-.14.15-.11.25-.28.19-.41.04,0,.08-.03.12-.07,0,0,.02-.02.02-.03.14.02.29-.11.3-.22.11-.01.16-.23.08-.31Z"/>
        <path class="cls-8" d="M152.6,19.49c.02-.06,0-.14-.06-.21-.07-.07-.17-.1-.27-.08-.01-.02-.03-.04-.04-.06.09-.04.17-.1.19-.19.04-.18-.17-.18-.34-.16.08-.04.16-.1.22-.17,0,0,0-.02,0-.03-.14-.15-.36-.15-.56-.11.09-.07.13-.17,0-.28-.12-.12-.29-.16-.46-.15,0,0,0-.01-.01-.02-.06-.08-.18-.17-.29-.21,0-.11-.06-.25-.13-.34-.08-.1-.2-.2-.33-.22-.06,0-.12,0-.17.04-.02-.06-.05-.11-.08-.15-.07-.09-.18-.17-.3-.18-.04,0-.08,0-.11.01-.02-.07-.05-.14-.1-.19-.07-.09-.17-.18-.29-.2-.1-.01-.18.05-.23.13-.06-.25-.26-.41-.54-.35-.09.02-.24.09-.3.18-.11-.27-.34-.51-.65-.47-.15.02-.33.12-.4.24-.03,0-.07,0-.1.02-.04-.08-.13-.08-.21-.03-.3-.11-.61-.1-.6.26-.17-.22-.41-.45-.7-.29-.1.06-.2.17-.23.28-.12-.12-.29-.17-.47-.14-.19.03-.3.16-.3.32-.13-.13-.33-.15-.51-.04-.18.11-.25.28-.21.45-.25-.13-.63.18-.63.45-.11-.05-.26-.05-.35,0-.27.12-.32.4-.29.66-.15-.17-.36-.15-.5.04-.08.1-.12.23-.12.36-.19-.13-.45-.13-.63.07-.14.15-.12.38-.09.57.01.08.04.15.07.23,0,.01,0,.02,0,.04,0,0,0,0,0,0-.11.01-.19.06-.24.2-.05.17.06.36.21.48-.12,0-.23.04-.31.15,0,0,0,0,0,.01.02.01.04.02.05.04.09.05.23.09.32.03.03-.02.05-.05.06-.08.04.06.1.11.19.12.21.03.29-.17.29-.35.1.16.29.17.46.08.01,0,.02-.01.03-.02.13.11.31.16.47.05.12-.07.16-.23.17-.36.02,0,.04,0,.06,0,.15-.03.31-.1.4-.22,0,0,0,0,0,0,.04.02.08.04.13.04.12.01.21-.05.27-.14.03-.05.06-.12.07-.19.17-.06.33-.2.43-.36.11.23.32.43.58.29.11-.06.17-.19.19-.33.17-.08.31-.22.38-.39.16.16.37.29.53.11.02-.02.03-.03.04-.06.03,0,.06,0,.08,0,.04,0,.09,0,.13-.02,0,.19.03.37.19.42.16.05.28-.11.34-.23,0-.02.02-.04.02-.06.08,0,.16-.04.23-.09.07.19.22.32.46.25.07-.02.14-.08.18-.16.22.16.55.22.79.15,0,.14.04.26.2.24.12-.02.18-.17.21-.27,0,0,0-.02,0-.03.11.08.27.11.4.06.04.06.09.11.15.15.08.05.16.04.23,0,.08.06.18.1.27.13.05.01.11.02.16.01-.05.21-.02.43.25.44.18,0,.32-.11.41-.26.04,0,.09-.01.13-.03,0,.04.02.08.03.11.03.1.13.2.24.15.11-.05.15-.17.18-.28.06.09.14.15.26.18.22.06.39-.08.49-.26.02.16.15.24.31.26,0-.01-.01-.02-.02-.03Z"/>
      </g>
      <g>
        <path class="cls-6" d="M147.3,31.4c-.07-.06-.15-.1-.24-.11,0-.03.01-.06.02-.09.02-.09.05-.21.02-.31.09-.02.18-.09.22-.17.1-.2-.05-.38-.24-.44.01-.02.02-.03.02-.06.02-.08,0-.18-.04-.26.23-.15.27-.56.14-.77,0,0,0,0,0,0,.08-.12.03-.31-.04-.42-.03-.05-.07-.09-.11-.13-.03-.08-.09-.11-.16-.11.04-.05.05-.12.03-.21-.04-.19-.22-.26-.39-.26,0-.07-.01-.13-.04-.16.11-.05.18-.14.16-.28-.02-.17-.16-.22-.29-.2.09-.09.16-.21.17-.33.01-.15-.09-.2-.21-.18.1-.1.13-.23.05-.37-.06-.09-.15-.13-.24-.14,0-.03,0-.05-.02-.08-.03-.09-.08-.17-.17-.21-.01,0-.02,0-.03,0-.03-.06-.09-.11-.2-.13-.16-.03-.23.11-.25.28-.03,0-.05,0-.08,0-.05-.1-.12-.17-.23-.13-.05.02-.09.05-.11.08-.11.03-.24.13-.34.24-.21-.06-.36.08-.41.27-.12-.06-.27-.05-.39.06-.03.03-.07.11-.09.2-.02,0-.03-.01-.05-.02-.26-.05-.41.18-.44.41-.1,0-.21.06-.27.18-.07-.05-.17-.06-.29,0-.1.04-.19.15-.23.26-.19-.03-.45.09-.53.3-.06-.02-.14,0-.22.08-.03.03-.06.06-.08.1-.02,0-.03,0-.05,0-.1,0-.21.07-.28.17-.05-.04-.11-.05-.17-.03-.08.02-.14.07-.18.12-.04-.02-.08-.02-.15,0-.12.03-.17.1-.19.18-.1-.06-.24-.08-.37-.02-.3.15-.11.33.1.44-.02.03-.03.06-.02.09-.1.05-.13.19-.06.28-.02.16.04.25.15.31-.09.1-.09.27.02.37-.06.08-.07.19,0,.25-.09.1-.09.28.03.39v.04c-.18.12-.2.39-.05.53-.1.1-.13.29-.02.39,0,.04,0,.07.01.11-.12.1-.2.32-.06.43-.01.04-.02.09-.02.14-.03,0-.07,0-.07.04-.02.09-.07.35.04.42,0,.04.03.09.07.12-.13.1-.19.33-.03.45-.04.04-.05.1-.04.16,0,.02.01.03.02.04,0,.03.01.06.03.08-.06.09-.09.22-.04.31-.13.07-.18.26-.1.39-.11.11-.19.29-.12.43-.04.12-.06.27-.05.36,0,.03.02.05.04.06-.06.08-.1.17-.13.28,0,.03,0,.07.04.07.07.01.14,0,.2-.02.05.13.16.25.28.33.09.06.21.09.31.05.11-.04.17-.15.2-.26.16.08.34.15.53.13.06,0,.11-.03.15-.06.02,0,.05.02.07.02.2.04.35-.04.43-.18,0,0,.01,0,.02,0,.06.13.2.22.36.21.28-.01.32-.3.34-.53.03-.02.05-.04.07-.06.13.07.3.08.44.03.12-.05.15-.13.14-.23.21.12.57.05.61-.18.01,0,.03.01.04.02.03.02.07.03.1.05,0,0,.02,0,.03,0,.13.16.34.23.49.04.04-.05.07-.1.09-.16.16-.02.19-.24.19-.41.06.09.17.13.3.06.14-.07.2-.21.18-.35.1.08.25.09.37.03.15-.07.21-.19.18-.32.05.05.11.07.19.07.1-.01.16-.11.19-.2.04-.11.04-.23,0-.33.08-.07.13-.18.15-.28,0-.06,0-.12,0-.18.09-.04.16-.12.15-.26,0-.05-.02-.11-.04-.17.02-.01.04-.03.06-.05.11-.11.1-.28.04-.4.38.11.74-.38.42-.69Z"/>
        <path class="cls-1" d="M145.88,26.18c.02-.06,0-.14-.06-.21-.07-.07-.17-.1-.27-.08,0-.02-.02-.04-.04-.06.09-.04.17-.1.19-.19.04-.18-.18-.18-.34-.16.08-.04.16-.1.22-.17,0,0,0-.02,0-.03-.14-.15-.36-.15-.56-.11.09-.07.12-.17,0-.28-.12-.11-.29-.16-.45-.14,0,0,0-.01-.01-.02-.06-.08-.18-.17-.29-.21,0-.11-.06-.24-.13-.34-.08-.1-.2-.2-.33-.21-.06,0-.12,0-.17.04-.02-.06-.05-.11-.08-.15-.07-.09-.18-.17-.3-.18-.04,0-.08,0-.11.01-.02-.07-.05-.14-.1-.19-.07-.09-.17-.18-.29-.2-.1-.01-.18.05-.22.13-.06-.25-.26-.41-.54-.35-.09.02-.24.09-.3.18-.11-.27-.34-.51-.65-.46-.15.02-.33.12-.4.24-.03,0-.07,0-.1.02-.04-.08-.13-.08-.21-.03-.3-.11-.61-.1-.6.26-.17-.22-.41-.45-.7-.28-.1.06-.2.17-.23.28-.12-.12-.29-.17-.47-.14-.19.03-.3.16-.3.32-.13-.13-.33-.15-.51-.04-.18.11-.24.28-.21.45-.24-.13-.62.18-.63.45-.11-.05-.26-.05-.35,0-.27.11-.32.4-.29.66-.15-.17-.35-.15-.5.04-.08.1-.12.23-.12.36-.19-.13-.45-.13-.62.07-.14.15-.12.38-.09.56.01.08.03.15.07.23,0,.01,0,.02,0,.04,0,0,0,0,0,0-.1.01-.19.06-.24.2-.05.17.06.36.21.47-.12,0-.23.04-.31.15-.01.02-.03.04-.03.07-.04.02-.08.05-.12.09-.09.1-.1.21-.05.29-.07,0-.14.04-.17.14-.05.16.07.26.2.31-.1.04-.16.14-.16.25,0,.06.02.1.05.13-.04.04-.06.08-.08.14,0,.02-.01.04-.02.06-.29.1-.54.61-.28.82,0,0,.01.01.02.02-.05.07-.09.15-.12.22-.02.05-.03.09-.03.14-.28.06-.34.4-.26.67.04.12.1.25.2.35-.09.2-.01.52.09.66,0,0,0,.01.01.02-.07.09-.12.22-.14.31-.04.15.03.32.09.45.03.06.07.14.12.2-.02.03-.04.05-.05.08-.09.18-.04.39.05.55.03.05.07.1.12.14-.01.02-.02.04-.02.07-.03.18.14.39.32.48,0,.1.01.21.03.3.03.15.16.28.31.34,0,0,0,.01,0,.02-.07.18-.06.32.06.48.05.06.17.16.29.23.01.25.3.41.55.37.04.05.11.09.2.11.1.03.24.02.31-.04.03.08.1.14.2.16.11.02.19-.02.23-.1.07.1.23.12.36.11.05,0,.11-.02.16-.05.08.14.28.22.44.24.13.02.29,0,.38-.11.05-.06.06-.12.06-.19.08.06.19.09.31.08,0,0,.02,0,.02,0,0,.14.1.26.28.3.1.02.22,0,.3-.06.02-.02.03-.03.05-.05.06.07.17.11.29.11.07,0,.14-.03.2-.07.04.12.17.2.34.2.23,0,.41-.15.46-.36.07.07.21.07.32.02.07-.03.12-.06.17-.11.02,0,.03-.01.05-.02.07-.04.13-.1.17-.18.13-.04.25-.15.28-.27.02-.09-.03-.14-.11-.17.05-.05.09-.13.11-.19.04-.12.06-.27,0-.38.1-.05.18-.19.21-.32.05-.18.03-.39-.09-.52.06,0,.11-.02.16-.07.1-.1.1-.28.09-.41,0-.07-.04-.23-.1-.34.31-.1.3-.69.05-.87.12-.05.18-.18.18-.34,0-.03,0-.07,0-.1.02,0,.05-.02.07-.04.15-.13.19-.35.19-.55.1.13.28.01.38-.1.15-.19.17-.44.04-.64.35.03.43-.39.3-.66.32.12.48-.32.32-.58.42.06.68-.42.6-.8,0,0,0,0,0,0,.37.21.72-.05.83-.4.07-.08.1-.2.06-.33,0,0,0,0,0,0,.28.13.62.03.85-.14.15-.11.25-.27.18-.41.04,0,.08-.03.12-.07,0,0,.02-.02.02-.03.14.02.28-.11.3-.22.11,0,.16-.23.08-.31Z"/>
        <path class="cls-8" d="M145.88,26.18c.02-.06,0-.14-.06-.21-.07-.07-.17-.1-.27-.08,0-.02-.02-.04-.04-.06.09-.04.17-.1.19-.19.04-.18-.18-.18-.34-.16.08-.04.16-.1.22-.17,0,0,0-.02,0-.03-.14-.15-.36-.15-.56-.11.09-.07.12-.17,0-.28-.12-.11-.29-.16-.45-.14,0,0,0-.01-.01-.02-.06-.08-.18-.17-.29-.21,0-.11-.06-.24-.13-.34-.08-.1-.2-.2-.33-.21-.06,0-.12,0-.17.04-.02-.06-.05-.11-.08-.15-.07-.09-.18-.17-.3-.18-.04,0-.08,0-.11.01-.02-.07-.05-.14-.1-.19-.07-.09-.17-.18-.29-.2-.1-.01-.18.05-.22.13-.06-.25-.26-.41-.54-.35-.09.02-.24.09-.3.18-.11-.27-.34-.51-.65-.46-.15.02-.33.12-.4.24-.03,0-.07,0-.1.02-.04-.08-.13-.08-.21-.03-.3-.11-.61-.1-.6.26-.17-.22-.41-.45-.7-.28-.1.06-.2.17-.23.28-.12-.12-.29-.17-.47-.14-.19.03-.3.16-.3.32-.13-.13-.33-.15-.51-.04-.18.11-.24.28-.21.45-.24-.13-.62.18-.63.45-.11-.05-.26-.05-.35,0-.27.11-.32.4-.29.66-.15-.17-.35-.15-.5.04-.08.1-.12.23-.12.36-.19-.13-.45-.13-.62.07-.14.15-.12.38-.09.56.01.08.03.15.07.23,0,.01,0,.02,0,.04,0,0,0,0,0,0-.1.01-.19.06-.24.2-.05.17.06.36.21.47-.12,0-.23.04-.31.15,0,0,0,0,0,.01.02.01.04.03.05.04.09.05.22.09.32.03.03-.02.05-.05.06-.08.04.06.1.11.19.12.21.03.29-.17.29-.34.1.16.29.17.46.08.01,0,.02-.01.03-.02.13.11.31.15.47.05.12-.07.16-.23.17-.36.02,0,.04,0,.06,0,.15-.03.31-.1.4-.22,0,0,0,0,0,0,.04.02.08.04.13.04.11.01.21-.05.27-.14.04-.05.06-.12.07-.19.17-.06.33-.2.43-.36.11.23.32.43.58.29.11-.06.17-.19.19-.33.17-.08.31-.22.38-.39.16.16.37.29.53.11.01-.02.03-.03.04-.06.03,0,.06,0,.08,0,.04,0,.08,0,.13-.02,0,.19.03.37.19.42.16.05.28-.11.34-.23,0-.02.01-.04.02-.06.08,0,.16-.04.23-.09.07.19.22.32.46.25.07-.02.14-.08.18-.16.22.16.55.22.79.15,0,.14.04.26.2.24.12-.02.18-.17.21-.27,0,0,0-.02,0-.03.11.08.27.11.39.06.04.06.09.11.15.15.08.05.16.04.23,0,.08.06.18.1.27.13.05.01.11.02.16.01-.05.21-.02.43.25.44.18,0,.32-.11.41-.26.04,0,.09-.01.13-.03,0,.04.02.08.03.11.03.1.13.2.24.15.1-.05.15-.17.17-.28.06.09.14.15.26.18.22.06.39-.08.49-.26.02.16.15.24.31.26,0-.01-.01-.02-.02-.03Z"/>
      </g>
      <g>
        <path class="cls-6" d="M159.71,29.94c-.06-.05-.13-.08-.2-.09,0-.02.01-.05.02-.08.02-.08.04-.17.02-.25.07-.02.15-.07.18-.14.08-.16-.04-.31-.2-.36,0-.01.02-.03.02-.05.02-.07,0-.15-.03-.22.19-.12.22-.46.11-.64,0,0,0,0,0,0,.06-.1.02-.25-.03-.35-.02-.04-.05-.08-.09-.1-.02-.06-.08-.09-.14-.09.03-.04.04-.1.03-.17-.03-.16-.18-.21-.32-.22,0-.05,0-.1-.04-.14.09-.04.15-.12.13-.23-.02-.14-.13-.18-.24-.16.08-.07.13-.17.14-.27.01-.13-.07-.16-.17-.15.08-.08.11-.19.04-.3-.05-.07-.12-.11-.2-.12,0-.02,0-.04-.01-.07-.02-.07-.07-.14-.14-.17,0,0-.02,0-.03,0-.02-.05-.07-.09-.17-.11-.14-.02-.19.09-.2.23-.02,0-.04,0-.06,0-.04-.08-.1-.14-.19-.11-.04.02-.07.04-.09.07-.09.03-.2.1-.28.19-.17-.05-.3.07-.34.22-.1-.05-.22-.04-.32.05-.03.02-.06.09-.08.16-.01,0-.03-.01-.04-.01-.21-.04-.34.15-.36.34-.08,0-.18.05-.23.15-.06-.04-.14-.05-.24,0-.08.04-.16.12-.19.22-.15-.02-.37.07-.44.25-.05-.02-.11,0-.18.06-.03.03-.05.05-.07.08-.01,0-.03,0-.04,0-.08,0-.17.06-.23.14-.04-.03-.09-.04-.14-.03-.07.02-.12.06-.15.1-.03-.02-.07-.02-.12,0-.1.03-.14.08-.16.15-.09-.05-.2-.06-.3-.01-.25.12-.09.27.08.36-.02.03-.02.05-.02.08-.08.04-.11.16-.05.23-.02.13.03.21.12.26-.07.08-.07.22.02.31-.05.06-.06.15,0,.21-.07.08-.07.23.02.32v.03c-.15.1-.17.32-.04.44-.08.09-.11.24-.01.32,0,.03,0,.06,0,.09-.1.08-.17.27-.05.35-.01.03-.01.07-.01.12-.02,0-.05,0-.06.03-.02.08-.06.28.03.35,0,.04.03.07.06.1-.11.08-.16.28-.02.37-.03.04-.05.09-.03.13,0,.01,0,.02.02.04,0,.03.01.05.02.06-.05.08-.07.18-.03.25-.11.06-.15.22-.08.32-.09.09-.16.24-.1.36-.04.1-.05.23-.04.3,0,.02.01.04.03.05-.05.06-.08.14-.11.23,0,.02,0,.05.03.06.05.01.11,0,.17-.01.04.11.13.21.23.27.08.05.17.07.26.04.09-.03.14-.13.16-.21.13.06.28.12.43.1.05,0,.09-.02.12-.05.02,0,.04.01.06.02.16.03.29-.03.35-.15,0,0,.01,0,.02,0,.05.11.17.18.3.18.23-.01.27-.24.28-.44.02-.01.04-.03.06-.05.11.06.25.07.36.02.1-.04.12-.11.11-.19.17.1.47.04.5-.15.01,0,.02.01.04.01.03.02.05.03.08.04,0,0,.02,0,.02,0,.1.13.28.19.41.04.03-.04.06-.08.07-.13.13-.02.15-.2.16-.34.05.08.14.11.25.05.11-.06.16-.17.15-.29.08.07.21.07.31.03.12-.06.18-.16.15-.26.04.04.09.06.15.05.08-.01.13-.09.16-.16.04-.09.03-.19,0-.27.07-.06.11-.15.12-.23,0-.05,0-.1,0-.15.08-.03.13-.1.12-.21,0-.04-.01-.09-.04-.14.02,0,.04-.02.05-.04.09-.09.09-.23.03-.33.31.09.61-.31.35-.57Z"/>
        <path class="cls-1" d="M158.53,25.64c.02-.05,0-.12-.05-.17-.06-.06-.14-.08-.22-.07,0-.02-.02-.03-.04-.05.08-.03.14-.08.16-.16.03-.14-.14-.15-.28-.13.07-.04.13-.08.18-.14,0,0,0-.02,0-.02-.12-.12-.29-.13-.46-.09.07-.06.1-.14,0-.23-.1-.09-.24-.13-.37-.12,0,0,0,0-.01-.01-.05-.06-.15-.14-.24-.17,0-.09-.05-.2-.11-.28-.07-.08-.17-.17-.28-.18-.05,0-.1,0-.14.03-.02-.05-.04-.09-.07-.12-.06-.08-.15-.14-.25-.15-.03,0-.06,0-.09.01-.02-.06-.04-.11-.08-.16-.06-.07-.14-.15-.24-.16-.09,0-.15.04-.19.11-.05-.21-.22-.33-.44-.29-.07.01-.2.07-.25.15-.09-.22-.28-.42-.53-.38-.13.02-.28.1-.33.2-.03,0-.06,0-.08.01-.04-.06-.11-.06-.18-.02-.24-.09-.5-.08-.49.21-.14-.18-.34-.37-.57-.23-.08.05-.16.14-.19.23-.1-.1-.23-.14-.39-.12-.16.03-.25.14-.25.26-.1-.11-.27-.13-.42-.03-.15.09-.2.23-.17.37-.2-.11-.51.15-.52.37-.09-.04-.21-.04-.29,0-.22.09-.26.33-.24.54-.12-.14-.29-.12-.41.04-.06.08-.1.19-.1.29-.15-.1-.37-.1-.51.05-.11.13-.1.31-.07.46.01.06.03.13.06.19,0,0,0,.02,0,.03,0,0,0,0,0,0-.09,0-.16.05-.19.16-.04.14.05.29.17.39-.1,0-.19.03-.26.12-.01.02-.02.04-.03.06-.03.02-.07.04-.1.07-.07.08-.08.17-.04.24-.06,0-.11.03-.14.11-.04.13.06.22.17.25-.08.03-.13.11-.13.21,0,.05.02.08.04.11-.03.03-.05.07-.07.11,0,.02-.01.04-.01.05-.24.09-.44.5-.23.67,0,0,.01,0,.02.01-.04.05-.07.12-.1.18-.01.04-.02.08-.02.11-.23.05-.28.33-.21.55.03.1.08.21.16.29-.07.16,0,.43.07.55,0,0,0,0,0,.01-.06.08-.1.18-.12.26-.03.12.02.26.07.37.02.05.06.11.1.16-.02.02-.03.04-.04.07-.07.15-.04.32.04.45.02.04.06.08.1.11,0,.02-.02.04-.02.05-.03.15.11.33.26.4,0,.08.01.17.03.24.03.12.13.23.25.28,0,0,0,.01,0,.02-.06.15-.05.26.05.39.04.05.14.13.24.19,0,.2.25.34.45.31.04.04.09.07.16.09.09.02.2.01.26-.04.02.06.08.11.16.13.09.02.15-.02.19-.08.05.08.19.1.3.09.04,0,.09-.02.13-.04.06.11.23.18.36.2.11.01.24,0,.31-.09.04-.04.05-.1.05-.16.07.05.16.07.25.07,0,0,.01,0,.02,0,0,.12.08.22.23.25.08.02.18,0,.25-.05.02-.01.03-.03.04-.04.05.06.14.09.24.09.06,0,.12-.02.17-.06.04.1.14.17.28.17.19,0,.34-.13.38-.29.06.06.17.06.27.02.05-.02.1-.05.14-.09.01,0,.03-.01.04-.02.06-.03.11-.09.14-.15.1-.03.21-.12.23-.22.02-.08-.03-.12-.09-.14.04-.04.07-.1.09-.15.04-.09.05-.23,0-.31.08-.04.15-.16.18-.26.04-.15.02-.32-.07-.43.05,0,.09-.02.13-.06.08-.08.08-.23.08-.34,0-.06-.03-.19-.08-.28.26-.08.24-.57.04-.71.1-.04.15-.15.15-.28,0-.03,0-.06,0-.08.02,0,.04-.02.06-.03.13-.1.16-.29.16-.45.08.1.23.01.31-.08.12-.16.14-.37.03-.53.29.03.35-.32.24-.55.26.1.4-.27.26-.48.34.05.56-.35.49-.66,0,0,0,0,0,0,.3.17.59-.04.69-.33.06-.07.08-.16.05-.27,0,0,0,0,0,0,.23.11.51.03.7-.11.12-.09.2-.23.15-.34.03,0,.07-.03.1-.06,0,0,.01-.02.02-.02.11.02.24-.09.25-.18.09,0,.13-.19.07-.26Z"/>
        <path class="cls-8" d="M158.53,25.64c.02-.05,0-.12-.05-.17-.06-.06-.14-.08-.22-.07,0-.02-.02-.03-.04-.05.08-.03.14-.08.16-.16.03-.14-.14-.15-.28-.13.07-.04.13-.08.18-.14,0,0,0-.02,0-.02-.12-.12-.29-.13-.46-.09.07-.06.1-.14,0-.23-.1-.09-.24-.13-.37-.12,0,0,0,0-.01-.01-.05-.06-.15-.14-.24-.17,0-.09-.05-.2-.11-.28-.07-.08-.17-.17-.28-.18-.05,0-.1,0-.14.03-.02-.05-.04-.09-.07-.12-.06-.08-.15-.14-.25-.15-.03,0-.06,0-.09.01-.02-.06-.04-.11-.08-.16-.06-.07-.14-.15-.24-.16-.09,0-.15.04-.19.11-.05-.21-.22-.33-.44-.29-.07.01-.2.07-.25.15-.09-.22-.28-.42-.53-.38-.13.02-.28.1-.33.2-.03,0-.06,0-.08.01-.04-.06-.11-.06-.18-.02-.24-.09-.5-.08-.49.21-.14-.18-.34-.37-.57-.23-.08.05-.16.14-.19.23-.1-.1-.23-.14-.39-.12-.16.03-.25.14-.25.26-.1-.11-.27-.13-.42-.03-.15.09-.2.23-.17.37-.2-.11-.51.15-.52.37-.09-.04-.21-.04-.29,0-.22.09-.26.33-.24.54-.12-.14-.29-.12-.41.04-.06.08-.1.19-.1.29-.15-.1-.37-.1-.51.05-.11.13-.1.31-.07.46.01.06.03.13.06.19,0,0,0,.02,0,.03,0,0,0,0,0,0-.09,0-.16.05-.19.16-.04.14.05.29.17.39-.1,0-.19.03-.26.12,0,0,0,0,0,0,.01.01.03.02.05.03.08.04.19.08.27.03.03-.02.04-.04.05-.06.03.05.09.09.16.1.17.02.24-.14.24-.28.08.13.24.14.38.07,0,0,.02,0,.02-.01.1.09.25.13.39.04.1-.06.13-.19.14-.3.02,0,.03,0,.05,0,.12-.02.25-.08.33-.18,0,0,0,0,0,0,.03.02.07.03.1.04.1,0,.17-.04.22-.12.03-.04.05-.1.06-.16.14-.05.27-.16.35-.3.09.19.26.35.48.24.09-.05.14-.16.15-.27.14-.07.26-.18.31-.32.13.13.3.24.44.09.01-.01.02-.03.03-.05.02,0,.05,0,.07,0,.03,0,.07,0,.11-.01,0,.15.02.3.16.34.13.04.23-.09.28-.19,0-.02.01-.03.02-.05.07,0,.13-.03.19-.07.06.15.19.26.38.21.06-.02.11-.07.15-.13.18.13.45.18.65.12,0,.12.04.21.16.2.1-.01.15-.14.17-.22,0,0,0-.02,0-.02.09.07.22.09.32.05.03.05.07.09.12.12.07.04.13.03.19,0,.07.05.14.09.23.1.04.01.09.01.13.01-.04.17-.01.35.2.36.15,0,.26-.09.33-.21.04,0,.07-.01.1-.02,0,.03.01.06.02.09.03.08.1.16.19.12.09-.04.13-.14.14-.23.05.07.12.13.21.15.18.05.32-.07.4-.21.02.13.12.2.26.22,0-.01-.01-.02-.02-.03Z"/>
      </g>
      <g>
        <path class="cls-6" d="M145.99,41.43c-.06-.06-.14-.09-.22-.1,0-.03.01-.06.02-.08.02-.08.05-.19.02-.28.08-.02.16-.08.2-.16.09-.18-.05-.34-.22-.4,0-.01.02-.03.02-.05.02-.08,0-.16-.04-.24.21-.13.24-.51.12-.7,0,0,0,0,0,0,.07-.11.02-.28-.03-.38-.03-.05-.06-.09-.1-.12-.03-.07-.08-.1-.15-.1.03-.05.05-.11.03-.19-.04-.18-.19-.23-.35-.24,0-.06,0-.12-.04-.15.1-.04.17-.13.15-.25-.02-.15-.14-.2-.27-.18.08-.08.14-.19.15-.3.01-.14-.08-.18-.19-.16.09-.09.12-.21.05-.33-.05-.08-.13-.12-.22-.13,0-.02,0-.05-.02-.07-.02-.08-.08-.16-.16-.19,0,0-.02,0-.03,0-.02-.06-.08-.1-.18-.12-.15-.03-.21.1-.22.25-.02,0-.05,0-.07,0-.04-.09-.11-.16-.21-.12-.04.02-.08.04-.1.07-.1.03-.22.11-.31.21-.19-.06-.33.08-.37.25-.11-.05-.24-.05-.36.05-.03.03-.06.1-.09.18-.02,0-.03-.01-.04-.02-.23-.05-.37.16-.4.37-.09,0-.19.06-.25.16-.07-.04-.16-.05-.26,0-.09.04-.17.14-.21.24-.17-.02-.4.08-.48.28-.06-.02-.12,0-.2.07-.03.03-.05.06-.07.09-.01,0-.03,0-.04,0-.09,0-.19.07-.25.15-.04-.03-.1-.05-.16-.03-.07.02-.13.06-.16.11-.03-.02-.08-.02-.13,0-.1.03-.16.09-.17.16-.1-.06-.22-.07-.33-.01-.27.13-.1.3.09.4-.02.03-.03.06-.02.08-.09.04-.12.17-.06.25-.02.14.04.23.14.28-.08.09-.08.25.02.34-.06.07-.06.17,0,.23-.08.09-.08.26.03.35v.03c-.16.11-.19.35-.04.48-.09.09-.12.26-.02.35,0,.03,0,.07.01.1-.11.09-.18.29-.06.39-.01.04-.02.08-.01.13-.03,0-.06,0-.07.04-.02.08-.06.31.03.38,0,.04.03.08.06.11-.12.09-.17.3-.02.4-.03.04-.05.09-.04.15,0,.01.01.03.02.04,0,.03.01.05.03.07-.06.09-.08.2-.03.28-.12.07-.16.24-.09.35-.1.1-.17.26-.11.39-.04.11-.05.25-.05.33,0,.02.01.04.04.05-.05.07-.09.16-.12.25,0,.03,0,.06.04.06.06.01.12,0,.18-.02.05.12.14.23.25.3.08.05.19.08.28.05.1-.03.15-.14.18-.24.15.07.31.13.48.11.05,0,.1-.03.13-.05.02,0,.05.01.07.02.18.04.32-.04.38-.17,0,0,.01,0,.02,0,.06.12.19.2.33.19.26-.01.29-.27.31-.48.03-.01.05-.03.07-.05.12.06.27.08.4.03.11-.04.13-.12.12-.21.19.1.51.05.55-.17.01,0,.03.01.04.02.03.02.06.03.09.04,0,0,.02,0,.03,0,.12.14.31.21.45.04.04-.04.06-.09.08-.15.14-.02.17-.22.17-.37.06.09.16.12.27.06.13-.06.18-.19.16-.32.09.07.23.08.34.03.13-.06.19-.17.17-.29.05.04.1.07.17.06.09-.01.14-.1.17-.18.04-.1.04-.21,0-.29.07-.06.12-.16.13-.25,0-.05,0-.11,0-.16.08-.03.14-.1.14-.23,0-.05-.02-.1-.04-.16.02,0,.04-.02.06-.04.1-.1.09-.25.04-.36.34.1.67-.34.38-.62Z"/>
        <path class="cls-1" d="M144.7,36.71c.02-.06,0-.13-.06-.19-.07-.07-.16-.09-.24-.08,0-.02-.02-.04-.04-.05.08-.04.15-.09.17-.17.04-.16-.16-.16-.31-.14.08-.04.14-.09.2-.16,0,0,0-.02,0-.02-.13-.13-.32-.14-.51-.1.08-.06.11-.15,0-.26-.1-.1-.26-.14-.41-.13,0,0,0,0-.01-.01-.06-.07-.16-.15-.26-.19,0-.1-.05-.22-.12-.31-.07-.09-.18-.18-.3-.19-.06,0-.11,0-.15.03-.02-.05-.05-.1-.07-.13-.07-.09-.16-.15-.27-.17-.04,0-.07,0-.1.01-.02-.06-.05-.12-.09-.17-.06-.08-.15-.17-.26-.18-.1-.01-.16.04-.2.12-.06-.23-.24-.37-.49-.32-.08.02-.21.08-.27.16-.1-.24-.31-.46-.59-.42-.14.02-.3.11-.36.22-.03,0-.06,0-.09.01-.04-.07-.12-.07-.19-.03-.27-.1-.55-.09-.54.23-.16-.2-.37-.41-.63-.26-.09.05-.18.15-.21.25-.1-.11-.26-.16-.43-.13-.17.03-.27.15-.27.29-.11-.12-.29-.14-.46-.04-.16.1-.22.26-.19.41-.22-.12-.56.16-.57.41-.1-.05-.23-.04-.32,0-.24.1-.29.36-.26.6-.13-.15-.32-.13-.46.04-.07.09-.11.21-.1.32-.17-.12-.41-.11-.57.06-.12.14-.11.34-.08.51.01.07.03.14.06.2,0,.01,0,.02,0,.03,0,0,0,0,0,0-.1.01-.18.06-.21.18-.05.16.05.32.19.43-.11,0-.21.04-.28.13-.01.02-.02.04-.03.06-.04.02-.08.04-.11.08-.08.09-.09.19-.04.27-.07,0-.13.04-.16.12-.05.14.06.24.19.28-.09.04-.14.12-.14.23,0,.05.02.09.05.12-.03.03-.06.08-.08.13,0,.02-.01.04-.01.06-.26.09-.49.55-.25.74,0,0,.01,0,.02.01-.05.06-.08.13-.11.2-.02.04-.02.08-.03.12-.26.06-.31.36-.23.6.03.11.09.23.18.31-.08.18,0,.47.08.6,0,0,0,.01.01.01-.07.08-.11.2-.13.28-.03.13.02.29.08.41.03.06.06.12.11.18-.02.02-.03.05-.05.07-.08.16-.04.35.05.5.03.05.06.09.1.13-.01.02-.02.04-.02.06-.03.17.12.36.29.44,0,.09.01.19.03.27.03.14.15.25.28.3,0,0,0,.01,0,.02-.07.16-.06.29.05.43.04.06.15.15.27.2.01.22.27.37.5.34.04.05.1.08.18.1.09.03.22.02.28-.04.03.07.09.13.18.14.1.02.17-.02.21-.09.06.09.21.11.33.1.05,0,.1-.02.15-.04.07.12.26.2.4.22.12.01.26,0,.34-.1.04-.05.05-.11.05-.17.07.06.17.08.28.07,0,0,.01,0,.02,0,0,.13.09.24.26.27.09.02.2,0,.27-.05.02-.01.03-.03.04-.05.06.07.15.1.26.1.06,0,.13-.02.18-.06.04.11.15.18.31.18.21,0,.37-.14.42-.32.06.06.19.06.29.02.06-.02.11-.06.15-.1.01,0,.03-.01.04-.02.07-.04.12-.09.15-.16.11-.03.23-.13.25-.24.02-.09-.03-.13-.1-.16.05-.05.08-.11.1-.17.04-.1.06-.25,0-.34.09-.05.16-.18.19-.29.04-.16.02-.36-.08-.47.05,0,.1-.02.14-.06.09-.09.09-.25.08-.37,0-.06-.04-.2-.09-.31.28-.09.27-.63.05-.78.1-.04.16-.16.16-.31,0-.03,0-.06,0-.09.02,0,.04-.02.06-.04.14-.12.17-.32.17-.49.09.12.26.01.34-.09.13-.17.16-.4.04-.58.32.03.39-.35.27-.6.29.11.44-.29.29-.52.38.05.61-.38.54-.72,0,0,0,0,0,0,.33.19.65-.04.75-.36.07-.08.09-.18.06-.3,0,0,0,0,0,0,.25.12.56.03.77-.13.13-.1.22-.25.17-.37.04,0,.07-.03.11-.07,0,0,.02-.02.02-.03.12.02.26-.1.27-.2.1,0,.14-.2.07-.28Z"/>
        <path class="cls-8" d="M144.7,36.71c.02-.06,0-.13-.06-.19-.07-.07-.16-.09-.24-.08,0-.02-.02-.04-.04-.05.08-.04.15-.09.17-.17.04-.16-.16-.16-.31-.14.08-.04.14-.09.2-.16,0,0,0-.02,0-.02-.13-.13-.32-.14-.51-.1.08-.06.11-.15,0-.26-.1-.1-.26-.14-.41-.13,0,0,0,0-.01-.01-.06-.07-.16-.15-.26-.19,0-.1-.05-.22-.12-.31-.07-.09-.18-.18-.3-.19-.06,0-.11,0-.15.03-.02-.05-.05-.1-.07-.13-.07-.09-.16-.15-.27-.17-.04,0-.07,0-.1.01-.02-.06-.05-.12-.09-.17-.06-.08-.15-.17-.26-.18-.1-.01-.16.04-.2.12-.06-.23-.24-.37-.49-.32-.08.02-.21.08-.27.16-.1-.24-.31-.46-.59-.42-.14.02-.3.11-.36.22-.03,0-.06,0-.09.01-.04-.07-.12-.07-.19-.03-.27-.1-.55-.09-.54.23-.16-.2-.37-.41-.63-.26-.09.05-.18.15-.21.25-.1-.11-.26-.16-.43-.13-.17.03-.27.15-.27.29-.11-.12-.29-.14-.46-.04-.16.1-.22.26-.19.41-.22-.12-.56.16-.57.41-.1-.05-.23-.04-.32,0-.24.1-.29.36-.26.6-.13-.15-.32-.13-.46.04-.07.09-.11.21-.1.32-.17-.12-.41-.11-.57.06-.12.14-.11.34-.08.51.01.07.03.14.06.2,0,.01,0,.02,0,.03,0,0,0,0,0,0-.1.01-.18.06-.21.18-.05.16.05.32.19.43-.11,0-.21.04-.28.13,0,0,0,0,0,0,.02.01.03.02.05.03.08.05.2.08.29.03.03-.02.05-.04.06-.07.04.06.09.1.17.11.19.03.26-.15.27-.31.09.14.26.16.42.07,0,0,.02-.01.03-.02.11.1.28.14.43.05.11-.07.14-.2.15-.32.02,0,.04,0,.05,0,.13-.02.28-.09.36-.2,0,0,0,0,0,0,.04.02.07.03.11.04.1,0,.19-.05.25-.13.03-.05.06-.11.07-.18.15-.05.3-.18.39-.33.1.21.29.39.52.26.1-.05.16-.17.17-.3.15-.07.28-.19.34-.35.15.14.33.26.48.1.01-.01.02-.03.03-.05.03,0,.05,0,.08,0,.04,0,.08,0,.12-.02,0,.17.03.33.17.38.14.04.26-.1.31-.21,0-.02.01-.04.02-.05.08,0,.14-.04.21-.08.07.17.2.29.42.22.07-.02.12-.07.16-.14.2.14.5.2.71.13,0,.13.04.23.18.21.11-.02.16-.16.19-.25,0,0,0-.02,0-.03.1.07.24.1.36.06.03.05.08.1.13.13.08.05.15.04.2,0,.07.05.16.09.25.11.05.01.1.01.15.01-.04.19-.01.39.22.4.16,0,.29-.1.37-.23.04,0,.08-.01.11-.03,0,.03.01.07.02.1.03.09.11.18.21.13.1-.04.14-.15.16-.25.05.08.13.14.23.17.19.05.35-.07.44-.23.02.15.13.22.28.24,0-.01-.01-.02-.02-.03Z"/>
      </g>
      <g>
        <path class="cls-6" d="M161.07,40.3c-.06-.06-.14-.09-.22-.1,0-.03.01-.05.02-.08.02-.08.05-.19.02-.28.08-.02.16-.08.2-.15.09-.18-.05-.34-.22-.4,0-.01.02-.03.02-.05.02-.08,0-.16-.04-.24.21-.13.24-.51.12-.7,0,0,0,0,0,0,.07-.11.02-.28-.03-.38-.02-.05-.06-.09-.1-.12-.03-.07-.08-.09-.15-.1.03-.05.05-.11.03-.19-.04-.18-.19-.23-.35-.24,0-.06,0-.12-.04-.15.1-.04.17-.13.15-.25-.02-.15-.14-.2-.27-.18.08-.08.14-.19.15-.3.01-.14-.08-.18-.19-.16.09-.09.12-.21.05-.33-.05-.08-.13-.12-.22-.13,0-.02,0-.05-.02-.07-.02-.08-.08-.16-.16-.19,0,0-.02,0-.03,0-.03-.06-.08-.1-.18-.12-.15-.03-.21.1-.22.25-.02,0-.05,0-.07,0-.04-.09-.11-.16-.21-.12-.04.02-.08.04-.1.07-.1.03-.22.11-.31.21-.19-.06-.33.08-.37.25-.11-.05-.24-.05-.36.05-.03.03-.06.1-.09.18-.02,0-.03-.01-.04-.02-.23-.05-.37.16-.4.37-.09,0-.19.06-.25.16-.07-.04-.16-.05-.26,0-.09.04-.17.14-.21.24-.17-.02-.4.08-.48.28-.06-.02-.12,0-.2.07-.03.03-.05.06-.07.09-.01,0-.03,0-.04,0-.09,0-.19.07-.25.15-.04-.03-.1-.05-.16-.03-.07.02-.13.06-.16.11-.03-.02-.08-.02-.13,0-.1.03-.16.09-.17.16-.09-.06-.22-.07-.33-.01-.27.13-.1.3.09.4-.02.03-.03.06-.02.08-.09.04-.12.17-.06.25-.02.14.04.23.14.28-.08.09-.08.25.02.34-.06.07-.06.17,0,.23-.08.09-.08.25.03.35v.03c-.16.11-.18.35-.04.48-.09.1-.12.26-.02.35,0,.03,0,.07.01.1-.11.09-.18.29-.06.39-.01.04-.02.08-.01.13-.03,0-.06,0-.07.04-.02.08-.06.31.03.38,0,.04.03.08.06.11-.12.09-.17.3-.02.4-.03.04-.05.09-.04.15,0,.01.01.03.02.04,0,.03.01.05.02.07-.06.09-.08.2-.03.28-.12.07-.16.24-.09.35-.1.1-.17.26-.11.39-.04.11-.05.25-.05.33,0,.02.01.04.04.05-.05.07-.09.16-.12.25,0,.03,0,.06.04.06.06.01.12,0,.18-.02.05.12.14.23.25.3.08.05.19.08.28.05.1-.03.15-.14.18-.24.15.07.31.13.48.11.05,0,.1-.03.14-.05.02,0,.04.01.07.02.18.04.32-.04.38-.17,0,0,.01,0,.02,0,.06.12.19.2.33.19.26-.01.29-.27.31-.48.03-.02.05-.03.07-.05.12.06.27.08.4.03.1-.04.13-.12.12-.21.19.1.51.05.55-.17.01,0,.03.01.04.02.03.02.06.03.09.04,0,0,.02,0,.03,0,.12.14.31.21.45.04.04-.04.06-.09.08-.15.15-.02.17-.22.17-.37.06.09.16.12.27.06.12-.06.18-.19.16-.32.09.07.22.08.34.03.13-.06.19-.17.17-.29.05.04.1.07.17.06.09-.01.14-.1.17-.18.04-.1.04-.21,0-.29.07-.06.12-.16.13-.25,0-.05,0-.11,0-.16.08-.03.14-.1.14-.24,0-.05-.02-.1-.04-.16.02,0,.04-.02.06-.04.1-.1.09-.25.04-.36.34.1.67-.34.38-.62Z"/>
        <path class="cls-1" d="M159.78,35.58c.02-.06,0-.13-.06-.19-.07-.07-.16-.09-.24-.08,0-.02-.02-.04-.04-.05.08-.04.16-.09.17-.17.04-.16-.16-.16-.31-.14.07-.04.14-.09.2-.15,0,0,0-.02,0-.02-.13-.13-.32-.14-.5-.1.08-.06.11-.15,0-.26-.1-.1-.26-.14-.41-.13,0,0,0,0-.01-.01-.06-.07-.16-.16-.26-.19,0-.1-.05-.22-.12-.31-.07-.09-.18-.18-.3-.19-.06,0-.11,0-.15.03-.02-.05-.05-.1-.07-.13-.07-.09-.16-.15-.27-.16-.04,0-.07,0-.1.01-.02-.06-.05-.12-.09-.17-.06-.08-.15-.17-.26-.18-.1-.01-.16.04-.2.12-.06-.23-.24-.37-.49-.32-.08.02-.21.08-.27.16-.1-.24-.31-.46-.59-.42-.14.02-.3.11-.36.22-.03,0-.06,0-.09.01-.04-.07-.12-.07-.19-.03-.27-.1-.55-.09-.54.23-.16-.2-.37-.41-.63-.26-.09.05-.18.15-.21.25-.11-.11-.26-.16-.43-.13-.17.03-.27.15-.27.29-.12-.12-.29-.14-.46-.04-.16.1-.22.26-.19.41-.22-.12-.57.16-.57.41-.1-.05-.23-.04-.32,0-.24.1-.29.36-.26.59-.13-.15-.32-.13-.46.04-.07.09-.11.21-.1.32-.17-.12-.41-.11-.57.06-.12.14-.11.34-.08.51.01.07.03.14.06.2,0,.01,0,.02,0,.03,0,0,0,0,0,0-.1,0-.18.06-.21.18-.05.16.05.32.19.43-.11,0-.21.04-.28.13-.01.02-.02.04-.03.06-.04.02-.08.04-.11.08-.08.09-.09.19-.04.27-.07,0-.13.04-.16.12-.05.14.06.24.18.28-.09.04-.14.12-.14.23,0,.05.02.09.05.12-.03.03-.06.08-.08.13,0,.02-.01.04-.02.06-.26.09-.49.55-.25.74,0,0,.01,0,.02.01-.05.06-.08.13-.11.2-.02.04-.02.08-.03.12-.26.06-.31.36-.24.6.03.11.09.23.18.31-.08.18,0,.47.08.6,0,0,0,.01.01.02-.07.08-.11.2-.13.28-.03.14.02.29.08.41.03.06.06.12.11.18-.02.02-.03.05-.05.07-.08.16-.04.35.05.5.03.05.06.09.1.13-.01.02-.02.04-.02.06-.03.17.12.36.29.44,0,.09.01.19.03.27.03.14.15.25.28.3,0,0,0,.01,0,.02-.07.16-.06.29.05.43.04.06.15.15.27.21.01.22.27.37.5.34.04.05.1.08.18.1.09.03.22.02.28-.04.03.07.09.13.18.14.1.02.17-.02.21-.09.06.09.21.11.33.1.05,0,.1-.02.15-.04.07.12.26.2.4.22.12.01.26,0,.34-.1.04-.05.06-.11.05-.17.07.06.17.08.28.07,0,0,.01,0,.02,0,0,.13.09.24.26.27.09.02.2,0,.27-.05.02-.01.03-.03.04-.05.06.07.15.1.26.1.06,0,.13-.02.18-.06.04.11.15.18.31.18.21,0,.37-.14.42-.32.06.06.19.06.29.02.06-.02.11-.06.15-.1.01,0,.03-.01.04-.02.07-.04.12-.09.15-.16.11-.03.23-.13.25-.24.02-.09-.03-.13-.1-.16.05-.05.08-.11.1-.17.04-.1.06-.25,0-.34.09-.05.17-.18.19-.29.04-.16.02-.36-.08-.47.05,0,.1-.02.15-.06.09-.09.09-.25.08-.37,0-.06-.04-.21-.09-.31.28-.09.27-.63.04-.78.1-.04.16-.16.16-.31,0-.03,0-.06,0-.09.02,0,.04-.02.06-.04.14-.12.17-.32.17-.49.09.12.26.01.34-.09.13-.17.16-.4.04-.58.32.03.39-.35.27-.6.29.11.44-.29.29-.52.38.05.61-.38.54-.72,0,0,0,0,0,0,.33.19.65-.04.75-.36.06-.08.09-.18.06-.3,0,0,0,0,0,0,.25.12.56.03.77-.13.13-.1.22-.25.17-.37.04,0,.08-.03.11-.07,0,0,.01-.02.02-.03.13.02.26-.1.27-.2.1,0,.14-.2.07-.28Z"/>
        <path class="cls-8" d="M159.78,35.58c.02-.06,0-.13-.06-.19-.07-.07-.16-.09-.24-.08,0-.02-.02-.04-.04-.05.08-.04.16-.09.17-.17.04-.16-.16-.16-.31-.14.07-.04.14-.09.2-.15,0,0,0-.02,0-.02-.13-.13-.32-.14-.5-.1.08-.06.11-.15,0-.26-.1-.1-.26-.14-.41-.13,0,0,0,0-.01-.01-.06-.07-.16-.16-.26-.19,0-.1-.05-.22-.12-.31-.07-.09-.18-.18-.3-.19-.06,0-.11,0-.15.03-.02-.05-.05-.1-.07-.13-.07-.09-.16-.15-.27-.16-.04,0-.07,0-.1.01-.02-.06-.05-.12-.09-.17-.06-.08-.15-.17-.26-.18-.1-.01-.16.04-.2.12-.06-.23-.24-.37-.49-.32-.08.02-.21.08-.27.16-.1-.24-.31-.46-.59-.42-.14.02-.3.11-.36.22-.03,0-.06,0-.09.01-.04-.07-.12-.07-.19-.03-.27-.1-.55-.09-.54.23-.16-.2-.37-.41-.63-.26-.09.05-.18.15-.21.25-.11-.11-.26-.16-.43-.13-.17.03-.27.15-.27.29-.12-.12-.29-.14-.46-.04-.16.1-.22.26-.19.41-.22-.12-.57.16-.57.41-.1-.05-.23-.04-.32,0-.24.1-.29.36-.26.59-.13-.15-.32-.13-.46.04-.07.09-.11.21-.1.32-.17-.12-.41-.11-.57.06-.12.14-.11.34-.08.51.01.07.03.14.06.2,0,.01,0,.02,0,.03,0,0,0,0,0,0-.1,0-.18.06-.21.18-.05.16.05.32.19.43-.11,0-.21.04-.28.13,0,0,0,0,0,0,.02.01.03.02.05.03.08.05.2.08.29.03.03-.02.05-.04.06-.07.04.06.09.1.17.11.19.03.26-.15.27-.31.09.14.26.16.42.07,0,0,.02-.01.03-.02.11.1.28.14.43.05.11-.07.14-.2.15-.32.02,0,.04,0,.05,0,.13-.03.28-.09.36-.2,0,0,0,0,0,0,.03.02.07.03.11.04.1,0,.19-.05.25-.13.03-.05.05-.11.07-.18.15-.05.3-.18.39-.33.1.21.29.39.52.26.1-.05.16-.17.17-.3.15-.07.28-.19.34-.35.15.14.33.26.48.1.01-.01.02-.03.03-.05.03,0,.05,0,.08,0,.04,0,.08,0,.12-.02,0,.17.03.33.17.38.14.04.26-.1.31-.21,0-.02.01-.04.02-.05.08,0,.14-.04.21-.08.07.17.2.29.42.22.07-.02.12-.07.16-.14.2.14.49.2.71.13,0,.13.04.23.18.22.11-.02.16-.16.19-.25,0,0,0-.02,0-.03.1.07.24.1.36.06.03.05.08.1.13.13.08.05.15.04.2,0,.07.05.16.09.25.11.05.01.1.01.15.01-.04.19-.02.39.22.4.16,0,.29-.1.37-.23.04,0,.08-.01.11-.03,0,.04.01.07.02.1.03.09.11.18.21.13.09-.04.14-.15.16-.25.05.08.13.14.23.17.2.05.35-.07.44-.23.02.14.13.22.28.24,0-.01-.01-.02-.02-.03Z"/>
      </g>
      <g>
        <g>
          <path class="cls-3" d="M148.53,46.68c-.36-.14-1.55-.14-1.91,0,0,0-.24.08.15.21.39.13,1.22.13,1.61,0,.39-.13.15-.21.15-.21Z"/>
          <path class="cls-3" d="M146.77,46.83c-.17-.09-.22-.17-.22-.23h0s0,9.5,0,9.5c0,0,0,0,0,0,0,.06.06.13.22.21.19.11.5.16.8.16v-9.49c-.3,0-.61-.05-.8-.16Z"/>
          <path class="cls-2" d="M148.6,46.59c0,.06-.04.14-.22.24-.2.11-.5.16-.8.16v9.49c.3,0,.61-.05.8-.16.16-.08.21-.16.22-.21,0,0,0,0,0,0v-9.52s0,0,0,.01Z"/>
        </g>
        <g>
          <g>
            <path class="cls-3" d="M146.47,45.3c-.16-.1-.68-.1-.84,0,0,0-.1.06.07.15.17.09.53.09.7,0,.17-.09.07-.15.07-.15Z"/>
            <path class="cls-3" d="M145.7,45.45c-.08-.04-.1-.07-.1-.1h0s0,.03,0,.03l1.08,1.9s0,0,0,0c0,.02.03.06.1.09.09.05.22.07.35.07l-1.08-1.92c-.13,0-.27-.02-.35-.07Z"/>
            <path class="cls-2" d="M146.5,45.35s-.02.06-.1.1c-.08.05-.22.07-.35.07l1.08,1.92c.13,0,.27-.02.35-.07.07-.04.09-.07.1-.09,0,0,0,0,0,0l-1.08-1.93h0Z"/>
          </g>
          <g>
            <path class="cls-3" d="M145.81,42.51c-.16-.1-.68-.1-.84,0,0,0-.1.06.07.15.17.09.53.09.7,0,.17-.09.07-.15.07-.15Z"/>
            <path class="cls-3" d="M145.04,42.66c-.07-.04-.1-.08-.1-.1h0s.66,2.8.66,2.8c0,0,0,0,0,0,0,.02.03.06.1.09.08.05.22.07.35.07l-.66-2.8c-.13,0-.27-.02-.35-.07Z"/>
            <path class="cls-2" d="M145.84,42.55s-.02.06-.1.11c-.08.05-.22.07-.35.07l.66,2.8c.13,0,.27-.02.35-.07.07-.04.09-.07.1-.09,0,0,0,0,0,0l-.66-2.81h0Z"/>
          </g>
          <g>
            <path class="cls-3" d="M142.04,43.17c-.08-.04-.1-.07-.1-.1t0,0l.1.1s3.6,2.24,3.67,2.27c.09.05.22.07.35.07l-3.67-2.27c-.13,0-.27-.02-.35-.07Z"/>
            <path class="cls-2" d="M142.39,43.24l3.67,2.27c.13,0,.27-.02.35-.07.07-.04.09-.07.1-.09,0,0,0,0,0,0l-3.69-2.32s-.3.21-.43.21Z"/>
            <path class="cls-3" d="M142.8,43.02c-.16-.1-.68-.1-.83,0,0,0-.1.06.07.15.17.09.53.09.7,0,.17-.09.07-.15.07-.15Z"/>
          </g>
        </g>
        <g>
          <g>
            <path class="cls-2" d="M150.3,45.92v.03s0-.02,0-.03c0,0,0,0,0,0Z"/>
            <path class="cls-2" d="M152.33,42.09l-2.55,3.52h0l-1.78,1.59c.13,0,.31.05.4,0,.07-.04,1.6-1.47,1.6-1.47-.02.02,2.65-3.68,2.65-3.68l.1-.19s0-.03-.42.22Z"/>
          </g>
          <path class="cls-3" d="M152.75,41.87c-.15-.09-.62-.1-.81-.01h0l-2.47,3.49s-1.92,1.7-1.92,1.7c0,0,0,0,0,0,0,.02.03.06.1.09.09.05.22.07.35.07l1.78-1.59h0l2.55-3.52c.13,0,.42-.22.42-.22Z"/>
        </g>
        <g>
          <g>
            <path class="cls-3" d="M147.99,46.06c-.16-.1-.67-.1-.83,0,0,0-.1.06.07.15.17.09.53.09.7,0,.17-.09.07-.15.07-.15Z"/>
            <path class="cls-3" d="M147.22,46.21c-.08-.04-.1-.07-.1-.1h0s0,1.46,0,1.46c0,0,0,0,0,0,0,.02.03.06.1.09.09.05.22.07.35.07v-1.46c-.13,0-.26-.02-.35-.07Z"/>
            <path class="cls-2" d="M148.02,46.1s-.02.06-.1.1c-.08.05-.22.07-.35.07v1.46c.13,0,.27-.02.35-.07.07-.04.09-.07.1-.09,0,0,0,0,0,0v-1.48h0Z"/>
          </g>
          <g>
            <path class="cls-3" d="M146.96,41.61c-.16-.1-.68-.1-.84,0,0,0-.1.06.07.15.17.09.53.09.7,0,.17-.09.07-.15.07-.15Z"/>
            <path class="cls-3" d="M146.19,41.76c-.08-.04-.1-.07-.1-.1,0,0,0,0,0,0l1.03,4.45s0,0,0,0c0,.02.03.06.1.09.08.05.22.07.35.07l-1.03-4.45c-.13,0-.27-.02-.35-.07Z"/>
            <path class="cls-2" d="M146.99,41.66s-.02.06-.1.1c-.09.05-.22.07-.35.07l1.03,4.45c.13,0,.27-.02.35-.07.07-.04.09-.07.1-.09,0,0,0,0,0,0v-.02l-1.03-4.45s0,0,0,0Z"/>
          </g>
          <g>
            <path class="cls-2" d="M149.87,42.02s-1.88,4.15-1.95,4.19c-.09.05-.22.07-.35.07l1.86-4.11c.13,0,.44-.15.44-.15Z"/>
            <path class="cls-3" d="M149.43,42.16l-1.86,4.11c-.13,0-.27-.02-.35-.07-.07-.04-.09-.07-.1-.09,0,0,0,0,0,0l1.89-4.17s.28.22.42.22Z"/>
            <path class="cls-3" d="M149.01,41.94c.16-.1.68-.1.84,0,0,0,.1.06-.07.15-.17.09-.53.09-.7,0-.17-.09-.07-.15-.07-.15Z"/>
          </g>
        </g>
      </g>
      <g>
        <path class="cls-6" d="M156.83,37.01c-.1-.09-.22-.14-.36-.17.01-.04.02-.09.03-.14.03-.13.08-.31.03-.45.13-.03.26-.13.32-.25.14-.29-.08-.55-.35-.64.02-.02.03-.05.03-.08.03-.12,0-.26-.06-.38.33-.22.39-.82.2-1.13,0,0,0,0,0,0,.11-.18.04-.45-.05-.62-.04-.08-.1-.14-.16-.19-.04-.11-.13-.15-.24-.16.05-.08.08-.18.05-.3-.06-.28-.31-.38-.57-.38,0-.1-.02-.19-.07-.24.16-.07.27-.21.24-.41-.04-.24-.23-.32-.43-.29.13-.13.23-.31.25-.48.02-.23-.13-.29-.3-.27.15-.14.2-.34.07-.54-.08-.13-.22-.2-.36-.2,0-.04-.01-.08-.03-.12-.04-.13-.12-.25-.25-.3-.02,0-.03,0-.05-.01-.04-.09-.13-.17-.3-.2-.24-.04-.34.17-.36.41-.04,0-.08,0-.11,0-.07-.15-.18-.25-.33-.19-.07.03-.13.07-.16.12-.17.05-.36.18-.49.35-.3-.09-.53.12-.6.4-.17-.09-.39-.08-.57.09-.05.04-.1.16-.14.29-.02-.01-.05-.02-.07-.03-.38-.08-.6.26-.64.6-.15,0-.31.1-.4.26-.11-.07-.25-.08-.42,0-.14.07-.28.22-.34.38-.27-.04-.65.13-.78.45-.09-.03-.2,0-.32.11-.05.05-.08.09-.12.14-.02,0-.05,0-.07,0-.15,0-.3.11-.41.25-.07-.05-.16-.08-.25-.05-.12.03-.21.1-.27.18-.05-.03-.12-.04-.21-.01-.17.05-.25.15-.28.26-.15-.09-.35-.12-.54-.02-.44.22-.17.49.14.64-.03.04-.04.09-.03.13-.15.07-.2.28-.09.41-.04.23.06.37.22.46-.13.14-.13.4.03.55-.09.11-.1.27-.01.37-.13.15-.13.41.04.57v.05c-.26.18-.3.57-.07.78-.15.15-.19.43-.03.57-.01.05,0,.11.02.16-.18.15-.3.47-.09.63-.02.06-.03.13-.02.21-.04-.01-.1.01-.11.06-.04.14-.1.5.06.62.01.07.05.12.1.18-.19.14-.27.49-.04.65-.05.07-.08.15-.06.24,0,.02.02.04.03.06,0,.04.02.08.04.11-.09.14-.13.32-.05.45-.2.11-.26.38-.14.56-.16.16-.28.43-.17.63-.06.18-.08.4-.07.53,0,.04.02.07.06.08-.09.11-.15.25-.19.41-.01.04.01.1.06.1.1.02.2,0,.3-.03.08.2.23.37.41.48.13.09.3.13.46.08.16-.06.24-.22.29-.38.24.12.5.22.77.18.09-.01.16-.04.22-.09.04.01.07.02.11.03.29.06.51-.06.62-.27,0,0,.02,0,.03,0,.09.19.3.32.53.31.42-.02.47-.43.5-.78.04-.02.08-.05.11-.09.2.1.44.12.64.04.17-.07.22-.2.2-.33.3.17.83.08.89-.27.02.01.04.02.06.03.05.03.1.05.15.07.01,0,.03.01.04.01.19.23.49.34.72.06.06-.07.1-.15.13-.24.23-.03.27-.35.28-.6.09.14.25.19.44.09.2-.1.29-.31.26-.51.15.12.36.13.54.05.22-.1.31-.28.27-.47.08.07.17.11.27.1.14-.02.23-.17.28-.29.06-.16.06-.34,0-.48.12-.1.2-.26.21-.4,0-.09,0-.18-.01-.26.13-.05.23-.17.22-.38,0-.07-.02-.17-.06-.25.03-.01.06-.04.1-.07.16-.16.15-.4.06-.59.55.16,1.08-.55.62-1Z"/>
        <path class="cls-1" d="M154.75,29.39c.03-.09,0-.21-.09-.3-.11-.11-.25-.14-.39-.12-.01-.03-.04-.06-.06-.09.14-.06.25-.15.28-.28.06-.26-.26-.26-.5-.23.12-.06.23-.14.33-.25,0-.01.01-.03,0-.04-.21-.22-.52-.23-.82-.16.13-.1.18-.25.01-.41-.17-.17-.42-.23-.66-.21,0,0-.01-.02-.02-.02-.09-.11-.26-.25-.42-.31,0-.16-.08-.36-.19-.49-.11-.15-.29-.3-.49-.31-.09,0-.17.01-.24.05-.03-.08-.07-.16-.12-.21-.11-.14-.26-.25-.44-.27-.06,0-.11,0-.16.02-.03-.1-.08-.2-.14-.28-.1-.13-.25-.27-.42-.29-.15-.02-.26.07-.33.19-.09-.37-.38-.59-.79-.51-.13.03-.35.13-.44.27-.16-.39-.5-.75-.95-.68-.22.03-.49.17-.58.35-.05-.01-.1,0-.14.02-.06-.11-.19-.11-.31-.04-.43-.16-.89-.14-.88.37-.25-.32-.6-.66-1.02-.42-.15.09-.29.24-.34.41-.17-.17-.42-.25-.69-.2-.27.05-.44.24-.43.46-.19-.19-.48-.22-.75-.06-.26.16-.36.41-.3.66-.36-.19-.91.26-.92.65-.16-.07-.38-.07-.51,0-.39.17-.46.58-.42.96-.22-.25-.52-.22-.73.07-.11.15-.18.34-.17.52-.27-.19-.66-.18-.91.1-.2.22-.17.55-.13.82.02.11.05.23.1.33,0,.02,0,.03,0,.05,0,0,0,0,0,0-.15.02-.28.09-.34.29-.08.25.09.52.31.69-.17,0-.34.06-.45.22-.02.03-.04.07-.04.1-.06.03-.12.07-.18.13-.13.15-.14.31-.07.43-.11,0-.2.06-.25.2-.08.23.1.39.3.45-.14.06-.23.2-.23.37,0,.09.03.15.08.19-.05.06-.1.12-.13.2-.01.03-.02.06-.02.09-.43.15-.78.88-.4,1.2,0,0,.02.02.03.02-.08.1-.13.21-.17.32-.02.07-.04.13-.04.2-.41.09-.5.58-.38.98.05.18.15.37.29.51-.13.29-.02.76.12.97,0,0,.01.02.02.02-.11.14-.17.33-.2.46-.05.22.04.47.13.66.04.09.1.2.18.29-.03.04-.05.08-.07.12-.13.26-.07.56.07.8.04.07.1.14.17.2-.02.03-.03.06-.03.1-.05.27.2.58.47.7,0,.15.02.3.05.43.05.22.24.41.45.49,0,.01,0,.02-.01.03-.11.26-.09.47.08.7.07.09.24.23.43.33.02.36.44.6.8.54.07.07.16.13.29.17.15.04.35.02.46-.07.04.11.15.2.29.23.16.03.27-.04.33-.15.1.14.34.18.53.16.07,0,.16-.03.23-.07.11.2.42.32.65.35.19.02.42-.01.55-.16.07-.08.09-.18.08-.28.12.09.28.13.45.12.01,0,.02,0,.03,0,0,.21.15.38.41.44.15.03.32.01.44-.09.03-.02.05-.05.07-.08.09.11.24.16.43.16.1,0,.21-.04.29-.1.06.18.25.3.49.3.34,0,.6-.22.68-.52.1.1.3.1.48.03.1-.04.18-.09.24-.16.02,0,.05-.02.07-.03.1-.06.2-.15.25-.26.18-.05.36-.22.41-.39.04-.14-.05-.21-.16-.25.07-.07.13-.19.16-.27.07-.17.09-.4.01-.55.15-.07.27-.28.31-.47.07-.26.04-.57-.13-.76.08,0,.17-.03.23-.1.14-.15.15-.4.13-.59,0-.1-.06-.33-.15-.49.46-.15.43-1.02.07-1.27.17-.07.26-.27.26-.5,0-.05,0-.1,0-.15.04-.01.07-.03.1-.06.22-.19.28-.52.28-.8.15.19.42.02.55-.15.22-.28.25-.65.06-.94.51.05.63-.57.43-.97.46.18.7-.47.46-.84.61.08.99-.62.87-1.17,0,0,0,0,0-.01.54.3,1.05-.07,1.21-.58.1-.12.15-.29.09-.48,0,0,0,0,0,0,.4.19.9.05,1.25-.2.22-.16.36-.4.27-.6.06-.01.12-.05.18-.11.01-.01.02-.03.03-.04.2.03.42-.16.44-.32.15-.01.23-.33.12-.45Z"/>
        <path class="cls-8" d="M154.75,29.39c.03-.09,0-.21-.09-.3-.11-.11-.25-.14-.39-.12-.01-.03-.04-.06-.06-.09.14-.06.25-.15.28-.28.06-.26-.26-.26-.5-.23.12-.06.23-.14.33-.25,0-.01.01-.03,0-.04-.21-.22-.52-.23-.82-.16.13-.1.18-.25.01-.41-.17-.17-.42-.23-.66-.21,0,0-.01-.02-.02-.02-.09-.11-.26-.25-.42-.31,0-.16-.08-.36-.19-.49-.11-.15-.29-.3-.49-.31-.09,0-.17.01-.24.05-.03-.08-.07-.16-.12-.21-.11-.14-.26-.25-.44-.27-.06,0-.11,0-.16.02-.03-.1-.08-.2-.14-.28-.1-.13-.25-.27-.42-.29-.15-.02-.26.07-.33.19-.09-.37-.38-.59-.79-.51-.13.03-.35.13-.44.27-.16-.39-.5-.75-.95-.68-.22.03-.49.17-.58.35-.05-.01-.1,0-.14.02-.06-.11-.19-.11-.31-.04-.43-.16-.89-.14-.88.37-.25-.32-.6-.66-1.02-.42-.15.09-.29.24-.34.41-.17-.17-.42-.25-.69-.2-.27.05-.44.24-.43.46-.19-.19-.48-.22-.75-.06-.26.16-.36.41-.3.66-.36-.19-.91.26-.92.65-.16-.07-.38-.07-.51,0-.39.17-.46.58-.42.96-.22-.25-.52-.22-.73.07-.11.15-.18.34-.17.52-.27-.19-.66-.18-.91.1-.2.22-.17.55-.13.82.02.11.05.23.1.33,0,.02,0,.03,0,.05,0,0,0,0,0,0-.15.02-.28.09-.34.29-.08.25.09.52.31.69-.17,0-.34.06-.45.22,0,0,0,.01,0,.02.03.02.05.04.08.05.14.08.33.14.47.05.05-.03.08-.07.09-.12.06.09.15.16.28.18.31.04.42-.25.43-.5.14.23.42.25.67.12.01,0,.03-.02.04-.03.19.16.45.23.69.08.17-.11.23-.33.24-.52.03,0,.06,0,.09-.01.22-.04.45-.14.58-.32,0,0,0,0,0,0,.06.03.12.06.19.06.17.02.3-.07.4-.21.05-.07.09-.18.11-.28.25-.08.48-.29.62-.53.16.33.47.63.84.42.16-.09.25-.28.27-.48.25-.12.46-.31.55-.56.24.23.54.42.77.16.02-.02.04-.05.05-.08.04,0,.08,0,.12,0,.06,0,.12-.01.19-.02-.01.27.04.54.28.61.23.07.41-.16.49-.34.01-.03.02-.06.03-.09.12-.01.23-.06.34-.13.11.27.33.47.67.36.11-.03.2-.12.26-.23.33.23.8.32,1.15.21,0,.21.06.38.29.35.18-.03.26-.25.31-.4,0-.01,0-.03.01-.04.16.12.39.16.58.09.05.09.13.16.22.22.12.07.24.06.33,0,.12.09.26.15.4.18.08.02.16.02.24.02-.07.31-.02.63.36.64.26,0,.47-.15.59-.37.06,0,.12-.02.18-.04,0,.06.02.11.04.17.04.14.18.29.34.22.15-.07.22-.25.26-.41.09.13.21.22.38.27.32.08.57-.12.71-.37.03.23.22.35.46.38,0-.02-.02-.04-.03-.05Z"/>
      </g>
    </g>
  </g>
</svg>