<?xml version="1.0" encoding="UTF-8"?>
<svg xmlns="http://www.w3.org/2000/svg" xmlns:xlink="http://www.w3.org/1999/xlink" viewBox="0 0 940 220">
  <defs>
    <style>
      .cls-1, .cls-2, .cls-3 {
        fill: none;
      }

      .cls-4 {
        fill: #f4d77d;
        font-family: Roboto-Black, Roboto;
        font-size: 201.44px;
        font-weight: 800;
      }

      .cls-2 {
        stroke-dasharray: 0 12.29;
      }

      .cls-2, .cls-3 {
        stroke: #f69421;
        stroke-linecap: round;
        stroke-linejoin: round;
        stroke-width: 4.19px;
      }

      .cls-5 {
        fill: #ecd7c2;
        mix-blend-mode: multiply;
      }

      .cls-6 {
        fill: url(#linear-gradient-3);
      }

      .cls-7 {
        fill: url(#linear-gradient-2);
      }

      .cls-8 {
        fill: url(#linear-gradient);
      }

      .cls-9 {
        isolation: isolate;
      }

      .cls-10 {
        clip-path: url(#clippath-1);
      }

      .cls-11 {
        clip-path: url(#clippath-3);
      }

      .cls-12 {
        clip-path: url(#clippath-2);
      }

      .cls-3 {
        stroke-dasharray: 0 13.43;
      }

      .cls-13 {
        fill: #fff;
      }

      .cls-14 {
        fill: #f8ac38;
      }

      .cls-15 {
        fill: #bb202f;
      }

      .cls-16 {
        clip-path: url(#clippath);
      }
    </style>
    <clipPath id="clippath">
      <rect class="cls-1" x="-3193.22" y="-233.55" width="2465.74" height="2206.89"/>
    </clipPath>
    <clipPath id="clippath-1">
      <polygon class="cls-1" points="139.74 127.61 156.21 137.12 172.69 127.61 156.21 118.09 139.74 127.61"/>
    </clipPath>
    <linearGradient id="linear-gradient" x1="-2957.03" y1="-1888.49" x2="-2955.06" y2="-1888.49" gradientTransform="translate(290876.31 455252.17) rotate(90) scale(153.94 -153.94)" gradientUnits="userSpaceOnUse">
      <stop offset="0" stop-color="#f9ec43"/>
      <stop offset=".04" stop-color="#f9e136"/>
      <stop offset=".11" stop-color="#f9d024"/>
      <stop offset=".19" stop-color="#f9c719"/>
      <stop offset=".28" stop-color="#fac416"/>
      <stop offset=".55" stop-color="#f29e32"/>
      <stop offset=".67" stop-color="#ef8e40"/>
      <stop offset=".89" stop-color="#eb673c"/>
      <stop offset="1" stop-color="#e83e38"/>
    </linearGradient>
    <clipPath id="clippath-2">
      <polygon class="cls-1" points="139.74 146.63 156.21 156.14 156.21 137.12 139.74 127.61 139.74 146.63"/>
    </clipPath>
    <linearGradient id="linear-gradient-2" x1="-2922.04" y1="-1829.63" x2="-2920.07" y2="-1829.63" gradientTransform="translate(89609.61 142934.62) rotate(90) scale(48.9 -48.9)" xlink:href="#linear-gradient"/>
    <clipPath id="clippath-3">
      <polygon class="cls-1" points="156.21 137.12 156.21 156.14 172.69 146.63 172.69 127.61 156.21 137.12"/>
    </clipPath>
    <linearGradient id="linear-gradient-3" x1="-2929.67" y1="-1883.7" x2="-2927.7" y2="-1883.7" gradientTransform="translate(142087.66 220766.06) rotate(90) scale(75.34 -75.34)" xlink:href="#linear-gradient"/>
  </defs>
  <g class="cls-9">
    <g id="bg">
      <g class="cls-16">
        <polygon class="cls-5" points="-1325.09 -826.64 -2706.65 5.11 -1325.07 836.89 56.48 5.11 -1325.09 -826.64"/>
      </g>
    </g>
    <g id="Grid">
      <text class="cls-4" transform="translate(11.1 158.4)"><tspan x="0" y="0">3</tspan></text>
      <path class="cls-14" d="M39.67,63.45h15.64c12.39,0,18.59-6.06,18.59-18.2,0-4.72-1.47-8.57-4.43-11.56-2.95-2.98-7.12-4.48-12.49-4.48-4.39,0-8.21,1.28-11.46,3.84-3.25,2.56-4.87,5.74-4.87,9.54H7.51c0-7.54,2.1-14.26,6.29-20.16,4.2-5.9,10.02-10.51,17.46-13.82,7.44-3.31,15.62-4.97,24.54-4.97,15.93,0,28.46,3.64,37.57,10.92,9.11,7.28,13.67,17.28,13.67,30,0,6.17-1.89,11.99-5.66,17.46-3.77,5.48-9.26,9.92-16.48,13.33,7.61,2.75,13.57,6.93,17.9,12.54s6.49,12.54,6.49,20.8c0,12.79-4.92,23.02-14.75,30.69s-22.75,11.51-38.75,11.51c-9.38,0-18.08-1.79-26.12-5.36-8.03-3.57-14.11-8.52-18.25-14.85-4.13-6.33-6.2-13.52-6.2-21.59h33.34c0,4.39,1.77,8.2,5.31,11.41,3.54,3.21,7.9,4.82,13.08,4.82,5.84,0,10.49-1.62,13.97-4.87,3.47-3.25,5.21-7.39,5.21-12.44,0-7.21-1.8-12.33-5.41-15.34-3.61-3.02-8.59-4.52-14.95-4.52h-16.13v-24.69Z"/>
      <polygon class="cls-14" points="156.22 145.56 787.55 145.56 867.05 59.31 156.22 59.31 156.22 145.56"/>
      <g>
        <path class="cls-13" d="M225.29,86.14h-11.78v32.04h-7.92v-32.04h-11.62v-6.42h31.33v6.42Z"/>
        <path class="cls-13" d="M242.46,118.71c-4.19,0-7.6-1.29-10.24-3.86-2.63-2.57-3.95-6-3.95-10.28v-.74c0-2.87.55-5.44,1.67-7.7,1.11-2.26,2.68-4.01,4.71-5.23,2.03-1.22,4.35-1.84,6.96-1.84,3.91,0,6.99,1.23,9.23,3.7,2.25,2.47,3.37,5.96,3.37,10.49v3.12h-18.2c.25,1.87.99,3.36,2.23,4.49,1.24,1.13,2.81,1.69,4.71,1.69,2.94,0,5.24-1.07,6.9-3.2l3.75,4.2c-1.14,1.62-2.69,2.88-4.65,3.79s-4.12,1.36-6.5,1.36ZM241.59,95.23c-1.52,0-2.74.51-3.69,1.54-.94,1.03-1.55,2.49-1.81,4.4h10.62v-.61c-.04-1.7-.49-3.01-1.37-3.94-.88-.93-2.13-1.39-3.75-1.39Z"/>
        <path class="cls-13" d="M265.58,89.6l.24,3.3c2.04-2.55,4.78-3.83,8.22-3.83,3.03,0,5.28.89,6.76,2.67s2.24,4.44,2.27,7.98v18.47h-7.63v-18.28c0-1.62-.35-2.8-1.06-3.53-.7-.73-1.88-1.1-3.51-1.1-2.15,0-3.76.92-4.83,2.75v20.16h-7.63v-28.58h7.19Z"/>
        <path class="cls-13" d="M287.66,103.68c0-4.46,1-8,3-10.65,2-2.64,4.73-3.96,8.2-3.96,2.78,0,5.08,1.04,6.9,3.12v-14.58h7.66v40.58h-6.89l-.37-3.04c-1.9,2.38-4.35,3.57-7.34,3.57-3.36,0-6.06-1.33-8.1-3.98s-3.05-6.34-3.05-11.06ZM295.3,104.25c0,2.68.47,4.74,1.4,6.17.93,1.43,2.29,2.14,4.07,2.14,2.36,0,4.02-1,4.99-2.99v-11.3c-.95-1.99-2.6-2.99-4.94-2.99-3.68,0-5.52,2.99-5.52,8.97Z"/>
        <path class="cls-13" d="M332.49,118.71c-4.19,0-7.6-1.29-10.24-3.86-2.63-2.57-3.95-6-3.95-10.28v-.74c0-2.87.55-5.44,1.67-7.7,1.11-2.26,2.68-4.01,4.71-5.23,2.03-1.22,4.35-1.84,6.96-1.84,3.91,0,6.99,1.23,9.23,3.7,2.25,2.47,3.37,5.96,3.37,10.49v3.12h-18.2c.25,1.87.99,3.36,2.23,4.49,1.24,1.13,2.81,1.69,4.71,1.69,2.94,0,5.24-1.07,6.9-3.2l3.75,4.2c-1.14,1.62-2.69,2.88-4.65,3.79s-4.12,1.36-6.5,1.36ZM331.62,95.23c-1.52,0-2.74.51-3.69,1.54-.94,1.03-1.55,2.49-1.81,4.4h10.62v-.61c-.04-1.7-.49-3.01-1.37-3.94-.88-.93-2.13-1.39-3.75-1.39Z"/>
        <path class="cls-13" d="M364.65,96.76c-1.04-.14-1.95-.21-2.75-.21-2.89,0-4.78.98-5.68,2.93v18.7h-7.63v-28.58h7.21l.21,3.41c1.53-2.62,3.65-3.94,6.37-3.94.85,0,1.64.11,2.38.34l-.11,7.34Z"/>
        <path class="cls-13" d="M368.27,82.2c0-1.14.38-2.09,1.15-2.83.77-.74,1.81-1.11,3.13-1.11s2.34.37,3.12,1.11c.78.74,1.16,1.68,1.16,2.83s-.39,2.11-1.18,2.85c-.78.74-1.82,1.11-3.1,1.11s-2.32-.37-3.1-1.11c-.78-.74-1.17-1.69-1.17-2.85ZM376.38,118.18h-7.66v-28.58h7.66v28.58Z"/>
        <path class="cls-13" d="M389.69,89.6l.24,3.3c2.04-2.55,4.78-3.83,8.22-3.83,3.03,0,5.28.89,6.76,2.67s2.24,4.44,2.27,7.98v18.47h-7.63v-18.28c0-1.62-.35-2.8-1.06-3.53-.7-.73-1.88-1.1-3.51-1.1-2.15,0-3.76.92-4.83,2.75v20.16h-7.63v-28.58h7.19Z"/>
        <path class="cls-13" d="M411.86,103.68c0-4.38,1.04-7.92,3.13-10.59,2.09-2.68,4.9-4.01,8.44-4.01,3.13,0,5.57,1.07,7.32,3.22l.32-2.69h6.92v27.63c0,2.5-.57,4.68-1.71,6.53-1.14,1.85-2.73,3.26-4.79,4.23-2.06.97-4.47,1.45-7.24,1.45-2.1,0-4.14-.42-6.13-1.25s-3.5-1.92-4.52-3.24l3.38-4.65c1.9,2.13,4.21,3.2,6.92,3.2,2.02,0,3.6-.54,4.73-1.62,1.13-1.08,1.69-2.62,1.69-4.61v-1.53c-1.76,1.99-4.08,2.99-6.95,2.99-3.43,0-6.21-1.34-8.33-4.03-2.12-2.69-3.18-6.25-3.18-10.69v-.32ZM419.49,104.25c0,2.59.52,4.63,1.56,6.1,1.04,1.47,2.47,2.21,4.28,2.21,2.32,0,3.99-.87,4.99-2.62v-12.04c-1.02-1.75-2.67-2.62-4.94-2.62-1.83,0-3.27.75-4.32,2.25s-1.57,3.74-1.57,6.72Z"/>
      </g>
      <g class="cls-10">
        <rect class="cls-8" x="139.16" y="108.62" width="34.11" height="37.97" transform="translate(-36.62 186.77) rotate(-56.3)"/>
      </g>
      <g class="cls-12">
        <rect class="cls-7" x="138.09" y="126.72" width="19.78" height="30.31" transform="translate(-15.97 18.81) rotate(-6.9)"/>
      </g>
      <g class="cls-11">
        <rect class="cls-6" x="148.37" y="126.16" width="32.17" height="31.42" transform="translate(-51.25 167.27) rotate(-47.5)"/>
      </g>
      <line class="cls-2" x1="139.74" y1="42.34" x2="632.13" y2="42.34"/>
      <line class="cls-3" x1="20.88" y1="174.25" x2="169.77" y2="174.25"/>
      <g>
        <path class="cls-15" d="M202.92,169.54v7.89h-4.61v-22.39h8.73c1.68,0,3.16.31,4.44.92,1.28.62,2.26,1.49,2.94,2.62.69,1.13,1.03,2.42,1.03,3.87,0,2.19-.75,3.92-2.25,5.19-1.5,1.27-3.58,1.9-6.24,1.9h-4.04ZM202.92,165.81h4.12c1.22,0,2.15-.29,2.79-.86s.96-1.39.96-2.46-.32-1.98-.97-2.66c-.65-.68-1.54-1.03-2.68-1.05h-4.23v7.03Z"/>
        <path class="cls-15" d="M227.9,164.96c-.6-.08-1.14-.12-1.6-.12-1.68,0-2.78.57-3.31,1.71v10.89h-4.44v-16.64h4.2l.12,1.98c.89-1.53,2.13-2.29,3.71-2.29.49,0,.95.07,1.38.2l-.06,4.28Z"/>
        <path class="cls-15" d="M229.57,168.96c0-1.65.32-3.12.95-4.41.63-1.29,1.55-2.29,2.75-3,1.19-.71,2.58-1.06,4.16-1.06,2.25,0,4.08.69,5.5,2.06,1.42,1.37,2.21,3.24,2.38,5.6l.03,1.14c0,2.55-.71,4.6-2.14,6.14-1.43,1.54-3.34,2.31-5.74,2.31s-4.31-.77-5.74-2.31c-1.43-1.54-2.15-3.63-2.15-6.27v-.2ZM234.01,169.28c0,1.58.3,2.79.89,3.63.59.84,1.45,1.26,2.55,1.26s1.92-.41,2.52-1.24c.61-.83.91-2.15.91-3.97,0-1.55-.3-2.75-.91-3.6-.6-.85-1.46-1.28-2.55-1.28s-1.93.42-2.52,1.27c-.59.85-.89,2.16-.89,3.93Z"/>
        <path class="cls-15" d="M255.21,174.16c.82,0,1.49-.23,2-.68s.78-1.05.8-1.8h4.17c-.01,1.13-.32,2.16-.92,3.1-.61.94-1.43,1.67-2.48,2.18-1.05.52-2.21.78-3.48.78-2.38,0-4.25-.76-5.63-2.27-1.37-1.51-2.06-3.6-2.06-6.27v-.29c0-2.56.68-4.61,2.04-6.14,1.36-1.53,3.24-2.29,5.61-2.29,2.08,0,3.75.59,5.01,1.78s1.89,2.76,1.92,4.73h-4.17c-.02-.87-.29-1.57-.8-2.11-.51-.54-1.19-.81-2.03-.81-1.04,0-1.82.38-2.34,1.13-.53.75-.79,1.98-.79,3.67v.46c0,1.71.26,2.95.78,3.7.52.75,1.32,1.12,2.38,1.12Z"/>
        <path class="cls-15" d="M274.9,175.74c-1.1,1.33-2.61,2-4.55,2-1.78,0-3.15-.51-4.08-1.54-.94-1.02-1.42-2.53-1.44-4.51v-10.9h4.44v10.76c0,1.74.79,2.6,2.37,2.6s2.54-.52,3.11-1.57v-11.79h4.46v16.64h-4.18l-.12-1.69Z"/>
        <path class="cls-15" d="M292.13,164.96c-.6-.08-1.14-.12-1.6-.12-1.68,0-2.78.57-3.31,1.71v10.89h-4.44v-16.64h4.2l.12,1.98c.89-1.53,2.13-2.29,3.71-2.29.49,0,.95.07,1.38.2l-.06,4.28Z"/>
        <path class="cls-15" d="M302.14,177.74c-2.44,0-4.43-.75-5.96-2.25-1.53-1.5-2.3-3.49-2.3-5.98v-.43c0-1.67.32-3.17.97-4.48s1.56-2.33,2.75-3.04c1.18-.71,2.54-1.07,4.05-1.07,2.28,0,4.07.72,5.38,2.15,1.31,1.44,1.96,3.47,1.96,6.11v1.81h-10.6c.14,1.09.58,1.96,1.3,2.61s1.64.98,2.75.98c1.71,0,3.05-.62,4.01-1.86l2.18,2.45c-.67.94-1.57,1.68-2.71,2.21-1.14.53-2.4.79-3.78.79ZM301.64,164.07c-.88,0-1.6.3-2.15.9-.55.6-.9,1.45-1.05,2.56h6.18v-.36c-.02-.99-.29-1.75-.8-2.29-.51-.54-1.24-.81-2.18-.81Z"/>
        <path class="cls-15" d="M315.9,160.79l.14,1.86c1.18-1.45,2.77-2.17,4.78-2.17,2.14,0,3.61.85,4.41,2.54,1.17-1.69,2.83-2.54,5-2.54,1.8,0,3.15.53,4.03,1.58.88,1.05,1.32,2.63,1.32,4.74v10.63h-4.46v-10.61c0-.94-.18-1.63-.55-2.07s-1.02-.65-1.95-.65c-1.33,0-2.26.64-2.77,1.91l.02,11.43h-4.45v-10.6c0-.96-.19-1.66-.57-2.09-.38-.43-1.03-.65-1.94-.65-1.26,0-2.17.52-2.74,1.57v11.76h-4.44v-16.64h4.17Z"/>
        <path class="cls-15" d="M346.87,177.74c-2.44,0-4.43-.75-5.96-2.25-1.53-1.5-2.3-3.49-2.3-5.98v-.43c0-1.67.32-3.17.97-4.48.65-1.32,1.56-2.33,2.74-3.04,1.18-.71,2.54-1.07,4.05-1.07,2.28,0,4.07.72,5.38,2.15,1.31,1.44,1.96,3.47,1.96,6.11v1.81h-10.6c.14,1.09.58,1.96,1.3,2.61s1.64.98,2.75.98c1.71,0,3.05-.62,4.01-1.86l2.18,2.45c-.67.94-1.57,1.68-2.71,2.21-1.14.53-2.4.79-3.78.79ZM346.37,164.07c-.88,0-1.6.3-2.14.9-.55.6-.9,1.45-1.05,2.56h6.18v-.36c-.02-.99-.29-1.75-.8-2.29-.51-.54-1.24-.81-2.18-.81Z"/>
        <path class="cls-15" d="M360.55,160.79l.14,1.92c1.19-1.49,2.78-2.23,4.78-2.23,1.76,0,3.08.52,3.94,1.55.86,1.04,1.3,2.58,1.32,4.64v10.75h-4.44v-10.64c0-.94-.21-1.63-.62-2.05-.41-.42-1.09-.64-2.05-.64-1.25,0-2.19.53-2.81,1.6v11.73h-4.44v-16.64h4.18Z"/>
        <path class="cls-15" d="M379.64,156.7v4.09h2.84v3.26h-2.84v8.3c0,.62.12,1.06.35,1.32s.69.4,1.35.4c.49,0,.93-.04,1.31-.11v3.37c-.87.27-1.77.4-2.69.4-3.12,0-4.71-1.57-4.77-4.72v-8.96h-2.43v-3.26h2.43v-4.09h4.44Z"/>
        <path class="cls-15" d="M411.11,169.98c-.17,2.41-1.06,4.31-2.67,5.69s-3.72,2.08-6.34,2.08c-2.87,0-5.13-.97-6.77-2.9s-2.47-4.59-2.47-7.96v-1.37c0-2.15.38-4.05,1.14-5.69s1.84-2.9,3.25-3.78c1.41-.88,3.05-1.31,4.91-1.31,2.58,0,4.67.69,6.24,2.08,1.58,1.38,2.49,3.33,2.74,5.83h-4.61c-.11-1.45-.51-2.49-1.21-3.15-.69-.65-1.75-.98-3.16-.98-1.54,0-2.69.55-3.45,1.65-.76,1.1-1.16,2.81-1.18,5.13v1.69c0,2.42.37,4.19,1.1,5.31.73,1.12,1.89,1.68,3.47,1.68,1.42,0,2.49-.33,3.19-.98s1.1-1.66,1.21-3.02h4.61Z"/>
        <path class="cls-15" d="M420.29,171.14l3.08-10.35h4.77l-6.69,19.22-.37.88c-.99,2.17-2.63,3.26-4.92,3.26-.65,0-1.3-.1-1.97-.29v-3.37l.68.02c.84,0,1.47-.13,1.88-.38.42-.26.74-.68.98-1.28l.52-1.37-5.83-16.69h4.78l3.09,10.35Z"/>
        <path class="cls-15" d="M437.02,174.16c.82,0,1.49-.23,2-.68s.78-1.05.8-1.8h4.17c0,1.13-.32,2.16-.92,3.1-.61.94-1.43,1.67-2.48,2.18s-2.21.78-3.48.78c-2.38,0-4.26-.76-5.63-2.27-1.37-1.51-2.06-3.6-2.06-6.27v-.29c0-2.56.68-4.61,2.04-6.14,1.36-1.53,3.23-2.29,5.61-2.29,2.08,0,3.75.59,5.01,1.78s1.89,2.76,1.91,4.73h-4.17c-.02-.87-.29-1.57-.8-2.11-.51-.54-1.19-.81-2.03-.81-1.04,0-1.82.38-2.34,1.13-.53.75-.79,1.98-.79,3.67v.46c0,1.71.26,2.95.78,3.7.52.75,1.32,1.12,2.38,1.12Z"/>
        <path class="cls-15" d="M451.44,177.43h-4.46v-23.62h4.46v23.62Z"/>
        <path class="cls-15" d="M462.98,177.74c-2.44,0-4.43-.75-5.96-2.25s-2.3-3.49-2.3-5.98v-.43c0-1.67.32-3.17.97-4.48s1.56-2.33,2.75-3.04c1.18-.71,2.54-1.07,4.05-1.07,2.28,0,4.07.72,5.38,2.15s1.96,3.47,1.96,6.11v1.81h-10.6c.14,1.09.58,1.96,1.3,2.61s1.64.98,2.74.98c1.71,0,3.05-.62,4.01-1.86l2.18,2.45c-.67.94-1.57,1.68-2.71,2.21s-2.4.79-3.78.79ZM462.47,164.07c-.88,0-1.6.3-2.15.9-.55.6-.9,1.45-1.05,2.56h6.18v-.36c-.02-.99-.29-1.75-.8-2.29-.51-.54-1.24-.81-2.18-.81Z"/>
        <path class="cls-15" d="M490.27,177.43c-.21-.4-.35-.9-.45-1.49-1.08,1.2-2.48,1.8-4.2,1.8-1.63,0-2.98-.47-4.05-1.42s-1.61-2.13-1.61-3.57c0-1.76.65-3.12,1.96-4.06,1.31-.94,3.2-1.42,5.67-1.43h2.04v-.95c0-.77-.2-1.38-.59-1.85-.39-.46-1.02-.69-1.87-.69-.75,0-1.34.18-1.76.54-.43.36-.64.85-.64,1.48h-4.44c0-.96.3-1.86.89-2.68.59-.82,1.44-1.46,2.52-1.93s2.31-.7,3.66-.7c2.05,0,3.68.52,4.88,1.55,1.2,1.03,1.81,2.48,1.81,4.34v7.21c.01,1.58.23,2.77.66,3.58v.26h-4.49ZM486.59,174.34c.66,0,1.26-.15,1.81-.44.55-.29.96-.68,1.23-1.18v-2.86h-1.66c-2.23,0-3.41.77-3.55,2.31l-.02.26c0,.55.2,1.01.58,1.37.39.36.92.54,1.6.54Z"/>
        <path class="cls-15" d="M501.82,160.79l.14,1.92c1.19-1.49,2.78-2.23,4.78-2.23,1.76,0,3.08.52,3.94,1.55.86,1.04,1.3,2.58,1.32,4.64v10.75h-4.44v-10.64c0-.94-.21-1.63-.62-2.05-.41-.42-1.09-.64-2.05-.64-1.25,0-2.19.53-2.81,1.6v11.73h-4.45v-16.64h4.18Z"/>
        <path class="cls-15" d="M514.9,168.99c0-2.59.58-4.66,1.75-6.2,1.16-1.54,2.75-2.31,4.77-2.31,1.62,0,2.96.61,4.01,1.81v-8.49h4.46v23.62h-4.01l-.21-1.77c-1.11,1.38-2.53,2.08-4.28,2.08-1.96,0-3.53-.77-4.71-2.31s-1.78-3.69-1.78-6.44ZM519.34,169.32c0,1.56.27,2.76.81,3.59.54.83,1.33,1.25,2.37,1.25,1.37,0,2.34-.58,2.91-1.74v-6.58c-.55-1.16-1.51-1.74-2.88-1.74-2.14,0-3.21,1.74-3.21,5.22Z"/>
        <path class="cls-15" d="M546.53,169.54v7.89h-4.61v-22.39h8.73c1.68,0,3.16.31,4.44.92,1.28.62,2.26,1.49,2.94,2.62.69,1.13,1.03,2.42,1.03,3.87,0,2.19-.75,3.92-2.25,5.19-1.5,1.27-3.58,1.9-6.24,1.9h-4.04ZM546.53,165.81h4.12c1.22,0,2.15-.29,2.79-.86s.96-1.39.96-2.46-.32-1.98-.97-2.66c-.65-.68-1.54-1.03-2.68-1.05h-4.23v7.03Z"/>
        <path class="cls-15" d="M571.51,164.96c-.6-.08-1.14-.12-1.6-.12-1.68,0-2.78.57-3.31,1.71v10.89h-4.44v-16.64h4.2l.12,1.98c.89-1.53,2.13-2.29,3.71-2.29.49,0,.95.07,1.38.2l-.06,4.28Z"/>
        <path class="cls-15" d="M573.17,168.96c0-1.65.32-3.12.95-4.41.63-1.29,1.55-2.29,2.75-3,1.19-.71,2.58-1.06,4.16-1.06,2.25,0,4.08.69,5.5,2.06,1.42,1.37,2.21,3.24,2.38,5.6l.03,1.14c0,2.55-.71,4.6-2.14,6.14-1.43,1.54-3.34,2.31-5.74,2.31s-4.31-.77-5.74-2.31c-1.43-1.54-2.15-3.63-2.15-6.27v-.2ZM577.62,169.28c0,1.58.3,2.79.89,3.63.59.84,1.45,1.26,2.55,1.26s1.92-.41,2.52-1.24c.61-.83.91-2.15.91-3.97,0-1.55-.3-2.75-.91-3.6-.6-.85-1.46-1.28-2.55-1.28s-1.93.42-2.52,1.27c-.59.85-.89,2.16-.89,3.93Z"/>
        <path class="cls-15" d="M598.82,174.16c.82,0,1.49-.23,2-.68s.78-1.05.8-1.8h4.17c-.01,1.13-.32,2.16-.92,3.1-.61.94-1.43,1.67-2.48,2.18-1.05.52-2.21.78-3.48.78-2.38,0-4.25-.76-5.63-2.27-1.37-1.51-2.06-3.6-2.06-6.27v-.29c0-2.56.68-4.61,2.04-6.14,1.36-1.53,3.24-2.29,5.61-2.29,2.08,0,3.75.59,5.01,1.78s1.89,2.76,1.92,4.73h-4.17c-.02-.87-.29-1.57-.8-2.11-.51-.54-1.19-.81-2.03-.81-1.04,0-1.82.38-2.34,1.13-.53.75-.79,1.98-.79,3.67v.46c0,1.71.26,2.95.78,3.7.52.75,1.32,1.12,2.38,1.12Z"/>
        <path class="cls-15" d="M618.5,175.74c-1.1,1.33-2.61,2-4.55,2-1.78,0-3.15-.51-4.08-1.54-.94-1.02-1.42-2.53-1.44-4.51v-10.9h4.44v10.76c0,1.74.79,2.6,2.37,2.6s2.54-.52,3.11-1.57v-11.79h4.46v16.64h-4.18l-.12-1.69Z"/>
        <path class="cls-15" d="M635.73,164.96c-.6-.08-1.14-.12-1.6-.12-1.68,0-2.78.57-3.31,1.71v10.89h-4.44v-16.64h4.2l.12,1.98c.89-1.53,2.13-2.29,3.71-2.29.49,0,.95.07,1.38.2l-.06,4.28Z"/>
        <path class="cls-15" d="M645.75,177.74c-2.44,0-4.43-.75-5.96-2.25-1.53-1.5-2.3-3.49-2.3-5.98v-.43c0-1.67.32-3.17.97-4.48s1.56-2.33,2.75-3.04c1.18-.71,2.54-1.07,4.05-1.07,2.28,0,4.07.72,5.38,2.15,1.31,1.44,1.96,3.47,1.96,6.11v1.81h-10.6c.14,1.09.58,1.96,1.3,2.61s1.64.98,2.75.98c1.71,0,3.05-.62,4.01-1.86l2.18,2.45c-.67.94-1.57,1.68-2.71,2.21-1.14.53-2.4.79-3.78.79ZM645.24,164.07c-.88,0-1.6.3-2.15.9-.55.6-.9,1.45-1.05,2.56h6.18v-.36c-.02-.99-.29-1.75-.8-2.29-.51-.54-1.24-.81-2.18-.81Z"/>
        <path class="cls-15" d="M659.5,160.79l.14,1.86c1.18-1.45,2.77-2.17,4.78-2.17,2.14,0,3.61.85,4.41,2.54,1.17-1.69,2.83-2.54,5-2.54,1.8,0,3.15.53,4.03,1.58.88,1.05,1.32,2.63,1.32,4.74v10.63h-4.46v-10.61c0-.94-.18-1.63-.55-2.07s-1.02-.65-1.95-.65c-1.33,0-2.26.64-2.77,1.91l.02,11.43h-4.45v-10.6c0-.96-.19-1.66-.57-2.09-.38-.43-1.03-.65-1.94-.65-1.26,0-2.17.52-2.74,1.57v11.76h-4.44v-16.64h4.17Z"/>
        <path class="cls-15" d="M690.48,177.74c-2.44,0-4.43-.75-5.96-2.25-1.53-1.5-2.3-3.49-2.3-5.98v-.43c0-1.67.32-3.17.97-4.48.65-1.32,1.56-2.33,2.74-3.04,1.18-.71,2.54-1.07,4.05-1.07,2.28,0,4.07.72,5.38,2.15,1.31,1.44,1.96,3.47,1.96,6.11v1.81h-10.6c.14,1.09.58,1.96,1.3,2.61s1.64.98,2.75.98c1.71,0,3.05-.62,4.01-1.86l2.18,2.45c-.67.94-1.57,1.68-2.71,2.21-1.14.53-2.4.79-3.78.79ZM689.97,164.07c-.88,0-1.6.3-2.14.9-.55.6-.9,1.45-1.05,2.56h6.18v-.36c-.02-.99-.29-1.75-.8-2.29-.51-.54-1.24-.81-2.18-.81Z"/>
        <path class="cls-15" d="M704.16,160.79l.14,1.92c1.19-1.49,2.78-2.23,4.78-2.23,1.76,0,3.08.52,3.94,1.55.86,1.04,1.3,2.58,1.32,4.64v10.75h-4.44v-10.64c0-.94-.21-1.63-.62-2.05-.41-.42-1.09-.64-2.05-.64-1.25,0-2.19.53-2.81,1.6v11.73h-4.44v-16.64h4.18Z"/>
        <path class="cls-15" d="M723.25,156.7v4.09h2.84v3.26h-2.84v8.3c0,.62.12,1.06.35,1.32.24.27.69.4,1.35.4.49,0,.93-.04,1.31-.11v3.37c-.87.27-1.77.4-2.69.4-3.12,0-4.71-1.57-4.77-4.72v-8.96h-2.43v-3.26h2.43v-4.09h4.44Z"/>
        <path class="cls-15" d="M743.17,155.04l5.75,16.24,5.72-16.24h6.06v22.39h-4.63v-6.12l.46-10.56-6.04,16.69h-3.17l-6.03-16.67.46,10.55v6.12h-4.61v-22.39h6.03Z"/>
        <path class="cls-15" d="M774.3,177.43c-.21-.4-.35-.9-.45-1.49-1.08,1.2-2.48,1.8-4.2,1.8-1.63,0-2.98-.47-4.05-1.42-1.07-.94-1.61-2.13-1.61-3.57,0-1.76.65-3.12,1.96-4.06,1.31-.94,3.2-1.42,5.67-1.43h2.04v-.95c0-.77-.2-1.38-.59-1.85-.39-.46-1.02-.69-1.87-.69-.75,0-1.34.18-1.76.54-.42.36-.64.85-.64,1.48h-4.44c0-.96.3-1.86.89-2.68.59-.82,1.43-1.46,2.52-1.93s2.31-.7,3.66-.7c2.05,0,3.68.52,4.88,1.55,1.2,1.03,1.81,2.48,1.81,4.34v7.21c0,1.58.23,2.77.66,3.58v.26h-4.49ZM770.63,174.34c.66,0,1.26-.15,1.82-.44.55-.29.96-.68,1.23-1.18v-2.86h-1.66c-2.22,0-3.41.77-3.55,2.31l-.02.26c0,.55.19,1.01.58,1.37.39.36.92.54,1.6.54Z"/>
        <path class="cls-15" d="M785.86,160.79l.14,1.92c1.19-1.49,2.78-2.23,4.78-2.23,1.76,0,3.08.52,3.94,1.55.86,1.04,1.3,2.58,1.32,4.64v10.75h-4.44v-10.64c0-.94-.21-1.63-.62-2.05-.41-.42-1.09-.64-2.05-.64-1.25,0-2.19.53-2.81,1.6v11.73h-4.44v-16.64h4.18Z"/>
        <path class="cls-15" d="M809.27,177.43c-.21-.4-.35-.9-.45-1.49-1.08,1.2-2.48,1.8-4.2,1.8-1.63,0-2.98-.47-4.05-1.42s-1.61-2.13-1.61-3.57c0-1.76.65-3.12,1.96-4.06,1.31-.94,3.2-1.42,5.67-1.43h2.04v-.95c0-.77-.2-1.38-.59-1.85-.39-.46-1.02-.69-1.87-.69-.75,0-1.33.18-1.76.54-.42.36-.64.85-.64,1.48h-4.44c0-.96.3-1.86.89-2.68s1.44-1.46,2.52-1.93,2.31-.7,3.66-.7c2.05,0,3.68.52,4.88,1.55,1.21,1.03,1.81,2.48,1.81,4.34v7.21c0,1.58.23,2.77.66,3.58v.26h-4.49ZM805.59,174.34c.66,0,1.26-.15,1.81-.44s.96-.68,1.23-1.18v-2.86h-1.66c-2.22,0-3.41.77-3.55,2.31l-.02.26c0,.55.19,1.01.58,1.37.39.36.92.54,1.6.54Z"/>
        <path class="cls-15" d="M816.09,168.99c0-2.55.61-4.61,1.82-6.17,1.21-1.56,2.85-2.34,4.91-2.34,1.82,0,3.25.63,4.26,1.88l.18-1.57h4.03v16.09c0,1.46-.33,2.72-.99,3.8-.66,1.08-1.59,1.9-2.79,2.46-1.2.56-2.6.85-4.21.85-1.22,0-2.41-.24-3.57-.73-1.16-.49-2.04-1.11-2.63-1.88l1.97-2.71c1.11,1.24,2.45,1.86,4.03,1.86,1.18,0,2.1-.32,2.75-.95.66-.63.98-1.53.98-2.68v-.89c-1.03,1.16-2.37,1.74-4.04,1.74-2,0-3.62-.78-4.85-2.35-1.24-1.56-1.85-3.64-1.85-6.22v-.18ZM820.53,169.32c0,1.51.3,2.69.91,3.55.6.86,1.43,1.29,2.49,1.29,1.35,0,2.32-.51,2.91-1.53v-7.01c-.59-1.02-1.55-1.52-2.88-1.52-1.07,0-1.9.44-2.51,1.31-.61.87-.92,2.18-.92,3.91Z"/>
        <path class="cls-15" d="M842.59,177.74c-2.44,0-4.43-.75-5.96-2.25-1.53-1.5-2.3-3.49-2.3-5.98v-.43c0-1.67.32-3.17.97-4.48s1.56-2.33,2.75-3.04c1.18-.71,2.54-1.07,4.05-1.07,2.28,0,4.07.72,5.38,2.15,1.31,1.44,1.96,3.47,1.96,6.11v1.81h-10.6c.14,1.09.58,1.96,1.3,2.61s1.64.98,2.75.98c1.71,0,3.05-.62,4.01-1.86l2.18,2.45c-.67.94-1.57,1.68-2.71,2.21-1.14.53-2.4.79-3.78.79ZM842.08,164.07c-.88,0-1.6.3-2.15.9-.55.6-.9,1.45-1.05,2.56h6.18v-.36c-.02-.99-.29-1.75-.8-2.29-.51-.54-1.24-.81-2.18-.81Z"/>
        <path class="cls-15" d="M856.34,160.79l.14,1.86c1.18-1.45,2.77-2.17,4.78-2.17,2.14,0,3.61.85,4.41,2.54,1.17-1.69,2.83-2.54,5-2.54,1.8,0,3.15.53,4.03,1.58.88,1.05,1.32,2.63,1.32,4.74v10.63h-4.46v-10.61c0-.94-.18-1.63-.55-2.07s-1.02-.65-1.95-.65c-1.33,0-2.26.64-2.77,1.91l.02,11.43h-4.45v-10.6c0-.96-.19-1.66-.57-2.09-.38-.43-1.03-.65-1.94-.65-1.26,0-2.17.52-2.74,1.57v11.76h-4.44v-16.64h4.17Z"/>
        <path class="cls-15" d="M887.32,177.74c-2.44,0-4.43-.75-5.96-2.25-1.53-1.5-2.3-3.49-2.3-5.98v-.43c0-1.67.32-3.17.97-4.48.65-1.32,1.56-2.33,2.74-3.04,1.18-.71,2.54-1.07,4.05-1.07,2.28,0,4.07.72,5.38,2.15,1.31,1.44,1.96,3.47,1.96,6.11v1.81h-10.6c.14,1.09.58,1.96,1.3,2.61s1.64.98,2.75.98c1.71,0,3.05-.62,4.01-1.86l2.18,2.45c-.67.94-1.57,1.68-2.71,2.21-1.14.53-2.4.79-3.78.79ZM886.81,164.07c-.88,0-1.6.3-2.14.9-.55.6-.9,1.45-1.05,2.56h6.18v-.36c-.02-.99-.29-1.75-.8-2.29-.51-.54-1.24-.81-2.18-.81Z"/>
        <path class="cls-15" d="M901,160.79l.14,1.92c1.19-1.49,2.78-2.23,4.78-2.23,1.76,0,3.08.52,3.94,1.55.86,1.04,1.3,2.58,1.32,4.64v10.75h-4.44v-10.64c0-.94-.21-1.63-.62-2.05-.41-.42-1.09-.64-2.05-.64-1.25,0-2.19.53-2.81,1.6v11.73h-4.44v-16.64h4.18Z"/>
        <path class="cls-15" d="M920.09,156.7v4.09h2.84v3.26h-2.84v8.3c0,.62.12,1.06.35,1.32s.69.4,1.35.4c.49,0,.93-.04,1.31-.11v3.37c-.87.27-1.77.4-2.69.4-3.12,0-4.71-1.57-4.77-4.72v-8.96h-2.43v-3.26h2.43v-4.09h4.44Z"/>
      </g>
    </g>
  </g>
</svg>