<?xml version="1.0" encoding="UTF-8"?>
<svg id="Layer_1" xmlns="http://www.w3.org/2000/svg" xmlns:xlink="http://www.w3.org/1999/xlink" version="1.1" viewBox="0 0 444.32 79.54">
  <!-- Generator: Adobe Illustrator 30.2.1, SVG Export Plug-In . SVG Version: 2.1.1 Build 1)  -->
  <defs>
    <style>
      .st0, .st1, .st2 {
        fill: none;
      }

      .st1, .st2 {
        stroke: #f89621;
        stroke-linecap: round;
        stroke-linejoin: round;
        stroke-width: 4.74px;
      }

      .st3 {
        fill: url(#linear-gradient2);
      }

      .st4 {
        fill: url(#linear-gradient1);
      }

      .st2 {
        stroke-dasharray: 0 14.5;
      }

      .st5 {
        fill: url(#linear-gradient);
      }

      .st6 {
        isolation: isolate;
      }

      .st7 {
        clip-path: url(#clippath-1);
      }

      .st8 {
        clip-path: url(#clippath-2);
      }

      .st9 {
        fill: #fff;
      }

      .st10 {
        fill: #bb9a63;
      }

      .st11 {
        fill: #efd5cf;
      }

      .st12 {
        clip-path: url(#clippath);
      }
    </style>
    <clipPath id="clippath">
      <polygon class="st0" points="67.3 62.43 75.66 67.27 84.03 62.43 75.66 57.6 67.3 62.43"/>
    </clipPath>
    <linearGradient id="linear-gradient" x1="-809.37" y1="472.2" x2="-808.37" y2="472.2" gradientTransform="translate(72766.16 124610.6) rotate(90) scale(153.94)" gradientUnits="userSpaceOnUse">
      <stop offset="0" stop-color="#fbee43"/>
      <stop offset=".04" stop-color="#fbe336"/>
      <stop offset=".11" stop-color="#fbd224"/>
      <stop offset=".19" stop-color="#fbc919"/>
      <stop offset=".28" stop-color="#fcc616"/>
      <stop offset=".55" stop-color="#f4a032"/>
      <stop offset=".67" stop-color="#f19040"/>
      <stop offset=".89" stop-color="#ed673c"/>
      <stop offset="1" stop-color="#ea3e38"/>
    </linearGradient>
    <clipPath id="clippath-1">
      <polygon class="st0" points="67.3 72.1 75.66 76.93 75.66 67.27 67.3 62.43 67.3 72.1"/>
    </clipPath>
    <linearGradient id="linear-gradient1" x1="-803.21" y1="458.37" x2="-802.21" y2="458.37" gradientTransform="translate(22485.97 39303.75) rotate(90) scale(48.9)" gradientUnits="userSpaceOnUse">
      <stop offset="0" stop-color="#fbee43"/>
      <stop offset=".04" stop-color="#fbe336"/>
      <stop offset=".11" stop-color="#fbd224"/>
      <stop offset=".19" stop-color="#fbc919"/>
      <stop offset=".28" stop-color="#fcc616"/>
      <stop offset=".55" stop-color="#f4a032"/>
      <stop offset=".67" stop-color="#f19040"/>
      <stop offset=".89" stop-color="#ed673c"/>
      <stop offset="1" stop-color="#ea3e38"/>
    </linearGradient>
    <clipPath id="clippath-2">
      <polygon class="st0" points="75.66 67.27 75.66 76.93 84.03 72.1 84.03 62.43 75.66 67.27"/>
    </clipPath>
    <linearGradient id="linear-gradient2" x1="-803.46" y1="470.35" x2="-802.46" y2="470.35" gradientTransform="translate(35516.3 60549.2) rotate(90) scale(75.34)" gradientUnits="userSpaceOnUse">
      <stop offset="0" stop-color="#fbee43"/>
      <stop offset=".04" stop-color="#fbe336"/>
      <stop offset=".11" stop-color="#fbd224"/>
      <stop offset=".19" stop-color="#fbc919"/>
      <stop offset=".28" stop-color="#fcc616"/>
      <stop offset=".55" stop-color="#f4a032"/>
      <stop offset=".67" stop-color="#f19040"/>
      <stop offset=".89" stop-color="#ed673c"/>
      <stop offset="1" stop-color="#ea3e38"/>
    </linearGradient>
  </defs>
  <g class="st6">
    <g class="st6">
      <path class="st11" d="M20.63,45.3l-12.39-2.95L12.48,5.32h41.68v12.34h-28.88l-1.75,15.34c.9-.53,2.31-1.12,4.25-1.77,1.93-.65,4.1-.97,6.5-.97,3.56,0,6.73.55,9.49,1.65,2.76,1.1,5.1,2.69,7.02,4.77,1.92,2.08,3.36,4.64,4.35,7.67.98,3.03,1.47,6.48,1.47,10.34,0,3.2-.5,6.25-1.5,9.17-1,2.92-2.52,5.51-4.57,7.8s-4.64,4.09-7.77,5.42c-3.13,1.33-6.81,2-11.04,2-3.2,0-6.3-.48-9.29-1.45-3-.97-5.69-2.37-8.07-4.22-2.38-1.85-4.26-4.11-5.65-6.77-1.38-2.67-2.09-5.66-2.12-9h15.59c.17,1.93.65,3.59,1.45,4.97.8,1.38,1.88,2.45,3.25,3.2,1.37.75,2.95,1.12,4.75,1.12s3.2-.34,4.4-1.02c1.2-.68,2.16-1.62,2.87-2.82.72-1.2,1.24-2.6,1.57-4.2.33-1.6.5-3.31.5-5.15s-.22-3.61-.65-5.12c-.43-1.52-1.1-2.81-2-3.9-.9-1.08-2.04-1.92-3.42-2.5-1.38-.58-3.04-.88-4.97-.88-2.53,0-4.51.42-5.95,1.25-1.43.83-2.55,1.73-3.35,2.7Z"/>
    </g>
  </g>
  <g class="st6">
    <g class="st6">
      <path class="st10" d="M15.3,40.54l-12.39-2.95L7.15.56h41.68v12.34h-28.88l-1.75,15.34c.9-.53,2.31-1.12,4.25-1.77,1.93-.65,4.1-.97,6.5-.97,3.56,0,6.73.55,9.49,1.65,2.76,1.1,5.1,2.69,7.02,4.77,1.92,2.08,3.36,4.64,4.35,7.67.98,3.03,1.47,6.48,1.47,10.34,0,3.2-.5,6.25-1.5,9.17-1,2.92-2.52,5.51-4.57,7.8s-4.64,4.09-7.77,5.42c-3.13,1.33-6.81,2-11.04,2-3.2,0-6.3-.48-9.29-1.45-3-.97-5.69-2.37-8.07-4.22-2.38-1.85-4.26-4.11-5.65-6.77-1.38-2.67-2.09-5.66-2.12-9h15.59c.17,1.93.65,3.59,1.45,4.97.8,1.38,1.88,2.45,3.25,3.2,1.37.75,2.95,1.12,4.75,1.12s3.2-.34,4.4-1.02c1.2-.68,2.16-1.62,2.87-2.82.72-1.2,1.24-2.6,1.57-4.2.33-1.6.5-3.31.5-5.15s-.22-3.61-.65-5.12c-.43-1.52-1.1-2.81-2-3.9-.9-1.08-2.04-1.92-3.42-2.5-1.38-.58-3.04-.88-4.97-.88-2.53,0-4.51.42-5.95,1.25-1.43.83-2.55,1.73-3.35,2.7Z"/>
    </g>
  </g>
  <polygon class="st10" points="75.66 71.56 410.74 71.56 444.32 27.74 75.66 27.74 75.66 71.56"/>
  <g class="st12">
    <rect class="st5" x="67" y="52.79" width="17.33" height="19.29" transform="translate(-18.26 90.74) rotate(-56.3)"/>
  </g>
  <g class="st7">
    <rect class="st4" x="66.46" y="61.98" width="10.05" height="15.4" transform="translate(-7.85 9.09) rotate(-6.9)"/>
  </g>
  <g class="st8">
    <rect class="st3" x="71.68" y="61.7" width="16.34" height="15.96" transform="translate(-25.47 81.48) rotate(-47.5)"/>
  </g>
  <line class="st2" x1="81.8" y1="19.12" x2="292.05" y2="19.12"/>
  <path class="st1" d="M299.3,19.12h0M67.3,19.12h0"/>
  <g class="st6">
    <g class="st6">
      <path class="st9" d="M111.51,49.17v.91c0,1.46-.2,2.77-.59,3.93s-.95,2.15-1.67,2.96c-.72.81-1.58,1.44-2.58,1.87-1,.43-2.1.65-3.32.65s-2.3-.22-3.3-.65c-1-.43-1.86-1.05-2.59-1.87-.73-.81-1.29-1.8-1.69-2.96-.4-1.16-.6-2.47-.6-3.93v-.91c0-1.47.2-2.78.59-3.94.4-1.16.96-2.14,1.68-2.96.72-.82,1.59-1.44,2.58-1.87,1-.43,2.1-.65,3.3-.65s2.32.22,3.32.65c1,.43,1.86,1.05,2.58,1.87.72.82,1.29,1.8,1.69,2.96.4,1.16.6,2.47.6,3.94ZM107.52,50.08v-.94c0-1.02-.09-1.92-.28-2.69s-.46-1.42-.82-1.95-.8-.92-1.32-1.19c-.52-.27-1.11-.4-1.78-.4s-1.26.13-1.77.4c-.51.27-.95.67-1.31,1.19-.36.53-.63,1.18-.81,1.95s-.28,1.67-.28,2.69v.94c0,1.01.09,1.91.28,2.68.18.78.46,1.43.82,1.96.36.53.8.93,1.32,1.21.52.27,1.11.41,1.78.41s1.26-.14,1.78-.41c.52-.27.95-.67,1.3-1.21.35-.53.62-1.19.8-1.96.18-.78.28-1.67.28-2.68Z"/>
    </g>
    <g class="st6">
      <path class="st9" d="M117.92,47.7v17.01h-3.8v-19.75h3.52l.28,2.74ZM126.95,51.93v.28c0,1.04-.12,2-.36,2.89-.24.89-.6,1.66-1.06,2.31-.47.65-1.04,1.16-1.73,1.53-.69.36-1.48.55-2.38.55s-1.63-.18-2.27-.53-1.18-.85-1.61-1.48c-.44-.64-.78-1.38-1.05-2.22s-.47-1.75-.61-2.71v-.73c.14-1.04.34-1.99.61-2.85.26-.87.61-1.62,1.05-2.25.43-.64.97-1.13,1.61-1.48.64-.35,1.39-.53,2.25-.53.91,0,1.7.17,2.39.51.69.34,1.27.83,1.74,1.48.47.64.83,1.41,1.07,2.29.24.89.36,1.87.36,2.95ZM123.14,52.21v-.28c0-.61-.05-1.17-.15-1.68-.1-.51-.26-.96-.47-1.35-.22-.39-.5-.69-.84-.9-.35-.22-.77-.32-1.26-.32-.52,0-.96.08-1.32.25-.37.17-.66.41-.89.73s-.4.69-.51,1.13-.18.94-.21,1.49v1.83c.04.65.17,1.23.37,1.75.2.51.51.92.94,1.22s.98.45,1.66.45c.5,0,.92-.11,1.27-.34.34-.22.62-.53.84-.93.21-.39.37-.85.46-1.37.09-.52.14-1.08.14-1.67Z"/>
    </g>
    <g class="st6">
      <path class="st9" d="M135.79,59.48c-1.11,0-2.1-.18-2.98-.53-.88-.36-1.62-.85-2.23-1.48-.61-.63-1.08-1.37-1.4-2.21-.33-.84-.49-1.73-.49-2.68v-.53c0-1.08.15-2.07.46-2.97s.75-1.67,1.33-2.33c.58-.66,1.28-1.17,2.1-1.52.83-.36,1.76-.53,2.79-.53s1.91.17,2.69.5,1.44.81,1.97,1.42.93,1.35,1.21,2.21c.27.86.41,1.81.41,2.85v1.58h-11.34v-2.53h7.61v-.29c0-.53-.09-1-.28-1.42-.19-.42-.47-.75-.85-1-.38-.25-.86-.37-1.45-.37-.5,0-.93.11-1.29.33s-.65.53-.88.92c-.22.4-.39.86-.5,1.39-.11.53-.17,1.11-.17,1.75v.53c0,.57.08,1.1.24,1.58.16.48.4.9.7,1.25.3.35.67.62,1.11.82.44.19.93.29,1.48.29.69,0,1.33-.13,1.92-.4.59-.27,1.11-.67,1.54-1.22l1.85,2c-.3.43-.71.84-1.22,1.24-.51.4-1.13.72-1.85.97-.72.25-1.54.38-2.47.38Z"/>
    </g>
    <g class="st6">
      <path class="st9" d="M147.6,48.07v11.15h-3.8v-14.26h3.57l.22,3.11ZM151.9,44.86l-.07,3.52c-.18-.03-.41-.05-.67-.07-.26-.02-.49-.03-.71-.03-.54,0-1,.07-1.39.2-.39.14-.72.34-.98.6s-.45.58-.58.96-.2.81-.22,1.29l-.76-.24c0-.92.09-1.77.28-2.55.18-.78.46-1.46.81-2.04.36-.58.79-1.03,1.31-1.34s1.11-.47,1.78-.47c.21,0,.43.02.65.05.22.03.4.07.54.12Z"/>
    </g>
    <g class="st6">
      <path class="st9" d="M161.87,50.53l.03,2.15h-2.12c-.5,0-.94.06-1.31.17s-.67.27-.91.48c-.24.21-.41.45-.52.72s-.16.57-.16.9.07.62.22.88c.15.26.36.46.65.61.28.14.61.22.99.22.57,0,1.07-.11,1.49-.34.42-.23.75-.51.98-.84.23-.33.35-.65.36-.95l1,1.61c-.14.36-.33.73-.57,1.12s-.55.75-.92,1.09c-.37.34-.81.62-1.33.83-.52.22-1.13.32-1.85.32-.91,0-1.73-.18-2.46-.55-.73-.37-1.31-.87-1.74-1.52-.43-.65-.64-1.38-.64-2.21,0-.75.14-1.41.42-1.99s.7-1.07,1.25-1.47c.55-.4,1.24-.7,2.06-.91.83-.21,1.78-.31,2.87-.31h2.2ZM161.37,56v-6.35c0-.46-.07-.85-.22-1.18-.15-.33-.38-.59-.69-.77-.31-.18-.71-.28-1.21-.28-.42,0-.79.07-1.09.22-.31.15-.54.35-.71.62-.17.27-.25.58-.25.94h-3.8c0-.61.14-1.18.42-1.73s.69-1.03,1.23-1.44c.54-.42,1.18-.75,1.92-.98.74-.24,1.58-.36,2.5-.36,1.11,0,2.09.18,2.95.55s1.54.92,2.04,1.66.75,1.66.75,2.77v6.1c0,.78.05,1.42.15,1.92.1.5.24.93.42,1.3v.22h-3.84c-.18-.39-.32-.87-.42-1.46-.09-.58-.14-1.17-.14-1.76Z"/>
    </g>
    <g class="st6">
      <path class="st9" d="M174.97,44.96v2.69h-8.31v-2.69h8.31ZM168.72,41.43h3.8v13.49c0,.41.05.73.17.95.11.22.27.37.49.46.22.08.5.12.83.12.24,0,.45-.01.64-.03.19-.02.35-.05.48-.07v2.79c-.31.11-.66.19-1.04.25-.38.06-.8.09-1.25.09-.83,0-1.56-.14-2.18-.42-.62-.28-1.1-.72-1.43-1.34-.33-.61-.5-1.42-.5-2.43v-13.87Z"/>
      <path class="st9" d="M177.08,41.24c0-.55.19-1.01.58-1.37s.91-.54,1.56-.54,1.16.18,1.55.54c.39.36.59.82.59,1.37s-.2,1.01-.59,1.37c-.39.36-.91.54-1.55.54s-1.17-.18-1.56-.54-.58-.82-.58-1.37ZM181.13,44.96v14.26h-3.81v-14.26h3.81Z"/>
    </g>
    <g class="st6">
      <path class="st9" d="M183.23,52.23v-.28c0-1.05.15-2.01.45-2.89.3-.88.73-1.65,1.31-2.3.57-.65,1.27-1.16,2.11-1.52.83-.36,1.79-.55,2.87-.55s2.04.18,2.89.55c.84.37,1.55.87,2.13,1.52.58.65,1.01,1.42,1.31,2.3.3.88.45,1.85.45,2.89v.28c0,1.04-.15,2-.45,2.88-.3.88-.74,1.65-1.31,2.31-.58.66-1.28,1.16-2.12,1.52-.83.36-1.79.54-2.87.54s-2.04-.18-2.88-.54c-.84-.36-1.55-.87-2.12-1.52-.58-.65-1.01-1.42-1.31-2.31-.3-.88-.45-1.84-.45-2.88ZM187.03,51.96v.28c0,.6.05,1.16.16,1.67s.27.97.51,1.36c.23.39.54.7.92.92s.84.33,1.38.33.98-.11,1.36-.33.68-.53.91-.92c.23-.39.4-.85.51-1.36s.17-1.08.17-1.67v-.28c0-.58-.06-1.13-.17-1.64-.11-.51-.28-.97-.51-1.37-.23-.4-.54-.71-.92-.94s-.83-.34-1.37-.34-.99.12-1.36.34-.68.54-.91.94c-.23.4-.4.86-.51,1.37-.11.51-.16,1.06-.16,1.64Z"/>
      <path class="st9" d="M202.79,48v11.22h-3.8v-14.26h3.56l.24,3.05ZM202.24,51.59h-1.03c0-1.05.14-2.01.41-2.85.27-.85.65-1.57,1.15-2.18.49-.6,1.08-1.06,1.76-1.38.68-.32,1.44-.48,2.29-.48.67,0,1.28.1,1.83.29s1.03.5,1.43.92c.4.42.71.98.92,1.67.21.69.32,1.54.32,2.54v9.1h-3.82v-9.11c0-.63-.09-1.12-.26-1.48s-.43-.6-.77-.75c-.34-.15-.75-.22-1.25-.22s-.95.1-1.33.3c-.37.2-.68.48-.92.84-.24.36-.42.77-.55,1.25s-.18.98-.18,1.53Z"/>
      <path class="st9" d="M223.94,48.95l3.69-2.39c.54-.36.91-.71,1.09-1.04s.28-.71.28-1.12-.15-.8-.46-1.15c-.31-.36-.74-.53-1.29-.53-.4,0-.73.09-1,.27-.27.18-.48.42-.61.72-.14.3-.2.63-.2,1,0,.4.11.8.32,1.21.21.41.5.84.86,1.29.36.45.76.94,1.2,1.47l9.06,10.55h-4.31l-7.38-8.54c-.62-.77-1.17-1.48-1.63-2.13-.47-.65-.83-1.28-1.09-1.89-.26-.61-.4-1.25-.4-1.9,0-1,.22-1.88.65-2.63.43-.75,1.04-1.34,1.82-1.75.78-.42,1.7-.63,2.76-.63.99,0,1.85.21,2.58.61.73.41,1.29.95,1.69,1.62.4.67.6,1.4.6,2.2,0,.6-.11,1.15-.33,1.66-.22.5-.52.97-.91,1.4-.39.43-.83.82-1.33,1.18l-4.21,2.99c-.33.3-.57.59-.74.88s-.28.56-.34.82c-.06.26-.09.51-.09.75,0,.51.11.97.33,1.37s.53.72.92.95.86.34,1.38.34c.72,0,1.42-.16,2.1-.47s1.28-.77,1.82-1.36c.54-.59.96-1.3,1.28-2.12.32-.82.47-1.72.47-2.7h3.22c0,.98-.1,1.92-.29,2.8-.19.88-.5,1.7-.94,2.45-.43.75-1,1.42-1.71,2-.05.04-.13.11-.22.19-.09.08-.17.15-.23.19-.84.68-1.72,1.18-2.64,1.51-.91.33-1.93.5-3.06.5-1.28,0-2.39-.23-3.33-.7-.94-.47-1.66-1.11-2.16-1.92-.51-.82-.76-1.75-.76-2.81,0-.77.15-1.45.45-2.02.3-.58.72-1.11,1.26-1.6s1.15-.99,1.85-1.49Z"/>
    </g>
    <g class="st6">
      <path class="st9" d="M245.62,40.02h3.33l.61,13.74v5.46h-3.94v-19.2ZM247.43,40.02h3.35l4.93,14.09,4.93-14.09h3.35l-6.93,19.2h-2.69l-6.93-19.2ZM262.46,40.02h3.35v19.2h-3.96v-5.46l.61-13.74Z"/>
    </g>
    <g class="st6">
      <path class="st9" d="M277.18,50.53l.03,2.15h-2.12c-.5,0-.94.06-1.3.17s-.67.27-.91.48c-.24.21-.41.45-.52.72s-.17.57-.17.9.08.62.22.88c.15.26.37.46.65.61.28.14.61.22.99.22.57,0,1.07-.11,1.49-.34.42-.23.75-.51.98-.84.23-.33.35-.65.36-.95l1,1.61c-.14.36-.33.73-.57,1.12s-.55.75-.92,1.09c-.37.34-.81.62-1.33.83-.52.22-1.13.32-1.85.32-.91,0-1.73-.18-2.46-.55-.73-.37-1.31-.87-1.74-1.52-.43-.65-.64-1.38-.64-2.21,0-.75.14-1.41.42-1.99s.7-1.07,1.25-1.47c.55-.4,1.24-.7,2.06-.91.83-.21,1.78-.31,2.87-.31h2.2ZM276.68,56v-6.35c0-.46-.07-.85-.22-1.18-.15-.33-.38-.59-.69-.77-.31-.18-.71-.28-1.21-.28-.42,0-.79.07-1.09.22-.31.15-.54.35-.71.62-.17.27-.25.58-.25.94h-3.8c0-.61.14-1.18.42-1.73s.69-1.03,1.23-1.44c.54-.42,1.18-.75,1.92-.98.74-.24,1.58-.36,2.5-.36,1.11,0,2.09.18,2.95.55s1.54.92,2.04,1.66.75,1.66.75,2.77v6.1c0,.78.05,1.42.15,1.92.1.5.24.93.42,1.3v.22h-3.84c-.18-.39-.32-.87-.42-1.46-.09-.58-.14-1.17-.14-1.76Z"/>
    </g>
    <g class="st6">
      <path class="st9" d="M283.2,41.24c0-.55.19-1.01.58-1.37s.91-.54,1.56-.54,1.16.18,1.55.54c.39.36.59.82.59,1.37s-.2,1.01-.59,1.37c-.39.36-.91.54-1.55.54s-1.17-.18-1.56-.54-.58-.82-.58-1.37ZM287.24,44.96v14.26h-3.81v-14.26h3.81Z"/>
    </g>
    <g class="st6">
      <path class="st9" d="M294.01,48v11.22h-3.8v-14.26h3.56l.24,3.05ZM293.46,51.59h-1.03c0-1.05.14-2.01.41-2.85.27-.85.66-1.57,1.15-2.18.49-.6,1.08-1.06,1.76-1.38.68-.32,1.44-.48,2.29-.48.67,0,1.28.1,1.83.29s1.03.5,1.43.92c.4.42.71.98.92,1.67.21.69.32,1.54.32,2.54v9.1h-3.82v-9.11c0-.63-.09-1.12-.26-1.48s-.43-.6-.77-.75c-.34-.15-.75-.22-1.25-.22s-.95.1-1.33.3c-.37.2-.68.48-.92.84-.24.36-.42.77-.55,1.25s-.18.98-.18,1.53Z"/>
    </g>
    <g class="st6">
      <path class="st9" d="M312.31,44.96v2.69h-8.31v-2.69h8.31ZM306.06,41.43h3.8v13.49c0,.41.05.73.17.95.11.22.27.37.49.46.22.08.5.12.83.12.24,0,.45-.01.64-.03.19-.02.35-.05.48-.07v2.79c-.31.11-.66.19-1.04.25-.38.06-.8.09-1.25.09-.83,0-1.56-.14-2.18-.42-.62-.28-1.1-.72-1.43-1.34-.33-.61-.5-1.42-.5-2.43v-13.87Z"/>
    </g>
    <g class="st6">
      <path class="st9" d="M320.65,59.48c-1.11,0-2.1-.18-2.98-.53-.88-.36-1.62-.85-2.23-1.48-.61-.63-1.08-1.37-1.4-2.21-.33-.84-.49-1.73-.49-2.68v-.53c0-1.08.15-2.07.46-2.97s.75-1.67,1.33-2.33c.58-.66,1.28-1.17,2.1-1.52.83-.36,1.76-.53,2.79-.53s1.91.17,2.69.5,1.44.81,1.97,1.42c.53.62.93,1.35,1.21,2.21.27.86.41,1.81.41,2.85v1.58h-11.34v-2.53h7.61v-.29c0-.53-.09-1-.28-1.42-.19-.42-.47-.75-.85-1-.38-.25-.86-.37-1.45-.37-.5,0-.93.11-1.29.33s-.65.53-.88.92c-.22.4-.39.86-.5,1.39-.11.53-.17,1.11-.17,1.75v.53c0,.57.08,1.1.24,1.58.16.48.4.9.7,1.25.3.35.67.62,1.11.82.44.19.93.29,1.48.29.69,0,1.33-.13,1.92-.4.59-.27,1.11-.67,1.54-1.22l1.85,2c-.3.43-.71.84-1.22,1.24-.51.4-1.13.72-1.85.97-.72.25-1.54.38-2.46.38Z"/>
    </g>
    <g class="st6">
      <path class="st9" d="M332.43,48v11.22h-3.8v-14.26h3.56l.24,3.05ZM331.88,51.59h-1.03c0-1.05.14-2.01.41-2.85.27-.85.66-1.57,1.15-2.18.49-.6,1.08-1.06,1.76-1.38.68-.32,1.44-.48,2.29-.48.67,0,1.28.1,1.83.29s1.03.5,1.43.92c.4.42.71.98.92,1.67.21.69.32,1.54.32,2.54v9.1h-3.82v-9.11c0-.63-.09-1.12-.26-1.48s-.43-.6-.77-.75c-.34-.15-.75-.22-1.25-.22s-.95.1-1.33.3c-.37.2-.68.48-.92.84-.24.36-.42.77-.55,1.25s-.18.98-.18,1.53Z"/>
    </g>
    <g class="st6">
      <path class="st9" d="M351.95,50.53l.03,2.15h-2.12c-.5,0-.94.06-1.31.17s-.67.27-.91.48c-.24.21-.41.45-.52.72-.11.27-.17.57-.17.9s.08.62.22.88c.15.26.37.46.65.61.28.14.61.22.99.22.57,0,1.07-.11,1.49-.34.42-.23.75-.51.98-.84.23-.33.35-.65.36-.95l1,1.61c-.14.36-.33.73-.57,1.12-.24.39-.55.75-.92,1.09-.37.34-.81.62-1.33.83-.52.22-1.13.32-1.85.32-.91,0-1.72-.18-2.46-.55-.73-.37-1.31-.87-1.74-1.52-.43-.65-.64-1.38-.64-2.21,0-.75.14-1.41.42-1.99s.7-1.07,1.25-1.47c.55-.4,1.24-.7,2.06-.91.83-.21,1.78-.31,2.87-.31h2.2ZM351.45,56v-6.35c0-.46-.07-.85-.22-1.18-.15-.33-.38-.59-.69-.77s-.71-.28-1.21-.28c-.42,0-.79.07-1.09.22-.31.15-.54.35-.71.62-.17.27-.25.58-.25.94h-3.8c0-.61.14-1.18.42-1.73s.69-1.03,1.23-1.44c.54-.42,1.18-.75,1.92-.98.74-.24,1.58-.36,2.5-.36,1.11,0,2.09.18,2.95.55s1.54.92,2.04,1.66c.5.74.75,1.66.75,2.77v6.1c0,.78.05,1.42.14,1.92.1.5.24.93.42,1.3v.22h-3.84c-.19-.39-.32-.87-.42-1.46-.09-.58-.14-1.17-.14-1.76Z"/>
    </g>
    <g class="st6">
      <path class="st9" d="M361.88,48v11.22h-3.8v-14.26h3.56l.24,3.05ZM361.33,51.59h-1.03c0-1.05.14-2.01.41-2.85.27-.85.65-1.57,1.15-2.18.49-.6,1.08-1.06,1.76-1.38.68-.32,1.44-.48,2.29-.48.67,0,1.28.1,1.83.29.55.19,1.03.5,1.43.92s.71.98.92,1.67c.21.69.32,1.54.32,2.54v9.1h-3.82v-9.11c0-.63-.09-1.12-.26-1.48s-.43-.6-.77-.75c-.34-.15-.75-.22-1.25-.22s-.95.1-1.33.3c-.37.2-.68.48-.92.84-.24.36-.42.77-.55,1.25s-.19.98-.19,1.53Z"/>
    </g>
    <g class="st6">
      <path class="st9" d="M379.14,56.52c.47,0,.88-.09,1.24-.27.36-.18.64-.44.85-.76.21-.33.31-.72.32-1.17h3.57c0,1-.28,1.89-.8,2.67-.53.78-1.23,1.39-2.12,1.83-.89.44-1.88.67-2.98.67s-2.07-.18-2.89-.55c-.82-.37-1.5-.88-2.05-1.54-.54-.65-.95-1.42-1.23-2.29-.27-.87-.41-1.81-.41-2.81v-.38c0-1.01.14-1.95.41-2.83.27-.88.68-1.64,1.23-2.29.54-.66,1.23-1.17,2.04-1.54s1.78-.55,2.87-.55c1.17,0,2.19.22,3.08.67.88.45,1.58,1.09,2.08,1.92.51.83.76,1.81.77,2.95h-3.57c0-.47-.11-.91-.3-1.29-.19-.39-.46-.7-.82-.93-.36-.23-.79-.35-1.31-.35-.55,0-1.01.12-1.36.35-.35.23-.62.55-.82.95-.19.4-.33.85-.4,1.36-.07.5-.11,1.03-.11,1.59v.38c0,.55.04,1.09.11,1.59.07.51.2.96.4,1.36.2.4.47.71.82.94s.81.34,1.37.34Z"/>
    </g>
    <g class="st6">
      <path class="st9" d="M393.74,59.48c-1.11,0-2.1-.18-2.98-.53-.88-.36-1.62-.85-2.23-1.48-.61-.63-1.08-1.37-1.4-2.21-.33-.84-.49-1.73-.49-2.68v-.53c0-1.08.15-2.07.46-2.97s.75-1.67,1.33-2.33c.58-.66,1.28-1.17,2.1-1.52.83-.36,1.76-.53,2.79-.53s1.91.17,2.69.5,1.44.81,1.97,1.42c.53.62.93,1.35,1.21,2.21.27.86.41,1.81.41,2.85v1.58h-11.34v-2.53h7.61v-.29c0-.53-.09-1-.28-1.42-.19-.42-.47-.75-.85-1-.38-.25-.86-.37-1.45-.37-.5,0-.93.11-1.29.33s-.65.53-.88.92c-.22.4-.39.86-.5,1.39-.11.53-.17,1.11-.17,1.75v.53c0,.57.08,1.1.24,1.58.16.48.4.9.7,1.25.3.35.67.62,1.11.82.44.19.93.29,1.48.29.69,0,1.33-.13,1.92-.4.59-.27,1.11-.67,1.54-1.22l1.85,2c-.3.43-.71.84-1.22,1.24-.51.4-1.13.72-1.85.97-.72.25-1.54.38-2.46.38Z"/>
    </g>
  </g>
</svg>