<?xml version="1.0" encoding="UTF-8"?>
<svg id="Layer_2" data-name="Layer 2" xmlns="http://www.w3.org/2000/svg" viewBox="0 0 98.11 114.69">
  <defs>
    <style>
      .cls-1 {
        fill: #1e7d69;
      }

      .cls-2 {
        fill: #57241d;
      }

      .cls-3 {
        fill: #8c403c;
      }

      .cls-4 {
        fill: #df7925;
      }

      .cls-5 {
        fill: #fff;
      }

      .cls-6 {
        fill: #23624b;
      }

      .cls-7 {
        fill: #f59220;
      }

      .cls-8 {
        fill: #ffda7d;
      }

      .cls-9 {
        fill: #268974;
      }
    </style>
  </defs>
  <g id="Text">
    <g>
      <g>
        <polygon class="cls-4" points="95.87 7.13 98.11 6.03 98.11 94.02 95.87 95.13 95.87 7.13"/>
        <polygon class="cls-4" points="91.44 10.44 93.9 9.23 93.9 97.22 91.44 98.43 91.44 10.44"/>
        <polygon class="cls-4" points="94.26 9.46 97.21 8 97.21 96 94.26 97.45 94.26 9.46"/>
        <polygon class="cls-4" points="66.95 8.94 71.04 8.81 71.04 96.8 66.95 96.94 66.95 8.94"/>
        <polygon class="cls-4" points="78.24 14.6 80.94 13.26 80.94 101.26 78.24 102.59 78.24 14.6"/>
        <polygon class="cls-4" points="92.39 19.96 96.26 18.05 96.26 106.05 92.39 107.95 92.39 19.96"/>
        <polygon class="cls-4" points="84.23 23.75 85.4 23.52 85.4 111.52 84.23 111.74 84.23 23.75"/>
        <polygon class="cls-4" points="91.23 24.13 93.16 23.74 93.16 111.73 91.23 112.12 91.23 24.13"/>
        <polygon class="cls-8" points="52.11 3.79 57.4 5.35 57.4 93.33 52.11 91.79 52.11 3.79"/>
        <polygon class="cls-8" points="56.83 5.97 66.95 8.94 66.95 96.94 56.83 93.97 56.83 5.97"/>
        <polygon class="cls-4" points="71.38 8.34 74.74 9.23 74.74 97.22 71.38 96.33 71.38 8.34"/>
        <polygon class="cls-8" points="72.03 10.58 78.24 14.6 78.24 102.6 72.03 98.57 72.03 10.58"/>
        <polygon class="cls-8" points="80.4 17.67 84.23 23.72 84.23 111.72 80.4 105.67 80.4 17.67"/>
        <polygon class="cls-8" points="85.4 23.52 87.4 26.69 87.4 114.69 85.4 111.52 85.4 23.52"/>
        <polygon class="cls-4" points="87.4 26.69 92.23 25.72 92.23 113.72 87.4 114.69 87.4 26.69"/>
        <polygon class="cls-8" points="88.47 17.42 92.39 19.96 92.39 23.05 88.47 21.18 88.47 17.42"/>
        <polygon class="cls-8" points="84.16 15.69 87.54 17.88 87.54 20.98 84.16 19.46 84.16 15.69"/>
        <polygon class="cls-4" points="87.54 17.88 88.47 17.42 88.47 20.51 87.54 21.65 87.54 17.88"/>
        <polygon class="cls-8" points="89.38 9.1 91.44 10.44 91.44 14.76 89.38 14.45 89.38 9.1"/>
        <polygon class="cls-4" points="82.23 12.62 89.38 9.1 89.38 14.45 83.38 15.13 82.23 12.62"/>
        <polygon class="cls-4" points="93.26 5.26 93.11 2.78 88.62 5 91.44 6.85 93.26 5.26"/>
        <polygon class="cls-8" points="81.11 6.58 81.2 3.69 83.17 5.07 83.17 6.01 81.11 6.58"/>
        <polygon class="cls-4" points="75.64 8.95 75.64 6.1 72.61 7.6 75.64 8.95"/>
        <polygon class="cls-4" points="76.23 3.78 73.87 4.95 75.64 6.1 75.64 8.95 76.03 9.08 76.27 8.49 76.23 3.78"/>
        <polygon class="cls-8" points="70.76 6.99 67.56 4.91 67.56 6.58 70.76 6.99"/>
        <polygon class="cls-8" points="64.57 1.91 64.57 5.79 67.56 6.58 67.56 4.91 68.49 4.45 64.57 1.91"/>
        <polygon class="cls-4" points="64.17 5.13 64.17 3.11 62.72 4.69 64.17 5.13"/>
        <polygon class="cls-8" points="71.38 8.34 71.04 8.81 71.04 96.8 71.38 96.33 71.38 8.34"/>
        <polygon class="cls-8" points="80.94 13.26 80.94 16.13 82.33 16.02 82.06 15.27 80.94 13.26"/>
        <polygon class="cls-5" points="74.74 9.24 71.38 8.34 71.04 8.81 66.95 8.94 56.83 5.97 57.4 5.35 52.11 3.79 54.47 1.22 57.12 1.99 58.06 .97 61.53 1.99 61.28 2.26 64.17 3.11 62.72 4.69 70.76 6.99 67.56 4.91 68.49 4.45 64.57 1.91 68.44 0 70.4 1.27 71.94 .51 74.51 2.18 74.1 2.39 76.23 3.78 73.87 4.95 75.64 6.1 72.61 7.6 76.03 8.6 83.17 5.07 81.2 3.69 83.56 2.52 83.2 2.18 86.15 .83 87.49 1.7 89.74 .59 93.11 2.78 88.62 5 90.25 6.05 94.74 3.84 98.11 6.03 95.87 7.13 97.21 8 94.26 9.46 93.9 9.23 91.44 10.44 89.38 9.1 82.23 12.62 83.53 14.68 86.56 13.18 88.34 14.34 90.7 13.17 92.84 14.55 93.26 14.35 95.83 16.02 94.3 16.78 96.26 18.05 92.39 19.96 88.47 17.42 87.54 17.88 84.16 15.69 87.27 20.62 90.23 20.02 91.32 21.76 91.84 21.65 93.16 23.74 91.23 24.13 92.23 25.72 87.4 26.69 85.4 23.52 84.23 23.75 80.4 17.67 81.2 15.39 82.06 15.27 80.94 13.26 78.24 14.6 72.03 10.58 74.74 9.24"/>
        <g>
          <polygon class="cls-7" points="63.79 11.22 60.25 10.21 60.25 11.15 63.79 12.16 63.79 11.22"/>
          <polygon class="cls-7" points="63.79 14.24 60.25 13.23 60.25 14.18 63.79 15.18 63.79 14.24"/>
          <polygon class="cls-7" points="63.79 17.26 60.25 16.26 60.25 17.2 63.79 18.21 63.79 17.26"/>
          <polygon class="cls-7" points="63.79 20.29 60.25 19.28 60.25 20.22 63.79 21.23 63.79 20.29"/>
          <polygon class="cls-7" points="63.79 23.31 60.25 22.3 60.25 23.25 63.79 24.25 63.79 23.31"/>
          <polygon class="cls-7" points="63.79 26.33 60.25 25.33 60.25 26.27 63.79 27.28 63.79 26.33"/>
          <polygon class="cls-7" points="63.79 29.36 60.25 28.35 60.25 29.29 63.79 30.3 63.79 29.36"/>
          <polygon class="cls-7" points="63.79 32.38 60.25 31.37 60.25 32.32 63.79 33.32 63.79 32.38"/>
          <polygon class="cls-7" points="63.79 35.4 60.25 34.4 60.25 35.34 63.79 36.35 63.79 35.4"/>
          <polygon class="cls-7" points="63.79 38.43 60.25 37.42 60.25 38.36 63.79 39.37 63.79 38.43"/>
          <polygon class="cls-7" points="63.79 41.45 60.25 40.44 60.25 41.38 63.79 42.39 63.79 41.45"/>
          <polygon class="cls-7" points="63.79 44.47 60.25 43.46 60.25 44.41 63.79 45.41 63.79 44.47"/>
          <polygon class="cls-7" points="63.79 47.49 60.25 46.49 60.25 47.43 63.79 48.44 63.79 47.49"/>
          <polygon class="cls-7" points="63.79 50.52 60.25 49.51 60.25 50.45 63.79 51.46 63.79 50.52"/>
          <polygon class="cls-7" points="63.79 53.54 60.25 52.53 60.25 53.48 63.79 54.48 63.79 53.54"/>
          <polygon class="cls-7" points="63.79 56.56 60.25 55.56 60.25 56.5 63.79 57.51 63.79 56.56"/>
          <polygon class="cls-7" points="63.79 59.59 60.25 58.58 60.25 59.52 63.79 60.53 63.79 59.59"/>
          <polygon class="cls-7" points="63.79 62.61 60.25 61.6 60.25 62.54 63.79 63.55 63.79 62.61"/>
          <polygon class="cls-7" points="63.79 65.63 60.25 64.62 60.25 65.56 63.79 66.57 63.79 65.63"/>
          <polygon class="cls-7" points="63.79 68.65 60.25 67.64 60.25 68.59 63.79 69.59 63.79 68.65"/>
          <polygon class="cls-7" points="63.79 71.67 60.25 70.67 60.25 71.61 63.79 72.62 63.79 71.67"/>
          <polygon class="cls-7" points="63.79 74.7 60.25 73.69 60.25 74.63 63.79 75.64 63.79 74.7"/>
          <polygon class="cls-7" points="63.79 77.72 60.25 76.71 60.25 77.66 63.79 78.66 63.79 77.72"/>
          <polygon class="cls-7" points="63.79 80.74 60.25 79.74 60.25 80.68 63.79 81.69 63.79 80.74"/>
          <polygon class="cls-7" points="63.79 83.77 60.25 82.76 60.25 83.7 63.79 84.71 63.79 83.77"/>
          <polygon class="cls-7" points="63.79 86.79 60.25 85.78 60.25 86.72 63.79 87.73 63.79 86.79"/>
          <polygon class="cls-7" points="63.79 89.81 60.25 88.8 60.25 89.75 63.79 90.75 63.79 89.81"/>
        </g>
        <g>
          <polygon class="cls-7" points="73.62 13.36 77.16 15.57 77.16 16.51 73.62 14.3 73.62 13.36"/>
          <polygon class="cls-7" points="73.62 16.38 77.16 18.59 77.16 19.53 73.62 17.33 73.62 16.38"/>
          <polygon class="cls-7" points="73.62 19.41 77.16 21.61 77.16 22.56 73.62 20.35 73.62 19.41"/>
          <polygon class="cls-7" points="73.62 22.43 77.16 24.64 77.16 25.58 73.62 23.37 73.62 22.43"/>
          <polygon class="cls-7" points="73.62 25.45 77.16 27.66 77.16 28.6 73.62 26.4 73.62 25.45"/>
          <polygon class="cls-7" points="73.62 28.48 77.16 30.68 77.16 31.62 73.62 29.42 73.62 28.48"/>
          <polygon class="cls-7" points="73.62 31.5 77.16 33.7 77.16 34.65 73.62 32.44 73.62 31.5"/>
          <polygon class="cls-7" points="73.62 34.52 77.16 36.73 77.16 37.67 73.62 35.46 73.62 34.52"/>
          <polygon class="cls-7" points="73.62 37.54 77.16 39.75 77.16 40.69 73.62 38.49 73.62 37.54"/>
          <polygon class="cls-7" points="73.62 40.57 77.16 42.77 77.16 43.72 73.62 41.51 73.62 40.57"/>
          <polygon class="cls-7" points="73.62 43.59 77.16 45.8 77.16 46.74 73.62 44.53 73.62 43.59"/>
          <polygon class="cls-7" points="73.62 46.61 77.16 48.82 77.16 49.76 73.62 47.56 73.62 46.61"/>
          <polygon class="cls-7" points="73.62 49.64 77.16 51.84 77.16 52.79 73.62 50.58 73.62 49.64"/>
          <polygon class="cls-7" points="73.62 52.66 77.16 54.87 77.16 55.81 73.62 53.6 73.62 52.66"/>
          <polygon class="cls-7" points="73.62 55.68 77.16 57.89 77.16 58.83 73.62 56.63 73.62 55.68"/>
          <polygon class="cls-7" points="73.62 58.71 77.16 60.91 77.16 61.85 73.62 59.65 73.62 58.71"/>
          <polygon class="cls-7" points="73.62 61.73 77.16 63.93 77.16 64.88 73.62 62.67 73.62 61.73"/>
          <polygon class="cls-7" points="73.62 64.75 77.16 66.96 77.16 67.9 73.62 65.69 73.62 64.75"/>
          <polygon class="cls-7" points="73.62 67.77 77.16 69.98 77.16 70.92 73.62 68.71 73.62 67.77"/>
          <polygon class="cls-7" points="73.62 70.79 77.16 73 77.16 73.94 73.62 71.74 73.62 70.79"/>
          <polygon class="cls-7" points="73.62 73.82 77.16 76.02 77.16 76.96 73.62 74.76 73.62 73.82"/>
          <polygon class="cls-7" points="73.62 76.84 77.16 79.04 77.16 79.99 73.62 77.78 73.62 76.84"/>
          <polygon class="cls-7" points="73.62 79.86 77.16 82.07 77.16 83.01 73.62 80.8 73.62 79.86"/>
          <polygon class="cls-7" points="73.62 82.88 77.16 85.09 77.16 86.03 73.62 83.83 73.62 82.88"/>
          <polygon class="cls-7" points="73.62 85.91 77.16 88.11 77.16 89.06 73.62 86.85 73.62 85.91"/>
          <polygon class="cls-7" points="73.62 88.93 77.16 91.14 77.16 92.08 73.62 89.87 73.62 88.93"/>
          <polygon class="cls-7" points="73.62 91.95 77.16 94.16 77.16 95.1 73.62 92.9 73.62 91.95"/>
        </g>
      </g>
      <g>
        <g>
          <path class="cls-6" d="M17.51,54.81c-.06-.06-.13-.08-.21-.1,0-.03.01-.05.02-.08.02-.08.05-.18.02-.26.08-.02.15-.08.19-.15.08-.17-.05-.32-.2-.37,0-.01.02-.03.02-.05.02-.07,0-.15-.03-.22.19-.13.23-.48.12-.66,0,0,0,0,0,0,.07-.11.02-.26-.03-.36-.02-.04-.06-.08-.1-.11-.03-.06-.08-.09-.14-.09.03-.05.04-.11.03-.18-.04-.17-.18-.22-.33-.22,0-.06,0-.11-.04-.14.09-.04.16-.12.14-.24-.02-.14-.13-.19-.25-.17.08-.07.13-.18.14-.28.01-.13-.07-.17-.18-.15.09-.08.12-.2.04-.31-.05-.08-.13-.11-.21-.12,0-.02,0-.05-.01-.07-.02-.08-.07-.15-.15-.18,0,0-.02,0-.03,0-.02-.05-.08-.1-.17-.11-.14-.03-.2.1-.21.24-.02,0-.05,0-.07,0-.04-.09-.1-.15-.19-.11-.04.02-.07.04-.09.07-.1.03-.21.11-.29.2-.17-.05-.31.07-.35.23-.1-.05-.23-.04-.33.05-.03.02-.06.09-.08.17-.01,0-.03-.01-.04-.01-.22-.04-.35.15-.37.35-.08,0-.18.06-.23.15-.06-.04-.15-.05-.24,0-.08.04-.16.13-.2.22-.16-.02-.38.07-.45.26-.05-.02-.12,0-.19.07-.03.03-.05.05-.07.08-.01,0-.03,0-.04,0-.09,0-.17.06-.24.14-.04-.03-.09-.05-.15-.03-.07.02-.12.06-.15.1-.03-.02-.07-.02-.12,0-.1.03-.15.09-.16.15-.09-.05-.21-.07-.31-.01-.26.13-.1.28.08.37-.02.03-.03.05-.02.08-.09.04-.11.16-.05.24-.02.13.03.22.13.27-.08.08-.08.23.02.32-.05.07-.06.16,0,.22-.08.09-.08.24.02.33v.03c-.15.1-.17.33-.04.45-.09.09-.11.25-.01.33,0,.03,0,.06,0,.09-.1.09-.17.28-.05.36-.01.04-.02.08-.01.12-.03,0-.06,0-.06.03-.02.08-.06.29.03.36,0,.04.03.07.06.1-.11.08-.16.29-.02.38-.03.04-.05.09-.03.14,0,.01,0,.02.02.04,0,.03.01.05.02.07-.05.08-.08.18-.03.26-.11.06-.15.22-.08.33-.09.1-.16.25-.1.37-.04.1-.05.23-.04.31,0,.02.01.04.03.05-.05.06-.09.15-.11.24,0,.02,0,.06.04.06.06.01.12,0,.17-.02.04.12.13.22.24.28.08.05.18.07.27.04.1-.03.14-.13.17-.22.14.07.29.13.45.11.05,0,.09-.02.13-.05.02,0,.04.01.06.02.17.03.3-.03.36-.16,0,0,.01,0,.02,0,.05.11.17.19.31.18.24-.01.27-.25.29-.45.02-.01.04-.03.06-.05.12.06.25.07.37.02.1-.04.13-.11.12-.19.17.1.48.04.52-.16.01,0,.02.01.04.01.03.02.06.03.09.04,0,0,.02,0,.02,0,.11.13.29.2.42.04.03-.04.06-.09.07-.14.14-.02.16-.21.16-.35.05.08.15.11.26.05.12-.06.17-.18.15-.3.08.07.21.08.32.03.13-.06.18-.16.16-.27.04.04.1.06.16.06.08-.01.13-.1.16-.17.04-.09.03-.2,0-.28.07-.06.11-.15.12-.24,0-.05,0-.1,0-.15.08-.03.13-.1.13-.22,0-.04-.01-.1-.04-.15.02,0,.04-.02.05-.04.09-.09.09-.23.03-.34.32.09.63-.32.36-.58Z"/>
          <path class="cls-1" d="M16.3,50.37c.02-.05,0-.12-.05-.18-.06-.06-.15-.08-.23-.07,0-.02-.02-.04-.04-.05.08-.03.15-.08.16-.16.03-.15-.15-.15-.29-.13.07-.04.14-.08.19-.15,0,0,0-.02,0-.02-.12-.13-.3-.13-.47-.09.07-.06.11-.14,0-.24-.1-.1-.25-.13-.39-.12,0,0,0,0-.01-.01-.05-.07-.15-.15-.25-.18,0-.09-.05-.21-.11-.29-.07-.09-.17-.17-.28-.18-.05,0-.1,0-.14.03-.02-.05-.04-.09-.07-.13-.06-.08-.15-.14-.26-.16-.03,0-.07,0-.1.01-.02-.06-.05-.12-.08-.16-.06-.08-.14-.16-.24-.17-.09,0-.15.04-.19.11-.05-.22-.22-.35-.46-.3-.08.01-.2.07-.26.16-.09-.23-.29-.43-.55-.4-.13.02-.28.1-.34.2-.03,0-.06,0-.08.01-.04-.07-.11-.07-.18-.03-.25-.09-.52-.08-.51.22-.15-.18-.35-.38-.59-.24-.09.05-.17.14-.2.24-.1-.1-.24-.15-.4-.12-.16.03-.25.14-.25.27-.11-.11-.28-.13-.44-.03-.15.09-.21.24-.18.39-.21-.11-.53.15-.53.38-.09-.04-.22-.04-.3,0-.23.1-.27.34-.24.56-.13-.14-.3-.13-.43.04-.07.09-.1.2-.1.3-.16-.11-.38-.11-.53.06-.12.13-.1.32-.08.48.01.06.03.13.06.19,0,0,0,.02,0,.03,0,0,0,0,0,0-.09,0-.16.05-.2.17-.05.15.05.3.18.4-.1,0-.2.03-.26.13-.01.02-.02.04-.03.06-.04.02-.07.04-.1.08-.08.08-.08.18-.04.25-.06,0-.12.03-.15.12-.05.14.06.23.17.26-.08.04-.14.12-.13.22,0,.05.02.09.05.11-.03.03-.05.07-.07.12,0,.02-.01.04-.01.05-.25.09-.46.52-.23.7,0,0,.01,0,.02.01-.04.06-.08.13-.1.19-.01.04-.02.08-.03.12-.24.05-.29.34-.22.57.03.11.09.21.17.3-.08.17,0,.44.07.57,0,0,0,0,0,.01-.06.08-.1.19-.12.27-.03.13.02.27.08.39.02.05.06.12.1.17-.02.02-.03.05-.04.07-.07.15-.04.33.04.47.02.04.06.08.1.12,0,.02-.02.04-.02.06-.03.16.12.34.27.41,0,.09.01.18.03.25.03.13.14.24.26.29,0,0,0,.01,0,.02-.06.15-.05.27.05.41.04.06.14.14.25.19.01.21.26.35.47.32.04.04.1.08.17.1.09.02.2.01.27-.04.03.07.08.12.17.13.09.02.16-.02.19-.08.06.08.2.11.31.09.04,0,.09-.02.14-.04.06.12.24.19.38.21.11.01.24,0,.32-.1.04-.05.05-.1.05-.16.07.05.16.08.26.07,0,0,.01,0,.02,0,0,.12.09.22.24.26.09.02.18,0,.25-.05.02-.01.03-.03.04-.05.05.06.14.1.25.09.06,0,.12-.02.17-.06.04.11.14.17.29.17.2,0,.35-.13.39-.3.06.06.18.06.28.02.06-.02.1-.05.14-.09.01,0,.03-.01.04-.02.06-.03.11-.09.15-.15.11-.03.21-.13.24-.23.02-.08-.03-.12-.09-.15.04-.04.07-.11.09-.16.04-.1.05-.23,0-.32.09-.04.16-.17.18-.27.04-.15.02-.34-.08-.45.05,0,.1-.02.14-.06.08-.09.09-.23.08-.35,0-.06-.04-.19-.09-.29.27-.09.25-.59.04-.74.1-.04.15-.16.15-.29,0-.03,0-.06,0-.09.02,0,.04-.02.06-.03.13-.11.16-.3.16-.47.09.11.24.01.32-.09.13-.16.15-.38.04-.55.3.03.36-.33.25-.56.27.11.41-.28.27-.49.36.05.58-.36.51-.68,0,0,0,0,0,0,.31.18.61-.04.71-.34.06-.07.09-.17.05-.28,0,0,0,0,0,0,.23.11.52.03.73-.12.13-.09.21-.23.16-.35.04,0,.07-.03.1-.06,0,0,.01-.02.02-.03.12.02.24-.09.26-.19.09,0,.13-.19.07-.26Z"/>
          <path class="cls-9" d="M16.3,50.37c.02-.05,0-.12-.05-.18-.06-.06-.15-.08-.23-.07,0-.02-.02-.04-.04-.05.08-.03.15-.08.16-.16.03-.15-.15-.15-.29-.13.07-.04.14-.08.19-.15,0,0,0-.02,0-.02-.12-.13-.3-.13-.47-.09.07-.06.11-.14,0-.24-.1-.1-.25-.13-.39-.12,0,0,0,0-.01-.01-.05-.07-.15-.15-.25-.18,0-.09-.05-.21-.11-.29-.07-.09-.17-.17-.28-.18-.05,0-.1,0-.14.03-.02-.05-.04-.09-.07-.13-.06-.08-.15-.14-.26-.16-.03,0-.07,0-.1.01-.02-.06-.05-.12-.08-.16-.06-.08-.14-.16-.24-.17-.09,0-.15.04-.19.11-.05-.22-.22-.35-.46-.3-.08.01-.2.07-.26.16-.09-.23-.29-.43-.55-.4-.13.02-.28.1-.34.2-.03,0-.06,0-.08.01-.04-.07-.11-.07-.18-.03-.25-.09-.52-.08-.51.22-.15-.18-.35-.38-.59-.24-.09.05-.17.14-.2.24-.1-.1-.24-.15-.4-.12-.16.03-.25.14-.25.27-.11-.11-.28-.13-.44-.03-.15.09-.21.24-.18.39-.21-.11-.53.15-.53.38-.09-.04-.22-.04-.3,0-.23.1-.27.34-.24.56-.13-.14-.3-.13-.43.04-.07.09-.1.2-.1.3-.16-.11-.38-.11-.53.06-.12.13-.1.32-.08.48.01.06.03.13.06.19,0,0,0,.02,0,.03,0,0,0,0,0,0-.09,0-.16.05-.2.17-.05.15.05.3.18.4-.1,0-.2.03-.26.13,0,0,0,0,0,0,.01.01.03.02.05.03.08.04.19.08.28.03.03-.02.04-.04.05-.07.04.05.09.09.16.1.18.02.24-.14.25-.29.08.13.25.15.39.07,0,0,.02,0,.03-.01.11.1.26.13.4.04.1-.06.13-.19.14-.31.02,0,.03,0,.05,0,.13-.02.26-.08.34-.19,0,0,0,0,0,0,.03.02.07.03.11.04.1,0,.18-.04.23-.12.03-.04.05-.1.06-.17.15-.05.28-.17.36-.31.09.19.27.37.49.25.09-.05.15-.16.16-.28.15-.07.27-.18.32-.33.14.13.31.24.45.09.01-.01.02-.03.03-.05.02,0,.05,0,.07,0,.03,0,.07,0,.11-.01,0,.16.02.31.16.36.13.04.24-.09.29-.2,0-.02.01-.03.02-.05.07,0,.14-.04.2-.07.06.16.19.27.39.21.06-.02.12-.07.15-.13.19.14.47.19.67.12,0,.12.04.22.17.2.1-.01.15-.15.18-.23,0,0,0-.02,0-.03.09.07.23.09.34.05.03.05.07.09.13.13.07.04.14.04.19,0,.07.05.15.09.23.11.05.01.09.01.14.01-.04.18-.01.37.21.37.15,0,.27-.09.34-.22.04,0,.07-.01.11-.02,0,.03.01.07.02.1.03.08.11.17.2.13.09-.04.13-.15.15-.24.05.07.12.13.22.16.18.05.33-.07.41-.22.02.14.13.2.27.22,0-.01-.01-.02-.02-.03Z"/>
        </g>
        <g>
          <path class="cls-6" d="M11.8,60.48c-.06-.05-.13-.08-.21-.1,0-.02.01-.05.02-.08.02-.08.05-.18.02-.26.08-.02.15-.08.19-.15.08-.17-.05-.32-.2-.37,0-.01.02-.03.02-.05.02-.07,0-.15-.03-.22.19-.13.23-.48.12-.66,0,0,0,0,0,0,.07-.11.02-.26-.03-.36-.02-.04-.06-.08-.1-.11-.02-.06-.08-.09-.14-.09.03-.05.04-.11.03-.18-.04-.17-.18-.22-.33-.22,0-.06,0-.11-.04-.14.09-.04.16-.12.14-.24-.02-.14-.13-.19-.25-.17.08-.07.13-.18.14-.28.01-.13-.07-.17-.17-.15.08-.08.11-.2.04-.31-.05-.08-.13-.11-.21-.12,0-.02,0-.05-.02-.07-.02-.08-.07-.15-.15-.17,0,0-.02,0-.03,0-.02-.05-.08-.1-.17-.11-.14-.03-.2.1-.21.24-.02,0-.04,0-.07,0-.04-.09-.1-.15-.19-.11-.04.02-.07.04-.09.07-.1.03-.21.11-.29.2-.17-.05-.3.07-.35.23-.1-.05-.23-.04-.33.05-.03.02-.06.09-.08.17-.01,0-.03-.01-.04-.02-.22-.04-.35.15-.37.35-.08,0-.18.06-.23.15-.06-.04-.15-.05-.24,0-.08.04-.16.13-.2.22-.16-.02-.38.07-.45.26-.05-.02-.12,0-.19.07-.03.03-.05.05-.07.08-.01,0-.03,0-.04,0-.09,0-.17.06-.24.14-.04-.03-.09-.04-.15-.03-.07.02-.12.06-.15.1-.03-.02-.07-.02-.12,0-.1.03-.15.08-.16.15-.09-.05-.2-.07-.31-.01-.26.13-.1.28.08.37-.02.03-.03.05-.02.08-.09.04-.11.16-.05.24-.02.13.03.22.13.27-.08.08-.08.23.02.32-.05.07-.06.16,0,.22-.08.09-.07.24.02.33v.03c-.15.1-.17.33-.04.45-.09.09-.11.25-.02.33,0,.03,0,.06,0,.09-.1.09-.17.27-.05.36-.01.04-.01.08-.01.12-.03,0-.06,0-.06.03-.02.08-.06.29.03.36,0,.04.03.07.06.1-.11.08-.16.28-.02.38-.03.04-.05.09-.03.14,0,.01,0,.02.02.04,0,.03.01.05.02.07-.05.08-.08.18-.03.26-.11.06-.15.22-.08.33-.09.09-.16.25-.1.37-.04.1-.05.23-.04.31,0,.02.01.04.03.05-.05.06-.09.15-.11.24,0,.02,0,.06.03.06.06.01.12,0,.17-.01.05.11.13.22.24.28.08.05.18.07.27.04.09-.03.14-.13.17-.22.14.07.29.13.45.11.05,0,.09-.02.13-.05.02,0,.04.01.06.02.17.03.3-.03.36-.16,0,0,.01,0,.02,0,.05.11.17.19.31.18.24-.01.27-.25.29-.45.02-.01.05-.03.06-.05.11.06.25.07.37.02.1-.04.13-.11.12-.19.17.1.48.04.52-.16.01,0,.02.01.04.01.03.02.06.03.09.04,0,0,.02,0,.02,0,.11.13.29.2.42.04.03-.04.06-.09.07-.14.14-.02.16-.21.16-.35.05.08.15.11.26.05.12-.06.17-.18.15-.3.08.07.21.07.32.03.13-.06.18-.16.16-.27.04.04.1.06.16.06.08-.01.13-.1.16-.17.04-.09.03-.2,0-.28.07-.06.11-.15.12-.23,0-.05,0-.1,0-.15.08-.03.13-.1.13-.22,0-.04-.01-.1-.04-.15.02,0,.04-.02.05-.04.09-.09.09-.23.03-.34.32.09.63-.32.36-.58Z"/>
          <path class="cls-1" d="M10.59,56.05c.02-.05,0-.12-.05-.17-.06-.06-.15-.08-.23-.07,0-.02-.02-.04-.04-.05.08-.03.15-.08.16-.16.03-.15-.15-.15-.29-.13.07-.04.14-.08.19-.15,0,0,0-.02,0-.02-.12-.13-.3-.13-.47-.09.07-.06.11-.14,0-.24-.1-.1-.24-.13-.39-.12,0,0,0,0-.01-.01-.05-.07-.15-.15-.25-.18,0-.09-.05-.21-.11-.29-.07-.09-.17-.17-.28-.18-.05,0-.1,0-.14.03-.02-.05-.04-.09-.07-.12-.06-.08-.15-.14-.26-.15-.03,0-.07,0-.1.01-.01-.06-.04-.12-.08-.16-.06-.08-.14-.15-.24-.17-.09,0-.15.04-.19.11-.05-.21-.22-.34-.46-.3-.08.01-.2.07-.26.15-.09-.23-.29-.43-.55-.39-.13.02-.28.1-.34.2-.03,0-.06,0-.08.01-.04-.07-.11-.07-.18-.03-.25-.09-.52-.08-.51.22-.15-.18-.35-.38-.59-.24-.09.05-.17.14-.19.24-.1-.1-.24-.15-.4-.12-.16.03-.25.14-.25.27-.11-.11-.28-.13-.44-.03-.15.09-.21.24-.18.38-.21-.11-.53.15-.53.38-.09-.04-.22-.04-.3,0-.23.1-.27.34-.24.56-.13-.14-.3-.13-.43.04-.07.09-.1.2-.1.3-.16-.11-.38-.11-.53.06-.12.13-.1.32-.08.48.01.06.03.13.06.19,0,0,0,.02,0,.03,0,0,0,0,0,0-.09,0-.16.05-.2.17-.05.15.05.3.18.4-.1,0-.2.03-.26.13-.01.02-.02.04-.03.06-.04.02-.07.04-.1.08-.08.08-.08.18-.04.25-.06,0-.12.03-.15.12-.05.14.06.22.17.26-.08.04-.14.11-.13.22,0,.05.02.09.05.11-.03.03-.05.07-.07.12,0,.02-.01.04-.01.05-.25.09-.46.51-.23.69,0,0,.01,0,.02.01-.04.06-.08.13-.1.19-.01.04-.02.08-.03.12-.24.05-.29.34-.22.57.03.1.09.21.17.29-.08.17,0,.44.07.56,0,0,0,0,0,.01-.06.08-.1.19-.12.27-.03.13.02.27.07.38.02.05.06.12.1.17-.02.02-.03.04-.04.07-.07.15-.04.33.04.47.03.04.06.08.1.12,0,.02-.02.04-.02.06-.03.15.12.33.27.41,0,.09.01.18.03.25.03.13.14.24.26.29,0,0,0,.01,0,.02-.06.15-.05.27.05.41.04.06.14.14.25.19.01.21.26.35.47.32.04.04.09.08.17.1.09.02.2.01.27-.04.03.07.08.12.17.13.09.02.16-.02.19-.08.06.08.2.11.31.09.04,0,.09-.02.14-.04.06.12.24.19.37.2.11.01.24,0,.32-.09.04-.05.05-.1.05-.16.07.05.16.08.26.07,0,0,.01,0,.02,0,0,.12.09.22.24.25.09.02.18,0,.25-.05.02-.01.03-.03.04-.05.05.06.14.1.25.09.06,0,.12-.02.17-.06.04.11.14.17.29.17.2,0,.35-.13.39-.3.06.06.18.06.28.02.06-.02.1-.05.14-.09.01,0,.03-.01.04-.02.06-.03.11-.09.14-.15.11-.03.21-.13.24-.23.02-.08-.03-.12-.09-.15.04-.04.07-.11.09-.16.04-.1.05-.23,0-.32.09-.04.15-.17.18-.27.04-.15.02-.33-.08-.44.05,0,.1-.02.14-.06.08-.09.09-.23.08-.35,0-.06-.04-.19-.09-.29.27-.09.25-.59.04-.74.1-.04.15-.15.15-.29,0-.03,0-.06,0-.09.02,0,.04-.02.06-.03.13-.11.16-.3.16-.46.09.11.24.01.32-.09.13-.16.15-.38.04-.54.3.03.36-.33.25-.56.27.11.41-.27.27-.49.35.05.58-.36.51-.68,0,0,0,0,0,0,.31.17.61-.04.71-.34.06-.07.09-.17.05-.28,0,0,0,0,0,0,.23.11.52.03.72-.12.13-.09.21-.23.16-.35.03,0,.07-.03.1-.06,0,0,.01-.02.02-.03.12.02.24-.09.26-.19.09,0,.13-.19.07-.26Z"/>
          <path class="cls-9" d="M10.59,56.05c.02-.05,0-.12-.05-.17-.06-.06-.15-.08-.23-.07,0-.02-.02-.04-.04-.05.08-.03.15-.08.16-.16.03-.15-.15-.15-.29-.13.07-.04.14-.08.19-.15,0,0,0-.02,0-.02-.12-.13-.3-.13-.47-.09.07-.06.11-.14,0-.24-.1-.1-.24-.13-.39-.12,0,0,0,0-.01-.01-.05-.07-.15-.15-.25-.18,0-.09-.05-.21-.11-.29-.07-.09-.17-.17-.28-.18-.05,0-.1,0-.14.03-.02-.05-.04-.09-.07-.12-.06-.08-.15-.14-.26-.15-.03,0-.07,0-.1.01-.01-.06-.04-.12-.08-.16-.06-.08-.14-.15-.24-.17-.09,0-.15.04-.19.11-.05-.21-.22-.34-.46-.3-.08.01-.2.07-.26.15-.09-.23-.29-.43-.55-.39-.13.02-.28.1-.34.2-.03,0-.06,0-.08.01-.04-.07-.11-.07-.18-.03-.25-.09-.52-.08-.51.22-.15-.18-.35-.38-.59-.24-.09.05-.17.14-.19.24-.1-.1-.24-.15-.4-.12-.16.03-.25.14-.25.27-.11-.11-.28-.13-.44-.03-.15.09-.21.24-.18.38-.21-.11-.53.15-.53.38-.09-.04-.22-.04-.3,0-.23.1-.27.34-.24.56-.13-.14-.3-.13-.43.04-.07.09-.1.2-.1.3-.16-.11-.38-.11-.53.06-.12.13-.1.32-.08.48.01.06.03.13.06.19,0,0,0,.02,0,.03,0,0,0,0,0,0-.09,0-.16.05-.2.17-.05.15.05.3.18.4-.1,0-.2.03-.26.13,0,0,0,0,0,0,.02.01.03.02.05.03.08.04.19.08.27.03.03-.02.04-.04.05-.07.04.05.09.09.16.1.18.02.24-.14.25-.29.08.13.25.15.39.07,0,0,.02,0,.03-.01.11.1.26.13.4.04.1-.06.13-.19.14-.3.02,0,.04,0,.05,0,.12-.02.26-.08.34-.19,0,0,0,0,0,0,.03.02.07.03.11.04.1,0,.18-.04.23-.12.03-.04.05-.1.06-.16.15-.05.28-.17.36-.31.09.19.27.36.49.24.09-.05.15-.16.16-.28.14-.07.27-.18.32-.33.14.13.31.24.45.09.01-.01.02-.03.03-.05.02,0,.05,0,.07,0,.03,0,.07,0,.11-.01,0,.16.02.31.16.35.13.04.24-.09.29-.2,0-.02.01-.03.02-.05.07,0,.14-.04.2-.07.06.16.19.27.39.21.06-.02.12-.07.15-.13.19.13.46.18.67.12,0,.12.04.22.17.2.1-.01.15-.15.18-.23,0,0,0-.02,0-.03.09.07.23.09.33.05.03.05.07.09.13.13.07.04.14.04.19,0,.07.05.15.09.23.11.04.01.09.01.14.01-.04.18-.01.36.21.37.15,0,.27-.09.34-.22.04,0,.07-.01.11-.02,0,.03.01.07.02.1.03.08.11.17.2.13.09-.04.13-.14.15-.24.05.07.12.13.22.15.18.05.33-.07.41-.22.02.14.12.2.26.22,0-.01,0-.02-.02-.03Z"/>
        </g>
        <g>
          <path class="cls-6" d="M22.33,59.24s-.11-.07-.17-.08c0-.02.01-.04.02-.07.02-.06.04-.15.02-.22.06-.02.12-.06.15-.12.07-.14-.04-.27-.17-.31,0-.01.01-.02.02-.04.01-.06,0-.12-.03-.18.16-.1.19-.39.1-.54,0,0,0,0,0,0,.05-.09.02-.21-.03-.3-.02-.04-.05-.07-.08-.09-.02-.05-.06-.07-.12-.08.03-.04.04-.09.02-.15-.03-.14-.15-.18-.27-.18,0-.05,0-.09-.03-.12.08-.03.13-.1.11-.2-.02-.12-.11-.15-.2-.14.06-.06.11-.15.12-.23,0-.11-.06-.14-.14-.13.07-.07.09-.16.03-.26-.04-.06-.1-.09-.17-.1,0-.02,0-.04-.01-.06-.02-.06-.06-.12-.12-.14,0,0-.01,0-.02,0-.02-.05-.06-.08-.14-.09-.12-.02-.16.08-.17.2-.02,0-.04,0-.05,0-.03-.07-.08-.12-.16-.09-.03.01-.06.03-.08.06-.08.02-.17.09-.24.17-.14-.04-.25.06-.29.19-.08-.04-.19-.04-.27.04-.02.02-.05.07-.07.14-.01,0-.02,0-.03-.01-.18-.04-.29.12-.31.29-.07,0-.15.05-.19.13-.05-.03-.12-.04-.2,0-.07.03-.13.11-.16.18-.13-.02-.31.06-.37.21-.04-.01-.1,0-.15.05-.02.02-.04.04-.06.07-.01,0-.02,0-.03,0-.07,0-.14.05-.19.12-.03-.03-.08-.04-.12-.02-.06.02-.1.05-.13.09-.03-.01-.06-.02-.1,0-.08.02-.12.07-.13.13-.07-.04-.17-.06-.26-.01-.21.1-.08.23.07.31-.02.02-.02.04-.01.06-.07.03-.09.13-.04.19-.02.11.03.18.1.22-.06.07-.06.19.01.26-.04.05-.05.13,0,.18-.06.07-.06.2.02.27v.03c-.12.08-.14.27-.03.37-.07.07-.09.2-.01.27,0,.03,0,.05,0,.08-.08.07-.14.23-.04.3,0,.03-.01.06-.01.1-.02,0-.05,0-.05.03-.02.07-.05.24.03.3,0,.03.02.06.05.08-.09.07-.13.23-.02.31-.03.03-.04.07-.03.11,0,.01,0,.02.01.03,0,.02,0,.04.02.06-.05.07-.06.15-.03.21-.09.05-.12.18-.07.27-.08.08-.13.2-.08.3-.03.09-.04.19-.03.26,0,.02.01.03.03.04-.04.05-.07.12-.09.19,0,.02,0,.05.03.05.05,0,.1,0,.14-.01.04.09.11.18.19.23.06.04.15.06.22.04.08-.03.12-.11.14-.18.11.06.24.1.37.09.04,0,.08-.02.1-.04.02,0,.03.01.05.01.14.03.24-.03.3-.13,0,0,0,0,.01,0,.04.09.14.15.25.15.2,0,.23-.21.24-.37.02-.01.04-.03.05-.04.09.05.21.06.31.02.08-.03.1-.09.09-.16.14.08.4.04.43-.13,0,0,.02,0,.03.01.02.01.05.02.07.03,0,0,.01,0,.02,0,.09.11.24.16.34.03.03-.03.05-.07.06-.11.11-.02.13-.17.13-.29.04.07.12.09.21.04.1-.05.14-.15.12-.24.07.06.17.06.26.02.1-.05.15-.13.13-.22.04.03.08.05.13.05.07,0,.11-.08.13-.14.03-.08.03-.16,0-.23.06-.05.09-.13.1-.19,0-.04,0-.08,0-.13.06-.03.11-.08.1-.18,0-.04-.01-.08-.03-.12.02,0,.03-.02.05-.03.07-.08.07-.19.03-.28.27.08.52-.26.3-.48Z"/>
          <path class="cls-1" d="M21.33,55.59s0-.1-.04-.14c-.05-.05-.12-.07-.19-.06,0-.01-.02-.03-.03-.04.07-.03.12-.07.13-.13.03-.12-.12-.12-.24-.11.06-.03.11-.07.16-.12,0,0,0-.01,0-.02-.1-.1-.25-.11-.39-.08.06-.05.09-.12,0-.2-.08-.08-.2-.11-.32-.1,0,0,0,0,0-.01-.04-.05-.13-.12-.2-.15,0-.08-.04-.17-.09-.24-.06-.07-.14-.14-.23-.15-.04,0-.08,0-.12.03-.01-.04-.04-.08-.06-.1-.05-.07-.13-.12-.21-.13-.03,0-.05,0-.08,0-.01-.05-.04-.1-.07-.13-.05-.06-.12-.13-.2-.14-.07,0-.12.03-.16.09-.04-.18-.18-.28-.38-.24-.06.01-.17.06-.21.13-.08-.19-.24-.36-.45-.32-.11.02-.23.08-.28.17-.02,0-.05,0-.07.01-.03-.05-.09-.05-.15-.02-.21-.07-.43-.07-.42.18-.12-.15-.29-.31-.49-.2-.07.04-.14.12-.16.2-.08-.08-.2-.12-.33-.1-.13.02-.21.11-.21.22-.09-.09-.23-.11-.36-.03-.12.07-.17.2-.15.32-.17-.09-.44.12-.44.31-.07-.04-.18-.03-.25,0-.19.08-.22.28-.2.46-.1-.12-.25-.1-.35.03-.05.07-.08.16-.08.25-.13-.09-.32-.09-.44.05-.09.11-.08.26-.06.39,0,.05.02.11.05.16,0,0,0,.02,0,.02,0,0,0,0,0,0-.07,0-.14.04-.17.14-.04.12.04.25.15.33-.08,0-.16.03-.22.1-.01.01-.02.03-.02.05-.03.01-.06.03-.09.06-.06.07-.07.15-.03.21-.05,0-.1.03-.12.1-.04.11.05.19.14.22-.07.03-.11.09-.11.18,0,.04.02.07.04.09-.02.03-.05.06-.06.1,0,.01,0,.03-.01.04-.2.07-.38.42-.19.57,0,0,0,0,.01.01-.04.05-.06.1-.08.15-.01.03-.02.06-.02.1-.2.04-.24.28-.18.47.03.09.07.18.14.24-.06.14,0,.36.06.47,0,0,0,0,0,.01-.05.07-.08.16-.1.22-.02.1.02.22.06.32.02.04.05.1.08.14-.01.02-.03.04-.04.06-.06.13-.03.27.04.38.02.04.05.07.08.1,0,.01-.01.03-.02.05-.02.13.09.28.22.34,0,.07,0,.15.02.21.02.11.11.2.22.24,0,0,0,.01,0,.01-.05.13-.04.22.04.33.03.05.12.11.21.16,0,.17.21.29.38.26.03.04.08.06.14.08.07.02.17.01.22-.03.02.05.07.1.14.11.08.02.13-.02.16-.07.05.07.16.09.25.08.03,0,.08-.02.11-.03.05.1.2.16.31.17.09.01.2,0,.26-.08.03-.04.04-.08.04-.13.06.04.13.06.22.06,0,0,.01,0,.02,0,0,.1.07.18.2.21.07.02.15,0,.21-.04.01-.01.02-.02.03-.04.05.05.12.08.2.07.05,0,.1-.02.14-.05.03.09.12.14.24.14.16,0,.29-.11.32-.25.05.05.15.05.23.02.05-.02.09-.04.12-.08.01,0,.02,0,.03-.01.05-.03.09-.07.12-.13.09-.03.17-.1.2-.19.02-.07-.02-.1-.08-.12.04-.04.06-.09.08-.13.03-.08.04-.19,0-.26.07-.04.13-.14.15-.22.03-.13.02-.28-.06-.37.04,0,.08-.02.11-.05.07-.07.07-.19.06-.28,0-.05-.03-.16-.07-.24.22-.07.21-.49.04-.61.08-.03.12-.13.13-.24,0-.02,0-.05,0-.07.02,0,.03-.01.05-.03.11-.09.13-.25.13-.38.07.09.2,0,.26-.07.1-.13.12-.31.03-.45.24.02.3-.27.21-.46.22.09.34-.23.22-.4.29.04.47-.3.42-.56,0,0,0,0,0,0,.26.14.5-.03.58-.28.05-.06.07-.14.04-.23,0,0,0,0,0,0,.19.09.43.02.6-.1.1-.08.17-.19.13-.29.03,0,.06-.02.08-.05,0,0,.01-.01.02-.02.1.01.2-.08.21-.16.07,0,.11-.16.06-.22Z"/>
          <path class="cls-9" d="M21.33,55.59s0-.1-.04-.14c-.05-.05-.12-.07-.19-.06,0-.01-.02-.03-.03-.04.07-.03.12-.07.13-.13.03-.12-.12-.12-.24-.11.06-.03.11-.07.16-.12,0,0,0-.01,0-.02-.1-.1-.25-.11-.39-.08.06-.05.09-.12,0-.2-.08-.08-.2-.11-.32-.1,0,0,0,0,0-.01-.04-.05-.13-.12-.2-.15,0-.08-.04-.17-.09-.24-.06-.07-.14-.14-.23-.15-.04,0-.08,0-.12.03-.01-.04-.04-.08-.06-.1-.05-.07-.13-.12-.21-.13-.03,0-.05,0-.08,0-.01-.05-.04-.1-.07-.13-.05-.06-.12-.13-.2-.14-.07,0-.12.03-.16.09-.04-.18-.18-.28-.38-.24-.06.01-.17.06-.21.13-.08-.19-.24-.36-.45-.32-.11.02-.23.08-.28.17-.02,0-.05,0-.07.01-.03-.05-.09-.05-.15-.02-.21-.07-.43-.07-.42.18-.12-.15-.29-.31-.49-.2-.07.04-.14.12-.16.2-.08-.08-.2-.12-.33-.1-.13.02-.21.11-.21.22-.09-.09-.23-.11-.36-.03-.12.07-.17.2-.15.32-.17-.09-.44.12-.44.31-.07-.04-.18-.03-.25,0-.19.08-.22.28-.2.46-.1-.12-.25-.1-.35.03-.05.07-.08.16-.08.25-.13-.09-.32-.09-.44.05-.09.11-.08.26-.06.39,0,.05.02.11.05.16,0,0,0,.02,0,.02,0,0,0,0,0,0-.07,0-.14.04-.17.14-.04.12.04.25.15.33-.08,0-.16.03-.22.1,0,0,0,0,0,0,.01,0,.03.02.04.02.06.04.16.06.23.02.02-.01.04-.03.05-.05.03.04.07.08.13.09.15.02.2-.12.21-.24.07.11.2.12.32.06,0,0,.01,0,.02-.01.09.08.21.11.33.04.08-.05.11-.16.12-.25.02,0,.03,0,.04,0,.1-.02.21-.07.28-.15,0,0,0,0,0,0,.03.02.06.03.09.03.08,0,.15-.04.19-.1.02-.04.04-.08.05-.14.12-.04.23-.14.3-.25.08.16.22.3.4.2.08-.04.12-.13.13-.23.12-.06.22-.15.26-.27.11.11.26.2.37.08,0-.01.02-.02.03-.04.02,0,.04,0,.06,0,.03,0,.06,0,.09-.01,0,.13.02.26.14.29.11.03.2-.08.24-.16,0-.01.01-.03.02-.04.06,0,.11-.03.16-.06.05.13.16.22.32.17.05-.02.09-.06.13-.11.16.11.38.15.55.1,0,.1.03.18.14.17.08-.01.12-.12.15-.19,0,0,0-.01,0-.02.08.06.19.07.28.04.03.04.06.08.1.1.06.03.11.03.16,0,.06.04.12.07.19.09.04,0,.08.01.11,0-.03.15-.01.3.17.31.13,0,.22-.07.28-.18.03,0,.06,0,.09-.02,0,.03.01.05.02.08.02.07.09.14.16.1.07-.03.11-.12.12-.2.04.06.1.11.18.13.15.04.27-.06.34-.18.01.11.1.17.22.18,0,0,0-.02-.01-.02Z"/>
        </g>
        <g>
          <path class="cls-6" d="M10.68,69c-.05-.05-.12-.08-.19-.09,0-.02.01-.05.02-.07.02-.07.04-.16.02-.24.07-.02.14-.07.17-.13.08-.15-.04-.29-.18-.34,0-.01.01-.03.02-.04.01-.06,0-.14-.03-.2.17-.11.2-.43.11-.59,0,0,0,0,0,0,.06-.09.02-.23-.03-.32-.02-.04-.05-.07-.09-.1-.02-.06-.07-.08-.13-.08.03-.04.04-.1.03-.16-.03-.15-.17-.2-.3-.2,0-.05,0-.1-.03-.13.08-.04.14-.11.13-.22-.02-.13-.12-.17-.23-.15.07-.07.12-.16.13-.25.01-.12-.07-.15-.16-.14.08-.08.1-.18.04-.28-.04-.07-.11-.1-.19-.11,0-.02,0-.04-.01-.06-.02-.07-.06-.13-.13-.16,0,0-.02,0-.02,0-.02-.05-.07-.09-.16-.1-.13-.02-.18.09-.19.22-.02,0-.04,0-.06,0-.04-.08-.09-.13-.17-.1-.04.01-.07.04-.09.06-.09.02-.19.1-.26.18-.16-.05-.28.06-.32.21-.09-.05-.21-.04-.3.05-.02.02-.05.08-.07.15-.01,0-.03-.01-.04-.01-.2-.04-.32.14-.34.32-.08,0-.16.05-.21.14-.06-.04-.13-.04-.22,0-.08.03-.15.12-.18.2-.14-.02-.34.07-.41.23-.05-.02-.11,0-.17.06-.02.02-.05.05-.06.07-.01,0-.02,0-.04,0-.08,0-.16.06-.21.13-.04-.03-.08-.04-.13-.03-.06.02-.11.05-.14.09-.03-.01-.06-.02-.11,0-.09.03-.13.08-.15.14-.08-.05-.19-.06-.28-.01-.23.11-.09.26.07.34-.02.02-.02.05-.01.07-.08.04-.1.15-.05.21-.02.12.03.2.12.24-.07.07-.07.21.01.29-.05.06-.05.14,0,.2-.07.08-.07.22.02.3v.03c-.14.09-.16.3-.04.41-.08.08-.1.22-.01.3,0,.03,0,.06,0,.08-.09.08-.16.25-.05.33,0,.03-.01.07-.01.11-.02,0-.05,0-.06.03-.02.07-.05.27.03.32,0,.03.03.07.05.09-.1.07-.14.26-.02.34-.03.03-.04.08-.03.12,0,.01,0,.02.01.03,0,.02.01.04.02.06-.05.07-.07.17-.03.24-.1.06-.14.2-.08.3-.08.09-.15.22-.09.33-.03.09-.04.21-.04.28,0,.02.01.04.03.04-.05.06-.08.13-.1.21,0,.02,0,.05.03.06.05,0,.11,0,.16-.01.04.1.12.19.21.25.07.05.16.07.24.04.09-.03.13-.12.15-.2.13.06.27.11.41.1.05,0,.08-.02.11-.05.02,0,.04.01.06.02.15.03.27-.03.33-.14,0,0,.01,0,.02,0,.05.1.16.17.28.16.22,0,.25-.23.27-.41.02-.01.04-.03.06-.05.1.05.23.06.34.02.09-.03.11-.1.1-.17.16.09.44.04.47-.14.01,0,.02.01.03.01.02.01.05.03.08.04,0,0,.02,0,.02,0,.1.12.26.18.38.03.03-.04.05-.08.07-.12.12-.02.14-.19.15-.32.05.07.13.1.23.05.11-.05.15-.16.14-.27.08.06.19.07.29.02.11-.05.16-.15.14-.25.04.03.09.06.14.05.07-.01.12-.09.15-.15.03-.09.03-.18,0-.25.06-.05.1-.14.11-.21,0-.05,0-.09,0-.14.07-.03.12-.09.12-.2,0-.04-.01-.09-.03-.13.02,0,.03-.02.05-.04.08-.08.08-.21.03-.31.29.08.57-.29.33-.53Z"/>
          <path class="cls-1" d="M9.59,64.99s0-.11-.05-.16c-.06-.06-.13-.07-.21-.06,0-.02-.02-.03-.03-.05.07-.03.13-.08.15-.15.03-.13-.13-.14-.26-.12.06-.03.12-.07.17-.13,0,0,0-.01,0-.02-.11-.11-.27-.12-.43-.09.07-.06.1-.13,0-.22-.09-.09-.22-.12-.35-.11,0,0,0,0,0-.01-.05-.06-.14-.13-.22-.16,0-.09-.04-.19-.1-.26-.06-.08-.15-.15-.26-.16-.05,0-.09,0-.13.03-.02-.04-.04-.08-.06-.11-.06-.07-.14-.13-.23-.14-.03,0-.06,0-.09.01-.01-.05-.04-.11-.07-.15-.05-.07-.13-.14-.22-.15-.08,0-.14.04-.17.1-.05-.19-.2-.31-.42-.27-.07.01-.18.07-.23.14-.08-.21-.26-.39-.5-.36-.12.02-.26.09-.3.18-.03,0-.05,0-.07.01-.03-.06-.1-.06-.16-.02-.23-.08-.47-.08-.46.2-.13-.17-.32-.34-.54-.22-.08.05-.15.13-.18.21-.09-.09-.22-.13-.36-.11-.14.03-.23.13-.23.24-.1-.1-.25-.12-.39-.03-.14.08-.19.22-.16.35-.19-.1-.48.14-.48.34-.08-.04-.2-.04-.27,0-.21.09-.24.3-.22.51-.11-.13-.27-.11-.39.03-.06.08-.09.18-.09.27-.14-.1-.35-.1-.48.05-.1.12-.09.29-.07.43,0,.06.03.12.05.17,0,0,0,.02,0,.03,0,0,0,0,0,0-.08,0-.15.05-.18.15-.04.13.05.27.16.36-.09,0-.18.03-.24.11-.01.02-.02.03-.02.05-.03.01-.06.04-.09.07-.07.08-.08.16-.04.23-.06,0-.11.03-.13.1-.04.12.05.2.16.24-.07.03-.12.1-.12.19,0,.05.02.08.04.1-.03.03-.05.06-.07.11,0,.02,0,.03-.01.05-.22.08-.41.47-.21.63,0,0,.01,0,.02.01-.04.05-.07.11-.09.17-.01.04-.02.07-.02.1-.22.05-.26.31-.2.51.03.1.08.19.15.27-.07.15,0,.4.07.51,0,0,0,0,0,.01-.06.07-.09.17-.11.24-.03.11.02.25.07.35.02.05.05.11.09.15-.02.02-.03.04-.04.06-.07.14-.03.3.04.42.02.04.05.08.09.11,0,.02-.01.03-.02.05-.03.14.1.3.24.37,0,.08.01.16.02.23.03.12.13.22.24.26,0,0,0,.01,0,.02-.06.14-.05.25.04.37.04.05.13.12.23.17,0,.19.23.32.42.29.03.04.09.07.15.09.08.02.18.01.24-.03.02.06.08.11.15.12.08.02.14-.02.18-.08.05.07.18.1.28.08.04,0,.08-.02.12-.04.06.11.22.17.34.18.1.01.22,0,.29-.09.04-.04.05-.09.04-.15.06.05.15.07.24.06,0,0,.01,0,.02,0,0,.11.08.2.22.23.08.02.17,0,.23-.05.01-.01.03-.03.03-.04.05.06.13.09.22.08.05,0,.11-.02.15-.05.03.09.13.16.26.16.18,0,.32-.12.36-.27.05.05.16.05.25.02.05-.02.09-.05.13-.08.01,0,.02-.01.04-.02.06-.03.1-.08.13-.14.1-.03.19-.11.22-.21.02-.07-.03-.11-.08-.13.04-.04.07-.1.08-.14.03-.09.05-.21,0-.29.08-.04.14-.15.16-.24.04-.14.02-.3-.07-.4.04,0,.09-.02.12-.05.08-.08.08-.21.07-.31,0-.05-.03-.17-.08-.26.24-.08.23-.53.04-.67.09-.04.13-.14.14-.26,0-.03,0-.05,0-.08.02,0,.04-.02.05-.03.12-.1.15-.27.15-.42.08.1.22.01.29-.08.11-.14.13-.34.03-.49.27.02.33-.3.23-.51.24.1.37-.25.24-.44.32.04.52-.33.46-.61,0,0,0,0,0,0,.28.16.55-.04.64-.3.06-.06.08-.15.05-.25,0,0,0,0,0,0,.21.1.47.03.66-.11.11-.08.19-.21.14-.32.03,0,.06-.02.09-.06,0,0,.01-.02.02-.02.11.01.22-.08.23-.17.08,0,.12-.17.06-.24Z"/>
          <path class="cls-9" d="M9.59,64.99s0-.11-.05-.16c-.06-.06-.13-.07-.21-.06,0-.02-.02-.03-.03-.05.07-.03.13-.08.15-.15.03-.13-.13-.14-.26-.12.06-.03.12-.07.17-.13,0,0,0-.01,0-.02-.11-.11-.27-.12-.43-.09.07-.06.1-.13,0-.22-.09-.09-.22-.12-.35-.11,0,0,0,0,0-.01-.05-.06-.14-.13-.22-.16,0-.09-.04-.19-.1-.26-.06-.08-.15-.15-.26-.16-.05,0-.09,0-.13.03-.02-.04-.04-.08-.06-.11-.06-.07-.14-.13-.23-.14-.03,0-.06,0-.09.01-.01-.05-.04-.11-.07-.15-.05-.07-.13-.14-.22-.15-.08,0-.14.04-.17.1-.05-.19-.2-.31-.42-.27-.07.01-.18.07-.23.14-.08-.21-.26-.39-.5-.36-.12.02-.26.09-.3.18-.03,0-.05,0-.07.01-.03-.06-.1-.06-.16-.02-.23-.08-.47-.08-.46.2-.13-.17-.32-.34-.54-.22-.08.05-.15.13-.18.21-.09-.09-.22-.13-.36-.11-.14.03-.23.13-.23.24-.1-.1-.25-.12-.39-.03-.14.08-.19.22-.16.35-.19-.1-.48.14-.48.34-.08-.04-.2-.04-.27,0-.21.09-.24.3-.22.51-.11-.13-.27-.11-.39.03-.06.08-.09.18-.09.27-.14-.1-.35-.1-.48.05-.1.12-.09.29-.07.43,0,.06.03.12.05.17,0,0,0,.02,0,.03,0,0,0,0,0,0-.08,0-.15.05-.18.15-.04.13.05.27.16.36-.09,0-.18.03-.24.11,0,0,0,0,0,0,.01,0,.03.02.04.03.07.04.17.07.25.02.02-.01.04-.04.05-.06.03.05.08.09.15.09.16.02.22-.13.23-.26.07.12.22.13.35.06,0,0,.02,0,.02-.01.1.09.24.12.36.04.09-.06.12-.17.13-.28.02,0,.03,0,.05,0,.11-.02.24-.07.31-.17,0,0,0,0,0,0,.03.02.06.03.1.03.09,0,.16-.04.21-.11.03-.04.05-.09.06-.15.13-.04.26-.15.33-.28.09.17.24.33.44.22.08-.05.13-.15.14-.25.13-.06.24-.17.29-.3.12.12.28.22.41.08.01-.01.02-.03.03-.04.02,0,.04,0,.06,0,.03,0,.07,0,.1-.01,0,.14.02.28.15.32.12.04.22-.08.26-.18,0-.01.01-.03.02-.05.06,0,.12-.03.18-.07.06.14.17.25.35.19.06-.02.1-.06.14-.12.17.12.42.17.61.11,0,.11.03.2.15.18.09-.01.14-.13.16-.21,0,0,0-.01,0-.02.09.06.2.08.3.05.03.05.07.08.11.11.06.04.12.03.17,0,.06.05.13.08.21.1.04,0,.08.01.12,0-.04.16-.01.33.19.34.14,0,.25-.08.31-.2.03,0,.07-.01.1-.02,0,.03.01.06.02.09.02.07.1.15.18.11.08-.04.12-.13.13-.22.05.07.11.12.2.14.17.04.3-.06.37-.2.02.12.11.18.24.2,0,0,0-.02-.02-.03Z"/>
        </g>
        <g>
          <path class="cls-6" d="M23.48,68.03c-.05-.05-.12-.08-.19-.09,0-.02.01-.05.02-.07.02-.07.04-.16.02-.24.07-.02.14-.07.17-.13.08-.15-.04-.29-.18-.34,0-.01.01-.03.02-.04.01-.06,0-.14-.03-.2.17-.11.2-.43.11-.59,0,0,0,0,0,0,.06-.09.02-.23-.03-.32-.02-.04-.05-.07-.09-.1-.02-.06-.07-.08-.13-.08.03-.04.04-.1.03-.16-.03-.15-.16-.2-.3-.2,0-.05,0-.1-.03-.13.08-.04.14-.11.13-.22-.02-.13-.12-.17-.23-.15.07-.07.12-.16.13-.25.01-.12-.07-.15-.16-.14.08-.08.1-.18.04-.28-.04-.07-.11-.1-.19-.11,0-.02,0-.04-.01-.06-.02-.07-.06-.13-.13-.16,0,0-.02,0-.02,0-.02-.05-.07-.09-.16-.1-.13-.02-.18.09-.19.22-.02,0-.04,0-.06,0-.04-.08-.09-.13-.17-.1-.04.01-.07.04-.09.06-.09.02-.19.1-.26.18-.16-.05-.28.06-.32.21-.09-.04-.21-.04-.3.05-.02.02-.05.08-.07.15-.01,0-.03-.01-.04-.01-.2-.04-.32.14-.34.32-.08,0-.16.05-.21.14-.06-.04-.13-.04-.22,0-.08.03-.15.12-.18.2-.14-.02-.34.07-.41.23-.05-.02-.11,0-.17.06-.02.02-.04.05-.06.08-.01,0-.02,0-.04,0-.08,0-.16.06-.21.13-.04-.03-.08-.04-.13-.03-.06.02-.11.05-.14.09-.03-.01-.06-.02-.11,0-.09.03-.13.08-.15.14-.08-.05-.19-.06-.28-.01-.23.11-.09.26.07.34-.02.02-.02.05-.01.07-.08.04-.1.15-.05.21-.02.12.03.2.12.24-.07.07-.07.21.01.29-.05.06-.05.14,0,.19-.07.08-.07.22.02.3v.03c-.13.09-.16.3-.04.41-.08.08-.1.22-.01.3,0,.03,0,.06,0,.08-.09.08-.16.25-.05.33,0,.03-.01.07-.01.11-.02,0-.05,0-.06.03-.02.07-.05.27.03.32,0,.03.03.06.05.09-.1.07-.14.26-.02.34-.03.03-.04.08-.03.12,0,.01,0,.02.01.03,0,.02.01.04.02.06-.05.07-.07.17-.03.24-.1.06-.14.2-.08.3-.08.09-.15.22-.09.33-.03.09-.04.21-.04.28,0,.02.01.04.03.04-.05.06-.08.13-.1.21,0,.02,0,.05.03.06.05.01.11,0,.16-.01.04.1.12.2.21.25.07.05.16.07.24.04.09-.03.13-.12.15-.2.13.06.26.11.41.1.05,0,.08-.02.12-.05.02,0,.04.01.06.02.15.03.27-.03.33-.14,0,0,.01,0,.01,0,.05.1.16.17.28.16.22,0,.25-.23.26-.41.02-.01.04-.03.06-.05.1.05.23.06.34.02.09-.04.11-.1.1-.17.16.09.44.04.47-.14.01,0,.02.01.03.01.02.01.05.03.08.04,0,0,.01,0,.02,0,.1.12.26.18.38.03.03-.04.05-.08.07-.12.12-.02.14-.19.15-.32.05.07.13.1.23.05.11-.05.15-.16.14-.27.08.06.19.07.29.02.11-.05.16-.15.14-.25.04.03.09.06.14.05.07-.01.12-.09.15-.15.03-.08.03-.18,0-.25.06-.05.1-.14.11-.21,0-.05,0-.09,0-.14.07-.03.12-.09.12-.2,0-.04-.01-.09-.03-.13.02,0,.03-.02.05-.04.08-.08.08-.21.03-.31.29.08.57-.29.33-.53Z"/>
          <path class="cls-1" d="M22.39,64.02s0-.11-.05-.16c-.06-.06-.13-.07-.21-.06,0-.02-.02-.03-.03-.05.07-.03.13-.08.15-.15.03-.13-.13-.14-.26-.12.06-.03.12-.07.17-.13,0,0,0-.01,0-.02-.11-.11-.27-.12-.43-.09.07-.06.1-.13,0-.22-.09-.09-.22-.12-.35-.11,0,0,0,0,0-.01-.05-.06-.14-.13-.22-.16,0-.09-.04-.19-.1-.26-.06-.08-.15-.16-.26-.17-.05,0-.09,0-.13.03-.02-.04-.04-.08-.06-.11-.06-.07-.14-.13-.23-.14-.03,0-.06,0-.09,0-.01-.05-.04-.11-.07-.15-.05-.07-.13-.14-.22-.15-.08,0-.14.04-.17.1-.05-.19-.2-.31-.41-.27-.07.01-.18.07-.23.14-.08-.21-.26-.39-.5-.36-.12.02-.26.09-.3.18-.03,0-.05,0-.07.01-.03-.06-.1-.06-.16-.02-.23-.08-.47-.08-.46.2-.13-.17-.32-.34-.54-.22-.08.05-.15.13-.18.21-.09-.09-.22-.13-.36-.11-.14.03-.23.13-.23.24-.1-.1-.25-.12-.39-.03-.14.08-.19.22-.16.35-.19-.1-.48.14-.48.34-.08-.04-.2-.04-.27,0-.21.09-.24.3-.22.5-.11-.13-.27-.11-.39.03-.06.08-.09.18-.09.27-.14-.1-.35-.1-.48.05-.1.12-.09.29-.07.43,0,.06.03.12.05.17,0,0,0,.02,0,.03,0,0,0,0,0,0-.08,0-.15.05-.18.15-.04.13.05.27.16.36-.09,0-.18.03-.24.11-.01.02-.02.03-.02.05-.03.01-.06.04-.09.07-.07.08-.08.16-.04.23-.06,0-.11.03-.13.1-.04.12.05.2.16.24-.07.03-.12.1-.12.2,0,.05.02.08.04.1-.03.03-.05.06-.07.11,0,.02-.01.03-.01.05-.22.08-.41.47-.21.63,0,0,.01,0,.02.01-.04.05-.07.11-.09.17-.01.04-.02.07-.02.1-.22.05-.26.31-.2.51.03.1.08.19.15.27-.07.15,0,.4.06.51,0,0,0,0,0,.01-.06.07-.09.17-.11.24-.03.11.02.25.07.35.02.05.05.11.09.15-.01.02-.03.04-.04.06-.07.14-.04.3.04.42.02.04.05.08.09.11,0,.02-.02.03-.02.05-.02.14.1.3.25.37,0,.08,0,.16.02.23.03.12.13.22.24.26,0,0,0,.01,0,.02-.06.14-.05.25.04.37.04.05.13.12.23.17,0,.19.23.32.42.29.03.04.09.07.15.09.08.02.18.01.24-.03.02.06.08.11.15.12.08.02.14-.02.18-.08.05.07.18.1.28.08.04,0,.08-.02.12-.04.06.11.22.17.34.18.1.01.22,0,.29-.09.04-.04.05-.09.04-.15.06.05.15.07.24.06,0,0,.01,0,.02,0,0,.11.08.2.22.23.08.02.17,0,.23-.05.01-.01.03-.03.03-.04.05.06.13.09.22.08.05,0,.11-.02.15-.05.03.1.13.16.26.16.18,0,.31-.12.36-.27.05.05.16.05.25.02.05-.02.09-.05.13-.08.01,0,.02,0,.04-.02.06-.03.1-.08.13-.14.1-.03.19-.11.22-.21.02-.07-.03-.11-.09-.13.04-.04.07-.1.08-.14.03-.09.05-.21,0-.29.08-.04.14-.15.16-.24.04-.14.02-.3-.07-.4.05,0,.09-.02.12-.05.08-.08.08-.21.07-.31,0-.05-.03-.17-.08-.26.24-.08.23-.53.04-.67.09-.04.14-.14.14-.26,0-.03,0-.05,0-.08.02,0,.04-.02.05-.03.12-.1.15-.27.15-.42.08.1.22.01.29-.08.11-.14.13-.34.03-.49.27.02.33-.3.23-.51.24.1.37-.25.24-.44.32.04.52-.33.46-.62,0,0,0,0,0,0,.28.16.55-.04.64-.3.05-.06.08-.15.05-.25,0,0,0,0,0,0,.21.1.47.03.66-.11.11-.08.19-.21.14-.32.03,0,.06-.02.09-.06,0,0,.01-.01.02-.02.11.01.22-.08.23-.17.08,0,.12-.17.06-.24Z"/>
          <path class="cls-9" d="M22.39,64.02s0-.11-.05-.16c-.06-.06-.13-.07-.21-.06,0-.02-.02-.03-.03-.05.07-.03.13-.08.15-.15.03-.13-.13-.14-.26-.12.06-.03.12-.07.17-.13,0,0,0-.01,0-.02-.11-.11-.27-.12-.43-.09.07-.06.1-.13,0-.22-.09-.09-.22-.12-.35-.11,0,0,0,0,0-.01-.05-.06-.14-.13-.22-.16,0-.09-.04-.19-.1-.26-.06-.08-.15-.16-.26-.17-.05,0-.09,0-.13.03-.02-.04-.04-.08-.06-.11-.06-.07-.14-.13-.23-.14-.03,0-.06,0-.09,0-.01-.05-.04-.11-.07-.15-.05-.07-.13-.14-.22-.15-.08,0-.14.04-.17.1-.05-.19-.2-.31-.41-.27-.07.01-.18.07-.23.14-.08-.21-.26-.39-.5-.36-.12.02-.26.09-.3.18-.03,0-.05,0-.07.01-.03-.06-.1-.06-.16-.02-.23-.08-.47-.08-.46.2-.13-.17-.32-.34-.54-.22-.08.05-.15.13-.18.21-.09-.09-.22-.13-.36-.11-.14.03-.23.13-.23.24-.1-.1-.25-.12-.39-.03-.14.08-.19.22-.16.35-.19-.1-.48.14-.48.34-.08-.04-.2-.04-.27,0-.21.09-.24.3-.22.5-.11-.13-.27-.11-.39.03-.06.08-.09.18-.09.27-.14-.1-.35-.1-.48.05-.1.12-.09.29-.07.43,0,.06.03.12.05.17,0,0,0,.02,0,.03,0,0,0,0,0,0-.08,0-.15.05-.18.15-.04.13.05.27.16.36-.09,0-.18.03-.24.11,0,0,0,0,0,0,.01,0,.03.02.04.03.07.04.17.07.25.02.02-.01.04-.04.05-.06.03.05.08.09.15.09.16.02.22-.13.23-.26.07.12.22.13.35.06,0,0,.02,0,.02-.01.1.09.23.12.36.04.09-.06.12-.17.13-.28.02,0,.03,0,.05,0,.11-.02.23-.07.31-.17,0,0,0,0,0,0,.03.02.06.03.1.03.09,0,.16-.04.21-.11.03-.04.05-.09.06-.15.13-.04.25-.15.33-.28.08.17.24.33.44.22.08-.05.13-.15.14-.25.13-.06.24-.17.29-.3.12.12.28.22.41.08.01-.01.02-.03.03-.04.02,0,.04,0,.06,0,.03,0,.07,0,.1-.01,0,.14.02.28.15.32.12.04.22-.08.26-.18,0-.01.01-.03.02-.05.06,0,.12-.03.18-.07.06.14.17.25.35.19.06-.02.1-.06.14-.12.17.12.42.17.6.11,0,.11.03.2.15.18.09-.01.14-.13.16-.21,0,0,0-.01,0-.02.09.06.2.08.3.05.03.05.07.09.11.11.06.04.12.03.17,0,.06.05.13.08.21.1.04,0,.08.01.12,0-.04.16-.01.33.19.34.14,0,.25-.08.31-.2.03,0,.07-.01.1-.02,0,.03.01.06.02.09.02.07.1.15.18.11.08-.04.12-.13.13-.22.05.07.11.12.2.14.17.04.3-.06.37-.2.02.12.11.18.24.2,0,0,0-.02-.02-.03Z"/>
        </g>
        <g>
          <g>
            <path class="cls-3" d="M12.84,73.45c-.31-.12-1.32-.12-1.62,0,0,0-.2.07.13.18.33.11,1.03.11,1.36,0,.33-.11.13-.18.13-.18Z"/>
            <path class="cls-3" d="M11.35,73.58c-.15-.08-.19-.15-.19-.19h0s0,8.06,0,8.06c0,0,0,0,0,0,0,.05.05.11.19.18.17.09.42.13.68.13v-8.05c-.26,0-.52-.04-.68-.13Z"/>
            <path class="cls-2" d="M12.9,73.38s-.03.12-.19.2c-.17.09-.42.13-.68.13v8.05c.26,0,.52-.04.68-.13.13-.07.18-.13.19-.18,0,0,0,0,0,0v-8.08s0,0,0,0Z"/>
          </g>
          <g>
            <g>
              <path class="cls-3" d="M11.1,72.28c-.13-.08-.57-.08-.71,0,0,0-.09.05.06.13.14.08.45.08.6,0,.14-.08.06-.13.06-.13Z"/>
              <path class="cls-3" d="M10.44,72.41c-.06-.03-.08-.06-.08-.09h0s0,.02,0,.02l.91,1.61s0,0,0,0c0,.02.02.05.08.08.07.04.19.06.3.06l-.92-1.63c-.11,0-.23-.02-.3-.06Z"/>
              <path class="cls-2" d="M11.12,72.32s-.01.05-.08.09c-.07.04-.19.06-.3.06l.92,1.63c.11,0,.23-.02.3-.06.06-.03.08-.06.08-.08,0,0,0,0,0,0l-.92-1.64h0Z"/>
            </g>
            <g>
              <path class="cls-3" d="M10.53,69.91c-.13-.08-.58-.08-.71,0,0,0-.09.05.06.13.15.08.45.08.6,0,.15-.08.06-.13.06-.13Z"/>
              <path class="cls-3" d="M9.88,70.03c-.06-.03-.08-.06-.08-.09h0s.56,2.38.56,2.38c0,0,0,0,0,0,0,.02.02.05.08.08.07.04.18.06.3.06l-.56-2.38c-.11,0-.23-.02-.3-.06Z"/>
              <path class="cls-2" d="M10.56,69.94s-.01.05-.08.09c-.07.04-.19.06-.3.06l.56,2.38c.11,0,.23-.02.3-.06.06-.03.08-.06.08-.08,0,0,0,0,0,0l-.56-2.39h0Z"/>
            </g>
            <g>
              <path class="cls-3" d="M7.33,70.47c-.06-.03-.08-.06-.08-.08t0,0l.08.09s3.05,1.9,3.11,1.93c.07.04.19.06.3.06l-3.11-1.93c-.11,0-.23-.02-.3-.06Z"/>
              <path class="cls-2" d="M7.63,70.53l3.11,1.93c.11,0,.23-.02.3-.06.06-.03.08-.06.08-.08,0,0,0,0,0,0l-3.13-1.97s-.25.18-.36.18Z"/>
              <path class="cls-3" d="M7.98,70.34c-.13-.08-.58-.08-.71,0,0,0-.09.05.06.13.15.08.45.08.6,0,.15-.08.06-.13.06-.13Z"/>
            </g>
          </g>
          <g>
            <g>
              <path class="cls-2" d="M14.34,72.81v.02s0-.01,0-.02c0,0,0,0,0,0Z"/>
              <path class="cls-2" d="M16.07,69.55l-2.16,2.99h0l-1.51,1.35c.11,0,.26.04.34,0,.06-.03,1.36-1.25,1.36-1.25-.02.02,2.25-3.12,2.25-3.12l.08-.16s0-.03-.35.19Z"/>
            </g>
            <path class="cls-3" d="M16.42,69.37c-.13-.08-.53-.08-.68-.01h0l-2.09,2.96s-1.63,1.44-1.63,1.44c0,0,0,0,0,0,0,.02.02.05.08.08.07.04.19.06.3.06l1.51-1.35h0l2.16-2.99c.11,0,.35-.19.35-.19Z"/>
          </g>
          <g>
            <g>
              <path class="cls-3" d="M12.38,72.92c-.13-.08-.57-.08-.71,0,0,0-.09.05.06.13.14.08.45.08.59,0,.14-.08.06-.13.06-.13Z"/>
              <path class="cls-3" d="M11.73,73.05c-.06-.03-.08-.06-.08-.08h0s0,1.24,0,1.24c0,0,0,0,0,0,0,.02.02.05.08.08.07.04.18.06.3.06v-1.24c-.11,0-.22-.02-.3-.06Z"/>
              <path class="cls-2" d="M12.41,72.96s-.01.05-.08.09c-.07.04-.18.06-.3.06v1.24c.11,0,.23-.02.3-.06.06-.03.08-.06.08-.08,0,0,0,0,0,0v-1.25h0Z"/>
            </g>
            <g>
              <path class="cls-3" d="M11.51,69.15c-.13-.08-.58-.08-.71,0,0,0-.09.05.06.13.15.08.45.08.6,0,.15-.08.06-.13.06-.13Z"/>
              <path class="cls-3" d="M10.86,69.27c-.06-.03-.08-.06-.08-.08,0,0,0,0,0,0l.87,3.78s0,0,0,0c0,.02.02.05.08.08.07.04.18.06.3.06l-.87-3.77c-.11,0-.23-.02-.3-.06Z"/>
              <path class="cls-2" d="M11.54,69.18s-.01.05-.08.09c-.07.04-.19.06-.3.06l.87,3.77c.11,0,.23-.02.3-.06.06-.03.08-.06.08-.08,0,0,0,0,0,0h0s-.87-3.79-.87-3.79c0,0,0,0,0,0Z"/>
            </g>
            <g>
              <path class="cls-2" d="M13.98,69.49s-1.59,3.52-1.65,3.56c-.07.04-.19.06-.3.06l1.57-3.49c.11,0,.38-.12.38-.12Z"/>
              <path class="cls-3" d="M13.61,69.61l-1.57,3.49c-.11,0-.23-.02-.3-.06-.06-.03-.08-.06-.08-.08,0,0,0,0,0,0l1.6-3.54s.24.19.35.19Z"/>
              <path class="cls-3" d="M13.25,69.43c.13-.08.58-.08.71,0,0,0,.09.05-.06.13-.15.08-.45.08-.6,0-.15-.08-.06-.13-.06-.13Z"/>
            </g>
          </g>
        </g>
        <g>
          <path class="cls-6" d="M19.89,65.24c-.08-.08-.19-.12-.3-.14,0-.04.02-.08.03-.12.03-.11.07-.26.03-.38.11-.03.22-.11.27-.21.12-.24-.07-.47-.3-.54.01-.02.02-.04.03-.07.02-.1,0-.22-.05-.32.28-.18.33-.7.17-.96,0,0,0,0,0,0,.1-.15.03-.38-.05-.52-.03-.06-.08-.12-.14-.16-.04-.09-.11-.13-.2-.13.05-.07.06-.15.04-.26-.05-.24-.27-.32-.49-.33,0-.08-.01-.16-.06-.2.13-.06.23-.18.2-.35-.03-.21-.19-.27-.36-.25.11-.11.2-.26.21-.41.02-.19-.11-.25-.26-.22.12-.12.17-.29.06-.46-.07-.11-.18-.17-.3-.17,0-.03-.01-.07-.02-.1-.03-.11-.1-.22-.22-.26-.01,0-.03,0-.04,0-.03-.08-.11-.14-.25-.17-.2-.04-.29.14-.3.35-.03,0-.07,0-.1,0-.06-.13-.15-.21-.28-.16-.06.02-.11.06-.14.1-.14.04-.3.16-.42.29-.26-.08-.45.1-.51.34-.15-.07-.33-.06-.49.07-.04.03-.08.13-.12.25-.02-.01-.04-.02-.06-.02-.32-.06-.51.22-.54.51-.12,0-.26.08-.34.22-.09-.06-.21-.07-.36,0-.12.06-.24.19-.29.33-.23-.03-.55.11-.66.38-.08-.03-.17,0-.27.1-.04.04-.07.08-.1.12-.02,0-.04,0-.06,0-.13,0-.26.09-.34.21-.06-.04-.13-.07-.21-.04-.1.03-.18.08-.23.15-.05-.02-.1-.03-.18,0-.14.04-.21.12-.24.22-.13-.08-.3-.1-.46-.02-.37.18-.14.41.12.54-.03.04-.04.08-.02.11-.13.06-.17.23-.08.34-.03.19.05.32.19.39-.11.12-.11.34.02.46-.08.1-.09.23,0,.31-.11.12-.11.35.04.48v.04c-.22.15-.25.48-.06.66-.13.13-.16.36-.02.49,0,.05,0,.09.01.13-.15.13-.25.4-.08.53-.01.05-.02.11-.02.17-.04-.01-.08.01-.09.05-.03.12-.08.43.05.52.01.06.04.11.08.15-.16.12-.23.41-.03.55-.05.06-.07.13-.05.2,0,.02.01.04.02.05,0,.04.02.07.03.1-.08.12-.11.27-.04.38-.17.09-.22.33-.12.48-.14.14-.24.36-.15.54-.05.15-.07.34-.06.45,0,.03.02.06.05.07-.08.09-.13.22-.16.34,0,.04.01.08.05.09.08.02.17,0,.25-.02.07.17.19.31.34.41.11.07.26.11.39.06.14-.05.21-.19.24-.32.2.1.43.18.65.16.07,0,.13-.04.19-.07.03.01.06.02.09.03.24.05.43-.05.53-.23,0,0,.02,0,.02,0,.08.16.25.27.45.27.35-.02.4-.37.43-.66.03-.02.07-.04.09-.07.17.08.37.1.55.03.14-.06.19-.17.17-.28.26.14.7.06.75-.23.02.01.04.02.05.02.04.02.08.04.13.06.01,0,.02,0,.03.01.16.2.42.29.61.05.05-.06.08-.13.11-.2.2-.03.23-.3.23-.51.08.12.21.16.38.08.17-.09.25-.26.22-.43.12.1.31.11.46.04.18-.08.27-.24.23-.4.06.06.14.09.23.08.12-.02.19-.14.23-.24.05-.14.05-.29,0-.4.1-.08.17-.22.18-.34,0-.07,0-.15-.01-.22.11-.04.19-.14.19-.32,0-.06-.02-.14-.05-.21.03-.01.05-.03.08-.06.13-.13.13-.34.05-.5.47.14.92-.47.52-.85Z"/>
          <path class="cls-1" d="M18.12,58.77c.02-.08,0-.17-.08-.26-.09-.09-.21-.12-.33-.1-.01-.03-.03-.05-.05-.08.12-.05.21-.12.24-.24.05-.22-.22-.22-.43-.2.1-.05.2-.12.28-.21,0,0,0-.02,0-.03-.18-.19-.44-.19-.69-.14.11-.09.15-.21.01-.35-.14-.14-.36-.2-.56-.18,0,0-.01-.01-.02-.02-.08-.1-.22-.21-.36-.26,0-.14-.07-.3-.16-.42-.1-.13-.25-.25-.41-.27-.08,0-.15.01-.2.04-.03-.07-.06-.13-.1-.18-.09-.12-.22-.21-.37-.23-.05,0-.1,0-.14.02-.02-.08-.07-.17-.12-.24-.09-.11-.21-.23-.36-.24-.13-.01-.22.06-.28.16-.08-.31-.33-.5-.67-.43-.11.02-.29.11-.37.23-.13-.33-.43-.63-.8-.58-.19.03-.41.14-.49.3-.04-.01-.08,0-.12.02-.05-.1-.16-.1-.27-.04-.37-.13-.76-.12-.75.32-.22-.27-.51-.56-.87-.35-.13.07-.24.21-.29.35-.14-.15-.35-.22-.58-.17-.23.04-.37.2-.37.39-.16-.16-.4-.19-.64-.05-.22.13-.3.35-.26.56-.3-.16-.77.22-.78.56-.13-.06-.32-.06-.44,0-.33.14-.39.49-.36.82-.18-.21-.44-.18-.62.06-.1.13-.15.29-.14.44-.23-.16-.56-.16-.77.08-.17.19-.15.47-.11.7.02.09.04.19.09.28,0,.01,0,.03,0,.04,0,0,0,0,0,0-.13.01-.24.08-.29.25-.07.21.08.44.26.59-.15,0-.29.05-.39.18-.02.03-.03.06-.04.09-.05.02-.1.06-.15.11-.11.12-.12.26-.06.36-.09,0-.17.05-.21.17-.07.2.09.33.25.38-.12.05-.2.17-.19.32,0,.07.03.13.07.16-.04.05-.08.1-.11.17,0,.03-.02.05-.02.08-.36.13-.67.75-.34,1.02,0,0,.02.01.03.02-.06.08-.11.18-.15.27-.02.06-.03.11-.04.17-.35.08-.42.49-.32.83.05.15.13.31.24.43-.11.25-.01.64.11.83,0,0,0,.01.01.02-.09.12-.15.28-.17.39-.04.19.03.4.11.56.04.08.09.17.15.24-.02.03-.05.07-.06.1-.11.22-.06.48.06.68.04.06.09.12.14.17-.01.03-.02.05-.03.08-.04.23.17.49.4.6,0,.13.02.26.04.37.04.19.2.35.38.42,0,0,0,.02-.01.03-.09.22-.08.4.07.59.06.08.21.2.36.28.02.31.37.51.68.46.06.06.14.11.24.14.13.03.3.02.39-.06.04.1.12.17.25.2.14.03.23-.03.28-.12.08.12.29.15.45.14.06,0,.14-.03.2-.06.09.17.35.28.55.3.16.02.36,0,.47-.14.06-.07.08-.15.07-.23.1.08.24.11.38.1,0,0,.02,0,.03,0,0,.18.13.32.35.37.13.03.27,0,.37-.08.02-.02.04-.04.06-.07.08.09.21.14.36.13.09,0,.18-.03.25-.08.05.15.21.25.42.25.29,0,.51-.19.58-.44.08.09.26.08.4.03.08-.03.15-.08.21-.13.02,0,.04-.02.06-.03.09-.05.17-.13.21-.22.16-.04.31-.18.35-.33.03-.12-.04-.17-.14-.22.06-.06.11-.16.13-.23.06-.14.08-.34.01-.47.13-.06.23-.24.27-.39.06-.22.03-.49-.11-.65.07,0,.14-.03.2-.09.12-.13.13-.34.11-.5,0-.09-.05-.28-.13-.42.39-.13.37-.86.06-1.07.14-.06.22-.23.22-.42,0-.04,0-.08,0-.13.03,0,.06-.03.09-.05.19-.16.24-.44.24-.68.13.16.35.02.47-.13.18-.23.22-.55.05-.79.43.04.53-.48.37-.82.39.15.6-.4.39-.72.52.07.84-.53.74-.99,0,0,0,0,0-.01.45.26.89-.06,1.03-.49.09-.1.13-.24.08-.41,0,0,0,0,0,0,.34.16.77.04,1.06-.17.18-.13.31-.34.23-.51.05,0,.1-.04.15-.09.01-.01.02-.02.03-.04.17.02.35-.13.38-.27.13-.01.19-.28.1-.39Z"/>
          <path class="cls-9" d="M18.12,58.77c.02-.08,0-.17-.08-.26-.09-.09-.21-.12-.33-.1-.01-.03-.03-.05-.05-.08.12-.05.21-.12.24-.24.05-.22-.22-.22-.43-.2.1-.05.2-.12.28-.21,0,0,0-.02,0-.03-.18-.19-.44-.19-.69-.14.11-.09.15-.21.01-.35-.14-.14-.36-.2-.56-.18,0,0-.01-.01-.02-.02-.08-.1-.22-.21-.36-.26,0-.14-.07-.3-.16-.42-.1-.13-.25-.25-.41-.27-.08,0-.15.01-.2.04-.03-.07-.06-.13-.1-.18-.09-.12-.22-.21-.37-.23-.05,0-.1,0-.14.02-.02-.08-.07-.17-.12-.24-.09-.11-.21-.23-.36-.24-.13-.01-.22.06-.28.16-.08-.31-.33-.5-.67-.43-.11.02-.29.11-.37.23-.13-.33-.43-.63-.8-.58-.19.03-.41.14-.49.3-.04-.01-.08,0-.12.02-.05-.1-.16-.1-.27-.04-.37-.13-.76-.12-.75.32-.22-.27-.51-.56-.87-.35-.13.07-.24.21-.29.35-.14-.15-.35-.22-.58-.17-.23.04-.37.2-.37.39-.16-.16-.4-.19-.64-.05-.22.13-.3.35-.26.56-.3-.16-.77.22-.78.56-.13-.06-.32-.06-.44,0-.33.14-.39.49-.36.82-.18-.21-.44-.18-.62.06-.1.13-.15.29-.14.44-.23-.16-.56-.16-.77.08-.17.19-.15.47-.11.7.02.09.04.19.09.28,0,.01,0,.03,0,.04,0,0,0,0,0,0-.13.01-.24.08-.29.25-.07.21.08.44.26.59-.15,0-.29.05-.39.18,0,0,0,0,0,.01.02.02.04.03.07.04.12.06.28.12.4.04.04-.02.06-.06.08-.1.05.08.13.14.24.15.26.03.36-.21.36-.43.12.19.36.22.57.1.01,0,.02-.01.04-.02.16.14.38.19.59.06.15-.09.19-.28.21-.45.03,0,.05,0,.07-.01.18-.03.38-.12.49-.27,0,0,0,0,0,0,.05.03.1.05.16.05.14.01.26-.06.34-.18.04-.06.08-.15.09-.24.21-.07.41-.24.53-.45.14.28.4.53.72.36.14-.07.22-.24.23-.41.21-.1.39-.27.47-.48.2.19.45.36.66.13.02-.02.03-.04.05-.07.04,0,.07,0,.1,0,.05,0,.11,0,.16-.02-.01.23.04.45.24.52.19.06.35-.14.42-.29.01-.02.02-.05.03-.07.1-.01.2-.05.29-.11.09.23.28.4.57.31.09-.03.17-.1.22-.19.28.2.68.27.98.18,0,.18.05.32.24.29.15-.02.22-.22.26-.34,0-.01,0-.02.01-.04.14.1.33.13.49.08.05.07.11.14.18.18.1.06.2.05.28,0,.1.07.22.13.34.16.07.01.13.02.2.01-.06.26-.02.53.31.54.22,0,.4-.13.5-.32.05,0,.11-.02.16-.04,0,.05.02.09.03.14.04.12.16.25.29.18.13-.06.19-.21.22-.35.07.11.18.19.32.23.27.07.48-.1.61-.32.03.2.18.3.39.33,0-.02-.02-.03-.03-.04Z"/>
        </g>
      </g>
      <g>
        <g>
          <path class="cls-6" d="M41.76,77.23c-.06-.06-.13-.08-.21-.1,0-.03.01-.05.02-.08.02-.08.05-.18.02-.26.08-.02.15-.08.19-.15.08-.17-.05-.32-.2-.37,0-.01.02-.03.02-.05.02-.07,0-.15-.03-.22.19-.13.23-.48.12-.66,0,0,0,0,0,0,.07-.11.02-.26-.03-.36-.02-.04-.06-.08-.1-.11-.03-.06-.08-.09-.14-.09.03-.05.04-.11.03-.18-.04-.17-.18-.22-.33-.22,0-.06,0-.11-.04-.14.09-.04.16-.12.14-.24-.02-.14-.13-.19-.25-.17.08-.07.13-.18.14-.28.01-.13-.07-.17-.18-.15.09-.08.12-.2.04-.31-.05-.08-.13-.11-.21-.12,0-.02,0-.05-.01-.07-.02-.08-.07-.15-.15-.18,0,0-.02,0-.03,0-.02-.05-.08-.1-.17-.11-.14-.03-.2.1-.21.24-.02,0-.05,0-.07,0-.04-.09-.1-.15-.19-.11-.04.02-.07.04-.09.07-.1.03-.21.11-.29.2-.17-.05-.31.07-.35.23-.1-.05-.23-.04-.33.05-.03.02-.06.09-.08.17-.01,0-.03-.01-.04-.01-.22-.04-.35.15-.37.35-.08,0-.18.06-.23.15-.06-.04-.15-.05-.24,0-.08.04-.16.13-.2.22-.16-.02-.38.07-.45.26-.05-.02-.12,0-.19.07-.03.03-.05.05-.07.08-.01,0-.03,0-.04,0-.09,0-.17.06-.24.14-.04-.03-.09-.05-.15-.03-.07.02-.12.06-.15.1-.03-.02-.07-.02-.12,0-.1.03-.15.09-.16.15-.09-.05-.21-.07-.31-.01-.26.13-.1.28.08.37-.02.03-.03.05-.02.08-.09.04-.11.16-.05.24-.02.13.03.22.13.27-.08.08-.08.23.02.32-.05.07-.06.16,0,.22-.08.09-.08.24.02.33v.03c-.15.1-.17.33-.04.45-.09.09-.11.25-.01.33,0,.03,0,.06,0,.09-.1.09-.17.28-.05.36-.01.04-.02.08-.01.12-.03,0-.06,0-.06.03-.02.08-.06.29.03.36,0,.04.03.07.06.1-.11.08-.16.29-.02.38-.03.04-.05.09-.03.14,0,.01,0,.02.02.04,0,.03.01.05.02.07-.05.08-.08.18-.03.26-.11.06-.15.22-.08.33-.09.1-.16.25-.1.37-.04.1-.05.23-.04.31,0,.02.01.04.03.05-.05.06-.09.15-.11.24,0,.02,0,.06.04.06.06.01.12,0,.17-.02.04.12.13.22.24.28.08.05.18.07.27.04.1-.03.14-.13.17-.22.14.07.29.13.45.11.05,0,.09-.02.13-.05.02,0,.04.01.06.02.17.03.3-.03.36-.16,0,0,.01,0,.02,0,.05.11.17.19.31.18.24-.01.27-.25.29-.45.02-.01.04-.03.06-.05.12.06.25.07.37.02.1-.04.13-.11.12-.19.17.1.48.04.52-.16.01,0,.02.01.04.01.03.02.06.03.09.04,0,0,.02,0,.02,0,.11.13.29.2.42.04.03-.04.06-.09.07-.14.14-.02.16-.21.16-.35.05.08.15.11.26.05.12-.06.17-.18.15-.3.08.07.21.08.32.03.13-.06.18-.16.16-.27.04.04.1.06.16.06.08-.01.13-.1.16-.17.04-.09.03-.2,0-.28.07-.06.11-.15.12-.24,0-.05,0-.1,0-.15.08-.03.13-.1.13-.22,0-.04-.01-.1-.04-.15.02,0,.04-.02.05-.04.09-.09.09-.23.03-.34.32.09.63-.32.36-.58Z"/>
          <path class="cls-1" d="M40.55,72.78c.02-.05,0-.12-.05-.18-.06-.06-.15-.08-.23-.07,0-.02-.02-.04-.04-.05.08-.03.15-.08.16-.16.03-.15-.15-.15-.29-.13.07-.04.14-.08.19-.15,0,0,0-.02,0-.02-.12-.13-.3-.13-.47-.09.07-.06.11-.14,0-.24-.1-.1-.25-.13-.39-.12,0,0,0,0-.01-.01-.05-.07-.15-.15-.25-.18,0-.09-.05-.21-.11-.29-.07-.09-.17-.17-.28-.18-.05,0-.1,0-.14.03-.02-.05-.04-.09-.07-.13-.06-.08-.15-.14-.26-.16-.03,0-.07,0-.1.01-.02-.06-.05-.12-.08-.16-.06-.08-.14-.16-.24-.17-.09,0-.15.04-.19.11-.05-.22-.22-.35-.46-.3-.08.01-.2.07-.26.16-.09-.23-.29-.43-.55-.4-.13.02-.28.1-.34.2-.03,0-.06,0-.08.01-.04-.07-.11-.07-.18-.03-.25-.09-.52-.08-.51.22-.15-.18-.35-.38-.59-.24-.09.05-.17.14-.2.24-.1-.1-.24-.15-.4-.12-.16.03-.25.14-.25.27-.11-.11-.28-.13-.44-.03-.15.09-.21.24-.18.39-.21-.11-.53.15-.53.38-.09-.04-.22-.04-.3,0-.23.1-.27.34-.24.56-.13-.14-.3-.13-.43.04-.07.09-.1.2-.1.3-.16-.11-.38-.11-.53.06-.12.13-.1.32-.08.48.01.06.03.13.06.19,0,0,0,.02,0,.03,0,0,0,0,0,0-.09,0-.16.05-.2.17-.05.15.05.3.18.4-.1,0-.2.03-.26.13-.01.02-.02.04-.03.06-.04.02-.07.04-.1.08-.08.08-.08.18-.04.25-.06,0-.12.03-.15.12-.05.14.06.23.17.26-.08.04-.14.12-.13.22,0,.05.02.09.05.11-.03.03-.05.07-.07.12,0,.02-.01.04-.01.05-.25.09-.46.52-.23.7,0,0,.01,0,.02.01-.04.06-.08.13-.1.19-.01.04-.02.08-.03.12-.24.05-.29.34-.22.57.03.11.09.21.17.3-.08.17,0,.44.07.57,0,0,0,0,0,.01-.06.08-.1.19-.12.27-.03.13.02.27.08.39.02.05.06.12.1.17-.02.02-.03.05-.04.07-.07.15-.04.33.04.47.02.04.06.08.1.12,0,.02-.02.04-.02.06-.03.16.12.34.27.41,0,.09.01.18.03.25.03.13.14.24.26.29,0,0,0,.01,0,.02-.06.15-.05.27.05.41.04.06.14.14.25.19.01.21.26.35.47.32.04.04.1.08.17.1.09.02.2.01.27-.04.03.07.08.12.17.13.09.02.16-.02.19-.08.06.08.2.11.31.09.04,0,.09-.02.14-.04.06.12.24.19.38.21.11.01.24,0,.32-.1.04-.05.05-.1.05-.16.07.05.16.08.26.07,0,0,.01,0,.02,0,0,.12.09.22.24.26.09.02.18,0,.25-.05.02-.01.03-.03.04-.05.05.06.14.1.25.09.06,0,.12-.02.17-.06.04.11.14.17.29.17.2,0,.35-.13.39-.3.06.06.18.06.28.02.06-.02.1-.05.14-.09.01,0,.03-.01.04-.02.06-.03.11-.09.15-.15.11-.03.21-.13.24-.23.02-.08-.03-.12-.09-.15.04-.04.07-.11.09-.16.04-.1.05-.23,0-.32.09-.04.16-.17.18-.27.04-.15.02-.34-.08-.45.05,0,.1-.02.14-.06.08-.09.09-.23.08-.35,0-.06-.04-.19-.09-.29.27-.09.25-.59.04-.74.1-.04.15-.16.15-.29,0-.03,0-.06,0-.09.02,0,.04-.02.06-.03.13-.11.16-.3.16-.47.09.11.24.01.32-.09.13-.16.15-.38.04-.55.3.03.36-.33.25-.56.27.11.41-.28.27-.49.36.05.58-.36.51-.68,0,0,0,0,0,0,.31.18.61-.04.71-.34.06-.07.09-.17.05-.28,0,0,0,0,0,0,.23.11.52.03.73-.12.13-.09.21-.23.16-.35.04,0,.07-.03.1-.06,0,0,.01-.02.02-.03.12.02.24-.09.26-.19.09,0,.13-.19.07-.26Z"/>
          <path class="cls-9" d="M40.55,72.78c.02-.05,0-.12-.05-.18-.06-.06-.15-.08-.23-.07,0-.02-.02-.04-.04-.05.08-.03.15-.08.16-.16.03-.15-.15-.15-.29-.13.07-.04.14-.08.19-.15,0,0,0-.02,0-.02-.12-.13-.3-.13-.47-.09.07-.06.11-.14,0-.24-.1-.1-.25-.13-.39-.12,0,0,0,0-.01-.01-.05-.07-.15-.15-.25-.18,0-.09-.05-.21-.11-.29-.07-.09-.17-.17-.28-.18-.05,0-.1,0-.14.03-.02-.05-.04-.09-.07-.13-.06-.08-.15-.14-.26-.16-.03,0-.07,0-.1.01-.02-.06-.05-.12-.08-.16-.06-.08-.14-.16-.24-.17-.09,0-.15.04-.19.11-.05-.22-.22-.35-.46-.3-.08.01-.2.07-.26.16-.09-.23-.29-.43-.55-.4-.13.02-.28.1-.34.2-.03,0-.06,0-.08.01-.04-.07-.11-.07-.18-.03-.25-.09-.52-.08-.51.22-.15-.18-.35-.38-.59-.24-.09.05-.17.14-.2.24-.1-.1-.24-.15-.4-.12-.16.03-.25.14-.25.27-.11-.11-.28-.13-.44-.03-.15.09-.21.24-.18.39-.21-.11-.53.15-.53.38-.09-.04-.22-.04-.3,0-.23.1-.27.34-.24.56-.13-.14-.3-.13-.43.04-.07.09-.1.2-.1.3-.16-.11-.38-.11-.53.06-.12.13-.1.32-.08.48.01.06.03.13.06.19,0,0,0,.02,0,.03,0,0,0,0,0,0-.09,0-.16.05-.2.17-.05.15.05.3.18.4-.1,0-.2.03-.26.13,0,0,0,0,0,0,.01.01.03.02.05.03.08.04.19.08.28.03.03-.02.04-.04.05-.07.04.05.09.09.16.1.18.02.24-.14.25-.29.08.13.25.15.39.07,0,0,.02,0,.03-.01.11.1.26.13.4.04.1-.06.13-.19.14-.31.02,0,.03,0,.05,0,.13-.02.26-.08.34-.19,0,0,0,0,0,0,.03.02.07.03.11.04.1,0,.18-.04.23-.12.03-.04.05-.1.06-.17.15-.05.28-.17.36-.31.09.19.27.37.49.25.09-.05.15-.16.16-.28.15-.07.27-.18.32-.33.14.13.31.24.45.09.01-.01.02-.03.03-.05.02,0,.05,0,.07,0,.03,0,.07,0,.11-.01,0,.16.02.31.16.36.13.04.24-.09.29-.2,0-.02.01-.03.02-.05.07,0,.14-.04.2-.07.06.16.19.27.39.21.06-.02.12-.07.15-.13.19.14.47.19.67.12,0,.12.04.22.17.2.1-.01.15-.15.18-.23,0,0,0-.02,0-.03.09.07.23.09.34.05.03.05.07.09.13.13.07.04.14.04.19,0,.07.05.15.09.23.11.05.01.09.01.14.01-.04.18-.01.37.21.37.15,0,.27-.09.34-.22.04,0,.07-.01.11-.02,0,.03.01.07.02.1.03.08.11.17.2.13.09-.04.13-.15.15-.24.05.07.12.13.22.16.18.05.33-.07.41-.22.02.14.13.2.27.22,0-.01-.01-.02-.02-.03Z"/>
        </g>
        <g>
          <path class="cls-6" d="M36.05,82.89c-.06-.05-.13-.08-.21-.1,0-.02.01-.05.02-.08.02-.08.05-.18.02-.26.08-.02.15-.08.19-.15.08-.17-.05-.32-.2-.37,0-.01.02-.03.02-.05.02-.07,0-.15-.03-.22.19-.13.23-.48.12-.66,0,0,0,0,0,0,.07-.11.02-.26-.03-.36-.02-.04-.06-.08-.1-.11-.02-.06-.08-.09-.14-.09.03-.05.04-.11.03-.18-.04-.17-.18-.22-.33-.22,0-.06,0-.11-.04-.14.09-.04.16-.12.14-.24-.02-.14-.13-.19-.25-.17.08-.07.13-.18.14-.28.01-.13-.07-.17-.17-.15.08-.08.11-.2.04-.31-.05-.08-.13-.11-.21-.12,0-.02,0-.05-.02-.07-.02-.08-.07-.15-.15-.17,0,0-.02,0-.03,0-.02-.05-.08-.1-.17-.11-.14-.03-.2.1-.21.24-.02,0-.04,0-.07,0-.04-.09-.1-.15-.19-.11-.04.02-.07.04-.09.07-.1.03-.21.11-.29.2-.17-.05-.3.07-.35.23-.1-.05-.23-.04-.33.05-.03.02-.06.09-.08.17-.01,0-.03-.01-.04-.02-.22-.04-.35.15-.37.35-.08,0-.18.06-.23.15-.06-.04-.15-.05-.24,0-.08.04-.16.13-.2.22-.16-.02-.38.07-.45.26-.05-.02-.12,0-.19.07-.03.03-.05.05-.07.08-.01,0-.03,0-.04,0-.09,0-.17.06-.24.14-.04-.03-.09-.04-.15-.03-.07.02-.12.06-.15.1-.03-.02-.07-.02-.12,0-.1.03-.15.08-.16.15-.09-.05-.2-.07-.31-.01-.26.13-.1.28.08.37-.02.03-.03.05-.02.08-.09.04-.11.16-.05.24-.02.13.03.22.13.27-.08.08-.08.23.02.32-.05.07-.06.16,0,.22-.08.09-.07.24.02.33v.03c-.15.1-.17.33-.04.45-.09.09-.11.25-.02.33,0,.03,0,.06,0,.09-.1.09-.17.27-.05.36-.01.04-.01.08-.01.12-.03,0-.06,0-.06.03-.02.08-.06.29.03.36,0,.04.03.07.06.1-.11.08-.16.28-.02.38-.03.04-.05.09-.03.14,0,.01,0,.02.02.04,0,.03.01.05.02.07-.05.08-.08.18-.03.26-.11.06-.15.22-.08.33-.09.09-.16.25-.1.37-.04.1-.05.23-.04.31,0,.02.01.04.03.05-.05.06-.09.15-.11.24,0,.02,0,.06.03.06.06.01.12,0,.17-.01.05.11.13.22.24.28.08.05.18.07.27.04.09-.03.14-.13.17-.22.14.07.29.13.45.11.05,0,.09-.02.13-.05.02,0,.04.01.06.02.17.03.3-.03.36-.16,0,0,.01,0,.02,0,.05.11.17.19.31.18.24-.01.27-.25.29-.45.02-.01.05-.03.06-.05.11.06.25.07.37.02.1-.04.13-.11.12-.19.17.1.48.04.52-.16.01,0,.02.01.04.01.03.02.06.03.09.04,0,0,.02,0,.02,0,.11.13.29.2.42.04.03-.04.06-.09.07-.14.14-.02.16-.21.16-.35.05.08.15.11.26.05.12-.06.17-.18.15-.3.08.07.21.07.32.03.13-.06.18-.16.16-.27.04.04.1.06.16.06.08-.01.13-.1.16-.17.04-.09.03-.2,0-.28.07-.06.11-.15.12-.23,0-.05,0-.1,0-.15.08-.03.13-.1.13-.22,0-.04-.01-.1-.04-.15.02,0,.04-.02.05-.04.09-.09.09-.23.03-.34.32.09.63-.32.36-.58Z"/>
          <path class="cls-1" d="M34.84,78.46c.02-.05,0-.12-.05-.17-.06-.06-.15-.08-.23-.07,0-.02-.02-.04-.04-.05.08-.03.15-.08.16-.16.03-.15-.15-.15-.29-.13.07-.04.14-.08.19-.15,0,0,0-.02,0-.02-.12-.13-.3-.13-.47-.09.07-.06.11-.14,0-.24-.1-.1-.24-.13-.39-.12,0,0,0,0-.01-.01-.05-.07-.15-.15-.25-.18,0-.09-.05-.21-.11-.29-.07-.09-.17-.17-.28-.18-.05,0-.1,0-.14.03-.02-.05-.04-.09-.07-.12-.06-.08-.15-.14-.26-.15-.03,0-.07,0-.1.01-.01-.06-.04-.12-.08-.16-.06-.08-.14-.15-.24-.17-.09,0-.15.04-.19.11-.05-.21-.22-.34-.46-.3-.08.01-.2.07-.26.15-.09-.23-.29-.43-.55-.39-.13.02-.28.1-.34.2-.03,0-.06,0-.08.01-.04-.07-.11-.07-.18-.03-.25-.09-.52-.08-.51.22-.15-.18-.35-.38-.59-.24-.09.05-.17.14-.19.24-.1-.1-.24-.15-.4-.12-.16.03-.25.14-.25.27-.11-.11-.28-.13-.44-.03-.15.09-.21.24-.18.38-.21-.11-.53.15-.53.38-.09-.04-.22-.04-.3,0-.23.1-.27.34-.24.56-.13-.14-.3-.13-.43.04-.07.09-.1.2-.1.3-.16-.11-.38-.11-.53.06-.12.13-.1.32-.08.48.01.06.03.13.06.19,0,0,0,.02,0,.03,0,0,0,0,0,0-.09,0-.16.05-.2.17-.05.15.05.3.18.4-.1,0-.2.03-.26.13-.01.02-.02.04-.03.06-.04.02-.07.04-.1.08-.08.08-.08.18-.04.25-.06,0-.12.03-.15.12-.05.14.06.22.17.26-.08.04-.14.11-.13.22,0,.05.02.09.05.11-.03.03-.05.07-.07.12,0,.02-.01.04-.01.05-.25.09-.46.51-.23.69,0,0,.01,0,.02.01-.04.06-.08.13-.1.19-.01.04-.02.08-.03.12-.24.05-.29.34-.22.57.03.1.09.21.17.29-.08.17,0,.44.07.56,0,0,0,0,0,.01-.06.08-.1.19-.12.27-.03.13.02.27.07.38.02.05.06.12.1.17-.02.02-.03.04-.04.07-.07.15-.04.33.04.47.03.04.06.08.1.12,0,.02-.02.04-.02.06-.03.15.12.33.27.41,0,.09.01.18.03.25.03.13.14.24.26.29,0,0,0,.01,0,.02-.06.15-.05.27.05.41.04.06.14.14.25.19.01.21.26.35.47.32.04.04.09.08.17.1.09.02.2.01.27-.04.03.07.08.12.17.13.09.02.16-.02.19-.08.06.08.2.11.31.09.04,0,.09-.02.14-.04.06.12.24.19.37.2.11.01.24,0,.32-.09.04-.05.05-.1.05-.16.07.05.16.08.26.07,0,0,.01,0,.02,0,0,.12.09.22.24.25.09.02.18,0,.25-.05.02-.01.03-.03.04-.05.05.06.14.1.25.09.06,0,.12-.02.17-.06.04.11.14.17.29.17.2,0,.35-.13.39-.3.06.06.18.06.28.02.06-.02.1-.05.14-.09.01,0,.03-.01.04-.02.06-.03.11-.09.14-.15.11-.03.21-.13.24-.23.02-.08-.03-.12-.09-.15.04-.04.07-.11.09-.16.04-.1.05-.23,0-.32.09-.04.15-.17.18-.27.04-.15.02-.33-.08-.44.05,0,.1-.02.14-.06.08-.09.09-.23.08-.35,0-.06-.04-.19-.09-.29.27-.09.25-.59.04-.74.1-.04.15-.15.15-.29,0-.03,0-.06,0-.09.02,0,.04-.02.06-.03.13-.11.16-.3.16-.46.09.11.24.01.32-.09.13-.16.15-.38.04-.54.3.03.36-.33.25-.56.27.11.41-.27.27-.49.35.05.58-.36.51-.68,0,0,0,0,0,0,.31.17.61-.04.71-.34.06-.07.09-.17.05-.28,0,0,0,0,0,0,.23.11.52.03.72-.12.13-.09.21-.23.16-.35.03,0,.07-.03.1-.06,0,0,.01-.02.02-.03.12.02.24-.09.26-.19.09,0,.13-.19.07-.26Z"/>
          <path class="cls-9" d="M34.84,78.46c.02-.05,0-.12-.05-.17-.06-.06-.15-.08-.23-.07,0-.02-.02-.04-.04-.05.08-.03.15-.08.16-.16.03-.15-.15-.15-.29-.13.07-.04.14-.08.19-.15,0,0,0-.02,0-.02-.12-.13-.3-.13-.47-.09.07-.06.11-.14,0-.24-.1-.1-.24-.13-.39-.12,0,0,0,0-.01-.01-.05-.07-.15-.15-.25-.18,0-.09-.05-.21-.11-.29-.07-.09-.17-.17-.28-.18-.05,0-.1,0-.14.03-.02-.05-.04-.09-.07-.12-.06-.08-.15-.14-.26-.15-.03,0-.07,0-.1.01-.01-.06-.04-.12-.08-.16-.06-.08-.14-.15-.24-.17-.09,0-.15.04-.19.11-.05-.21-.22-.34-.46-.3-.08.01-.2.07-.26.15-.09-.23-.29-.43-.55-.39-.13.02-.28.1-.34.2-.03,0-.06,0-.08.01-.04-.07-.11-.07-.18-.03-.25-.09-.52-.08-.51.22-.15-.18-.35-.38-.59-.24-.09.05-.17.14-.19.24-.1-.1-.24-.15-.4-.12-.16.03-.25.14-.25.27-.11-.11-.28-.13-.44-.03-.15.09-.21.24-.18.38-.21-.11-.53.15-.53.38-.09-.04-.22-.04-.3,0-.23.1-.27.34-.24.56-.13-.14-.3-.13-.43.04-.07.09-.1.2-.1.3-.16-.11-.38-.11-.53.06-.12.13-.1.32-.08.48.01.06.03.13.06.19,0,0,0,.02,0,.03,0,0,0,0,0,0-.09,0-.16.05-.2.17-.05.15.05.3.18.4-.1,0-.2.03-.26.13,0,0,0,0,0,0,.02.01.03.02.05.03.08.04.19.08.27.03.03-.02.04-.04.05-.07.04.05.09.09.16.1.18.02.24-.14.25-.29.08.13.25.15.39.07,0,0,.02,0,.03-.01.11.1.26.13.4.04.1-.06.13-.19.14-.3.02,0,.04,0,.05,0,.12-.02.26-.08.34-.19,0,0,0,0,0,0,.03.02.07.03.11.04.1,0,.18-.04.23-.12.03-.04.05-.1.06-.16.15-.05.28-.17.36-.31.09.19.27.36.49.24.09-.05.15-.16.16-.28.14-.07.27-.18.32-.33.14.13.31.24.45.09.01-.01.02-.03.03-.05.02,0,.05,0,.07,0,.03,0,.07,0,.11-.01,0,.16.02.31.16.35.13.04.24-.09.29-.2,0-.02.01-.03.02-.05.07,0,.14-.04.2-.07.06.16.19.27.39.21.06-.02.12-.07.15-.13.19.13.46.18.67.12,0,.12.04.22.17.2.1-.01.15-.15.18-.23,0,0,0-.02,0-.03.09.07.23.09.33.05.03.05.07.09.13.13.07.04.14.04.19,0,.07.05.15.09.23.11.04.01.09.01.14.01-.04.18-.01.36.21.37.15,0,.27-.09.34-.22.04,0,.07-.01.11-.02,0,.03.01.07.02.1.03.08.11.17.2.13.09-.04.13-.14.15-.24.05.07.12.13.22.15.18.05.33-.07.41-.22.02.14.12.2.26.22,0-.01,0-.02-.02-.03Z"/>
        </g>
        <g>
          <path class="cls-6" d="M46.58,81.65s-.11-.07-.17-.08c0-.02.01-.04.02-.07.02-.06.04-.15.02-.22.06-.02.12-.06.15-.12.07-.14-.04-.27-.17-.31,0-.01.01-.02.02-.04.01-.06,0-.12-.03-.18.16-.1.19-.39.1-.54,0,0,0,0,0,0,.05-.09.02-.21-.03-.3-.02-.04-.05-.07-.08-.09-.02-.05-.06-.07-.12-.08.03-.04.04-.09.02-.15-.03-.14-.15-.18-.27-.18,0-.05,0-.09-.03-.12.08-.03.13-.1.11-.2-.02-.12-.11-.15-.2-.14.06-.06.11-.15.12-.23,0-.11-.06-.14-.14-.13.07-.07.09-.16.03-.26-.04-.06-.1-.09-.17-.1,0-.02,0-.04-.01-.06-.02-.06-.06-.12-.12-.14,0,0-.01,0-.02,0-.02-.05-.06-.08-.14-.09-.12-.02-.16.08-.17.2-.02,0-.04,0-.05,0-.03-.07-.08-.12-.16-.09-.03.01-.06.03-.08.06-.08.02-.17.09-.24.17-.14-.04-.25.06-.29.19-.08-.04-.19-.04-.27.04-.02.02-.05.07-.07.14-.01,0-.02,0-.03-.01-.18-.04-.29.12-.31.29-.07,0-.15.05-.19.13-.05-.03-.12-.04-.2,0-.07.03-.13.11-.16.18-.13-.02-.31.06-.37.21-.04-.01-.1,0-.15.05-.02.02-.04.04-.06.07-.01,0-.02,0-.03,0-.07,0-.14.05-.19.12-.03-.03-.08-.04-.12-.02-.06.02-.1.05-.13.09-.03-.01-.06-.02-.1,0-.08.02-.12.07-.13.13-.07-.04-.17-.06-.26-.01-.21.1-.08.23.07.31-.02.02-.02.04-.01.06-.07.03-.09.13-.04.19-.02.11.03.18.1.22-.06.07-.06.19.01.26-.04.05-.05.13,0,.18-.06.07-.06.2.02.27v.03c-.12.08-.14.27-.03.37-.07.07-.09.2-.01.27,0,.03,0,.05,0,.08-.08.07-.14.23-.04.3,0,.03-.01.06-.01.1-.02,0-.05,0-.05.03-.02.07-.05.24.03.3,0,.03.02.06.05.08-.09.07-.13.23-.02.31-.03.03-.04.07-.03.11,0,.01,0,.02.01.03,0,.02,0,.04.02.06-.05.07-.06.15-.03.21-.09.05-.12.18-.07.27-.08.08-.13.2-.08.3-.03.09-.04.19-.03.26,0,.02.01.03.03.04-.04.05-.07.12-.09.19,0,.02,0,.05.03.05.05,0,.1,0,.14-.01.04.09.11.18.19.23.06.04.15.06.22.04.08-.03.12-.11.14-.18.11.06.24.1.37.09.04,0,.08-.02.1-.04.02,0,.03.01.05.01.14.03.24-.03.3-.13,0,0,0,0,.01,0,.04.09.14.15.25.15.2,0,.23-.21.24-.37.02-.01.04-.03.05-.04.09.05.21.06.31.02.08-.03.1-.09.09-.16.14.08.4.04.43-.13,0,0,.02,0,.03.01.02.01.05.02.07.03,0,0,.01,0,.02,0,.09.11.24.16.34.03.03-.03.05-.07.06-.11.11-.02.13-.17.13-.29.04.07.12.09.21.04.1-.05.14-.15.12-.24.07.06.17.06.26.02.1-.05.15-.13.13-.22.04.03.08.05.13.05.07,0,.11-.08.13-.14.03-.08.03-.16,0-.23.06-.05.09-.13.1-.19,0-.04,0-.08,0-.13.06-.03.11-.08.1-.18,0-.04-.01-.08-.03-.12.02,0,.03-.02.05-.03.07-.08.07-.19.03-.28.27.08.52-.26.3-.48Z"/>
          <path class="cls-1" d="M45.58,78s0-.1-.04-.14c-.05-.05-.12-.07-.19-.06,0-.01-.02-.03-.03-.04.07-.03.12-.07.13-.13.03-.12-.12-.12-.24-.11.06-.03.11-.07.16-.12,0,0,0-.01,0-.02-.1-.1-.25-.11-.39-.08.06-.05.09-.12,0-.2-.08-.08-.2-.11-.32-.1,0,0,0,0,0-.01-.04-.05-.13-.12-.2-.15,0-.08-.04-.17-.09-.24-.06-.07-.14-.14-.23-.15-.04,0-.08,0-.12.03-.01-.04-.04-.08-.06-.1-.05-.07-.13-.12-.21-.13-.03,0-.05,0-.08,0-.01-.05-.04-.1-.07-.13-.05-.06-.12-.13-.2-.14-.07,0-.12.03-.16.09-.04-.18-.18-.28-.38-.24-.06.01-.17.06-.21.13-.08-.19-.24-.36-.45-.32-.11.02-.23.08-.28.17-.02,0-.05,0-.07.01-.03-.05-.09-.05-.15-.02-.21-.07-.43-.07-.42.18-.12-.15-.29-.31-.49-.2-.07.04-.14.12-.16.2-.08-.08-.2-.12-.33-.1-.13.02-.21.11-.21.22-.09-.09-.23-.11-.36-.03-.12.07-.17.2-.15.32-.17-.09-.44.12-.44.31-.07-.04-.18-.03-.25,0-.19.08-.22.28-.2.46-.1-.12-.25-.1-.35.03-.05.07-.08.16-.08.25-.13-.09-.32-.09-.44.05-.09.11-.08.26-.06.39,0,.05.02.11.05.16,0,0,0,.02,0,.02,0,0,0,0,0,0-.07,0-.14.04-.17.14-.04.12.04.25.15.33-.08,0-.16.03-.22.1-.01.01-.02.03-.02.05-.03.01-.06.03-.09.06-.06.07-.07.15-.03.21-.05,0-.1.03-.12.1-.04.11.05.19.14.22-.07.03-.11.09-.11.18,0,.04.02.07.04.09-.02.03-.05.06-.06.1,0,.01,0,.03-.01.04-.2.07-.38.42-.19.57,0,0,0,0,.01.01-.04.05-.06.1-.08.15-.01.03-.02.06-.02.1-.2.04-.24.28-.18.47.03.09.07.18.14.24-.06.14,0,.36.06.47,0,0,0,0,0,.01-.05.07-.08.16-.1.22-.02.1.02.22.06.32.02.04.05.1.08.14-.01.02-.03.04-.04.06-.06.13-.03.27.04.38.02.04.05.07.08.1,0,.01-.01.03-.02.05-.02.13.09.28.22.34,0,.07,0,.15.02.21.02.11.11.2.22.24,0,0,0,.01,0,.01-.05.13-.04.22.04.33.03.05.12.11.21.16,0,.17.21.29.38.26.03.04.08.06.14.08.07.02.17.01.22-.03.02.05.07.1.14.11.08.02.13-.02.16-.07.05.07.16.09.25.08.03,0,.08-.02.11-.03.05.1.2.16.31.17.09.01.2,0,.26-.08.03-.04.04-.08.04-.13.06.04.13.06.22.06,0,0,.01,0,.02,0,0,.1.07.18.2.21.07.02.15,0,.21-.04.01-.01.02-.02.03-.04.05.05.12.08.2.07.05,0,.1-.02.14-.05.03.09.12.14.24.14.16,0,.29-.11.32-.25.05.05.15.05.23.02.05-.02.09-.04.12-.08.01,0,.02,0,.03-.01.05-.03.09-.07.12-.13.09-.03.17-.1.2-.19.02-.07-.02-.1-.08-.12.04-.04.06-.09.08-.13.03-.08.04-.19,0-.26.07-.04.13-.14.15-.22.03-.13.02-.28-.06-.37.04,0,.08-.02.11-.05.07-.07.07-.19.06-.28,0-.05-.03-.16-.07-.24.22-.07.21-.49.04-.61.08-.03.12-.13.13-.24,0-.02,0-.05,0-.07.02,0,.03-.01.05-.03.11-.09.13-.25.13-.38.07.09.2,0,.26-.07.1-.13.12-.31.03-.45.24.02.3-.27.21-.46.22.09.34-.23.22-.4.29.04.47-.3.42-.56,0,0,0,0,0,0,.26.14.5-.03.58-.28.05-.06.07-.14.04-.23,0,0,0,0,0,0,.19.09.43.02.6-.1.1-.08.17-.19.13-.29.03,0,.06-.02.08-.05,0,0,.01-.01.02-.02.1.01.2-.08.21-.16.07,0,.11-.16.06-.22Z"/>
          <path class="cls-9" d="M45.58,78s0-.1-.04-.14c-.05-.05-.12-.07-.19-.06,0-.01-.02-.03-.03-.04.07-.03.12-.07.13-.13.03-.12-.12-.12-.24-.11.06-.03.11-.07.16-.12,0,0,0-.01,0-.02-.1-.1-.25-.11-.39-.08.06-.05.09-.12,0-.2-.08-.08-.2-.11-.32-.1,0,0,0,0,0-.01-.04-.05-.13-.12-.2-.15,0-.08-.04-.17-.09-.24-.06-.07-.14-.14-.23-.15-.04,0-.08,0-.12.03-.01-.04-.04-.08-.06-.1-.05-.07-.13-.12-.21-.13-.03,0-.05,0-.08,0-.01-.05-.04-.1-.07-.13-.05-.06-.12-.13-.2-.14-.07,0-.12.03-.16.09-.04-.18-.18-.28-.38-.24-.06.01-.17.06-.21.13-.08-.19-.24-.36-.45-.32-.11.02-.23.08-.28.17-.02,0-.05,0-.07.01-.03-.05-.09-.05-.15-.02-.21-.07-.43-.07-.42.18-.12-.15-.29-.31-.49-.2-.07.04-.14.12-.16.2-.08-.08-.2-.12-.33-.1-.13.02-.21.11-.21.22-.09-.09-.23-.11-.36-.03-.12.07-.17.2-.15.32-.17-.09-.44.12-.44.31-.07-.04-.18-.03-.25,0-.19.08-.22.28-.2.46-.1-.12-.25-.1-.35.03-.05.07-.08.16-.08.25-.13-.09-.32-.09-.44.05-.09.11-.08.26-.06.39,0,.05.02.11.05.16,0,0,0,.02,0,.02,0,0,0,0,0,0-.07,0-.14.04-.17.14-.04.12.04.25.15.33-.08,0-.16.03-.22.1,0,0,0,0,0,0,.01,0,.03.02.04.02.06.04.16.06.23.02.02-.01.04-.03.05-.05.03.04.07.08.13.09.15.02.2-.12.21-.24.07.11.2.12.32.06,0,0,.01,0,.02-.01.09.08.21.11.33.04.08-.05.11-.16.12-.25.02,0,.03,0,.04,0,.1-.02.21-.07.28-.15,0,0,0,0,0,0,.03.02.06.03.09.03.08,0,.15-.04.19-.1.02-.04.04-.08.05-.14.12-.04.23-.14.3-.25.08.16.22.3.4.2.08-.04.12-.13.13-.23.12-.06.22-.15.26-.27.11.11.26.2.37.08,0-.01.02-.02.03-.04.02,0,.04,0,.06,0,.03,0,.06,0,.09-.01,0,.13.02.26.14.29.11.03.2-.08.24-.16,0-.01.01-.03.02-.04.06,0,.11-.03.16-.06.05.13.16.22.32.17.05-.02.09-.06.13-.11.16.11.38.15.55.1,0,.1.03.18.14.17.08-.01.12-.12.15-.19,0,0,0-.01,0-.02.08.06.19.07.28.04.03.04.06.08.1.1.06.03.11.03.16,0,.06.04.12.07.19.09.04,0,.08.01.11,0-.03.15-.01.3.17.31.13,0,.22-.07.28-.18.03,0,.06,0,.09-.02,0,.03.01.05.02.08.02.07.09.14.16.1.07-.03.11-.12.12-.2.04.06.1.11.18.13.15.04.27-.06.34-.18.01.11.1.17.22.18,0,0,0-.02-.01-.02Z"/>
        </g>
        <g>
          <path class="cls-6" d="M34.93,91.41c-.05-.05-.12-.08-.19-.09,0-.02.01-.05.02-.07.02-.07.04-.16.02-.24.07-.02.14-.07.17-.13.08-.15-.04-.29-.18-.34,0-.01.01-.03.02-.04.01-.06,0-.14-.03-.2.17-.11.2-.43.11-.59,0,0,0,0,0,0,.06-.09.02-.23-.03-.32-.02-.04-.05-.07-.09-.1-.02-.06-.07-.08-.13-.08.03-.04.04-.1.03-.16-.03-.15-.17-.2-.3-.2,0-.05,0-.1-.03-.13.08-.04.14-.11.13-.22-.02-.13-.12-.17-.23-.15.07-.07.12-.16.13-.25.01-.12-.07-.15-.16-.14.08-.08.1-.18.04-.28-.04-.07-.11-.1-.19-.11,0-.02,0-.04-.01-.06-.02-.07-.06-.13-.13-.16,0,0-.02,0-.02,0-.02-.05-.07-.09-.16-.1-.13-.02-.18.09-.19.22-.02,0-.04,0-.06,0-.04-.08-.09-.13-.17-.1-.04.01-.07.04-.09.06-.09.02-.19.1-.26.18-.16-.05-.28.06-.32.21-.09-.05-.21-.04-.3.05-.02.02-.05.08-.07.15-.01,0-.03-.01-.04-.01-.2-.04-.32.14-.34.32-.08,0-.16.05-.21.14-.06-.04-.13-.04-.22,0-.08.03-.15.12-.18.2-.14-.02-.34.07-.41.23-.05-.02-.11,0-.17.06-.02.02-.05.05-.06.07-.01,0-.02,0-.04,0-.08,0-.16.06-.21.13-.04-.03-.08-.04-.13-.03-.06.02-.11.05-.14.09-.03-.01-.06-.02-.11,0-.09.03-.13.08-.15.14-.08-.05-.19-.06-.28-.01-.23.11-.09.26.07.34-.02.02-.02.05-.01.07-.08.04-.1.15-.05.21-.02.12.03.2.12.24-.07.07-.07.21.01.29-.05.06-.05.14,0,.2-.07.08-.07.22.02.3v.03c-.14.09-.16.3-.04.41-.08.08-.1.22-.01.3,0,.03,0,.06,0,.08-.09.08-.16.25-.05.33,0,.03-.01.07-.01.11-.02,0-.05,0-.06.03-.02.07-.05.27.03.32,0,.03.03.07.05.09-.1.07-.14.26-.02.34-.03.03-.04.08-.03.12,0,.01,0,.02.01.03,0,.02.01.04.02.06-.05.07-.07.17-.03.24-.1.06-.14.2-.08.3-.08.09-.15.22-.09.33-.03.09-.04.21-.04.28,0,.02.01.04.03.04-.05.06-.08.13-.1.21,0,.02,0,.05.03.06.05,0,.11,0,.16-.01.04.1.12.19.21.25.07.05.16.07.24.04.09-.03.13-.12.15-.2.13.06.27.11.41.1.05,0,.08-.02.11-.05.02,0,.04.01.06.02.15.03.27-.03.33-.14,0,0,.01,0,.02,0,.05.1.16.17.28.16.22,0,.25-.23.27-.41.02-.01.04-.03.06-.05.1.05.23.06.34.02.09-.03.11-.1.1-.17.16.09.44.04.47-.14.01,0,.02.01.03.01.02.01.05.03.08.04,0,0,.02,0,.02,0,.1.12.26.18.38.03.03-.04.05-.08.07-.12.12-.02.14-.19.15-.32.05.07.13.1.23.05.11-.05.15-.16.14-.27.08.06.19.07.29.02.11-.05.16-.15.14-.25.04.03.09.06.14.05.07-.01.12-.09.15-.15.03-.09.03-.18,0-.25.06-.05.1-.14.11-.21,0-.05,0-.09,0-.14.07-.03.12-.09.12-.2,0-.04-.01-.09-.03-.13.02,0,.03-.02.05-.04.08-.08.08-.21.03-.31.29.08.57-.29.33-.53Z"/>
          <path class="cls-1" d="M33.84,87.4s0-.11-.05-.16c-.06-.06-.13-.07-.21-.06,0-.02-.02-.03-.03-.05.07-.03.13-.08.15-.15.03-.13-.13-.14-.26-.12.06-.03.12-.07.17-.13,0,0,0-.01,0-.02-.11-.11-.27-.12-.43-.09.07-.06.1-.13,0-.22-.09-.09-.22-.12-.35-.11,0,0,0,0,0-.01-.05-.06-.14-.13-.22-.16,0-.09-.04-.19-.1-.26-.06-.08-.15-.15-.26-.16-.05,0-.09,0-.13.03-.02-.04-.04-.08-.06-.11-.06-.07-.14-.13-.23-.14-.03,0-.06,0-.09.01-.01-.05-.04-.11-.07-.15-.05-.07-.13-.14-.22-.15-.08,0-.14.04-.17.1-.05-.19-.2-.31-.42-.27-.07.01-.18.07-.23.14-.08-.21-.26-.39-.5-.36-.12.02-.26.09-.3.18-.03,0-.05,0-.07.01-.03-.06-.1-.06-.16-.02-.23-.08-.47-.08-.46.2-.13-.17-.32-.34-.54-.22-.08.05-.15.13-.18.21-.09-.09-.22-.13-.36-.11-.14.03-.23.13-.23.24-.1-.1-.25-.12-.39-.03-.14.08-.19.22-.16.35-.19-.1-.48.14-.48.34-.08-.04-.2-.04-.27,0-.21.09-.24.3-.22.51-.11-.13-.27-.11-.39.03-.06.08-.09.18-.09.27-.14-.1-.35-.1-.48.05-.1.12-.09.29-.07.43,0,.06.03.12.05.17,0,0,0,.02,0,.03,0,0,0,0,0,0-.08,0-.15.05-.18.15-.04.13.05.27.16.36-.09,0-.18.03-.24.11-.01.02-.02.03-.02.05-.03.01-.06.04-.09.07-.07.08-.08.16-.04.23-.06,0-.11.03-.13.1-.04.12.05.2.16.24-.07.03-.12.1-.12.19,0,.05.02.08.04.1-.03.03-.05.06-.07.11,0,.02,0,.03-.01.05-.22.08-.41.47-.21.63,0,0,.01,0,.02.01-.04.05-.07.11-.09.17-.01.04-.02.07-.02.1-.22.05-.26.31-.2.51.03.1.08.19.15.27-.07.15,0,.4.07.51,0,0,0,0,0,.01-.06.07-.09.17-.11.24-.03.11.02.25.07.35.02.05.05.11.09.15-.02.02-.03.04-.04.06-.07.14-.03.3.04.42.02.04.05.08.09.11,0,.02-.01.03-.02.05-.03.14.1.3.24.37,0,.08.01.16.02.23.03.12.13.22.24.26,0,0,0,.01,0,.02-.06.14-.05.25.04.37.04.05.13.12.23.17,0,.19.23.32.42.29.03.04.09.07.15.09.08.02.18.01.24-.03.02.06.08.11.15.12.08.02.14-.02.18-.08.05.07.18.1.28.08.04,0,.08-.02.12-.04.06.11.22.17.34.18.1.01.22,0,.29-.09.04-.04.05-.09.04-.15.06.05.15.07.24.06,0,0,.01,0,.02,0,0,.11.08.2.22.23.08.02.17,0,.23-.05.01-.01.03-.03.03-.04.05.06.13.09.22.08.05,0,.11-.02.15-.05.03.09.13.16.26.16.18,0,.32-.12.36-.27.05.05.16.05.25.02.05-.02.09-.05.13-.08.01,0,.02-.01.04-.02.06-.03.1-.08.13-.14.1-.03.19-.11.22-.21.02-.07-.03-.11-.08-.13.04-.04.07-.1.08-.14.03-.09.05-.21,0-.29.08-.04.14-.15.16-.24.04-.14.02-.3-.07-.4.04,0,.09-.02.12-.05.08-.08.08-.21.07-.31,0-.05-.03-.17-.08-.26.24-.08.23-.53.04-.67.09-.04.13-.14.14-.26,0-.03,0-.05,0-.08.02,0,.04-.02.05-.03.12-.1.15-.27.15-.42.08.1.22.01.29-.08.11-.14.13-.34.03-.49.27.02.33-.3.23-.51.24.1.37-.25.24-.44.32.04.52-.33.46-.61,0,0,0,0,0,0,.28.16.55-.04.64-.3.06-.06.08-.15.05-.25,0,0,0,0,0,0,.21.1.47.03.66-.11.11-.08.19-.21.14-.32.03,0,.06-.02.09-.06,0,0,.01-.02.02-.02.11.01.22-.08.23-.17.08,0,.12-.17.06-.24Z"/>
          <path class="cls-9" d="M33.84,87.4s0-.11-.05-.16c-.06-.06-.13-.07-.21-.06,0-.02-.02-.03-.03-.05.07-.03.13-.08.15-.15.03-.13-.13-.14-.26-.12.06-.03.12-.07.17-.13,0,0,0-.01,0-.02-.11-.11-.27-.12-.43-.09.07-.06.1-.13,0-.22-.09-.09-.22-.12-.35-.11,0,0,0,0,0-.01-.05-.06-.14-.13-.22-.16,0-.09-.04-.19-.1-.26-.06-.08-.15-.15-.26-.16-.05,0-.09,0-.13.03-.02-.04-.04-.08-.06-.11-.06-.07-.14-.13-.23-.14-.03,0-.06,0-.09.01-.01-.05-.04-.11-.07-.15-.05-.07-.13-.14-.22-.15-.08,0-.14.04-.17.1-.05-.19-.2-.31-.42-.27-.07.01-.18.07-.23.14-.08-.21-.26-.39-.5-.36-.12.02-.26.09-.3.18-.03,0-.05,0-.07.01-.03-.06-.1-.06-.16-.02-.23-.08-.47-.08-.46.2-.13-.17-.32-.34-.54-.22-.08.05-.15.13-.18.21-.09-.09-.22-.13-.36-.11-.14.03-.23.13-.23.24-.1-.1-.25-.12-.39-.03-.14.08-.19.22-.16.35-.19-.1-.48.14-.48.34-.08-.04-.2-.04-.27,0-.21.09-.24.3-.22.51-.11-.13-.27-.11-.39.03-.06.08-.09.18-.09.27-.14-.1-.35-.1-.48.05-.1.12-.09.29-.07.43,0,.06.03.12.05.17,0,0,0,.02,0,.03,0,0,0,0,0,0-.08,0-.15.05-.18.15-.04.13.05.27.16.36-.09,0-.18.03-.24.11,0,0,0,0,0,0,.01,0,.03.02.04.03.07.04.17.07.25.02.02-.01.04-.04.05-.06.03.05.08.09.15.09.16.02.22-.13.23-.26.07.12.22.13.35.06,0,0,.02,0,.02-.01.1.09.24.12.36.04.09-.06.12-.17.13-.28.02,0,.03,0,.05,0,.11-.02.24-.07.31-.17,0,0,0,0,0,0,.03.02.06.03.1.03.09,0,.16-.04.21-.11.03-.04.05-.09.06-.15.13-.04.26-.15.33-.28.09.17.24.33.44.22.08-.05.13-.15.14-.25.13-.06.24-.17.29-.3.12.12.28.22.41.08.01-.01.02-.03.03-.04.02,0,.04,0,.06,0,.03,0,.07,0,.1-.01,0,.14.02.28.15.32.12.04.22-.08.26-.18,0-.01.01-.03.02-.05.06,0,.12-.03.18-.07.06.14.17.25.35.19.06-.02.1-.06.14-.12.17.12.42.17.61.11,0,.11.03.2.15.18.09-.01.14-.13.16-.21,0,0,0-.01,0-.02.09.06.2.08.3.05.03.05.07.08.11.11.06.04.12.03.17,0,.06.05.13.08.21.1.04,0,.08.01.12,0-.04.16-.01.33.19.34.14,0,.25-.08.31-.2.03,0,.07-.01.1-.02,0,.03.01.06.02.09.02.07.1.15.18.11.08-.04.12-.13.13-.22.05.07.11.12.2.14.17.04.3-.06.37-.2.02.12.11.18.24.2,0,0,0-.02-.02-.03Z"/>
        </g>
        <g>
          <path class="cls-6" d="M47.73,90.44c-.05-.05-.12-.08-.19-.09,0-.02.01-.05.02-.07.02-.07.04-.16.02-.24.07-.02.14-.07.17-.13.08-.15-.04-.29-.18-.34,0-.01.01-.03.02-.04.01-.06,0-.14-.03-.2.17-.11.2-.43.11-.59,0,0,0,0,0,0,.06-.09.02-.23-.03-.32-.02-.04-.05-.07-.09-.1-.02-.06-.07-.08-.13-.08.03-.04.04-.1.03-.16-.03-.15-.16-.2-.3-.2,0-.05,0-.1-.03-.13.08-.04.14-.11.13-.22-.02-.13-.12-.17-.23-.15.07-.07.12-.16.13-.25.01-.12-.07-.15-.16-.14.08-.08.1-.18.04-.28-.04-.07-.11-.1-.19-.11,0-.02,0-.04-.01-.06-.02-.07-.06-.13-.13-.16,0,0-.02,0-.02,0-.02-.05-.07-.09-.16-.1-.13-.02-.18.09-.19.22-.02,0-.04,0-.06,0-.04-.08-.09-.13-.17-.1-.04.01-.07.04-.09.06-.09.02-.19.1-.26.18-.16-.05-.28.06-.32.21-.09-.04-.21-.04-.3.05-.02.02-.05.08-.07.15-.01,0-.03-.01-.04-.01-.2-.04-.32.14-.34.32-.08,0-.16.05-.21.14-.06-.04-.13-.04-.22,0-.08.03-.15.12-.18.2-.14-.02-.34.07-.41.23-.05-.02-.11,0-.17.06-.02.02-.04.05-.06.08-.01,0-.02,0-.04,0-.08,0-.16.06-.21.13-.04-.03-.08-.04-.13-.03-.06.02-.11.05-.14.09-.03-.01-.06-.02-.11,0-.09.03-.13.08-.15.14-.08-.05-.19-.06-.28-.01-.23.11-.09.26.07.34-.02.02-.02.05-.01.07-.08.04-.1.15-.05.21-.02.12.03.2.12.24-.07.07-.07.21.01.29-.05.06-.05.14,0,.19-.07.08-.07.22.02.3v.03c-.13.09-.16.3-.04.41-.08.08-.1.22-.01.3,0,.03,0,.06,0,.08-.09.08-.16.25-.05.33,0,.03-.01.07-.01.11-.02,0-.05,0-.06.03-.02.07-.05.27.03.32,0,.03.03.06.05.09-.1.07-.14.26-.02.34-.03.03-.04.08-.03.12,0,.01,0,.02.01.03,0,.02.01.04.02.06-.05.07-.07.17-.03.24-.1.06-.14.2-.08.3-.08.09-.15.22-.09.33-.03.09-.04.21-.04.28,0,.02.01.04.03.04-.05.06-.08.13-.1.21,0,.02,0,.05.03.06.05.01.11,0,.16-.01.04.1.12.2.21.25.07.05.16.07.24.04.09-.03.13-.12.15-.2.13.06.26.11.41.1.05,0,.08-.02.12-.05.02,0,.04.01.06.02.15.03.27-.03.33-.14,0,0,.01,0,.01,0,.05.1.16.17.28.16.22,0,.25-.23.26-.41.02-.01.04-.03.06-.05.1.05.23.06.34.02.09-.04.11-.1.1-.17.16.09.44.04.47-.14.01,0,.02.01.03.01.02.01.05.03.08.04,0,0,.01,0,.02,0,.1.12.26.18.38.03.03-.04.05-.08.07-.12.12-.02.14-.19.15-.32.05.07.13.1.23.05.11-.05.15-.16.14-.27.08.06.19.07.29.02.11-.05.16-.15.14-.25.04.03.09.06.14.05.07-.01.12-.09.15-.15.03-.08.03-.18,0-.25.06-.05.1-.14.11-.21,0-.05,0-.09,0-.14.07-.03.12-.09.12-.2,0-.04-.01-.09-.03-.13.02,0,.03-.02.05-.04.08-.08.08-.21.03-.31.29.08.57-.29.33-.53Z"/>
          <path class="cls-1" d="M46.64,86.44s0-.11-.05-.16c-.06-.06-.13-.07-.21-.06,0-.02-.02-.03-.03-.05.07-.03.13-.08.15-.15.03-.13-.13-.14-.26-.12.06-.03.12-.07.17-.13,0,0,0-.01,0-.02-.11-.11-.27-.12-.43-.09.07-.06.1-.13,0-.22-.09-.09-.22-.12-.35-.11,0,0,0,0,0-.01-.05-.06-.14-.13-.22-.16,0-.09-.04-.19-.1-.26-.06-.08-.15-.16-.26-.17-.05,0-.09,0-.13.03-.02-.04-.04-.08-.06-.11-.06-.07-.14-.13-.23-.14-.03,0-.06,0-.09,0-.01-.05-.04-.11-.07-.15-.05-.07-.13-.14-.22-.15-.08,0-.14.04-.17.1-.05-.19-.2-.31-.41-.27-.07.01-.18.07-.23.14-.08-.21-.26-.39-.5-.36-.12.02-.26.09-.3.18-.03,0-.05,0-.07.01-.03-.06-.1-.06-.16-.02-.23-.08-.47-.08-.46.2-.13-.17-.32-.34-.54-.22-.08.05-.15.13-.18.21-.09-.09-.22-.13-.36-.11-.14.03-.23.13-.23.24-.1-.1-.25-.12-.39-.03-.14.08-.19.22-.16.35-.19-.1-.48.14-.48.34-.08-.04-.2-.04-.27,0-.21.09-.24.3-.22.5-.11-.13-.27-.11-.39.03-.06.08-.09.18-.09.27-.14-.1-.35-.1-.48.05-.1.12-.09.29-.07.43,0,.06.03.12.05.17,0,0,0,.02,0,.03,0,0,0,0,0,0-.08,0-.15.05-.18.15-.04.13.05.27.16.36-.09,0-.18.03-.24.11-.01.02-.02.03-.02.05-.03.01-.06.04-.09.07-.07.08-.08.16-.04.23-.06,0-.11.03-.13.1-.04.12.05.2.16.24-.07.03-.12.1-.12.2,0,.05.02.08.04.1-.03.03-.05.06-.07.11,0,.02-.01.03-.01.05-.22.08-.41.47-.21.63,0,0,.01,0,.02.01-.04.05-.07.11-.09.17-.01.04-.02.07-.02.1-.22.05-.26.31-.2.51.03.1.08.19.15.27-.07.15,0,.4.06.51,0,0,0,0,0,.01-.06.07-.09.17-.11.24-.03.11.02.25.07.35.02.05.05.11.09.15-.01.02-.03.04-.04.06-.07.14-.04.3.04.42.02.04.05.08.09.11,0,.02-.02.03-.02.05-.02.14.1.3.25.37,0,.08,0,.16.02.23.03.12.13.22.24.26,0,0,0,.01,0,.02-.06.14-.05.25.04.37.04.05.13.12.23.17,0,.19.23.32.42.29.03.04.09.07.15.09.08.02.18.01.24-.03.02.06.08.11.15.12.08.02.14-.02.18-.08.05.07.18.1.28.08.04,0,.08-.02.12-.04.06.11.22.17.34.18.1.01.22,0,.29-.09.04-.04.05-.09.04-.15.06.05.15.07.24.06,0,0,.01,0,.02,0,0,.11.08.2.22.23.08.02.17,0,.23-.05.01-.01.03-.03.03-.04.05.06.13.09.22.08.05,0,.11-.02.15-.05.03.1.13.16.26.16.18,0,.31-.12.36-.27.05.05.16.05.25.02.05-.02.09-.05.13-.08.01,0,.02,0,.04-.02.06-.03.1-.08.13-.14.1-.03.19-.11.22-.21.02-.07-.03-.11-.09-.13.04-.04.07-.1.08-.14.03-.09.05-.21,0-.29.08-.04.14-.15.16-.24.04-.14.02-.3-.07-.4.05,0,.09-.02.12-.05.08-.08.08-.21.07-.31,0-.05-.03-.17-.08-.26.24-.08.23-.53.04-.67.09-.04.14-.14.14-.26,0-.03,0-.05,0-.08.02,0,.04-.02.05-.03.12-.1.15-.27.15-.42.08.1.22.01.29-.08.11-.14.13-.34.03-.49.27.02.33-.3.23-.51.24.1.37-.25.24-.44.32.04.52-.33.46-.62,0,0,0,0,0,0,.28.16.55-.04.64-.3.05-.06.08-.15.05-.25,0,0,0,0,0,0,.21.1.47.03.66-.11.11-.08.19-.21.14-.32.03,0,.06-.02.09-.06,0,0,.01-.01.02-.02.11.01.22-.08.23-.17.08,0,.12-.17.06-.24Z"/>
          <path class="cls-9" d="M46.64,86.44s0-.11-.05-.16c-.06-.06-.13-.07-.21-.06,0-.02-.02-.03-.03-.05.07-.03.13-.08.15-.15.03-.13-.13-.14-.26-.12.06-.03.12-.07.17-.13,0,0,0-.01,0-.02-.11-.11-.27-.12-.43-.09.07-.06.1-.13,0-.22-.09-.09-.22-.12-.35-.11,0,0,0,0,0-.01-.05-.06-.14-.13-.22-.16,0-.09-.04-.19-.1-.26-.06-.08-.15-.16-.26-.17-.05,0-.09,0-.13.03-.02-.04-.04-.08-.06-.11-.06-.07-.14-.13-.23-.14-.03,0-.06,0-.09,0-.01-.05-.04-.11-.07-.15-.05-.07-.13-.14-.22-.15-.08,0-.14.04-.17.1-.05-.19-.2-.31-.41-.27-.07.01-.18.07-.23.14-.08-.21-.26-.39-.5-.36-.12.02-.26.09-.3.18-.03,0-.05,0-.07.01-.03-.06-.1-.06-.16-.02-.23-.08-.47-.08-.46.2-.13-.17-.32-.34-.54-.22-.08.05-.15.13-.18.21-.09-.09-.22-.13-.36-.11-.14.03-.23.13-.23.24-.1-.1-.25-.12-.39-.03-.14.08-.19.22-.16.35-.19-.1-.48.14-.48.34-.08-.04-.2-.04-.27,0-.21.09-.24.3-.22.5-.11-.13-.27-.11-.39.03-.06.08-.09.18-.09.27-.14-.1-.35-.1-.48.05-.1.12-.09.29-.07.43,0,.06.03.12.05.17,0,0,0,.02,0,.03,0,0,0,0,0,0-.08,0-.15.05-.18.15-.04.13.05.27.16.36-.09,0-.18.03-.24.11,0,0,0,0,0,0,.01,0,.03.02.04.03.07.04.17.07.25.02.02-.01.04-.04.05-.06.03.05.08.09.15.09.16.02.22-.13.23-.26.07.12.22.13.35.06,0,0,.02,0,.02-.01.1.09.23.12.36.04.09-.06.12-.17.13-.28.02,0,.03,0,.05,0,.11-.02.23-.07.31-.17,0,0,0,0,0,0,.03.02.06.03.1.03.09,0,.16-.04.21-.11.03-.04.05-.09.06-.15.13-.04.25-.15.33-.28.08.17.24.33.44.22.08-.05.13-.15.14-.25.13-.06.24-.17.29-.3.12.12.28.22.41.08.01-.01.02-.03.03-.04.02,0,.04,0,.06,0,.03,0,.07,0,.1-.01,0,.14.02.28.15.32.12.04.22-.08.26-.18,0-.01.01-.03.02-.05.06,0,.12-.03.18-.07.06.14.17.25.35.19.06-.02.1-.06.14-.12.17.12.42.17.6.11,0,.11.03.2.15.18.09-.01.14-.13.16-.21,0,0,0-.01,0-.02.09.06.2.08.3.05.03.05.07.09.11.11.06.04.12.03.17,0,.06.05.13.08.21.1.04,0,.08.01.12,0-.04.16-.01.33.19.34.14,0,.25-.08.31-.2.03,0,.07-.01.1-.02,0,.03.01.06.02.09.02.07.1.15.18.11.08-.04.12-.13.13-.22.05.07.11.12.2.14.17.04.3-.06.37-.2.02.12.11.18.24.2,0,0,0-.02-.02-.03Z"/>
        </g>
        <g>
          <g>
            <path class="cls-3" d="M37.09,95.87c-.31-.12-1.32-.12-1.62,0,0,0-.2.07.13.18.33.11,1.03.11,1.36,0,.33-.11.13-.18.13-.18Z"/>
            <path class="cls-3" d="M35.6,95.99c-.15-.08-.19-.15-.19-.19h0s0,8.06,0,8.06c0,0,0,0,0,0,0,.05.05.11.19.18.17.09.42.13.68.13v-8.05c-.26,0-.52-.04-.68-.13Z"/>
            <path class="cls-2" d="M37.15,95.79s-.03.12-.19.2c-.17.09-.42.13-.68.13v8.05c.26,0,.52-.04.68-.13.13-.07.18-.13.19-.18,0,0,0,0,0,0v-8.08s0,0,0,0Z"/>
          </g>
          <g>
            <g>
              <path class="cls-3" d="M35.35,94.69c-.13-.08-.57-.08-.71,0,0,0-.09.05.06.13.14.08.45.08.6,0,.14-.08.06-.13.06-.13Z"/>
              <path class="cls-3" d="M34.69,94.82c-.06-.03-.08-.06-.08-.09h0s0,.02,0,.02l.91,1.61s0,0,0,0c0,.02.02.05.08.08.07.04.19.06.3.06l-.92-1.63c-.11,0-.23-.02-.3-.06Z"/>
              <path class="cls-2" d="M35.37,94.73s-.01.05-.08.09c-.07.04-.19.06-.3.06l.92,1.63c.11,0,.23-.02.3-.06.06-.03.08-.06.08-.08,0,0,0,0,0,0l-.92-1.64h0Z"/>
            </g>
            <g>
              <path class="cls-3" d="M34.78,92.32c-.13-.08-.58-.08-.71,0,0,0-.09.05.06.13.15.08.45.08.6,0,.15-.08.06-.13.06-.13Z"/>
              <path class="cls-3" d="M34.13,92.45c-.06-.03-.08-.06-.08-.09h0s.56,2.38.56,2.38c0,0,0,0,0,0,0,.02.02.05.08.08.07.04.18.06.3.06l-.56-2.38c-.11,0-.23-.02-.3-.06Z"/>
              <path class="cls-2" d="M34.81,92.36s-.01.05-.08.09c-.07.04-.19.06-.3.06l.56,2.38c.11,0,.23-.02.3-.06.06-.03.08-.06.08-.08,0,0,0,0,0,0l-.56-2.39h0Z"/>
            </g>
            <g>
              <path class="cls-3" d="M31.58,92.88c-.06-.03-.08-.06-.08-.08t0,0l.08.09s3.05,1.9,3.11,1.93c.07.04.19.06.3.06l-3.11-1.93c-.11,0-.23-.02-.3-.06Z"/>
              <path class="cls-2" d="M31.88,92.94l3.11,1.93c.11,0,.23-.02.3-.06.06-.03.08-.06.08-.08,0,0,0,0,0,0l-3.13-1.97s-.25.18-.36.18Z"/>
              <path class="cls-3" d="M32.23,92.76c-.13-.08-.58-.08-.71,0,0,0-.09.05.06.13.15.08.45.08.6,0,.15-.08.06-.13.06-.13Z"/>
            </g>
          </g>
          <g>
            <g>
              <path class="cls-2" d="M38.59,95.22v.02s0-.01,0-.02c0,0,0,0,0,0Z"/>
              <path class="cls-2" d="M40.32,91.97l-2.16,2.99h0l-1.51,1.35c.11,0,.26.04.34,0,.06-.03,1.36-1.25,1.36-1.25-.02.02,2.25-3.12,2.25-3.12l.08-.16s0-.03-.35.19Z"/>
            </g>
            <path class="cls-3" d="M40.68,91.78c-.13-.08-.53-.08-.68-.01h0l-2.09,2.96s-1.63,1.44-1.63,1.44c0,0,0,0,0,0,0,.02.02.05.08.08.07.04.19.06.3.06l1.51-1.35h0l2.16-2.99c.11,0,.35-.19.35-.19Z"/>
          </g>
          <g>
            <g>
              <path class="cls-3" d="M36.63,95.33c-.13-.08-.57-.08-.71,0,0,0-.09.05.06.13.14.08.45.08.59,0,.14-.08.06-.13.06-.13Z"/>
              <path class="cls-3" d="M35.98,95.46c-.06-.03-.08-.06-.08-.08h0s0,1.24,0,1.24c0,0,0,0,0,0,0,.02.02.05.08.08.07.04.18.06.3.06v-1.24c-.11,0-.22-.02-.3-.06Z"/>
              <path class="cls-2" d="M36.66,95.37s-.01.05-.08.09c-.07.04-.18.06-.3.06v1.24c.11,0,.23-.02.3-.06.06-.03.08-.06.08-.08,0,0,0,0,0,0v-1.25h0Z"/>
            </g>
            <g>
              <path class="cls-3" d="M35.76,91.56c-.13-.08-.58-.08-.71,0,0,0-.09.05.06.13.15.08.45.08.6,0,.15-.08.06-.13.06-.13Z"/>
              <path class="cls-3" d="M35.11,91.69c-.06-.03-.08-.06-.08-.08,0,0,0,0,0,0l.87,3.78s0,0,0,0c0,.02.02.05.08.08.07.04.18.06.3.06l-.87-3.77c-.11,0-.23-.02-.3-.06Z"/>
              <path class="cls-2" d="M35.79,91.6s-.01.05-.08.09c-.07.04-.19.06-.3.06l.87,3.77c.11,0,.23-.02.3-.06.06-.03.08-.06.08-.08,0,0,0,0,0,0h0s-.87-3.79-.87-3.79c0,0,0,0,0,0Z"/>
            </g>
            <g>
              <path class="cls-2" d="M38.23,91.9s-1.59,3.52-1.65,3.56c-.07.04-.19.06-.3.06l1.57-3.49c.11,0,.38-.12.38-.12Z"/>
              <path class="cls-3" d="M37.86,92.03l-1.57,3.49c-.11,0-.23-.02-.3-.06-.06-.03-.08-.06-.08-.08,0,0,0,0,0,0l1.6-3.54s.24.19.35.19Z"/>
              <path class="cls-3" d="M37.5,91.84c.13-.08.58-.08.71,0,0,0,.09.05-.06.13-.15.08-.45.08-.6,0-.15-.08-.06-.13-.06-.13Z"/>
            </g>
          </g>
        </g>
        <g>
          <path class="cls-6" d="M44.14,87.65c-.08-.08-.19-.12-.3-.14,0-.04.02-.08.03-.12.03-.11.07-.26.03-.38.11-.03.22-.11.27-.21.12-.24-.07-.47-.3-.54.01-.02.02-.04.03-.07.02-.1,0-.22-.05-.32.28-.18.33-.7.17-.96,0,0,0,0,0,0,.1-.15.03-.38-.05-.52-.03-.06-.08-.12-.14-.16-.04-.09-.11-.13-.2-.13.05-.07.06-.15.04-.26-.05-.24-.27-.32-.49-.33,0-.08-.01-.16-.06-.2.13-.06.23-.18.2-.35-.03-.21-.19-.27-.36-.25.11-.11.2-.26.21-.41.02-.19-.11-.25-.26-.22.12-.12.17-.29.06-.46-.07-.11-.18-.17-.3-.17,0-.03-.01-.07-.02-.1-.03-.11-.1-.22-.22-.26-.01,0-.03,0-.04,0-.03-.08-.11-.14-.25-.17-.2-.04-.29.14-.3.35-.03,0-.07,0-.1,0-.06-.13-.15-.21-.28-.16-.06.02-.11.06-.14.1-.14.04-.3.16-.42.29-.26-.08-.45.1-.51.34-.15-.07-.33-.06-.49.07-.04.03-.08.13-.12.25-.02-.01-.04-.02-.06-.02-.32-.06-.51.22-.54.51-.12,0-.26.08-.34.22-.09-.06-.21-.07-.36,0-.12.06-.24.19-.29.33-.23-.03-.55.11-.66.38-.08-.03-.17,0-.27.1-.04.04-.07.08-.1.12-.02,0-.04,0-.06,0-.13,0-.26.09-.34.21-.06-.04-.13-.07-.21-.04-.1.03-.18.08-.23.15-.05-.02-.1-.03-.18,0-.14.04-.21.12-.24.22-.13-.08-.3-.1-.46-.02-.37.18-.14.41.12.54-.03.04-.04.08-.02.11-.13.06-.17.23-.08.34-.03.19.05.32.19.39-.11.12-.11.34.02.46-.08.1-.09.23,0,.31-.11.12-.11.35.04.48v.04c-.22.15-.25.48-.06.66-.13.13-.16.36-.02.49,0,.05,0,.09.01.13-.15.13-.25.4-.08.53-.01.05-.02.11-.02.17-.04-.01-.08.01-.09.05-.03.12-.08.43.05.52.01.06.04.11.08.15-.16.12-.23.41-.03.55-.05.06-.07.13-.05.2,0,.02.01.04.02.05,0,.04.02.07.03.1-.08.12-.11.27-.04.38-.17.09-.22.33-.12.48-.14.14-.24.36-.15.54-.05.15-.07.34-.06.45,0,.03.02.06.05.07-.08.09-.13.22-.16.34,0,.04.01.08.05.09.08.02.17,0,.25-.02.07.17.19.31.34.41.11.07.26.11.39.06.14-.05.21-.19.24-.32.2.1.43.18.65.16.07,0,.13-.04.19-.07.03.01.06.02.09.03.24.05.43-.05.53-.23,0,0,.02,0,.02,0,.08.16.25.27.45.27.35-.02.4-.37.43-.66.03-.02.07-.04.09-.07.17.08.37.1.55.03.14-.06.19-.17.17-.28.26.14.7.06.75-.23.02.01.04.02.05.02.04.02.08.04.13.06.01,0,.02,0,.03.01.16.2.42.29.61.05.05-.06.08-.13.11-.2.2-.03.23-.3.23-.51.08.12.21.16.38.08.17-.09.25-.26.22-.43.12.1.31.11.46.04.18-.08.27-.24.23-.4.06.06.14.09.23.08.12-.02.19-.14.23-.24.05-.14.05-.29,0-.4.1-.08.17-.22.18-.34,0-.07,0-.15-.01-.22.11-.04.19-.14.19-.32,0-.06-.02-.14-.05-.21.03-.01.05-.03.08-.06.13-.13.13-.34.05-.5.47.14.92-.47.52-.85Z"/>
          <path class="cls-1" d="M42.37,81.18c.02-.08,0-.17-.08-.26-.09-.09-.21-.12-.33-.1-.01-.03-.03-.05-.05-.08.12-.05.21-.12.24-.24.05-.22-.22-.22-.43-.2.1-.05.2-.12.28-.21,0,0,0-.02,0-.03-.18-.19-.44-.19-.69-.14.11-.09.15-.21.01-.35-.14-.14-.36-.2-.56-.18,0,0-.01-.01-.02-.02-.08-.1-.22-.21-.36-.26,0-.14-.07-.3-.16-.42-.1-.13-.25-.25-.41-.27-.08,0-.15.01-.2.04-.03-.07-.06-.13-.1-.18-.09-.12-.22-.21-.37-.23-.05,0-.1,0-.14.02-.02-.08-.07-.17-.12-.24-.09-.11-.21-.23-.36-.24-.13-.01-.22.06-.28.16-.08-.31-.33-.5-.67-.43-.11.02-.29.11-.37.23-.13-.33-.43-.63-.8-.58-.19.03-.41.14-.49.3-.04-.01-.08,0-.12.02-.05-.1-.16-.1-.27-.04-.37-.13-.76-.12-.75.32-.22-.27-.51-.56-.87-.35-.13.07-.24.21-.29.35-.14-.15-.35-.22-.58-.17-.23.04-.37.2-.37.39-.16-.16-.4-.19-.64-.05-.22.13-.3.35-.26.56-.3-.16-.77.22-.78.56-.13-.06-.32-.06-.44,0-.33.14-.39.49-.36.82-.18-.21-.44-.18-.62.06-.1.13-.15.29-.14.44-.23-.16-.56-.16-.77.08-.17.19-.15.47-.11.7.02.09.04.19.09.28,0,.01,0,.03,0,.04,0,0,0,0,0,0-.13.01-.24.08-.29.25-.07.21.08.44.26.59-.15,0-.29.05-.39.18-.02.03-.03.06-.04.09-.05.02-.1.06-.15.11-.11.12-.12.26-.06.36-.09,0-.17.05-.21.17-.07.2.09.33.25.38-.12.05-.2.17-.19.32,0,.07.03.13.07.16-.04.05-.08.1-.11.17,0,.03-.02.05-.02.08-.36.13-.67.75-.34,1.02,0,0,.02.01.03.02-.06.08-.11.18-.15.27-.02.06-.03.11-.04.17-.35.08-.42.49-.32.83.05.15.13.31.24.43-.11.25-.01.64.11.83,0,0,0,.01.01.02-.09.12-.15.28-.17.39-.04.19.03.4.11.56.04.08.09.17.15.24-.02.03-.05.07-.06.1-.11.22-.06.48.06.68.04.06.09.12.14.17-.01.03-.02.05-.03.08-.04.23.17.49.4.6,0,.13.02.26.04.37.04.19.2.35.38.42,0,0,0,.02-.01.03-.09.22-.08.4.07.59.06.08.21.2.36.28.02.31.37.51.68.46.06.06.14.11.24.14.13.03.3.02.39-.06.04.1.12.17.25.2.14.03.23-.03.28-.12.08.12.29.15.45.14.06,0,.14-.03.2-.06.09.17.35.28.55.3.16.02.36,0,.47-.14.06-.07.08-.15.07-.23.1.08.24.11.38.1,0,0,.02,0,.03,0,0,.18.13.32.35.37.13.03.27,0,.37-.08.02-.02.04-.04.06-.07.08.09.21.14.36.13.09,0,.18-.03.25-.08.05.15.21.25.42.25.29,0,.51-.19.58-.44.08.09.26.08.4.03.08-.03.15-.08.21-.13.02,0,.04-.02.06-.03.09-.05.17-.13.21-.22.16-.04.31-.18.35-.33.03-.12-.04-.17-.14-.22.06-.06.11-.16.13-.23.06-.14.08-.34.01-.47.13-.06.23-.24.27-.39.06-.22.03-.49-.11-.65.07,0,.14-.03.2-.09.12-.13.13-.34.11-.5,0-.09-.05-.28-.13-.42.39-.13.37-.86.06-1.07.14-.06.22-.23.22-.42,0-.04,0-.08,0-.13.03,0,.06-.03.09-.05.19-.16.24-.44.24-.68.13.16.35.02.47-.13.18-.23.22-.55.05-.79.43.04.53-.48.37-.82.39.15.6-.4.39-.72.52.07.84-.53.74-.99,0,0,0,0,0-.01.45.26.89-.06,1.03-.49.09-.1.13-.24.08-.41,0,0,0,0,0,0,.34.16.77.04,1.06-.17.18-.13.31-.34.23-.51.05,0,.1-.04.15-.09.01-.01.02-.02.03-.04.17.02.35-.13.38-.27.13-.01.19-.28.1-.39Z"/>
          <path class="cls-9" d="M42.37,81.18c.02-.08,0-.17-.08-.26-.09-.09-.21-.12-.33-.1-.01-.03-.03-.05-.05-.08.12-.05.21-.12.24-.24.05-.22-.22-.22-.43-.2.1-.05.2-.12.28-.21,0,0,0-.02,0-.03-.18-.19-.44-.19-.69-.14.11-.09.15-.21.01-.35-.14-.14-.36-.2-.56-.18,0,0-.01-.01-.02-.02-.08-.1-.22-.21-.36-.26,0-.14-.07-.3-.16-.42-.1-.13-.25-.25-.41-.27-.08,0-.15.01-.2.04-.03-.07-.06-.13-.1-.18-.09-.12-.22-.21-.37-.23-.05,0-.1,0-.14.02-.02-.08-.07-.17-.12-.24-.09-.11-.21-.23-.36-.24-.13-.01-.22.06-.28.16-.08-.31-.33-.5-.67-.43-.11.02-.29.11-.37.23-.13-.33-.43-.63-.8-.58-.19.03-.41.14-.49.3-.04-.01-.08,0-.12.02-.05-.1-.16-.1-.27-.04-.37-.13-.76-.12-.75.32-.22-.27-.51-.56-.87-.35-.13.07-.24.21-.29.35-.14-.15-.35-.22-.58-.17-.23.04-.37.2-.37.39-.16-.16-.4-.19-.64-.05-.22.13-.3.35-.26.56-.3-.16-.77.22-.78.56-.13-.06-.32-.06-.44,0-.33.14-.39.49-.36.82-.18-.21-.44-.18-.62.06-.1.13-.15.29-.14.44-.23-.16-.56-.16-.77.08-.17.19-.15.47-.11.7.02.09.04.19.09.28,0,.01,0,.03,0,.04,0,0,0,0,0,0-.13.01-.24.08-.29.25-.07.21.08.44.26.59-.15,0-.29.05-.39.18,0,0,0,0,0,.01.02.02.04.03.07.04.12.06.28.12.4.04.04-.02.06-.06.08-.1.05.08.13.14.24.15.26.03.36-.21.36-.43.12.19.36.22.57.1.01,0,.02-.01.04-.02.16.14.38.19.59.06.15-.09.19-.28.21-.45.03,0,.05,0,.07-.01.18-.03.38-.12.49-.27,0,0,0,0,0,0,.05.03.1.05.16.05.14.01.26-.06.34-.18.04-.06.08-.15.09-.24.21-.07.41-.24.53-.45.14.28.4.53.72.36.14-.07.22-.24.23-.41.21-.1.39-.27.47-.48.2.19.45.36.66.13.02-.02.03-.04.05-.07.04,0,.07,0,.1,0,.05,0,.11,0,.16-.02-.01.23.04.45.24.52.19.06.35-.14.42-.29.01-.02.02-.05.03-.07.1-.01.2-.05.29-.11.09.23.28.4.57.31.09-.03.17-.1.22-.19.28.2.68.27.98.18,0,.18.05.32.24.29.15-.02.22-.22.26-.34,0-.01,0-.02.01-.04.14.1.33.13.49.08.05.07.11.14.18.18.1.06.2.05.28,0,.1.07.22.13.34.16.07.01.13.02.2.01-.06.26-.02.53.31.54.22,0,.4-.13.5-.32.05,0,.11-.02.16-.04,0,.05.02.09.03.14.04.12.16.25.29.18.13-.06.19-.21.22-.35.07.11.18.19.32.23.27.07.48-.1.61-.32.03.2.18.3.39.33,0-.02-.02-.03-.03-.04Z"/>
        </g>
      </g>
    </g>
  </g>
</svg>