<?xml version="1.0" encoding="UTF-8"?>
<svg id="Layer_1" xmlns="http://www.w3.org/2000/svg" xmlns:xlink="http://www.w3.org/1999/xlink" version="1.1" viewBox="0 0 419.3 92.28">
  <!-- Generator: Adobe Illustrator 30.2.1, SVG Export Plug-In . SVG Version: 2.1.1 Build 1)  -->
  <defs>
    <style>
      .st0, .st1, .st2, .st3 {
        fill: none;
      }

      .st1, .st2, .st3 {
        stroke: #f89621;
        stroke-linecap: round;
        stroke-linejoin: round;
        stroke-width: 4.74px;
      }

      .st4 {
        fill: url(#linear-gradient2);
      }

      .st5 {
        fill: url(#linear-gradient1);
      }

      .st6 {
        fill: #fdb515;
      }

      .st7 {
        fill: #bd202f;
      }

      .st2 {
        stroke-dasharray: 0 15.19;
      }

      .st8 {
        fill: url(#linear-gradient);
      }

      .st9 {
        fill: #f7dc7c;
      }

      .st10 {
        isolation: isolate;
      }

      .st11 {
        clip-path: url(#clippath-1);
      }

      .st12 {
        clip-path: url(#clippath-2);
      }

      .st13 {
        fill: #fff;
      }

      .st3 {
        stroke-dasharray: 0 13.9;
      }

      .st14 {
        clip-path: url(#clippath);
      }
    </style>
    <clipPath id="clippath">
      <polygon class="st0" points="70.69 63.21 79.06 68.04 87.43 63.21 79.06 58.37 70.69 63.21"/>
    </clipPath>
    <linearGradient id="linear-gradient" x1="-817.93" y1="477.35" x2="-816.93" y2="477.35" gradientTransform="translate(73562.67 125929.86) rotate(90) scale(153.94)" gradientUnits="userSpaceOnUse">
      <stop offset="0" stop-color="#fbee43"/>
      <stop offset=".04" stop-color="#fbe336"/>
      <stop offset=".11" stop-color="#fbd224"/>
      <stop offset=".19" stop-color="#fbc919"/>
      <stop offset=".28" stop-color="#fcc616"/>
      <stop offset=".55" stop-color="#f4a032"/>
      <stop offset=".67" stop-color="#f19040"/>
      <stop offset=".89" stop-color="#ed673c"/>
      <stop offset="1" stop-color="#ea3e38"/>
    </linearGradient>
    <clipPath id="clippath-1">
      <polygon class="st0" points="70.69 72.87 79.06 77.7 79.06 68.04 70.69 63.21 70.69 72.87"/>
    </clipPath>
    <linearGradient id="linear-gradient1" x1="-811.9" y1="463.34" x2="-810.9" y2="463.34" gradientTransform="translate(22732.37 39729.99) rotate(90) scale(48.9)" gradientUnits="userSpaceOnUse">
      <stop offset="0" stop-color="#fbee43"/>
      <stop offset=".04" stop-color="#fbe336"/>
      <stop offset=".11" stop-color="#fbd224"/>
      <stop offset=".19" stop-color="#fbc919"/>
      <stop offset=".28" stop-color="#fcc616"/>
      <stop offset=".55" stop-color="#f4a032"/>
      <stop offset=".67" stop-color="#f19040"/>
      <stop offset=".89" stop-color="#ed673c"/>
      <stop offset="1" stop-color="#ea3e38"/>
    </linearGradient>
    <clipPath id="clippath-2">
      <polygon class="st0" points="79.06 68.04 79.06 77.7 87.43 72.87 87.43 63.21 79.06 68.04"/>
    </clipPath>
    <linearGradient id="linear-gradient2" x1="-812" y1="475.42" x2="-811" y2="475.42" gradientTransform="translate(35901.03 61193.71) rotate(90) scale(75.34)" gradientUnits="userSpaceOnUse">
      <stop offset="0" stop-color="#fbee43"/>
      <stop offset=".04" stop-color="#fbe336"/>
      <stop offset=".11" stop-color="#fbd224"/>
      <stop offset=".19" stop-color="#fbc919"/>
      <stop offset=".28" stop-color="#fcc616"/>
      <stop offset=".55" stop-color="#f4a032"/>
      <stop offset=".67" stop-color="#f19040"/>
      <stop offset=".89" stop-color="#ed673c"/>
      <stop offset="1" stop-color="#ea3e38"/>
    </linearGradient>
  </defs>
  <g class="st10">
    <g class="st10">
      <path class="st9" d="M25.12,47.57v-7.94h10.49c3.8,0,7.2.43,10.19,1.3,3,.87,5.55,2.12,7.65,3.75,2.1,1.63,3.7,3.61,4.8,5.95,1.1,2.33,1.65,4.93,1.65,7.79,0,3.4-.67,6.43-2,9.09s-3.2,4.92-5.6,6.75c-2.4,1.83-5.21,3.22-8.45,4.17-3.23.95-6.73,1.42-10.49,1.42-3.03,0-6.05-.42-9.04-1.25-3-.83-5.71-2.11-8.15-3.82-2.43-1.72-4.38-3.9-5.85-6.55-1.47-2.65-2.2-5.8-2.2-9.47h15.64c0,1.7.44,3.22,1.32,4.57.88,1.35,2.1,2.42,3.65,3.2,1.55.78,3.24,1.17,5.07,1.17,2.2,0,4.07-.41,5.62-1.22,1.55-.82,2.73-1.94,3.55-3.37.82-1.43,1.22-3.08,1.22-4.95,0-2.53-.44-4.57-1.32-6.12-.88-1.55-2.16-2.68-3.82-3.4-1.67-.72-3.67-1.07-6-1.07h-7.95ZM25.12,35.83h7.95c2.27,0,4.14-.4,5.62-1.2,1.48-.8,2.58-1.93,3.3-3.4.72-1.47,1.07-3.18,1.07-5.15,0-1.7-.33-3.21-1-4.55-.67-1.33-1.67-2.39-3.02-3.17-1.35-.78-3.09-1.17-5.22-1.17-1.53,0-2.99.31-4.37.92-1.38.62-2.51,1.5-3.37,2.65-.87,1.15-1.3,2.52-1.3,4.12h-15.64c0-4.06,1.11-7.58,3.32-10.54,2.22-2.96,5.16-5.25,8.85-6.87,3.68-1.62,7.7-2.42,12.07-2.42,5.03,0,9.45.79,13.27,2.37,3.81,1.58,6.78,3.92,8.9,7,2.11,3.08,3.17,6.89,3.17,11.42,0,2.37-.56,4.64-1.67,6.82-1.12,2.18-2.7,4.12-4.75,5.8-2.05,1.68-4.48,3.02-7.3,4-2.82.98-5.94,1.47-9.37,1.47h-10.49v-8.09Z"/>
    </g>
  </g>
  <g class="st10">
    <g class="st10">
      <path class="st6" d="M19.79,42.81v-7.95h10.49c3.8,0,7.2.43,10.19,1.3,3,.87,5.55,2.12,7.65,3.75,2.1,1.63,3.7,3.62,4.8,5.95,1.1,2.33,1.65,4.93,1.65,7.79,0,3.4-.67,6.43-2,9.09s-3.2,4.92-5.6,6.75c-2.4,1.83-5.21,3.22-8.45,4.17-3.23.95-6.73,1.42-10.49,1.42-3.03,0-6.05-.42-9.04-1.25-3-.83-5.71-2.11-8.15-3.82-2.43-1.72-4.38-3.9-5.85-6.55-1.47-2.65-2.2-5.8-2.2-9.47h15.64c0,1.7.44,3.22,1.32,4.57.88,1.35,2.1,2.42,3.65,3.2,1.55.78,3.24,1.17,5.07,1.17,2.2,0,4.07-.41,5.62-1.22,1.55-.82,2.73-1.94,3.55-3.37.82-1.43,1.22-3.08,1.22-4.95,0-2.53-.44-4.57-1.32-6.12-.88-1.55-2.16-2.68-3.82-3.4-1.67-.72-3.67-1.07-6-1.07h-7.95ZM19.79,31.07h7.95c2.27,0,4.14-.4,5.62-1.2,1.48-.8,2.58-1.93,3.3-3.4.72-1.47,1.07-3.18,1.07-5.15,0-1.7-.33-3.21-1-4.55-.67-1.33-1.67-2.39-3.02-3.17-1.35-.78-3.09-1.17-5.22-1.17-1.53,0-2.99.31-4.37.92-1.38.62-2.51,1.5-3.37,2.65-.87,1.15-1.3,2.52-1.3,4.12H3.8c0-4.06,1.11-7.58,3.32-10.54,2.22-2.96,5.16-5.25,8.85-6.87,3.68-1.62,7.7-2.42,12.07-2.42,5.03,0,9.45.79,13.27,2.37,3.81,1.58,6.78,3.92,8.9,7,2.11,3.08,3.17,6.89,3.17,11.42,0,2.37-.56,4.64-1.67,6.82-1.12,2.18-2.7,4.12-4.75,5.8-2.05,1.68-4.48,3.02-7.3,4-2.82.98-5.94,1.47-9.37,1.47h-10.49v-8.09Z"/>
    </g>
  </g>
  <polygon class="st6" points="79.06 72.33 235.66 72.33 269.24 28.51 79.06 28.51 79.06 72.33"/>
  <g class="st14">
    <rect class="st8" x="70.39" y="53.56" width="17.33" height="19.29" transform="translate(-17.39 93.91) rotate(-56.3)"/>
  </g>
  <g class="st11">
    <rect class="st5" x="69.85" y="62.76" width="10.05" height="15.4" transform="translate(-7.92 9.51) rotate(-6.9)"/>
  </g>
  <g class="st12">
    <rect class="st4" x="75.07" y="62.47" width="16.34" height="15.96" transform="translate(-24.94 84.23) rotate(-47.5)"/>
  </g>
  <line class="st3" x1="84.58" y1="19.89" x2="313.88" y2="19.89"/>
  <path class="st1" d="M320.83,19.89h0M70.69,19.89h0"/>
  <line class="st2" x1="25.49" y1="86.9" x2="78.65" y2="86.9"/>
  <path class="st1" d="M86.25,86.9h0M10.31,86.9h0"/>
  <g class="st10">
    <g class="st10">
      <path class="st7" d="M104.18,85.47h-2.54v-1.6h2.54c.39,0,.71-.07.96-.2.25-.13.43-.31.54-.54s.17-.49.17-.79-.06-.57-.17-.83c-.11-.26-.29-.46-.54-.62-.25-.16-.56-.23-.96-.23h-1.83v8.35h-2.05v-9.95h3.88c.78,0,1.45.14,2.01.42.56.28.99.67,1.28,1.16s.44,1.05.44,1.69-.15,1.2-.44,1.67c-.3.47-.72.83-1.28,1.09-.56.25-1.23.38-2.01.38Z"/>
    </g>
    <g class="st10">
      <path class="st7" d="M111.03,83.24v5.78h-1.97v-7.4h1.85l.12,1.61ZM113.26,81.58l-.03,1.82c-.1-.01-.21-.03-.35-.04s-.26-.02-.37-.02c-.28,0-.52.04-.72.11-.2.07-.37.18-.51.31s-.23.3-.3.5c-.07.2-.1.42-.11.67l-.4-.12c0-.48.05-.92.14-1.32.1-.4.24-.76.42-1.06s.41-.53.68-.7.58-.25.92-.25c.11,0,.22,0,.33.02.11.02.21.04.28.07Z"/>
    </g>
    <g class="st10">
      <path class="st7" d="M113.85,85.4v-.14c0-.54.08-1.04.23-1.5.15-.46.38-.86.68-1.19.3-.34.66-.6,1.09-.79.43-.19.93-.28,1.49-.28s1.06.1,1.5.28c.44.19.81.45,1.1.79.3.34.53.73.68,1.19.15.46.23.96.23,1.5v.14c0,.54-.08,1.04-.23,1.49-.15.46-.38.86-.68,1.2-.3.34-.66.6-1.1.79-.43.19-.93.28-1.49.28s-1.06-.09-1.49-.28c-.44-.19-.8-.45-1.1-.79-.3-.34-.53-.74-.68-1.2-.15-.46-.23-.96-.23-1.49ZM115.82,85.25v.14c0,.31.03.6.08.87.05.27.14.5.26.71s.28.36.48.47c.2.12.44.17.72.17s.51-.06.7-.17c.2-.11.35-.27.47-.47s.21-.44.26-.71c.06-.27.09-.56.09-.87v-.14c0-.3-.03-.59-.09-.85-.06-.27-.15-.5-.27-.71s-.28-.37-.48-.49c-.2-.12-.43-.18-.71-.18s-.51.06-.71.18c-.19.12-.35.28-.47.49s-.21.44-.26.71c-.05.27-.08.55-.08.85Z"/>
    </g>
    <g class="st10">
      <path class="st7" d="M125.12,87.62c.24,0,.46-.05.64-.14s.33-.23.44-.4c.11-.17.16-.37.17-.61h1.85c0,.52-.14.98-.42,1.38-.27.4-.64.72-1.1.95-.46.23-.98.35-1.54.35s-1.07-.1-1.5-.29-.78-.46-1.06-.8c-.28-.34-.49-.73-.64-1.19-.14-.45-.21-.94-.21-1.46v-.2c0-.53.07-1.01.21-1.47s.35-.85.64-1.19.64-.61,1.06-.8.92-.29,1.49-.29c.61,0,1.14.12,1.6.35s.82.56,1.08.99c.26.43.4.94.4,1.53h-1.85c0-.25-.06-.47-.15-.67-.1-.2-.24-.36-.42-.48-.18-.12-.41-.18-.68-.18-.29,0-.52.06-.7.18-.18.12-.32.29-.42.49-.1.21-.17.44-.21.71s-.06.54-.06.82v.2c0,.29.02.56.05.83.04.26.11.5.21.7s.25.37.43.49c.18.12.42.18.71.18Z"/>
      <path class="st7" d="M133.95,85.73h.58c0,.48-.06.94-.17,1.36-.11.42-.28.79-.51,1.09-.23.31-.52.55-.86.72-.35.17-.75.26-1.22.26-.36,0-.69-.05-.99-.15-.3-.1-.56-.26-.78-.48s-.39-.51-.51-.86c-.12-.35-.18-.77-.18-1.26v-4.78h1.97v4.79c0,.22.03.4.08.55s.13.27.22.37.21.16.34.21.27.06.43.06c.41,0,.73-.08.96-.25s.4-.39.5-.67.15-.6.15-.95ZM133.73,87.25v-5.63h1.97v7.4h-1.85l-.12-1.77Z"/>
    </g>
    <g class="st10">
      <path class="st7" d="M139.23,83.24v5.78h-1.97v-7.4h1.85l.12,1.61ZM141.46,81.58l-.03,1.82c-.1-.01-.21-.03-.35-.04s-.26-.02-.37-.02c-.28,0-.52.04-.72.11-.2.07-.37.18-.51.31s-.23.3-.3.5c-.07.2-.1.42-.11.67l-.4-.12c0-.48.05-.92.14-1.32.1-.4.24-.76.42-1.06s.41-.53.68-.7.58-.25.92-.25c.11,0,.22,0,.33.02.11.02.21.04.28.07Z"/>
    </g>
    <g class="st10">
      <path class="st7" d="M145.74,89.16c-.57,0-1.09-.09-1.54-.28-.46-.18-.84-.44-1.16-.77s-.56-.71-.73-1.15c-.17-.43-.25-.9-.25-1.39v-.27c0-.56.08-1.07.24-1.54s.39-.87.69-1.21.66-.61,1.09-.79c.43-.19.91-.28,1.45-.28s.99.09,1.39.26c.41.17.75.42,1.02.74.28.32.48.7.63,1.14.14.45.21.94.21,1.48v.82h-5.88v-1.31h3.94v-.15c0-.27-.05-.52-.15-.73s-.25-.39-.44-.52c-.2-.13-.45-.19-.75-.19-.26,0-.48.06-.67.17-.19.12-.34.27-.45.48s-.2.45-.26.72c-.06.28-.09.58-.09.91v.27c0,.3.04.57.13.82.08.25.21.47.36.65.16.18.35.32.57.42.23.1.48.15.77.15.36,0,.69-.07.99-.21s.57-.35.8-.63l.96,1.04c-.15.22-.37.44-.63.64s-.59.37-.96.5c-.37.13-.8.2-1.28.2Z"/>
    </g>
    <g class="st10">
      <path class="st7" d="M151.91,83.15v5.87h-1.98v-7.4h1.85l.12,1.53ZM151.64,85.06h-.55c0-.52.06-.99.19-1.43s.31-.81.55-1.13c.24-.32.55-.57.91-.75s.78-.27,1.25-.27c.33,0,.63.05.9.15.27.1.51.25.71.46s.35.48.46.81.16.73.16,1.19v4.94h-1.97v-4.72c0-.34-.05-.6-.14-.78-.09-.18-.22-.31-.39-.38-.17-.07-.37-.11-.6-.11-.26,0-.48.05-.67.16-.19.1-.35.25-.47.43-.12.18-.21.4-.27.65s-.09.51-.09.79ZM156.04,84.84l-.7.09c0-.48.06-.93.18-1.35.12-.41.3-.78.54-1.09s.54-.56.89-.73.77-.26,1.23-.26c.36,0,.68.05.97.15.29.1.54.26.75.48.21.22.37.51.48.87s.17.79.17,1.31v4.72h-1.98v-4.72c0-.34-.04-.6-.13-.78s-.22-.3-.38-.38c-.17-.07-.36-.11-.59-.11s-.44.05-.62.14-.33.22-.44.39-.21.35-.27.57-.09.45-.09.71Z"/>
    </g>
    <g class="st10">
      <path class="st7" d="M165.45,89.16c-.57,0-1.09-.09-1.54-.28-.46-.18-.84-.44-1.16-.77-.32-.33-.56-.71-.73-1.15-.17-.43-.25-.9-.25-1.39v-.27c0-.56.08-1.07.24-1.54.16-.46.39-.87.69-1.21.3-.34.66-.61,1.09-.79.43-.19.91-.28,1.45-.28s.99.09,1.39.26c.41.17.75.42,1.02.74.28.32.48.7.63,1.14.14.45.21.94.21,1.48v.82h-5.88v-1.31h3.94v-.15c0-.27-.05-.52-.15-.73-.1-.22-.25-.39-.44-.52-.2-.13-.45-.19-.75-.19-.26,0-.48.06-.67.17-.19.12-.34.27-.46.48s-.2.45-.26.72c-.06.28-.08.58-.08.91v.27c0,.3.04.57.13.82.08.25.21.47.36.65.16.18.35.32.57.42.23.1.48.15.77.15.36,0,.69-.07.99-.21s.57-.35.8-.63l.96,1.04c-.16.22-.37.44-.63.64s-.59.37-.96.5c-.37.13-.8.2-1.28.2Z"/>
    </g>
    <g class="st10">
      <path class="st7" d="M171.6,83.2v5.82h-1.97v-7.4h1.85l.12,1.58ZM171.32,85.06h-.53c0-.55.07-1.04.21-1.48s.34-.82.59-1.13c.26-.31.56-.55.91-.72s.75-.25,1.19-.25c.35,0,.66.05.95.15.29.1.53.26.74.48s.37.51.48.87c.11.36.17.8.17,1.32v4.72h-1.98v-4.72c0-.33-.05-.58-.14-.77-.09-.18-.22-.31-.4-.39-.18-.08-.39-.11-.65-.11s-.49.05-.69.16c-.19.1-.35.25-.48.43-.13.18-.22.4-.28.65s-.1.51-.1.79Z"/>
      <path class="st7" d="M181.15,81.62v1.39h-4.31v-1.39h4.31ZM177.91,79.8h1.97v6.99c0,.21.03.38.09.49.06.12.14.19.26.24s.26.06.43.06c.12,0,.23,0,.33-.02.1,0,.18-.02.25-.04v1.45c-.16.05-.34.1-.54.13-.2.03-.41.05-.65.05-.43,0-.81-.07-1.13-.21-.32-.14-.57-.38-.74-.69-.17-.32-.26-.74-.26-1.26v-7.19Z"/>
    </g>
    <g class="st10">
      <path class="st7" d="M191.64,85.72h2.04c-.04.67-.22,1.26-.55,1.78s-.78.93-1.36,1.22c-.58.29-1.28.44-2.1.44-.64,0-1.21-.11-1.72-.33-.51-.22-.94-.54-1.3-.95-.36-.41-.63-.92-.82-1.5s-.28-1.25-.28-1.97v-.69c0-.73.1-1.39.29-1.98s.47-1.09.83-1.51c.36-.41.8-.73,1.3-.96.51-.22,1.07-.33,1.7-.33.83,0,1.53.15,2.1.45s1.02.71,1.33,1.24c.32.53.51,1.13.57,1.8h-2.05c-.02-.4-.1-.74-.24-1.02-.14-.28-.34-.49-.62-.63-.28-.14-.64-.21-1.1-.21-.34,0-.64.06-.9.19-.26.13-.47.32-.64.58s-.3.59-.39.98c-.08.39-.13.86-.13,1.38v.71c0,.51.04.97.12,1.36.08.39.2.72.36.98.16.27.37.47.63.6.26.13.57.2.93.2.43,0,.78-.07,1.06-.21s.49-.34.64-.61c.15-.27.24-.6.26-1Z"/>
    </g>
    <g class="st10">
      <path class="st7" d="M196.5,81.62l1.61,5.36.28,2.09-1.34.14-2.66-7.59h2.11ZM197.32,88.19l1.96-6.56h2.11l-2.97,8.51c-.06.19-.15.39-.26.6-.11.21-.25.42-.43.61s-.41.35-.68.47-.6.19-.99.19c-.19,0-.34-.01-.46-.04-.12-.02-.26-.05-.42-.1v-1.44c.05,0,.1,0,.16,0,.05,0,.11,0,.16,0,.26,0,.47-.03.64-.09.16-.06.3-.15.4-.27.1-.12.18-.28.24-.47l.55-1.43Z"/>
    </g>
    <g class="st10">
      <path class="st7" d="M205.02,87.62c.24,0,.46-.05.64-.14s.33-.23.44-.4c.11-.17.16-.37.17-.61h1.85c0,.52-.14.98-.42,1.38-.27.4-.64.72-1.1.95-.46.23-.98.35-1.54.35s-1.07-.1-1.5-.29-.78-.46-1.06-.8c-.28-.34-.49-.73-.64-1.19-.14-.45-.21-.94-.21-1.46v-.2c0-.53.07-1.01.21-1.47s.35-.85.64-1.19.64-.61,1.06-.8.92-.29,1.49-.29c.61,0,1.14.12,1.6.35s.82.56,1.08.99c.26.43.4.94.4,1.53h-1.85c0-.25-.06-.47-.15-.67-.1-.2-.24-.36-.42-.48-.18-.12-.41-.18-.68-.18-.29,0-.52.06-.7.18-.18.12-.32.29-.42.49-.1.21-.17.44-.21.71s-.06.54-.06.82v.2c0,.29.02.56.05.83.04.26.11.5.21.7s.25.37.43.49c.18.12.42.18.71.18Z"/>
    </g>
    <g class="st10">
      <path class="st7" d="M211.33,78.52v10.5h-1.98v-10.5h1.98Z"/>
    </g>
    <g class="st10">
      <path class="st7" d="M216.33,89.16c-.57,0-1.09-.09-1.54-.28-.46-.18-.84-.44-1.16-.77-.32-.33-.56-.71-.73-1.15-.17-.43-.25-.9-.25-1.39v-.27c0-.56.08-1.07.24-1.54.16-.46.39-.87.69-1.21.3-.34.66-.61,1.09-.79.43-.19.91-.28,1.45-.28s.99.09,1.39.26c.41.17.75.42,1.02.74.28.32.48.7.63,1.14.14.45.21.94.21,1.48v.82h-5.88v-1.31h3.94v-.15c0-.27-.05-.52-.15-.73-.1-.22-.25-.39-.44-.52-.2-.13-.45-.19-.75-.19-.26,0-.48.06-.67.17-.19.12-.34.27-.46.48s-.2.45-.26.72c-.06.28-.08.58-.08.91v.27c0,.3.04.57.13.82.08.25.21.47.36.65.16.18.35.32.57.42.23.1.48.15.77.15.36,0,.69-.07.99-.21s.57-.35.8-.63l.96,1.04c-.16.22-.37.44-.63.64s-.59.37-.96.5c-.37.13-.8.2-1.28.2Z"/>
    </g>
    <g class="st10">
      <path class="st7" d="M228.22,84.52v1.11s-1.09,0-1.09,0c-.26,0-.49.03-.68.09-.19.06-.35.14-.47.25-.12.11-.21.23-.27.37-.06.14-.08.3-.08.46s.04.32.12.46c.08.13.19.24.33.31.15.07.32.11.51.11.3,0,.55-.06.77-.18.22-.12.39-.27.51-.44.12-.17.18-.34.19-.49l.52.83c-.07.19-.17.38-.3.58-.12.2-.28.39-.47.56s-.42.32-.69.43c-.27.11-.59.17-.96.17-.47,0-.89-.09-1.28-.28-.38-.19-.68-.45-.9-.79-.22-.33-.33-.71-.33-1.14,0-.39.07-.73.22-1.03.15-.3.36-.55.65-.76.29-.21.64-.36,1.07-.47.43-.11.92-.16,1.49-.16h1.14ZM227.96,87.35v-3.29c0-.24-.04-.44-.12-.61-.08-.17-.2-.3-.36-.4-.16-.1-.37-.14-.62-.14-.22,0-.41.04-.57.11-.16.08-.28.18-.37.32-.09.14-.13.3-.13.49h-1.97c0-.31.07-.61.22-.89.15-.28.36-.53.64-.75.28-.21.61-.38.99-.51.39-.12.82-.19,1.3-.19.57,0,1.08.1,1.53.29.45.19.8.48,1.06.86.26.38.39.86.39,1.44v3.17c0,.4.02.74.08.99.05.26.12.48.22.67v.12h-1.99c-.1-.2-.17-.45-.22-.76-.05-.3-.07-.61-.07-.91Z"/>
    </g>
    <g class="st10">
      <path class="st7" d="M233.41,83.2v5.82h-1.97v-7.4h1.85l.12,1.58ZM233.13,85.06h-.53c0-.55.07-1.04.21-1.48.14-.44.34-.82.59-1.13.26-.31.56-.55.91-.72.35-.17.75-.25,1.19-.25.35,0,.66.05.95.15.29.1.53.26.74.48.21.22.37.51.48.87.11.36.17.8.17,1.32v4.72h-1.98v-4.72c0-.33-.04-.58-.14-.77-.09-.18-.22-.31-.4-.39-.18-.08-.39-.11-.65-.11s-.49.05-.69.16c-.19.1-.35.25-.48.43-.13.18-.22.4-.28.65-.06.25-.1.51-.1.79Z"/>
      <path class="st7" d="M239.03,85.41v-.14c0-.57.06-1.08.19-1.54.13-.46.31-.86.56-1.19.25-.33.55-.59.91-.77.36-.18.77-.27,1.23-.27.43,0,.81.09,1.14.27.33.18.6.44.83.78.23.34.42.73.56,1.18.14.45.24.95.31,1.49v.31c-.06.52-.17.99-.31,1.44-.14.44-.33.83-.56,1.16-.23.33-.51.59-.84.77-.33.18-.71.27-1.15.27-.46,0-.87-.09-1.23-.28-.36-.19-.66-.45-.9-.79-.24-.34-.43-.73-.56-1.19-.13-.46-.19-.95-.19-1.49ZM240.99,85.27v.14c0,.31.02.59.07.86.05.26.13.5.24.7.11.2.26.36.44.47.18.11.4.17.66.17.34,0,.62-.08.83-.23.22-.15.39-.36.5-.63.12-.27.18-.58.2-.93v-.9c-.01-.29-.05-.54-.12-.78-.07-.23-.16-.43-.29-.59-.13-.16-.28-.29-.46-.38-.18-.09-.4-.14-.65-.14s-.47.06-.66.17c-.18.12-.33.28-.44.48-.11.2-.19.44-.25.71-.05.27-.08.56-.08.88ZM243.7,87.41v-8.89h1.98v10.5h-1.78l-.2-1.61Z"/>
    </g>
    <g class="st10">
      <path class="st7" d="M254.68,85.47h-2.54v-1.6h2.54c.39,0,.71-.07.96-.2.25-.13.43-.31.54-.54.11-.23.17-.49.17-.79s-.06-.57-.17-.83c-.11-.26-.29-.46-.54-.62-.25-.16-.56-.23-.96-.23h-1.83v8.35h-2.05v-9.95h3.88c.78,0,1.45.14,2.01.42.56.28.99.67,1.28,1.16.3.49.44,1.05.44,1.69s-.15,1.2-.44,1.67c-.3.47-.72.83-1.28,1.09-.56.25-1.23.38-2.01.38Z"/>
    </g>
    <g class="st10">
      <path class="st7" d="M261.54,83.24v5.78h-1.97v-7.4h1.85l.12,1.61ZM263.77,81.58l-.03,1.82c-.1-.01-.21-.03-.34-.04-.13-.01-.26-.02-.37-.02-.28,0-.52.04-.72.11-.2.07-.37.18-.51.31-.13.14-.24.3-.3.5-.07.2-.1.42-.11.67l-.4-.12c0-.48.05-.92.14-1.32.1-.4.24-.76.42-1.06s.41-.53.68-.7c.27-.16.58-.25.92-.25.11,0,.22,0,.33.02.11.02.21.04.28.07Z"/>
    </g>
    <g class="st10">
      <path class="st7" d="M264.36,85.4v-.14c0-.54.08-1.04.23-1.5.15-.46.38-.86.68-1.19.3-.34.66-.6,1.09-.79.43-.19.93-.28,1.49-.28s1.06.1,1.5.28c.44.19.81.45,1.1.79.3.34.53.73.68,1.19.15.46.23.96.23,1.5v.14c0,.54-.08,1.04-.23,1.49-.16.46-.38.86-.68,1.2-.3.34-.66.6-1.1.79-.43.19-.93.28-1.49.28s-1.06-.09-1.49-.28c-.43-.19-.8-.45-1.1-.79-.3-.34-.53-.74-.68-1.2-.16-.46-.23-.96-.23-1.49ZM266.33,85.25v.14c0,.31.03.6.08.87.05.27.14.5.26.71.12.2.28.36.48.47.2.12.43.17.72.17s.51-.06.7-.17c.2-.11.35-.27.47-.47.12-.2.21-.44.26-.71.06-.27.09-.56.09-.87v-.14c0-.3-.03-.59-.09-.85-.06-.27-.15-.5-.27-.71-.12-.21-.28-.37-.47-.49-.2-.12-.43-.18-.71-.18s-.51.06-.71.18c-.19.12-.35.28-.47.49-.12.21-.21.44-.26.71-.05.27-.08.55-.08.85Z"/>
    </g>
    <g class="st10">
      <path class="st7" d="M275.63,87.62c.24,0,.46-.05.64-.14.19-.09.33-.23.44-.4.11-.17.16-.37.17-.61h1.85c0,.52-.14.98-.42,1.38-.27.4-.64.72-1.1.95-.46.23-.97.35-1.54.35s-1.07-.1-1.5-.29c-.43-.19-.78-.46-1.06-.8-.28-.34-.49-.73-.64-1.19-.14-.45-.21-.94-.21-1.46v-.2c0-.53.07-1.01.21-1.47.14-.45.35-.85.64-1.19.28-.34.64-.61,1.06-.8s.92-.29,1.49-.29c.61,0,1.14.12,1.6.35s.82.56,1.08.99c.26.43.4.94.4,1.53h-1.85c0-.25-.06-.47-.15-.67-.1-.2-.24-.36-.42-.48-.18-.12-.41-.18-.68-.18-.29,0-.52.06-.7.18-.18.12-.32.29-.42.49-.1.21-.17.44-.21.71-.04.26-.06.54-.06.82v.2c0,.29.02.56.05.83.04.26.11.5.21.7s.25.37.43.49c.18.12.42.18.71.18Z"/>
      <path class="st7" d="M284.46,85.73h.58c0,.48-.06.94-.17,1.36-.11.42-.28.79-.51,1.09-.23.31-.51.55-.86.72-.35.17-.75.26-1.22.26-.36,0-.69-.05-.99-.15-.3-.1-.56-.26-.78-.48-.22-.22-.39-.51-.51-.86-.12-.35-.18-.77-.18-1.26v-4.78h1.97v4.79c0,.22.03.4.08.55.05.15.13.27.22.37s.21.16.34.21.27.06.43.06c.41,0,.73-.08.96-.25.23-.16.4-.39.5-.67.1-.29.15-.6.15-.95ZM284.24,87.25v-5.63h1.97v7.4h-1.85l-.12-1.77Z"/>
    </g>
    <g class="st10">
      <path class="st7" d="M289.73,83.24v5.78h-1.97v-7.4h1.85l.12,1.61ZM291.96,81.58l-.03,1.82c-.1-.01-.21-.03-.34-.04-.13-.01-.26-.02-.37-.02-.28,0-.52.04-.72.11-.2.07-.37.18-.51.31-.13.14-.23.3-.3.5-.07.2-.1.42-.11.67l-.4-.12c0-.48.05-.92.14-1.32.1-.4.24-.76.42-1.06.19-.3.41-.53.68-.7s.58-.25.92-.25c.11,0,.22,0,.33.02.11.02.21.04.28.07Z"/>
    </g>
    <g class="st10">
      <path class="st7" d="M296.24,89.16c-.57,0-1.09-.09-1.54-.28-.46-.18-.84-.44-1.16-.77-.32-.33-.56-.71-.73-1.15-.17-.43-.25-.9-.25-1.39v-.27c0-.56.08-1.07.24-1.54.16-.46.39-.87.69-1.21.3-.34.66-.61,1.09-.79.43-.19.91-.28,1.45-.28s.99.09,1.39.26c.41.17.75.42,1.02.74.28.32.48.7.63,1.14.14.45.21.94.21,1.48v.82h-5.88v-1.31h3.94v-.15c0-.27-.05-.52-.15-.73-.1-.22-.25-.39-.44-.52-.2-.13-.45-.19-.75-.19-.26,0-.48.06-.67.17-.19.12-.34.27-.46.48s-.2.45-.26.72c-.06.28-.08.58-.08.91v.27c0,.3.04.57.13.82.08.25.21.47.36.65.16.18.35.32.57.42.23.1.48.15.77.15.36,0,.69-.07.99-.21s.57-.35.8-.63l.96,1.04c-.16.22-.37.44-.63.64s-.59.37-.96.5c-.37.13-.8.2-1.28.2Z"/>
    </g>
    <g class="st10">
      <path class="st7" d="M302.42,83.15v5.87h-1.97v-7.4h1.85l.12,1.53ZM302.15,85.06h-.55c0-.52.06-.99.19-1.43s.31-.81.55-1.13c.24-.32.55-.57.91-.75.36-.18.78-.27,1.25-.27.33,0,.63.05.9.15.27.1.51.25.71.46s.35.48.46.81.16.73.16,1.19v4.94h-1.97v-4.72c0-.34-.05-.6-.14-.78-.09-.18-.22-.31-.39-.38-.17-.07-.37-.11-.6-.11-.26,0-.48.05-.67.16-.19.1-.34.25-.47.43-.12.18-.21.4-.27.65-.06.25-.09.51-.09.79ZM306.55,84.84l-.7.09c0-.48.06-.93.18-1.35.12-.41.3-.78.54-1.09s.54-.56.89-.73.77-.26,1.23-.26c.36,0,.68.05.97.15.29.1.54.26.75.48.21.22.37.51.48.87s.17.79.17,1.31v4.72h-1.98v-4.72c0-.34-.04-.6-.13-.78s-.22-.3-.38-.38c-.17-.07-.36-.11-.59-.11s-.44.05-.62.14-.33.22-.45.39c-.12.16-.21.35-.27.57-.06.22-.09.45-.09.71Z"/>
    </g>
    <g class="st10">
      <path class="st7" d="M315.96,89.16c-.57,0-1.09-.09-1.54-.28-.46-.18-.84-.44-1.16-.77-.32-.33-.56-.71-.73-1.15-.17-.43-.25-.9-.25-1.39v-.27c0-.56.08-1.07.24-1.54s.39-.87.69-1.21c.3-.34.66-.61,1.09-.79.43-.19.91-.28,1.45-.28s.99.09,1.39.26c.41.17.75.42,1.02.74.28.32.48.7.62,1.14.14.45.21.94.21,1.48v.82h-5.88v-1.31h3.94v-.15c0-.27-.05-.52-.15-.73-.1-.22-.25-.39-.44-.52-.2-.13-.45-.19-.75-.19-.26,0-.48.06-.67.17-.19.12-.34.27-.46.48-.12.21-.2.45-.26.72-.06.28-.08.58-.08.91v.27c0,.3.04.57.13.82.08.25.21.47.36.65.16.18.35.32.57.42.22.1.48.15.77.15.36,0,.69-.07,1-.21.31-.14.57-.35.8-.63l.96,1.04c-.16.22-.37.44-.63.64-.27.21-.59.37-.96.5-.37.13-.8.2-1.28.2Z"/>
    </g>
    <g class="st10">
      <path class="st7" d="M322.11,83.2v5.82h-1.97v-7.4h1.85l.12,1.58ZM321.83,85.06h-.53c0-.55.07-1.04.21-1.48s.34-.82.59-1.13c.26-.31.56-.55.91-.72.35-.17.75-.25,1.19-.25.35,0,.66.05.95.15.29.1.53.26.74.48.21.22.37.51.48.87.11.36.17.8.17,1.32v4.72h-1.98v-4.72c0-.33-.05-.58-.14-.77-.09-.18-.22-.31-.4-.39-.18-.08-.39-.11-.65-.11s-.49.05-.69.16c-.19.1-.35.25-.48.43-.12.18-.22.4-.28.65s-.1.51-.1.79Z"/>
      <path class="st7" d="M331.66,81.62v1.39h-4.31v-1.39h4.31ZM328.42,79.8h1.97v6.99c0,.21.03.38.09.49.06.12.14.19.26.24s.26.06.43.06c.12,0,.23,0,.33-.02.1,0,.18-.02.25-.04v1.45c-.16.05-.34.1-.54.13-.2.03-.41.05-.65.05-.43,0-.81-.07-1.13-.21-.32-.14-.57-.38-.74-.69-.17-.32-.26-.74-.26-1.26v-7.19Z"/>
    </g>
    <g class="st10">
      <path class="st7" d="M336.37,79.07h1.73l.31,7.12v2.83h-2.04v-9.95ZM337.3,79.07h1.74l2.56,7.31,2.56-7.31h1.74l-3.6,9.95h-1.39l-3.6-9.95ZM345.1,79.07h1.74v9.95h-2.05v-2.83l.31-7.12Z"/>
    </g>
    <g class="st10">
      <path class="st7" d="M352.77,84.52v1.11s-1.09,0-1.09,0c-.26,0-.49.03-.68.09-.19.06-.35.14-.47.25-.12.11-.21.23-.27.37-.06.14-.08.3-.08.46s.04.32.12.46.19.24.33.31c.15.07.32.11.51.11.3,0,.55-.06.77-.18.22-.12.39-.27.51-.44.12-.17.18-.34.19-.49l.52.83c-.07.19-.17.38-.3.58-.12.2-.28.39-.47.56s-.42.32-.69.43c-.27.11-.59.17-.96.17-.47,0-.89-.09-1.27-.28-.38-.19-.68-.45-.9-.79-.22-.33-.33-.71-.33-1.14,0-.39.07-.73.22-1.03s.36-.55.65-.76c.28-.21.64-.36,1.07-.47s.92-.16,1.49-.16h1.14ZM352.51,87.35v-3.29c0-.24-.04-.44-.12-.61-.08-.17-.2-.3-.36-.4-.16-.1-.37-.14-.63-.14-.22,0-.41.04-.57.11-.16.08-.28.18-.37.32s-.13.3-.13.49h-1.97c0-.31.07-.61.22-.89.15-.28.36-.53.64-.75.28-.21.61-.38.99-.51.39-.12.82-.19,1.3-.19.57,0,1.08.1,1.53.29s.8.48,1.06.86c.26.38.39.86.39,1.44v3.17c0,.4.03.74.08.99s.12.48.22.67v.12h-1.99c-.1-.2-.17-.45-.21-.76-.05-.3-.07-.61-.07-.91Z"/>
    </g>
    <g class="st10">
      <path class="st7" d="M357.96,83.2v5.82h-1.97v-7.4h1.85l.12,1.58ZM357.68,85.06h-.53c0-.55.07-1.04.21-1.48.14-.44.34-.82.59-1.13.26-.31.56-.55.91-.72s.75-.25,1.19-.25c.35,0,.66.05.95.15.29.1.54.26.74.48s.37.51.48.87c.11.36.17.8.17,1.32v4.72h-1.98v-4.72c0-.33-.05-.58-.14-.77s-.22-.31-.4-.39c-.18-.08-.39-.11-.65-.11s-.49.05-.69.16c-.19.1-.35.25-.48.43-.13.18-.22.4-.28.65-.06.25-.1.51-.1.79Z"/>
    </g>
    <g class="st10">
      <path class="st7" d="M368.13,84.52v1.11s-1.09,0-1.09,0c-.26,0-.49.03-.68.09-.19.06-.35.14-.47.25-.12.11-.21.23-.27.37-.06.14-.08.3-.08.46s.04.32.12.46c.08.13.19.24.33.31.15.07.32.11.51.11.3,0,.55-.06.77-.18.22-.12.39-.27.51-.44.12-.17.18-.34.19-.49l.52.83c-.07.19-.17.38-.3.58-.12.2-.28.39-.47.56s-.42.32-.69.43c-.27.11-.59.17-.96.17-.47,0-.89-.09-1.28-.28-.38-.19-.68-.45-.9-.79-.22-.33-.33-.71-.33-1.14,0-.39.07-.73.22-1.03.15-.3.36-.55.65-.76.29-.21.64-.36,1.07-.47.43-.11.92-.16,1.49-.16h1.14ZM367.87,87.35v-3.29c0-.24-.04-.44-.12-.61-.08-.17-.2-.3-.36-.4-.16-.1-.37-.14-.62-.14-.22,0-.41.04-.57.11-.16.08-.28.18-.37.32-.09.14-.13.3-.13.49h-1.97c0-.31.07-.61.22-.89.15-.28.36-.53.64-.75.28-.21.61-.38.99-.51.39-.12.82-.19,1.3-.19.57,0,1.08.1,1.53.29.45.19.8.48,1.06.86.26.38.39.86.39,1.44v3.17c0,.4.02.74.08.99.05.26.12.48.22.67v.12h-1.99c-.1-.2-.17-.45-.22-.76-.05-.3-.07-.61-.07-.91Z"/>
    </g>
    <g class="st10">
      <path class="st7" d="M371.03,85.41v-.14c0-.57.07-1.08.21-1.54.14-.46.34-.86.59-1.19.26-.33.57-.59.94-.77.37-.18.79-.27,1.25-.27.49,0,.91.09,1.24.27.33.18.61.44.82.78.21.34.38.73.5,1.18s.21.95.28,1.49v.31c-.07.52-.17.99-.31,1.44-.14.44-.32.83-.54,1.16-.22.33-.5.59-.83.77-.33.18-.72.27-1.18.27s-.87-.09-1.23-.28c-.37-.19-.68-.45-.94-.79-.26-.34-.46-.73-.6-1.19-.14-.46-.21-.95-.21-1.49ZM376.01,81.62h1.79v7.15c0,.68-.15,1.25-.45,1.72-.3.47-.71.83-1.25,1.07s-1.15.37-1.86.37c-.31,0-.64-.04-.98-.12s-.67-.21-.98-.38c-.31-.17-.57-.39-.78-.66l.87-1.16c.23.27.49.47.79.62s.63.22,1,.22.66-.07.9-.2c.25-.13.44-.32.57-.57.13-.25.2-.55.2-.9v-5.46l.19-1.71ZM373,85.27v.14c0,.31.03.59.09.86.06.26.15.5.28.7.13.2.28.36.47.47s.41.17.67.17c.36,0,.65-.08.88-.23.23-.15.4-.36.51-.63.11-.27.18-.58.2-.93v-.9c0-.29-.05-.54-.12-.78s-.16-.43-.29-.59-.28-.29-.48-.38c-.2-.09-.43-.14-.7-.14s-.48.06-.67.17c-.19.12-.35.28-.47.48-.13.2-.22.44-.28.71-.06.27-.1.56-.1.88Z"/>
    </g>
    <g class="st10">
      <path class="st7" d="M382.71,89.16c-.57,0-1.09-.09-1.54-.28-.46-.18-.84-.44-1.16-.77-.32-.33-.56-.71-.73-1.15-.17-.43-.25-.9-.25-1.39v-.27c0-.56.08-1.07.24-1.54s.39-.87.69-1.21c.3-.34.66-.61,1.09-.79.43-.19.91-.28,1.45-.28s.99.09,1.39.26c.41.17.75.42,1.02.74.28.32.48.7.62,1.14.14.45.21.94.21,1.48v.82h-5.88v-1.31h3.94v-.15c0-.27-.05-.52-.15-.73-.1-.22-.25-.39-.44-.52-.2-.13-.45-.19-.75-.19-.26,0-.48.06-.67.17-.19.12-.34.27-.46.48-.12.21-.2.45-.26.72-.06.28-.08.58-.08.91v.27c0,.3.04.57.13.82.08.25.21.47.36.65.16.18.35.32.57.42.22.1.48.15.77.15.36,0,.69-.07,1-.21.31-.14.57-.35.8-.63l.96,1.04c-.16.22-.37.44-.63.64-.27.21-.59.37-.96.5-.37.13-.8.2-1.28.2Z"/>
    </g>
    <g class="st10">
      <path class="st7" d="M388.89,83.15v5.87h-1.98v-7.4h1.85l.12,1.53ZM388.62,85.06h-.55c0-.52.06-.99.19-1.43.13-.44.31-.81.55-1.13.24-.32.55-.57.91-.75.36-.18.78-.27,1.25-.27.33,0,.63.05.9.15.27.1.51.25.71.46s.35.48.46.81.16.73.16,1.19v4.94h-1.97v-4.72c0-.34-.05-.6-.14-.78-.09-.18-.22-.31-.39-.38-.17-.07-.37-.11-.6-.11-.26,0-.48.05-.67.16-.19.1-.34.25-.47.43-.12.18-.21.4-.27.65-.06.25-.09.51-.09.79ZM393.02,84.84l-.7.09c0-.48.06-.93.18-1.35.12-.41.3-.78.54-1.09s.54-.56.89-.73.77-.26,1.23-.26c.36,0,.68.05.97.15.29.1.54.26.75.48.21.22.37.51.48.87.11.36.17.79.17,1.31v4.72h-1.98v-4.72c0-.34-.04-.6-.13-.78s-.22-.3-.38-.38c-.17-.07-.36-.11-.59-.11s-.44.05-.62.14-.33.22-.44.39c-.12.16-.21.35-.27.57-.06.22-.09.45-.09.71Z"/>
    </g>
    <g class="st10">
      <path class="st7" d="M402.43,89.16c-.57,0-1.09-.09-1.54-.28-.46-.18-.84-.44-1.16-.77-.32-.33-.56-.71-.73-1.15-.17-.43-.25-.9-.25-1.39v-.27c0-.56.08-1.07.24-1.54.16-.46.39-.87.69-1.21.3-.34.66-.61,1.09-.79.43-.19.91-.28,1.45-.28s.99.09,1.39.26c.41.17.75.42,1.02.74.28.32.48.7.62,1.14.14.45.21.94.21,1.48v.82h-5.88v-1.31h3.94v-.15c0-.27-.05-.52-.15-.73-.1-.22-.25-.39-.44-.52-.2-.13-.45-.19-.75-.19-.26,0-.48.06-.67.17-.19.12-.34.27-.45.48s-.2.45-.26.72c-.06.28-.09.58-.09.91v.27c0,.3.04.57.13.82.08.25.21.47.36.65.16.18.35.32.57.42.23.1.48.15.77.15.36,0,.69-.07,1-.21s.57-.35.8-.63l.96,1.04c-.15.22-.37.44-.63.64s-.59.37-.96.5c-.37.13-.8.2-1.28.2Z"/>
    </g>
    <g class="st10">
      <path class="st7" d="M408.59,83.2v5.82h-1.97v-7.4h1.85l.12,1.58ZM408.31,85.06h-.53c0-.55.07-1.04.21-1.48.14-.44.34-.82.59-1.13.25-.31.56-.55.91-.72.35-.17.75-.25,1.19-.25.35,0,.66.05.95.15.29.1.53.26.74.48.21.22.37.51.48.87.11.36.17.8.17,1.32v4.72h-1.98v-4.72c0-.33-.05-.58-.14-.77s-.22-.31-.4-.39c-.17-.08-.39-.11-.65-.11s-.49.05-.69.16c-.19.1-.35.25-.48.43-.12.18-.22.4-.28.65-.06.25-.1.51-.1.79Z"/>
      <path class="st7" d="M418.14,81.62v1.39h-4.31v-1.39h4.31ZM414.9,79.8h1.97v6.99c0,.21.03.38.08.49s.14.19.26.24c.11.04.26.06.43.06.12,0,.23,0,.33-.02.1,0,.18-.02.25-.04v1.45c-.16.05-.34.1-.54.13-.2.03-.41.05-.65.05-.43,0-.81-.07-1.13-.21-.32-.14-.57-.38-.74-.69-.17-.32-.26-.74-.26-1.26v-7.19Z"/>
    </g>
  </g>
  <g class="st10">
    <g class="st10">
      <path class="st13" d="M113.62,38.79v3.1h-15.66v-3.1h15.66ZM107.72,38.79v19.2h-3.94v-19.2h3.94Z"/>
    </g>
    <g class="st10">
      <path class="st13" d="M119.63,58.25c-1.11,0-2.1-.18-2.98-.53-.88-.36-1.62-.85-2.23-1.48-.61-.63-1.08-1.37-1.4-2.21-.33-.84-.49-1.73-.49-2.68v-.53c0-1.08.15-2.07.46-2.97s.75-1.67,1.33-2.33c.58-.66,1.28-1.17,2.1-1.52.83-.36,1.76-.53,2.79-.53s1.91.17,2.69.5,1.44.81,1.97,1.42.93,1.35,1.21,2.21c.27.86.41,1.81.41,2.85v1.58h-11.34v-2.53h7.61v-.29c0-.53-.09-1-.28-1.42-.19-.42-.47-.75-.85-1-.38-.25-.86-.37-1.45-.37-.5,0-.93.11-1.29.33s-.65.53-.88.92c-.22.4-.39.86-.5,1.39-.11.53-.17,1.11-.17,1.75v.53c0,.57.08,1.1.24,1.58.16.48.4.9.7,1.25.3.35.67.62,1.11.82.44.19.93.29,1.48.29.69,0,1.33-.13,1.92-.4.59-.27,1.11-.67,1.54-1.22l1.85,2c-.3.43-.71.84-1.22,1.24-.51.4-1.13.72-1.85.97-.72.25-1.54.38-2.47.38Z"/>
    </g>
    <g class="st10">
      <path class="st13" d="M131.41,46.77v11.22h-3.8v-14.26h3.56l.24,3.05ZM130.86,50.36h-1.03c0-1.05.14-2.01.41-2.85.27-.85.65-1.57,1.15-2.18.49-.6,1.08-1.06,1.76-1.38.68-.32,1.44-.48,2.29-.48.67,0,1.28.1,1.83.29s1.03.5,1.43.92c.4.42.71.98.92,1.67.21.69.32,1.54.32,2.54v9.1h-3.82v-9.11c0-.63-.09-1.12-.26-1.48s-.43-.6-.77-.75c-.34-.15-.75-.22-1.25-.22s-.95.1-1.33.3c-.37.2-.68.48-.92.84-.24.36-.42.77-.55,1.25s-.18.98-.18,1.53Z"/>
    </g>
    <g class="st10">
      <path class="st13" d="M142.15,51.03v-.28c0-1.09.12-2.08.37-2.97.25-.89.61-1.66,1.08-2.3.47-.64,1.06-1.14,1.75-1.49s1.49-.53,2.37-.53c.83,0,1.57.18,2.2.53.63.35,1.16.85,1.61,1.5.44.65.8,1.41,1.07,2.28.27.87.47,1.83.59,2.87v.61c-.12.99-.32,1.92-.59,2.77s-.63,1.6-1.07,2.23c-.44.64-.98,1.13-1.62,1.48s-1.37.53-2.21.53c-.89,0-1.68-.18-2.37-.54-.69-.36-1.27-.87-1.74-1.52-.47-.65-.83-1.42-1.07-2.29s-.37-1.84-.37-2.87ZM145.95,50.75v.28c0,.59.05,1.14.14,1.65.09.51.25.96.46,1.35.21.39.5.69.84.91.35.21.77.32,1.27.32.65,0,1.19-.15,1.61-.44.42-.29.74-.7.97-1.22.22-.52.35-1.12.39-1.79v-1.73c-.03-.55-.1-1.05-.23-1.5-.13-.44-.31-.82-.55-1.14-.24-.32-.54-.56-.9-.74-.36-.18-.78-.26-1.26-.26s-.91.11-1.27.34c-.35.22-.64.53-.85.92-.22.39-.37.84-.47,1.37-.1.52-.15,1.09-.15,1.69ZM151.17,54.88v-17.14h3.82v20.25h-3.44l-.38-3.11Z"/>
    </g>
    <g class="st10">
      <path class="st13" d="M164.38,58.25c-1.11,0-2.1-.18-2.98-.53-.88-.36-1.62-.85-2.23-1.48-.61-.63-1.08-1.37-1.4-2.21-.33-.84-.49-1.73-.49-2.68v-.53c0-1.08.15-2.07.46-2.97s.75-1.67,1.33-2.33c.58-.66,1.28-1.17,2.1-1.52.83-.36,1.76-.53,2.79-.53s1.91.17,2.69.5,1.44.81,1.97,1.42.93,1.35,1.21,2.21c.27.86.41,1.81.41,2.85v1.58h-11.34v-2.53h7.61v-.29c0-.53-.09-1-.28-1.42-.19-.42-.47-.75-.85-1-.38-.25-.86-.37-1.45-.37-.5,0-.93.11-1.29.33s-.65.53-.88.92c-.22.4-.39.86-.5,1.39-.11.53-.17,1.11-.17,1.75v.53c0,.57.08,1.1.24,1.58.16.48.4.9.7,1.25.3.35.67.62,1.11.82.44.19.93.29,1.48.29.69,0,1.33-.13,1.92-.4.59-.27,1.11-.67,1.54-1.22l1.85,2c-.3.43-.71.84-1.22,1.24-.51.4-1.13.72-1.85.97-.72.25-1.54.38-2.47.38Z"/>
    </g>
    <g class="st10">
      <path class="st13" d="M176.19,46.84v11.15h-3.8v-14.26h3.57l.22,3.11ZM180.49,43.63l-.07,3.52c-.18-.03-.41-.05-.67-.07-.26-.02-.49-.03-.71-.03-.54,0-1,.07-1.39.2-.39.14-.72.34-.98.6s-.45.58-.58.96-.2.81-.22,1.29l-.76-.24c0-.92.09-1.77.28-2.55.18-.78.46-1.46.81-2.04.36-.58.79-1.03,1.31-1.34s1.11-.47,1.78-.47c.21,0,.43.02.65.05.22.03.4.07.54.12Z"/>
    </g>
    <g class="st10">
      <path class="st13" d="M182.01,40.01c0-.55.19-1.01.58-1.37s.91-.54,1.56-.54,1.16.18,1.55.54c.39.36.59.82.59,1.37s-.2,1.01-.59,1.37c-.39.36-.91.54-1.55.54s-1.17-.18-1.56-.54-.58-.82-.58-1.37ZM186.05,43.73v14.26h-3.81v-14.26h3.81Z"/>
      <path class="st13" d="M192.91,46.77v11.22h-3.8v-14.26h3.56l.24,3.05ZM192.36,50.36h-1.03c0-1.05.14-2.01.41-2.85.27-.85.65-1.57,1.15-2.18.49-.6,1.08-1.06,1.76-1.38.68-.32,1.44-.48,2.29-.48.67,0,1.28.1,1.83.29s1.03.5,1.43.92c.4.42.71.98.92,1.67.21.69.32,1.54.32,2.54v9.1h-3.82v-9.11c0-.63-.09-1.12-.26-1.48s-.43-.6-.77-.75c-.34-.15-.75-.22-1.25-.22s-.95.1-1.33.3c-.37.2-.68.48-.92.84-.24.36-.42.77-.55,1.25s-.18.98-.18,1.53Z"/>
    </g>
    <g class="st10">
      <path class="st13" d="M203.59,51.03v-.28c0-1.09.13-2.08.4-2.97.27-.89.65-1.66,1.15-2.3.5-.64,1.1-1.14,1.81-1.49s1.52-.53,2.41-.53c.95,0,1.74.18,2.39.53s1.17.85,1.58,1.5c.41.65.74,1.41.97,2.28.23.87.42,1.83.55,2.87v.61c-.13.99-.33,1.92-.59,2.77s-.61,1.6-1.04,2.23c-.43.64-.96,1.13-1.6,1.48-.64.35-1.39.53-2.27.53s-1.67-.18-2.38-.54c-.71-.36-1.31-.87-1.81-1.52s-.89-1.42-1.15-2.29-.4-1.84-.4-2.87ZM213.19,43.73h3.44v13.79c0,1.3-.29,2.41-.86,3.32-.58.91-1.38,1.6-2.41,2.07-1.03.47-2.22.71-3.59.71-.6,0-1.23-.08-1.89-.24-.66-.16-1.3-.4-1.9-.74-.6-.33-1.11-.76-1.51-1.27l1.67-2.24c.44.51.95.91,1.53,1.19.58.29,1.22.43,1.92.43s1.27-.13,1.74-.38c.47-.25.84-.62,1.09-1.09.25-.48.38-1.06.38-1.73v-10.52l.37-3.3ZM207.39,50.75v.28c0,.59.06,1.14.17,1.65s.29.96.53,1.35c.24.39.54.69.91.91.36.21.8.32,1.3.32.69,0,1.26-.15,1.7-.44.44-.29.77-.7.99-1.22.22-.52.35-1.12.38-1.79v-1.73c-.02-.55-.09-1.05-.22-1.5-.13-.44-.32-.82-.55-1.14s-.54-.56-.92-.74-.83-.26-1.34-.26-.93.11-1.3.34c-.36.22-.67.53-.91.92-.24.39-.42.84-.55,1.37-.12.52-.18,1.09-.18,1.69Z"/>
    </g>
  </g>
</svg>