<?xml version="1.0" encoding="UTF-8"?>
<svg xmlns="http://www.w3.org/2000/svg" xmlns:xlink="http://www.w3.org/1999/xlink" viewBox="0 0 940 220">
  <defs>
    <style>
      .cls-1, .cls-2, .cls-3 {
        fill: none;
      }

      .cls-2 {
        stroke-dasharray: 0 12.29;
      }

      .cls-2, .cls-3 {
        stroke: #f69421;
        stroke-linecap: round;
        stroke-linejoin: round;
        stroke-width: 4.19px;
      }

      .cls-4 {
        fill: #ecd7c2;
        mix-blend-mode: multiply;
      }

      .cls-5 {
        fill: url(#linear-gradient-3);
      }

      .cls-6 {
        fill: url(#linear-gradient-2);
      }

      .cls-7 {
        fill: url(#linear-gradient);
      }

      .cls-8 {
        isolation: isolate;
      }

      .cls-9 {
        clip-path: url(#clippath-3);
      }

      .cls-10 {
        clip-path: url(#clippath-4);
      }

      .cls-11 {
        clip-path: url(#clippath-2);
      }

      .cls-3 {
        stroke-dasharray: 0 13.43;
      }

      .cls-12 {
        fill: #fff;
      }

      .cls-13 {
        fill: #efc8b7;
        font-family: Roboto-Black, Roboto;
        font-size: 201.44px;
        font-weight: 800;
      }

      .cls-14 {
        fill: #f0823c;
      }

      .cls-15 {
        clip-path: url(#clippath);
      }
    </style>
    <clipPath id="clippath">
      <rect class="cls-1" x="-3193.22" y="81.42" width="2465.74" height="2206.89"/>
    </clipPath>
    <filter id="luminosity-noclip" x="-3328.88" y="-1985.57" width="3877.55" height="2048.49" color-interpolation-filters="sRGB" filterUnits="userSpaceOnUse">
      <feFlood flood-color="#fff" result="bg"/>
      <feBlend in="SourceGraphic" in2="bg"/>
    </filter>
    <mask id="mask" x="-3328.88" y="-1985.57" width="3877.55" height="2048.49" maskUnits="userSpaceOnUse"/>
    <clipPath id="clippath-1">
      <rect class="cls-1" x="-3328.88" y="-1915.46" width="1966.73" height="1108.72"/>
    </clipPath>
    <clipPath id="clippath-2">
      <polygon class="cls-1" points="140.22 128.43 156.7 137.94 173.17 128.43 156.7 118.92 140.22 128.43"/>
    </clipPath>
    <linearGradient id="linear-gradient" x1="-2958.16" y1="-1571.82" x2="-2956.19" y2="-1571.82" gradientTransform="translate(242128.44 455426.94) rotate(90) scale(153.94 -153.94)" gradientUnits="userSpaceOnUse">
      <stop offset="0" stop-color="#f9ec43"/>
      <stop offset=".04" stop-color="#f9e136"/>
      <stop offset=".11" stop-color="#f9d024"/>
      <stop offset=".19" stop-color="#f9c719"/>
      <stop offset=".28" stop-color="#fac416"/>
      <stop offset=".55" stop-color="#f29e32"/>
      <stop offset=".67" stop-color="#ef8e40"/>
      <stop offset=".89" stop-color="#eb673c"/>
      <stop offset="1" stop-color="#e83e38"/>
    </linearGradient>
    <clipPath id="clippath-3">
      <polygon class="cls-1" points="140.22 147.45 156.7 156.96 156.7 137.94 140.22 128.43 140.22 147.45"/>
    </clipPath>
    <linearGradient id="linear-gradient-2" x1="-2928.41" y1="-1513.88" x2="-2926.45" y2="-1513.88" gradientTransform="translate(74171.31 143247.26) rotate(90) scale(48.9 -48.9)" xlink:href="#linear-gradient"/>
    <clipPath id="clippath-4">
      <polygon class="cls-1" points="156.7 137.94 156.7 156.96 173.17 147.45 173.17 128.43 156.7 137.94"/>
    </clipPath>
    <linearGradient id="linear-gradient-3" x1="-2932.48" y1="-1565.66" x2="-2930.51" y2="-1565.66" gradientTransform="translate(118125.85 220978.75) rotate(90) scale(75.34 -75.34)" xlink:href="#linear-gradient"/>
  </defs>
  <g class="cls-8">
    <g id="bg">
      <g class="cls-15">
        <polygon class="cls-4" points="-1325.09 -511.68 -2706.65 320.08 -1325.07 1151.85 56.48 320.08 -1325.09 -511.68"/>
      </g>
    </g>
    <g id="Isolation_Mode" data-name="Isolation Mode">
      <text class="cls-13" transform="translate(11.58 159.22)"><tspan x="0" y="0">2</tspan></text>
      <path class="cls-14" d="M109.79,149.75H9.86v-21.64l46.03-48.39c11.34-12.92,17.02-23.18,17.02-30.79,0-6.16-1.34-10.85-4.03-14.07-2.69-3.21-6.59-4.82-11.71-4.82s-9.15,2.15-12.29,6.44c-3.15,4.3-4.72,9.66-4.72,16.08H6.91c0-8.79,2.2-16.9,6.59-24.34,4.39-7.44,10.49-13.26,18.29-17.46,7.8-4.2,16.52-6.29,26.16-6.29,15.47,0,27.39,3.57,35.75,10.72,8.36,7.15,12.54,17.41,12.54,30.79,0,5.64-1.05,11.13-3.15,16.47-2.1,5.35-5.36,10.95-9.79,16.82-4.43,5.87-11.56,13.72-21.39,23.56l-18.49,21.34h56.36v25.57Z"/>
      <polygon class="cls-14" points="156.7 146.39 788.16 146.39 867.05 60.14 156.7 60.14 156.7 146.39"/>
      <g>
        <path class="cls-12" d="M196.82,119.01v-38.46h11.83c3.38,0,6.41.76,9.07,2.29,2.67,1.52,4.75,3.69,6.25,6.5s2.25,6,2.25,9.58v1.77c0,3.58-.74,6.75-2.21,9.54-1.47,2.78-3.54,4.94-6.22,6.47s-5.7,2.31-9.06,2.33h-11.91ZM204.74,86.96v25.68h3.83c3.1,0,5.47-1.01,7.11-3.04,1.64-2.02,2.47-4.92,2.51-8.69v-2.03c0-3.91-.81-6.87-2.43-8.89s-3.99-3.02-7.11-3.02h-3.91Z"/>
        <path class="cls-12" d="M244.63,119.53c-4.19,0-7.6-1.29-10.24-3.86-2.63-2.57-3.95-6-3.95-10.28v-.74c0-2.87.55-5.44,1.66-7.7,1.11-2.26,2.68-4.01,4.72-5.23,2.03-1.22,4.35-1.84,6.96-1.84,3.91,0,6.99,1.23,9.23,3.7,2.25,2.47,3.37,5.96,3.37,10.49v3.12h-18.2c.25,1.87.99,3.36,2.23,4.49,1.24,1.13,2.81,1.69,4.72,1.69,2.94,0,5.24-1.07,6.9-3.2l3.75,4.2c-1.14,1.62-2.69,2.88-4.65,3.79s-4.12,1.36-6.5,1.36ZM243.76,96.05c-1.51,0-2.74.51-3.68,1.54-.94,1.03-1.55,2.49-1.81,4.4h10.62v-.61c-.04-1.7-.49-3.01-1.37-3.94s-2.13-1.39-3.75-1.39Z"/>
        <path class="cls-12" d="M269.86,83.4v7.03h4.89v5.6h-4.89v14.27c0,1.06.2,1.81.61,2.27.41.46,1.18.69,2.33.69.84,0,1.59-.06,2.25-.19v5.79c-1.5.46-3.04.69-4.62.69-5.35,0-8.08-2.7-8.19-8.11v-15.4h-4.17v-5.6h4.17v-7.03h7.63Z"/>
        <path class="cls-12" d="M295.57,119.01c-.35-.69-.61-1.54-.77-2.56-1.85,2.06-4.25,3.09-7.21,3.09-2.8,0-5.12-.81-6.96-2.43-1.84-1.62-2.76-3.66-2.76-6.13,0-3.03,1.12-5.35,3.37-6.97,2.25-1.62,5.49-2.44,9.74-2.46h3.51v-1.64c0-1.32-.34-2.38-1.02-3.17-.68-.79-1.75-1.19-3.21-1.19-1.29,0-2.29.31-3.02.92-.73.62-1.1,1.46-1.1,2.54h-7.63c0-1.66.51-3.19,1.53-4.6,1.02-1.41,2.47-2.51,4.33-3.32,1.87-.8,3.96-1.2,6.29-1.2,3.52,0,6.32.88,8.39,2.65,2.07,1.77,3.1,4.26,3.1,7.46v12.39c.02,2.71.4,4.76,1.14,6.16v.45h-7.71ZM289.25,113.7c1.13,0,2.17-.25,3.12-.75s1.66-1.18,2.11-2.02v-4.91h-2.85c-3.82,0-5.86,1.32-6.1,3.96l-.03.45c0,.95.33,1.74,1,2.35.67.62,1.58.92,2.75.92Z"/>
        <path class="cls-12" d="M307.96,83.03c0-1.14.38-2.09,1.15-2.83.77-.74,1.81-1.11,3.13-1.11s2.34.37,3.12,1.11c.77.74,1.16,1.68,1.16,2.83s-.39,2.11-1.18,2.85c-.78.74-1.82,1.11-3.1,1.11s-2.32-.37-3.1-1.11c-.78-.74-1.18-1.69-1.18-2.85ZM316.07,119.01h-7.66v-28.58h7.66v28.58Z"/>
        <path class="cls-12" d="M330.41,119.01h-7.66v-40.58h7.66v40.58Z"/>
        <path class="cls-12" d="M349.86,119.53c-4.19,0-7.6-1.29-10.24-3.86-2.63-2.57-3.95-6-3.95-10.28v-.74c0-2.87.55-5.44,1.66-7.7,1.11-2.26,2.68-4.01,4.72-5.23,2.03-1.22,4.35-1.84,6.96-1.84,3.91,0,6.99,1.23,9.23,3.7s3.37,5.96,3.37,10.49v3.12h-18.2c.25,1.87.99,3.36,2.23,4.49,1.24,1.13,2.81,1.69,4.72,1.69,2.94,0,5.24-1.07,6.9-3.2l3.75,4.2c-1.14,1.62-2.69,2.88-4.65,3.79s-4.12,1.36-6.5,1.36ZM348.99,96.05c-1.51,0-2.74.51-3.68,1.54-.94,1.03-1.55,2.49-1.81,4.4h10.62v-.61c-.04-1.7-.49-3.01-1.37-3.94-.88-.93-2.13-1.39-3.75-1.39Z"/>
        <path class="cls-12" d="M364.76,104.5c0-4.46,1-8,3-10.65,2-2.64,4.73-3.96,8.2-3.96,2.78,0,5.08,1.04,6.89,3.12v-14.58h7.66v40.58h-6.89l-.37-3.04c-1.9,2.38-4.35,3.57-7.34,3.57-3.37,0-6.06-1.33-8.1-3.98s-3.05-6.34-3.05-11.06ZM372.39,105.07c0,2.68.47,4.74,1.4,6.17.93,1.43,2.29,2.14,4.07,2.14,2.36,0,4.02-1,4.99-2.99v-11.3c-.95-1.99-2.6-2.99-4.94-2.99-3.68,0-5.52,2.99-5.52,8.97Z"/>
        <path class="cls-12" d="M410.41,119.01v-38.46h11.83c3.38,0,6.41.76,9.07,2.29,2.67,1.52,4.75,3.69,6.25,6.5s2.25,6,2.25,9.58v1.77c0,3.58-.74,6.75-2.21,9.54-1.47,2.78-3.54,4.94-6.22,6.47s-5.7,2.31-9.06,2.33h-11.91ZM418.33,86.96v25.68h3.83c3.1,0,5.47-1.01,7.11-3.04,1.64-2.02,2.47-4.92,2.51-8.69v-2.03c0-3.91-.81-6.87-2.43-8.89-1.62-2.02-3.99-3.02-7.11-3.02h-3.91Z"/>
        <path class="cls-12" d="M458.23,119.53c-4.19,0-7.6-1.29-10.24-3.86-2.63-2.57-3.95-6-3.95-10.28v-.74c0-2.87.55-5.44,1.66-7.7,1.11-2.26,2.68-4.01,4.72-5.23,2.03-1.22,4.35-1.84,6.96-1.84,3.91,0,6.99,1.23,9.23,3.7s3.37,5.96,3.37,10.49v3.12h-18.2c.25,1.87.99,3.36,2.23,4.49,1.24,1.13,2.81,1.69,4.72,1.69,2.94,0,5.24-1.07,6.9-3.2l3.75,4.2c-1.14,1.62-2.69,2.88-4.65,3.79s-4.12,1.36-6.5,1.36ZM457.35,96.05c-1.51,0-2.74.51-3.68,1.54-.94,1.03-1.55,2.49-1.81,4.4h10.62v-.61c-.04-1.7-.49-3.01-1.37-3.94-.88-.93-2.13-1.39-3.75-1.39Z"/>
        <path class="cls-12" d="M489.79,111.11c0-.93-.46-1.67-1.39-2.21s-2.41-1.02-4.45-1.44c-6.8-1.43-10.2-4.31-10.2-8.67,0-2.54,1.05-4.65,3.16-6.35,2.1-1.7,4.86-2.55,8.25-2.55,3.63,0,6.53.85,8.71,2.56,2.17,1.71,3.26,3.93,3.26,6.66h-7.63c0-1.09-.35-2-1.06-2.71-.71-.71-1.81-1.07-3.3-1.07-1.29,0-2.28.29-2.99.87s-1.06,1.32-1.06,2.22c0,.85.4,1.53,1.2,2.05.8.52,2.15.97,4.05,1.35,1.9.38,3.5.81,4.81,1.28,4.03,1.48,6.05,4.04,6.05,7.69,0,2.61-1.12,4.72-3.35,6.33-2.24,1.61-5.13,2.42-8.67,2.42-2.39,0-4.52-.43-6.38-1.28s-3.32-2.03-4.37-3.51-1.58-3.09-1.58-4.82h7.24c.07,1.36.57,2.4,1.51,3.12.93.72,2.18,1.08,3.75,1.08,1.46,0,2.57-.28,3.32-.83.75-.55,1.12-1.28,1.12-2.18Z"/>
        <path class="cls-12" d="M502.08,83.03c0-1.14.38-2.09,1.15-2.83.77-.74,1.81-1.11,3.13-1.11s2.34.37,3.12,1.11c.78.74,1.16,1.68,1.16,2.83s-.39,2.11-1.18,2.85c-.78.74-1.82,1.11-3.1,1.11s-2.32-.37-3.1-1.11c-.78-.74-1.17-1.69-1.17-2.85ZM510.19,119.01h-7.66v-28.58h7.66v28.58Z"/>
        <path class="cls-12" d="M515.37,104.5c0-4.38,1.04-7.92,3.13-10.59,2.09-2.68,4.9-4.01,8.44-4.01,3.13,0,5.57,1.07,7.32,3.22l.32-2.69h6.92v27.63c0,2.5-.57,4.68-1.7,6.53-1.14,1.85-2.73,3.26-4.79,4.23s-4.47,1.45-7.24,1.45c-2.1,0-4.14-.42-6.13-1.25s-3.5-1.92-4.52-3.24l3.38-4.65c1.9,2.13,4.21,3.2,6.92,3.2,2.02,0,3.6-.54,4.73-1.62s1.69-2.62,1.69-4.61v-1.53c-1.76,1.99-4.08,2.99-6.95,2.99-3.43,0-6.21-1.34-8.33-4.03-2.12-2.69-3.18-6.25-3.18-10.69v-.32ZM523,105.07c0,2.59.52,4.63,1.56,6.1,1.04,1.47,2.47,2.21,4.28,2.21,2.33,0,3.99-.87,4.99-2.62v-12.04c-1.02-1.75-2.67-2.62-4.94-2.62-1.83,0-3.27.75-4.32,2.25-1.05,1.5-1.57,3.74-1.57,6.72Z"/>
        <path class="cls-12" d="M554.39,90.42l.24,3.3c2.04-2.55,4.78-3.83,8.21-3.83,3.03,0,5.28.89,6.76,2.67s2.24,4.44,2.27,7.98v18.47h-7.63v-18.28c0-1.62-.35-2.8-1.06-3.53-.7-.73-1.88-1.1-3.51-1.1-2.15,0-3.76.92-4.83,2.75v20.16h-7.63v-28.58h7.19Z"/>
      </g>
      <g class="cls-11">
        <rect class="cls-7" x="139.64" y="109.44" width="34.11" height="37.97" transform="translate(-37.09 187.54) rotate(-56.3)"/>
      </g>
      <g class="cls-9">
        <rect class="cls-6" x="138.57" y="127.54" width="19.78" height="30.31" transform="translate(-16.07 18.87) rotate(-6.9)"/>
      </g>
      <g class="cls-10">
        <rect class="cls-5" x="148.85" y="126.98" width="32.17" height="31.42" transform="translate(-51.7 167.89) rotate(-47.5)"/>
      </g>
      <line class="cls-2" x1="140.22" y1="43.16" x2="632.61" y2="43.16"/>
      <line class="cls-3" x1="21.37" y1="175.07" x2="170.25" y2="175.07"/>
    </g>
  </g>
</svg>