<?xml version="1.0" encoding="UTF-8"?>
<svg id="Layer_2" data-name="Layer 2" xmlns="http://www.w3.org/2000/svg" xmlns:xlink="http://www.w3.org/1999/xlink" viewBox="0 0 373.47 613.21">
  <defs>
    <style>
      .cls-1 {
        fill: none;
      }

      .cls-2 {
        fill: #f5f6f7;
      }

      .cls-3 {
        mask: url(#mask);
      }

      .cls-4 {
        filter: url(#luminosity-noclip);
      }

      .cls-5 {
        fill: #e5ab82;
      }

      .cls-6 {
        fill: #1e7d69;
      }

      .cls-7 {
        fill: #57241d;
      }

      .cls-8 {
        fill: url(#_ÂÁ_Ï_ÌÌ_È_ËÂÌÚ_4-4);
      }

      .cls-9 {
        fill: url(#_ÂÁ_Ï_ÌÌ_È_ËÂÌÚ_4-5);
      }

      .cls-10 {
        fill: url(#_ÂÁ_Ï_ÌÌ_È_ËÂÌÚ_4-2);
      }

      .cls-11 {
        fill: url(#_ÂÁ_Ï_ÌÌ_È_ËÂÌÚ_4-3);
      }

      .cls-12 {
        fill: url(#_ÂÁ_Ï_ÌÌ_È_ËÂÌÚ_4-8);
      }

      .cls-13 {
        fill: url(#_ÂÁ_Ï_ÌÌ_È_ËÂÌÚ_4-9);
      }

      .cls-14 {
        fill: url(#_ÂÁ_Ï_ÌÌ_È_ËÂÌÚ_4-6);
      }

      .cls-15 {
        fill: url(#_ÂÁ_Ï_ÌÌ_È_ËÂÌÚ_4-7);
      }

      .cls-16 {
        filter: url(#luminosity-noclip-3);
      }

      .cls-17 {
        filter: url(#luminosity-noclip-4);
      }

      .cls-18 {
        filter: url(#luminosity-noclip-2);
      }

      .cls-19 {
        fill: #8c403c;
      }

      .cls-20 {
        fill: #df7925;
      }

      .cls-21 {
        fill: #ed5138;
      }

      .cls-22 {
        fill: url(#_ÂÁ_Ï_ÌÌ_È_ËÂÌÚ_4);
      }

      .cls-23 {
        fill: #ffd367;
      }

      .cls-24 {
        mask: url(#mask-2);
      }

      .cls-25 {
        mask: url(#mask-3);
      }

      .cls-26 {
        mask: url(#mask-1);
      }

      .cls-27 {
        fill: #54162a;
        opacity: .5;
      }

      .cls-28 {
        fill: #23624b;
      }

      .cls-29 {
        fill: #ffe493;
      }

      .cls-30 {
        fill: #f59220;
      }

      .cls-31 {
        fill: #ffda7d;
      }

      .cls-32 {
        fill: #268974;
      }

      .cls-33 {
        fill: url(#_ÂÁ_Ï_ÌÌ_È_ËÂÌÚ_4-14);
      }

      .cls-34 {
        fill: url(#_ÂÁ_Ï_ÌÌ_È_ËÂÌÚ_4-13);
      }

      .cls-35 {
        fill: url(#_ÂÁ_Ï_ÌÌ_È_ËÂÌÚ_4-16);
      }

      .cls-36 {
        fill: url(#_ÂÁ_Ï_ÌÌ_È_ËÂÌÚ_4-15);
      }

      .cls-37 {
        fill: url(#_ÂÁ_Ï_ÌÌ_È_ËÂÌÚ_4-18);
      }

      .cls-38 {
        fill: url(#_ÂÁ_Ï_ÌÌ_È_ËÂÌÚ_4-17);
      }

      .cls-39 {
        fill: url(#_ÂÁ_Ï_ÌÌ_È_ËÂÌÚ_4-10);
      }

      .cls-40 {
        fill: url(#_ÂÁ_Ï_ÌÌ_È_ËÂÌÚ_4-12);
      }

      .cls-41 {
        fill: url(#_ÂÁ_Ï_ÌÌ_È_ËÂÌÚ_4-11);
      }

      .cls-42 {
        clip-path: url(#clippath);
      }
    </style>
    <clipPath id="clippath">
      <rect class="cls-1" y="0" width="373.47" height="613.21"/>
    </clipPath>
    <linearGradient id="_ÂÁ_Ï_ÌÌ_È_ËÂÌÚ_4" data-name="¡ÂÁ˚ÏˇÌÌ˚È „‡‰ËÂÌÚ 4" x1="248.48" y1="529.21" x2="265.65" y2="529.21" gradientUnits="userSpaceOnUse">
      <stop offset="0" stop-color="#e43f25"/>
      <stop offset=".53" stop-color="#e13e25"/>
      <stop offset=".82" stop-color="#d93b26"/>
      <stop offset=".99" stop-color="#d03927"/>
    </linearGradient>
    <linearGradient id="_ÂÁ_Ï_ÌÌ_È_ËÂÌÚ_4-2" data-name="¡ÂÁ˚ÏˇÌÌ˚È „‡‰ËÂÌÚ 4" x1="208.87" y1="531.32" x2="215.18" y2="519.33" xlink:href="#_ÂÁ_Ï_ÌÌ_È_ËÂÌÚ_4"/>
    <linearGradient id="_ÂÁ_Ï_ÌÌ_È_ËÂÌÚ_4-3" data-name="¡ÂÁ˚ÏˇÌÌ˚È „‡‰ËÂÌÚ 4" x1="211.73" y1="535.91" x2="215.93" y2="529.82" xlink:href="#_ÂÁ_Ï_ÌÌ_È_ËÂÌÚ_4"/>
    <linearGradient id="_ÂÁ_Ï_ÌÌ_È_ËÂÌÚ_4-4" data-name="¡ÂÁ˚ÏˇÌÌ˚È „‡‰ËÂÌÚ 4" x1="223.96" y1="495.89" x2="268.02" y2="489.25" xlink:href="#_ÂÁ_Ï_ÌÌ_È_ËÂÌÚ_4"/>
    <linearGradient id="_ÂÁ_Ï_ÌÌ_È_ËÂÌÚ_4-5" data-name="¡ÂÁ˚ÏˇÌÌ˚È „‡‰ËÂÌÚ 4" x1="189.35" y1="498.54" x2="195.19" y2="498.54" xlink:href="#_ÂÁ_Ï_ÌÌ_È_ËÂÌÚ_4"/>
    <linearGradient id="_ÂÁ_Ï_ÌÌ_È_ËÂÌÚ_4-6" data-name="¡ÂÁ˚ÏˇÌÌ˚È „‡‰ËÂÌÚ 4" x1="202.71" y1="506.48" x2="208.55" y2="506.48" xlink:href="#_ÂÁ_Ï_ÌÌ_È_ËÂÌÚ_4"/>
    <linearGradient id="_ÂÁ_Ï_ÌÌ_È_ËÂÌÚ_4-7" data-name="¡ÂÁ˚ÏˇÌÌ˚È „‡‰ËÂÌÚ 4" x1="216.5" y1="514.55" x2="222.34" y2="514.55" xlink:href="#_ÂÁ_Ï_ÌÌ_È_ËÂÌÚ_4"/>
    <linearGradient id="_ÂÁ_Ï_ÌÌ_È_ËÂÌÚ_4-8" data-name="¡ÂÁ˚ÏˇÌÌ˚È „‡‰ËÂÌÚ 4" x1="230.13" y1="522.61" x2="235.97" y2="522.61" xlink:href="#_ÂÁ_Ï_ÌÌ_È_ËÂÌÚ_4"/>
    <linearGradient id="_ÂÁ_Ï_ÌÌ_È_ËÂÌÚ_4-9" data-name="¡ÂÁ˚ÏˇÌÌ˚È „‡‰ËÂÌÚ 4" x1="243.76" y1="530.58" x2="249.59" y2="530.58" xlink:href="#_ÂÁ_Ï_ÌÌ_È_ËÂÌÚ_4"/>
    <linearGradient id="_ÂÁ_Ï_ÌÌ_È_ËÂÌÚ_4-10" data-name="¡ÂÁ˚ÏˇÌÌ˚È „‡‰ËÂÌÚ 4" x1="159.4" y1="476.99" x2="176.57" y2="476.99" xlink:href="#_ÂÁ_Ï_ÌÌ_È_ËÂÌÚ_4"/>
    <linearGradient id="_ÂÁ_Ï_ÌÌ_È_ËÂÌÚ_4-11" data-name="¡ÂÁ˚ÏˇÌÌ˚È „‡‰ËÂÌÚ 4" x1="119.79" y1="479.1" x2="126.1" y2="467.12" xlink:href="#_ÂÁ_Ï_ÌÌ_È_ËÂÌÚ_4"/>
    <linearGradient id="_ÂÁ_Ï_ÌÌ_È_ËÂÌÚ_4-12" data-name="¡ÂÁ˚ÏˇÌÌ˚È „‡‰ËÂÌÚ 4" x1="122.65" y1="483.69" x2="126.85" y2="477.6" xlink:href="#_ÂÁ_Ï_ÌÌ_È_ËÂÌÚ_4"/>
    <linearGradient id="_ÂÁ_Ï_ÌÌ_È_ËÂÌÚ_4-13" data-name="¡ÂÁ˚ÏˇÌÌ˚È „‡‰ËÂÌÚ 4" x1="134.88" y1="443.68" x2="178.94" y2="437.03" xlink:href="#_ÂÁ_Ï_ÌÌ_È_ËÂÌÚ_4"/>
    <linearGradient id="_ÂÁ_Ï_ÌÌ_È_ËÂÌÚ_4-14" data-name="¡ÂÁ˚ÏˇÌÌ˚È „‡‰ËÂÌÚ 4" x1="100.28" y1="446.32" x2="106.11" y2="446.32" xlink:href="#_ÂÁ_Ï_ÌÌ_È_ËÂÌÚ_4"/>
    <linearGradient id="_ÂÁ_Ï_ÌÌ_È_ËÂÌÚ_4-15" data-name="¡ÂÁ˚ÏˇÌÌ˚È „‡‰ËÂÌÚ 4" x1="113.64" y1="454.26" x2="119.47" y2="454.26" xlink:href="#_ÂÁ_Ï_ÌÌ_È_ËÂÌÚ_4"/>
    <linearGradient id="_ÂÁ_Ï_ÌÌ_È_ËÂÌÚ_4-16" data-name="¡ÂÁ˚ÏˇÌÌ˚È „‡‰ËÂÌÚ 4" x1="127.43" y1="462.33" x2="133.26" y2="462.33" xlink:href="#_ÂÁ_Ï_ÌÌ_È_ËÂÌÚ_4"/>
    <linearGradient id="_ÂÁ_Ï_ÌÌ_È_ËÂÌÚ_4-17" data-name="¡ÂÁ˚ÏˇÌÌ˚È „‡‰ËÂÌÚ 4" x1="141.05" y1="470.39" x2="146.89" y2="470.39" xlink:href="#_ÂÁ_Ï_ÌÌ_È_ËÂÌÚ_4"/>
    <linearGradient id="_ÂÁ_Ï_ÌÌ_È_ËÂÌÚ_4-18" data-name="¡ÂÁ˚ÏˇÌÌ˚È „‡‰ËÂÌÚ 4" x1="154.68" y1="478.36" x2="160.51" y2="478.36" xlink:href="#_ÂÁ_Ï_ÌÌ_È_ËÂÌÚ_4"/>
    <filter id="luminosity-noclip" x="128.23" y="159.45" width="19.65" height="238.29" color-interpolation-filters="sRGB" filterUnits="userSpaceOnUse">
      <feFlood flood-color="#fff" result="bg"/>
      <feBlend in="SourceGraphic" in2="bg"/>
    </filter>
    <mask id="mask" x="128.23" y="159.45" width="19.65" height="238.29" maskUnits="userSpaceOnUse">
      <g class="cls-4">
        <rect x="131.01" y="159.45" width="16.86" height="238.29"/>
      </g>
    </mask>
    <filter id="luminosity-noclip-2" x="116.07" y="152.46" width="19.65" height="238.29" color-interpolation-filters="sRGB" filterUnits="userSpaceOnUse">
      <feFlood flood-color="#fff" result="bg"/>
      <feBlend in="SourceGraphic" in2="bg"/>
    </filter>
    <mask id="mask-1" x="116.07" y="152.46" width="19.65" height="238.29" maskUnits="userSpaceOnUse">
      <g class="cls-18">
        <rect x="118.86" y="152.46" width="16.86" height="238.29"/>
      </g>
    </mask>
    <filter id="luminosity-noclip-3" x="174.06" y="163.86" width="19.65" height="238.29" color-interpolation-filters="sRGB" filterUnits="userSpaceOnUse">
      <feFlood flood-color="#fff" result="bg"/>
      <feBlend in="SourceGraphic" in2="bg"/>
    </filter>
    <mask id="mask-2" x="174.06" y="163.86" width="19.65" height="238.29" maskUnits="userSpaceOnUse">
      <g class="cls-16">
        <rect x="174.06" y="163.86" width="16.86" height="238.29" transform="translate(364.99 566.01) rotate(-180)"/>
      </g>
    </mask>
    <filter id="luminosity-noclip-4" x="188.41" y="159.55" width="19.65" height="238.29" color-interpolation-filters="sRGB" filterUnits="userSpaceOnUse">
      <feFlood flood-color="#fff" result="bg"/>
      <feBlend in="SourceGraphic" in2="bg"/>
    </filter>
    <mask id="mask-3" x="188.41" y="159.55" width="19.65" height="238.29" maskUnits="userSpaceOnUse">
      <g class="cls-17">
        <rect x="188.41" y="159.55" width="16.86" height="238.29" transform="translate(393.69 557.4) rotate(-180)"/>
      </g>
    </mask>
  </defs>
  <g id="bg">
    <g class="cls-42">
      <polygon class="cls-29" points="372.87 161.79 2 385.07 372.87 608.34 372.87 161.79"/>
      <polygon class="cls-29" points="372.86 5.4 134.87 148.68 372.86 291.96 372.86 5.4"/>
    </g>
    <g>
      <g>
        <g>
          <path class="cls-22" d="M265.65,538.07v-2.83l-4.45-5.21c-.22-.41-.36-.86-.4-1.32l-1.29-16.62-.79-1.72-5.72,3.37-.6,2-.38,17.41c0,.39-.08.78-.2,1.16l-3.35,10.62v3.16l3.16-1.77,1.05-2.47,9.03-5.32,1.45,1.01,2.48-1.46Z"/>
          <path class="cls-27" d="M265.65,538.07v-2.83l-4.45-5.21c-.22-.41-.36-.86-.4-1.32l-1.29-16.62-.79-1.72-5.72,3.37-.6,2-.38,17.41c0,.39-.08.78-.2,1.16l-3.35,10.62v3.16l3.16-1.77,1.05-2.47,9.03-5.32,1.45,1.01,2.48-1.46Z"/>
          <path class="cls-10" d="M251.82,534.29l-3.34,10.62-61.7-34.26-.96-2.63,3.35-10.62c.12-.37.19-.76.2-1.16l.38-17.41,7.75,4.56,54.91,32.32-.38,17.41c0,.4-.08.79-.2,1.16Z"/>
          <polygon class="cls-11" points="185.82 511.19 248.48 548.07 248.48 544.91 185.82 508.03 185.82 511.19"/>
          <polygon class="cls-8" points="190.35 476.84 253 513.73 252.4 515.72 189.75 478.84 190.35 476.84"/>
          <polygon class="cls-21" points="253 513.73 258.72 510.35 196.07 473.47 190.35 476.84 253 513.73"/>
        </g>
        <g>
          <path class="cls-27" d="M195.19,487.1s.22,12.19-2.35,21.91l-2.31,1.76s4.55-18.88,4.12-23.65l.54-.02Z"/>
          <path class="cls-9" d="M195.19,487.1s-2.09,13.95-4.66,23.67l-1.17-.69s4.55-19,4.12-23.77l1.72.8Z"/>
        </g>
        <g>
          <path class="cls-27" d="M208.55,495.04s.22,12.19-2.35,21.91l-2.31,1.76s4.55-18.88,4.12-23.65l.54-.02Z"/>
          <path class="cls-14" d="M208.55,495.04s-2.09,13.95-4.66,23.67l-1.17-.69s4.55-19,4.12-23.77l1.72.8Z"/>
        </g>
        <g>
          <path class="cls-27" d="M222.34,503.12s.22,12.19-2.35,21.91l-2.31,1.76s4.55-18.88,4.12-23.65l.54-.02Z"/>
          <path class="cls-15" d="M222.34,503.12s-2.09,13.95-4.66,23.67l-1.17-.69s4.55-19,4.12-23.77l1.72.8Z"/>
        </g>
        <g>
          <path class="cls-27" d="M235.97,511.17s.22,12.19-2.35,21.91l-2.31,1.76s4.55-18.88,4.12-23.65l.54-.02Z"/>
          <path class="cls-12" d="M235.97,511.17s-2.09,13.95-4.66,23.67l-1.17-.69s4.55-19,4.12-23.77l1.72.8Z"/>
        </g>
        <g>
          <path class="cls-27" d="M249.59,519.14s.22,12.19-2.35,21.91l-2.31,1.76s4.55-18.88,4.12-23.65l.54-.02Z"/>
          <path class="cls-13" d="M249.59,519.14s-2.09,13.95-4.66,23.67l-1.17-.69s4.55-19,4.12-23.77l1.72.8Z"/>
        </g>
      </g>
      <g>
        <g>
          <path class="cls-39" d="M176.57,485.85v-2.83l-4.45-5.21c-.22-.41-.36-.86-.4-1.32l-1.29-16.62-.79-1.72-5.72,3.37-.6,2-.38,17.41c0,.39-.08.78-.2,1.16l-3.35,10.62v3.16l3.16-1.77,1.05-2.47,9.03-5.32,1.45,1.01,2.48-1.46Z"/>
          <path class="cls-27" d="M176.57,485.85v-2.83l-4.45-5.21c-.22-.41-.36-.86-.4-1.32l-1.29-16.62-.79-1.72-5.72,3.37-.6,2-.38,17.41c0,.39-.08.78-.2,1.16l-3.35,10.62v3.16l3.16-1.77,1.05-2.47,9.03-5.32,1.45,1.01,2.48-1.46Z"/>
          <path class="cls-41" d="M162.74,482.07l-3.34,10.62-61.7-34.26-.96-2.63,3.35-10.62c.12-.37.19-.76.2-1.16l.38-17.41,7.75,4.56,54.91,32.32-.38,17.41c0,.4-.08.79-.2,1.16Z"/>
          <polygon class="cls-40" points="96.74 458.97 159.4 495.85 159.4 492.69 96.74 455.81 96.74 458.97"/>
          <polygon class="cls-34" points="101.27 424.63 163.92 461.51 163.33 463.51 100.67 426.62 101.27 424.63"/>
          <polygon class="cls-21" points="163.92 461.51 169.65 458.14 106.99 421.25 101.27 424.63 163.92 461.51"/>
        </g>
        <g>
          <path class="cls-27" d="M106.11,434.88s.22,12.19-2.35,21.91l-2.31,1.76s4.55-18.88,4.12-23.65l.54-.02Z"/>
          <path class="cls-33" d="M106.11,434.88s-2.09,13.95-4.66,23.67l-1.17-.69s4.55-19,4.12-23.77l1.72.8Z"/>
        </g>
        <g>
          <path class="cls-27" d="M119.47,442.82s.22,12.19-2.35,21.91l-2.31,1.76s4.55-18.88,4.12-23.65l.54-.02Z"/>
          <path class="cls-36" d="M119.47,442.82s-2.09,13.95-4.66,23.67l-1.17-.69s4.55-19,4.12-23.77l1.72.8Z"/>
        </g>
        <g>
          <path class="cls-27" d="M133.26,450.9s.22,12.19-2.35,21.91l-2.31,1.76s4.55-18.88,4.12-23.65l.54-.02Z"/>
          <path class="cls-35" d="M133.26,450.9s-2.09,13.95-4.66,23.67l-1.17-.69s4.55-19,4.12-23.77l1.72.8Z"/>
        </g>
        <g>
          <path class="cls-27" d="M146.89,458.95s.22,12.19-2.35,21.91l-2.31,1.76s4.55-18.88,4.12-23.65l.54-.02Z"/>
          <path class="cls-38" d="M146.89,458.95s-2.09,13.95-4.66,23.67l-1.17-.69s4.55-19,4.12-23.77l1.72.8Z"/>
        </g>
        <g>
          <path class="cls-27" d="M160.51,466.93s.22,12.19-2.35,21.91l-2.31,1.76s4.55-18.88,4.12-23.65l.54-.02Z"/>
          <path class="cls-37" d="M160.51,466.93s-2.09,13.95-4.66,23.67l-1.17-.69s4.55-19,4.12-23.77l1.72.8Z"/>
        </g>
      </g>
    </g>
  </g>
  <g id="Text">
    <g>
      <g>
        <path class="cls-28" d="M287.23,380.91c-.14-.14-.33-.21-.53-.24.02-.06.03-.13.05-.2.05-.2.12-.46.05-.67.2-.05.38-.19.47-.37.21-.43-.12-.82-.52-.95.02-.03.04-.07.05-.12.04-.18-.01-.38-.09-.56.49-.32.57-1.22.3-1.67,0,0,0,0,0,0,.17-.27.06-.66-.08-.91-.06-.11-.15-.2-.24-.28-.06-.16-.2-.23-.36-.23.08-.12.11-.27.07-.45-.09-.42-.47-.56-.85-.57,0-.14-.02-.28-.1-.36.23-.1.4-.31.35-.61-.05-.36-.34-.47-.63-.43.2-.18.34-.46.36-.71.03-.33-.19-.43-.45-.39.22-.21.29-.51.11-.8-.12-.2-.32-.29-.52-.3,0-.06-.02-.12-.04-.17-.06-.19-.18-.38-.37-.45-.02,0-.05-.01-.07-.02-.06-.14-.2-.25-.44-.29-.36-.07-.51.25-.53.61-.06,0-.11,0-.17,0-.11-.22-.26-.37-.49-.28-.11.04-.18.1-.24.17-.25.07-.52.27-.73.51-.44-.14-.78.18-.89.59-.25-.13-.58-.11-.85.13-.07.06-.15.23-.21.43-.04-.02-.07-.03-.1-.04-.55-.11-.89.38-.95.89-.21,0-.46.14-.59.39-.16-.1-.37-.13-.62-.01-.21.1-.41.33-.5.57-.4-.06-.96.19-1.15.66-.13-.04-.3,0-.47.17-.07.07-.13.14-.17.21-.03,0-.07,0-.1,0-.22,0-.44.16-.6.37-.1-.08-.23-.11-.37-.08-.18.05-.31.15-.39.27-.08-.04-.18-.05-.32-.01-.25.07-.37.22-.41.39-.23-.14-.52-.17-.79-.04-.65.32-.25.72.21.95-.05.06-.07.13-.04.2-.22.1-.29.41-.13.6-.05.34.09.55.32.68-.2.21-.2.59.04.81-.14.17-.15.4-.01.55-.19.22-.19.61.06.84v.08c-.38.26-.44.84-.1,1.15-.22.23-.28.63-.04.85-.02.08-.01.16.02.24-.26.22-.44.7-.14.93-.03.09-.04.2-.03.31-.07-.02-.14.02-.16.08-.05.2-.14.75.08.91.02.1.07.18.15.26-.28.21-.41.72-.06.97-.08.1-.12.23-.09.35,0,.03.02.06.04.09,0,.07.03.13.06.17-.14.2-.2.47-.08.66-.29.16-.38.57-.21.83-.24.24-.41.63-.26.94-.09.27-.12.59-.11.79,0,.05.03.1.08.12-.13.16-.22.38-.28.6-.02.06.02.14.09.16.14.03.3,0,.44-.04.11.29.34.55.6.72.2.13.45.19.68.11.24-.08.36-.33.42-.56.35.17.74.32,1.14.27.13-.02.23-.06.32-.13.05.02.11.03.16.05.43.09.75-.09.92-.4.01,0,.03,0,.04-.01.14.28.44.48.79.46.61-.03.7-.64.74-1.15.06-.03.11-.08.16-.13.29.15.65.18.95.06.25-.1.32-.29.29-.49.44.25,1.23.11,1.31-.4.03.02.06.03.1.04.07.04.14.08.22.11.02,0,.04.01.06.02.28.34.73.5,1.06.1.08-.1.15-.22.19-.35.35-.05.4-.52.41-.89.13.2.37.28.65.13.3-.15.43-.46.39-.76.21.17.54.19.8.07.32-.15.46-.41.4-.7.11.1.25.16.41.14.21-.03.34-.25.41-.42.09-.24.09-.5-.01-.7.17-.15.29-.39.31-.6.01-.13,0-.26-.02-.39.2-.08.33-.25.32-.56,0-.11-.04-.25-.09-.37.05-.02.09-.06.14-.1.23-.23.22-.6.09-.87.82.24,1.6-.82.91-1.48Z"/>
        <path class="cls-6" d="M284.16,369.62c.04-.13,0-.3-.14-.45-.16-.16-.37-.21-.58-.18-.02-.05-.05-.09-.1-.13.2-.08.37-.21.41-.41.09-.38-.38-.38-.74-.34.18-.09.34-.21.48-.37.01-.02.02-.04,0-.06-.31-.32-.77-.33-1.2-.24.19-.16.27-.37.02-.61-.25-.25-.62-.34-.98-.31,0-.01-.02-.02-.03-.03-.13-.17-.39-.37-.62-.46,0-.24-.12-.53-.28-.73-.17-.22-.43-.44-.72-.46-.14-.01-.25.02-.36.08-.04-.12-.11-.24-.17-.32-.16-.2-.39-.37-.65-.39-.09,0-.17,0-.24.03-.04-.15-.11-.3-.21-.42-.15-.19-.37-.39-.62-.42-.23-.03-.38.11-.49.28-.14-.55-.57-.88-1.17-.76-.19.04-.51.19-.65.39-.23-.58-.74-1.1-1.4-1.01-.33.05-.72.25-.85.52-.07-.02-.15,0-.21.04-.09-.17-.28-.17-.46-.07-.64-.23-1.31-.21-1.3.55-.37-.47-.89-.97-1.51-.62-.22.13-.42.36-.5.6-.25-.26-.62-.38-1.02-.3-.41.07-.64.35-.64.68-.27-.29-.7-.33-1.11-.09-.38.23-.53.61-.45.98-.53-.28-1.35.38-1.35.97-.23-.11-.56-.1-.76-.01-.58.25-.68.86-.62,1.42-.32-.37-.77-.32-1.09.1-.17.22-.26.5-.25.77-.4-.28-.97-.27-1.35.14-.29.33-.26.82-.19,1.22.03.16.08.33.15.49,0,.02,0,.05.01.08,0,0,0,0,0,0-.23.02-.42.14-.51.43-.12.37.13.77.45,1.03-.25-.01-.5.09-.67.32-.03.05-.06.1-.07.15-.09.04-.18.1-.26.2-.19.21-.21.46-.1.64-.16,0-.3.09-.37.3-.12.34.15.57.44.67-.21.09-.34.29-.33.55,0,.13.05.22.12.28-.08.08-.14.18-.18.3-.02.05-.03.09-.04.14-.63.22-1.16,1.31-.59,1.77.01.01.03.02.05.04-.11.14-.2.32-.25.47-.04.1-.06.2-.06.3-.61.14-.73.86-.56,1.45.08.27.22.54.42.75-.19.43-.02,1.12.18,1.44,0,.01.01.02.02.04-.16.2-.26.48-.3.68-.08.32.06.69.19.98.06.14.15.3.26.43-.04.05-.08.11-.11.18-.19.39-.1.83.11,1.19.06.11.15.21.25.3-.02.04-.04.09-.05.14-.07.39.29.85.69,1.04,0,.22.03.45.07.64.07.33.35.61.66.73,0,.02-.01.03-.02.05-.16.39-.14.69.12,1.04.11.14.36.35.63.49.03.53.65.89,1.19.8.1.11.24.2.42.25.22.06.51.04.68-.1.06.17.21.3.43.34.24.05.4-.05.49-.22.14.21.5.27.78.24.11-.01.23-.05.35-.1.16.3.61.48.95.52.28.03.62-.02.82-.24.1-.12.13-.26.12-.41.17.13.42.19.66.17.02,0,.03,0,.05,0,0,.31.22.57.61.65.22.05.47.02.65-.13.04-.03.07-.07.1-.12.14.16.36.24.63.23.15,0,.31-.06.43-.15.09.27.36.44.73.44.5,0,.89-.33,1-.77.15.15.45.15.7.05.14-.05.27-.14.36-.23.04-.01.07-.03.1-.04.16-.08.29-.23.37-.39.27-.08.54-.32.61-.58.05-.2-.07-.3-.24-.38.11-.11.19-.27.24-.41.1-.25.13-.59.02-.82.22-.11.39-.42.46-.69.1-.39.06-.85-.19-1.13.12,0,.24-.05.35-.15.21-.22.22-.6.2-.88-.01-.15-.09-.49-.22-.73.67-.22.64-1.5.11-1.88.25-.11.38-.39.39-.74,0-.07,0-.15-.01-.22.05-.02.1-.04.15-.09.33-.27.41-.76.41-1.18.22.28.61.03.81-.22.32-.41.37-.96.09-1.39.75.07.92-.85.64-1.43.68.27,1.04-.7.68-1.25.9.12,1.46-.92,1.29-1.73,0,0,0-.01.01-.02.79.45,1.55-.1,1.79-.86.16-.18.22-.42.13-.72,0,0,0,0,0,0,.59.28,1.33.07,1.84-.3.32-.23.53-.59.4-.89.09-.02.18-.07.26-.16.02-.02.04-.04.05-.06.3.04.62-.23.65-.48.23-.02.34-.49.17-.67Z"/>
        <path class="cls-32" d="M284.16,369.62c.04-.13,0-.3-.14-.45-.16-.16-.37-.21-.58-.18-.02-.05-.05-.09-.1-.13.2-.08.37-.21.41-.41.09-.38-.38-.38-.74-.34.18-.09.34-.21.48-.37.01-.02.02-.04,0-.06-.31-.32-.77-.33-1.2-.24.19-.16.27-.37.02-.61-.25-.25-.62-.34-.98-.31,0-.01-.02-.02-.03-.03-.13-.17-.39-.37-.62-.46,0-.24-.12-.53-.28-.73-.17-.22-.43-.44-.72-.46-.14-.01-.25.02-.36.08-.04-.12-.11-.24-.17-.32-.16-.2-.39-.37-.65-.39-.09,0-.17,0-.24.03-.04-.15-.11-.3-.21-.42-.15-.19-.37-.39-.62-.42-.23-.03-.38.11-.49.28-.14-.55-.57-.88-1.17-.76-.19.04-.51.19-.65.39-.23-.58-.74-1.1-1.4-1.01-.33.05-.72.25-.85.52-.07-.02-.15,0-.21.04-.09-.17-.28-.17-.46-.07-.64-.23-1.31-.21-1.3.55-.37-.47-.89-.97-1.51-.62-.22.13-.42.36-.5.6-.25-.26-.62-.38-1.02-.3-.41.07-.64.35-.64.68-.27-.29-.7-.33-1.11-.09-.38.23-.53.61-.45.98-.53-.28-1.35.38-1.35.97-.23-.11-.56-.1-.76-.01-.58.25-.68.86-.62,1.42-.32-.37-.77-.32-1.09.1-.17.22-.26.5-.25.77-.4-.28-.97-.27-1.35.14-.29.33-.26.82-.19,1.22.03.16.08.33.15.49,0,.02,0,.05.01.08,0,0,0,0,0,0-.23.02-.42.14-.51.43-.12.37.13.77.45,1.03-.25-.01-.5.09-.67.32,0,0,0,.02-.01.02.04.03.08.05.12.08.2.11.49.2.7.07.07-.04.11-.1.14-.17.09.14.23.24.42.27.46.06.62-.37.63-.75.21.34.62.38.99.18.02-.01.05-.02.06-.04.27.24.66.33,1.02.11.26-.16.34-.49.36-.78.05,0,.09-.01.13-.02.32-.06.66-.21.86-.48,0,0,0,0,0,0,.08.05.17.08.27.09.25.02.45-.11.59-.31.07-.11.13-.26.16-.42.37-.12.72-.43.92-.78.24.49.69.93,1.25.63.24-.13.37-.42.4-.71.37-.17.68-.47.82-.84.35.34.79.62,1.14.23.03-.03.06-.07.08-.12.06,0,.12,0,.18,0,.09,0,.18-.02.28-.04-.02.4.06.79.42.9.34.11.61-.24.73-.5.02-.04.03-.08.05-.13.18-.02.34-.09.5-.19.16.41.48.7,1,.54.16-.05.29-.17.39-.34.48.34,1.18.47,1.7.32,0,.31.09.56.42.51.26-.04.38-.37.45-.59,0-.02.01-.04.02-.07.24.18.58.23.85.14.08.13.18.24.32.32.18.11.35.09.49,0,.17.13.38.22.59.27.11.03.23.03.35.03-.1.45-.04.93.54.95.39.01.69-.23.88-.55.09,0,.18-.03.27-.06.01.08.03.17.06.25.07.21.27.43.51.32.23-.1.33-.37.38-.61.13.19.31.33.56.4.47.12.84-.17,1.05-.55.05.35.32.52.67.57-.01-.03-.03-.05-.05-.07Z"/>
      </g>
      <g>
        <path class="cls-28" d="M272.74,395.28c-.14-.14-.33-.21-.52-.24.02-.06.03-.13.05-.2.05-.2.12-.46.05-.66.2-.05.38-.19.47-.37.21-.42-.12-.82-.52-.95.02-.03.04-.07.05-.12.04-.18-.01-.38-.09-.56.49-.32.57-1.21.3-1.66,0,0,0,0,0,0,.17-.27.06-.66-.08-.91-.06-.11-.14-.2-.24-.27-.06-.16-.2-.23-.35-.23.08-.12.11-.27.07-.45-.09-.42-.46-.55-.84-.57,0-.14-.02-.27-.1-.36.23-.1.4-.31.35-.61-.05-.36-.34-.47-.63-.43.2-.19.34-.46.36-.71.03-.33-.19-.43-.44-.39.21-.21.29-.5.11-.79-.12-.19-.32-.29-.52-.3,0-.06-.02-.11-.04-.17-.06-.19-.18-.37-.37-.44-.02,0-.05-.01-.07-.02-.06-.14-.2-.24-.44-.29-.35-.07-.5.25-.53.6-.06,0-.11,0-.17,0-.1-.22-.26-.37-.49-.28-.11.04-.19.1-.24.17-.25.07-.52.27-.73.51-.44-.13-.77.18-.89.59-.25-.13-.58-.11-.84.13-.07.06-.15.23-.2.43-.04-.02-.07-.03-.1-.04-.55-.11-.89.38-.94.89-.21,0-.46.14-.59.39-.16-.1-.37-.12-.62-.01-.21.1-.41.32-.5.57-.4-.06-.96.19-1.15.66-.13-.04-.3,0-.47.17-.07.07-.13.14-.17.21-.03,0-.07,0-.1,0-.22,0-.44.16-.6.36-.1-.08-.23-.11-.37-.07-.18.05-.31.15-.39.26-.08-.04-.18-.05-.31-.01-.25.07-.37.21-.41.39-.23-.14-.52-.17-.79-.03-.65.32-.25.72.21.94-.05.07-.06.13-.04.2-.22.1-.29.41-.13.6-.05.34.09.55.32.67-.2.21-.2.58.04.81-.14.17-.15.4-.01.55-.19.22-.19.61.06.84v.08c-.38.26-.44.84-.1,1.14-.22.23-.28.63-.04.84-.02.08-.01.16.02.23-.26.22-.44.7-.14.92-.03.09-.04.2-.03.3-.06-.02-.14.02-.16.08-.05.2-.14.74.08.91.02.1.07.18.14.26-.28.21-.41.72-.06.96-.08.1-.12.23-.09.35,0,.03.02.06.04.09,0,.07.03.13.06.17-.14.2-.2.47-.08.66-.29.16-.38.57-.21.83-.24.24-.41.63-.25.94-.09.27-.12.59-.11.78,0,.05.03.1.08.12-.13.16-.22.37-.28.6-.02.06.02.14.09.15.14.03.3.01.44-.04.11.29.34.55.6.71.2.13.45.19.68.11.24-.08.36-.33.42-.56.35.17.74.32,1.14.27.13-.02.23-.06.32-.13.05.02.11.03.16.05.43.09.75-.09.92-.4.01,0,.03,0,.04-.01.13.28.44.48.78.46.61-.03.7-.64.74-1.14.06-.03.11-.08.16-.13.29.14.64.18.95.06.25-.1.32-.29.29-.49.44.25,1.22.11,1.31-.39.03.02.06.03.1.04.07.04.14.07.22.1.02,0,.04.01.06.02.27.34.73.5,1.06.1.08-.1.15-.22.19-.35.34-.05.4-.52.41-.89.13.2.37.28.65.13.3-.15.43-.46.39-.75.21.17.54.19.8.07.32-.15.46-.41.4-.69.11.1.25.16.4.14.21-.03.34-.25.41-.42.09-.24.09-.5-.01-.7.17-.14.29-.39.31-.6.01-.13,0-.26-.02-.39.2-.08.33-.25.32-.56,0-.11-.04-.25-.09-.37.05-.02.09-.06.14-.1.23-.23.22-.59.09-.87.82.24,1.6-.81.91-1.48Z"/>
        <path class="cls-6" d="M269.67,384.05c.04-.13,0-.3-.14-.44-.16-.16-.37-.21-.58-.18-.02-.05-.05-.09-.09-.13.2-.08.37-.21.41-.41.09-.38-.38-.38-.74-.34.18-.09.34-.21.48-.37.02-.02.02-.04,0-.06-.31-.32-.77-.33-1.2-.24.19-.15.27-.36.02-.61-.25-.25-.62-.34-.98-.31,0-.01-.02-.02-.03-.03-.13-.17-.39-.37-.63-.46,0-.24-.12-.53-.28-.73-.17-.22-.43-.44-.72-.46-.14-.01-.25.02-.36.08-.04-.12-.11-.23-.17-.32-.16-.2-.39-.36-.65-.39-.09-.01-.17,0-.24.03-.04-.15-.11-.3-.21-.42-.15-.19-.36-.39-.62-.42-.23-.02-.38.1-.48.28-.14-.55-.57-.87-1.16-.76-.19.04-.51.19-.65.39-.23-.58-.74-1.1-1.4-1-.33.05-.72.25-.85.51-.07-.02-.14,0-.21.03-.09-.17-.28-.17-.46-.07-.64-.23-1.31-.21-1.3.55-.37-.47-.89-.97-1.5-.61-.22.13-.42.36-.49.6-.25-.25-.62-.37-1.02-.3-.4.07-.64.35-.64.68-.27-.29-.7-.33-1.1-.09-.38.23-.53.61-.45.97-.52-.28-1.34.38-1.35.97-.23-.11-.56-.1-.76-.02-.58.25-.68.85-.62,1.42-.32-.36-.76-.32-1.08.1-.17.22-.26.5-.25.77-.4-.27-.97-.27-1.35.14-.29.33-.26.81-.19,1.21.03.16.07.33.15.49,0,.02,0,.05.01.08,0,0,0,0,0,0-.23.02-.42.14-.51.43-.12.37.13.77.45,1.02-.25-.01-.5.09-.67.32-.03.05-.06.1-.07.15-.09.04-.18.1-.26.2-.19.21-.21.45-.1.63-.16,0-.3.09-.37.29-.12.34.15.57.44.66-.21.09-.34.29-.33.55,0,.13.05.22.12.28-.08.08-.14.18-.18.3-.02.05-.03.09-.04.14-.63.22-1.16,1.3-.59,1.76.02.01.03.02.05.03-.11.14-.2.32-.25.47-.04.1-.06.2-.06.29-.61.14-.73.86-.56,1.44.08.27.22.54.42.75-.19.43-.02,1.12.18,1.43,0,.01.01.02.02.03-.16.2-.26.48-.3.68-.08.32.06.69.19.98.06.14.15.3.26.43-.04.05-.08.11-.11.18-.18.39-.1.83.11,1.19.06.11.15.21.25.3-.02.04-.04.09-.05.14-.07.39.29.85.69,1.04,0,.22.03.45.07.64.07.32.35.6.66.73,0,.02-.01.03-.02.05-.16.39-.14.69.12,1.03.11.14.36.35.63.49.03.53.65.89,1.19.8.1.11.24.2.42.25.22.06.51.04.68-.1.06.17.21.3.43.34.24.05.4-.05.49-.21.14.21.5.27.78.24.11-.01.24-.05.35-.1.16.3.61.48.95.52.28.03.62-.02.82-.24.1-.12.13-.26.12-.41.18.13.42.19.66.17.02,0,.03,0,.05,0,0,.31.22.56.61.65.22.05.47.02.64-.13.04-.03.07-.07.1-.12.14.16.36.24.63.23.15,0,.31-.06.43-.14.09.27.36.44.73.44.5,0,.88-.33,1-.77.15.15.45.15.7.05.14-.05.27-.14.36-.23.04-.01.07-.03.1-.04.16-.08.29-.23.37-.39.27-.08.54-.32.61-.58.05-.2-.07-.3-.24-.37.11-.11.18-.27.24-.4.1-.25.13-.59.02-.82.22-.11.39-.42.46-.69.1-.39.06-.85-.19-1.12.13,0,.25-.05.35-.15.21-.22.22-.59.2-.88-.01-.15-.09-.49-.22-.73.68-.22.64-1.5.11-1.87.25-.1.38-.39.39-.73,0-.07,0-.15,0-.22.05-.02.1-.04.15-.08.33-.27.41-.76.41-1.18.22.27.61.03.81-.22.32-.41.37-.96.09-1.38.75.07.92-.84.64-1.43.68.27,1.04-.7.68-1.24.9.12,1.46-.91,1.28-1.73,0,0,0-.01.01-.02.79.44,1.55-.1,1.79-.85.15-.18.22-.42.13-.71,0,0,0,0,0,0,.59.27,1.33.07,1.84-.3.32-.23.53-.59.4-.89.09-.01.18-.07.26-.16.02-.02.04-.04.05-.06.3.04.61-.23.65-.48.23-.02.34-.49.17-.67Z"/>
        <path class="cls-32" d="M269.67,384.05c.04-.13,0-.3-.14-.44-.16-.16-.37-.21-.58-.18-.02-.05-.05-.09-.09-.13.2-.08.37-.21.41-.41.09-.38-.38-.38-.74-.34.18-.09.34-.21.48-.37.02-.02.02-.04,0-.06-.31-.32-.77-.33-1.2-.24.19-.15.27-.36.02-.61-.25-.25-.62-.34-.98-.31,0-.01-.02-.02-.03-.03-.13-.17-.39-.37-.63-.46,0-.24-.12-.53-.28-.73-.17-.22-.43-.44-.72-.46-.14-.01-.25.02-.36.08-.04-.12-.11-.23-.17-.32-.16-.2-.39-.36-.65-.39-.09-.01-.17,0-.24.03-.04-.15-.11-.3-.21-.42-.15-.19-.36-.39-.62-.42-.23-.02-.38.1-.48.28-.14-.55-.57-.87-1.16-.76-.19.04-.51.19-.65.39-.23-.58-.74-1.1-1.4-1-.33.05-.72.25-.85.51-.07-.02-.14,0-.21.03-.09-.17-.28-.17-.46-.07-.64-.23-1.31-.21-1.3.55-.37-.47-.89-.97-1.5-.61-.22.13-.42.36-.49.6-.25-.25-.62-.37-1.02-.3-.4.07-.64.35-.64.68-.27-.29-.7-.33-1.1-.09-.38.23-.53.61-.45.97-.52-.28-1.34.38-1.35.97-.23-.11-.56-.1-.76-.02-.58.25-.68.85-.62,1.42-.32-.36-.76-.32-1.08.1-.17.22-.26.5-.25.77-.4-.27-.97-.27-1.35.14-.29.33-.26.81-.19,1.21.03.16.07.33.15.49,0,.02,0,.05.01.08,0,0,0,0,0,0-.23.02-.42.14-.51.43-.12.37.13.77.45,1.02-.25-.01-.5.09-.67.32,0,0,0,.02-.01.02.04.03.08.05.12.08.2.11.48.2.7.07.07-.04.11-.1.14-.17.09.14.23.24.41.26.46.06.62-.36.63-.74.21.34.62.37.99.18.02-.01.04-.02.06-.04.27.24.66.33,1.02.11.26-.16.34-.49.36-.77.05,0,.09-.01.13-.02.32-.06.66-.21.86-.47,0,0,0,0,0,0,.08.05.17.08.27.09.25.02.45-.11.58-.31.08-.11.13-.26.16-.42.37-.12.72-.42.92-.78.24.49.69.92,1.24.62.24-.13.38-.41.4-.7.37-.17.67-.46.82-.83.35.34.79.62,1.14.23.03-.03.06-.07.08-.12.06,0,.12,0,.18,0,.09,0,.18-.02.28-.04-.02.4.06.79.42.9.34.1.61-.24.73-.5.02-.04.03-.08.05-.13.18-.02.34-.09.5-.19.16.4.48.69.99.54.16-.05.29-.18.39-.34.48.34,1.18.47,1.69.31,0,.31.09.56.42.51.26-.04.38-.37.45-.59,0-.02.01-.04.02-.06.24.17.57.23.85.13.08.13.18.24.32.32.18.11.35.09.49,0,.17.13.38.22.59.27.11.03.23.03.35.03-.1.45-.04.93.53.94.39.01.69-.23.87-.55.09,0,.18-.03.27-.06.01.08.03.17.06.24.07.21.27.43.51.32.22-.1.33-.37.38-.6.13.18.31.33.56.39.47.12.84-.17,1.05-.55.04.34.32.52.67.57-.01-.03-.02-.05-.04-.07Z"/>
      </g>
      <g>
        <path class="cls-28" d="M299.47,392.14c-.12-.11-.27-.17-.43-.2.01-.05.03-.11.04-.17.04-.16.1-.38.04-.55.16-.04.31-.16.39-.3.17-.35-.1-.67-.42-.78.02-.03.03-.06.04-.1.03-.15,0-.31-.07-.46.4-.26.47-1,.24-1.37,0,0,0,0,0,0,.14-.22.05-.54-.06-.75-.05-.09-.12-.17-.2-.23-.05-.13-.16-.19-.29-.19.07-.1.09-.22.06-.37-.07-.35-.38-.46-.7-.47,0-.12-.02-.23-.08-.29.19-.08.33-.25.29-.5-.04-.3-.28-.39-.52-.35.16-.15.28-.38.3-.59.02-.27-.15-.35-.37-.32.18-.17.24-.41.09-.65-.1-.16-.26-.24-.43-.25,0-.05-.02-.09-.03-.14-.05-.16-.15-.31-.31-.37-.02,0-.04-.01-.06-.01-.05-.11-.16-.2-.36-.24-.29-.05-.42.2-.44.5-.05,0-.09,0-.14,0-.09-.18-.21-.3-.41-.23-.09.03-.15.08-.2.14-.2.06-.43.22-.6.42-.37-.11-.64.15-.73.48-.21-.1-.48-.09-.7.11-.05.05-.12.19-.17.35-.03-.01-.06-.02-.09-.03-.46-.09-.73.31-.78.73-.18,0-.38.12-.49.32-.13-.09-.31-.1-.51-.01-.17.08-.34.27-.41.47-.33-.05-.79.15-.95.54-.11-.04-.24,0-.39.14-.06.05-.1.11-.14.17-.03,0-.05,0-.08,0-.18,0-.37.13-.49.3-.09-.06-.19-.09-.31-.06-.15.04-.25.12-.32.22-.07-.03-.15-.04-.26-.01-.21.06-.31.18-.34.32-.19-.11-.43-.14-.65-.03-.53.26-.2.59.17.78-.04.05-.05.11-.03.16-.18.08-.24.34-.11.49-.04.28.07.45.26.55-.16.17-.16.48.03.66-.11.14-.12.33-.01.45-.16.18-.16.5.05.69v.06c-.31.21-.36.69-.09.94-.18.19-.23.52-.03.7-.01.06,0,.13.02.19-.21.18-.36.57-.11.76-.02.07-.03.16-.03.25-.05-.02-.11.02-.13.07-.04.17-.12.61.07.75.02.08.06.15.12.21-.23.17-.33.59-.05.79-.06.08-.1.19-.07.29,0,.03.02.05.03.08,0,.05.02.1.05.14-.11.17-.16.39-.06.55-.24.13-.31.47-.18.68-.2.2-.34.52-.21.77-.08.22-.1.49-.09.65,0,.04.03.08.07.1-.11.13-.18.31-.23.49-.01.05.02.12.07.13.12.02.24,0,.36-.03.09.24.28.45.49.59.16.11.37.16.56.09.2-.07.3-.27.35-.46.29.14.61.26.94.22.1-.01.19-.05.26-.1.04.02.09.03.13.04.35.07.62-.07.75-.33.01,0,.02,0,.03,0,.11.23.36.39.65.38.51-.02.57-.52.61-.94.05-.03.09-.06.13-.11.24.12.53.15.78.05.21-.08.26-.24.24-.4.37.21,1.01.09,1.08-.33.02.01.05.02.08.03.06.03.12.06.18.09.02,0,.03.01.05.02.23.28.6.41.87.08.07-.08.12-.18.16-.29.28-.04.33-.43.33-.73.11.17.31.23.54.11.24-.12.36-.38.32-.62.18.14.44.16.66.06.26-.12.38-.34.33-.57.09.08.2.13.33.12.17-.02.28-.2.33-.35.08-.2.07-.41,0-.58.14-.12.24-.32.26-.49.01-.1,0-.21-.01-.32.16-.06.27-.21.27-.46,0-.09-.03-.2-.08-.31.04-.02.08-.05.12-.08.19-.19.18-.49.07-.71.67.19,1.31-.67.75-1.22Z"/>
        <path class="cls-6" d="M296.94,382.88c.03-.11,0-.25-.11-.37-.13-.13-.31-.17-.48-.15-.02-.04-.05-.07-.08-.11.17-.07.31-.18.34-.34.07-.31-.31-.32-.61-.28.15-.08.28-.17.4-.3.01-.01.01-.03,0-.05-.26-.27-.63-.27-.99-.2.16-.13.22-.3.02-.5-.21-.2-.51-.28-.81-.26,0,0-.01-.02-.02-.03-.11-.14-.32-.3-.52-.38,0-.2-.1-.43-.23-.6-.14-.18-.36-.36-.59-.38-.11-.01-.21.02-.29.06-.04-.1-.09-.19-.14-.26-.13-.17-.32-.3-.54-.32-.07,0-.14,0-.2.02-.03-.12-.1-.24-.17-.34-.12-.16-.3-.32-.51-.35-.19-.02-.31.09-.4.23-.11-.45-.47-.72-.96-.62-.16.03-.42.16-.53.32-.19-.47-.61-.91-1.15-.82-.27.04-.59.21-.7.42-.06-.02-.12,0-.17.03-.08-.14-.23-.14-.38-.05-.52-.19-1.08-.17-1.07.45-.31-.39-.73-.8-1.24-.51-.18.11-.35.3-.41.5-.21-.21-.51-.31-.84-.25-.33.06-.53.29-.53.56-.23-.24-.58-.27-.91-.07-.31.19-.43.5-.37.8-.43-.23-1.11.31-1.11.8-.19-.09-.46-.08-.62-.01-.48.2-.56.7-.51,1.17-.26-.3-.63-.26-.89.08-.14.18-.21.41-.21.63-.33-.23-.8-.22-1.11.12-.24.27-.21.67-.16,1,.02.13.06.27.12.4,0,.02,0,.04,0,.06,0,0,0,0,0,0-.19.02-.34.11-.42.35-.1.31.11.63.37.84-.21-.01-.41.07-.55.26-.03.04-.05.08-.06.12-.07.03-.15.09-.22.16-.16.18-.17.37-.09.52-.13,0-.25.07-.31.24-.1.28.12.47.36.55-.17.08-.28.24-.28.45,0,.1.04.18.1.23-.06.07-.11.15-.15.25-.01.04-.02.08-.03.11-.52.18-.95,1.07-.49,1.45.01.01.02.02.04.03-.09.12-.16.26-.21.39-.03.08-.05.16-.05.24-.5.11-.6.71-.46,1.19.06.22.18.45.35.62-.16.35-.02.92.15,1.18,0,0,.01.02.02.03-.13.17-.21.4-.25.56-.06.26.05.57.16.8.05.11.12.24.21.35-.03.05-.07.09-.09.15-.15.32-.08.68.09.98.05.09.12.18.21.25-.02.04-.03.08-.04.12-.06.32.24.7.57.86,0,.18.02.37.06.53.06.27.29.5.55.6,0,.01-.01.03-.02.04-.13.32-.11.57.1.85.09.11.29.29.52.4.02.44.54.73.98.66.08.09.2.16.35.2.18.05.42.03.56-.08.05.14.18.24.35.28.19.04.33-.04.41-.18.12.17.41.22.65.19.09,0,.19-.04.29-.08.13.24.5.39.78.43.23.03.51-.01.67-.2.09-.1.11-.21.1-.33.14.11.34.16.55.14.01,0,.03,0,.04,0,0,.25.18.46.5.53.18.04.38.01.53-.11.03-.03.06-.06.08-.1.11.13.3.2.52.19.13,0,.26-.05.36-.12.08.22.3.36.6.36.42,0,.73-.27.82-.63.12.13.37.12.58.04.12-.05.22-.11.29-.19.03-.01.06-.02.08-.04.13-.07.24-.19.3-.32.22-.06.44-.26.5-.48.04-.17-.06-.25-.2-.31.09-.09.15-.23.19-.33.08-.2.11-.49.02-.67.18-.09.32-.35.38-.57.08-.32.05-.7-.16-.93.1,0,.2-.04.28-.13.18-.18.18-.49.16-.72,0-.13-.07-.4-.18-.6.56-.18.53-1.23.09-1.54.21-.09.31-.32.32-.61,0-.06,0-.12,0-.18.04-.01.08-.04.12-.07.27-.23.34-.63.34-.97.18.23.5.02.67-.18.26-.33.31-.79.07-1.14.62.06.76-.69.52-1.18.56.22.86-.58.56-1.03.74.1,1.2-.75,1.06-1.42,0,0,0,0,0-.02.65.37,1.27-.08,1.48-.7.13-.15.18-.35.11-.59,0,0,0,0,0,0,.49.23,1.1.06,1.52-.25.26-.19.44-.49.33-.73.07-.01.15-.06.21-.13.02-.02.03-.03.04-.05.25.03.51-.19.54-.39.19-.02.28-.4.14-.55Z"/>
        <path class="cls-32" d="M296.94,382.88c.03-.11,0-.25-.11-.37-.13-.13-.31-.17-.48-.15-.02-.04-.05-.07-.08-.11.17-.07.31-.18.34-.34.07-.31-.31-.32-.61-.28.15-.08.28-.17.4-.3.01-.01.01-.03,0-.05-.26-.27-.63-.27-.99-.2.16-.13.22-.3.02-.5-.21-.2-.51-.28-.81-.26,0,0-.01-.02-.02-.03-.11-.14-.32-.3-.52-.38,0-.2-.1-.43-.23-.6-.14-.18-.36-.36-.59-.38-.11-.01-.21.02-.29.06-.04-.1-.09-.19-.14-.26-.13-.17-.32-.3-.54-.32-.07,0-.14,0-.2.02-.03-.12-.1-.24-.17-.34-.12-.16-.3-.32-.51-.35-.19-.02-.31.09-.4.23-.11-.45-.47-.72-.96-.62-.16.03-.42.16-.53.32-.19-.47-.61-.91-1.15-.82-.27.04-.59.21-.7.42-.06-.02-.12,0-.17.03-.08-.14-.23-.14-.38-.05-.52-.19-1.08-.17-1.07.45-.31-.39-.73-.8-1.24-.51-.18.11-.35.3-.41.5-.21-.21-.51-.31-.84-.25-.33.06-.53.29-.53.56-.23-.24-.58-.27-.91-.07-.31.19-.43.5-.37.8-.43-.23-1.11.31-1.11.8-.19-.09-.46-.08-.62-.01-.48.2-.56.7-.51,1.17-.26-.3-.63-.26-.89.08-.14.18-.21.41-.21.63-.33-.23-.8-.22-1.11.12-.24.27-.21.67-.16,1,.02.13.06.27.12.4,0,.02,0,.04,0,.06,0,0,0,0,0,0-.19.02-.34.11-.42.35-.1.31.11.63.37.84-.21-.01-.41.07-.55.26,0,0,0,.01-.01.02.03.02.06.04.1.06.16.09.4.16.57.06.05-.03.09-.08.11-.14.07.11.19.2.34.22.38.05.51-.3.52-.61.17.28.52.31.82.15.02,0,.04-.02.05-.03.22.2.54.27.84.09.21-.13.28-.4.3-.64.04,0,.07,0,.11-.02.26-.05.54-.17.71-.39,0,0,0,0,0,0,.07.04.14.07.22.08.21.02.37-.09.48-.25.06-.09.11-.21.13-.34.3-.1.59-.35.76-.64.2.4.57.76,1.02.51.19-.11.31-.34.33-.58.3-.14.56-.38.67-.68.28.28.65.51.94.19.02-.03.05-.06.07-.1.05,0,.1,0,.15,0,.07,0,.15-.01.23-.03-.02.33.05.65.34.74.28.09.5-.19.6-.41.01-.03.03-.07.04-.1.15-.02.28-.07.41-.15.13.33.4.57.82.44.13-.04.24-.14.32-.28.4.28.97.39,1.4.26,0,.26.08.46.35.42.21-.03.32-.31.37-.48,0-.02,0-.03.02-.05.2.14.47.19.7.11.07.11.15.2.26.26.15.09.29.07.4,0,.14.11.31.18.49.22.09.02.19.03.29.02-.09.37-.03.76.44.78.32,0,.57-.19.72-.45.08,0,.15-.02.22-.05,0,.07.03.14.05.2.05.17.22.35.42.26.19-.09.27-.3.31-.5.11.15.26.27.46.32.38.1.69-.14.87-.45.04.28.26.42.55.47,0-.02-.02-.04-.04-.06Z"/>
      </g>
      <g>
        <path class="cls-28" d="M269.91,416.91c-.13-.13-.3-.19-.48-.22.02-.06.03-.12.05-.18.04-.18.1-.41.05-.6.18-.04.35-.17.43-.33.19-.38-.11-.74-.47-.85.02-.03.04-.07.05-.11.04-.16,0-.34-.08-.51.44-.29.52-1.1.27-1.51,0,0,0,0,0,0,.15-.24.05-.59-.07-.82-.05-.1-.13-.18-.22-.25-.06-.15-.18-.21-.32-.21.07-.11.1-.24.07-.41-.08-.38-.42-.5-.76-.51,0-.13-.02-.25-.09-.32.21-.09.36-.28.32-.55-.05-.32-.31-.43-.57-.39.18-.17.31-.41.33-.64.03-.3-.17-.39-.4-.35.19-.19.26-.46.1-.72-.11-.18-.29-.26-.47-.27,0-.05-.02-.1-.03-.16-.05-.17-.16-.34-.34-.4-.02,0-.04-.01-.06-.01-.05-.13-.18-.22-.39-.26-.32-.06-.46.22-.48.55-.05,0-.1,0-.15,0-.09-.2-.23-.34-.44-.25-.1.04-.17.09-.22.16-.22.06-.48.24-.66.46-.4-.12-.7.16-.8.53-.23-.12-.52-.1-.77.12-.06.06-.13.21-.18.39-.03-.02-.07-.03-.1-.03-.5-.1-.8.34-.85.8-.2,0-.41.13-.54.35-.14-.09-.34-.11-.56-.01-.19.09-.37.29-.45.51-.37-.05-.87.17-1.04.6-.12-.04-.27,0-.43.15-.06.06-.11.12-.16.19-.03,0-.06,0-.09,0-.2,0-.4.14-.54.33-.09-.07-.21-.1-.33-.07-.16.05-.28.13-.36.24-.07-.04-.16-.05-.29-.01-.22.06-.34.19-.37.35-.21-.13-.47-.15-.72-.03-.59.29-.22.65.19.85-.04.06-.06.12-.04.18-.2.09-.26.37-.12.54-.05.3.08.5.29.61-.18.19-.18.53.04.73-.13.15-.14.36-.01.5-.17.19-.17.55.06.76v.07c-.34.24-.4.76-.09,1.04-.2.2-.26.57-.04.76-.01.07,0,.15.02.21-.24.2-.4.63-.13.83-.02.08-.03.18-.03.27-.06-.02-.13.02-.14.08-.05.18-.13.67.07.82.02.09.06.17.13.24-.25.19-.37.65-.05.87-.07.09-.11.2-.08.31,0,.03.02.06.03.08,0,.06.03.11.05.15-.13.18-.18.42-.07.6-.26.14-.35.51-.19.75-.21.22-.37.57-.23.85-.08.24-.11.53-.1.71,0,.05.03.09.08.11-.12.15-.2.34-.26.54-.01.06.02.13.08.14.13.03.27,0,.39-.03.1.26.31.49.54.65.18.11.41.17.61.1.22-.07.33-.3.38-.51.32.15.67.29,1.03.25.11-.01.21-.05.29-.11.05.02.1.03.15.04.38.08.68-.08.83-.36.01,0,.03,0,.04,0,.12.25.4.43.71.42.55-.02.63-.57.67-1.03.05-.03.1-.07.14-.12.26.13.58.16.86.05.23-.09.29-.26.26-.44.4.23,1.11.1,1.19-.36.03.02.05.03.09.03.06.04.13.07.2.09.02,0,.04.01.06.02.25.31.66.45.96.09.08-.09.13-.2.17-.31.31-.05.36-.47.37-.8.12.18.33.25.59.12.27-.13.39-.41.35-.68.2.15.49.17.73.06.29-.13.42-.37.36-.63.1.09.22.15.37.13.19-.03.31-.22.37-.38.08-.22.08-.45-.01-.64.16-.13.26-.35.28-.54.01-.12,0-.23-.02-.35.18-.07.3-.22.29-.51,0-.1-.03-.22-.09-.34.04-.02.09-.05.13-.09.21-.21.2-.54.08-.78.74.21,1.45-.74.83-1.34Z"/>
        <path class="cls-6" d="M267.13,406.74c.04-.12,0-.27-.12-.4-.15-.14-.34-.19-.52-.16-.02-.04-.05-.08-.09-.12.18-.08.33-.19.37-.37.08-.34-.34-.35-.67-.31.16-.08.31-.19.44-.33.01-.02.01-.04,0-.05-.28-.29-.7-.3-1.09-.22.17-.14.24-.33.02-.55-.22-.22-.56-.31-.89-.28,0,0-.02-.02-.02-.03-.12-.15-.35-.33-.57-.41,0-.22-.11-.48-.25-.66-.15-.2-.39-.39-.65-.42-.12-.01-.23.02-.32.07-.04-.11-.1-.21-.16-.29-.15-.18-.35-.33-.59-.36-.08,0-.15,0-.22.03-.03-.13-.1-.27-.19-.38-.13-.17-.33-.36-.56-.38-.21-.02-.35.09-.44.25-.12-.49-.52-.79-1.05-.68-.17.03-.46.17-.59.36-.21-.52-.67-.99-1.27-.91-.3.05-.65.23-.77.47-.07-.02-.13,0-.19.03-.08-.15-.25-.15-.42-.06-.57-.21-1.19-.19-1.17.5-.34-.42-.81-.88-1.36-.56-.2.12-.38.33-.45.54-.23-.23-.56-.34-.92-.27-.37.07-.58.32-.58.62-.25-.26-.63-.3-1-.08-.35.21-.48.55-.4.88-.48-.25-1.22.34-1.22.87-.21-.1-.5-.09-.69-.01-.52.22-.62.77-.56,1.28-.29-.33-.69-.29-.98.09-.15.2-.24.45-.23.69-.36-.25-.88-.25-1.22.13-.27.29-.23.73-.17,1.1.02.15.07.3.13.44,0,.02,0,.05.01.07,0,0,0,0,0,0-.21.02-.38.12-.46.39-.11.34.12.69.41.93-.23-.01-.46.08-.61.29-.03.04-.05.09-.06.14-.08.03-.16.09-.24.18-.17.19-.19.41-.09.57-.15,0-.27.08-.34.27-.11.31.13.52.4.6-.19.08-.31.26-.3.49,0,.11.05.2.11.26-.07.07-.13.16-.17.27-.01.04-.02.08-.03.12-.57.2-1.05,1.18-.54,1.6.01.01.03.02.04.03-.1.13-.18.29-.23.43-.03.09-.05.18-.06.27-.55.12-.66.78-.51,1.3.07.24.2.49.38.68-.18.39-.02,1.01.17,1.3,0,.01.01.02.02.03-.14.18-.23.44-.27.61-.07.29.05.62.17.88.06.12.14.27.24.38-.04.05-.07.1-.1.16-.17.35-.09.75.1,1.07.06.1.13.19.22.27-.02.04-.04.08-.05.13-.06.36.26.77.62.94,0,.2.03.4.06.58.06.29.32.55.6.66,0,.01-.01.03-.02.04-.14.35-.12.62.11.93.1.13.32.31.57.44.02.48.59.8,1.08.73.09.1.22.18.38.22.2.05.46.03.61-.09.06.15.19.27.39.31.21.04.36-.05.45-.2.13.19.45.24.71.21.1-.01.21-.04.31-.09.15.27.55.43.86.47.25.03.56-.01.74-.22.09-.11.12-.24.11-.37.16.12.38.17.6.16.02,0,.03,0,.05,0,0,.28.2.51.55.59.2.04.42.01.58-.12.04-.03.07-.07.09-.1.13.14.33.22.57.21.14,0,.28-.05.39-.13.08.24.33.4.66.4.46,0,.8-.3.9-.7.13.14.41.13.63.04.13-.05.24-.12.32-.21.03-.01.06-.03.09-.04.14-.08.26-.2.33-.35.24-.07.49-.29.55-.53.05-.18-.07-.27-.21-.34.1-.1.17-.25.21-.37.09-.23.12-.54.02-.74.2-.1.36-.38.42-.62.09-.35.05-.77-.17-1.02.11,0,.22-.04.31-.14.19-.2.2-.54.18-.79,0-.14-.08-.44-.2-.66.61-.2.58-1.36.1-1.69.23-.1.34-.36.35-.67,0-.06,0-.13,0-.2.05-.02.09-.04.14-.08.3-.25.37-.69.37-1.07.2.25.56.03.73-.2.29-.37.34-.87.08-1.25.68.06.83-.76.58-1.29.62.24.94-.63.62-1.13.81.11,1.32-.83,1.16-1.56,0,0,0-.01.01-.02.71.4,1.4-.09,1.62-.77.14-.16.2-.38.12-.64,0,0,0,0,0,0,.54.25,1.2.07,1.67-.27.29-.21.48-.54.36-.8.08-.01.16-.06.23-.14.02-.02.03-.04.05-.06.27.04.56-.21.59-.43.21-.02.3-.44.16-.61Z"/>
        <path class="cls-32" d="M267.13,406.74c.04-.12,0-.27-.12-.4-.15-.14-.34-.19-.52-.16-.02-.04-.05-.08-.09-.12.18-.08.33-.19.37-.37.08-.34-.34-.35-.67-.31.16-.08.31-.19.44-.33.01-.02.01-.04,0-.05-.28-.29-.7-.3-1.09-.22.17-.14.24-.33.02-.55-.22-.22-.56-.31-.89-.28,0,0-.02-.02-.02-.03-.12-.15-.35-.33-.57-.41,0-.22-.11-.48-.25-.66-.15-.2-.39-.39-.65-.42-.12-.01-.23.02-.32.07-.04-.11-.1-.21-.16-.29-.15-.18-.35-.33-.59-.36-.08,0-.15,0-.22.03-.03-.13-.1-.27-.19-.38-.13-.17-.33-.36-.56-.38-.21-.02-.35.09-.44.25-.12-.49-.52-.79-1.05-.68-.17.03-.46.17-.59.36-.21-.52-.67-.99-1.27-.91-.3.05-.65.23-.77.47-.07-.02-.13,0-.19.03-.08-.15-.25-.15-.42-.06-.57-.21-1.19-.19-1.17.5-.34-.42-.81-.88-1.36-.56-.2.12-.38.33-.45.54-.23-.23-.56-.34-.92-.27-.37.07-.58.32-.58.62-.25-.26-.63-.3-1-.08-.35.21-.48.55-.4.88-.48-.25-1.22.34-1.22.87-.21-.1-.5-.09-.69-.01-.52.22-.62.77-.56,1.28-.29-.33-.69-.29-.98.09-.15.2-.24.45-.23.69-.36-.25-.88-.25-1.22.13-.27.29-.23.73-.17,1.1.02.15.07.3.13.44,0,.02,0,.05.01.07,0,0,0,0,0,0-.21.02-.38.12-.46.39-.11.34.12.69.41.93-.23-.01-.46.08-.61.29,0,0,0,.01-.01.02.04.03.07.05.11.07.18.1.44.18.63.06.06-.04.1-.09.13-.15.08.12.2.22.37.24.41.05.56-.33.57-.67.18.3.56.34.9.16.02,0,.04-.02.06-.03.25.22.6.3.92.1.23-.14.3-.44.33-.7.04,0,.08,0,.11-.02.29-.05.6-.19.78-.43,0,0,0,0,0,0,.08.04.16.08.25.08.22.02.4-.1.53-.28.07-.1.12-.23.14-.38.33-.11.65-.38.83-.71.22.44.62.84,1.12.56.21-.12.34-.37.36-.64.33-.15.61-.42.74-.75.31.3.72.56,1.03.21.03-.03.05-.07.07-.11.06,0,.11,0,.16,0,.08,0,.17-.02.25-.03-.02.36.06.71.38.81.31.1.55-.21.66-.45.01-.04.03-.08.04-.12.16-.02.31-.08.45-.17.14.36.44.63.9.48.14-.04.26-.16.35-.3.44.31,1.07.42,1.54.29,0,.28.08.51.38.46.23-.03.35-.34.41-.53,0-.02.01-.04.02-.06.22.16.52.21.77.12.07.12.17.22.29.29.16.1.31.08.44,0,.16.12.34.2.53.24.1.02.21.03.31.02-.09.41-.03.84.48.85.35,0,.63-.21.79-.5.09,0,.17-.03.25-.05.01.08.03.15.05.22.06.19.25.39.46.29.21-.09.3-.33.34-.55.12.17.28.3.51.36.42.11.76-.16.95-.5.04.31.29.47.61.51,0-.02-.02-.05-.04-.07Z"/>
      </g>
      <g>
        <path class="cls-28" d="M302.4,414.46c-.13-.13-.3-.19-.48-.22.02-.06.03-.12.05-.18.04-.18.1-.41.05-.6.18-.04.35-.17.43-.33.19-.39-.11-.74-.47-.86.02-.03.04-.07.05-.11.04-.16-.01-.34-.08-.51.44-.29.52-1.1.27-1.51,0,0,0,0,0,0,.15-.24.05-.59-.07-.82-.05-.1-.13-.18-.22-.25-.06-.15-.18-.2-.32-.21.07-.11.1-.24.06-.41-.08-.38-.42-.5-.76-.51,0-.13-.02-.25-.09-.32.21-.09.36-.28.32-.55-.05-.32-.31-.43-.57-.39.18-.17.31-.41.33-.64.03-.3-.17-.39-.4-.35.2-.19.26-.46.1-.72-.11-.18-.29-.26-.47-.27,0-.05-.02-.1-.03-.15-.05-.17-.16-.34-.34-.4-.02,0-.04-.01-.06-.01-.05-.13-.18-.22-.4-.26-.32-.06-.46.22-.48.55-.05,0-.1,0-.15,0-.1-.2-.24-.34-.44-.25-.1.04-.17.09-.22.16-.22.06-.47.25-.66.46-.4-.12-.7.16-.8.53-.23-.11-.52-.1-.77.12-.06.06-.13.21-.18.39-.03-.02-.06-.03-.09-.04-.5-.1-.8.34-.86.8-.19,0-.41.13-.54.35-.14-.09-.34-.11-.56-.01-.19.09-.37.29-.45.51-.37-.05-.87.17-1.04.6-.12-.04-.27,0-.43.15-.06.06-.11.13-.16.19-.03,0-.06,0-.09,0-.2,0-.4.14-.54.33-.09-.07-.21-.1-.33-.07-.16.05-.28.13-.36.24-.07-.04-.16-.05-.29-.01-.22.07-.34.19-.37.35-.2-.12-.47-.15-.72-.03-.59.29-.22.65.19.85-.04.06-.06.12-.04.18-.2.09-.26.37-.12.54-.05.3.08.5.29.61-.18.19-.18.53.04.73-.13.15-.14.36-.01.49-.17.2-.17.55.05.76v.07c-.34.24-.4.76-.09,1.03-.2.21-.26.57-.04.76-.01.07,0,.14.02.21-.24.2-.4.63-.13.83-.02.08-.03.18-.03.27-.06-.02-.13.02-.14.08-.05.18-.13.67.07.82.02.09.06.16.13.24-.25.19-.37.65-.05.87-.07.09-.11.2-.08.31,0,.03.02.06.04.08,0,.06.03.11.05.15-.12.18-.18.42-.07.6-.26.14-.34.51-.19.75-.21.22-.37.57-.23.85-.08.24-.11.53-.1.71,0,.05.03.09.08.11-.12.15-.2.34-.26.54-.01.06.02.13.08.14.13.03.27,0,.39-.04.1.26.31.5.54.65.18.11.41.17.61.1.22-.07.33-.3.38-.51.32.15.67.29,1.03.25.12-.01.21-.05.29-.11.05.02.1.03.15.04.38.08.68-.08.83-.36.01,0,.03,0,.04-.01.12.25.4.43.71.42.55-.02.63-.57.67-1.03.06-.03.1-.07.15-.12.26.13.58.16.86.05.23-.09.29-.26.26-.44.4.23,1.11.1,1.18-.36.03.02.06.03.09.03.06.04.13.07.2.09.02,0,.04.01.05.02.25.31.66.45.96.08.08-.09.13-.2.17-.31.31-.05.36-.47.37-.81.12.18.34.25.59.12.27-.13.39-.41.35-.68.19.16.48.17.73.06.29-.13.42-.37.36-.63.1.09.22.15.37.13.19-.03.31-.22.37-.38.08-.22.08-.45-.01-.63.16-.13.26-.35.28-.54.01-.12,0-.23-.02-.35.18-.07.3-.23.29-.51,0-.1-.03-.22-.09-.34.04-.02.09-.05.13-.09.21-.21.2-.54.08-.78.74.21,1.44-.74.83-1.34Z"/>
        <path class="cls-6" d="M299.62,404.29c.04-.12,0-.27-.12-.4-.15-.14-.34-.19-.53-.16-.02-.04-.05-.08-.09-.12.18-.08.33-.19.37-.37.08-.34-.34-.35-.67-.31.16-.08.31-.19.43-.33.01-.02.02-.04,0-.05-.28-.29-.7-.3-1.09-.22.17-.14.24-.33.02-.55-.22-.22-.56-.31-.89-.28,0-.01-.02-.02-.02-.03-.12-.15-.35-.33-.57-.41,0-.22-.11-.48-.25-.66-.15-.2-.39-.39-.65-.42-.12-.01-.23.02-.32.07-.04-.11-.1-.21-.16-.29-.15-.18-.35-.33-.59-.36-.08,0-.15,0-.22.03-.04-.13-.1-.27-.19-.38-.14-.17-.33-.36-.56-.38-.21-.02-.35.09-.44.25-.12-.49-.51-.79-1.05-.68-.17.04-.46.17-.59.36-.21-.52-.67-.99-1.27-.91-.3.04-.65.23-.77.47-.07-.02-.13,0-.19.03-.09-.15-.25-.15-.42-.06-.57-.21-1.19-.19-1.17.5-.34-.42-.81-.88-1.36-.55-.2.11-.38.33-.45.54-.23-.23-.56-.34-.92-.27-.37.07-.58.32-.58.62-.25-.26-.63-.3-1-.08-.35.21-.48.55-.4.88-.48-.25-1.22.34-1.22.87-.21-.1-.5-.09-.68-.01-.52.22-.62.77-.56,1.28-.29-.33-.69-.29-.98.09-.15.2-.24.45-.22.69-.36-.25-.88-.25-1.22.13-.26.3-.23.73-.17,1.1.02.15.07.3.13.44,0,.02,0,.05.01.07,0,0,0,0,0,0-.21.02-.38.12-.46.39-.11.34.12.69.41.92-.23-.01-.46.08-.61.29-.03.04-.05.09-.06.14-.08.03-.16.09-.24.18-.17.19-.19.41-.09.57-.14,0-.27.08-.34.27-.1.31.13.52.4.6-.19.08-.31.26-.3.5,0,.11.04.2.11.26-.07.07-.13.16-.17.27-.02.04-.03.08-.03.12-.57.2-1.05,1.18-.54,1.6.01.01.03.02.04.03-.1.13-.18.29-.23.43-.03.09-.05.18-.06.27-.55.12-.66.78-.51,1.3.07.24.2.49.38.68-.18.39-.02,1.01.16,1.3,0,.01.02.02.02.03-.14.18-.23.44-.27.61-.07.29.05.62.17.88.06.12.13.27.23.38-.04.05-.07.1-.1.16-.17.35-.09.75.1,1.07.06.1.14.19.23.27-.02.04-.04.08-.05.13-.06.36.26.77.62.94,0,.2.02.4.06.58.06.29.32.55.6.66,0,.01-.01.03-.02.04-.14.35-.12.63.11.93.1.13.32.31.57.44.02.48.59.8,1.07.73.09.1.22.18.38.22.2.05.46.03.61-.09.06.15.2.27.39.31.21.04.37-.05.45-.19.13.19.45.24.71.21.1-.01.21-.04.31-.09.15.27.55.43.86.47.25.03.56-.01.74-.22.09-.11.12-.24.11-.37.16.12.38.18.6.16.01,0,.03,0,.05,0,0,.28.2.51.55.58.2.04.42.01.58-.12.04-.03.07-.07.09-.11.13.14.32.22.57.21.14,0,.28-.05.39-.13.09.24.33.4.66.4.46,0,.8-.3.9-.7.13.14.41.13.63.04.13-.05.24-.12.32-.21.03-.01.06-.03.09-.04.14-.08.26-.2.33-.35.25-.07.49-.29.55-.53.05-.18-.07-.27-.22-.34.1-.1.17-.25.21-.37.09-.23.12-.54.02-.74.2-.1.36-.38.42-.62.09-.35.05-.77-.17-1.02.11,0,.22-.04.31-.14.19-.2.2-.54.18-.79-.01-.14-.08-.44-.2-.66.61-.2.58-1.35.1-1.69.23-.1.34-.36.35-.67,0-.06,0-.13,0-.2.05-.01.09-.04.14-.08.3-.25.37-.69.37-1.07.2.25.56.03.73-.2.29-.37.34-.87.08-1.25.68.06.84-.76.58-1.29.62.24.94-.63.62-1.13.81.11,1.32-.83,1.16-1.56,0,0,0-.01.01-.02.71.4,1.4-.09,1.62-.77.14-.16.2-.38.12-.65,0,0,0,0,0,0,.54.25,1.2.07,1.67-.27.29-.21.48-.54.36-.8.08-.01.16-.06.24-.14.02-.02.03-.04.05-.06.27.04.56-.21.59-.43.21-.02.3-.44.16-.61Z"/>
        <path class="cls-32" d="M299.62,404.29c.04-.12,0-.27-.12-.4-.15-.14-.34-.19-.53-.16-.02-.04-.05-.08-.09-.12.18-.08.33-.19.37-.37.08-.34-.34-.35-.67-.31.16-.08.31-.19.43-.33.01-.02.02-.04,0-.05-.28-.29-.7-.3-1.09-.22.17-.14.24-.33.02-.55-.22-.22-.56-.31-.89-.28,0-.01-.02-.02-.02-.03-.12-.15-.35-.33-.57-.41,0-.22-.11-.48-.25-.66-.15-.2-.39-.39-.65-.42-.12-.01-.23.02-.32.07-.04-.11-.1-.21-.16-.29-.15-.18-.35-.33-.59-.36-.08,0-.15,0-.22.03-.04-.13-.1-.27-.19-.38-.14-.17-.33-.36-.56-.38-.21-.02-.35.09-.44.25-.12-.49-.51-.79-1.05-.68-.17.04-.46.17-.59.36-.21-.52-.67-.99-1.27-.91-.3.04-.65.23-.77.47-.07-.02-.13,0-.19.03-.09-.15-.25-.15-.42-.06-.57-.21-1.19-.19-1.17.5-.34-.42-.81-.88-1.36-.55-.2.11-.38.33-.45.54-.23-.23-.56-.34-.92-.27-.37.07-.58.32-.58.62-.25-.26-.63-.3-1-.08-.35.21-.48.55-.4.88-.48-.25-1.22.34-1.22.87-.21-.1-.5-.09-.68-.01-.52.22-.62.77-.56,1.28-.29-.33-.69-.29-.98.09-.15.2-.24.45-.22.69-.36-.25-.88-.25-1.22.13-.26.3-.23.73-.17,1.1.02.15.07.3.13.44,0,.02,0,.05.01.07,0,0,0,0,0,0-.21.02-.38.12-.46.39-.11.34.12.69.41.92-.23-.01-.46.08-.61.29,0,0,0,.01-.01.02.03.02.07.05.11.07.18.1.44.18.63.06.06-.04.1-.09.13-.15.08.13.2.22.37.24.41.05.56-.33.57-.67.19.3.57.34.9.16.02,0,.04-.02.06-.03.25.22.6.3.92.1.23-.14.3-.44.32-.7.04,0,.08,0,.12-.02.29-.05.6-.19.78-.43,0,0,0,0,0,0,.07.04.16.08.25.08.22.02.41-.1.53-.28.07-.1.12-.24.14-.38.33-.11.65-.38.83-.71.21.44.62.84,1.12.56.21-.12.34-.37.36-.64.33-.16.61-.42.74-.75.31.3.71.56,1.03.21.03-.03.05-.07.07-.11.06,0,.11,0,.16,0,.08,0,.17-.02.25-.03-.02.36.06.71.38.81.31.1.56-.21.66-.45.02-.04.03-.08.04-.12.16-.02.31-.08.45-.17.14.36.44.63.9.48.14-.04.26-.16.35-.3.43.31,1.07.43,1.53.29,0,.28.08.51.38.46.24-.03.35-.34.41-.53,0-.02.01-.04.02-.06.22.16.52.21.77.12.07.12.17.22.29.29.16.1.31.08.44,0,.16.12.34.2.53.25.1.02.21.03.31.02-.09.41-.03.84.48.85.35.01.63-.21.79-.5.08,0,.17-.03.25-.06.01.08.03.15.05.22.06.19.24.39.46.29.2-.09.3-.33.34-.55.12.17.28.3.5.36.42.11.76-.16.95-.5.04.31.29.47.61.51-.01-.02-.02-.05-.04-.07Z"/>
      </g>
      <g>
        <g>
          <path class="cls-19" d="M275.38,428.23c-.78-.29-3.34-.29-4.12,0,0,0-.51.17.33.45.84.28,2.62.28,3.46,0,.84-.28.33-.45.33-.45Z"/>
          <path class="cls-19" d="M271.59,428.55c-.37-.2-.48-.37-.48-.49h0s0,20.47,0,20.47c0,0,0,0,0,.01.02.12.14.28.48.46.42.23,1.08.34,1.73.34v-20.44c-.65,0-1.31-.11-1.73-.34Z"/>
          <path class="cls-7" d="M275.54,428.03c.01.13-.08.3-.48.52-.42.23-1.08.34-1.73.34v20.44c.66,0,1.31-.11,1.73-.34.34-.18.46-.34.48-.46,0,0,0,0,0,0v-20.52s0,.02,0,.03Z"/>
        </g>
        <g>
          <g>
            <path class="cls-19" d="M270.95,425.25c-.34-.21-1.46-.21-1.8,0,0,0-.22.12.14.32.37.2,1.15.2,1.51,0,.37-.2.14-.32.14-.32Z"/>
            <path class="cls-19" d="M269.3,425.57c-.16-.09-.21-.16-.21-.22h0s.01.05.01.05l2.32,4.09s0,0,0,0c0,.05.06.12.21.2.18.1.47.15.76.15l-2.33-4.13c-.29,0-.57-.05-.76-.15Z"/>
            <path class="cls-7" d="M271.02,425.35c0,.05-.04.13-.21.23-.18.1-.47.15-.76.15l2.33,4.13c.29,0,.57-.05.76-.15.15-.08.2-.15.21-.2,0,0,0,0,0,0l-2.34-4.17h0Z"/>
          </g>
          <g>
            <path class="cls-19" d="M269.52,419.23c-.34-.21-1.46-.21-1.8,0,0,0-.22.12.14.32.37.2,1.15.2,1.51,0,.37-.2.14-.32.14-.32Z"/>
            <path class="cls-19" d="M267.87,419.55c-.16-.09-.21-.16-.21-.22h0s1.43,6.04,1.43,6.04c0,0,0,0,0,0,0,.05.06.12.21.2.18.1.47.15.76.15l-1.43-6.03c-.29,0-.57-.05-.76-.15Z"/>
            <path class="cls-7" d="M269.59,419.32c0,.06-.04.13-.21.23-.18.1-.47.15-.76.15l1.43,6.03c.29,0,.57-.05.76-.15.15-.08.2-.15.21-.2,0,0,0,0,0,0l-1.43-6.06h0Z"/>
          </g>
          <g>
            <path class="cls-19" d="M261.39,420.65c-.16-.09-.21-.16-.21-.22t0,0l.21.22s7.75,4.82,7.9,4.9c.18.1.47.15.76.15l-7.9-4.9c-.29,0-.57-.05-.76-.15Z"/>
            <path class="cls-7" d="M262.15,420.8l7.9,4.9c.29,0,.57-.05.76-.15.15-.08.2-.15.21-.2,0,0,0,0,0,0l-7.95-5s-.64.45-.92.45Z"/>
            <path class="cls-19" d="M263.05,420.33c-.34-.21-1.46-.21-1.8,0,0,0-.22.12.14.32.37.2,1.15.2,1.51,0,.37-.2.14-.32.14-.32Z"/>
          </g>
        </g>
        <g>
          <g>
            <path class="cls-7" d="M279.2,426.59l-.02.06s.01-.04.01-.05c0,0,0,0,0,0Z"/>
            <path class="cls-7" d="M283.58,418.33l-5.49,7.59h0l-3.84,3.43c.28,0,.67.1.85,0,.15-.08,3.45-3.16,3.45-3.16-.05.05,5.72-7.92,5.72-7.92l.21-.41s-.02-.07-.9.47Z"/>
          </g>
          <path class="cls-19" d="M284.48,417.85c-.32-.2-1.34-.21-1.74-.03h0l-5.32,7.51s-4.14,3.66-4.14,3.66c0,0,0,0,0,0,0,.05.06.12.21.2.18.1.47.15.76.15l3.84-3.43h0l5.49-7.59c.29,0,.9-.47.9-.47Z"/>
        </g>
        <g>
          <g>
            <path class="cls-19" d="M274.22,426.88c-.34-.21-1.45-.21-1.79,0,0,0-.22.12.14.32.37.2,1.14.2,1.51,0,.37-.2.14-.32.14-.32Z"/>
            <path class="cls-19" d="M272.57,427.2c-.16-.09-.21-.16-.21-.21h0s0,3.15,0,3.15c0,0,0,0,0,0,0,.05.06.12.21.2.18.1.47.15.75.15v-3.14c-.28,0-.57-.05-.75-.15Z"/>
            <path class="cls-7" d="M274.29,426.97c0,.05-.04.13-.21.22-.18.1-.47.15-.75.15v3.14c.29,0,.57-.05.75-.15.15-.08.2-.15.21-.2,0,0,0,0,0,0v-3.18h0Z"/>
          </g>
          <g>
            <path class="cls-19" d="M272.01,417.3c-.34-.21-1.46-.21-1.8,0,0,0-.22.12.14.32.37.2,1.15.2,1.51,0,.37-.2.14-.32.14-.32Z"/>
            <path class="cls-19" d="M270.35,417.62c-.16-.09-.21-.16-.21-.22,0,0,0,0,0,0l2.21,9.59s0,0,0,0c0,.05.06.12.21.2.18.1.47.15.76.15l-2.21-9.58c-.29,0-.57-.05-.76-.15Z"/>
            <path class="cls-7" d="M272.08,417.39c0,.05-.04.13-.21.23-.18.1-.47.15-.76.15l2.21,9.58c.29,0,.57-.05.76-.15.15-.08.2-.15.21-.2,0,0,0,0,0,0v-.03l-2.21-9.58s0,0,0,.01Z"/>
          </g>
          <g>
            <path class="cls-7" d="M278.28,418.17s-4.04,8.95-4.19,9.03c-.18.1-.47.15-.76.15l4-8.86c.29,0,.95-.31.95-.31Z"/>
            <path class="cls-19" d="M277.33,418.48l-4,8.86c-.29,0-.57-.05-.76-.15-.15-.08-.2-.15-.21-.2,0,0,0,0,0,0l4.07-8.98s.61.47.9.47Z"/>
            <path class="cls-19" d="M276.43,418.01c.34-.21,1.46-.21,1.8,0,0,0,.22.12-.14.32-.37.2-1.15.2-1.51,0-.37-.2-.14-.32-.14-.32Z"/>
          </g>
        </g>
      </g>
      <g>
        <path class="cls-28" d="M293.28,407.38c-.21-.2-.48-.31-.77-.36.02-.09.05-.19.07-.29.07-.29.17-.67.07-.97.29-.07.56-.28.69-.54.31-.62-.17-1.2-.75-1.38.03-.05.06-.11.07-.18.06-.26-.02-.56-.13-.82.72-.47.84-1.77.43-2.43,0,0,0,0,0-.01.24-.39.08-.96-.11-1.33-.09-.16-.21-.3-.36-.4-.09-.24-.29-.33-.52-.34.12-.17.16-.39.11-.66-.13-.61-.68-.81-1.23-.83.01-.21-.03-.4-.14-.52.34-.15.58-.45.52-.88-.08-.52-.49-.69-.92-.63.29-.27.5-.67.53-1.04.04-.49-.27-.63-.65-.57.31-.31.42-.73.16-1.16-.18-.29-.46-.42-.77-.44-.01-.08-.03-.17-.05-.25-.08-.28-.26-.55-.55-.65-.03-.01-.07-.02-.1-.02-.09-.2-.29-.36-.64-.42-.52-.1-.74.36-.77.88-.08-.01-.17-.01-.24,0-.15-.32-.38-.54-.72-.41-.15.06-.27.15-.35.25-.36.1-.77.4-1.06.75-.65-.2-1.13.26-1.3.86-.37-.19-.85-.16-1.24.19-.1.09-.21.34-.3.62-.05-.03-.11-.05-.15-.06-.81-.16-1.29.56-1.38,1.3-.31,0-.67.21-.87.57-.23-.15-.54-.18-.9-.02-.31.14-.6.47-.73.83-.59-.08-1.4.27-1.68.96-.19-.07-.43-.01-.69.24-.1.1-.18.2-.25.31-.05,0-.1-.01-.15-.01-.32,0-.65.23-.88.53-.15-.11-.34-.17-.54-.11-.26.08-.45.21-.57.39-.12-.06-.26-.08-.46-.02-.36.11-.54.31-.61.57-.33-.2-.76-.25-1.16-.05-.95.47-.36,1.05.3,1.38-.07.1-.1.2-.06.29-.32.15-.42.59-.2.87-.08.49.13.8.47.99-.29.3-.29.86.06,1.18-.2.24-.22.59-.02.8-.28.32-.28.89.09,1.23v.11c-.56.38-.64,1.23-.15,1.67-.32.33-.42.92-.06,1.23-.02.12-.01.23.04.34-.38.32-.64,1.02-.2,1.35-.04.13-.05.29-.05.44-.09-.03-.21.03-.23.12-.08.29-.21,1.09.12,1.33.03.14.1.27.21.38-.41.3-.59,1.05-.09,1.4-.11.14-.17.33-.13.51.01.05.04.09.06.14.01.1.04.18.09.25-.2.3-.29.68-.11.97-.42.23-.56.83-.31,1.21-.35.35-.6.92-.37,1.37-.13.39-.18.86-.16,1.15,0,.08.05.15.12.18-.19.24-.32.55-.41.88-.02.09.03.21.13.23.21.04.43.01.64-.06.17.42.49.8.87,1.04.29.19.66.28.99.16.35-.12.53-.48.62-.82.51.25,1.09.47,1.66.4.19-.02.34-.09.47-.18.08.03.16.05.24.07.62.13,1.1-.13,1.34-.58.02,0,.04,0,.06-.02.2.41.64.7,1.15.67.89-.04,1.02-.93,1.09-1.67.09-.05.17-.11.23-.19.43.21.94.26,1.38.09.37-.15.47-.42.43-.71.65.37,1.79.16,1.91-.58.04.03.09.04.14.05.1.06.21.11.32.15.03.01.06.02.09.03.4.5,1.06.73,1.55.14.12-.15.21-.32.27-.51.5-.07.58-.76.59-1.3.2.3.54.4.95.19.43-.22.63-.67.56-1.1.31.25.78.28,1.17.1.47-.21.67-.6.58-1.01.16.14.36.24.59.21.31-.04.49-.36.59-.62.14-.35.13-.73-.02-1.02.25-.21.43-.57.46-.87.02-.19,0-.38-.03-.57.29-.11.49-.36.47-.82,0-.16-.05-.36-.14-.54.07-.03.14-.08.21-.15.34-.34.33-.87.12-1.27,1.2.34,2.33-1.19,1.33-2.16Z"/>
        <path class="cls-6" d="M288.79,390.96c.06-.19,0-.44-.2-.65-.24-.23-.54-.3-.85-.26-.03-.07-.08-.13-.14-.19.29-.12.54-.31.6-.6.12-.55-.55-.56-1.08-.5.26-.14.5-.31.7-.54.02-.02.02-.06,0-.08-.45-.47-1.13-.49-1.76-.35.27-.23.39-.53.03-.89-.37-.36-.91-.5-1.43-.45-.01-.02-.03-.03-.04-.05-.2-.24-.57-.54-.91-.67,0-.35-.18-.77-.41-1.06-.25-.32-.63-.64-1.05-.68-.2-.02-.37.03-.52.11-.06-.17-.16-.34-.26-.46-.23-.3-.57-.53-.95-.57-.13-.01-.25,0-.35.04-.05-.21-.17-.43-.3-.61-.22-.28-.53-.58-.9-.62-.33-.04-.56.15-.71.41-.2-.8-.83-1.28-1.7-1.1-.28.06-.75.28-.95.57-.34-.84-1.08-1.61-2.04-1.46-.48.07-1.05.37-1.24.75-.11-.03-.21-.01-.31.05-.14-.24-.41-.25-.67-.1-.93-.34-1.92-.31-1.89.8-.55-.68-1.3-1.41-2.2-.9-.32.19-.62.53-.72.88-.37-.37-.9-.55-1.48-.44-.59.11-.94.52-.94.99-.4-.41-1.02-.48-1.61-.13-.56.34-.77.89-.65,1.42-.77-.41-1.96.55-1.97,1.41-.34-.16-.81-.15-1.11-.02-.85.36-1,1.25-.9,2.07-.47-.53-1.12-.47-1.58.14-.25.32-.38.73-.37,1.12-.58-.4-1.42-.4-1.97.21-.43.48-.38,1.19-.28,1.77.04.24.11.49.22.71,0,.03,0,.07.02.11,0,0,0,0,0,0-.33.03-.61.2-.74.62-.17.55.19,1.12.66,1.49-.37-.02-.73.13-.98.47-.05.07-.08.14-.1.22-.14.06-.27.15-.39.29-.28.31-.31.66-.15.93-.23,0-.44.13-.54.43-.17.5.22.83.64.97-.3.13-.5.43-.49.8,0,.18.07.32.17.41-.11.12-.21.26-.27.44-.02.07-.04.13-.05.2-.92.32-1.69,1.91-.87,2.58.02.02.04.03.07.05-.16.21-.29.46-.37.69-.05.15-.08.29-.09.43-.89.2-1.07,1.26-.82,2.1.12.39.32.79.62,1.09-.28.63-.03,1.64.27,2.09.01.02.02.03.04.05-.23.29-.37.7-.44.99-.11.47.08,1.01.28,1.43.09.2.22.43.38.62-.06.08-.11.17-.16.26-.27.56-.14,1.21.16,1.73.09.16.22.31.36.44-.04.07-.06.14-.07.21-.1.57.43,1.24,1.01,1.52-.01.32.04.65.1.93.1.47.52.88.97,1.06,0,.02-.02.05-.03.07-.23.57-.2,1.01.18,1.51.16.2.52.51.92.71.04.78.95,1.3,1.73,1.17.14.16.35.29.62.36.33.09.75.05.99-.14.1.25.31.44.63.5.34.07.59-.08.72-.31.21.3.73.39,1.15.35.16-.02.34-.07.51-.14.24.43.89.7,1.39.76.41.05.91-.02,1.19-.35.15-.17.19-.38.18-.6.26.2.61.28.97.25.02,0,.05,0,.07,0,.01.45.32.82.89.94.32.07.68.02.94-.19.06-.05.11-.11.14-.17.2.23.53.35.92.33.22-.01.46-.08.63-.21.14.39.53.64,1.06.64.74,0,1.29-.48,1.46-1.12.21.22.66.21,1.02.07.21-.08.39-.2.52-.34.05-.02.1-.04.15-.07.23-.12.42-.33.54-.56.4-.11.78-.47.89-.85.08-.3-.11-.44-.35-.55.16-.16.27-.4.34-.59.14-.36.19-.86.03-1.19.33-.16.57-.61.67-1,.15-.57.09-1.24-.28-1.64.18,0,.36-.07.51-.22.31-.32.32-.87.29-1.28-.02-.22-.13-.71-.32-1.07.98-.32.94-2.19.16-2.73.37-.15.56-.57.57-1.08,0-.11,0-.21-.02-.32.08-.02.15-.06.22-.12.48-.4.6-1.11.6-1.72.33.4.9.04,1.19-.32.47-.59.55-1.4.13-2.02,1.1.1,1.35-1.23.93-2.09.99.39,1.52-1.02,1-1.82,1.31.18,2.14-1.33,1.88-2.52,0,0,.01-.02.02-.03,1.15.65,2.26-.15,2.62-1.25.23-.27.32-.62.19-1.04,0,0,0,0,.01,0,.87.4,1.94.11,2.69-.44.47-.34.78-.87.58-1.3.13-.02.26-.1.38-.23.03-.03.05-.06.07-.1.43.06.9-.34.95-.7.33-.03.49-.71.25-.98Z"/>
        <path class="cls-32" d="M288.79,390.96c.06-.19,0-.44-.2-.65-.24-.23-.54-.3-.85-.26-.03-.07-.08-.13-.14-.19.29-.12.54-.31.6-.6.12-.55-.55-.56-1.08-.5.26-.14.5-.31.7-.54.02-.02.02-.06,0-.08-.45-.47-1.13-.49-1.76-.35.27-.23.39-.53.03-.89-.37-.36-.91-.5-1.43-.45-.01-.02-.03-.03-.04-.05-.2-.24-.57-.54-.91-.67,0-.35-.18-.77-.41-1.06-.25-.32-.63-.64-1.05-.68-.2-.02-.37.03-.52.11-.06-.17-.16-.34-.26-.46-.23-.3-.57-.53-.95-.57-.13-.01-.25,0-.35.04-.05-.21-.17-.43-.3-.61-.22-.28-.53-.58-.9-.62-.33-.04-.56.15-.71.41-.2-.8-.83-1.28-1.7-1.1-.28.06-.75.28-.95.57-.34-.84-1.08-1.61-2.04-1.46-.48.07-1.05.37-1.24.75-.11-.03-.21-.01-.31.05-.14-.24-.41-.25-.67-.1-.93-.34-1.92-.31-1.89.8-.55-.68-1.3-1.41-2.2-.9-.32.19-.62.53-.72.88-.37-.37-.9-.55-1.48-.44-.59.11-.94.52-.94.99-.4-.41-1.02-.48-1.61-.13-.56.34-.77.89-.65,1.42-.77-.41-1.96.55-1.97,1.41-.34-.16-.81-.15-1.11-.02-.85.36-1,1.25-.9,2.07-.47-.53-1.12-.47-1.58.14-.25.32-.38.73-.37,1.12-.58-.4-1.42-.4-1.97.21-.43.48-.38,1.19-.28,1.77.04.24.11.49.22.71,0,.03,0,.07.02.11,0,0,0,0,0,0-.33.03-.61.2-.74.62-.17.55.19,1.12.66,1.49-.37-.02-.73.13-.98.47,0,.01-.01.02-.02.04.06.04.11.08.17.11.29.16.71.29,1.02.1.1-.06.16-.15.2-.25.13.2.33.35.6.39.67.09.9-.53.93-1.09.3.49.91.55,1.45.26.03-.02.06-.04.09-.06.4.35.96.49,1.49.16.38-.23.49-.71.52-1.13.07,0,.13-.02.19-.03.47-.09.96-.3,1.25-.69,0,0,0,0,0-.01.12.07.25.12.4.13.36.04.65-.16.85-.45.11-.16.19-.38.23-.61.54-.17,1.04-.62,1.35-1.14.35.72,1,1.35,1.82.91.34-.19.55-.6.58-1.03.53-.25.98-.68,1.19-1.21.51.49,1.15.9,1.67.34.04-.05.08-.11.12-.18.09,0,.18,0,.27,0,.13,0,.27-.02.41-.05-.03.59.09,1.15.61,1.31.49.15.89-.34,1.06-.73.03-.06.05-.12.07-.19.27-.03.5-.13.73-.27.23.59.71,1.01,1.45.78.23-.07.43-.25.57-.49.7.5,1.72.69,2.48.46,0,.45.13.82.62.75.38-.06.56-.55.66-.86,0-.03.02-.06.03-.09.35.26.84.33,1.24.2.12.19.27.35.47.47.26.16.51.13.71,0,.25.19.55.33.86.4.17.04.34.05.51.04-.15.66-.05,1.35.78,1.38.57.02,1.01-.33,1.28-.8.14-.01.27-.04.4-.09.02.12.05.24.08.36.1.3.4.63.74.47.33-.15.48-.54.55-.89.19.27.46.48.81.58.68.18,1.23-.25,1.54-.81.07.5.47.75.98.83-.02-.04-.04-.08-.07-.11Z"/>
      </g>
    </g>
    <polygon class="cls-23" points="372.74 291.5 372.74 161.94 265.13 226.72 372.74 291.5"/>
  </g>
  <g id="Grid">
    <g>
      <g>
        <polygon class="cls-5" points="139.82 115.16 142.7 113.86 153.82 120.52 153.02 120.88 153.82 121.34 158.11 123.93 158.11 128.68 169.17 129.06 169.17 124.24 174.66 121.76 174.66 121.74 175.46 121.39 174.66 120.92 181.2 117.94 184.27 119.79 189.82 117.24 197.46 121.81 197.46 126.49 201.89 124.48 209.17 128.83 209.17 153.72 209.19 153.72 209.19 156.77 211.04 157.89 211.04 398.61 201.89 402.79 199.22 401.2 196.91 405.06 187.76 409.23 183.03 406.39 180.15 407.71 169.03 401.03 169.03 400.21 164.74 397.62 164.74 392.87 153.68 392.51 153.68 397.31 148.19 399.81 148.19 400.65 141.65 403.63 138.56 401.78 133.01 404.33 125.73 399.95 121.29 397.28 113.68 392.72 113.68 364.8 111.81 363.68 111.81 122.96 120.96 118.78 125.92 121.74 125.92 116.51 135.09 112.32 139.82 115.16"/>
        <polygon class="cls-5" points="174.66 120.92 175.46 121.39 174.66 121.74 174.66 120.92"/>
        <polygon class="cls-5" points="153.82 120.52 153.82 121.34 153.02 120.88 153.82 120.52"/>
      </g>
      <polygon class="cls-31" points="125.93 329.3 125.93 116.5 140.06 124.98 139.15 364.64 125.93 357.01 125.93 329.3"/>
      <polygon class="cls-31" points="125.57 346.21 125.57 133.42 130.65 136.46 130.65 375.92 125.57 373.92 125.57 346.21"/>
      <polygon class="cls-31" points="111.8 335.75 111.8 122.95 116.89 125.99 116.89 365.46 111.8 363.46 111.8 335.75"/>
      <polygon class="cls-31" points="135.92 346.85 135.92 134.06 141 137.1 141 376.56 135.92 374.56 135.92 346.85"/>
      <polygon class="cls-20" points="135.92 346.21 135.92 134.06 130.65 136.46 130.65 375.92 135.73 373.92 135.92 346.21"/>
      <polygon class="cls-20" points="184.02 137.79 188.4 135.79 187.77 376.59 184.02 378.51 184.02 137.79"/>
      <polygon class="cls-20" points="203.58 131.4 209.17 128.83 208.54 369.64 203.58 372.13 203.58 131.4"/>
      <polygon class="cls-20" points="186.78 126.7 197.45 121.81 196.83 362.61 186.78 367.43 186.78 126.7"/>
      <polygon class="cls-20" points="193.07 138.59 199.33 135.73 198.7 376.53 193.13 379.35 193.07 138.59"/>
      <polygon class="cls-20" points="200.15 136.2 206.7 133.21 206.07 374.01 200.21 376.96 200.15 136.2"/>
      <polygon class="cls-31" points="188.4 135.79 193.07 138.59 193.13 379.35 188.4 376.5 188.4 135.79"/>
      <rect class="cls-20" x="153.37" y="151.77" width="11.37" height="241.1"/>
      <polygon class="cls-31" points="113.68 364.8 113.68 152 121.3 156.58 121.3 397.29 113.68 392.51 113.68 364.8"/>
      <polygon class="cls-31" points="113.66 339.9 113.66 127.11 124.79 133.77 123.87 373.44 113.66 367.61 113.66 339.9"/>
      <polyline class="cls-20" points="121.3 156.58 121.3 397.29 131.98 392.72 131.98 151.7 121.3 156.58"/>
      <polygon class="cls-31" points="113.66 152 121.28 156.58 121.28 397.29 113.68 392.72 113.66 152"/>
      <polygon class="cls-31" points="131.98 364.49 131.98 151.7 136.44 154.36 136.44 393.82 131.98 392.2 131.98 364.49"/>
      <polygon class="cls-31" points="138.57 373.86 138.57 161.06 141.65 162.91 141.65 403.63 138.57 401.78 138.57 373.86"/>
      <polygon class="cls-20" points="133.01 163.6 138.57 161.06 138.57 401.78 133.36 404.53 133.01 163.6"/>
      <polygon class="cls-20" points="182.77 155.85 187.74 153.58 187.05 394.87 182.77 396.57 182.77 155.85"/>
      <polygon class="cls-20" points="148.11 159.12 153.67 156.58 153.67 397.3 148.46 400.05 148.11 159.12"/>
      <polygon class="cls-31" points="169.81 159.95 164.74 156.91 164.74 397.63 169.98 400.76 169.81 159.95"/>
      <polygon class="cls-31" points="125.74 372.03 125.74 159.23 133.01 163.6 133.36 404.53 125.74 399.74 125.74 372.03"/>
      <polygon class="cls-20" points="148.19 159.92 141.65 162.91 141.65 403.63 148.19 400.64 148.19 159.92"/>
      <polygon class="cls-20" points="211.04 157.88 201.89 162.06 201.89 402.78 211.04 398.61 211.04 157.88"/>
      <polygon class="cls-31" points="169.03 373.11 169.7 160.71 180.15 166.98 180.15 407.7 169.03 401.03 169.03 373.11"/>
      <polygon class="cls-31" points="187.07 365.98 187.74 153.58 201.89 162.06 201.89 402.78 187.07 393.9 187.07 365.98"/>
      <polygon class="cls-20" points="196.91 164.33 187.76 168.51 187.76 409.23 196.91 405.05 196.91 164.33"/>
      <polygon class="cls-2" points="111.8 122.95 116.54 125.79 113.66 127.11 124.79 133.77 125.57 133.42 130.65 136.46 135.92 134.06 139.76 136.36 138.82 143.05 134.44 145.05 129.77 142.25 123.49 145.11 122.69 144.63 116.15 147.62 119.23 149.46 113.68 152 121.3 156.58 131.98 151.7 136.42 154.36 125.74 159.23 133.01 163.6 138.57 161.06 141.65 162.91 148.19 159.92 147.39 159.45 153.67 156.58 148.99 153.77 153.37 151.77 166.17 152.2 170.01 154.5 164.74 156.91 169.81 159.95 169.03 160.31 180.15 166.98 183.03 165.67 187.75 168.5 187.76 168.51 196.91 164.33 182.77 155.85 187.74 153.58 201.89 162.06 211.04 157.88 209.18 156.77 206.3 155.04 209.18 153.73 209.18 153.73 198.06 147.06 197.27 147.42 192.2 144.37 186.92 146.78 183.08 144.48 184.02 137.79 188.4 135.79 193.07 138.59 199.36 135.72 200.15 136.2 206.69 133.22 203.61 131.37 209.17 128.83 201.89 124.47 197.45 126.5 191.22 129.35 186.77 126.69 197.45 121.81 189.73 117.07 184.05 119.64 181.19 117.76 174.65 120.79 175.45 121.55 169.18 124.26 173.85 127.06 169.47 129.06 158.11 128.69 152.83 126.33 158.11 123.93 153.42 120.94 153.63 120.26 142.88 113.75 140.07 115.05 135.25 112.33 125.93 116.5 140.07 124.99 135.1 127.26 125.92 121.75 120.95 118.53 111.8 122.95"/>
      <polygon class="cls-31" points="183.03 165.67 187.76 168.51 187.76 409.23 183.03 406.39 183.03 165.67"/>
      <polygon class="cls-20" points="180.15 166.98 183.03 165.67 183.03 406.39 180.15 407.7 180.15 166.98"/>
      <g>
        <polygon class="cls-30" points="178.34 170.45 171.16 166.35 171.16 168.26 178.34 172.37 178.34 170.45"/>
        <polygon class="cls-30" points="178.34 176.59 171.16 172.49 171.16 174.4 178.34 178.5 178.34 176.59"/>
        <polygon class="cls-30" points="178.34 182.72 171.16 178.62 171.16 180.53 178.34 184.63 178.34 182.72"/>
        <polygon class="cls-30" points="178.34 188.85 171.16 184.75 171.16 186.66 178.34 190.76 178.34 188.85"/>
        <polygon class="cls-30" points="178.34 194.98 171.16 190.88 171.16 192.8 178.34 196.9 178.34 194.98"/>
        <polygon class="cls-30" points="178.34 201.12 171.16 197.02 171.16 198.93 178.34 203.03 178.34 201.12"/>
        <polygon class="cls-30" points="178.34 207.25 171.16 203.15 171.16 205.06 178.34 209.16 178.34 207.25"/>
        <polygon class="cls-30" points="178.34 213.38 171.16 209.28 171.16 211.19 178.34 215.29 178.34 213.38"/>
        <polygon class="cls-30" points="178.34 219.51 171.16 215.41 171.16 217.33 178.34 221.43 178.34 219.51"/>
        <polygon class="cls-30" points="178.34 225.65 171.16 221.55 171.16 223.46 178.34 227.56 178.34 225.65"/>
        <polygon class="cls-30" points="178.34 231.78 171.16 227.68 171.16 229.59 178.34 233.69 178.34 231.78"/>
        <polygon class="cls-30" points="178.34 237.91 171.16 233.81 171.16 235.72 178.34 239.82 178.34 237.91"/>
        <polygon class="cls-30" points="178.34 244.05 171.16 239.94 171.16 241.86 178.34 245.96 178.34 244.05"/>
        <polygon class="cls-30" points="178.34 250.18 171.16 246.08 171.16 247.99 178.34 252.09 178.34 250.18"/>
        <polygon class="cls-30" points="178.34 256.31 171.16 252.21 171.16 254.12 178.34 258.22 178.34 256.31"/>
        <polygon class="cls-30" points="178.34 262.44 171.16 258.34 171.16 260.25 178.34 264.35 178.34 262.44"/>
        <polygon class="cls-30" points="178.34 268.58 171.16 264.47 171.16 266.39 178.34 270.49 178.34 268.58"/>
        <polygon class="cls-30" points="178.34 274.71 171.16 270.61 171.16 272.52 178.34 276.62 178.34 274.71"/>
        <polygon class="cls-30" points="178.34 280.84 171.16 276.74 171.16 278.65 178.34 282.75 178.34 280.84"/>
        <polygon class="cls-30" points="178.34 286.97 171.16 282.87 171.16 284.78 178.34 288.89 178.34 286.97"/>
        <polygon class="cls-30" points="178.34 293.11 171.16 289 171.16 290.92 178.34 295.02 178.34 293.11"/>
        <polygon class="cls-30" points="178.34 299.24 171.16 295.14 171.16 297.05 178.34 301.15 178.34 299.24"/>
        <polygon class="cls-30" points="178.34 305.37 171.16 301.27 171.16 303.18 178.34 307.28 178.34 305.37"/>
        <polygon class="cls-30" points="178.34 311.5 171.16 307.4 171.16 309.31 178.34 313.42 178.34 311.5"/>
        <polygon class="cls-30" points="178.34 317.64 171.16 313.54 171.16 315.45 178.34 319.55 178.34 317.64"/>
        <polygon class="cls-30" points="178.34 323.77 171.16 319.67 171.16 321.58 178.34 325.68 178.34 323.77"/>
        <polygon class="cls-30" points="178.34 329.9 171.16 325.8 171.16 327.71 178.34 331.81 178.34 329.9"/>
        <polygon class="cls-30" points="178.34 336.03 171.16 331.93 171.16 333.85 178.34 337.95 178.34 336.03"/>
        <polygon class="cls-30" points="178.34 342.17 171.16 338.07 171.16 339.98 178.34 344.08 178.34 342.17"/>
        <polygon class="cls-30" points="178.34 348.3 171.16 344.2 171.16 346.11 178.34 350.21 178.34 348.3"/>
        <polygon class="cls-30" points="178.34 354.43 171.16 350.33 171.16 352.24 178.34 356.34 178.34 354.43"/>
        <polygon class="cls-30" points="178.34 360.56 171.16 356.46 171.16 358.38 178.34 362.48 178.34 360.56"/>
        <polygon class="cls-30" points="178.34 366.7 171.16 362.6 171.16 364.51 178.34 368.61 178.34 366.7"/>
        <polygon class="cls-30" points="178.34 372.83 171.16 368.73 171.16 370.64 178.34 374.74 178.34 372.83"/>
        <polygon class="cls-30" points="178.34 378.96 171.16 374.86 171.16 376.77 178.34 380.87 178.34 378.96"/>
        <polygon class="cls-30" points="178.34 385.1 171.16 380.99 171.16 382.91 178.34 387.01 178.34 385.1"/>
        <polygon class="cls-30" points="178.34 391.23 171.16 387.13 171.16 389.04 178.34 393.14 178.34 391.23"/>
      </g>
      <g class="cls-3">
        <g>
          <polygon class="cls-30" points="135.4 169.06 128.23 164.96 128.23 166.87 135.4 170.97 135.4 169.06"/>
          <polygon class="cls-30" points="135.4 175.19 128.23 171.09 128.23 173 135.4 177.1 135.4 175.19"/>
          <polygon class="cls-30" points="135.4 181.32 128.23 177.22 128.23 179.14 135.4 183.24 135.4 181.32"/>
          <polygon class="cls-30" points="135.4 187.46 128.23 183.36 128.23 185.27 135.4 189.37 135.4 187.46"/>
          <polygon class="cls-30" points="135.4 193.59 128.23 189.49 128.23 191.4 135.4 195.5 135.4 193.59"/>
          <polygon class="cls-30" points="135.4 199.72 128.23 195.62 128.23 197.53 135.4 201.63 135.4 199.72"/>
          <polygon class="cls-30" points="135.4 205.85 128.23 201.75 128.23 203.67 135.4 207.77 135.4 205.85"/>
          <polygon class="cls-30" points="135.4 211.99 128.23 207.89 128.23 209.8 135.4 213.9 135.4 211.99"/>
          <polygon class="cls-30" points="135.4 218.12 128.23 214.02 128.23 215.93 135.4 220.03 135.4 218.12"/>
          <polygon class="cls-30" points="135.4 224.25 128.23 220.15 128.23 222.06 135.4 226.16 135.4 224.25"/>
          <polygon class="cls-30" points="135.4 230.39 128.23 226.28 128.23 228.2 135.4 232.3 135.4 230.39"/>
          <polygon class="cls-30" points="135.4 236.52 128.23 232.42 128.23 234.33 135.4 238.43 135.4 236.52"/>
          <polygon class="cls-30" points="135.4 242.65 128.23 238.55 128.23 240.46 135.4 244.56 135.4 242.65"/>
          <polygon class="cls-30" points="135.4 248.78 128.23 244.68 128.23 246.59 135.4 250.7 135.4 248.78"/>
          <polygon class="cls-30" points="135.4 254.92 128.23 250.81 128.23 252.73 135.4 256.83 135.4 254.92"/>
          <polygon class="cls-30" points="135.4 261.05 128.23 256.95 128.23 258.86 135.4 262.96 135.4 261.05"/>
          <polygon class="cls-30" points="135.4 267.18 128.23 263.08 128.23 264.99 135.4 269.09 135.4 267.18"/>
          <polygon class="cls-30" points="135.4 273.31 128.23 269.21 128.23 271.12 135.4 275.23 135.4 273.31"/>
          <polygon class="cls-30" points="135.4 279.45 128.23 275.35 128.23 277.26 135.4 281.36 135.4 279.45"/>
          <polygon class="cls-30" points="135.4 285.58 128.23 281.48 128.23 283.39 135.4 287.49 135.4 285.58"/>
          <polygon class="cls-30" points="135.4 291.71 128.23 287.61 128.23 289.52 135.4 293.62 135.4 291.71"/>
          <polygon class="cls-30" points="135.4 297.84 128.23 293.74 128.23 295.65 135.4 299.76 135.4 297.84"/>
          <polygon class="cls-30" points="135.4 303.98 128.23 299.88 128.23 301.79 135.4 305.89 135.4 303.98"/>
          <polygon class="cls-30" points="135.4 310.11 128.23 306.01 128.23 307.92 135.4 312.02 135.4 310.11"/>
          <polygon class="cls-30" points="135.4 316.24 128.23 312.14 128.23 314.05 135.4 318.15 135.4 316.24"/>
          <polygon class="cls-30" points="135.4 322.37 128.23 318.27 128.23 320.19 135.4 324.29 135.4 322.37"/>
          <polygon class="cls-30" points="135.4 328.51 128.23 324.41 128.23 326.32 135.4 330.42 135.4 328.51"/>
          <polygon class="cls-30" points="135.4 334.64 128.23 330.54 128.23 332.45 135.4 336.55 135.4 334.64"/>
          <polygon class="cls-30" points="135.4 340.77 128.23 336.67 128.23 338.58 135.4 342.68 135.4 340.77"/>
          <polygon class="cls-30" points="135.4 346.9 128.23 342.8 128.23 344.72 135.4 348.82 135.4 346.9"/>
          <polygon class="cls-30" points="135.4 353.04 128.23 348.94 128.23 350.85 135.4 354.95 135.4 353.04"/>
          <polygon class="cls-30" points="135.4 359.17 128.23 355.07 128.23 356.98 135.4 361.08 135.4 359.17"/>
          <polygon class="cls-30" points="135.4 365.3 128.23 361.2 128.23 363.11 135.4 367.21 135.4 365.3"/>
          <polygon class="cls-30" points="135.4 371.44 128.23 367.33 128.23 369.25 135.4 373.35 135.4 371.44"/>
          <polygon class="cls-30" points="135.4 377.57 128.23 373.47 128.23 375.38 135.4 379.48 135.4 377.57"/>
          <polygon class="cls-30" points="135.4 383.7 128.23 379.6 128.23 381.51 135.4 385.61 135.4 383.7"/>
          <polygon class="cls-30" points="135.4 389.83 128.23 385.73 128.23 387.64 135.4 391.75 135.4 389.83"/>
        </g>
      </g>
      <g class="cls-26">
        <g>
          <polygon class="cls-30" points="123.25 162.08 116.07 157.98 116.07 159.89 123.25 163.99 123.25 162.08"/>
          <polygon class="cls-30" points="123.25 168.21 116.07 164.11 116.07 166.02 123.25 170.12 123.25 168.21"/>
          <polygon class="cls-30" points="123.25 174.34 116.07 170.24 116.07 172.15 123.25 176.25 123.25 174.34"/>
          <polygon class="cls-30" points="123.25 180.47 116.07 176.37 116.07 178.29 123.25 182.39 123.25 180.47"/>
          <polygon class="cls-30" points="123.25 186.61 116.07 182.51 116.07 184.42 123.25 188.52 123.25 186.61"/>
          <polygon class="cls-30" points="123.25 192.74 116.07 188.64 116.07 190.55 123.25 194.65 123.25 192.74"/>
          <polygon class="cls-30" points="123.25 198.87 116.07 194.77 116.07 196.68 123.25 200.78 123.25 198.87"/>
          <polygon class="cls-30" points="123.25 205 116.07 200.9 116.07 202.82 123.25 206.92 123.25 205"/>
          <polygon class="cls-30" points="123.25 211.14 116.07 207.04 116.07 208.95 123.25 213.05 123.25 211.14"/>
          <polygon class="cls-30" points="123.25 217.27 116.07 213.17 116.07 215.08 123.25 219.18 123.25 217.27"/>
          <polygon class="cls-30" points="123.25 223.4 116.07 219.3 116.07 221.21 123.25 225.31 123.25 223.4"/>
          <polygon class="cls-30" points="123.25 229.54 116.07 225.43 116.07 227.35 123.25 231.45 123.25 229.54"/>
          <polygon class="cls-30" points="123.25 235.67 116.07 231.57 116.07 233.48 123.25 237.58 123.25 235.67"/>
          <polygon class="cls-30" points="123.25 241.8 116.07 237.7 116.07 239.61 123.25 243.71 123.25 241.8"/>
          <polygon class="cls-30" points="123.25 247.93 116.07 243.83 116.07 245.74 123.25 249.85 123.25 247.93"/>
          <polygon class="cls-30" points="123.25 254.07 116.07 249.96 116.07 251.88 123.25 255.98 123.25 254.07"/>
          <polygon class="cls-30" points="123.25 260.2 116.07 256.1 116.07 258.01 123.25 262.11 123.25 260.2"/>
          <polygon class="cls-30" points="123.25 266.33 116.07 262.23 116.07 264.14 123.25 268.24 123.25 266.33"/>
          <polygon class="cls-30" points="123.25 272.46 116.07 268.36 116.07 270.27 123.25 274.38 123.25 272.46"/>
          <polygon class="cls-30" points="123.25 278.6 116.07 274.5 116.07 276.41 123.25 280.51 123.25 278.6"/>
          <polygon class="cls-30" points="123.25 284.73 116.07 280.63 116.07 282.54 123.25 286.64 123.25 284.73"/>
          <polygon class="cls-30" points="123.25 290.86 116.07 286.76 116.07 288.67 123.25 292.77 123.25 290.86"/>
          <polygon class="cls-30" points="123.25 296.99 116.07 292.89 116.07 294.8 123.25 298.91 123.25 296.99"/>
          <polygon class="cls-30" points="123.25 303.13 116.07 299.03 116.07 300.94 123.25 305.04 123.25 303.13"/>
          <polygon class="cls-30" points="123.25 309.26 116.07 305.16 116.07 307.07 123.25 311.17 123.25 309.26"/>
          <polygon class="cls-30" points="123.25 315.39 116.07 311.29 116.07 313.2 123.25 317.3 123.25 315.39"/>
          <polygon class="cls-30" points="123.25 321.52 116.07 317.42 116.07 319.34 123.25 323.44 123.25 321.52"/>
          <polygon class="cls-30" points="123.25 327.66 116.07 323.56 116.07 325.47 123.25 329.57 123.25 327.66"/>
          <polygon class="cls-30" points="123.25 333.79 116.07 329.69 116.07 331.6 123.25 335.7 123.25 333.79"/>
          <polygon class="cls-30" points="123.25 339.92 116.07 335.82 116.07 337.73 123.25 341.83 123.25 339.92"/>
          <polygon class="cls-30" points="123.25 346.05 116.07 341.95 116.07 343.87 123.25 347.97 123.25 346.05"/>
          <polygon class="cls-30" points="123.25 352.19 116.07 348.09 116.07 350 123.25 354.1 123.25 352.19"/>
          <polygon class="cls-30" points="123.25 358.32 116.07 354.22 116.07 356.13 123.25 360.23 123.25 358.32"/>
          <polygon class="cls-30" points="123.25 364.45 116.07 360.35 116.07 362.26 123.25 366.36 123.25 364.45"/>
          <polygon class="cls-30" points="123.25 370.59 116.07 366.48 116.07 368.4 123.25 372.5 123.25 370.59"/>
          <polygon class="cls-30" points="123.25 376.72 116.07 372.62 116.07 374.53 123.25 378.63 123.25 376.72"/>
          <polygon class="cls-30" points="123.25 382.85 116.07 378.75 116.07 380.66 123.25 384.76 123.25 382.85"/>
        </g>
      </g>
      <g class="cls-24">
        <g>
          <polygon class="cls-30" points="186.53 173.47 193.71 169.37 193.71 171.28 186.53 175.38 186.53 173.47"/>
          <polygon class="cls-30" points="186.53 179.61 193.71 175.5 193.71 177.42 186.53 181.52 186.53 179.61"/>
          <polygon class="cls-30" points="186.53 185.74 193.71 181.64 193.71 183.55 186.53 187.65 186.53 185.74"/>
          <polygon class="cls-30" points="186.53 191.87 193.71 187.77 193.71 189.68 186.53 193.78 186.53 191.87"/>
          <polygon class="cls-30" points="186.53 198 193.71 193.9 193.71 195.81 186.53 199.92 186.53 198"/>
          <polygon class="cls-30" points="186.53 204.14 193.71 200.03 193.71 201.95 186.53 206.05 186.53 204.14"/>
          <polygon class="cls-30" points="186.53 210.27 193.71 206.17 193.71 208.08 186.53 212.18 186.53 210.27"/>
          <polygon class="cls-30" points="186.53 216.4 193.71 212.3 193.71 214.21 186.53 218.31 186.53 216.4"/>
          <polygon class="cls-30" points="186.53 222.53 193.71 218.43 193.71 220.34 186.53 224.45 186.53 222.53"/>
          <polygon class="cls-30" points="186.53 228.67 193.71 224.57 193.71 226.48 186.53 230.58 186.53 228.67"/>
          <polygon class="cls-30" points="186.53 234.8 193.71 230.7 193.71 232.61 186.53 236.71 186.53 234.8"/>
          <polygon class="cls-30" points="186.53 240.93 193.71 236.83 193.71 238.74 186.53 242.84 186.53 240.93"/>
          <polygon class="cls-30" points="186.53 247.06 193.71 242.96 193.71 244.88 186.53 248.98 186.53 247.06"/>
          <polygon class="cls-30" points="186.53 253.2 193.71 249.1 193.71 251.01 186.53 255.11 186.53 253.2"/>
          <polygon class="cls-30" points="186.53 259.33 193.71 255.23 193.71 257.14 186.53 261.24 186.53 259.33"/>
          <polygon class="cls-30" points="186.53 265.46 193.71 261.36 193.71 263.27 186.53 267.37 186.53 265.46"/>
          <polygon class="cls-30" points="186.53 271.59 193.71 267.49 193.71 269.41 186.53 273.51 186.53 271.59"/>
          <polygon class="cls-30" points="186.53 277.73 193.71 273.63 193.71 275.54 186.53 279.64 186.53 277.73"/>
          <polygon class="cls-30" points="186.53 283.86 193.71 279.76 193.71 281.67 186.53 285.77 186.53 283.86"/>
          <polygon class="cls-30" points="186.53 289.99 193.71 285.89 193.71 287.8 186.53 291.9 186.53 289.99"/>
          <polygon class="cls-30" points="186.53 296.13 193.71 292.02 193.71 293.94 186.53 298.04 186.53 296.13"/>
          <polygon class="cls-30" points="186.53 302.26 193.71 298.16 193.71 300.07 186.53 304.17 186.53 302.26"/>
          <polygon class="cls-30" points="186.53 308.39 193.71 304.29 193.71 306.2 186.53 310.3 186.53 308.39"/>
          <polygon class="cls-30" points="186.53 314.52 193.71 310.42 193.71 312.33 186.53 316.43 186.53 314.52"/>
          <polygon class="cls-30" points="186.53 320.66 193.71 316.55 193.71 318.47 186.53 322.57 186.53 320.66"/>
          <polygon class="cls-30" points="186.53 326.79 193.71 322.69 193.71 324.6 186.53 328.7 186.53 326.79"/>
          <polygon class="cls-30" points="186.53 332.92 193.71 328.82 193.71 330.73 186.53 334.83 186.53 332.92"/>
          <polygon class="cls-30" points="186.53 339.05 193.71 334.95 193.71 336.86 186.53 340.97 186.53 339.05"/>
          <polygon class="cls-30" points="186.53 345.19 193.71 341.08 193.71 343 186.53 347.1 186.53 345.19"/>
          <polygon class="cls-30" points="186.53 351.32 193.71 347.22 193.71 349.13 186.53 353.23 186.53 351.32"/>
          <polygon class="cls-30" points="186.53 357.45 193.71 353.35 193.71 355.26 186.53 359.36 186.53 357.45"/>
          <polygon class="cls-30" points="186.53 363.58 193.71 359.48 193.71 361.39 186.53 365.5 186.53 363.58"/>
          <polygon class="cls-30" points="186.53 369.72 193.71 365.62 193.71 367.53 186.53 371.63 186.53 369.72"/>
          <polygon class="cls-30" points="186.53 375.85 193.71 371.75 193.71 373.66 186.53 377.76 186.53 375.85"/>
          <polygon class="cls-30" points="186.53 381.98 193.71 377.88 193.71 379.79 186.53 383.89 186.53 381.98"/>
          <polygon class="cls-30" points="186.53 388.11 193.71 384.01 193.71 385.92 186.53 390.03 186.53 388.11"/>
          <polygon class="cls-30" points="186.53 394.25 193.71 390.15 193.71 392.06 186.53 396.16 186.53 394.25"/>
        </g>
      </g>
      <g class="cls-25">
        <g>
          <polygon class="cls-30" points="200.89 169.17 208.06 165.07 208.06 166.98 200.89 171.08 200.89 169.17"/>
          <polygon class="cls-30" points="200.89 175.3 208.06 171.2 208.06 173.11 200.89 177.21 200.89 175.3"/>
          <polygon class="cls-30" points="200.89 181.43 208.06 177.33 208.06 179.24 200.89 183.34 200.89 181.43"/>
          <polygon class="cls-30" points="200.89 187.57 208.06 183.46 208.06 185.38 200.89 189.48 200.89 187.57"/>
          <polygon class="cls-30" points="200.89 193.7 208.06 189.6 208.06 191.51 200.89 195.61 200.89 193.7"/>
          <polygon class="cls-30" points="200.89 199.83 208.06 195.73 208.06 197.64 200.89 201.74 200.89 199.83"/>
          <polygon class="cls-30" points="200.89 205.96 208.06 201.86 208.06 203.77 200.89 207.87 200.89 205.96"/>
          <polygon class="cls-30" points="200.89 212.1 208.06 207.99 208.06 209.91 200.89 214.01 200.89 212.1"/>
          <polygon class="cls-30" points="200.89 218.23 208.06 214.13 208.06 216.04 200.89 220.14 200.89 218.23"/>
          <polygon class="cls-30" points="200.89 224.36 208.06 220.26 208.06 222.17 200.89 226.27 200.89 224.36"/>
          <polygon class="cls-30" points="200.89 230.49 208.06 226.39 208.06 228.3 200.89 232.41 200.89 230.49"/>
          <polygon class="cls-30" points="200.89 236.63 208.06 232.52 208.06 234.44 200.89 238.54 200.89 236.63"/>
          <polygon class="cls-30" points="200.89 242.76 208.06 238.66 208.06 240.57 200.89 244.67 200.89 242.76"/>
          <polygon class="cls-30" points="200.89 248.89 208.06 244.79 208.06 246.7 200.89 250.8 200.89 248.89"/>
          <polygon class="cls-30" points="200.89 255.02 208.06 250.92 208.06 252.83 200.89 256.94 200.89 255.02"/>
          <polygon class="cls-30" points="200.89 261.16 208.06 257.06 208.06 258.97 200.89 263.07 200.89 261.16"/>
          <polygon class="cls-30" points="200.89 267.29 208.06 263.19 208.06 265.1 200.89 269.2 200.89 267.29"/>
          <polygon class="cls-30" points="200.89 273.42 208.06 269.32 208.06 271.23 200.89 275.33 200.89 273.42"/>
          <polygon class="cls-30" points="200.89 279.55 208.06 275.45 208.06 277.37 200.89 281.47 200.89 279.55"/>
          <polygon class="cls-30" points="200.89 285.69 208.06 281.59 208.06 283.5 200.89 287.6 200.89 285.69"/>
          <polygon class="cls-30" points="200.89 291.82 208.06 287.72 208.06 289.63 200.89 293.73 200.89 291.82"/>
          <polygon class="cls-30" points="200.89 297.95 208.06 293.85 208.06 295.76 200.89 299.86 200.89 297.95"/>
          <polygon class="cls-30" points="200.89 304.08 208.06 299.98 208.06 301.9 200.89 306 200.89 304.08"/>
          <polygon class="cls-30" points="200.89 310.22 208.06 306.12 208.06 308.03 200.89 312.13 200.89 310.22"/>
          <polygon class="cls-30" points="200.89 316.35 208.06 312.25 208.06 314.16 200.89 318.26 200.89 316.35"/>
          <polygon class="cls-30" points="200.89 322.48 208.06 318.38 208.06 320.29 200.89 324.39 200.89 322.48"/>
          <polygon class="cls-30" points="200.89 328.62 208.06 324.51 208.06 326.43 200.89 330.53 200.89 328.62"/>
          <polygon class="cls-30" points="200.89 334.75 208.06 330.65 208.06 332.56 200.89 336.66 200.89 334.75"/>
          <polygon class="cls-30" points="200.89 340.88 208.06 336.78 208.06 338.69 200.89 342.79 200.89 340.88"/>
          <polygon class="cls-30" points="200.89 347.01 208.06 342.91 208.06 344.82 200.89 348.92 200.89 347.01"/>
          <polygon class="cls-30" points="200.89 353.15 208.06 349.04 208.06 350.96 200.89 355.06 200.89 353.15"/>
          <polygon class="cls-30" points="200.89 359.28 208.06 355.18 208.06 357.09 200.89 361.19 200.89 359.28"/>
          <polygon class="cls-30" points="200.89 365.41 208.06 361.31 208.06 363.22 200.89 367.32 200.89 365.41"/>
          <polygon class="cls-30" points="200.89 371.54 208.06 367.44 208.06 369.35 200.89 373.46 200.89 371.54"/>
          <polygon class="cls-30" points="200.89 377.68 208.06 373.57 208.06 375.49 200.89 379.59 200.89 377.68"/>
          <polygon class="cls-30" points="200.89 383.81 208.06 379.71 208.06 381.62 200.89 385.72 200.89 383.81"/>
          <polygon class="cls-30" points="200.89 389.94 208.06 385.84 208.06 387.75 200.89 391.85 200.89 389.94"/>
        </g>
      </g>
    </g>
  </g>
</svg>