<?xml version="1.0" encoding="UTF-8"?>
<svg id="Layer_1" xmlns="http://www.w3.org/2000/svg" xmlns:xlink="http://www.w3.org/1999/xlink" version="1.1" viewBox="0 0 306.87 88.81">
  <!-- Generator: Adobe Illustrator 30.2.1, SVG Export Plug-In . SVG Version: 2.1.1 Build 1)  -->
  <defs>
    <style>
      .st0, .st1, .st2, .st3 {
        fill: none;
      }

      .st1, .st2, .st3 {
        stroke: #f89621;
        stroke-linecap: round;
        stroke-linejoin: round;
        stroke-width: 4.74px;
      }

      .st4 {
        fill: #58595b;
      }

      .st5 {
        fill: url(#linear-gradient2);
      }

      .st6 {
        fill: url(#linear-gradient1);
      }

      .st2 {
        stroke-dasharray: 0 14.5;
      }

      .st7 {
        fill: #fbdfb5;
      }

      .st3 {
        stroke-dasharray: 0 15.19;
      }

      .st8 {
        fill: url(#linear-gradient);
      }

      .st9 {
        isolation: isolate;
      }

      .st10 {
        clip-path: url(#clippath-1);
      }

      .st11 {
        clip-path: url(#clippath-2);
      }

      .st12 {
        fill: #fcecd5;
      }

      .st13 {
        fill: #fecb88;
      }

      .st14 {
        clip-path: url(#clippath);
      }
    </style>
    <clipPath id="clippath">
      <polygon class="st0" points="70.69 62.43 79.06 67.27 87.43 62.43 79.06 57.6 70.69 62.43"/>
    </clipPath>
    <linearGradient id="linear-gradient" x1="-874.61" y1="475.93" x2="-873.61" y2="475.93" gradientTransform="translate(73343.71 134655.14) rotate(90) scale(153.94)" gradientUnits="userSpaceOnUse">
      <stop offset="0" stop-color="#fbee43"/>
      <stop offset=".04" stop-color="#fbe336"/>
      <stop offset=".11" stop-color="#fbd224"/>
      <stop offset=".19" stop-color="#fbc919"/>
      <stop offset=".28" stop-color="#fcc616"/>
      <stop offset=".55" stop-color="#f4a032"/>
      <stop offset=".67" stop-color="#f19040"/>
      <stop offset=".89" stop-color="#ed673c"/>
      <stop offset="1" stop-color="#ea3e38"/>
    </linearGradient>
    <clipPath id="clippath-1">
      <polygon class="st0" points="70.69 72.1 79.06 76.93 79.06 67.27 70.69 62.43 70.69 72.1"/>
    </clipPath>
    <linearGradient id="linear-gradient1" x1="-868.72" y1="460.96" x2="-867.72" y2="460.96" gradientTransform="translate(22615.97 42507.69) rotate(90) scale(48.9)" gradientUnits="userSpaceOnUse">
      <stop offset="0" stop-color="#fbee43"/>
      <stop offset=".04" stop-color="#fbe336"/>
      <stop offset=".11" stop-color="#fbd224"/>
      <stop offset=".19" stop-color="#fbc919"/>
      <stop offset=".28" stop-color="#fcc616"/>
      <stop offset=".55" stop-color="#f4a032"/>
      <stop offset=".67" stop-color="#f19040"/>
      <stop offset=".89" stop-color="#ed673c"/>
      <stop offset="1" stop-color="#ea3e38"/>
    </linearGradient>
    <clipPath id="clippath-2">
      <polygon class="st0" points="79.06 67.27 79.06 76.93 87.43 72.1 87.43 62.43 79.06 67.27"/>
    </clipPath>
    <linearGradient id="linear-gradient2" x1="-868.42" y1="473.7" x2="-867.42" y2="473.7" gradientTransform="translate(35771.49 65443.94) rotate(90) scale(75.34)" gradientUnits="userSpaceOnUse">
      <stop offset="0" stop-color="#fbee43"/>
      <stop offset=".04" stop-color="#fbe336"/>
      <stop offset=".11" stop-color="#fbd224"/>
      <stop offset=".19" stop-color="#fbc919"/>
      <stop offset=".28" stop-color="#fcc616"/>
      <stop offset=".55" stop-color="#f4a032"/>
      <stop offset=".67" stop-color="#f19040"/>
      <stop offset=".89" stop-color="#ed673c"/>
      <stop offset="1" stop-color="#ea3e38"/>
    </linearGradient>
  </defs>
  <g class="st9">
    <g class="st9">
      <path class="st12" d="M61.45,50.3v12.09H9.08l-.85-9.5L38.01,5.32h12.34l-13.39,22.19-13.54,22.79h38.03ZM53.65,5.32v72.76h-15.59V5.32h15.59Z"/>
    </g>
  </g>
  <g class="st9">
    <g class="st9">
      <path class="st13" d="M56.12,45.54v12.09H3.75l-.85-9.5L32.68.56h12.34l-13.39,22.19-13.54,22.79h38.03ZM48.32.56v72.76h-15.59V.56h15.59Z"/>
    </g>
  </g>
  <polygon class="st7" points="79.06 71.56 263.01 71.56 296.59 27.74 79.06 27.74 79.06 71.56"/>
  <g class="st14">
    <rect class="st8" x="70.39" y="52.79" width="17.33" height="19.29" transform="translate(-16.75 93.56) rotate(-56.3)"/>
  </g>
  <g class="st10">
    <rect class="st6" x="69.85" y="61.98" width="10.05" height="15.4" transform="translate(-7.83 9.5) rotate(-6.9)"/>
  </g>
  <g class="st11">
    <rect class="st5" x="75.07" y="61.7" width="16.34" height="15.96" transform="translate(-24.37 83.98) rotate(-47.5)"/>
  </g>
  <line class="st2" x1="85.19" y1="19.12" x2="295.44" y2="19.12"/>
  <path class="st1" d="M302.69,19.12h0M70.69,19.12h0"/>
  <line class="st3" x1="25.49" y1="86.13" x2="78.65" y2="86.13"/>
  <path class="st1" d="M86.25,86.13h0M10.31,86.13h0"/>
  <g class="st9">
    <g class="st9">
      <path class="st4" d="M110.26,52.85h3.94c-.08,1.29-.43,2.44-1.06,3.44-.63,1-1.5,1.78-2.62,2.35-1.12.56-2.47.84-4.04.84-1.23,0-2.33-.21-3.31-.64-.98-.43-1.81-1.04-2.5-1.84-.69-.8-1.22-1.77-1.58-2.9s-.54-2.4-.54-3.81v-1.33c0-1.41.19-2.68.56-3.82.37-1.14.91-2.11,1.61-2.91.7-.8,1.54-1.42,2.51-1.85s2.07-.65,3.27-.65c1.6,0,2.95.29,4.05.87,1.1.58,1.96,1.38,2.57,2.4.61,1.02.98,2.18,1.1,3.48h-3.96c-.04-.77-.2-1.43-.46-1.97-.26-.54-.66-.95-1.19-1.23-.53-.28-1.24-.42-2.12-.42-.66,0-1.23.12-1.73.37s-.91.62-1.24,1.12-.58,1.13-.75,1.89c-.16.76-.24,1.65-.24,2.67v1.36c0,.99.07,1.87.22,2.62.15.75.38,1.38.69,1.9.31.51.72.9,1.21,1.16.5.26,1.1.39,1.8.39.83,0,1.51-.13,2.04-.39s.95-.66,1.23-1.17.46-1.16.51-1.94Z"/>
      <path class="st4" d="M115.96,52.23v-.28c0-1.05.15-2.01.45-2.89.3-.88.73-1.65,1.31-2.3.57-.65,1.27-1.16,2.11-1.52.83-.36,1.79-.55,2.87-.55s2.04.18,2.89.55c.84.37,1.55.87,2.13,1.52.58.65,1.01,1.42,1.31,2.3.3.88.45,1.85.45,2.89v.28c0,1.04-.15,2-.45,2.88-.3.88-.74,1.65-1.31,2.31-.58.66-1.28,1.16-2.12,1.52-.83.36-1.79.54-2.87.54s-2.04-.18-2.88-.54c-.84-.36-1.55-.87-2.12-1.52-.58-.65-1.01-1.42-1.31-2.31-.3-.88-.45-1.84-.45-2.88ZM119.75,51.96v.28c0,.6.05,1.16.16,1.67s.27.97.51,1.36c.23.39.54.7.92.92s.84.33,1.38.33.98-.11,1.36-.33.68-.53.91-.92c.23-.39.4-.85.51-1.36s.17-1.08.17-1.67v-.28c0-.58-.06-1.13-.17-1.64-.11-.51-.28-.97-.51-1.37-.23-.4-.54-.71-.92-.94s-.83-.34-1.37-.34-.99.12-1.36.34-.68.54-.91.94c-.23.4-.4.86-.51,1.37-.11.51-.16,1.06-.16,1.64Z"/>
    </g>
    <g class="st9">
      <path class="st4" d="M135.52,48v11.22h-3.8v-14.26h3.56l.24,3.05ZM134.97,51.59h-1.03c0-1.05.14-2.01.41-2.85.27-.85.65-1.57,1.15-2.18.49-.6,1.08-1.06,1.76-1.38.68-.32,1.44-.48,2.29-.48.67,0,1.28.1,1.83.29s1.03.5,1.43.92c.4.42.71.98.92,1.67.21.69.32,1.54.32,2.54v9.1h-3.82v-9.11c0-.63-.09-1.12-.26-1.48s-.43-.6-.77-.75c-.34-.15-.75-.22-1.25-.22s-.95.1-1.33.3c-.37.2-.68.48-.92.84-.24.36-.42.77-.55,1.25s-.18.98-.18,1.53Z"/>
    </g>
    <g class="st9">
      <path class="st4" d="M154.52,55.28c0-.27-.08-.52-.24-.74s-.45-.42-.88-.61c-.43-.19-1.04-.36-1.84-.52-.72-.16-1.39-.36-2.01-.6-.62-.24-1.16-.53-1.61-.88-.45-.34-.81-.75-1.06-1.22-.25-.47-.38-1.01-.38-1.62s.13-1.16.39-1.69c.26-.53.63-1,1.12-1.4.49-.41,1.09-.73,1.79-.96.71-.23,1.51-.35,2.39-.35,1.24,0,2.3.2,3.2.59.89.4,1.58.94,2.06,1.63.48.69.72,1.47.72,2.35h-3.8c0-.37-.08-.7-.23-1-.15-.29-.39-.53-.71-.7-.32-.17-.74-.26-1.25-.26-.42,0-.79.07-1.09.22-.31.15-.54.34-.71.58-.16.24-.24.51-.24.8,0,.22.05.42.14.59.09.17.24.33.46.47s.49.27.82.39c.34.12.76.23,1.26.32,1.03.21,1.95.49,2.75.82.81.34,1.45.79,1.92,1.37.47.58.71,1.33.71,2.26,0,.63-.14,1.21-.42,1.74s-.69.99-1.21,1.38c-.53.39-1.16.69-1.89.91-.73.22-1.56.32-2.47.32-1.33,0-2.45-.24-3.37-.71-.92-.47-1.61-1.08-2.08-1.81-.47-.73-.71-1.49-.71-2.26h3.6c.02.52.15.94.4,1.25.25.32.57.54.96.69s.82.21,1.27.21c.49,0,.9-.07,1.23-.2.33-.14.57-.32.74-.55.17-.23.26-.5.26-.81Z"/>
    </g>
    <g class="st9">
      <path class="st4" d="M167.74,44.96v2.69h-8.31v-2.69h8.31ZM161.5,41.43h3.8v13.49c0,.41.05.73.17.95.11.22.27.37.49.46.22.08.5.12.83.12.24,0,.45-.01.64-.03.19-.02.35-.05.48-.07v2.79c-.31.11-.66.19-1.04.25-.38.06-.79.09-1.25.09-.83,0-1.56-.14-2.18-.42-.62-.28-1.1-.72-1.43-1.34-.33-.61-.5-1.42-.5-2.43v-13.87Z"/>
    </g>
    <g class="st9">
      <path class="st4" d="M173.63,48.07v11.15h-3.8v-14.26h3.57l.22,3.11ZM177.93,44.86l-.07,3.52c-.18-.03-.41-.05-.67-.07-.26-.02-.5-.03-.71-.03-.54,0-1,.07-1.39.2-.39.14-.72.34-.98.6-.26.26-.45.58-.58.96-.13.38-.2.81-.22,1.29l-.76-.24c0-.92.09-1.77.28-2.55.18-.78.46-1.46.81-2.04.36-.58.79-1.03,1.31-1.34s1.11-.47,1.78-.47c.21,0,.43.02.65.05.22.03.4.07.54.12Z"/>
    </g>
    <g class="st9">
      <path class="st4" d="M188.51,52.88l1.12-.03c0,.95-.11,1.83-.33,2.64-.22.81-.55,1.52-.99,2.11-.44.59-.99,1.05-1.66,1.38-.67.33-1.46.49-2.36.49-.69,0-1.33-.1-1.92-.3-.58-.2-1.09-.51-1.5-.94-.42-.43-.74-.98-.98-1.65-.23-.67-.35-1.48-.35-2.43v-9.22h3.8v9.24c0,.42.05.78.15,1.07.1.29.24.53.43.71s.4.32.65.4c.25.08.53.12.84.12.78,0,1.4-.16,1.85-.47.45-.32.77-.75.96-1.3.19-.55.28-1.16.28-1.84ZM188.08,55.81v-10.85h3.8v14.26h-3.57l-.22-3.41Z"/>
    </g>
    <g class="st9">
      <path class="st4" d="M200.63,56.52c.47,0,.88-.09,1.24-.27.36-.18.64-.44.85-.76.21-.33.31-.72.32-1.17h3.57c0,1-.28,1.89-.8,2.67-.53.78-1.23,1.39-2.12,1.83-.89.44-1.88.67-2.98.67s-2.07-.18-2.89-.55c-.82-.37-1.5-.88-2.05-1.54-.54-.65-.95-1.42-1.23-2.29-.27-.87-.41-1.81-.41-2.81v-.38c0-1.01.14-1.95.41-2.83.27-.88.68-1.64,1.23-2.29.54-.66,1.23-1.17,2.04-1.54s1.78-.55,2.87-.55c1.17,0,2.19.22,3.08.67.88.45,1.58,1.09,2.08,1.92.5.83.76,1.81.77,2.95h-3.57c0-.47-.11-.91-.3-1.29-.19-.39-.46-.7-.82-.93-.36-.23-.79-.35-1.31-.35-.55,0-1.01.12-1.36.35-.35.23-.62.55-.82.95-.19.4-.33.85-.4,1.36-.08.5-.11,1.03-.11,1.59v.38c0,.55.04,1.09.11,1.59.07.51.2.96.4,1.36.2.4.47.71.82.94s.81.34,1.37.34Z"/>
    </g>
    <g class="st9">
      <path class="st4" d="M215.92,44.96v2.69h-8.31v-2.69h8.31ZM209.67,41.43h3.8v13.49c0,.41.05.73.17.95.11.22.27.37.49.46.22.08.5.12.83.12.24,0,.45-.01.64-.03.19-.02.35-.05.48-.07v2.79c-.31.11-.66.19-1.04.25-.38.06-.8.09-1.25.09-.83,0-1.56-.14-2.18-.42-.62-.28-1.1-.72-1.43-1.34-.33-.61-.5-1.42-.5-2.43v-13.87Z"/>
      <path class="st4" d="M218.03,41.24c0-.55.19-1.01.58-1.37s.91-.54,1.56-.54,1.16.18,1.55.54c.39.36.59.82.59,1.37s-.2,1.01-.59,1.37c-.39.36-.91.54-1.55.54s-1.17-.18-1.56-.54-.58-.82-.58-1.37ZM222.08,44.96v14.26h-3.81v-14.26h3.81Z"/>
    </g>
    <g class="st9">
      <path class="st4" d="M224.18,52.23v-.28c0-1.05.15-2.01.45-2.89.3-.88.73-1.65,1.3-2.3.57-.65,1.27-1.16,2.11-1.52.83-.36,1.79-.55,2.87-.55s2.04.18,2.89.55c.84.37,1.55.87,2.13,1.52.58.65,1.01,1.42,1.31,2.3.3.88.45,1.85.45,2.89v.28c0,1.04-.15,2-.45,2.88-.3.88-.74,1.65-1.31,2.31-.58.66-1.28,1.16-2.12,1.52-.83.36-1.79.54-2.87.54s-2.04-.18-2.88-.54c-.84-.36-1.55-.87-2.12-1.52-.58-.65-1.01-1.42-1.31-2.31-.3-.88-.45-1.84-.45-2.88ZM227.98,51.96v.28c0,.6.05,1.16.16,1.67s.28.97.51,1.36c.23.39.54.7.92.92.38.22.84.33,1.38.33s.98-.11,1.36-.33c.38-.22.68-.53.91-.92.23-.39.4-.85.51-1.36.11-.52.16-1.08.16-1.67v-.28c0-.58-.05-1.13-.16-1.64-.11-.51-.28-.97-.51-1.37-.23-.4-.54-.71-.92-.94s-.83-.34-1.37-.34-.99.12-1.36.34c-.37.23-.68.54-.91.94-.23.4-.4.86-.51,1.37-.11.51-.16,1.06-.16,1.64Z"/>
      <path class="st4" d="M243.74,48v11.22h-3.8v-14.26h3.56l.24,3.05ZM243.19,51.59h-1.03c0-1.05.14-2.01.41-2.85.27-.85.66-1.57,1.15-2.18.49-.6,1.08-1.06,1.76-1.38.68-.32,1.44-.48,2.29-.48.67,0,1.28.1,1.83.29.55.19,1.03.5,1.43.92.4.42.71.98.92,1.67s.32,1.54.32,2.54v9.1h-3.82v-9.11c0-.63-.09-1.12-.26-1.48s-.43-.6-.77-.75c-.34-.15-.75-.22-1.25-.22s-.95.1-1.32.3c-.37.2-.68.48-.92.84-.24.36-.42.77-.55,1.25s-.18.98-.18,1.53Z"/>
    </g>
  </g>
</svg>