<?xml version="1.0" encoding="UTF-8"?>
<svg id="Layer_2" data-name="Layer 2" xmlns="http://www.w3.org/2000/svg" xmlns:xlink="http://www.w3.org/1999/xlink" viewBox="0 0 380.36 400.98">
  <defs>
    <style>
      .cls-1 {
        fill: #f5f6f7;
      }

      .cls-2 {
        mask: url(#mask);
      }

      .cls-3 {
        filter: url(#luminosity-noclip);
      }

      .cls-4 {
        fill: #e5ab82;
      }

      .cls-5 {
        fill: #1e7d69;
      }

      .cls-6 {
        fill: #57241d;
      }

      .cls-7 {
        fill: url(#_ÂÁ_Ï_ÌÌ_È_ËÂÌÚ_4-4);
      }

      .cls-8 {
        fill: url(#_ÂÁ_Ï_ÌÌ_È_ËÂÌÚ_4-5);
      }

      .cls-9 {
        fill: url(#_ÂÁ_Ï_ÌÌ_È_ËÂÌÚ_4-2);
      }

      .cls-10 {
        fill: url(#_ÂÁ_Ï_ÌÌ_È_ËÂÌÚ_4-3);
      }

      .cls-11 {
        fill: url(#_ÂÁ_Ï_ÌÌ_È_ËÂÌÚ_4-8);
      }

      .cls-12 {
        fill: url(#_ÂÁ_Ï_ÌÌ_È_ËÂÌÚ_4-9);
      }

      .cls-13 {
        fill: url(#_ÂÁ_Ï_ÌÌ_È_ËÂÌÚ_4-6);
      }

      .cls-14 {
        fill: url(#_ÂÁ_Ï_ÌÌ_È_ËÂÌÚ_4-7);
      }

      .cls-15 {
        filter: url(#luminosity-noclip-3);
      }

      .cls-16 {
        filter: url(#luminosity-noclip-4);
      }

      .cls-17 {
        filter: url(#luminosity-noclip-2);
      }

      .cls-18 {
        fill: #8c403c;
      }

      .cls-19 {
        fill: #df7925;
      }

      .cls-20 {
        fill: #ed5138;
      }

      .cls-21 {
        fill: #f1d3a7;
      }

      .cls-22 {
        fill: url(#_ÂÁ_Ï_ÌÌ_È_ËÂÌÚ_4);
      }

      .cls-23 {
        mask: url(#mask-2);
      }

      .cls-24 {
        mask: url(#mask-3);
      }

      .cls-25 {
        mask: url(#mask-1);
      }

      .cls-26 {
        fill: #54162a;
        opacity: .5;
      }

      .cls-27 {
        fill: #23624b;
      }

      .cls-28 {
        fill: #f59220;
      }

      .cls-29 {
        fill: #ffda7d;
      }

      .cls-30 {
        fill: #268974;
      }

      .cls-31 {
        fill: url(#_ÂÁ_Ï_ÌÌ_È_ËÂÌÚ_4-14);
      }

      .cls-32 {
        fill: url(#_ÂÁ_Ï_ÌÌ_È_ËÂÌÚ_4-13);
      }

      .cls-33 {
        fill: url(#_ÂÁ_Ï_ÌÌ_È_ËÂÌÚ_4-16);
      }

      .cls-34 {
        fill: url(#_ÂÁ_Ï_ÌÌ_È_ËÂÌÚ_4-15);
      }

      .cls-35 {
        fill: url(#_ÂÁ_Ï_ÌÌ_È_ËÂÌÚ_4-18);
      }

      .cls-36 {
        fill: url(#_ÂÁ_Ï_ÌÌ_È_ËÂÌÚ_4-17);
      }

      .cls-37 {
        fill: url(#_ÂÁ_Ï_ÌÌ_È_ËÂÌÚ_4-10);
      }

      .cls-38 {
        fill: url(#_ÂÁ_Ï_ÌÌ_È_ËÂÌÚ_4-12);
      }

      .cls-39 {
        fill: url(#_ÂÁ_Ï_ÌÌ_È_ËÂÌÚ_4-11);
      }
    </style>
    <filter id="luminosity-noclip" x="145.99" y="187.84" width="16.73" height="202.9" color-interpolation-filters="sRGB" filterUnits="userSpaceOnUse">
      <feFlood flood-color="#fff" result="bg"/>
      <feBlend in="SourceGraphic" in2="bg"/>
    </filter>
    <mask id="mask" x="145.99" y="187.84" width="16.73" height="202.9" maskUnits="userSpaceOnUse">
      <g class="cls-3">
        <rect x="148.36" y="187.84" width="14.36" height="202.9"/>
      </g>
    </mask>
    <filter id="luminosity-noclip-2" x="135.64" y="181.89" width="16.73" height="202.9" color-interpolation-filters="sRGB" filterUnits="userSpaceOnUse">
      <feFlood flood-color="#fff" result="bg"/>
      <feBlend in="SourceGraphic" in2="bg"/>
    </filter>
    <mask id="mask-1" x="135.64" y="181.89" width="16.73" height="202.9" maskUnits="userSpaceOnUse">
      <g class="cls-17">
        <rect x="138.01" y="181.89" width="14.36" height="202.9"/>
      </g>
    </mask>
    <filter id="luminosity-noclip-3" x="185.02" y="191.6" width="16.73" height="202.9" color-interpolation-filters="sRGB" filterUnits="userSpaceOnUse">
      <feFlood flood-color="#fff" result="bg"/>
      <feBlend in="SourceGraphic" in2="bg"/>
    </filter>
    <mask id="mask-2" x="185.02" y="191.6" width="16.73" height="202.9" maskUnits="userSpaceOnUse">
      <g class="cls-15">
        <rect x="185.02" y="191.6" width="14.36" height="202.9" transform="translate(384.39 586.1) rotate(-180)"/>
      </g>
    </mask>
    <filter id="luminosity-noclip-4" x="197.24" y="187.93" width="16.73" height="202.9" color-interpolation-filters="sRGB" filterUnits="userSpaceOnUse">
      <feFlood flood-color="#fff" result="bg"/>
      <feBlend in="SourceGraphic" in2="bg"/>
    </filter>
    <mask id="mask-3" x="197.24" y="187.93" width="16.73" height="202.9" maskUnits="userSpaceOnUse">
      <g class="cls-16">
        <rect x="197.24" y="187.93" width="14.36" height="202.9" transform="translate(408.83 578.76) rotate(-180)"/>
      </g>
    </mask>
    <linearGradient id="_ÂÁ_Ï_ÌÌ_È_ËÂÌÚ_4" data-name="¡ÂÁ˚ÏˇÌÌ˚È „‡‰ËÂÌÚ 4" x1="33.49" y1="311.9" x2="48.47" y2="311.9" gradientTransform="translate(279.68) rotate(-180) scale(1 -1)" gradientUnits="userSpaceOnUse">
      <stop offset="0" stop-color="#e43f25"/>
      <stop offset=".53" stop-color="#e13e25"/>
      <stop offset=".82" stop-color="#d93b26"/>
      <stop offset=".99" stop-color="#d03927"/>
    </linearGradient>
    <linearGradient id="_ÂÁ_Ï_ÌÌ_È_ËÂÌÚ_4-2" data-name="¡ÂÁ˚ÏˇÌÌ˚È „‡‰ËÂÌÚ 4" x1="-1.09" y1="313.74" x2="4.42" y2="303.28" xlink:href="#_ÂÁ_Ï_ÌÌ_È_ËÂÌÚ_4"/>
    <linearGradient id="_ÂÁ_Ï_ÌÌ_È_ËÂÌÚ_4-3" data-name="¡ÂÁ˚ÏˇÌÌ˚È „‡‰ËÂÌÚ 4" x1="1.41" y1="317.75" x2="5.08" y2="312.43" xlink:href="#_ÂÁ_Ï_ÌÌ_È_ËÂÌÚ_4"/>
    <linearGradient id="_ÂÁ_Ï_ÌÌ_È_ËÂÌÚ_4-4" data-name="¡ÂÁ˚ÏˇÌÌ˚È „‡‰ËÂÌÚ 4" x1="12.08" y1="282.82" x2="50.55" y2="277.02" xlink:href="#_ÂÁ_Ï_ÌÌ_È_ËÂÌÚ_4"/>
    <linearGradient id="_ÂÁ_Ï_ÌÌ_È_ËÂÌÚ_4-5" data-name="¡ÂÁ˚ÏˇÌÌ˚È „‡‰ËÂÌÚ 4" x1="-18.12" y1="285.13" x2="-13.03" y2="285.13" xlink:href="#_ÂÁ_Ï_ÌÌ_È_ËÂÌÚ_4"/>
    <linearGradient id="_ÂÁ_Ï_ÌÌ_È_ËÂÌÚ_4-6" data-name="¡ÂÁ˚ÏˇÌÌ˚È „‡‰ËÂÌÚ 4" x1="-6.46" y1="292.06" x2="-1.37" y2="292.06" xlink:href="#_ÂÁ_Ï_ÌÌ_È_ËÂÌÚ_4"/>
    <linearGradient id="_ÂÁ_Ï_ÌÌ_È_ËÂÌÚ_4-7" data-name="¡ÂÁ˚ÏˇÌÌ˚È „‡‰ËÂÌÚ 4" x1="5.58" y1="299.11" x2="10.67" y2="299.11" xlink:href="#_ÂÁ_Ï_ÌÌ_È_ËÂÌÚ_4"/>
    <linearGradient id="_ÂÁ_Ï_ÌÌ_È_ËÂÌÚ_4-8" data-name="¡ÂÁ˚ÏˇÌÌ˚È „‡‰ËÂÌÚ 4" x1="17.47" y1="306.14" x2="22.57" y2="306.14" xlink:href="#_ÂÁ_Ï_ÌÌ_È_ËÂÌÚ_4"/>
    <linearGradient id="_ÂÁ_Ï_ÌÌ_È_ËÂÌÚ_4-9" data-name="¡ÂÁ˚ÏˇÌÌ˚È „‡‰ËÂÌÚ 4" x1="29.37" y1="313.1" x2="34.46" y2="313.1" xlink:href="#_ÂÁ_Ï_ÌÌ_È_ËÂÌÚ_4"/>
    <linearGradient id="_ÂÁ_Ï_ÌÌ_È_ËÂÌÚ_4-10" data-name="¡ÂÁ˚ÏˇÌÌ˚È „‡‰ËÂÌÚ 4" x1="-44.27" y1="266.32" x2="-29.28" y2="266.32" xlink:href="#_ÂÁ_Ï_ÌÌ_È_ËÂÌÚ_4"/>
    <linearGradient id="_ÂÁ_Ï_ÌÌ_È_ËÂÌÚ_4-11" data-name="¡ÂÁ˚ÏˇÌÌ˚È „‡‰ËÂÌÚ 4" x1="-78.84" y1="268.16" x2="-73.33" y2="257.7" xlink:href="#_ÂÁ_Ï_ÌÌ_È_ËÂÌÚ_4"/>
    <linearGradient id="_ÂÁ_Ï_ÌÌ_È_ËÂÌÚ_4-12" data-name="¡ÂÁ˚ÏˇÌÌ˚È „‡‰ËÂÌÚ 4" x1="-76.34" y1="272.17" x2="-72.68" y2="266.85" xlink:href="#_ÂÁ_Ï_ÌÌ_È_ËÂÌÚ_4"/>
    <linearGradient id="_ÂÁ_Ï_ÌÌ_È_ËÂÌÚ_4-13" data-name="¡ÂÁ˚ÏˇÌÌ˚È „‡‰ËÂÌÚ 4" x1="-65.67" y1="237.24" x2="-27.21" y2="231.44" xlink:href="#_ÂÁ_Ï_ÌÌ_È_ËÂÌÚ_4"/>
    <linearGradient id="_ÂÁ_Ï_ÌÌ_È_ËÂÌÚ_4-14" data-name="¡ÂÁ˚ÏˇÌÌ˚È „‡‰ËÂÌÚ 4" x1="-95.88" y1="239.55" x2="-90.78" y2="239.55" xlink:href="#_ÂÁ_Ï_ÌÌ_È_ËÂÌÚ_4"/>
    <linearGradient id="_ÂÁ_Ï_ÌÌ_È_ËÂÌÚ_4-15" data-name="¡ÂÁ˚ÏˇÌÌ˚È „‡‰ËÂÌÚ 4" x1="-84.21" y1="246.48" x2="-79.12" y2="246.48" xlink:href="#_ÂÁ_Ï_ÌÌ_È_ËÂÌÚ_4"/>
    <linearGradient id="_ÂÁ_Ï_ÌÌ_È_ËÂÌÚ_4-16" data-name="¡ÂÁ˚ÏˇÌÌ˚È „‡‰ËÂÌÚ 4" x1="-72.18" y1="253.53" x2="-67.08" y2="253.53" xlink:href="#_ÂÁ_Ï_ÌÌ_È_ËÂÌÚ_4"/>
    <linearGradient id="_ÂÁ_Ï_ÌÌ_È_ËÂÌÚ_4-17" data-name="¡ÂÁ˚ÏˇÌÌ˚È „‡‰ËÂÌÚ 4" x1="-60.28" y1="260.56" x2="-55.19" y2="260.56" xlink:href="#_ÂÁ_Ï_ÌÌ_È_ËÂÌÚ_4"/>
    <linearGradient id="_ÂÁ_Ï_ÌÌ_È_ËÂÌÚ_4-18" data-name="¡ÂÁ˚ÏˇÌÌ˚È „‡‰ËÂÌÚ 4" x1="-48.39" y1="267.52" x2="-43.3" y2="267.52" xlink:href="#_ÂÁ_Ï_ÌÌ_È_ËÂÌÚ_4"/>
  </defs>
  <g id="bg">
    <polygon class="cls-21" points="51.22 0 0 30.84 0 365.47 51.23 396.31 380.36 198.15 51.22 0"/>
  </g>
  <g id="Text">
    <g>
      <g>
        <path class="cls-27" d="M285.56,105.21c-.14-.14-.33-.21-.53-.24.02-.06.03-.13.05-.2.05-.2.12-.46.05-.67.2-.05.38-.19.47-.37.21-.43-.12-.82-.52-.95.02-.03.04-.07.05-.12.04-.18-.01-.38-.09-.56.49-.32.57-1.22.3-1.67,0,0,0,0,0,0,.17-.27.06-.66-.08-.91-.06-.11-.15-.2-.24-.28-.06-.16-.2-.23-.36-.23.08-.12.11-.27.07-.45-.09-.42-.47-.56-.85-.57,0-.14-.02-.28-.1-.36.23-.1.4-.31.35-.61-.05-.36-.34-.47-.63-.43.2-.18.34-.46.36-.71.03-.33-.19-.43-.45-.39.22-.21.29-.51.11-.8-.12-.2-.32-.29-.52-.3,0-.06-.02-.12-.04-.17-.06-.19-.18-.38-.37-.45-.02,0-.05-.01-.07-.02-.06-.14-.2-.25-.44-.29-.36-.07-.51.25-.53.61-.06,0-.11,0-.17,0-.11-.22-.26-.37-.49-.28-.11.04-.18.1-.24.17-.25.07-.52.27-.73.51-.44-.14-.78.18-.89.59-.25-.13-.58-.11-.85.13-.07.06-.15.23-.21.43-.04-.02-.07-.03-.1-.04-.55-.11-.89.38-.95.89-.21,0-.46.14-.59.39-.16-.1-.37-.13-.62-.01-.21.1-.41.33-.5.57-.4-.06-.96.19-1.15.66-.13-.04-.3,0-.47.17-.07.07-.13.14-.17.21-.03,0-.07,0-.1,0-.22,0-.44.16-.6.37-.1-.08-.23-.11-.37-.08-.18.05-.31.15-.39.27-.08-.04-.18-.05-.32-.01-.25.07-.37.22-.41.39-.23-.14-.52-.17-.79-.04-.65.32-.25.72.21.95-.05.06-.07.13-.04.2-.22.1-.29.41-.13.6-.05.34.09.55.32.68-.2.21-.2.59.04.81-.14.17-.15.4-.01.55-.19.22-.19.61.06.84v.08c-.38.26-.44.84-.1,1.15-.22.23-.28.63-.04.85-.02.08-.01.16.02.24-.26.22-.44.7-.14.93-.03.09-.04.2-.03.31-.07-.02-.14.02-.16.08-.05.2-.14.75.08.91.02.1.07.18.15.26-.28.21-.41.72-.06.97-.08.1-.12.23-.09.35,0,.03.02.06.04.09,0,.07.03.13.06.17-.14.2-.2.47-.08.66-.29.16-.38.57-.21.83-.24.24-.41.63-.26.94-.09.27-.12.59-.11.79,0,.05.03.1.08.12-.13.16-.22.38-.28.6-.02.06.02.14.09.16.14.03.3,0,.44-.04.11.29.34.55.6.72.2.13.45.19.68.11.24-.08.36-.33.42-.56.35.17.74.32,1.14.27.13-.02.23-.06.32-.13.05.02.11.03.16.05.43.09.75-.09.92-.4.01,0,.03,0,.04-.01.14.28.44.48.79.46.61-.03.7-.64.74-1.15.06-.03.11-.08.16-.13.29.15.65.18.95.06.25-.1.32-.29.29-.49.44.25,1.23.11,1.31-.4.03.02.06.03.1.04.07.04.14.08.22.11.02,0,.04.01.06.02.28.34.73.5,1.06.1.08-.1.15-.22.19-.35.35-.05.4-.52.41-.89.13.2.37.28.65.13.3-.15.43-.46.39-.76.21.17.54.19.8.07.32-.15.46-.41.4-.7.11.1.25.16.41.14.21-.03.34-.25.41-.42.09-.24.09-.5-.01-.7.17-.15.29-.39.31-.6.01-.13,0-.26-.02-.39.2-.08.33-.25.32-.56,0-.11-.04-.25-.09-.37.05-.02.09-.06.14-.1.23-.23.22-.6.09-.87.82.24,1.6-.82.91-1.48Z"/>
        <path class="cls-5" d="M282.48,93.92c.04-.13,0-.3-.14-.45-.16-.16-.37-.21-.58-.18-.02-.05-.05-.09-.1-.13.2-.08.37-.21.41-.41.09-.38-.38-.38-.74-.34.18-.09.34-.21.48-.37.01-.02.02-.04,0-.06-.31-.32-.77-.33-1.2-.24.19-.16.27-.37.02-.61-.25-.25-.62-.34-.98-.31,0-.01-.02-.02-.03-.03-.13-.17-.39-.37-.62-.46,0-.24-.12-.53-.28-.73-.17-.22-.43-.44-.72-.46-.14-.01-.25.02-.36.08-.04-.12-.11-.24-.17-.32-.16-.2-.39-.37-.65-.39-.09,0-.17,0-.24.03-.04-.15-.11-.3-.21-.42-.15-.19-.37-.39-.62-.42-.23-.03-.38.11-.49.28-.14-.55-.57-.88-1.17-.76-.19.04-.51.19-.65.39-.23-.58-.74-1.1-1.4-1.01-.33.05-.72.25-.85.52-.07-.02-.15,0-.21.04-.09-.17-.28-.17-.46-.07-.64-.23-1.31-.21-1.3.55-.37-.47-.89-.97-1.51-.62-.22.13-.42.36-.5.6-.25-.26-.62-.38-1.02-.3-.41.07-.64.35-.64.68-.27-.29-.7-.33-1.11-.09-.38.23-.53.61-.45.98-.53-.28-1.35.38-1.35.97-.23-.11-.56-.1-.76-.01-.58.25-.68.86-.62,1.42-.32-.37-.77-.32-1.09.1-.17.22-.26.5-.25.77-.4-.28-.97-.27-1.35.14-.29.33-.26.82-.19,1.22.03.16.08.33.15.49,0,.02,0,.05.01.08,0,0,0,0,0,0-.23.02-.42.14-.51.43-.12.37.13.77.45,1.03-.25-.01-.5.09-.67.32-.03.05-.06.1-.07.15-.09.04-.18.1-.26.2-.19.21-.21.46-.1.64-.16,0-.3.09-.37.3-.12.34.15.57.44.67-.21.09-.34.29-.33.55,0,.13.05.22.12.28-.08.08-.14.18-.18.3-.02.05-.03.09-.04.14-.63.22-1.16,1.31-.59,1.77.01.01.03.02.05.04-.11.14-.2.32-.25.47-.04.1-.06.2-.06.3-.61.14-.73.86-.56,1.45.08.27.22.54.42.75-.19.43-.02,1.12.18,1.44,0,.01.01.02.02.04-.16.2-.26.48-.3.68-.08.32.06.69.19.98.06.14.15.3.26.43-.04.05-.08.11-.11.18-.19.39-.1.83.11,1.19.06.11.15.21.25.3-.02.04-.04.09-.05.14-.07.39.29.85.69,1.04,0,.22.03.45.07.64.07.33.35.61.66.73,0,.02-.01.03-.02.05-.16.39-.14.69.12,1.04.11.14.36.35.63.49.03.53.65.89,1.19.8.1.11.24.2.42.25.22.06.51.04.68-.1.06.17.21.3.43.34.24.05.4-.05.49-.22.14.21.5.27.78.24.11-.01.23-.05.35-.1.16.3.61.48.95.52.28.03.62-.02.82-.24.1-.12.13-.26.12-.41.17.13.42.19.66.17.02,0,.03,0,.05,0,0,.31.22.57.61.65.22.05.47.02.65-.13.04-.03.07-.07.1-.12.14.16.36.24.63.23.15,0,.31-.06.43-.15.09.27.36.44.73.44.5,0,.89-.33,1-.77.15.15.45.15.7.05.14-.05.27-.14.36-.23.04-.01.07-.03.1-.04.16-.08.29-.23.37-.39.27-.08.54-.32.61-.58.05-.2-.07-.3-.24-.38.11-.11.19-.27.24-.41.1-.25.13-.59.02-.82.22-.11.39-.42.46-.69.1-.39.06-.85-.19-1.13.12,0,.24-.05.35-.15.21-.22.22-.6.2-.88-.01-.15-.09-.49-.22-.73.67-.22.64-1.5.11-1.88.25-.11.38-.39.39-.74,0-.07,0-.15-.01-.22.05-.02.1-.04.15-.09.33-.27.41-.76.41-1.18.22.28.61.03.81-.22.32-.41.37-.96.09-1.39.75.07.92-.85.64-1.43.68.27,1.04-.7.68-1.25.9.12,1.46-.92,1.29-1.73,0,0,0-.01.01-.02.79.45,1.55-.1,1.79-.86.16-.18.22-.42.13-.72,0,0,0,0,0,0,.59.28,1.33.07,1.84-.3.32-.23.53-.59.4-.89.09-.02.18-.07.26-.16.02-.02.04-.04.05-.06.3.04.62-.23.65-.48.23-.02.34-.49.17-.67Z"/>
        <path class="cls-30" d="M282.48,93.92c.04-.13,0-.3-.14-.45-.16-.16-.37-.21-.58-.18-.02-.05-.05-.09-.1-.13.2-.08.37-.21.41-.41.09-.38-.38-.38-.74-.34.18-.09.34-.21.48-.37.01-.02.02-.04,0-.06-.31-.32-.77-.33-1.2-.24.19-.16.27-.37.02-.61-.25-.25-.62-.34-.98-.31,0-.01-.02-.02-.03-.03-.13-.17-.39-.37-.62-.46,0-.24-.12-.53-.28-.73-.17-.22-.43-.44-.72-.46-.14-.01-.25.02-.36.08-.04-.12-.11-.24-.17-.32-.16-.2-.39-.37-.65-.39-.09,0-.17,0-.24.03-.04-.15-.11-.3-.21-.42-.15-.19-.37-.39-.62-.42-.23-.03-.38.11-.49.28-.14-.55-.57-.88-1.17-.76-.19.04-.51.19-.65.39-.23-.58-.74-1.1-1.4-1.01-.33.05-.72.25-.85.52-.07-.02-.15,0-.21.04-.09-.17-.28-.17-.46-.07-.64-.23-1.31-.21-1.3.55-.37-.47-.89-.97-1.51-.62-.22.13-.42.36-.5.6-.25-.26-.62-.38-1.02-.3-.41.07-.64.35-.64.68-.27-.29-.7-.33-1.11-.09-.38.23-.53.61-.45.98-.53-.28-1.35.38-1.35.97-.23-.11-.56-.1-.76-.01-.58.25-.68.86-.62,1.42-.32-.37-.77-.32-1.09.1-.17.22-.26.5-.25.77-.4-.28-.97-.27-1.35.14-.29.33-.26.82-.19,1.22.03.16.08.33.15.49,0,.02,0,.05.01.08,0,0,0,0,0,0-.23.02-.42.14-.51.43-.12.37.13.77.45,1.03-.25-.01-.5.09-.67.32,0,0,0,.02-.01.02.04.03.08.05.12.08.2.11.49.2.7.07.07-.04.11-.1.14-.17.09.14.23.24.42.27.46.06.62-.37.63-.75.21.34.62.38.99.18.02-.01.05-.02.06-.04.27.24.66.33,1.02.11.26-.16.34-.49.36-.78.05,0,.09-.01.13-.02.32-.06.66-.21.86-.48,0,0,0,0,0,0,.08.05.17.08.27.09.25.02.45-.11.59-.31.07-.11.13-.26.16-.42.37-.12.72-.43.92-.78.24.49.69.93,1.25.63.24-.13.37-.42.4-.71.37-.17.68-.47.82-.84.35.34.79.62,1.14.23.03-.03.06-.07.08-.12.06,0,.12,0,.18,0,.09,0,.18-.02.28-.04-.02.4.06.79.42.9.34.11.61-.24.73-.5.02-.04.03-.08.05-.13.18-.02.34-.09.5-.19.16.41.48.7,1,.54.16-.05.29-.17.39-.34.48.34,1.18.47,1.7.32,0,.31.09.56.42.51.26-.04.38-.37.45-.59,0-.02.01-.04.02-.07.24.18.58.23.85.14.08.13.18.24.32.32.18.11.35.09.49,0,.17.13.38.22.59.27.11.03.23.03.35.03-.1.45-.04.93.54.95.39.01.69-.23.88-.55.09,0,.18-.03.27-.06.01.08.03.17.06.25.07.21.27.43.51.32.23-.1.33-.37.38-.61.13.19.31.33.56.4.47.12.84-.17,1.05-.55.05.35.32.52.67.57-.01-.03-.03-.05-.05-.07Z"/>
      </g>
      <g>
        <path class="cls-27" d="M271.06,119.58c-.14-.14-.33-.21-.52-.24.02-.06.03-.13.05-.2.05-.2.12-.46.05-.66.2-.05.38-.19.47-.37.21-.42-.12-.82-.52-.95.02-.03.04-.07.05-.12.04-.18-.01-.38-.09-.56.49-.32.57-1.21.3-1.66,0,0,0,0,0,0,.17-.27.06-.66-.08-.91-.06-.11-.14-.2-.24-.27-.06-.16-.2-.23-.35-.23.08-.12.11-.27.07-.45-.09-.42-.46-.55-.84-.57,0-.14-.02-.27-.1-.36.23-.1.4-.31.35-.61-.05-.36-.34-.47-.63-.43.2-.19.34-.46.36-.71.03-.33-.19-.43-.44-.39.21-.21.29-.5.11-.79-.12-.19-.32-.29-.52-.3,0-.06-.02-.11-.04-.17-.06-.19-.18-.37-.37-.44-.02,0-.05-.01-.07-.02-.06-.14-.2-.24-.44-.29-.35-.07-.5.25-.53.6-.06,0-.11,0-.17,0-.1-.22-.26-.37-.49-.28-.11.04-.19.1-.24.17-.25.07-.52.27-.73.51-.44-.13-.77.18-.89.59-.25-.13-.58-.11-.84.13-.07.06-.15.23-.2.43-.04-.02-.07-.03-.1-.04-.55-.11-.89.38-.94.89-.21,0-.46.14-.59.39-.16-.1-.37-.12-.62-.01-.21.1-.41.32-.5.57-.4-.06-.96.19-1.15.66-.13-.04-.3,0-.47.17-.07.07-.13.14-.17.21-.03,0-.07,0-.1,0-.22,0-.44.16-.6.36-.1-.08-.23-.11-.37-.07-.18.05-.31.15-.39.26-.08-.04-.18-.05-.31-.01-.25.07-.37.21-.41.39-.23-.14-.52-.17-.79-.03-.65.32-.25.72.21.94-.05.07-.06.13-.04.2-.22.1-.29.41-.13.6-.05.34.09.55.32.67-.2.21-.2.58.04.81-.14.17-.15.4-.01.55-.19.22-.19.61.06.84v.08c-.38.26-.44.84-.1,1.14-.22.23-.28.63-.04.84-.02.08-.01.16.02.23-.26.22-.44.7-.14.92-.03.09-.04.2-.03.3-.06-.02-.14.02-.16.08-.05.2-.14.74.08.91.02.1.07.18.14.26-.28.21-.41.72-.06.96-.08.1-.12.23-.09.35,0,.03.02.06.04.09,0,.07.03.13.06.17-.14.2-.2.47-.08.66-.29.16-.38.57-.21.83-.24.24-.41.63-.25.94-.09.27-.12.59-.11.78,0,.05.03.1.08.12-.13.16-.22.37-.28.6-.02.06.02.14.09.15.14.03.3.01.44-.04.11.29.34.55.6.71.2.13.45.19.68.11.24-.08.36-.33.42-.56.35.17.74.32,1.14.27.13-.02.23-.06.32-.13.05.02.11.03.16.05.43.09.75-.09.92-.4.01,0,.03,0,.04-.01.13.28.44.48.78.46.61-.03.7-.64.74-1.14.06-.03.11-.08.16-.13.29.14.64.18.95.06.25-.1.32-.29.29-.49.44.25,1.22.11,1.31-.39.03.02.06.03.1.04.07.04.14.07.22.1.02,0,.04.01.06.02.27.34.73.5,1.06.1.08-.1.15-.22.19-.35.34-.05.4-.52.41-.89.13.2.37.28.65.13.3-.15.43-.46.39-.75.21.17.54.19.8.07.32-.15.46-.41.4-.69.11.1.25.16.4.14.21-.03.34-.25.41-.42.09-.24.09-.5-.01-.7.17-.14.29-.39.31-.6.01-.13,0-.26-.02-.39.2-.08.33-.25.32-.56,0-.11-.04-.25-.09-.37.05-.02.09-.06.14-.1.23-.23.22-.59.09-.87.82.24,1.6-.81.91-1.48Z"/>
        <path class="cls-5" d="M267.99,108.35c.04-.13,0-.3-.14-.44-.16-.16-.37-.21-.58-.18-.02-.05-.05-.09-.09-.13.2-.08.37-.21.41-.41.09-.38-.38-.38-.74-.34.18-.09.34-.21.48-.37.02-.02.02-.04,0-.06-.31-.32-.77-.33-1.2-.24.19-.15.27-.36.02-.61-.25-.25-.62-.34-.98-.31,0-.01-.02-.02-.03-.03-.13-.17-.39-.37-.63-.46,0-.24-.12-.53-.28-.73-.17-.22-.43-.44-.72-.46-.14-.01-.25.02-.36.08-.04-.12-.11-.23-.17-.32-.16-.2-.39-.36-.65-.39-.09-.01-.17,0-.24.03-.04-.15-.11-.3-.21-.42-.15-.19-.36-.39-.62-.42-.23-.02-.38.1-.48.28-.14-.55-.57-.87-1.16-.76-.19.04-.51.19-.65.39-.23-.58-.74-1.1-1.4-1-.33.05-.72.25-.85.51-.07-.02-.14,0-.21.03-.09-.17-.28-.17-.46-.07-.64-.23-1.31-.21-1.3.55-.37-.47-.89-.97-1.5-.61-.22.13-.42.36-.49.6-.25-.25-.62-.37-1.02-.3-.4.07-.64.35-.64.68-.27-.29-.7-.33-1.1-.09-.38.23-.53.61-.45.97-.52-.28-1.34.38-1.35.97-.23-.11-.56-.1-.76-.02-.58.25-.68.85-.62,1.42-.32-.36-.76-.32-1.08.1-.17.22-.26.5-.25.77-.4-.27-.97-.27-1.35.14-.29.33-.26.81-.19,1.21.03.16.07.33.15.49,0,.02,0,.05.01.08,0,0,0,0,0,0-.23.02-.42.14-.51.43-.12.37.13.77.45,1.02-.25-.01-.5.09-.67.32-.03.05-.06.1-.07.15-.09.04-.18.1-.26.2-.19.21-.21.45-.1.63-.16,0-.3.09-.37.29-.12.34.15.57.44.66-.21.09-.34.29-.33.55,0,.13.05.22.12.28-.08.08-.14.18-.18.3-.02.05-.03.09-.04.14-.63.22-1.16,1.3-.59,1.76.02.01.03.02.05.03-.11.14-.2.32-.25.47-.04.1-.06.2-.06.29-.61.14-.73.86-.56,1.44.08.27.22.54.42.75-.19.43-.02,1.12.18,1.43,0,.01.01.02.02.03-.16.2-.26.48-.3.68-.08.32.06.69.19.98.06.14.15.3.26.43-.04.05-.08.11-.11.18-.18.39-.1.83.11,1.19.06.11.15.21.25.3-.02.04-.04.09-.05.14-.07.39.29.85.69,1.04,0,.22.03.45.07.64.07.32.35.6.66.73,0,.02-.01.03-.02.05-.16.39-.14.69.12,1.03.11.14.36.35.63.49.03.53.65.89,1.19.8.1.11.24.2.42.25.22.06.51.04.68-.1.06.17.21.3.43.34.24.05.4-.05.49-.21.14.21.5.27.78.24.11-.01.24-.05.35-.1.16.3.61.48.95.52.28.03.62-.02.82-.24.1-.12.13-.26.12-.41.18.13.42.19.66.17.02,0,.03,0,.05,0,0,.31.22.56.61.65.22.05.47.02.64-.13.04-.03.07-.07.1-.12.14.16.36.24.63.23.15,0,.31-.06.43-.14.09.27.36.44.73.44.5,0,.88-.33,1-.77.15.15.45.15.7.05.14-.05.27-.14.36-.23.04-.01.07-.03.1-.04.16-.08.29-.23.37-.39.27-.08.54-.32.61-.58.05-.2-.07-.3-.24-.37.11-.11.18-.27.24-.4.1-.25.13-.59.02-.82.22-.11.39-.42.46-.69.1-.39.06-.85-.19-1.12.13,0,.25-.05.35-.15.21-.22.22-.59.2-.88-.01-.15-.09-.49-.22-.73.68-.22.64-1.5.11-1.87.25-.1.38-.39.39-.73,0-.07,0-.15,0-.22.05-.02.1-.04.15-.08.33-.27.41-.76.41-1.18.22.27.61.03.81-.22.32-.41.37-.96.09-1.38.75.07.92-.84.64-1.43.68.27,1.04-.7.68-1.24.9.12,1.46-.91,1.28-1.73,0,0,0-.01.01-.02.79.44,1.55-.1,1.79-.85.15-.18.22-.42.13-.71,0,0,0,0,0,0,.59.27,1.33.07,1.84-.3.32-.23.53-.59.4-.89.09-.01.18-.07.26-.16.02-.02.04-.04.05-.06.3.04.61-.23.65-.48.23-.02.34-.49.17-.67Z"/>
        <path class="cls-30" d="M267.99,108.35c.04-.13,0-.3-.14-.44-.16-.16-.37-.21-.58-.18-.02-.05-.05-.09-.09-.13.2-.08.37-.21.41-.41.09-.38-.38-.38-.74-.34.18-.09.34-.21.48-.37.02-.02.02-.04,0-.06-.31-.32-.77-.33-1.2-.24.19-.15.27-.36.02-.61-.25-.25-.62-.34-.98-.31,0-.01-.02-.02-.03-.03-.13-.17-.39-.37-.63-.46,0-.24-.12-.53-.28-.73-.17-.22-.43-.44-.72-.46-.14-.01-.25.02-.36.08-.04-.12-.11-.23-.17-.32-.16-.2-.39-.36-.65-.39-.09-.01-.17,0-.24.03-.04-.15-.11-.3-.21-.42-.15-.19-.36-.39-.62-.42-.23-.02-.38.1-.48.28-.14-.55-.57-.87-1.16-.76-.19.04-.51.19-.65.39-.23-.58-.74-1.1-1.4-1-.33.05-.72.25-.85.51-.07-.02-.14,0-.21.03-.09-.17-.28-.17-.46-.07-.64-.23-1.31-.21-1.3.55-.37-.47-.89-.97-1.5-.61-.22.13-.42.36-.49.6-.25-.25-.62-.37-1.02-.3-.4.07-.64.35-.64.68-.27-.29-.7-.33-1.1-.09-.38.23-.53.61-.45.97-.52-.28-1.34.38-1.35.97-.23-.11-.56-.1-.76-.02-.58.25-.68.85-.62,1.42-.32-.36-.76-.32-1.08.1-.17.22-.26.5-.25.77-.4-.27-.97-.27-1.35.14-.29.33-.26.81-.19,1.21.03.16.07.33.15.49,0,.02,0,.05.01.08,0,0,0,0,0,0-.23.02-.42.14-.51.43-.12.37.13.77.45,1.02-.25-.01-.5.09-.67.32,0,0,0,.02-.01.02.04.03.08.05.12.08.2.11.48.2.7.07.07-.04.11-.1.14-.17.09.14.23.24.41.26.46.06.62-.36.63-.74.21.34.62.37.99.18.02-.01.04-.02.06-.04.27.24.66.33,1.02.11.26-.16.34-.49.36-.77.05,0,.09-.01.13-.02.32-.06.66-.21.86-.47,0,0,0,0,0,0,.08.05.17.08.27.09.25.02.45-.11.58-.31.08-.11.13-.26.16-.42.37-.12.72-.42.92-.78.24.49.69.92,1.24.62.24-.13.38-.41.4-.7.37-.17.67-.46.82-.83.35.34.79.62,1.14.23.03-.03.06-.07.08-.12.06,0,.12,0,.18,0,.09,0,.18-.02.28-.04-.02.4.06.79.42.9.34.1.61-.24.73-.5.02-.04.03-.08.05-.13.18-.02.34-.09.5-.19.16.4.48.69.99.54.16-.05.29-.18.39-.34.48.34,1.18.47,1.69.31,0,.31.09.56.42.51.26-.04.38-.37.45-.59,0-.02.01-.04.02-.06.24.17.57.23.85.13.08.13.18.24.32.32.18.11.35.09.49,0,.17.13.38.22.59.27.11.03.23.03.35.03-.1.45-.04.93.53.94.39.01.69-.23.87-.55.09,0,.18-.03.27-.06.01.08.03.17.06.24.07.21.27.43.51.32.22-.1.33-.37.38-.6.13.18.31.33.56.39.47.12.84-.17,1.05-.55.04.34.32.52.67.57-.01-.03-.02-.05-.04-.07Z"/>
      </g>
      <g>
        <path class="cls-27" d="M297.79,116.44c-.12-.11-.27-.17-.43-.2.01-.05.03-.11.04-.17.04-.16.1-.38.04-.55.16-.04.31-.16.39-.3.17-.35-.1-.67-.42-.78.02-.03.03-.06.04-.1.03-.15,0-.31-.07-.46.4-.26.47-1,.24-1.37,0,0,0,0,0,0,.14-.22.05-.54-.06-.75-.05-.09-.12-.17-.2-.23-.05-.13-.16-.19-.29-.19.07-.1.09-.22.06-.37-.07-.35-.38-.46-.7-.47,0-.12-.02-.23-.08-.29.19-.08.33-.25.29-.5-.04-.3-.28-.39-.52-.35.16-.15.28-.38.3-.59.02-.27-.15-.35-.37-.32.18-.17.24-.41.09-.65-.1-.16-.26-.24-.43-.25,0-.05-.02-.09-.03-.14-.05-.16-.15-.31-.31-.37-.02,0-.04-.01-.06-.01-.05-.11-.16-.2-.36-.24-.29-.05-.42.2-.44.5-.05,0-.09,0-.14,0-.09-.18-.21-.3-.41-.23-.09.03-.15.08-.2.14-.2.06-.43.22-.6.42-.37-.11-.64.15-.73.48-.21-.1-.48-.09-.7.11-.05.05-.12.19-.17.35-.03-.01-.06-.02-.09-.03-.46-.09-.73.31-.78.73-.18,0-.38.12-.49.32-.13-.09-.31-.1-.51-.01-.17.08-.34.27-.41.47-.33-.05-.79.15-.95.54-.11-.04-.24,0-.39.14-.06.05-.1.11-.14.17-.03,0-.05,0-.08,0-.18,0-.37.13-.49.3-.09-.06-.19-.09-.31-.06-.15.04-.25.12-.32.22-.07-.03-.15-.04-.26-.01-.21.06-.31.18-.34.32-.19-.11-.43-.14-.65-.03-.53.26-.2.59.17.78-.04.05-.05.11-.03.16-.18.08-.24.34-.11.49-.04.28.07.45.26.55-.16.17-.16.48.03.66-.11.14-.12.33-.01.45-.16.18-.16.5.05.69v.06c-.31.21-.36.69-.09.94-.18.19-.23.52-.03.7-.01.06,0,.13.02.19-.21.18-.36.57-.11.76-.02.07-.03.16-.03.25-.05-.02-.11.02-.13.07-.04.17-.12.61.07.75.02.08.06.15.12.21-.23.17-.33.59-.05.79-.06.08-.1.19-.07.29,0,.03.02.05.03.08,0,.05.02.1.05.14-.11.17-.16.39-.06.55-.24.13-.31.47-.18.68-.2.2-.34.52-.21.77-.08.22-.1.49-.09.65,0,.04.03.08.07.1-.11.13-.18.31-.23.49-.01.05.02.12.07.13.12.02.24,0,.36-.03.09.24.28.45.49.59.16.11.37.16.56.09.2-.07.3-.27.35-.46.29.14.61.26.94.22.1-.01.19-.05.26-.1.04.02.09.03.13.04.35.07.62-.07.75-.33.01,0,.02,0,.03,0,.11.23.36.39.65.38.51-.02.57-.52.61-.94.05-.03.09-.06.13-.11.24.12.53.15.78.05.21-.08.26-.24.24-.4.37.21,1.01.09,1.08-.33.02.01.05.02.08.03.06.03.12.06.18.09.02,0,.03.01.05.02.23.28.6.41.87.08.07-.08.12-.18.16-.29.28-.04.33-.43.33-.73.11.17.31.23.54.11.24-.12.36-.38.32-.62.18.14.44.16.66.06.26-.12.38-.34.33-.57.09.08.2.13.33.12.17-.02.28-.2.33-.35.08-.2.07-.41,0-.58.14-.12.24-.32.26-.49.01-.1,0-.21-.01-.32.16-.06.27-.21.27-.46,0-.09-.03-.2-.08-.31.04-.02.08-.05.12-.08.19-.19.18-.49.07-.71.67.19,1.31-.67.75-1.22Z"/>
        <path class="cls-5" d="M295.26,107.18c.03-.11,0-.25-.11-.37-.13-.13-.31-.17-.48-.15-.02-.04-.05-.07-.08-.11.17-.07.31-.18.34-.34.07-.31-.31-.32-.61-.28.15-.08.28-.17.4-.3.01-.01.01-.03,0-.05-.26-.27-.63-.27-.99-.2.16-.13.22-.3.02-.5-.21-.2-.51-.28-.81-.26,0,0-.01-.02-.02-.03-.11-.14-.32-.3-.52-.38,0-.2-.1-.43-.23-.6-.14-.18-.36-.36-.59-.38-.11-.01-.21.02-.29.06-.04-.1-.09-.19-.14-.26-.13-.17-.32-.3-.54-.32-.07,0-.14,0-.2.02-.03-.12-.1-.24-.17-.34-.12-.16-.3-.32-.51-.35-.19-.02-.31.09-.4.23-.11-.45-.47-.72-.96-.62-.16.03-.42.16-.53.32-.19-.47-.61-.91-1.15-.82-.27.04-.59.21-.7.42-.06-.02-.12,0-.17.03-.08-.14-.23-.14-.38-.05-.52-.19-1.08-.17-1.07.45-.31-.39-.73-.8-1.24-.51-.18.11-.35.3-.41.5-.21-.21-.51-.31-.84-.25-.33.06-.53.29-.53.56-.23-.24-.58-.27-.91-.07-.31.19-.43.5-.37.8-.43-.23-1.11.31-1.11.8-.19-.09-.46-.08-.62-.01-.48.2-.56.7-.51,1.17-.26-.3-.63-.26-.89.08-.14.18-.21.41-.21.63-.33-.23-.8-.22-1.11.12-.24.27-.21.67-.16,1,.02.13.06.27.12.4,0,.02,0,.04,0,.06,0,0,0,0,0,0-.19.02-.34.11-.42.35-.1.31.11.63.37.84-.21-.01-.41.07-.55.26-.03.04-.05.08-.06.12-.07.03-.15.09-.22.16-.16.18-.17.37-.09.52-.13,0-.25.07-.31.24-.1.28.12.47.36.55-.17.08-.28.24-.28.45,0,.1.04.18.1.23-.06.07-.11.15-.15.25-.01.04-.02.08-.03.11-.52.18-.95,1.07-.49,1.45.01.01.02.02.04.03-.09.12-.16.26-.21.39-.03.08-.05.16-.05.24-.5.11-.6.71-.46,1.19.06.22.18.45.35.62-.16.35-.02.92.15,1.18,0,0,.01.02.02.03-.13.17-.21.4-.25.56-.06.26.05.57.16.8.05.11.12.24.21.35-.03.05-.07.09-.09.15-.15.32-.08.68.09.98.05.09.12.18.21.25-.02.04-.03.08-.04.12-.06.32.24.7.57.86,0,.18.02.37.06.53.06.27.29.5.55.6,0,.01-.01.03-.02.04-.13.32-.11.57.1.85.09.11.29.29.52.4.02.44.54.73.98.66.08.09.2.16.35.2.18.05.42.03.56-.08.05.14.18.24.35.28.19.04.33-.04.41-.18.12.17.41.22.65.19.09,0,.19-.04.29-.08.13.24.5.39.78.43.23.03.51-.01.67-.2.09-.1.11-.21.1-.33.14.11.34.16.55.14.01,0,.03,0,.04,0,0,.25.18.46.5.53.18.04.38.01.53-.11.03-.03.06-.06.08-.1.11.13.3.2.52.19.13,0,.26-.05.36-.12.08.22.3.36.6.36.42,0,.73-.27.82-.63.12.13.37.12.58.04.12-.05.22-.11.29-.19.03-.01.06-.02.08-.04.13-.07.24-.19.3-.32.22-.06.44-.26.5-.48.04-.17-.06-.25-.2-.31.09-.09.15-.23.19-.33.08-.2.11-.49.02-.67.18-.09.32-.35.38-.57.08-.32.05-.7-.16-.93.1,0,.2-.04.28-.13.18-.18.18-.49.16-.72,0-.13-.07-.4-.18-.6.56-.18.53-1.23.09-1.54.21-.09.31-.32.32-.61,0-.06,0-.12,0-.18.04-.01.08-.04.12-.07.27-.23.34-.63.34-.97.18.23.5.02.67-.18.26-.33.31-.79.07-1.14.62.06.76-.69.52-1.18.56.22.86-.58.56-1.03.74.1,1.2-.75,1.06-1.42,0,0,0,0,0-.02.65.37,1.27-.08,1.48-.7.13-.15.18-.35.11-.59,0,0,0,0,0,0,.49.23,1.1.06,1.52-.25.26-.19.44-.49.33-.73.07-.01.15-.06.21-.13.02-.02.03-.03.04-.05.25.03.51-.19.54-.39.19-.02.28-.4.14-.55Z"/>
        <path class="cls-30" d="M295.26,107.18c.03-.11,0-.25-.11-.37-.13-.13-.31-.17-.48-.15-.02-.04-.05-.07-.08-.11.17-.07.31-.18.34-.34.07-.31-.31-.32-.61-.28.15-.08.28-.17.4-.3.01-.01.01-.03,0-.05-.26-.27-.63-.27-.99-.2.16-.13.22-.3.02-.5-.21-.2-.51-.28-.81-.26,0,0-.01-.02-.02-.03-.11-.14-.32-.3-.52-.38,0-.2-.1-.43-.23-.6-.14-.18-.36-.36-.59-.38-.11-.01-.21.02-.29.06-.04-.1-.09-.19-.14-.26-.13-.17-.32-.3-.54-.32-.07,0-.14,0-.2.02-.03-.12-.1-.24-.17-.34-.12-.16-.3-.32-.51-.35-.19-.02-.31.09-.4.23-.11-.45-.47-.72-.96-.62-.16.03-.42.16-.53.32-.19-.47-.61-.91-1.15-.82-.27.04-.59.21-.7.42-.06-.02-.12,0-.17.03-.08-.14-.23-.14-.38-.05-.52-.19-1.08-.17-1.07.45-.31-.39-.73-.8-1.24-.51-.18.11-.35.3-.41.5-.21-.21-.51-.31-.84-.25-.33.06-.53.29-.53.56-.23-.24-.58-.27-.91-.07-.31.19-.43.5-.37.8-.43-.23-1.11.31-1.11.8-.19-.09-.46-.08-.62-.01-.48.2-.56.7-.51,1.17-.26-.3-.63-.26-.89.08-.14.18-.21.41-.21.63-.33-.23-.8-.22-1.11.12-.24.27-.21.67-.16,1,.02.13.06.27.12.4,0,.02,0,.04,0,.06,0,0,0,0,0,0-.19.02-.34.11-.42.35-.1.31.11.63.37.84-.21-.01-.41.07-.55.26,0,0,0,.01-.01.02.03.02.06.04.1.06.16.09.4.16.57.06.05-.03.09-.08.11-.14.07.11.19.2.34.22.38.05.51-.3.52-.61.17.28.52.31.82.15.02,0,.04-.02.05-.03.22.2.54.27.84.09.21-.13.28-.4.3-.64.04,0,.07,0,.11-.02.26-.05.54-.17.71-.39,0,0,0,0,0,0,.07.04.14.07.22.08.21.02.37-.09.48-.25.06-.09.11-.21.13-.34.3-.1.59-.35.76-.64.2.4.57.76,1.02.51.19-.11.31-.34.33-.58.3-.14.56-.38.67-.68.28.28.65.51.94.19.02-.03.05-.06.07-.1.05,0,.1,0,.15,0,.07,0,.15-.01.23-.03-.02.33.05.65.34.74.28.09.5-.19.6-.41.01-.03.03-.07.04-.1.15-.02.28-.07.41-.15.13.33.4.57.82.44.13-.04.24-.14.32-.28.4.28.97.39,1.4.26,0,.26.08.46.35.42.21-.03.32-.31.37-.48,0-.02,0-.03.02-.05.2.14.47.19.7.11.07.11.15.2.26.26.15.09.29.07.4,0,.14.11.31.18.49.22.09.02.19.03.29.02-.09.37-.03.76.44.78.32,0,.57-.19.72-.45.08,0,.15-.02.22-.05,0,.07.03.14.05.2.05.17.22.35.42.26.19-.09.27-.3.31-.5.11.15.26.27.46.32.38.1.69-.14.87-.45.04.28.26.42.55.47,0-.02-.02-.04-.04-.06Z"/>
      </g>
      <g>
        <path class="cls-27" d="M268.23,141.21c-.13-.13-.3-.19-.48-.22.02-.06.03-.12.05-.18.04-.18.1-.41.05-.6.18-.04.35-.17.43-.33.19-.38-.11-.74-.47-.85.02-.03.04-.07.05-.11.04-.16,0-.34-.08-.51.44-.29.52-1.1.27-1.51,0,0,0,0,0,0,.15-.24.05-.59-.07-.82-.05-.1-.13-.18-.22-.25-.06-.15-.18-.21-.32-.21.07-.11.1-.24.07-.41-.08-.38-.42-.5-.76-.51,0-.13-.02-.25-.09-.32.21-.09.36-.28.32-.55-.05-.32-.31-.43-.57-.39.18-.17.31-.41.33-.64.03-.3-.17-.39-.4-.35.19-.19.26-.46.1-.72-.11-.18-.29-.26-.47-.27,0-.05-.02-.1-.03-.16-.05-.17-.16-.34-.34-.4-.02,0-.04-.01-.06-.01-.05-.13-.18-.22-.39-.26-.32-.06-.46.22-.48.55-.05,0-.1,0-.15,0-.09-.2-.23-.34-.44-.25-.1.04-.17.09-.22.16-.22.06-.48.24-.66.46-.4-.12-.7.16-.8.53-.23-.12-.52-.1-.77.12-.06.06-.13.21-.18.39-.03-.02-.07-.03-.1-.03-.5-.1-.8.34-.85.8-.2,0-.41.13-.54.35-.14-.09-.34-.11-.56-.01-.19.09-.37.29-.45.51-.37-.05-.87.17-1.04.6-.12-.04-.27,0-.43.15-.06.06-.11.12-.16.19-.03,0-.06,0-.09,0-.2,0-.4.14-.54.33-.09-.07-.21-.1-.33-.07-.16.05-.28.13-.36.24-.07-.04-.16-.05-.29-.01-.22.06-.34.19-.37.35-.21-.13-.47-.15-.72-.03-.59.29-.22.65.19.85-.04.06-.06.12-.04.18-.2.09-.26.37-.12.54-.05.3.08.5.29.61-.18.19-.18.53.04.73-.13.15-.14.36-.01.5-.17.19-.17.55.06.76v.07c-.34.24-.4.76-.09,1.04-.2.2-.26.57-.04.76-.01.07,0,.15.02.21-.24.2-.4.63-.13.83-.02.08-.03.18-.03.27-.06-.02-.13.02-.14.08-.05.18-.13.67.07.82.02.09.06.17.13.24-.25.19-.37.65-.05.87-.07.09-.11.2-.08.31,0,.03.02.06.03.08,0,.06.03.11.05.15-.13.18-.18.42-.07.6-.26.14-.35.51-.19.75-.21.22-.37.57-.23.85-.08.24-.11.53-.1.71,0,.05.03.09.08.11-.12.15-.2.34-.26.54-.01.06.02.13.08.14.13.03.27,0,.39-.03.1.26.31.49.54.65.18.11.41.17.61.1.22-.07.33-.3.38-.51.32.15.67.29,1.03.25.11-.01.21-.05.29-.11.05.02.1.03.15.04.38.08.68-.08.83-.36.01,0,.03,0,.04,0,.12.25.4.43.71.42.55-.02.63-.57.67-1.03.05-.03.1-.07.14-.12.26.13.58.16.86.05.23-.09.29-.26.26-.44.4.23,1.11.1,1.19-.36.03.02.05.03.09.03.06.04.13.07.2.09.02,0,.04.01.06.02.25.31.66.45.96.09.08-.09.13-.2.17-.31.31-.05.36-.47.37-.8.12.18.33.25.59.12.27-.13.39-.41.35-.68.2.15.49.17.73.06.29-.13.42-.37.36-.63.1.09.22.15.37.13.19-.03.31-.22.37-.38.08-.22.08-.45-.01-.64.16-.13.26-.35.28-.54.01-.12,0-.23-.02-.35.18-.07.3-.22.29-.51,0-.1-.03-.22-.09-.34.04-.02.09-.05.13-.09.21-.21.2-.54.08-.78.74.21,1.45-.74.83-1.34Z"/>
        <path class="cls-5" d="M265.45,131.04c.04-.12,0-.27-.12-.4-.15-.14-.34-.19-.52-.16-.02-.04-.05-.08-.09-.12.18-.08.33-.19.37-.37.08-.34-.34-.35-.67-.31.16-.08.31-.19.44-.33.01-.02.01-.04,0-.05-.28-.29-.7-.3-1.09-.22.17-.14.24-.33.02-.55-.22-.22-.56-.31-.89-.28,0,0-.02-.02-.02-.03-.12-.15-.35-.33-.57-.41,0-.22-.11-.48-.25-.66-.15-.2-.39-.39-.65-.42-.12-.01-.23.02-.32.07-.04-.11-.1-.21-.16-.29-.15-.18-.35-.33-.59-.36-.08,0-.15,0-.22.03-.03-.13-.1-.27-.19-.38-.13-.17-.33-.36-.56-.38-.21-.02-.35.09-.44.25-.12-.49-.52-.79-1.05-.68-.17.03-.46.17-.59.36-.21-.52-.67-.99-1.27-.91-.3.05-.65.23-.77.47-.07-.02-.13,0-.19.03-.08-.15-.25-.15-.42-.06-.57-.21-1.19-.19-1.17.5-.34-.42-.81-.88-1.36-.56-.2.12-.38.33-.45.54-.23-.23-.56-.34-.92-.27-.37.07-.58.32-.58.62-.25-.26-.63-.3-1-.08-.35.21-.48.55-.4.88-.48-.25-1.22.34-1.22.87-.21-.1-.5-.09-.69-.01-.52.22-.62.77-.56,1.28-.29-.33-.69-.29-.98.09-.15.2-.24.45-.23.69-.36-.25-.88-.25-1.22.13-.27.29-.23.73-.17,1.1.02.15.07.3.13.44,0,.02,0,.05.01.07,0,0,0,0,0,0-.21.02-.38.12-.46.39-.11.34.12.69.41.93-.23-.01-.46.08-.61.29-.03.04-.05.09-.06.14-.08.03-.16.09-.24.18-.17.19-.19.41-.09.57-.15,0-.27.08-.34.27-.11.31.13.52.4.6-.19.08-.31.26-.3.49,0,.11.05.2.11.26-.07.07-.13.16-.17.27-.01.04-.02.08-.03.12-.57.2-1.05,1.18-.54,1.6.01.01.03.02.04.03-.1.13-.18.29-.23.43-.03.09-.05.18-.06.27-.55.12-.66.78-.51,1.3.07.24.2.49.38.68-.18.39-.02,1.01.17,1.3,0,.01.01.02.02.03-.14.18-.23.44-.27.61-.07.29.05.62.17.88.06.12.14.27.24.38-.04.05-.07.1-.1.16-.17.35-.09.75.1,1.07.06.1.13.19.22.27-.02.04-.04.08-.05.13-.06.36.26.77.62.94,0,.2.03.4.06.58.06.29.32.55.6.66,0,.01-.01.03-.02.04-.14.35-.12.62.11.93.1.13.32.31.57.44.02.48.59.8,1.08.73.09.1.22.18.38.22.2.05.46.03.61-.09.06.15.19.27.39.31.21.04.36-.05.45-.2.13.19.45.24.71.21.1-.01.21-.04.31-.09.15.27.55.43.86.47.25.03.56-.01.74-.22.09-.11.12-.24.11-.37.16.12.38.17.6.16.02,0,.03,0,.05,0,0,.28.2.51.55.59.2.04.42.01.58-.12.04-.03.07-.07.09-.1.13.14.33.22.57.21.14,0,.28-.05.39-.13.08.24.33.4.66.4.46,0,.8-.3.9-.7.13.14.41.13.63.04.13-.05.24-.12.32-.21.03-.01.06-.03.09-.04.14-.08.26-.2.33-.35.24-.07.49-.29.55-.53.05-.18-.07-.27-.21-.34.1-.1.17-.25.21-.37.09-.23.12-.54.02-.74.2-.1.36-.38.42-.62.09-.35.05-.77-.17-1.02.11,0,.22-.04.31-.14.19-.2.2-.54.18-.79,0-.14-.08-.44-.2-.66.61-.2.58-1.36.1-1.69.23-.1.34-.36.35-.67,0-.06,0-.13,0-.2.05-.02.09-.04.14-.08.3-.25.37-.69.37-1.07.2.25.56.03.73-.2.29-.37.34-.87.08-1.25.68.06.83-.76.58-1.29.62.24.94-.63.62-1.13.81.11,1.32-.83,1.16-1.56,0,0,0-.01.01-.02.71.4,1.4-.09,1.62-.77.14-.16.2-.38.12-.64,0,0,0,0,0,0,.54.25,1.2.07,1.67-.27.29-.21.48-.54.36-.8.08-.01.16-.06.23-.14.02-.02.03-.04.05-.06.27.04.56-.21.59-.43.21-.02.3-.44.16-.61Z"/>
        <path class="cls-30" d="M265.45,131.04c.04-.12,0-.27-.12-.4-.15-.14-.34-.19-.52-.16-.02-.04-.05-.08-.09-.12.18-.08.33-.19.37-.37.08-.34-.34-.35-.67-.31.16-.08.31-.19.44-.33.01-.02.01-.04,0-.05-.28-.29-.7-.3-1.09-.22.17-.14.24-.33.02-.55-.22-.22-.56-.31-.89-.28,0,0-.02-.02-.02-.03-.12-.15-.35-.33-.57-.41,0-.22-.11-.48-.25-.66-.15-.2-.39-.39-.65-.42-.12-.01-.23.02-.32.07-.04-.11-.1-.21-.16-.29-.15-.18-.35-.33-.59-.36-.08,0-.15,0-.22.03-.03-.13-.1-.27-.19-.38-.13-.17-.33-.36-.56-.38-.21-.02-.35.09-.44.25-.12-.49-.52-.79-1.05-.68-.17.03-.46.17-.59.36-.21-.52-.67-.99-1.27-.91-.3.05-.65.23-.77.47-.07-.02-.13,0-.19.03-.08-.15-.25-.15-.42-.06-.57-.21-1.19-.19-1.17.5-.34-.42-.81-.88-1.36-.56-.2.12-.38.33-.45.54-.23-.23-.56-.34-.92-.27-.37.07-.58.32-.58.62-.25-.26-.63-.3-1-.08-.35.21-.48.55-.4.88-.48-.25-1.22.34-1.22.87-.21-.1-.5-.09-.69-.01-.52.22-.62.77-.56,1.28-.29-.33-.69-.29-.98.09-.15.2-.24.45-.23.69-.36-.25-.88-.25-1.22.13-.27.29-.23.73-.17,1.1.02.15.07.3.13.44,0,.02,0,.05.01.07,0,0,0,0,0,0-.21.02-.38.12-.46.39-.11.34.12.69.41.93-.23-.01-.46.08-.61.29,0,0,0,.01-.01.02.04.03.07.05.11.07.18.1.44.18.63.06.06-.04.1-.09.13-.15.08.12.2.22.37.24.41.05.56-.33.57-.67.18.3.56.34.9.16.02,0,.04-.02.06-.03.25.22.6.3.92.1.23-.14.3-.44.33-.7.04,0,.08,0,.11-.02.29-.05.6-.19.78-.43,0,0,0,0,0,0,.08.04.16.08.25.08.22.02.4-.1.53-.28.07-.1.12-.23.14-.38.33-.11.65-.38.83-.71.22.44.62.84,1.12.56.21-.12.34-.37.36-.64.33-.15.61-.42.74-.75.31.3.72.56,1.03.21.03-.03.05-.07.07-.11.06,0,.11,0,.16,0,.08,0,.17-.02.25-.03-.02.36.06.71.38.81.31.1.55-.21.66-.45.01-.04.03-.08.04-.12.16-.02.31-.08.45-.17.14.36.44.63.9.48.14-.04.26-.16.35-.3.44.31,1.07.42,1.54.29,0,.28.08.51.38.46.23-.03.35-.34.41-.53,0-.02.01-.04.02-.06.22.16.52.21.77.12.07.12.17.22.29.29.16.1.31.08.44,0,.16.12.34.2.53.24.1.02.21.03.31.02-.09.41-.03.84.48.85.35,0,.63-.21.79-.5.09,0,.17-.03.25-.05.01.08.03.15.05.22.06.19.25.39.46.29.21-.09.3-.33.34-.55.12.17.28.3.51.36.42.11.76-.16.95-.5.04.31.29.47.61.51,0-.02-.02-.05-.04-.07Z"/>
      </g>
      <g>
        <path class="cls-27" d="M300.72,138.76c-.13-.13-.3-.19-.48-.22.02-.06.03-.12.05-.18.04-.18.1-.41.05-.6.18-.04.35-.17.43-.33.19-.39-.11-.74-.47-.86.02-.03.04-.07.05-.11.04-.16-.01-.34-.08-.51.44-.29.52-1.1.27-1.51,0,0,0,0,0,0,.15-.24.05-.59-.07-.82-.05-.1-.13-.18-.22-.25-.06-.15-.18-.2-.32-.21.07-.11.1-.24.06-.41-.08-.38-.42-.5-.76-.51,0-.13-.02-.25-.09-.32.21-.09.36-.28.32-.55-.05-.32-.31-.43-.57-.39.18-.17.31-.41.33-.64.03-.3-.17-.39-.4-.35.2-.19.26-.46.1-.72-.11-.18-.29-.26-.47-.27,0-.05-.02-.1-.03-.15-.05-.17-.16-.34-.34-.4-.02,0-.04-.01-.06-.01-.05-.13-.18-.22-.4-.26-.32-.06-.46.22-.48.55-.05,0-.1,0-.15,0-.1-.2-.24-.34-.44-.25-.1.04-.17.09-.22.16-.22.06-.47.25-.66.46-.4-.12-.7.16-.8.53-.23-.11-.52-.1-.77.12-.06.06-.13.21-.18.39-.03-.02-.06-.03-.09-.04-.5-.1-.8.34-.86.8-.19,0-.41.13-.54.35-.14-.09-.34-.11-.56-.01-.19.09-.37.29-.45.51-.37-.05-.87.17-1.04.6-.12-.04-.27,0-.43.15-.06.06-.11.13-.16.19-.03,0-.06,0-.09,0-.2,0-.4.14-.54.33-.09-.07-.21-.1-.33-.07-.16.05-.28.13-.36.24-.07-.04-.16-.05-.29-.01-.22.07-.34.19-.37.35-.2-.12-.47-.15-.72-.03-.59.29-.22.65.19.85-.04.06-.06.12-.04.18-.2.09-.26.37-.12.54-.05.3.08.5.29.61-.18.19-.18.53.04.73-.13.15-.14.36-.01.49-.17.2-.17.55.05.76v.07c-.34.24-.4.76-.09,1.03-.2.21-.26.57-.04.76-.01.07,0,.14.02.21-.24.2-.4.63-.13.83-.02.08-.03.18-.03.27-.06-.02-.13.02-.14.08-.05.18-.13.67.07.82.02.09.06.16.13.24-.25.19-.37.65-.05.87-.07.09-.11.2-.08.31,0,.03.02.06.04.08,0,.06.03.11.05.15-.12.18-.18.42-.07.6-.26.14-.34.51-.19.75-.21.22-.37.57-.23.85-.08.24-.11.53-.1.71,0,.05.03.09.08.11-.12.15-.2.34-.26.54-.01.06.02.13.08.14.13.03.27,0,.39-.04.1.26.31.5.54.65.18.11.41.17.61.1.22-.07.33-.3.38-.51.32.15.67.29,1.03.25.12-.01.21-.05.29-.11.05.02.1.03.15.04.38.08.68-.08.83-.36.01,0,.03,0,.04-.01.12.25.4.43.71.42.55-.02.63-.57.67-1.03.06-.03.1-.07.15-.12.26.13.58.16.86.05.23-.09.29-.26.26-.44.4.23,1.11.1,1.18-.36.03.02.06.03.09.03.06.04.13.07.2.09.02,0,.04.01.05.02.25.31.66.45.96.08.08-.09.13-.2.17-.31.31-.05.36-.47.37-.81.12.18.34.25.59.12.27-.13.39-.41.35-.68.19.16.48.17.73.06.29-.13.42-.37.36-.63.1.09.22.15.37.13.19-.03.31-.22.37-.38.08-.22.08-.45-.01-.63.16-.13.26-.35.28-.54.01-.12,0-.23-.02-.35.18-.07.3-.23.29-.51,0-.1-.03-.22-.09-.34.04-.02.09-.05.13-.09.21-.21.2-.54.08-.78.74.21,1.44-.74.83-1.34Z"/>
        <path class="cls-5" d="M297.94,128.59c.04-.12,0-.27-.12-.4-.15-.14-.34-.19-.53-.16-.02-.04-.05-.08-.09-.12.18-.08.33-.19.37-.37.08-.34-.34-.35-.67-.31.16-.08.31-.19.43-.33.01-.02.02-.04,0-.05-.28-.29-.7-.3-1.09-.22.17-.14.24-.33.02-.55-.22-.22-.56-.31-.89-.28,0-.01-.02-.02-.02-.03-.12-.15-.35-.33-.57-.41,0-.22-.11-.48-.25-.66-.15-.2-.39-.39-.65-.42-.12-.01-.23.02-.32.07-.04-.11-.1-.21-.16-.29-.15-.18-.35-.33-.59-.36-.08,0-.15,0-.22.03-.04-.13-.1-.27-.19-.38-.14-.17-.33-.36-.56-.38-.21-.02-.35.09-.44.25-.12-.49-.51-.79-1.05-.68-.17.04-.46.17-.59.36-.21-.52-.67-.99-1.27-.91-.3.04-.65.23-.77.47-.07-.02-.13,0-.19.03-.09-.15-.25-.15-.42-.06-.57-.21-1.19-.19-1.17.5-.34-.42-.81-.88-1.36-.55-.2.11-.38.33-.45.54-.23-.23-.56-.34-.92-.27-.37.07-.58.32-.58.62-.25-.26-.63-.3-1-.08-.35.21-.48.55-.4.88-.48-.25-1.22.34-1.22.87-.21-.1-.5-.09-.68-.01-.52.22-.62.77-.56,1.28-.29-.33-.69-.29-.98.09-.15.2-.24.45-.22.69-.36-.25-.88-.25-1.22.13-.26.3-.23.73-.17,1.1.02.15.07.3.13.44,0,.02,0,.05.01.07,0,0,0,0,0,0-.21.02-.38.12-.46.39-.11.34.12.69.41.92-.23-.01-.46.08-.61.29-.03.04-.05.09-.06.14-.08.03-.16.09-.24.18-.17.19-.19.41-.09.57-.14,0-.27.08-.34.27-.1.31.13.52.4.6-.19.08-.31.26-.3.5,0,.11.04.2.11.26-.07.07-.13.16-.17.27-.02.04-.03.08-.03.12-.57.2-1.05,1.18-.54,1.6.01.01.03.02.04.03-.1.13-.18.29-.23.43-.03.09-.05.18-.06.27-.55.12-.66.78-.51,1.3.07.24.2.49.38.68-.18.39-.02,1.01.16,1.3,0,.01.02.02.02.03-.14.18-.23.44-.27.61-.07.29.05.62.17.88.06.12.13.27.23.38-.04.05-.07.1-.1.16-.17.35-.09.75.1,1.07.06.1.14.19.23.27-.02.04-.04.08-.05.13-.06.36.26.77.62.94,0,.2.02.4.06.58.06.29.32.55.6.66,0,.01-.01.03-.02.04-.14.35-.12.63.11.93.1.13.32.31.57.44.02.48.59.8,1.07.73.09.1.22.18.38.22.2.05.46.03.61-.09.06.15.2.27.39.31.21.04.37-.05.45-.19.13.19.45.24.71.21.1-.01.21-.04.31-.09.15.27.55.43.86.47.25.03.56-.01.74-.22.09-.11.12-.24.11-.37.16.12.38.18.6.16.01,0,.03,0,.05,0,0,.28.2.51.55.58.2.04.42.01.58-.12.04-.03.07-.07.09-.11.13.14.32.22.57.21.14,0,.28-.05.39-.13.09.24.33.4.66.4.46,0,.8-.3.9-.7.13.14.41.13.63.04.13-.05.24-.12.32-.21.03-.01.06-.03.09-.04.14-.08.26-.2.33-.35.25-.07.49-.29.55-.53.05-.18-.07-.27-.22-.34.1-.1.17-.25.21-.37.09-.23.12-.54.02-.74.2-.1.36-.38.42-.62.09-.35.05-.77-.17-1.02.11,0,.22-.04.31-.14.19-.2.2-.54.18-.79-.01-.14-.08-.44-.2-.66.61-.2.58-1.35.1-1.69.23-.1.34-.36.35-.67,0-.06,0-.13,0-.2.05-.01.09-.04.14-.08.3-.25.37-.69.37-1.07.2.25.56.03.73-.2.29-.37.34-.87.08-1.25.68.06.84-.76.58-1.29.62.24.94-.63.62-1.13.81.11,1.32-.83,1.16-1.56,0,0,0-.01.01-.02.71.4,1.4-.09,1.62-.77.14-.16.2-.38.12-.65,0,0,0,0,0,0,.54.25,1.2.07,1.67-.27.29-.21.48-.54.36-.8.08-.01.16-.06.24-.14.02-.02.03-.04.05-.06.27.04.56-.21.59-.43.21-.02.3-.44.16-.61Z"/>
        <path class="cls-30" d="M297.94,128.59c.04-.12,0-.27-.12-.4-.15-.14-.34-.19-.53-.16-.02-.04-.05-.08-.09-.12.18-.08.33-.19.37-.37.08-.34-.34-.35-.67-.31.16-.08.31-.19.43-.33.01-.02.02-.04,0-.05-.28-.29-.7-.3-1.09-.22.17-.14.24-.33.02-.55-.22-.22-.56-.31-.89-.28,0-.01-.02-.02-.02-.03-.12-.15-.35-.33-.57-.41,0-.22-.11-.48-.25-.66-.15-.2-.39-.39-.65-.42-.12-.01-.23.02-.32.07-.04-.11-.1-.21-.16-.29-.15-.18-.35-.33-.59-.36-.08,0-.15,0-.22.03-.04-.13-.1-.27-.19-.38-.14-.17-.33-.36-.56-.38-.21-.02-.35.09-.44.25-.12-.49-.51-.79-1.05-.68-.17.04-.46.17-.59.36-.21-.52-.67-.99-1.27-.91-.3.04-.65.23-.77.47-.07-.02-.13,0-.19.03-.09-.15-.25-.15-.42-.06-.57-.21-1.19-.19-1.17.5-.34-.42-.81-.88-1.36-.55-.2.11-.38.33-.45.54-.23-.23-.56-.34-.92-.27-.37.07-.58.32-.58.62-.25-.26-.63-.3-1-.08-.35.21-.48.55-.4.88-.48-.25-1.22.34-1.22.87-.21-.1-.5-.09-.68-.01-.52.22-.62.77-.56,1.28-.29-.33-.69-.29-.98.09-.15.2-.24.45-.22.69-.36-.25-.88-.25-1.22.13-.26.3-.23.73-.17,1.1.02.15.07.3.13.44,0,.02,0,.05.01.07,0,0,0,0,0,0-.21.02-.38.12-.46.39-.11.34.12.69.41.92-.23-.01-.46.08-.61.29,0,0,0,.01-.01.02.03.02.07.05.11.07.18.1.44.18.63.06.06-.04.1-.09.13-.15.08.13.2.22.37.24.41.05.56-.33.57-.67.19.3.57.34.9.16.02,0,.04-.02.06-.03.25.22.6.3.92.1.23-.14.3-.44.32-.7.04,0,.08,0,.12-.02.29-.05.6-.19.78-.43,0,0,0,0,0,0,.07.04.16.08.25.08.22.02.41-.1.53-.28.07-.1.12-.24.14-.38.33-.11.65-.38.83-.71.21.44.62.84,1.12.56.21-.12.34-.37.36-.64.33-.16.61-.42.74-.75.31.3.71.56,1.03.21.03-.03.05-.07.07-.11.06,0,.11,0,.16,0,.08,0,.17-.02.25-.03-.02.36.06.71.38.81.31.1.56-.21.66-.45.02-.04.03-.08.04-.12.16-.02.31-.08.45-.17.14.36.44.63.9.48.14-.04.26-.16.35-.3.43.31,1.07.43,1.53.29,0,.28.08.51.38.46.24-.03.35-.34.41-.53,0-.02.01-.04.02-.06.22.16.52.21.77.12.07.12.17.22.29.29.16.1.31.08.44,0,.16.12.34.2.53.25.1.02.21.03.31.02-.09.41-.03.84.48.85.35.01.63-.21.79-.5.08,0,.17-.03.25-.06.01.08.03.15.05.22.06.19.24.39.46.29.2-.09.3-.33.34-.55.12.17.28.3.5.36.42.11.76-.16.95-.5.04.31.29.47.61.51-.01-.02-.02-.05-.04-.07Z"/>
      </g>
      <g>
        <g>
          <path class="cls-18" d="M273.7,152.53c-.78-.29-3.34-.29-4.12,0,0,0-.51.17.33.45.84.28,2.62.28,3.46,0,.84-.28.33-.45.33-.45Z"/>
          <path class="cls-18" d="M269.92,152.85c-.37-.2-.48-.37-.48-.49h0s0,20.47,0,20.47c0,0,0,0,0,.01.02.12.14.28.48.46.42.23,1.08.34,1.73.34v-20.44c-.65,0-1.31-.11-1.73-.34Z"/>
          <path class="cls-6" d="M273.86,152.33c.01.13-.08.3-.48.52-.42.23-1.08.34-1.73.34v20.44c.66,0,1.31-.11,1.73-.34.34-.18.46-.34.48-.46,0,0,0,0,0,0v-20.52s0,.02,0,.03Z"/>
        </g>
        <g>
          <g>
            <path class="cls-18" d="M269.27,149.55c-.34-.21-1.46-.21-1.8,0,0,0-.22.12.14.32.37.2,1.15.2,1.51,0,.37-.2.14-.32.14-.32Z"/>
            <path class="cls-18" d="M267.62,149.87c-.16-.09-.21-.16-.21-.22h0s.01.05.01.05l2.32,4.09s0,0,0,0c0,.05.06.12.21.2.18.1.47.15.76.15l-2.33-4.13c-.29,0-.57-.05-.76-.15Z"/>
            <path class="cls-6" d="M269.34,149.65c0,.05-.04.13-.21.23-.18.1-.47.15-.76.15l2.33,4.13c.29,0,.57-.05.76-.15.15-.08.2-.15.21-.2,0,0,0,0,0,0l-2.34-4.17h0Z"/>
          </g>
          <g>
            <path class="cls-18" d="M267.85,143.53c-.34-.21-1.46-.21-1.8,0,0,0-.22.12.14.32.37.2,1.15.2,1.51,0,.37-.2.14-.32.14-.32Z"/>
            <path class="cls-18" d="M266.19,143.85c-.16-.09-.21-.16-.21-.22h0s1.43,6.04,1.43,6.04c0,0,0,0,0,0,0,.05.06.12.21.2.18.1.47.15.76.15l-1.43-6.03c-.29,0-.57-.05-.76-.15Z"/>
            <path class="cls-6" d="M267.91,143.62c0,.06-.04.13-.21.23-.18.1-.47.15-.76.15l1.43,6.03c.29,0,.57-.05.76-.15.15-.08.2-.15.21-.2,0,0,0,0,0,0l-1.43-6.06h0Z"/>
          </g>
          <g>
            <path class="cls-18" d="M259.71,144.95c-.16-.09-.21-.16-.21-.22t0,0l.21.22s7.75,4.82,7.9,4.9c.18.1.47.15.76.15l-7.9-4.9c-.29,0-.57-.05-.76-.15Z"/>
            <path class="cls-6" d="M260.47,145.1l7.9,4.9c.29,0,.57-.05.76-.15.15-.08.2-.15.21-.2,0,0,0,0,0,0l-7.95-5s-.64.45-.92.45Z"/>
            <path class="cls-18" d="M261.37,144.63c-.34-.21-1.46-.21-1.8,0,0,0-.22.12.14.32.37.2,1.15.2,1.51,0,.37-.2.14-.32.14-.32Z"/>
          </g>
        </g>
        <g>
          <g>
            <path class="cls-6" d="M277.52,150.89l-.02.06s.01-.04.01-.05c0,0,0,0,0,0Z"/>
            <path class="cls-6" d="M281.9,142.62l-5.49,7.59h0l-3.84,3.43c.28,0,.67.1.85,0,.15-.08,3.45-3.16,3.45-3.16-.05.05,5.72-7.92,5.72-7.92l.21-.41s-.02-.07-.9.47Z"/>
          </g>
          <path class="cls-18" d="M282.8,142.15c-.32-.2-1.34-.21-1.74-.03h0l-5.32,7.51s-4.14,3.66-4.14,3.66c0,0,0,0,0,0,0,.05.06.12.21.2.18.1.47.15.76.15l3.84-3.43h0l5.49-7.59c.29,0,.9-.47.9-.47Z"/>
        </g>
        <g>
          <g>
            <path class="cls-18" d="M272.54,151.18c-.34-.21-1.45-.21-1.79,0,0,0-.22.12.14.32.37.2,1.14.2,1.51,0,.37-.2.14-.32.14-.32Z"/>
            <path class="cls-18" d="M270.89,151.5c-.16-.09-.21-.16-.21-.21h0s0,3.15,0,3.15c0,0,0,0,0,0,0,.05.06.12.21.2.18.1.47.15.75.15v-3.14c-.28,0-.57-.05-.75-.15Z"/>
            <path class="cls-6" d="M272.61,151.27c0,.05-.04.13-.21.22-.18.1-.47.15-.75.15v3.14c.29,0,.57-.05.75-.15.15-.08.2-.15.21-.2,0,0,0,0,0,0v-3.18h0Z"/>
          </g>
          <g>
            <path class="cls-18" d="M270.33,141.59c-.34-.21-1.46-.21-1.8,0,0,0-.22.12.14.32.37.2,1.15.2,1.51,0,.37-.2.14-.32.14-.32Z"/>
            <path class="cls-18" d="M268.68,141.92c-.16-.09-.21-.16-.21-.22,0,0,0,0,0,0l2.21,9.59s0,0,0,0c0,.05.06.12.21.2.18.1.47.15.76.15l-2.21-9.58c-.29,0-.57-.05-.76-.15Z"/>
            <path class="cls-6" d="M270.4,141.69c0,.05-.04.13-.21.23-.18.1-.47.15-.76.15l2.21,9.58c.29,0,.57-.05.76-.15.15-.08.2-.15.21-.2,0,0,0,0,0,0v-.03l-2.21-9.58s0,0,0,.01Z"/>
          </g>
          <g>
            <path class="cls-6" d="M276.6,142.47s-4.04,8.95-4.19,9.03c-.18.1-.47.15-.76.15l4-8.86c.29,0,.95-.31.95-.31Z"/>
            <path class="cls-18" d="M275.65,142.78l-4,8.86c-.29,0-.57-.05-.76-.15-.15-.08-.2-.15-.21-.2,0,0,0,0,0,0l4.07-8.98s.61.47.9.47Z"/>
            <path class="cls-18" d="M274.75,142.31c.34-.21,1.46-.21,1.8,0,0,0,.22.12-.14.32-.37.2-1.15.2-1.51,0-.37-.2-.14-.32-.14-.32Z"/>
          </g>
        </g>
      </g>
      <g>
        <path class="cls-27" d="M291.6,131.68c-.21-.2-.48-.31-.77-.36.02-.09.05-.19.07-.29.07-.29.17-.67.07-.97.29-.07.56-.28.69-.54.31-.62-.17-1.2-.75-1.38.03-.05.06-.11.07-.18.06-.26-.02-.56-.13-.82.72-.47.84-1.77.43-2.43,0,0,0,0,0-.01.24-.39.08-.96-.11-1.33-.09-.16-.21-.3-.36-.4-.09-.24-.29-.33-.52-.34.12-.17.16-.39.11-.66-.13-.61-.68-.81-1.23-.83.01-.21-.03-.4-.14-.52.34-.15.58-.45.52-.88-.08-.52-.49-.69-.92-.63.29-.27.5-.67.53-1.04.04-.49-.27-.63-.65-.57.31-.31.42-.73.16-1.16-.18-.29-.46-.42-.77-.44-.01-.08-.03-.17-.05-.25-.08-.28-.26-.55-.55-.65-.03-.01-.07-.02-.1-.02-.09-.2-.29-.36-.64-.42-.52-.1-.74.36-.77.88-.08-.01-.17-.01-.24,0-.15-.32-.38-.54-.72-.41-.15.06-.27.15-.35.25-.36.1-.77.4-1.06.75-.65-.2-1.13.26-1.3.86-.37-.19-.85-.16-1.24.19-.1.09-.21.34-.3.62-.05-.03-.11-.05-.15-.06-.81-.16-1.29.56-1.38,1.3-.31,0-.67.21-.87.57-.23-.15-.54-.18-.9-.02-.31.14-.6.47-.73.83-.59-.08-1.4.27-1.68.96-.19-.07-.43-.01-.69.24-.1.1-.18.2-.25.31-.05,0-.1-.01-.15-.01-.32,0-.65.23-.88.53-.15-.11-.34-.17-.54-.11-.26.08-.45.21-.57.39-.12-.06-.26-.08-.46-.02-.36.11-.54.31-.61.57-.33-.2-.76-.25-1.16-.05-.95.47-.36,1.05.3,1.38-.07.1-.1.2-.06.29-.32.15-.42.59-.2.87-.08.49.13.8.47.99-.29.3-.29.86.06,1.18-.2.24-.22.59-.02.8-.28.32-.28.89.09,1.23v.11c-.56.38-.64,1.23-.15,1.67-.32.33-.42.92-.06,1.23-.02.12-.01.23.04.34-.38.32-.64,1.02-.2,1.35-.04.13-.05.29-.05.44-.09-.03-.21.03-.23.12-.08.29-.21,1.09.12,1.33.03.14.1.27.21.38-.41.3-.59,1.05-.09,1.4-.11.14-.17.33-.13.51.01.05.04.09.06.14.01.1.04.18.09.25-.2.3-.29.68-.11.97-.42.23-.56.83-.31,1.21-.35.35-.6.92-.37,1.37-.13.39-.18.86-.16,1.15,0,.08.05.15.12.18-.19.24-.32.55-.41.88-.02.09.03.21.13.23.21.04.43.01.64-.06.17.42.49.8.87,1.04.29.19.66.28.99.16.35-.12.53-.48.62-.82.51.25,1.09.47,1.66.4.19-.02.34-.09.47-.18.08.03.16.05.24.07.62.13,1.1-.13,1.34-.58.02,0,.04,0,.06-.02.2.41.64.7,1.15.67.89-.04,1.02-.93,1.09-1.67.09-.05.17-.11.23-.19.43.21.94.26,1.38.09.37-.15.47-.42.43-.71.65.37,1.79.16,1.91-.58.04.03.09.04.14.05.1.06.21.11.32.15.03.01.06.02.09.03.4.5,1.06.73,1.55.14.12-.15.21-.32.27-.51.5-.07.58-.76.59-1.3.2.3.54.4.95.19.43-.22.63-.67.56-1.1.31.25.78.28,1.17.1.47-.21.67-.6.58-1.01.16.14.36.24.59.21.31-.04.49-.36.59-.62.14-.35.13-.73-.02-1.02.25-.21.43-.57.46-.87.02-.19,0-.38-.03-.57.29-.11.49-.36.47-.82,0-.16-.05-.36-.14-.54.07-.03.14-.08.21-.15.34-.34.33-.87.12-1.27,1.2.34,2.33-1.19,1.33-2.16Z"/>
        <path class="cls-5" d="M287.11,115.25c.06-.19,0-.44-.2-.65-.24-.23-.54-.3-.85-.26-.03-.07-.08-.13-.14-.19.29-.12.54-.31.6-.6.12-.55-.55-.56-1.08-.5.26-.14.5-.31.7-.54.02-.02.02-.06,0-.08-.45-.47-1.13-.49-1.76-.35.27-.23.39-.53.03-.89-.37-.36-.91-.5-1.43-.45-.01-.02-.03-.03-.04-.05-.2-.24-.57-.54-.91-.67,0-.35-.18-.77-.41-1.06-.25-.32-.63-.64-1.05-.68-.2-.02-.37.03-.52.11-.06-.17-.16-.34-.26-.46-.23-.3-.57-.53-.95-.57-.13-.01-.25,0-.35.04-.05-.21-.17-.43-.3-.61-.22-.28-.53-.58-.9-.62-.33-.04-.56.15-.71.41-.2-.8-.83-1.28-1.7-1.1-.28.06-.75.28-.95.57-.34-.84-1.08-1.61-2.04-1.46-.48.07-1.05.37-1.24.75-.11-.03-.21-.01-.31.05-.14-.24-.41-.25-.67-.1-.93-.34-1.92-.31-1.89.8-.55-.68-1.3-1.41-2.2-.9-.32.19-.62.53-.72.88-.37-.37-.9-.55-1.48-.44-.59.11-.94.52-.94.99-.4-.41-1.02-.48-1.61-.13-.56.34-.77.89-.65,1.42-.77-.41-1.96.55-1.97,1.41-.34-.16-.81-.15-1.11-.02-.85.36-1,1.25-.9,2.07-.47-.53-1.12-.47-1.58.14-.25.32-.38.73-.37,1.12-.58-.4-1.42-.4-1.97.21-.43.48-.38,1.19-.28,1.77.04.24.11.49.22.71,0,.03,0,.07.02.11,0,0,0,0,0,0-.33.03-.61.2-.74.62-.17.55.19,1.12.66,1.49-.37-.02-.73.13-.98.47-.05.07-.08.14-.1.22-.14.06-.27.15-.39.29-.28.31-.31.66-.15.93-.23,0-.44.13-.54.43-.17.5.22.83.64.97-.3.13-.5.43-.49.8,0,.18.07.32.17.41-.11.12-.21.26-.27.44-.02.07-.04.13-.05.2-.92.32-1.69,1.91-.87,2.58.02.02.04.03.07.05-.16.21-.29.46-.37.69-.05.15-.08.29-.09.43-.89.2-1.07,1.26-.82,2.1.12.39.32.79.62,1.09-.28.63-.03,1.64.27,2.09.01.02.02.03.04.05-.23.29-.37.7-.44.99-.11.47.08,1.01.28,1.43.09.2.22.43.38.62-.06.08-.11.17-.16.26-.27.56-.14,1.21.16,1.73.09.16.22.31.36.44-.04.07-.06.14-.07.21-.1.57.43,1.24,1.01,1.52-.01.32.04.65.1.93.1.47.52.88.97,1.06,0,.02-.02.05-.03.07-.23.57-.2,1.01.18,1.51.16.2.52.51.92.71.04.78.95,1.3,1.73,1.17.14.16.35.29.62.36.33.09.75.05.99-.14.1.25.31.44.63.5.34.07.59-.08.72-.31.21.3.73.39,1.15.35.16-.02.34-.07.51-.14.24.43.89.7,1.39.76.41.05.91-.02,1.19-.35.15-.17.19-.38.18-.6.26.2.61.28.97.25.02,0,.05,0,.07,0,.01.45.32.82.89.94.32.07.68.02.94-.19.06-.05.11-.11.14-.17.2.23.53.35.92.33.22-.01.46-.08.63-.21.14.39.53.64,1.06.64.74,0,1.29-.48,1.46-1.12.21.22.66.21,1.02.07.21-.08.39-.2.52-.34.05-.02.1-.04.15-.07.23-.12.42-.33.54-.56.4-.11.78-.47.89-.85.08-.3-.11-.44-.35-.55.16-.16.27-.4.34-.59.14-.36.19-.86.03-1.19.33-.16.57-.61.67-1,.15-.57.09-1.24-.28-1.64.18,0,.36-.07.51-.22.31-.32.32-.87.29-1.28-.02-.22-.13-.71-.32-1.07.98-.32.94-2.19.16-2.73.37-.15.56-.57.57-1.08,0-.11,0-.21-.02-.32.08-.02.15-.06.22-.12.48-.4.6-1.11.6-1.72.33.4.9.04,1.19-.32.47-.59.55-1.4.13-2.02,1.1.1,1.35-1.23.93-2.09.99.39,1.52-1.02,1-1.82,1.31.18,2.14-1.33,1.88-2.52,0,0,.01-.02.02-.03,1.15.65,2.26-.15,2.62-1.25.23-.27.32-.62.19-1.04,0,0,0,0,.01,0,.87.4,1.94.11,2.69-.44.47-.34.78-.87.58-1.3.13-.02.26-.1.38-.23.03-.03.05-.06.07-.1.43.06.9-.34.95-.7.33-.03.49-.71.25-.98Z"/>
        <path class="cls-30" d="M287.11,115.25c.06-.19,0-.44-.2-.65-.24-.23-.54-.3-.85-.26-.03-.07-.08-.13-.14-.19.29-.12.54-.31.6-.6.12-.55-.55-.56-1.08-.5.26-.14.5-.31.7-.54.02-.02.02-.06,0-.08-.45-.47-1.13-.49-1.76-.35.27-.23.39-.53.03-.89-.37-.36-.91-.5-1.43-.45-.01-.02-.03-.03-.04-.05-.2-.24-.57-.54-.91-.67,0-.35-.18-.77-.41-1.06-.25-.32-.63-.64-1.05-.68-.2-.02-.37.03-.52.11-.06-.17-.16-.34-.26-.46-.23-.3-.57-.53-.95-.57-.13-.01-.25,0-.35.04-.05-.21-.17-.43-.3-.61-.22-.28-.53-.58-.9-.62-.33-.04-.56.15-.71.41-.2-.8-.83-1.28-1.7-1.1-.28.06-.75.28-.95.57-.34-.84-1.08-1.61-2.04-1.46-.48.07-1.05.37-1.24.75-.11-.03-.21-.01-.31.05-.14-.24-.41-.25-.67-.1-.93-.34-1.92-.31-1.89.8-.55-.68-1.3-1.41-2.2-.9-.32.19-.62.53-.72.88-.37-.37-.9-.55-1.48-.44-.59.11-.94.52-.94.99-.4-.41-1.02-.48-1.61-.13-.56.34-.77.89-.65,1.42-.77-.41-1.96.55-1.97,1.41-.34-.16-.81-.15-1.11-.02-.85.36-1,1.25-.9,2.07-.47-.53-1.12-.47-1.58.14-.25.32-.38.73-.37,1.12-.58-.4-1.42-.4-1.97.21-.43.48-.38,1.19-.28,1.77.04.24.11.49.22.71,0,.03,0,.07.02.11,0,0,0,0,0,0-.33.03-.61.2-.74.62-.17.55.19,1.12.66,1.49-.37-.02-.73.13-.98.47,0,.01-.01.02-.02.04.06.04.11.08.17.11.29.16.71.29,1.02.1.1-.06.16-.15.2-.25.13.2.33.35.6.39.67.09.9-.53.93-1.09.3.49.91.55,1.45.26.03-.02.06-.04.09-.06.4.35.96.49,1.49.16.38-.23.49-.71.52-1.13.07,0,.13-.02.19-.03.47-.09.96-.3,1.25-.69,0,0,0,0,0-.01.12.07.25.12.4.13.36.04.65-.16.85-.45.11-.16.19-.38.23-.61.54-.17,1.04-.62,1.35-1.14.35.72,1,1.35,1.82.91.34-.19.55-.6.58-1.03.53-.25.98-.68,1.19-1.21.51.49,1.15.9,1.67.34.04-.05.08-.11.12-.18.09,0,.18,0,.27,0,.13,0,.27-.02.41-.05-.03.59.09,1.15.61,1.31.49.15.89-.34,1.06-.73.03-.06.05-.12.07-.19.27-.03.5-.13.73-.27.23.59.71,1.01,1.45.78.23-.07.43-.25.57-.49.7.5,1.72.69,2.48.46,0,.45.13.82.62.75.38-.06.56-.55.66-.86,0-.03.02-.06.03-.09.35.26.84.33,1.24.2.12.19.27.35.47.47.26.16.51.13.71,0,.25.19.55.33.86.4.17.04.34.05.51.04-.15.66-.05,1.35.78,1.38.57.02,1.01-.33,1.28-.8.14-.01.27-.04.4-.09.02.12.05.24.08.36.1.3.4.63.74.47.33-.15.48-.54.55-.89.19.27.46.48.81.58.68.18,1.23-.25,1.54-.81.07.5.47.75.98.83-.02-.04-.04-.08-.07-.11Z"/>
      </g>
    </g>
    <g>
      <g>
        <polygon class="cls-4" points="140.09 390.36 133.59 386.48 133.59 362.7 132 361.73 132 156.76 139.79 153.2 144.03 155.74 144.03 151.28 151.82 147.72 155.85 150.14 158.3 149.01 167.77 154.7 167.11 155.01 167.77 155.4 171.43 157.6 171.43 161.65 180.86 161.97 180.86 161.95 180.86 157.87 185.52 155.74 186.2 155.44 185.52 155.03 191.09 152.48 193.72 154.06 198.44 151.89 204.94 155.79 204.94 159.79 208.72 158.07 214.92 161.78 214.92 182.97 214.92 185.55 216.49 186.52 216.49 391.49 208.7 395.03 206.45 393.67 204.48 396.97 196.67 400.53 192.64 398.11 190.21 399.22 180.74 393.55 180.74 392.85 177.08 390.65 177.08 386.6 167.65 386.28 167.65 390.36 162.99 392.49 162.99 393.21 157.41 395.75 154.79 394.19 150.07 396.34 143.87 392.63 140.09 390.36"/>
        <polygon class="cls-4" points="186.2 155.44 185.52 155.74 185.52 155.03 186.2 155.44"/>
        <polygon class="cls-4" points="167.77 154.7 167.77 155.4 167.11 155.01 167.77 154.7"/>
      </g>
      <polygon class="cls-29" points="144.03 332.47 144.03 151.28 156.07 158.5 155.29 362.56 144.03 356.06 144.03 332.47"/>
      <polygon class="cls-29" points="143.72 346.87 143.72 165.68 148.05 168.27 148.05 372.16 143.72 370.46 143.72 346.87"/>
      <polygon class="cls-29" points="132 337.96 132 156.77 136.33 159.35 136.33 363.25 132 361.55 132 337.96"/>
      <polygon class="cls-29" points="152.54 347.41 152.54 166.22 156.87 168.81 156.87 372.71 152.54 371.01 152.54 347.41"/>
      <polygon class="cls-19" points="152.54 346.87 152.54 166.22 148.05 168.27 148.05 372.16 152.38 370.46 152.54 346.87"/>
      <polygon class="cls-19" points="193.49 169.4 197.22 167.69 196.69 372.73 193.49 374.37 193.49 169.4"/>
      <polygon class="cls-19" points="210.15 163.96 214.91 161.77 214.38 366.81 210.15 368.93 210.15 163.96"/>
      <polygon class="cls-19" points="195.85 159.96 204.93 155.79 204.4 360.83 195.85 364.93 195.85 159.96"/>
      <polygon class="cls-19" points="201.21 170.08 206.53 167.65 206 372.69 201.25 375.08 201.21 170.08"/>
      <polygon class="cls-19" points="207.23 168.05 212.8 165.5 212.27 370.54 207.28 373.05 207.23 168.05"/>
      <polygon class="cls-29" points="197.22 167.69 201.21 170.08 201.25 375.08 197.22 372.66 197.22 167.69"/>
      <rect class="cls-19" x="167.4" y="181.31" width="9.68" height="205.29"/>
      <polygon class="cls-29" points="133.6 362.69 133.6 181.5 140.09 185.4 140.09 390.36 133.6 386.29 133.6 362.69"/>
      <polygon class="cls-29" points="133.59 341.5 133.59 160.3 143.06 165.98 142.28 370.05 133.59 365.09 133.59 341.5"/>
      <polyline class="cls-19" points="140.09 185.4 140.09 390.36 149.18 386.47 149.18 181.24 140.09 185.4"/>
      <polygon class="cls-29" points="133.59 181.5 140.08 185.4 140.08 390.36 133.6 386.47 133.59 181.5"/>
      <polygon class="cls-29" points="149.18 362.44 149.18 181.24 152.98 183.51 152.98 387.41 149.18 386.03 149.18 362.44"/>
      <polygon class="cls-29" points="154.79 370.41 154.79 189.22 157.41 190.79 157.41 395.76 154.79 394.18 154.79 370.41"/>
      <polygon class="cls-19" points="150.06 191.37 154.79 189.22 154.79 394.18 150.36 396.52 150.06 191.37"/>
      <polygon class="cls-19" points="192.43 184.77 196.66 182.84 196.08 388.3 192.43 389.74 192.43 184.77"/>
      <polygon class="cls-19" points="162.92 187.56 167.65 185.4 167.65 390.37 163.22 392.71 162.92 187.56"/>
      <polygon class="cls-29" points="181.4 188.27 177.08 185.68 177.08 390.65 181.55 393.32 181.4 188.27"/>
      <polygon class="cls-29" points="143.87 368.85 143.87 187.66 150.06 191.37 150.36 396.52 143.87 392.45 143.87 368.85"/>
      <polygon class="cls-19" points="162.99 188.25 157.41 190.79 157.41 395.76 162.99 393.22 162.99 188.25"/>
      <polygon class="cls-19" points="216.5 186.51 208.71 190.07 208.71 395.04 216.5 391.48 216.5 186.51"/>
      <polygon class="cls-29" points="180.73 369.77 181.3 188.92 190.2 194.26 190.2 399.23 180.73 393.55 180.73 369.77"/>
      <polygon class="cls-29" points="196.09 363.7 196.66 182.84 208.71 190.07 208.71 395.04 196.09 387.47 196.09 363.7"/>
      <polygon class="cls-19" points="204.47 192 196.68 195.56 196.68 400.53 204.47 396.97 204.47 192"/>
      <polygon class="cls-1" points="132 156.77 136.04 159.18 133.59 160.3 143.06 165.98 143.72 165.68 148.05 168.27 152.54 166.22 155.81 168.18 155.01 173.88 151.28 175.58 147.3 173.19 141.95 175.63 141.28 175.23 135.71 177.77 138.33 179.34 133.6 181.5 140.09 185.4 149.18 181.24 152.96 183.51 143.87 187.66 150.06 191.37 154.79 189.22 157.41 190.79 162.99 188.25 162.3 187.84 167.65 185.4 163.67 183.01 167.4 181.31 178.29 181.67 181.56 183.63 177.08 185.68 181.4 188.27 180.73 188.58 190.2 194.26 192.65 193.14 196.68 195.55 196.68 195.56 204.47 192 192.43 184.77 196.66 182.84 208.71 190.07 216.5 186.51 214.92 185.56 212.47 184.09 214.92 182.98 214.92 182.97 205.45 177.29 204.78 177.6 200.46 175.01 195.97 177.05 192.7 175.09 193.49 169.4 197.22 167.69 201.21 170.08 206.55 167.64 207.23 168.05 212.8 165.51 210.17 163.94 214.91 161.77 208.72 158.06 204.93 159.79 199.62 162.21 195.84 159.95 204.93 155.79 198.36 151.76 193.52 153.95 191.09 152.35 185.52 154.92 186.2 155.57 180.86 157.88 184.84 160.27 181.11 161.97 171.43 161.65 166.94 159.64 171.43 157.6 167.44 155.05 167.62 154.47 158.47 148.93 156.07 150.04 151.97 147.72 144.03 151.28 156.07 158.5 151.84 160.43 144.03 155.74 139.8 153 132 156.77"/>
      <polygon class="cls-29" points="192.65 193.14 196.68 195.56 196.68 400.53 192.65 398.11 192.65 193.14"/>
      <polygon class="cls-19" points="190.2 194.26 192.65 193.14 192.65 398.11 190.2 399.23 190.2 194.26"/>
      <g>
        <polygon class="cls-28" points="188.66 197.21 182.54 193.72 182.54 195.35 188.66 198.84 188.66 197.21"/>
        <polygon class="cls-28" points="188.66 202.43 182.54 198.94 182.54 200.57 188.66 204.06 188.66 202.43"/>
        <polygon class="cls-28" points="188.66 207.66 182.54 204.16 182.54 205.79 188.66 209.28 188.66 207.66"/>
        <polygon class="cls-28" points="188.66 212.88 182.54 209.39 182.54 211.01 188.66 214.51 188.66 212.88"/>
        <polygon class="cls-28" points="188.66 218.1 182.54 214.61 182.54 216.24 188.66 219.73 188.66 218.1"/>
        <polygon class="cls-28" points="188.66 223.32 182.54 219.83 182.54 221.46 188.66 224.95 188.66 223.32"/>
        <polygon class="cls-28" points="188.66 228.54 182.54 225.05 182.54 226.68 188.66 230.17 188.66 228.54"/>
        <polygon class="cls-28" points="188.66 233.77 182.54 230.27 182.54 231.9 188.66 235.39 188.66 233.77"/>
        <polygon class="cls-28" points="188.66 238.99 182.54 235.5 182.54 237.12 188.66 240.62 188.66 238.99"/>
        <polygon class="cls-28" points="188.66 244.21 182.54 240.72 182.54 242.35 188.66 245.84 188.66 244.21"/>
        <polygon class="cls-28" points="188.66 249.43 182.54 245.94 182.54 247.57 188.66 251.06 188.66 249.43"/>
        <polygon class="cls-28" points="188.66 254.65 182.54 251.16 182.54 252.79 188.66 256.28 188.66 254.65"/>
        <polygon class="cls-28" points="188.66 259.87 182.54 256.38 182.54 258.01 188.66 261.5 188.66 259.87"/>
        <polygon class="cls-28" points="188.66 265.1 182.54 261.6 182.54 263.23 188.66 266.72 188.66 265.1"/>
        <polygon class="cls-28" points="188.66 270.32 182.54 266.83 182.54 268.45 188.66 271.95 188.66 270.32"/>
        <polygon class="cls-28" points="188.66 275.54 182.54 272.05 182.54 273.68 188.66 277.17 188.66 275.54"/>
        <polygon class="cls-28" points="188.66 280.76 182.54 277.27 182.54 278.9 188.66 282.39 188.66 280.76"/>
        <polygon class="cls-28" points="188.66 285.98 182.54 282.49 182.54 284.12 188.66 287.61 188.66 285.98"/>
        <polygon class="cls-28" points="188.66 291.21 182.54 287.71 182.54 289.34 188.66 292.83 188.66 291.21"/>
        <polygon class="cls-28" points="188.66 296.43 182.54 292.94 182.54 294.56 188.66 298.06 188.66 296.43"/>
        <polygon class="cls-28" points="188.66 301.65 182.54 298.16 182.54 299.79 188.66 303.28 188.66 301.65"/>
        <polygon class="cls-28" points="188.66 306.87 182.54 303.38 182.54 305.01 188.66 308.5 188.66 306.87"/>
        <polygon class="cls-28" points="188.66 312.09 182.54 308.6 182.54 310.23 188.66 313.72 188.66 312.09"/>
        <polygon class="cls-28" points="188.66 317.31 182.54 313.82 182.54 315.45 188.66 318.94 188.66 317.31"/>
        <polygon class="cls-28" points="188.66 322.54 182.54 319.04 182.54 320.67 188.66 324.16 188.66 322.54"/>
        <polygon class="cls-28" points="188.66 327.76 182.54 324.27 182.54 325.89 188.66 329.39 188.66 327.76"/>
        <polygon class="cls-28" points="188.66 332.98 182.54 329.49 182.54 331.12 188.66 334.61 188.66 332.98"/>
        <polygon class="cls-28" points="188.66 338.2 182.54 334.71 182.54 336.34 188.66 339.83 188.66 338.2"/>
        <polygon class="cls-28" points="188.66 343.42 182.54 339.93 182.54 341.56 188.66 345.05 188.66 343.42"/>
        <polygon class="cls-28" points="188.66 348.65 182.54 345.15 182.54 346.78 188.66 350.27 188.66 348.65"/>
        <polygon class="cls-28" points="188.66 353.87 182.54 350.38 182.54 352 188.66 355.5 188.66 353.87"/>
        <polygon class="cls-28" points="188.66 359.09 182.54 355.6 182.54 357.23 188.66 360.72 188.66 359.09"/>
        <polygon class="cls-28" points="188.66 364.31 182.54 360.82 182.54 362.45 188.66 365.94 188.66 364.31"/>
        <polygon class="cls-28" points="188.66 369.53 182.54 366.04 182.54 367.67 188.66 371.16 188.66 369.53"/>
        <polygon class="cls-28" points="188.66 374.76 182.54 371.26 182.54 372.89 188.66 376.38 188.66 374.76"/>
        <polygon class="cls-28" points="188.66 379.98 182.54 376.48 182.54 378.11 188.66 381.6 188.66 379.98"/>
        <polygon class="cls-28" points="188.66 385.2 182.54 381.71 182.54 383.33 188.66 386.83 188.66 385.2"/>
      </g>
      <g class="cls-2">
        <g>
          <polygon class="cls-28" points="152.1 196.03 145.99 192.53 145.99 194.16 152.1 197.65 152.1 196.03"/>
          <polygon class="cls-28" points="152.1 201.25 145.99 197.76 145.99 199.38 152.1 202.88 152.1 201.25"/>
          <polygon class="cls-28" points="152.1 206.47 145.99 202.98 145.99 204.61 152.1 208.1 152.1 206.47"/>
          <polygon class="cls-28" points="152.1 211.69 145.99 208.2 145.99 209.83 152.1 213.32 152.1 211.69"/>
          <polygon class="cls-28" points="152.1 216.91 145.99 213.42 145.99 215.05 152.1 218.54 152.1 216.91"/>
          <polygon class="cls-28" points="152.1 222.13 145.99 218.64 145.99 220.27 152.1 223.76 152.1 222.13"/>
          <polygon class="cls-28" points="152.1 227.36 145.99 223.86 145.99 225.49 152.1 228.98 152.1 227.36"/>
          <polygon class="cls-28" points="152.1 232.58 145.99 229.09 145.99 230.71 152.1 234.21 152.1 232.58"/>
          <polygon class="cls-28" points="152.1 237.8 145.99 234.31 145.99 235.94 152.1 239.43 152.1 237.8"/>
          <polygon class="cls-28" points="152.1 243.02 145.99 239.53 145.99 241.16 152.1 244.65 152.1 243.02"/>
          <polygon class="cls-28" points="152.1 248.24 145.99 244.75 145.99 246.38 152.1 249.87 152.1 248.24"/>
          <polygon class="cls-28" points="152.1 253.47 145.99 249.97 145.99 251.6 152.1 255.09 152.1 253.47"/>
          <polygon class="cls-28" points="152.1 258.69 145.99 255.2 145.99 256.82 152.1 260.32 152.1 258.69"/>
          <polygon class="cls-28" points="152.1 263.91 145.99 260.42 145.99 262.05 152.1 265.54 152.1 263.91"/>
          <polygon class="cls-28" points="152.1 269.13 145.99 265.64 145.99 267.27 152.1 270.76 152.1 269.13"/>
          <polygon class="cls-28" points="152.1 274.35 145.99 270.86 145.99 272.49 152.1 275.98 152.1 274.35"/>
          <polygon class="cls-28" points="152.1 279.57 145.99 276.08 145.99 277.71 152.1 281.2 152.1 279.57"/>
          <polygon class="cls-28" points="152.1 284.8 145.99 281.3 145.99 282.93 152.1 286.42 152.1 284.8"/>
          <polygon class="cls-28" points="152.1 290.02 145.99 286.53 145.99 288.15 152.1 291.65 152.1 290.02"/>
          <polygon class="cls-28" points="152.1 295.24 145.99 291.75 145.99 293.38 152.1 296.87 152.1 295.24"/>
          <polygon class="cls-28" points="152.1 300.46 145.99 296.97 145.99 298.6 152.1 302.09 152.1 300.46"/>
          <polygon class="cls-28" points="152.1 305.68 145.99 302.19 145.99 303.82 152.1 307.31 152.1 305.68"/>
          <polygon class="cls-28" points="152.1 310.91 145.99 307.41 145.99 309.04 152.1 312.53 152.1 310.91"/>
          <polygon class="cls-28" points="152.1 316.13 145.99 312.64 145.99 314.26 152.1 317.76 152.1 316.13"/>
          <polygon class="cls-28" points="152.1 321.35 145.99 317.86 145.99 319.49 152.1 322.98 152.1 321.35"/>
          <polygon class="cls-28" points="152.1 326.57 145.99 323.08 145.99 324.71 152.1 328.2 152.1 326.57"/>
          <polygon class="cls-28" points="152.1 331.79 145.99 328.3 145.99 329.93 152.1 333.42 152.1 331.79"/>
          <polygon class="cls-28" points="152.1 337.01 145.99 333.52 145.99 335.15 152.1 338.64 152.1 337.01"/>
          <polygon class="cls-28" points="152.1 342.24 145.99 338.74 145.99 340.37 152.1 343.86 152.1 342.24"/>
          <polygon class="cls-28" points="152.1 347.46 145.99 343.97 145.99 345.59 152.1 349.09 152.1 347.46"/>
          <polygon class="cls-28" points="152.1 352.68 145.99 349.19 145.99 350.82 152.1 354.31 152.1 352.68"/>
          <polygon class="cls-28" points="152.1 357.9 145.99 354.41 145.99 356.04 152.1 359.53 152.1 357.9"/>
          <polygon class="cls-28" points="152.1 363.12 145.99 359.63 145.99 361.26 152.1 364.75 152.1 363.12"/>
          <polygon class="cls-28" points="152.1 368.35 145.99 364.85 145.99 366.48 152.1 369.97 152.1 368.35"/>
          <polygon class="cls-28" points="152.1 373.57 145.99 370.08 145.99 371.7 152.1 375.2 152.1 373.57"/>
          <polygon class="cls-28" points="152.1 378.79 145.99 375.3 145.99 376.93 152.1 380.42 152.1 378.79"/>
          <polygon class="cls-28" points="152.1 384.01 145.99 380.52 145.99 382.15 152.1 385.64 152.1 384.01"/>
        </g>
      </g>
      <g class="cls-25">
        <g>
          <polygon class="cls-28" points="141.75 190.08 135.64 186.59 135.64 188.22 141.75 191.71 141.75 190.08"/>
          <polygon class="cls-28" points="141.75 195.3 135.64 191.81 135.64 193.44 141.75 196.93 141.75 195.3"/>
          <polygon class="cls-28" points="141.75 200.52 135.64 197.03 135.64 198.66 141.75 202.15 141.75 200.52"/>
          <polygon class="cls-28" points="141.75 205.75 135.64 202.25 135.64 203.88 141.75 207.37 141.75 205.75"/>
          <polygon class="cls-28" points="141.75 210.97 135.64 207.48 135.64 209.1 141.75 212.6 141.75 210.97"/>
          <polygon class="cls-28" points="141.75 216.19 135.64 212.7 135.64 214.33 141.75 217.82 141.75 216.19"/>
          <polygon class="cls-28" points="141.75 221.41 135.64 217.92 135.64 219.55 141.75 223.04 141.75 221.41"/>
          <polygon class="cls-28" points="141.75 226.63 135.64 223.14 135.64 224.77 141.75 228.26 141.75 226.63"/>
          <polygon class="cls-28" points="141.75 231.85 135.64 228.36 135.64 229.99 141.75 233.48 141.75 231.85"/>
          <polygon class="cls-28" points="141.75 237.08 135.64 233.58 135.64 235.21 141.75 238.7 141.75 237.08"/>
          <polygon class="cls-28" points="141.75 242.3 135.64 238.81 135.64 240.43 141.75 243.93 141.75 242.3"/>
          <polygon class="cls-28" points="141.75 247.52 135.64 244.03 135.64 245.66 141.75 249.15 141.75 247.52"/>
          <polygon class="cls-28" points="141.75 252.74 135.64 249.25 135.64 250.88 141.75 254.37 141.75 252.74"/>
          <polygon class="cls-28" points="141.75 257.96 135.64 254.47 135.64 256.1 141.75 259.59 141.75 257.96"/>
          <polygon class="cls-28" points="141.75 263.19 135.64 259.69 135.64 261.32 141.75 264.81 141.75 263.19"/>
          <polygon class="cls-28" points="141.75 268.41 135.64 264.92 135.64 266.54 141.75 270.04 141.75 268.41"/>
          <polygon class="cls-28" points="141.75 273.63 135.64 270.14 135.64 271.77 141.75 275.26 141.75 273.63"/>
          <polygon class="cls-28" points="141.75 278.85 135.64 275.36 135.64 276.99 141.75 280.48 141.75 278.85"/>
          <polygon class="cls-28" points="141.75 284.07 135.64 280.58 135.64 282.21 141.75 285.7 141.75 284.07"/>
          <polygon class="cls-28" points="141.75 289.29 135.64 285.8 135.64 287.43 141.75 290.92 141.75 289.29"/>
          <polygon class="cls-28" points="141.75 294.52 135.64 291.02 135.64 292.65 141.75 296.14 141.75 294.52"/>
          <polygon class="cls-28" points="141.75 299.74 135.64 296.25 135.64 297.87 141.75 301.37 141.75 299.74"/>
          <polygon class="cls-28" points="141.75 304.96 135.64 301.47 135.64 303.1 141.75 306.59 141.75 304.96"/>
          <polygon class="cls-28" points="141.75 310.18 135.64 306.69 135.64 308.32 141.75 311.81 141.75 310.18"/>
          <polygon class="cls-28" points="141.75 315.4 135.64 311.91 135.64 313.54 141.75 317.03 141.75 315.4"/>
          <polygon class="cls-28" points="141.75 320.63 135.64 317.13 135.64 318.76 141.75 322.25 141.75 320.63"/>
          <polygon class="cls-28" points="141.75 325.85 135.64 322.36 135.64 323.98 141.75 327.48 141.75 325.85"/>
          <polygon class="cls-28" points="141.75 331.07 135.64 327.58 135.64 329.21 141.75 332.7 141.75 331.07"/>
          <polygon class="cls-28" points="141.75 336.29 135.64 332.8 135.64 334.43 141.75 337.92 141.75 336.29"/>
          <polygon class="cls-28" points="141.75 341.51 135.64 338.02 135.64 339.65 141.75 343.14 141.75 341.51"/>
          <polygon class="cls-28" points="141.75 346.73 135.64 343.24 135.64 344.87 141.75 348.36 141.75 346.73"/>
          <polygon class="cls-28" points="141.75 351.96 135.64 348.46 135.64 350.09 141.75 353.58 141.75 351.96"/>
          <polygon class="cls-28" points="141.75 357.18 135.64 353.69 135.64 355.31 141.75 358.81 141.75 357.18"/>
          <polygon class="cls-28" points="141.75 362.4 135.64 358.91 135.64 360.54 141.75 364.03 141.75 362.4"/>
          <polygon class="cls-28" points="141.75 367.62 135.64 364.13 135.64 365.76 141.75 369.25 141.75 367.62"/>
          <polygon class="cls-28" points="141.75 372.84 135.64 369.35 135.64 370.98 141.75 374.47 141.75 372.84"/>
          <polygon class="cls-28" points="141.75 378.07 135.64 374.57 135.64 376.2 141.75 379.69 141.75 378.07"/>
        </g>
      </g>
      <g class="cls-23">
        <g>
          <polygon class="cls-28" points="195.64 199.78 201.75 196.29 201.75 197.92 195.64 201.41 195.64 199.78"/>
          <polygon class="cls-28" points="195.64 205.01 201.75 201.51 201.75 203.14 195.64 206.63 195.64 205.01"/>
          <polygon class="cls-28" points="195.64 210.23 201.75 206.74 201.75 208.36 195.64 211.86 195.64 210.23"/>
          <polygon class="cls-28" points="195.64 215.45 201.75 211.96 201.75 213.59 195.64 217.08 195.64 215.45"/>
          <polygon class="cls-28" points="195.64 220.67 201.75 217.18 201.75 218.81 195.64 222.3 195.64 220.67"/>
          <polygon class="cls-28" points="195.64 225.89 201.75 222.4 201.75 224.03 195.64 227.52 195.64 225.89"/>
          <polygon class="cls-28" points="195.64 231.11 201.75 227.62 201.75 229.25 195.64 232.74 195.64 231.11"/>
          <polygon class="cls-28" points="195.64 236.34 201.75 232.84 201.75 234.47 195.64 237.96 195.64 236.34"/>
          <polygon class="cls-28" points="195.64 241.56 201.75 238.07 201.75 239.69 195.64 243.19 195.64 241.56"/>
          <polygon class="cls-28" points="195.64 246.78 201.75 243.29 201.75 244.92 195.64 248.41 195.64 246.78"/>
          <polygon class="cls-28" points="195.64 252 201.75 248.51 201.75 250.14 195.64 253.63 195.64 252"/>
          <polygon class="cls-28" points="195.64 257.22 201.75 253.73 201.75 255.36 195.64 258.85 195.64 257.22"/>
          <polygon class="cls-28" points="195.64 262.45 201.75 258.95 201.75 260.58 195.64 264.07 195.64 262.45"/>
          <polygon class="cls-28" points="195.64 267.67 201.75 264.18 201.75 265.8 195.64 269.3 195.64 267.67"/>
          <polygon class="cls-28" points="195.64 272.89 201.75 269.4 201.75 271.03 195.64 274.52 195.64 272.89"/>
          <polygon class="cls-28" points="195.64 278.11 201.75 274.62 201.75 276.25 195.64 279.74 195.64 278.11"/>
          <polygon class="cls-28" points="195.64 283.33 201.75 279.84 201.75 281.47 195.64 284.96 195.64 283.33"/>
          <polygon class="cls-28" points="195.64 288.55 201.75 285.06 201.75 286.69 195.64 290.18 195.64 288.55"/>
          <polygon class="cls-28" points="195.64 293.78 201.75 290.28 201.75 291.91 195.64 295.4 195.64 293.78"/>
          <polygon class="cls-28" points="195.64 299 201.75 295.51 201.75 297.13 195.64 300.63 195.64 299"/>
          <polygon class="cls-28" points="195.64 304.22 201.75 300.73 201.75 302.36 195.64 305.85 195.64 304.22"/>
          <polygon class="cls-28" points="195.64 309.44 201.75 305.95 201.75 307.58 195.64 311.07 195.64 309.44"/>
          <polygon class="cls-28" points="195.64 314.66 201.75 311.17 201.75 312.8 195.64 316.29 195.64 314.66"/>
          <polygon class="cls-28" points="195.64 319.89 201.75 316.39 201.75 318.02 195.64 321.51 195.64 319.89"/>
          <polygon class="cls-28" points="195.64 325.11 201.75 321.62 201.75 323.24 195.64 326.74 195.64 325.11"/>
          <polygon class="cls-28" points="195.64 330.33 201.75 326.84 201.75 328.47 195.64 331.96 195.64 330.33"/>
          <polygon class="cls-28" points="195.64 335.55 201.75 332.06 201.75 333.69 195.64 337.18 195.64 335.55"/>
          <polygon class="cls-28" points="195.64 340.77 201.75 337.28 201.75 338.91 195.64 342.4 195.64 340.77"/>
          <polygon class="cls-28" points="195.64 345.99 201.75 342.5 201.75 344.13 195.64 347.62 195.64 345.99"/>
          <polygon class="cls-28" points="195.64 351.22 201.75 347.72 201.75 349.35 195.64 352.84 195.64 351.22"/>
          <polygon class="cls-28" points="195.64 356.44 201.75 352.95 201.75 354.57 195.64 358.07 195.64 356.44"/>
          <polygon class="cls-28" points="195.64 361.66 201.75 358.17 201.75 359.8 195.64 363.29 195.64 361.66"/>
          <polygon class="cls-28" points="195.64 366.88 201.75 363.39 201.75 365.02 195.64 368.51 195.64 366.88"/>
          <polygon class="cls-28" points="195.64 372.1 201.75 368.61 201.75 370.24 195.64 373.73 195.64 372.1"/>
          <polygon class="cls-28" points="195.64 377.33 201.75 373.83 201.75 375.46 195.64 378.95 195.64 377.33"/>
          <polygon class="cls-28" points="195.64 382.55 201.75 379.06 201.75 380.68 195.64 384.18 195.64 382.55"/>
          <polygon class="cls-28" points="195.64 387.77 201.75 384.28 201.75 385.91 195.64 389.4 195.64 387.77"/>
        </g>
      </g>
      <g class="cls-24">
        <g>
          <polygon class="cls-28" points="207.86 196.12 213.97 192.63 213.97 194.25 207.86 197.75 207.86 196.12"/>
          <polygon class="cls-28" points="207.86 201.34 213.97 197.85 213.97 199.48 207.86 202.97 207.86 201.34"/>
          <polygon class="cls-28" points="207.86 206.56 213.97 203.07 213.97 204.7 207.86 208.19 207.86 206.56"/>
          <polygon class="cls-28" points="207.86 211.78 213.97 208.29 213.97 209.92 207.86 213.41 207.86 211.78"/>
          <polygon class="cls-28" points="207.86 217 213.97 213.51 213.97 215.14 207.86 218.63 207.86 217"/>
          <polygon class="cls-28" points="207.86 222.23 213.97 218.73 213.97 220.36 207.86 223.85 207.86 222.23"/>
          <polygon class="cls-28" points="207.86 227.45 213.97 223.96 213.97 225.58 207.86 229.08 207.86 227.45"/>
          <polygon class="cls-28" points="207.86 232.67 213.97 229.18 213.97 230.81 207.86 234.3 207.86 232.67"/>
          <polygon class="cls-28" points="207.86 237.89 213.97 234.4 213.97 236.03 207.86 239.52 207.86 237.89"/>
          <polygon class="cls-28" points="207.86 243.11 213.97 239.62 213.97 241.25 207.86 244.74 207.86 243.11"/>
          <polygon class="cls-28" points="207.86 248.34 213.97 244.84 213.97 246.47 207.86 249.96 207.86 248.34"/>
          <polygon class="cls-28" points="207.86 253.56 213.97 250.07 213.97 251.69 207.86 255.19 207.86 253.56"/>
          <polygon class="cls-28" points="207.86 258.78 213.97 255.29 213.97 256.92 207.86 260.41 207.86 258.78"/>
          <polygon class="cls-28" points="207.86 264 213.97 260.51 213.97 262.14 207.86 265.63 207.86 264"/>
          <polygon class="cls-28" points="207.86 269.22 213.97 265.73 213.97 267.36 207.86 270.85 207.86 269.22"/>
          <polygon class="cls-28" points="207.86 274.44 213.97 270.95 213.97 272.58 207.86 276.07 207.86 274.44"/>
          <polygon class="cls-28" points="207.86 279.67 213.97 276.17 213.97 277.8 207.86 281.29 207.86 279.67"/>
          <polygon class="cls-28" points="207.86 284.89 213.97 281.4 213.97 283.02 207.86 286.52 207.86 284.89"/>
          <polygon class="cls-28" points="207.86 290.11 213.97 286.62 213.97 288.25 207.86 291.74 207.86 290.11"/>
          <polygon class="cls-28" points="207.86 295.33 213.97 291.84 213.97 293.47 207.86 296.96 207.86 295.33"/>
          <polygon class="cls-28" points="207.86 300.55 213.97 297.06 213.97 298.69 207.86 302.18 207.86 300.55"/>
          <polygon class="cls-28" points="207.86 305.78 213.97 302.28 213.97 303.91 207.86 307.4 207.86 305.78"/>
          <polygon class="cls-28" points="207.86 311 213.97 307.51 213.97 309.13 207.86 312.63 207.86 311"/>
          <polygon class="cls-28" points="207.86 316.22 213.97 312.73 213.97 314.36 207.86 317.85 207.86 316.22"/>
          <polygon class="cls-28" points="207.86 321.44 213.97 317.95 213.97 319.58 207.86 323.07 207.86 321.44"/>
          <polygon class="cls-28" points="207.86 326.66 213.97 323.17 213.97 324.8 207.86 328.29 207.86 326.66"/>
          <polygon class="cls-28" points="207.86 331.88 213.97 328.39 213.97 330.02 207.86 333.51 207.86 331.88"/>
          <polygon class="cls-28" points="207.86 337.11 213.97 333.61 213.97 335.24 207.86 338.73 207.86 337.11"/>
          <polygon class="cls-28" points="207.86 342.33 213.97 338.84 213.97 340.46 207.86 343.96 207.86 342.33"/>
          <polygon class="cls-28" points="207.86 347.55 213.97 344.06 213.97 345.69 207.86 349.18 207.86 347.55"/>
          <polygon class="cls-28" points="207.86 352.77 213.97 349.28 213.97 350.91 207.86 354.4 207.86 352.77"/>
          <polygon class="cls-28" points="207.86 357.99 213.97 354.5 213.97 356.13 207.86 359.62 207.86 357.99"/>
          <polygon class="cls-28" points="207.86 363.22 213.97 359.72 213.97 361.35 207.86 364.84 207.86 363.22"/>
          <polygon class="cls-28" points="207.86 368.44 213.97 364.95 213.97 366.57 207.86 370.07 207.86 368.44"/>
          <polygon class="cls-28" points="207.86 373.66 213.97 370.17 213.97 371.8 207.86 375.29 207.86 373.66"/>
          <polygon class="cls-28" points="207.86 378.88 213.97 375.39 213.97 377.02 207.86 380.51 207.86 378.88"/>
          <polygon class="cls-28" points="207.86 384.1 213.97 380.61 213.97 382.24 207.86 385.73 207.86 384.1"/>
        </g>
      </g>
    </g>
    <g>
      <g>
        <g>
          <path class="cls-22" d="M231.2,319.63v-2.47s3.88-4.55,3.88-4.55c.2-.35.31-.75.34-1.15l1.12-14.51.69-1.51,5,2.94.52,1.75.33,15.19c0,.34.07.68.18,1.01l2.92,9.27v2.76s-2.76-1.54-2.76-1.54l-.92-2.15-7.88-4.64-1.26.88-2.16-1.27Z"/>
          <path class="cls-26" d="M231.2,319.63v-2.47s3.88-4.55,3.88-4.55c.2-.35.31-.75.34-1.15l1.12-14.51.69-1.51,5,2.94.52,1.75.33,15.19c0,.34.07.68.18,1.01l2.92,9.27v2.76s-2.76-1.54-2.76-1.54l-.92-2.15-7.88-4.64-1.26.88-2.16-1.27Z"/>
          <path class="cls-9" d="M243.27,316.33l2.92,9.27,53.86-29.9.83-2.29-2.92-9.27c-.11-.33-.17-.67-.18-1.01l-.33-15.19-6.77,3.98-47.93,28.21.33,15.19c0,.34.07.69.18,1.01Z"/>
          <polygon class="cls-10" points="300.88 296.17 246.19 328.36 246.19 325.61 300.88 293.41 300.88 296.17"/>
          <polygon class="cls-7" points="296.93 266.19 242.24 298.39 242.76 300.13 297.46 267.93 296.93 266.19"/>
          <polygon class="cls-20" points="242.24 298.39 237.25 295.44 291.94 263.25 296.93 266.19 242.24 298.39"/>
        </g>
        <g>
          <path class="cls-26" d="M292.71,275.14s-.19,10.64,2.05,19.12l2.01,1.54s-3.97-16.48-3.59-20.65l-.47-.02Z"/>
          <path class="cls-8" d="M292.71,275.14s1.82,12.18,4.07,20.66l1.03-.6s-3.97-16.58-3.59-20.75l-1.5.69Z"/>
        </g>
        <g>
          <path class="cls-26" d="M281.05,282.08s-.19,10.64,2.05,19.12l2.01,1.54s-3.97-16.48-3.59-20.65l-.47-.02Z"/>
          <path class="cls-13" d="M281.05,282.08s1.82,12.18,4.07,20.66l1.03-.6s-3.97-16.58-3.59-20.75l-1.5.69Z"/>
        </g>
        <g>
          <path class="cls-26" d="M269.01,289.12s-.19,10.64,2.05,19.12l2.01,1.54s-3.97-16.48-3.59-20.65l-.47-.02Z"/>
          <path class="cls-14" d="M269.01,289.12s1.82,12.18,4.07,20.66l1.03-.6s-3.97-16.58-3.59-20.75l-1.5.69Z"/>
        </g>
        <g>
          <path class="cls-26" d="M257.11,296.16s-.19,10.64,2.05,19.12l2.01,1.54s-3.97-16.48-3.59-20.65l-.47-.02Z"/>
          <path class="cls-11" d="M257.11,296.16s1.82,12.18,4.07,20.66l1.03-.6s-3.97-16.58-3.59-20.75l-1.5.69Z"/>
        </g>
        <g>
          <path class="cls-26" d="M245.22,303.11s-.19,10.64,2.05,19.12l2.01,1.54s-3.97-16.48-3.59-20.65l-.47-.02Z"/>
          <path class="cls-12" d="M245.22,303.11s1.82,12.18,4.07,20.66l1.03-.6s-3.97-16.58-3.59-20.75l-1.5.69Z"/>
        </g>
      </g>
      <g>
        <g>
          <path class="cls-37" d="M308.96,274.05v-2.47s3.88-4.55,3.88-4.55c.2-.35.31-.75.34-1.15l1.12-14.51.69-1.51,5,2.94.52,1.75.33,15.19c0,.34.07.68.18,1.01l2.92,9.27v2.76s-2.76-1.54-2.76-1.54l-.92-2.15-7.88-4.64-1.26.88-2.16-1.27Z"/>
          <path class="cls-26" d="M308.96,274.05v-2.47s3.88-4.55,3.88-4.55c.2-.35.31-.75.34-1.15l1.12-14.51.69-1.51,5,2.94.52,1.75.33,15.19c0,.34.07.68.18,1.01l2.92,9.27v2.76s-2.76-1.54-2.76-1.54l-.92-2.15-7.88-4.64-1.26.88-2.16-1.27Z"/>
          <path class="cls-39" d="M321.03,270.75l2.92,9.27,53.86-29.9.83-2.29-2.92-9.27c-.11-.33-.17-.67-.18-1.01l-.33-15.19-6.77,3.98-47.93,28.21.33,15.19c0,.34.07.69.18,1.01Z"/>
          <polygon class="cls-38" points="378.64 250.59 323.95 282.78 323.95 280.03 378.64 247.83 378.64 250.59"/>
          <polygon class="cls-32" points="374.69 220.61 320 252.81 320.52 254.55 375.21 222.35 374.69 220.61"/>
          <polygon class="cls-20" points="320 252.81 315 249.86 369.69 217.67 374.69 220.61 320 252.81"/>
        </g>
        <g>
          <path class="cls-26" d="M370.46,229.56s-.19,10.64,2.05,19.12l2.01,1.54s-3.97-16.48-3.59-20.65l-.47-.02Z"/>
          <path class="cls-31" d="M370.46,229.56s1.82,12.18,4.07,20.66l1.03-.6s-3.97-16.58-3.59-20.75l-1.5.69Z"/>
        </g>
        <g>
          <path class="cls-26" d="M358.8,236.5s-.19,10.64,2.05,19.12l2.01,1.54s-3.97-16.48-3.59-20.65l-.47-.02Z"/>
          <path class="cls-34" d="M358.8,236.5s1.82,12.18,4.07,20.66l1.03-.6s-3.97-16.58-3.59-20.75l-1.5.69Z"/>
        </g>
        <g>
          <path class="cls-26" d="M346.76,243.54s-.19,10.64,2.05,19.12l2.01,1.54s-3.97-16.48-3.59-20.65l-.47-.02Z"/>
          <path class="cls-33" d="M346.76,243.54s1.82,12.18,4.07,20.66l1.03-.6s-3.97-16.58-3.59-20.75l-1.5.69Z"/>
        </g>
        <g>
          <path class="cls-26" d="M334.87,250.58s-.19,10.64,2.05,19.12l2.01,1.54s-3.97-16.48-3.59-20.65l-.47-.02Z"/>
          <path class="cls-36" d="M334.87,250.58s1.82,12.18,4.07,20.66l1.03-.6s-3.97-16.58-3.59-20.75l-1.5.69Z"/>
        </g>
        <g>
          <path class="cls-26" d="M322.97,257.53s-.19,10.64,2.05,19.12l2.01,1.54s-3.97-16.48-3.59-20.65l-.47-.02Z"/>
          <path class="cls-35" d="M322.97,257.53s1.82,12.18,4.07,20.66l1.03-.6s-3.97-16.58-3.59-20.75l-1.5.69Z"/>
        </g>
      </g>
    </g>
  </g>
</svg>