<?xml version="1.0" encoding="UTF-8"?>
<svg xmlns="http://www.w3.org/2000/svg" xmlns:xlink="http://www.w3.org/1999/xlink" viewBox="0 0 940 220">
  <defs>
    <style>
      .cls-1, .cls-2, .cls-3 {
        fill: none;
      }

      .cls-2 {
        stroke-dasharray: 0 12.29;
      }

      .cls-2, .cls-3 {
        stroke: #f69421;
        stroke-linecap: round;
        stroke-linejoin: round;
        stroke-width: 4.19px;
      }

      .cls-4 {
        fill: #ecd7c2;
        mix-blend-mode: multiply;
      }

      .cls-5 {
        fill: #4e4f50;
      }

      .cls-6 {
        fill: url(#linear-gradient-3);
      }

      .cls-7 {
        fill: url(#linear-gradient-2);
      }

      .cls-8 {
        fill: #f8dab0;
      }

      .cls-9 {
        fill: #e19e5c;
      }

      .cls-10 {
        fill: url(#linear-gradient);
      }

      .cls-11 {
        isolation: isolate;
      }

      .cls-12 {
        clip-path: url(#clippath-1);
      }

      .cls-13 {
        clip-path: url(#clippath-3);
      }

      .cls-14 {
        clip-path: url(#clippath-2);
      }

      .cls-15 {
        fill: #e7d8bb;
        font-family: Roboto-Black, Roboto;
        font-size: 201.44px;
        font-weight: 800;
      }

      .cls-3 {
        stroke-dasharray: 0 13.43;
      }

      .cls-16 {
        clip-path: url(#clippath);
      }
    </style>
    <clipPath id="clippath">
      <rect class="cls-1" x="-3193.22" y="-884.76" width="2465.74" height="2206.89"/>
    </clipPath>
    <clipPath id="clippath-1">
      <polygon class="cls-1" points="136.45 124.18 152.93 133.7 169.4 124.18 152.93 114.67 136.45 124.18"/>
    </clipPath>
    <linearGradient id="linear-gradient" x1="-2954.72" y1="-2543.22" x2="-2952.75" y2="-2543.22" gradientTransform="translate(391663.53 454891.98) rotate(90) scale(153.94 -153.94)" gradientUnits="userSpaceOnUse">
      <stop offset="0" stop-color="#f9ec43"/>
      <stop offset=".04" stop-color="#f9e136"/>
      <stop offset=".11" stop-color="#f9d024"/>
      <stop offset=".19" stop-color="#f9c719"/>
      <stop offset=".28" stop-color="#fac416"/>
      <stop offset=".55" stop-color="#f29e32"/>
      <stop offset=".67" stop-color="#ef8e40"/>
      <stop offset=".89" stop-color="#eb673c"/>
      <stop offset="1" stop-color="#e83e38"/>
    </linearGradient>
    <clipPath id="clippath-2">
      <polygon class="cls-1" points="136.45 143.21 152.93 152.72 152.93 133.7 136.45 124.18 136.45 143.21"/>
    </clipPath>
    <linearGradient id="linear-gradient-2" x1="-2908.89" y1="-2482.5" x2="-2906.92" y2="-2482.5" gradientTransform="translate(121529.17 142288.5) rotate(90) scale(48.9 -48.9)" xlink:href="#linear-gradient"/>
    <clipPath id="clippath-3">
      <polygon class="cls-1" points="152.93 133.7 152.93 152.72 169.4 143.21 169.4 124.18 152.93 133.7"/>
    </clipPath>
    <linearGradient id="linear-gradient-3" x1="-2923.89" y1="-2541.28" x2="-2921.92" y2="-2541.28" gradientTransform="translate(191628.4 220327.44) rotate(90) scale(75.34 -75.34)" xlink:href="#linear-gradient"/>
  </defs>
  <g class="cls-11">
    <g id="bg">
      <g class="cls-16">
        <polygon class="cls-4" points="-1325.09 -1477.86 -2706.65 -646.1 -1325.07 185.67 56.48 -646.1 -1325.09 -1477.86"/>
      </g>
    </g>
    <g id="Text">
      <text class="cls-15" transform="translate(7.81 154.97)"><tspan x="0" y="0">4</tspan></text>
      <path class="cls-9" d="M93.63,89.54h14.56v25.57h-14.56v30.39h-33.15v-30.39H5.11l-1.97-20.26L60.48,2.59v-.29h33.15v87.25ZM34.71,89.54h25.77v-44.07l-2.07,3.34-23.71,40.72Z"/>
      <polygon class="cls-8" points="152.93 142.14 787.74 142.14 867.05 55.89 152.93 55.89 152.93 142.14"/>
      <g>
        <path class="cls-5" d="M223.24,101.95c-.3,4.14-1.83,7.4-4.58,9.77-2.76,2.38-6.39,3.57-10.9,3.57-4.93,0-8.81-1.66-11.64-4.98-2.83-3.32-4.24-7.88-4.24-13.67v-2.35c0-3.7.65-6.96,1.95-9.78,1.3-2.82,3.17-4.98,5.59-6.49,2.42-1.51,5.24-2.26,8.44-2.26,4.44,0,8.01,1.19,10.73,3.57s4.28,5.72,4.7,10.01h-7.92c-.19-2.48-.89-4.28-2.07-5.4s-3-1.68-5.43-1.68c-2.64,0-4.62.95-5.93,2.84-1.31,1.89-1.99,4.83-2.02,8.81v2.91c0,4.16.63,7.19,1.89,9.11,1.26,1.92,3.24,2.88,5.96,2.88,2.45,0,4.28-.56,5.48-1.68,1.21-1.12,1.9-2.85,2.07-5.19h7.92Z"/>
        <path class="cls-5" d="M226.76,100.21c0-2.83.55-5.36,1.64-7.58,1.09-2.22,2.66-3.94,4.71-5.15,2.05-1.21,4.43-1.82,7.15-1.82,3.86,0,7,1.18,9.44,3.54,2.44,2.36,3.8,5.57,4.08,9.62l.05,1.96c0,4.39-1.22,7.9-3.67,10.55-2.45,2.65-5.73,3.98-9.85,3.98s-7.41-1.32-9.87-3.96-3.69-6.23-3.69-10.78v-.34ZM234.39,100.75c0,2.72.51,4.79,1.53,6.23,1.02,1.44,2.48,2.16,4.38,2.16s3.29-.71,4.33-2.13c1.04-1.42,1.56-3.69,1.56-6.81,0-2.66-.52-4.73-1.56-6.19-1.04-1.46-2.5-2.2-4.39-2.2s-3.31.73-4.33,2.18c-1.02,1.46-1.53,3.71-1.53,6.76Z"/>
        <path class="cls-5" d="M265.57,86.18l.24,3.3c2.04-2.55,4.78-3.83,8.21-3.83,3.03,0,5.28.89,6.76,2.67s2.24,4.44,2.27,7.98v18.47h-7.63v-18.28c0-1.62-.35-2.8-1.06-3.53-.7-.73-1.88-1.1-3.51-1.1-2.15,0-3.76.92-4.83,2.75v20.16h-7.63v-28.58h7.19Z"/>
        <path class="cls-5" d="M304.32,106.86c0-.93-.46-1.67-1.39-2.21s-2.41-1.02-4.45-1.44c-6.8-1.43-10.2-4.31-10.2-8.67,0-2.54,1.05-4.65,3.16-6.35,2.1-1.7,4.86-2.55,8.26-2.55,3.63,0,6.53.85,8.7,2.56,2.17,1.71,3.26,3.93,3.26,6.66h-7.63c0-1.09-.35-2-1.06-2.71-.71-.71-1.81-1.07-3.3-1.07-1.29,0-2.28.29-2.98.87-.71.58-1.06,1.32-1.06,2.22,0,.85.4,1.53,1.2,2.05.8.52,2.15.97,4.06,1.35,1.9.38,3.5.81,4.81,1.28,4.03,1.48,6.05,4.04,6.05,7.69,0,2.61-1.12,4.72-3.35,6.33-2.24,1.61-5.12,2.42-8.67,2.42-2.39,0-4.52-.43-6.38-1.28-1.86-.85-3.32-2.03-4.37-3.51s-1.58-3.09-1.58-4.82h7.24c.07,1.36.57,2.4,1.51,3.12.93.72,2.18,1.08,3.75,1.08,1.46,0,2.57-.28,3.32-.83.75-.55,1.12-1.28,1.12-2.18Z"/>
        <path class="cls-5" d="M325.8,79.15v7.03h4.89v5.6h-4.89v14.27c0,1.06.2,1.81.61,2.27.41.46,1.18.69,2.33.69.84,0,1.59-.06,2.25-.19v5.79c-1.5.46-3.04.69-4.62.69-5.35,0-8.08-2.7-8.19-8.11v-15.4h-4.17v-5.6h4.17v-7.03h7.63Z"/>
        <path class="cls-5" d="M351,93.34c-1.04-.14-1.96-.21-2.75-.21-2.89,0-4.78.98-5.68,2.93v18.7h-7.63v-28.58h7.21l.21,3.41c1.53-2.62,3.65-3.94,6.37-3.94.85,0,1.64.11,2.38.34l-.11,7.34Z"/>
        <path class="cls-5" d="M371.79,111.86c-1.88,2.29-4.49,3.43-7.82,3.43-3.06,0-5.4-.88-7.01-2.64-1.61-1.76-2.44-4.34-2.47-7.74v-18.73h7.63v18.49c0,2.98,1.36,4.47,4.07,4.47s4.37-.9,5.34-2.7v-20.26h7.66v28.58h-7.19l-.21-2.91Z"/>
        <path class="cls-5" d="M396.84,109.14c1.41,0,2.55-.39,3.43-1.16.88-.78,1.34-1.81,1.37-3.09h7.16c-.02,1.94-.55,3.71-1.58,5.32-1.04,1.61-2.46,2.86-4.27,3.75-1.81.89-3.8,1.33-5.98,1.33-4.09,0-7.31-1.3-9.67-3.9-2.36-2.6-3.54-6.19-3.54-10.77v-.5c0-4.4,1.17-7.92,3.51-10.54,2.34-2.62,5.56-3.94,9.64-3.94,3.57,0,6.44,1.02,8.6,3.05s3.25,4.74,3.29,8.12h-7.16c-.04-1.49-.49-2.7-1.37-3.62-.88-.93-2.04-1.39-3.49-1.39-1.78,0-3.12.65-4.03,1.94-.91,1.3-1.36,3.4-1.36,6.31v.79c0,2.95.45,5.06,1.35,6.35.9,1.29,2.26,1.93,4.09,1.93Z"/>
        <path class="cls-5" d="M422.31,79.15v7.03h4.89v5.6h-4.89v14.27c0,1.06.2,1.81.61,2.27.41.46,1.18.69,2.33.69.85,0,1.59-.06,2.25-.19v5.79c-1.5.46-3.04.69-4.62.69-5.35,0-8.08-2.7-8.19-8.11v-15.4h-4.17v-5.6h4.17v-7.03h7.63Z"/>
        <path class="cls-5" d="M431.39,78.78c0-1.14.38-2.09,1.15-2.83.77-.74,1.81-1.11,3.13-1.11s2.34.37,3.12,1.11c.77.74,1.16,1.68,1.16,2.83s-.39,2.11-1.17,2.85c-.78.74-1.82,1.11-3.1,1.11s-2.32-.37-3.1-1.11c-.78-.74-1.18-1.69-1.18-2.85ZM439.5,114.76h-7.66v-28.58h7.66v28.58Z"/>
        <path class="cls-5" d="M444.6,100.21c0-2.83.55-5.36,1.64-7.58,1.09-2.22,2.66-3.94,4.71-5.15,2.05-1.21,4.43-1.82,7.15-1.82,3.86,0,7,1.18,9.44,3.54,2.44,2.36,3.8,5.57,4.08,9.62l.05,1.96c0,4.39-1.22,7.9-3.67,10.55-2.45,2.65-5.73,3.98-9.85,3.98s-7.41-1.32-9.87-3.96-3.69-6.23-3.69-10.78v-.34ZM452.24,100.75c0,2.72.51,4.79,1.53,6.23,1.02,1.44,2.48,2.16,4.38,2.16s3.29-.71,4.33-2.13c1.04-1.42,1.56-3.69,1.56-6.81,0-2.66-.52-4.73-1.56-6.19-1.04-1.46-2.5-2.2-4.39-2.2s-3.31.73-4.33,2.18c-1.02,1.46-1.53,3.71-1.53,6.76Z"/>
        <path class="cls-5" d="M483.41,86.18l.24,3.3c2.04-2.55,4.78-3.83,8.22-3.83,3.03,0,5.28.89,6.76,2.67s2.24,4.44,2.27,7.98v18.47h-7.63v-18.28c0-1.62-.35-2.8-1.06-3.53-.7-.73-1.88-1.1-3.51-1.1-2.15,0-3.76.92-4.83,2.75v20.16h-7.63v-28.58h7.19Z"/>
      </g>
      <g class="cls-12">
        <rect class="cls-10" x="135.87" y="105.2" width="34.11" height="37.97" transform="translate(-35.24 182.51) rotate(-56.3)"/>
      </g>
      <g class="cls-14">
        <rect class="cls-7" x="134.8" y="123.3" width="19.78" height="30.31" transform="translate(-15.59 18.39) rotate(-6.9)"/>
      </g>
      <g class="cls-13">
        <rect class="cls-6" x="145.08" y="122.74" width="32.17" height="31.42" transform="translate(-49.79 163.74) rotate(-47.5)"/>
      </g>
      <line class="cls-2" x1="136.45" y1="38.92" x2="628.84" y2="38.92"/>
      <line class="cls-3" x1="17.6" y1="170.83" x2="166.49" y2="170.83"/>
    </g>
  </g>
</svg>