<?xml version="1.0" encoding="UTF-8"?>
<svg xmlns="http://www.w3.org/2000/svg" xmlns:xlink="http://www.w3.org/1999/xlink" viewBox="0 0 940 220">
  <defs>
    <style>
      .cls-1, .cls-2, .cls-3 {
        fill: none;
      }

      .cls-4 {
        fill: #b08f5f;
      }

      .cls-2 {
        stroke-dasharray: 0 12.29;
      }

      .cls-2, .cls-3 {
        stroke: #f69421;
        stroke-linecap: round;
        stroke-linejoin: round;
        stroke-width: 4.19px;
      }

      .cls-5 {
        fill: #ecd7c2;
        mix-blend-mode: multiply;
      }

      .cls-6 {
        fill: url(#linear-gradient-3);
      }

      .cls-7 {
        fill: url(#linear-gradient-2);
      }

      .cls-8 {
        fill: url(#linear-gradient);
      }

      .cls-9 {
        isolation: isolate;
      }

      .cls-10 {
        clip-path: url(#clippath-1);
      }

      .cls-11 {
        clip-path: url(#clippath-3);
      }

      .cls-12 {
        clip-path: url(#clippath-2);
      }

      .cls-3 {
        stroke-dasharray: 0 13.43;
      }

      .cls-13 {
        fill: #fff;
      }

      .cls-14 {
        fill: #eacfc8;
        font-family: Roboto-Black, Roboto;
        font-size: 201.44px;
        font-weight: 800;
      }

      .cls-15 {
        clip-path: url(#clippath);
      }
    </style>
    <clipPath id="clippath">
      <rect class="cls-1" x="-3193.22" y="-541.86" width="2465.74" height="2206.89"/>
    </clipPath>
    <clipPath id="clippath-1">
      <polygon class="cls-1" points="135.3 124.61 151.77 134.12 168.25 124.61 151.77 115.1 135.3 124.61"/>
    </clipPath>
    <linearGradient id="linear-gradient" x1="-2955.96" y1="-2198.47" x2="-2953.99" y2="-2198.47" gradientTransform="translate(338591.21 455083.43) rotate(90) scale(153.94 -153.94)" gradientUnits="userSpaceOnUse">
      <stop offset="0" stop-color="#f9ec43"/>
      <stop offset=".04" stop-color="#f9e136"/>
      <stop offset=".11" stop-color="#f9d024"/>
      <stop offset=".19" stop-color="#f9c719"/>
      <stop offset=".28" stop-color="#fac416"/>
      <stop offset=".55" stop-color="#f29e32"/>
      <stop offset=".67" stop-color="#ef8e40"/>
      <stop offset=".89" stop-color="#eb673c"/>
      <stop offset="1" stop-color="#e83e38"/>
    </linearGradient>
    <clipPath id="clippath-2">
      <polygon class="cls-1" points="135.3 143.63 151.77 153.14 151.77 134.12 135.3 124.61 135.3 143.63"/>
    </clipPath>
    <linearGradient id="linear-gradient-2" x1="-2915.85" y1="-2138.78" x2="-2913.88" y2="-2138.78" gradientTransform="translate(104721.62 142629.05) rotate(90) scale(48.9 -48.9)" xlink:href="#linear-gradient"/>
    <clipPath id="clippath-3">
      <polygon class="cls-1" points="151.77 134.12 151.77 153.14 168.25 143.63 168.25 124.61 151.77 134.12"/>
    </clipPath>
    <linearGradient id="linear-gradient-3" x1="-2926.97" y1="-2195.05" x2="-2925" y2="-2195.05" gradientTransform="translate(165540.59 220560.07) rotate(90) scale(75.34 -75.34)" xlink:href="#linear-gradient"/>
  </defs>
  <g class="cls-9">
    <g id="bg">
      <g class="cls-15">
        <polygon class="cls-5" points="-1325.09 -1134.96 -2706.65 -303.2 -1325.07 528.57 56.48 -303.2 -1325.09 -1134.96"/>
      </g>
    </g>
    <g id="Text">
      <text class="cls-14" transform="translate(6.66 155.4)"><tspan x="0" y="0">5</tspan></text>
      <path class="cls-4" d="M6.9,75.97L15.66,2.72h83.7v25.77h-56.75l-3.25,28.45c2.36-1.38,5.46-2.6,9.29-3.65s7.59-1.58,11.26-1.58c14.23,0,25.16,4.21,32.8,12.64,7.64,8.43,11.46,20.25,11.46,35.46,0,9.18-2.05,17.49-6.15,24.93-4.1,7.44-9.85,13.17-17.26,17.16-7.41,4-16.17,6-26.26,6-8.99,0-17.41-1.85-25.28-5.55-7.87-3.7-14.03-8.78-18.49-15.23-4.46-6.45-6.66-13.74-6.59-21.87h33.25c.33,5.23,2,9.39,5.02,12.47,3.01,3.08,6.98,4.61,11.9,4.61,11.15,0,16.72-8.25,16.72-24.74,0-15.25-6.82-22.87-20.46-22.87-7.74,0-13.51,2.49-17.31,7.46l-26.36-6.2Z"/>
      <polygon class="cls-4" points="151.77 142.57 802.93 142.57 869.04 56.32 151.77 56.32 151.77 142.57"/>
      <g>
        <path class="cls-13" d="M223.49,96.83c0,3.79-.67,7.11-2.01,9.96-1.34,2.85-3.25,5.06-5.75,6.6-2.49,1.55-5.35,2.33-8.57,2.33s-6.03-.77-8.53-2.3c-2.5-1.53-4.44-3.72-5.81-6.57-1.37-2.84-2.07-6.12-2.09-9.81v-1.9c0-3.79.68-7.12,2.05-10s3.29-5.09,5.79-6.63,5.34-2.31,8.55-2.31,6.05.77,8.55,2.31,4.42,3.75,5.79,6.63c1.36,2.88,2.05,6.2,2.05,9.97v1.72ZM215.46,95.08c0-4.03-.72-7.1-2.17-9.19-1.44-2.1-3.5-3.14-6.18-3.14s-4.71,1.04-6.16,3.1c-1.44,2.07-2.18,5.1-2.19,9.1v1.88c0,3.93.72,6.97,2.17,9.14,1.44,2.17,3.52,3.25,6.23,3.25s4.7-1.04,6.13-3.13c1.43-2.09,2.15-5.13,2.17-9.13v-1.88Z"/>
        <path class="cls-13" d="M254.48,101.16c0,4.4-1,7.93-3,10.58-2,2.65-4.7,3.98-8.1,3.98-2.89,0-5.22-1-7-3.01v13.47h-7.63v-39.57h7.08l.26,2.8c1.85-2.22,4.26-3.33,7.24-3.33,3.52,0,6.26,1.3,8.22,3.91,1.96,2.61,2.93,6.2,2.93,10.78v.4ZM246.84,100.6c0-2.66-.47-4.71-1.41-6.16s-2.31-2.17-4.11-2.17c-2.39,0-4.04.92-4.94,2.75v11.7c.93,1.88,2.6,2.83,4.99,2.83,3.65,0,5.47-2.99,5.47-8.96Z"/>
        <path class="cls-13" d="M272.36,115.71c-4.19,0-7.6-1.29-10.24-3.86-2.63-2.57-3.95-6-3.95-10.28v-.74c0-2.87.55-5.44,1.66-7.7,1.11-2.26,2.68-4.01,4.72-5.23,2.03-1.22,4.35-1.84,6.96-1.84,3.91,0,6.99,1.23,9.23,3.7,2.25,2.47,3.37,5.96,3.37,10.49v3.12h-18.2c.25,1.87.99,3.36,2.23,4.49s2.81,1.69,4.72,1.69c2.94,0,5.24-1.07,6.9-3.2l3.75,4.2c-1.15,1.62-2.69,2.88-4.65,3.79s-4.12,1.36-6.5,1.36ZM271.49,92.23c-1.51,0-2.74.51-3.69,1.54s-1.54,2.49-1.81,4.4h10.62v-.61c-.04-1.7-.49-3.01-1.37-3.94-.88-.93-2.13-1.39-3.75-1.39Z"/>
        <path class="cls-13" d="M304.51,93.76c-1.04-.14-1.95-.21-2.75-.21-2.89,0-4.78.98-5.68,2.93v18.7h-7.63v-28.58h7.21l.21,3.41c1.53-2.62,3.65-3.94,6.37-3.94.84,0,1.64.11,2.38.34l-.11,7.34Z"/>
        <path class="cls-13" d="M324.75,115.19c-.35-.69-.61-1.54-.77-2.56-1.85,2.06-4.25,3.09-7.21,3.09-2.8,0-5.12-.81-6.96-2.43-1.84-1.62-2.76-3.66-2.76-6.13,0-3.03,1.12-5.35,3.37-6.97,2.25-1.62,5.49-2.44,9.74-2.46h3.51v-1.64c0-1.32-.34-2.38-1.02-3.17s-1.75-1.19-3.21-1.19c-1.29,0-2.29.31-3.03.92-.73.62-1.1,1.46-1.1,2.54h-7.64c0-1.66.51-3.19,1.53-4.6,1.02-1.41,2.47-2.51,4.33-3.32,1.87-.8,3.96-1.2,6.29-1.2,3.52,0,6.32.88,8.39,2.65,2.07,1.77,3.1,4.26,3.1,7.46v12.39c.02,2.71.4,4.76,1.14,6.16v.45h-7.71ZM318.44,109.88c1.13,0,2.17-.25,3.12-.75s1.66-1.18,2.11-2.02v-4.91h-2.85c-3.82,0-5.86,1.32-6.1,3.96l-.03.45c0,.95.33,1.74,1,2.35.67.62,1.58.92,2.75.92Z"/>
        <path class="cls-13" d="M346.33,79.58v7.03h4.89v5.6h-4.89v14.27c0,1.06.2,1.81.61,2.27.41.46,1.18.69,2.33.69.84,0,1.59-.06,2.25-.19v5.79c-1.5.46-3.04.69-4.62.69-5.35,0-8.08-2.7-8.19-8.11v-15.4h-4.17v-5.6h4.17v-7.03h7.63Z"/>
        <path class="cls-13" d="M355.42,79.2c0-1.14.38-2.09,1.15-2.83.77-.74,1.81-1.11,3.13-1.11s2.34.37,3.12,1.11c.78.74,1.16,1.68,1.16,2.83s-.39,2.11-1.18,2.85c-.78.74-1.82,1.11-3.1,1.11s-2.32-.37-3.1-1.11c-.78-.74-1.17-1.69-1.17-2.85ZM363.53,115.19h-7.66v-28.58h7.66v28.58Z"/>
        <path class="cls-13" d="M368.63,100.63c0-2.83.55-5.36,1.64-7.58,1.09-2.22,2.66-3.94,4.72-5.15,2.05-1.21,4.43-1.82,7.15-1.82,3.86,0,7.01,1.18,9.45,3.54,2.44,2.36,3.8,5.57,4.08,9.62l.05,1.96c0,4.39-1.22,7.9-3.67,10.55s-5.73,3.98-9.85,3.98-7.41-1.32-9.87-3.96-3.68-6.23-3.68-10.78v-.34ZM376.27,101.17c0,2.72.51,4.79,1.53,6.23s2.48,2.16,4.38,2.16,3.29-.71,4.33-2.13,1.56-3.69,1.56-6.81c0-2.66-.52-4.73-1.56-6.19-1.04-1.46-2.5-2.2-4.39-2.2s-3.31.73-4.33,2.18-1.53,3.71-1.53,6.76Z"/>
        <path class="cls-13" d="M407.44,86.6l.24,3.3c2.04-2.55,4.78-3.83,8.22-3.83,3.03,0,5.28.89,6.76,2.67,1.48,1.78,2.24,4.44,2.27,7.98v18.47h-7.63v-18.28c0-1.62-.35-2.8-1.06-3.53-.71-.73-1.88-1.1-3.51-1.1-2.15,0-3.76.92-4.83,2.75v20.16h-7.63v-28.58h7.19Z"/>
        <path class="cls-13" d="M443.13,104.83c0-1.78.5-3.43,1.49-4.94s2.82-3.2,5.48-5.05c-1.15-1.53-2.04-2.97-2.7-4.32-.65-1.35-.98-2.75-.98-4.21,0-2.99.95-5.43,2.84-7.3,1.89-1.88,4.44-2.81,7.65-2.81,2.87,0,5.23.85,7.07,2.56,1.84,1.71,2.76,3.84,2.76,6.39,0,3.06-1.55,5.77-4.65,8.11l-2.96,2.14,6.63,7.71c1.04-2.04,1.56-4.3,1.56-6.76h6.5c0,5-1.15,9.05-3.46,12.15l5.76,6.68h-8.67l-1.98-2.27c-2.84,1.87-6.09,2.8-9.77,2.8s-6.85-1-9.14-3c-2.29-2-3.43-4.63-3.43-7.89ZM456.07,109.56c1.83,0,3.57-.51,5.2-1.53l-7.58-8.75-.55.4c-1.57,1.33-2.35,2.91-2.35,4.72,0,1.53.49,2.77,1.47,3.73.98.96,2.25,1.44,3.82,1.44ZM453.27,86.21c0,1.32.78,2.99,2.32,4.99l2.04-1.35c1.04-.67,1.76-1.32,2.15-1.96s.59-1.39.59-2.27-.33-1.65-.98-2.3c-.65-.65-1.49-.98-2.51-.98-1.09,0-1.97.35-2.63,1.06-.66.71-.99,1.64-.99,2.8Z"/>
        <path class="cls-13" d="M504.02,76.72l9.88,27.9,9.83-27.9h10.41v38.46h-7.95v-10.51l.79-18.15-10.38,28.66h-5.44l-10.36-28.64.79,18.12v10.51h-7.93v-38.46h10.36Z"/>
        <path class="cls-13" d="M557.12,115.19c-.35-.69-.61-1.54-.77-2.56-1.85,2.06-4.25,3.09-7.21,3.09-2.8,0-5.12-.81-6.96-2.43-1.84-1.62-2.76-3.66-2.76-6.13,0-3.03,1.12-5.35,3.37-6.97,2.25-1.62,5.49-2.44,9.74-2.46h3.51v-1.64c0-1.32-.34-2.38-1.02-3.17-.68-.79-1.75-1.19-3.21-1.19-1.29,0-2.29.31-3.02.92-.73.62-1.1,1.46-1.1,2.54h-7.63c0-1.66.51-3.19,1.53-4.6,1.02-1.41,2.47-2.51,4.33-3.32,1.87-.8,3.96-1.2,6.29-1.2,3.52,0,6.32.88,8.39,2.65,2.07,1.77,3.1,4.26,3.1,7.46v12.39c.02,2.71.4,4.76,1.14,6.16v.45h-7.71ZM550.81,109.88c1.13,0,2.17-.25,3.12-.75.95-.5,1.66-1.18,2.11-2.02v-4.91h-2.85c-3.82,0-5.86,1.32-6.1,3.96l-.03.45c0,.95.33,1.74,1,2.35s1.58.92,2.75.92Z"/>
        <path class="cls-13" d="M569.51,79.2c0-1.14.38-2.09,1.15-2.83.77-.74,1.81-1.11,3.13-1.11s2.34.37,3.12,1.11c.78.74,1.16,1.68,1.16,2.83s-.39,2.11-1.18,2.85c-.78.74-1.82,1.11-3.1,1.11s-2.32-.37-3.1-1.11c-.78-.74-1.17-1.69-1.17-2.85ZM577.62,115.19h-7.66v-28.58h7.66v28.58Z"/>
        <path class="cls-13" d="M590.94,86.6l.24,3.3c2.04-2.55,4.78-3.83,8.22-3.83,3.03,0,5.28.89,6.76,2.67s2.24,4.44,2.27,7.98v18.47h-7.63v-18.28c0-1.62-.35-2.8-1.06-3.53-.7-.73-1.88-1.1-3.51-1.1-2.15,0-3.76.92-4.83,2.75v20.16h-7.63v-28.58h7.19Z"/>
        <path class="cls-13" d="M623.35,79.58v7.03h4.89v5.6h-4.89v14.27c0,1.06.2,1.81.61,2.27.41.46,1.18.69,2.33.69.84,0,1.59-.06,2.25-.19v5.79c-1.5.46-3.04.69-4.62.69-5.35,0-8.08-2.7-8.19-8.11v-15.4h-4.17v-5.6h4.17v-7.03h7.63Z"/>
        <path class="cls-13" d="M645.65,115.71c-4.19,0-7.6-1.29-10.24-3.86-2.63-2.57-3.95-6-3.95-10.28v-.74c0-2.87.55-5.44,1.66-7.7,1.11-2.26,2.68-4.01,4.72-5.23,2.03-1.22,4.35-1.84,6.96-1.84,3.91,0,6.99,1.23,9.23,3.7s3.37,5.96,3.37,10.49v3.12h-18.2c.25,1.87.99,3.36,2.23,4.49s2.81,1.69,4.72,1.69c2.94,0,5.24-1.07,6.89-3.2l3.75,4.2c-1.15,1.62-2.7,2.88-4.65,3.79-1.95.91-4.12,1.36-6.5,1.36ZM644.78,92.23c-1.51,0-2.74.51-3.69,1.54s-1.54,2.49-1.81,4.4h10.62v-.61c-.04-1.7-.49-3.01-1.37-3.94s-2.13-1.39-3.75-1.39Z"/>
        <path class="cls-13" d="M668.77,86.6l.24,3.3c2.04-2.55,4.78-3.83,8.22-3.83,3.03,0,5.28.89,6.76,2.67,1.48,1.78,2.24,4.44,2.27,7.98v18.47h-7.63v-18.28c0-1.62-.35-2.8-1.06-3.53-.71-.73-1.88-1.1-3.51-1.1-2.15,0-3.76.92-4.83,2.75v20.16h-7.63v-28.58h7.19Z"/>
        <path class="cls-13" d="M708.61,115.19c-.35-.69-.61-1.54-.77-2.56-1.85,2.06-4.25,3.09-7.21,3.09-2.8,0-5.12-.81-6.96-2.43-1.84-1.62-2.76-3.66-2.76-6.13,0-3.03,1.12-5.35,3.37-6.97,2.25-1.62,5.49-2.44,9.74-2.46h3.51v-1.64c0-1.32-.34-2.38-1.02-3.17s-1.75-1.19-3.21-1.19c-1.29,0-2.29.31-3.03.92-.73.62-1.1,1.46-1.1,2.54h-7.64c0-1.66.51-3.19,1.53-4.6,1.02-1.41,2.47-2.51,4.33-3.32,1.87-.8,3.96-1.2,6.29-1.2,3.52,0,6.32.88,8.39,2.65,2.07,1.77,3.1,4.26,3.1,7.46v12.39c.02,2.71.4,4.76,1.14,6.16v.45h-7.71ZM702.29,109.88c1.13,0,2.17-.25,3.12-.75s1.66-1.18,2.11-2.02v-4.91h-2.85c-3.82,0-5.86,1.32-6.1,3.96l-.03.45c0,.95.33,1.74,1,2.35.67.62,1.58.92,2.75.92Z"/>
        <path class="cls-13" d="M728.08,86.6l.24,3.3c2.04-2.55,4.78-3.83,8.22-3.83,3.03,0,5.28.89,6.76,2.67s2.24,4.44,2.27,7.98v18.47h-7.63v-18.28c0-1.62-.35-2.8-1.06-3.53-.7-.73-1.88-1.1-3.51-1.1-2.15,0-3.76.92-4.83,2.75v20.16h-7.63v-28.58h7.19Z"/>
        <path class="cls-13" d="M763.24,109.56c1.41,0,2.55-.39,3.43-1.16.88-.78,1.34-1.81,1.37-3.09h7.16c-.02,1.94-.55,3.71-1.59,5.32-1.04,1.61-2.46,2.86-4.27,3.75-1.81.89-3.8,1.33-5.98,1.33-4.09,0-7.31-1.3-9.67-3.9s-3.54-6.19-3.54-10.77v-.5c0-4.4,1.17-7.92,3.51-10.54,2.34-2.62,5.56-3.94,9.64-3.94,3.58,0,6.44,1.02,8.6,3.05,2.16,2.03,3.25,4.74,3.29,8.12h-7.16c-.04-1.49-.49-2.7-1.37-3.62-.88-.93-2.04-1.39-3.49-1.39-1.78,0-3.12.65-4.03,1.94-.91,1.3-1.36,3.4-1.36,6.31v.79c0,2.95.45,5.06,1.35,6.35.9,1.29,2.26,1.93,4.09,1.93Z"/>
        <path class="cls-13" d="M792.72,115.71c-4.19,0-7.6-1.29-10.24-3.86-2.63-2.57-3.95-6-3.95-10.28v-.74c0-2.87.55-5.44,1.66-7.7,1.11-2.26,2.68-4.01,4.72-5.23,2.03-1.22,4.35-1.84,6.96-1.84,3.91,0,6.99,1.23,9.23,3.7,2.25,2.47,3.37,5.96,3.37,10.49v3.12h-18.2c.25,1.87.99,3.36,2.23,4.49,1.24,1.13,2.81,1.69,4.72,1.69,2.94,0,5.24-1.07,6.9-3.2l3.75,4.2c-1.14,1.62-2.69,2.88-4.65,3.79s-4.12,1.36-6.5,1.36ZM791.85,92.23c-1.51,0-2.74.51-3.68,1.54-.94,1.03-1.55,2.49-1.81,4.4h10.62v-.61c-.04-1.7-.49-3.01-1.37-3.94s-2.13-1.39-3.75-1.39Z"/>
      </g>
      <g class="cls-10">
        <rect class="cls-8" x="134.72" y="105.62" width="34.11" height="37.97" transform="translate(-36.11 181.74) rotate(-56.3)"/>
      </g>
      <g class="cls-12">
        <rect class="cls-7" x="133.64" y="123.72" width="19.78" height="30.31" transform="translate(-15.64 18.25) rotate(-6.9)"/>
      </g>
      <g class="cls-11">
        <rect class="cls-6" x="143.92" y="123.16" width="32.17" height="31.42" transform="translate(-50.48 163.02) rotate(-47.5)"/>
      </g>
      <line class="cls-2" x1="135.3" y1="39.34" x2="627.69" y2="39.34"/>
      <line class="cls-3" x1="16.44" y1="171.25" x2="165.33" y2="171.25"/>
    </g>
  </g>
</svg>