<?xml version="1.0" encoding="UTF-8"?>
<svg id="Layer_2" data-name="Layer 2" xmlns="http://www.w3.org/2000/svg" xmlns:xlink="http://www.w3.org/1999/xlink" viewBox="0 0 111.01 131.75">
  <defs>
    <style>
      .cls-1 {
        fill: #f5f6f7;
      }

      .cls-2 {
        mask: url(#mask);
      }

      .cls-3 {
        filter: url(#luminosity-noclip);
      }

      .cls-4 {
        fill: #e5ab82;
      }

      .cls-5 {
        fill: #1e7d69;
      }

      .cls-6 {
        fill: #57241d;
      }

      .cls-7 {
        fill: url(#_ÂÁ_Ï_ÌÌ_È_ËÂÌÚ_4-4);
      }

      .cls-8 {
        fill: url(#_ÂÁ_Ï_ÌÌ_È_ËÂÌÚ_4-5);
      }

      .cls-9 {
        fill: url(#_ÂÁ_Ï_ÌÌ_È_ËÂÌÚ_4-2);
      }

      .cls-10 {
        fill: url(#_ÂÁ_Ï_ÌÌ_È_ËÂÌÚ_4-3);
      }

      .cls-11 {
        fill: url(#_ÂÁ_Ï_ÌÌ_È_ËÂÌÚ_4-8);
      }

      .cls-12 {
        fill: url(#_ÂÁ_Ï_ÌÌ_È_ËÂÌÚ_4-9);
      }

      .cls-13 {
        fill: url(#_ÂÁ_Ï_ÌÌ_È_ËÂÌÚ_4-6);
      }

      .cls-14 {
        fill: url(#_ÂÁ_Ï_ÌÌ_È_ËÂÌÚ_4-7);
      }

      .cls-15 {
        filter: url(#luminosity-noclip-3);
      }

      .cls-16 {
        filter: url(#luminosity-noclip-4);
      }

      .cls-17 {
        filter: url(#luminosity-noclip-2);
      }

      .cls-18 {
        fill: #8c403c;
      }

      .cls-19 {
        fill: #df7925;
      }

      .cls-20 {
        fill: #ed5138;
      }

      .cls-21 {
        fill: url(#_ÂÁ_Ï_ÌÌ_È_ËÂÌÚ_4);
      }

      .cls-22 {
        mask: url(#mask-2);
      }

      .cls-23 {
        mask: url(#mask-3);
      }

      .cls-24 {
        mask: url(#mask-1);
      }

      .cls-25 {
        fill: #54162a;
        opacity: .5;
      }

      .cls-26 {
        fill: #23624b;
      }

      .cls-27 {
        fill: #f59220;
      }

      .cls-28 {
        fill: #ffda7d;
      }

      .cls-29 {
        fill: #268974;
      }

      .cls-30 {
        fill: url(#_ÂÁ_Ï_ÌÌ_È_ËÂÌÚ_4-14);
      }

      .cls-31 {
        fill: url(#_ÂÁ_Ï_ÌÌ_È_ËÂÌÚ_4-13);
      }

      .cls-32 {
        fill: url(#_ÂÁ_Ï_ÌÌ_È_ËÂÌÚ_4-16);
      }

      .cls-33 {
        fill: url(#_ÂÁ_Ï_ÌÌ_È_ËÂÌÚ_4-15);
      }

      .cls-34 {
        fill: url(#_ÂÁ_Ï_ÌÌ_È_ËÂÌÚ_4-18);
      }

      .cls-35 {
        fill: url(#_ÂÁ_Ï_ÌÌ_È_ËÂÌÚ_4-17);
      }

      .cls-36 {
        fill: url(#_ÂÁ_Ï_ÌÌ_È_ËÂÌÚ_4-10);
      }

      .cls-37 {
        fill: url(#_ÂÁ_Ï_ÌÌ_È_ËÂÌÚ_4-12);
      }

      .cls-38 {
        fill: url(#_ÂÁ_Ï_ÌÌ_È_ËÂÌÚ_4-11);
      }
    </style>
    <linearGradient id="_ÂÁ_Ï_ÌÌ_È_ËÂÌÚ_4" data-name="¡ÂÁ˚ÏˇÌÌ˚È „‡‰ËÂÌÚ 4" x1="-14287.71" y1="113.28" x2="-14281.58" y2="113.28" gradientTransform="translate(-14281.58) rotate(-180) scale(1 -1)" gradientUnits="userSpaceOnUse">
      <stop offset="0" stop-color="#e43f25"/>
      <stop offset=".53" stop-color="#e13e25"/>
      <stop offset=".82" stop-color="#d93b26"/>
      <stop offset=".99" stop-color="#d03927"/>
    </linearGradient>
    <linearGradient id="_ÂÁ_Ï_ÌÌ_È_ËÂÌÚ_4-2" data-name="¡ÂÁ˚ÏˇÌÌ˚È „‡‰ËÂÌÚ 4" x1="-14301.83" y1="114.03" x2="-14299.58" y2="109.76" xlink:href="#_ÂÁ_Ï_ÌÌ_È_ËÂÌÚ_4"/>
    <linearGradient id="_ÂÁ_Ï_ÌÌ_È_ËÂÌÚ_4-3" data-name="¡ÂÁ˚ÏˇÌÌ˚È „‡‰ËÂÌÚ 4" x1="-14300.81" y1="115.67" x2="-14299.32" y2="113.5" xlink:href="#_ÂÁ_Ï_ÌÌ_È_ËÂÌÚ_4"/>
    <linearGradient id="_ÂÁ_Ï_ÌÌ_È_ËÂÌÚ_4-4" data-name="¡ÂÁ˚ÏˇÌÌ˚È „‡‰ËÂÌÚ 4" x1="-14296.45" y1="101.4" x2="-14280.73" y2="99.03" xlink:href="#_ÂÁ_Ï_ÌÌ_È_ËÂÌÚ_4"/>
    <linearGradient id="_ÂÁ_Ï_ÌÌ_È_ËÂÌÚ_4-5" data-name="¡ÂÁ˚ÏˇÌÌ˚È „‡‰ËÂÌÚ 4" x1="-14308.79" y1="102.34" x2="-14306.71" y2="102.34" xlink:href="#_ÂÁ_Ï_ÌÌ_È_ËÂÌÚ_4"/>
    <linearGradient id="_ÂÁ_Ï_ÌÌ_È_ËÂÌÚ_4-6" data-name="¡ÂÁ˚ÏˇÌÌ˚È „‡‰ËÂÌÚ 4" x1="-14304.03" y1="105.17" x2="-14301.95" y2="105.17" xlink:href="#_ÂÁ_Ï_ÌÌ_È_ËÂÌÚ_4"/>
    <linearGradient id="_ÂÁ_Ï_ÌÌ_È_ËÂÌÚ_4-7" data-name="¡ÂÁ˚ÏˇÌÌ˚È „‡‰ËÂÌÚ 4" x1="-14299.11" y1="108.05" x2="-14297.03" y2="108.05" xlink:href="#_ÂÁ_Ï_ÌÌ_È_ËÂÌÚ_4"/>
    <linearGradient id="_ÂÁ_Ï_ÌÌ_È_ËÂÌÚ_4-8" data-name="¡ÂÁ˚ÏˇÌÌ˚È „‡‰ËÂÌÚ 4" x1="-14294.25" y1="110.93" x2="-14292.17" y2="110.93" xlink:href="#_ÂÁ_Ï_ÌÌ_È_ËÂÌÚ_4"/>
    <linearGradient id="_ÂÁ_Ï_ÌÌ_È_ËÂÌÚ_4-9" data-name="¡ÂÁ˚ÏˇÌÌ˚È „‡‰ËÂÌÚ 4" x1="-14289.39" y1="113.77" x2="-14287.31" y2="113.77" xlink:href="#_ÂÁ_Ï_ÌÌ_È_ËÂÌÚ_4"/>
    <linearGradient id="_ÂÁ_Ï_ÌÌ_È_ËÂÌÚ_4-10" data-name="¡ÂÁ˚ÏˇÌÌ˚È „‡‰ËÂÌÚ 4" x1="-14319.48" y1="94.65" x2="-14313.36" y2="94.65" xlink:href="#_ÂÁ_Ï_ÌÌ_È_ËÂÌÚ_4"/>
    <linearGradient id="_ÂÁ_Ï_ÌÌ_È_ËÂÌÚ_4-11" data-name="¡ÂÁ˚ÏˇÌÌ˚È „‡‰ËÂÌÚ 4" x1="-14333.61" y1="95.41" x2="-14331.36" y2="91.13" xlink:href="#_ÂÁ_Ï_ÌÌ_È_ËÂÌÚ_4"/>
    <linearGradient id="_ÂÁ_Ï_ÌÌ_È_ËÂÌÚ_4-12" data-name="¡ÂÁ˚ÏˇÌÌ˚È „‡‰ËÂÌÚ 4" x1="-14332.59" y1="97.04" x2="-14331.09" y2="94.87" xlink:href="#_ÂÁ_Ï_ÌÌ_È_ËÂÌÚ_4"/>
    <linearGradient id="_ÂÁ_Ï_ÌÌ_È_ËÂÌÚ_4-13" data-name="¡ÂÁ˚ÏˇÌÌ˚È „‡‰ËÂÌÚ 4" x1="-14328.23" y1="82.77" x2="-14312.51" y2="80.4" xlink:href="#_ÂÁ_Ï_ÌÌ_È_ËÂÌÚ_4"/>
    <linearGradient id="_ÂÁ_Ï_ÌÌ_È_ËÂÌÚ_4-14" data-name="¡ÂÁ˚ÏˇÌÌ˚È „‡‰ËÂÌÚ 4" x1="-14340.57" y1="83.71" x2="-14338.49" y2="83.71" xlink:href="#_ÂÁ_Ï_ÌÌ_È_ËÂÌÚ_4"/>
    <linearGradient id="_ÂÁ_Ï_ÌÌ_È_ËÂÌÚ_4-15" data-name="¡ÂÁ˚ÏˇÌÌ˚È „‡‰ËÂÌÚ 4" x1="-14335.8" y1="86.55" x2="-14333.72" y2="86.55" xlink:href="#_ÂÁ_Ï_ÌÌ_È_ËÂÌÚ_4"/>
    <linearGradient id="_ÂÁ_Ï_ÌÌ_È_ËÂÌÚ_4-16" data-name="¡ÂÁ˚ÏˇÌÌ˚È „‡‰ËÂÌÚ 4" x1="-14330.88" y1="89.43" x2="-14328.8" y2="89.43" xlink:href="#_ÂÁ_Ï_ÌÌ_È_ËÂÌÚ_4"/>
    <linearGradient id="_ÂÁ_Ï_ÌÌ_È_ËÂÌÚ_4-17" data-name="¡ÂÁ˚ÏˇÌÌ˚È „‡‰ËÂÌÚ 4" x1="-14326.02" y1="92.3" x2="-14323.94" y2="92.3" xlink:href="#_ÂÁ_Ï_ÌÌ_È_ËÂÌÚ_4"/>
    <linearGradient id="_ÂÁ_Ï_ÌÌ_È_ËÂÌÚ_4-18" data-name="¡ÂÁ˚ÏˇÌÌ˚È „‡‰ËÂÌÚ 4" x1="-14321.16" y1="95.14" x2="-14319.08" y2="95.14" xlink:href="#_ÂÁ_Ï_ÌÌ_È_ËÂÌÚ_4"/>
    <filter id="luminosity-noclip" x="74.16" y="21.07" width="8.69" height="105.36" color-interpolation-filters="sRGB" filterUnits="userSpaceOnUse">
      <feFlood flood-color="#fff" result="bg"/>
      <feBlend in="SourceGraphic" in2="bg"/>
    </filter>
    <mask id="mask" x="74.16" y="21.07" width="8.69" height="105.36" maskUnits="userSpaceOnUse">
      <g class="cls-3">
        <rect x="75.4" y="21.07" width="7.46" height="105.36"/>
      </g>
    </mask>
    <filter id="luminosity-noclip-2" x="68.79" y="17.98" width="8.69" height="105.36" color-interpolation-filters="sRGB" filterUnits="userSpaceOnUse">
      <feFlood flood-color="#fff" result="bg"/>
      <feBlend in="SourceGraphic" in2="bg"/>
    </filter>
    <mask id="mask-1" x="68.79" y="17.98" width="8.69" height="105.36" maskUnits="userSpaceOnUse">
      <g class="cls-17">
        <rect x="70.02" y="17.98" width="7.46" height="105.36"/>
      </g>
    </mask>
    <filter id="luminosity-noclip-3" x="94.43" y="23.02" width="8.69" height="105.36" color-interpolation-filters="sRGB" filterUnits="userSpaceOnUse">
      <feFlood flood-color="#fff" result="bg"/>
      <feBlend in="SourceGraphic" in2="bg"/>
    </filter>
    <mask id="mask-2" x="94.43" y="23.02" width="8.69" height="105.36" maskUnits="userSpaceOnUse">
      <g class="cls-15">
        <rect x="94.43" y="23.02" width="7.46" height="105.36" transform="translate(196.31 151.4) rotate(-180)"/>
      </g>
    </mask>
    <filter id="luminosity-noclip-4" x="100.78" y="21.12" width="8.69" height="105.36" color-interpolation-filters="sRGB" filterUnits="userSpaceOnUse">
      <feFlood flood-color="#fff" result="bg"/>
      <feBlend in="SourceGraphic" in2="bg"/>
    </filter>
    <mask id="mask-3" x="100.78" y="21.12" width="8.69" height="105.36" maskUnits="userSpaceOnUse">
      <g class="cls-16">
        <rect x="100.78" y="21.12" width="7.46" height="105.36" transform="translate(209.01 147.59) rotate(-180)"/>
      </g>
    </mask>
  </defs>
  <g id="Text">
    <g>
      <g>
        <g>
          <path class="cls-26" d="M41.77,47.87c-.07-.07-.15-.1-.24-.11,0-.03.02-.06.02-.09.02-.09.05-.21.02-.31.09-.02.18-.09.22-.17.1-.2-.05-.38-.24-.44.01-.02.02-.03.02-.06.02-.08,0-.18-.04-.26.23-.15.27-.57.14-.78,0,0,0,0,0,0,.08-.12.03-.31-.04-.42-.03-.05-.07-.09-.11-.13-.03-.08-.09-.11-.16-.11.04-.05.05-.13.03-.21-.04-.2-.22-.26-.39-.26,0-.07-.01-.13-.04-.17.11-.05.19-.14.16-.28-.03-.17-.16-.22-.29-.2.09-.09.16-.21.17-.33.01-.15-.09-.2-.21-.18.1-.1.14-.23.05-.37-.06-.09-.15-.13-.24-.14,0-.03,0-.05-.02-.08-.03-.09-.08-.17-.17-.21-.01,0-.02,0-.03,0-.03-.06-.09-.11-.2-.13-.16-.03-.23.11-.25.28-.03,0-.05,0-.08,0-.05-.1-.12-.17-.23-.13-.05.02-.09.05-.11.08-.11.03-.24.13-.34.24-.21-.06-.36.08-.41.27-.12-.06-.27-.05-.39.06-.03.03-.07.11-.1.2-.02,0-.03-.02-.05-.02-.26-.05-.41.18-.44.41-.1,0-.21.07-.28.18-.07-.05-.17-.06-.29,0-.1.04-.19.15-.23.26-.19-.03-.45.09-.53.31-.06-.02-.14,0-.22.08-.03.03-.06.06-.08.1-.02,0-.03,0-.05,0-.1,0-.21.07-.28.17-.05-.04-.11-.05-.17-.03-.08.02-.14.07-.18.12-.04-.02-.08-.02-.15,0-.12.03-.17.1-.19.18-.11-.06-.24-.08-.37-.02-.3.15-.11.33.1.44-.02.03-.03.06-.02.09-.1.05-.13.19-.06.28-.02.16.04.26.15.31-.09.1-.09.27.02.38-.06.08-.07.19,0,.25-.09.1-.09.28.03.39v.04c-.18.12-.2.39-.05.53-.1.11-.13.29-.02.39,0,.04,0,.07.01.11-.12.1-.2.32-.06.43-.01.04-.02.09-.02.14-.03,0-.07,0-.07.04-.02.09-.07.35.04.42.01.04.03.09.07.12-.13.1-.19.34-.03.45-.04.04-.06.11-.04.16,0,.02.01.03.02.04,0,.03.01.06.03.08-.06.09-.09.22-.04.31-.13.07-.18.26-.1.39-.11.11-.19.29-.12.44-.04.12-.06.27-.05.37,0,.03.01.05.04.06-.06.08-.1.17-.13.28,0,.03,0,.07.04.07.07.01.14,0,.2-.02.05.14.16.25.28.33.09.06.21.09.31.05.11-.04.17-.15.2-.26.16.08.35.15.53.13.06,0,.11-.03.15-.06.03,0,.05.02.08.02.2.04.35-.04.43-.18,0,0,.01,0,.02,0,.06.13.21.22.37.22.28-.01.32-.3.35-.53.03-.02.05-.04.07-.06.14.07.3.08.44.03.12-.05.15-.13.14-.23.21.12.57.05.61-.18.01,0,.03.01.04.02.03.02.07.03.1.05,0,0,.02,0,.03,0,.13.16.34.23.49.04.04-.05.07-.1.09-.16.16-.02.19-.24.19-.41.06.09.17.13.3.06.14-.07.2-.21.18-.35.1.08.25.09.37.03.15-.07.21-.19.18-.32.05.05.11.08.19.07.1-.01.16-.11.19-.2.04-.11.04-.23,0-.33.08-.07.13-.18.15-.28,0-.06,0-.12,0-.18.09-.04.15-.12.15-.26,0-.05-.02-.12-.04-.17.02-.01.04-.03.06-.05.11-.11.1-.28.04-.4.38.11.74-.38.42-.69Z"/>
          <path class="cls-5" d="M40.34,42.63c.02-.06,0-.14-.06-.21-.07-.07-.17-.1-.27-.08-.01-.02-.03-.04-.04-.06.09-.04.17-.1.19-.19.04-.18-.17-.18-.34-.16.08-.04.16-.1.22-.17,0,0,0-.02,0-.03-.14-.15-.36-.15-.56-.11.09-.07.13-.17,0-.28-.12-.12-.29-.16-.46-.15,0,0,0-.01-.01-.02-.06-.08-.18-.17-.29-.21,0-.11-.06-.25-.13-.34-.08-.1-.2-.2-.33-.22-.06,0-.12,0-.17.04-.02-.06-.05-.11-.08-.15-.07-.09-.18-.17-.3-.18-.04,0-.08,0-.11.01-.02-.07-.05-.14-.1-.19-.07-.09-.17-.18-.29-.2-.1-.01-.18.05-.23.13-.06-.25-.26-.41-.54-.35-.09.02-.24.09-.3.18-.11-.27-.34-.51-.65-.47-.15.02-.33.12-.4.24-.03,0-.07,0-.1.02-.04-.08-.13-.08-.21-.03-.3-.11-.61-.1-.6.26-.17-.22-.41-.45-.7-.29-.1.06-.2.17-.23.28-.12-.12-.29-.17-.47-.14-.19.03-.3.16-.3.32-.13-.13-.33-.15-.51-.04-.18.11-.25.28-.21.45-.25-.13-.63.18-.63.45-.11-.05-.26-.05-.35,0-.27.12-.32.4-.29.66-.15-.17-.36-.15-.5.04-.08.1-.12.23-.12.36-.19-.13-.45-.13-.63.07-.14.15-.12.38-.09.57.01.08.04.15.07.23,0,.01,0,.02,0,.04,0,0,0,0,0,0-.11.01-.19.06-.24.2-.05.17.06.36.21.48-.12,0-.23.04-.31.15-.01.02-.03.05-.03.07-.04.02-.09.05-.12.09-.09.1-.1.21-.05.3-.07,0-.14.04-.17.14-.05.16.07.27.2.31-.1.04-.16.14-.16.26,0,.06.02.1.05.13-.04.04-.06.08-.08.14,0,.02-.01.04-.02.06-.29.1-.54.61-.28.82,0,0,.01.01.02.02-.05.07-.09.15-.12.22-.02.05-.03.09-.03.14-.28.06-.34.4-.26.67.04.12.1.25.2.35-.09.2-.01.52.09.67,0,0,0,.01.01.02-.07.09-.12.22-.14.32-.04.15.03.32.09.46.03.06.07.14.12.2-.02.03-.04.05-.05.08-.09.18-.04.39.05.55.03.05.07.1.12.14-.01.02-.02.04-.02.07-.03.18.14.4.32.48,0,.1.01.21.03.3.03.15.16.28.31.34,0,0,0,.02,0,.02-.07.18-.06.32.06.48.05.06.17.16.29.23.01.25.3.41.55.37.05.05.11.09.2.11.1.03.24.02.31-.05.03.08.1.14.2.16.11.02.19-.02.23-.1.07.1.23.13.36.11.05,0,.11-.02.16-.05.08.14.28.22.44.24.13.01.29,0,.38-.11.05-.06.06-.12.06-.19.08.06.19.09.31.08,0,0,.02,0,.02,0,0,.14.1.26.28.3.1.02.22,0,.3-.06.02-.02.03-.03.05-.05.06.07.17.11.29.11.07,0,.15-.03.2-.07.04.12.17.2.34.2.23,0,.41-.15.46-.36.07.07.21.07.33.02.07-.03.12-.06.17-.11.02,0,.03-.01.05-.02.07-.04.13-.1.17-.18.13-.04.25-.15.28-.27.02-.09-.03-.14-.11-.17.05-.05.09-.13.11-.19.04-.12.06-.28,0-.38.1-.05.18-.2.21-.32.05-.18.03-.4-.09-.52.06,0,.11-.02.16-.07.1-.1.1-.28.09-.41,0-.07-.04-.23-.1-.34.31-.1.3-.7.05-.87.12-.05.18-.18.18-.34,0-.03,0-.07,0-.1.02,0,.05-.02.07-.04.15-.13.19-.35.19-.55.1.13.28.01.38-.1.15-.19.17-.45.04-.64.35.03.43-.39.3-.67.32.13.48-.33.32-.58.42.06.68-.43.6-.8,0,0,0,0,0,0,.37.21.72-.05.83-.4.07-.08.1-.2.06-.33,0,0,0,0,0,0,.28.13.62.03.86-.14.15-.11.25-.28.19-.41.04,0,.08-.03.12-.07,0,0,.02-.02.02-.03.14.02.29-.11.3-.22.11-.01.16-.23.08-.31Z"/>
          <path class="cls-29" d="M40.34,42.63c.02-.06,0-.14-.06-.21-.07-.07-.17-.1-.27-.08-.01-.02-.03-.04-.04-.06.09-.04.17-.1.19-.19.04-.18-.17-.18-.34-.16.08-.04.16-.1.22-.17,0,0,0-.02,0-.03-.14-.15-.36-.15-.56-.11.09-.07.13-.17,0-.28-.12-.12-.29-.16-.46-.15,0,0,0-.01-.01-.02-.06-.08-.18-.17-.29-.21,0-.11-.06-.25-.13-.34-.08-.1-.2-.2-.33-.22-.06,0-.12,0-.17.04-.02-.06-.05-.11-.08-.15-.07-.09-.18-.17-.3-.18-.04,0-.08,0-.11.01-.02-.07-.05-.14-.1-.19-.07-.09-.17-.18-.29-.2-.1-.01-.18.05-.23.13-.06-.25-.26-.41-.54-.35-.09.02-.24.09-.3.18-.11-.27-.34-.51-.65-.47-.15.02-.33.12-.4.24-.03,0-.07,0-.1.02-.04-.08-.13-.08-.21-.03-.3-.11-.61-.1-.6.26-.17-.22-.41-.45-.7-.29-.1.06-.2.17-.23.28-.12-.12-.29-.17-.47-.14-.19.03-.3.16-.3.32-.13-.13-.33-.15-.51-.04-.18.11-.25.28-.21.45-.25-.13-.63.18-.63.45-.11-.05-.26-.05-.35,0-.27.12-.32.4-.29.66-.15-.17-.36-.15-.5.04-.08.1-.12.23-.12.36-.19-.13-.45-.13-.63.07-.14.15-.12.38-.09.57.01.08.04.15.07.23,0,.01,0,.02,0,.04,0,0,0,0,0,0-.11.01-.19.06-.24.2-.05.17.06.36.21.48-.12,0-.23.04-.31.15,0,0,0,0,0,.01.02.01.04.02.05.04.09.05.23.09.32.03.03-.02.05-.05.06-.08.04.06.1.11.19.12.21.03.29-.17.29-.35.1.16.29.17.46.08.01,0,.02-.01.03-.02.13.11.31.16.47.05.12-.07.16-.23.17-.36.02,0,.04,0,.06,0,.15-.03.31-.1.4-.22,0,0,0,0,0,0,.04.02.08.04.13.04.12.01.21-.05.27-.14.03-.05.06-.12.07-.19.17-.06.33-.2.43-.36.11.23.32.43.58.29.11-.06.17-.19.19-.33.17-.08.31-.22.38-.39.16.16.37.29.53.11.02-.02.03-.03.04-.06.03,0,.06,0,.08,0,.04,0,.09,0,.13-.02,0,.19.03.37.19.42.16.05.28-.11.34-.23,0-.02.02-.04.02-.06.08,0,.16-.04.23-.09.07.19.22.32.46.25.07-.02.14-.08.18-.16.22.16.55.22.79.15,0,.14.04.26.2.24.12-.02.18-.17.21-.27,0,0,0-.02,0-.03.11.08.27.11.4.06.04.06.09.11.15.15.08.05.16.04.23,0,.08.06.18.1.27.13.05.01.11.02.16.01-.05.21-.02.43.25.44.18,0,.32-.11.41-.26.04,0,.09-.01.13-.03,0,.04.02.08.03.11.03.1.13.2.24.15.11-.05.15-.17.18-.28.06.09.14.15.26.18.22.06.39-.08.49-.26.02.16.15.24.31.26,0-.01-.01-.02-.02-.03Z"/>
        </g>
        <g>
          <path class="cls-26" d="M35.05,54.54c-.07-.06-.15-.1-.24-.11,0-.03.01-.06.02-.09.02-.09.05-.21.02-.31.09-.02.18-.09.22-.17.1-.2-.05-.38-.24-.44.01-.02.02-.03.02-.06.02-.08,0-.18-.04-.26.23-.15.27-.56.14-.77,0,0,0,0,0,0,.08-.12.03-.31-.04-.42-.03-.05-.07-.09-.11-.13-.03-.08-.09-.11-.16-.11.04-.05.05-.12.03-.21-.04-.19-.22-.26-.39-.26,0-.07-.01-.13-.04-.16.11-.05.18-.14.16-.28-.02-.17-.16-.22-.29-.2.09-.09.16-.21.17-.33.01-.15-.09-.2-.21-.18.1-.1.13-.23.05-.37-.06-.09-.15-.13-.24-.14,0-.03,0-.05-.02-.08-.03-.09-.08-.17-.17-.21-.01,0-.02,0-.03,0-.03-.06-.09-.11-.2-.13-.16-.03-.23.11-.25.28-.03,0-.05,0-.08,0-.05-.1-.12-.17-.23-.13-.05.02-.09.05-.11.08-.11.03-.24.13-.34.24-.21-.06-.36.08-.41.27-.12-.06-.27-.05-.39.06-.03.03-.07.11-.09.2-.02,0-.03-.01-.05-.02-.26-.05-.41.18-.44.41-.1,0-.21.06-.27.18-.07-.05-.17-.06-.29,0-.1.04-.19.15-.23.26-.19-.03-.45.09-.53.3-.06-.02-.14,0-.22.08-.03.03-.06.06-.08.1-.02,0-.03,0-.05,0-.1,0-.21.07-.28.17-.05-.04-.11-.05-.17-.03-.08.02-.14.07-.18.12-.04-.02-.08-.02-.15,0-.12.03-.17.1-.19.18-.1-.06-.24-.08-.37-.02-.3.15-.11.33.1.44-.02.03-.03.06-.02.09-.1.05-.13.19-.06.28-.02.16.04.25.15.31-.09.1-.09.27.02.37-.06.08-.07.19,0,.25-.09.1-.09.28.03.39v.04c-.18.12-.2.39-.05.53-.1.1-.13.29-.02.39,0,.04,0,.07.01.11-.12.1-.2.32-.06.43-.01.04-.02.09-.02.14-.03,0-.07,0-.07.04-.02.09-.07.35.04.42,0,.04.03.09.07.12-.13.1-.19.33-.03.45-.04.04-.05.1-.04.16,0,.02.01.03.02.04,0,.03.01.06.03.08-.06.09-.09.22-.04.31-.13.07-.18.26-.1.39-.11.11-.19.29-.12.43-.04.12-.06.27-.05.36,0,.03.02.05.04.06-.06.08-.1.17-.13.28,0,.03,0,.07.04.07.07.01.14,0,.2-.02.05.13.16.25.28.33.09.06.21.09.31.05.11-.04.17-.15.2-.26.16.08.34.15.53.13.06,0,.11-.03.15-.06.02,0,.05.02.07.02.2.04.35-.04.43-.18,0,0,.01,0,.02,0,.06.13.2.22.36.21.28-.01.32-.3.34-.53.03-.02.05-.04.07-.06.13.07.3.08.44.03.12-.05.15-.13.14-.23.21.12.57.05.61-.18.01,0,.03.01.04.02.03.02.07.03.1.05,0,0,.02,0,.03,0,.13.16.34.23.49.04.04-.05.07-.1.09-.16.16-.02.19-.24.19-.41.06.09.17.13.3.06.14-.07.2-.21.18-.35.1.08.25.09.37.03.15-.07.21-.19.18-.32.05.05.11.07.19.07.1-.01.16-.11.19-.2.04-.11.04-.23,0-.33.08-.07.13-.18.15-.28,0-.06,0-.12,0-.18.09-.04.16-.12.15-.26,0-.05-.02-.11-.04-.17.02-.01.04-.03.06-.05.11-.11.1-.28.04-.4.38.11.74-.38.42-.69Z"/>
          <path class="cls-5" d="M33.62,49.33c.02-.06,0-.14-.06-.21-.07-.07-.17-.1-.27-.08,0-.02-.02-.04-.04-.06.09-.04.17-.1.19-.19.04-.18-.18-.18-.34-.16.08-.04.16-.1.22-.17,0,0,0-.02,0-.03-.14-.15-.36-.15-.56-.11.09-.07.12-.17,0-.28-.12-.11-.29-.16-.45-.14,0,0,0-.01-.01-.02-.06-.08-.18-.17-.29-.21,0-.11-.06-.24-.13-.34-.08-.1-.2-.2-.33-.21-.06,0-.12,0-.17.04-.02-.06-.05-.11-.08-.15-.07-.09-.18-.17-.3-.18-.04,0-.08,0-.11.01-.02-.07-.05-.14-.1-.19-.07-.09-.17-.18-.29-.2-.1-.01-.18.05-.22.13-.06-.25-.26-.41-.54-.35-.09.02-.24.09-.3.18-.11-.27-.34-.51-.65-.46-.15.02-.33.12-.4.24-.03,0-.07,0-.1.02-.04-.08-.13-.08-.21-.03-.3-.11-.61-.1-.6.26-.17-.22-.41-.45-.7-.28-.1.06-.2.17-.23.28-.12-.12-.29-.17-.47-.14-.19.03-.3.16-.3.32-.13-.13-.33-.15-.51-.04-.18.11-.24.28-.21.45-.24-.13-.62.18-.63.45-.11-.05-.26-.05-.35,0-.27.11-.32.4-.29.66-.15-.17-.35-.15-.5.04-.08.1-.12.23-.12.36-.19-.13-.45-.13-.62.07-.14.15-.12.38-.09.56.01.08.03.15.07.23,0,.01,0,.02,0,.04,0,0,0,0,0,0-.1.01-.19.06-.24.2-.05.17.06.36.21.47-.12,0-.23.04-.31.15-.01.02-.03.04-.03.07-.04.02-.08.05-.12.09-.09.1-.1.21-.05.29-.07,0-.14.04-.17.14-.05.16.07.26.2.31-.1.04-.16.14-.16.25,0,.06.02.1.05.13-.04.04-.06.08-.08.14,0,.02-.01.04-.02.06-.29.1-.54.61-.28.82,0,0,.01.01.02.02-.05.07-.09.15-.12.22-.02.05-.03.09-.03.14-.28.06-.34.4-.26.67.04.12.1.25.2.35-.09.2-.01.52.09.66,0,0,0,.01.01.02-.07.09-.12.22-.14.31-.04.15.03.32.09.45.03.06.07.14.12.2-.02.03-.04.05-.05.08-.09.18-.04.39.05.55.03.05.07.1.12.14-.01.02-.02.04-.02.07-.03.18.14.39.32.48,0,.1.01.21.03.3.03.15.16.28.31.34,0,0,0,.01,0,.02-.07.18-.06.32.06.48.05.06.17.16.29.23.01.25.3.41.55.37.04.05.11.09.2.11.1.03.24.02.31-.04.03.08.1.14.2.16.11.02.19-.02.23-.1.07.1.23.12.36.11.05,0,.11-.02.16-.05.08.14.28.22.44.24.13.02.29,0,.38-.11.05-.06.06-.12.06-.19.08.06.19.09.31.08,0,0,.02,0,.02,0,0,.14.1.26.28.3.1.02.22,0,.3-.06.02-.02.03-.03.05-.05.06.07.17.11.29.11.07,0,.14-.03.2-.07.04.12.17.2.34.2.23,0,.41-.15.46-.36.07.07.21.07.32.02.07-.03.12-.06.17-.11.02,0,.03-.01.05-.02.07-.04.13-.1.17-.18.13-.04.25-.15.28-.27.02-.09-.03-.14-.11-.17.05-.05.09-.13.11-.19.04-.12.06-.27,0-.38.1-.05.18-.19.21-.32.05-.18.03-.39-.09-.52.06,0,.11-.02.16-.07.1-.1.1-.28.09-.41,0-.07-.04-.23-.1-.34.31-.1.3-.69.05-.87.12-.05.18-.18.18-.34,0-.03,0-.07,0-.1.02,0,.05-.02.07-.04.15-.13.19-.35.19-.55.1.13.28.01.38-.1.15-.19.17-.44.04-.64.35.03.43-.39.3-.66.32.12.48-.32.32-.58.42.06.68-.42.6-.8,0,0,0,0,0,0,.37.21.72-.05.83-.4.07-.08.1-.2.06-.33,0,0,0,0,0,0,.28.13.62.03.85-.14.15-.11.25-.27.18-.41.04,0,.08-.03.12-.07,0,0,.02-.02.02-.03.14.02.28-.11.3-.22.11,0,.16-.23.08-.31Z"/>
          <path class="cls-29" d="M33.62,49.33c.02-.06,0-.14-.06-.21-.07-.07-.17-.1-.27-.08,0-.02-.02-.04-.04-.06.09-.04.17-.1.19-.19.04-.18-.18-.18-.34-.16.08-.04.16-.1.22-.17,0,0,0-.02,0-.03-.14-.15-.36-.15-.56-.11.09-.07.12-.17,0-.28-.12-.11-.29-.16-.45-.14,0,0,0-.01-.01-.02-.06-.08-.18-.17-.29-.21,0-.11-.06-.24-.13-.34-.08-.1-.2-.2-.33-.21-.06,0-.12,0-.17.04-.02-.06-.05-.11-.08-.15-.07-.09-.18-.17-.3-.18-.04,0-.08,0-.11.01-.02-.07-.05-.14-.1-.19-.07-.09-.17-.18-.29-.2-.1-.01-.18.05-.22.13-.06-.25-.26-.41-.54-.35-.09.02-.24.09-.3.18-.11-.27-.34-.51-.65-.46-.15.02-.33.12-.4.24-.03,0-.07,0-.1.02-.04-.08-.13-.08-.21-.03-.3-.11-.61-.1-.6.26-.17-.22-.41-.45-.7-.28-.1.06-.2.17-.23.28-.12-.12-.29-.17-.47-.14-.19.03-.3.16-.3.32-.13-.13-.33-.15-.51-.04-.18.11-.24.28-.21.45-.24-.13-.62.18-.63.45-.11-.05-.26-.05-.35,0-.27.11-.32.4-.29.66-.15-.17-.35-.15-.5.04-.08.1-.12.23-.12.36-.19-.13-.45-.13-.62.07-.14.15-.12.38-.09.56.01.08.03.15.07.23,0,.01,0,.02,0,.04,0,0,0,0,0,0-.1.01-.19.06-.24.2-.05.17.06.36.21.47-.12,0-.23.04-.31.15,0,0,0,0,0,.01.02.01.04.03.05.04.09.05.22.09.32.03.03-.02.05-.05.06-.08.04.06.1.11.19.12.21.03.29-.17.29-.34.1.16.29.17.46.08.01,0,.02-.01.03-.02.13.11.31.15.47.05.12-.07.16-.23.17-.36.02,0,.04,0,.06,0,.15-.03.31-.1.4-.22,0,0,0,0,0,0,.04.02.08.04.13.04.11.01.21-.05.27-.14.04-.05.06-.12.07-.19.17-.06.33-.2.43-.36.11.23.32.43.58.29.11-.06.17-.19.19-.33.17-.08.31-.22.38-.39.16.16.37.29.53.11.01-.02.03-.03.04-.06.03,0,.06,0,.08,0,.04,0,.08,0,.13-.02,0,.19.03.37.19.42.16.05.28-.11.34-.23,0-.02.01-.04.02-.06.08,0,.16-.04.23-.09.07.19.22.32.46.25.07-.02.14-.08.18-.16.22.16.55.22.79.15,0,.14.04.26.2.24.12-.02.18-.17.21-.27,0,0,0-.02,0-.03.11.08.27.11.39.06.04.06.09.11.15.15.08.05.16.04.23,0,.08.06.18.1.27.13.05.01.11.02.16.01-.05.21-.02.43.25.44.18,0,.32-.11.41-.26.04,0,.09-.01.13-.03,0,.04.02.08.03.11.03.1.13.2.24.15.1-.05.15-.17.17-.28.06.09.14.15.26.18.22.06.39-.08.49-.26.02.16.15.24.31.26,0-.01-.01-.02-.02-.03Z"/>
        </g>
        <g>
          <path class="cls-26" d="M47.45,53.08c-.06-.05-.13-.08-.2-.09,0-.02.01-.05.02-.08.02-.08.04-.17.02-.25.07-.02.15-.07.18-.14.08-.16-.04-.31-.2-.36,0-.01.02-.03.02-.05.02-.07,0-.15-.03-.22.19-.12.22-.46.11-.64,0,0,0,0,0,0,.06-.1.02-.25-.03-.35-.02-.04-.05-.08-.09-.1-.02-.06-.08-.09-.14-.09.03-.04.04-.1.03-.17-.03-.16-.18-.21-.32-.22,0-.05,0-.1-.04-.14.09-.04.15-.12.13-.23-.02-.14-.13-.18-.24-.16.08-.07.13-.17.14-.27.01-.13-.07-.16-.17-.15.08-.08.11-.19.04-.3-.05-.07-.12-.11-.2-.12,0-.02,0-.04-.01-.07-.02-.07-.07-.14-.14-.17,0,0-.02,0-.03,0-.02-.05-.07-.09-.17-.11-.14-.02-.19.09-.2.23-.02,0-.04,0-.06,0-.04-.08-.1-.14-.19-.11-.04.02-.07.04-.09.07-.09.03-.2.1-.28.19-.17-.05-.3.07-.34.22-.1-.05-.22-.04-.32.05-.03.02-.06.09-.08.16-.01,0-.03-.01-.04-.01-.21-.04-.34.15-.36.34-.08,0-.18.05-.23.15-.06-.04-.14-.05-.24,0-.08.04-.16.12-.19.22-.15-.02-.37.07-.44.25-.05-.02-.11,0-.18.06-.03.03-.05.05-.07.08-.01,0-.03,0-.04,0-.08,0-.17.06-.23.14-.04-.03-.09-.04-.14-.03-.07.02-.12.06-.15.1-.03-.02-.07-.02-.12,0-.1.03-.14.08-.16.15-.09-.05-.2-.06-.3-.01-.25.12-.09.27.08.36-.02.03-.02.05-.02.08-.08.04-.11.16-.05.23-.02.13.03.21.12.26-.07.08-.07.22.02.31-.05.06-.06.15,0,.21-.07.08-.07.23.02.32v.03c-.15.1-.17.32-.04.44-.08.09-.11.24-.01.32,0,.03,0,.06,0,.09-.1.08-.17.27-.05.35-.01.03-.01.07-.01.12-.02,0-.05,0-.06.03-.02.08-.06.28.03.35,0,.04.03.07.06.1-.11.08-.16.28-.02.37-.03.04-.05.09-.03.13,0,.01,0,.02.02.04,0,.03.01.05.02.06-.05.08-.07.18-.03.25-.11.06-.15.22-.08.32-.09.09-.16.24-.1.36-.04.1-.05.23-.04.3,0,.02.01.04.03.05-.05.06-.08.14-.11.23,0,.02,0,.05.03.06.05.01.11,0,.17-.01.04.11.13.21.23.27.08.05.17.07.26.04.09-.03.14-.13.16-.21.13.06.28.12.43.1.05,0,.09-.02.12-.05.02,0,.04.01.06.02.16.03.29-.03.35-.15,0,0,.01,0,.02,0,.05.11.17.18.3.18.23-.01.27-.24.28-.44.02-.01.04-.03.06-.05.11.06.25.07.36.02.1-.04.12-.11.11-.19.17.1.47.04.5-.15.01,0,.02.01.04.01.03.02.05.03.08.04,0,0,.02,0,.02,0,.1.13.28.19.41.04.03-.04.06-.08.07-.13.13-.02.15-.2.16-.34.05.08.14.11.25.05.11-.06.16-.17.15-.29.08.07.21.07.31.03.12-.06.18-.16.15-.26.04.04.09.06.15.05.08-.01.13-.09.16-.16.04-.09.03-.19,0-.27.07-.06.11-.15.12-.23,0-.05,0-.1,0-.15.08-.03.13-.1.12-.21,0-.04-.01-.09-.04-.14.02,0,.04-.02.05-.04.09-.09.09-.23.03-.33.31.09.61-.31.35-.57Z"/>
          <path class="cls-5" d="M46.28,48.79c.02-.05,0-.12-.05-.17-.06-.06-.14-.08-.22-.07,0-.02-.02-.03-.04-.05.08-.03.14-.08.16-.16.03-.14-.14-.15-.28-.13.07-.04.13-.08.18-.14,0,0,0-.02,0-.02-.12-.12-.29-.13-.46-.09.07-.06.1-.14,0-.23-.1-.09-.24-.13-.37-.12,0,0,0,0-.01-.01-.05-.06-.15-.14-.24-.17,0-.09-.05-.2-.11-.28-.07-.08-.17-.17-.28-.18-.05,0-.1,0-.14.03-.02-.05-.04-.09-.07-.12-.06-.08-.15-.14-.25-.15-.03,0-.06,0-.09.01-.02-.06-.04-.11-.08-.16-.06-.07-.14-.15-.24-.16-.09,0-.15.04-.19.11-.05-.21-.22-.33-.44-.29-.07.01-.2.07-.25.15-.09-.22-.28-.42-.53-.38-.13.02-.28.1-.33.2-.03,0-.06,0-.08.01-.04-.06-.11-.06-.18-.02-.24-.09-.5-.08-.49.21-.14-.18-.34-.37-.57-.23-.08.05-.16.14-.19.23-.1-.1-.23-.14-.39-.12-.16.03-.25.14-.25.26-.1-.11-.27-.13-.42-.03-.15.09-.2.23-.17.37-.2-.11-.51.15-.52.37-.09-.04-.21-.04-.29,0-.22.09-.26.33-.24.54-.12-.14-.29-.12-.41.04-.06.08-.1.19-.1.29-.15-.1-.37-.1-.51.05-.11.13-.1.31-.07.46.01.06.03.13.06.19,0,0,0,.02,0,.03,0,0,0,0,0,0-.09,0-.16.05-.19.16-.04.14.05.29.17.39-.1,0-.19.03-.26.12-.01.02-.02.04-.03.06-.03.02-.07.04-.1.07-.07.08-.08.17-.04.24-.06,0-.11.03-.14.11-.04.13.06.22.17.25-.08.03-.13.11-.13.21,0,.05.02.08.04.11-.03.03-.05.07-.07.11,0,.02-.01.04-.01.05-.24.09-.44.5-.23.67,0,0,.01,0,.02.01-.04.05-.07.12-.1.18-.01.04-.02.08-.02.11-.23.05-.28.33-.21.55.03.1.08.21.16.29-.07.16,0,.43.07.55,0,0,0,0,0,.01-.06.08-.1.18-.12.26-.03.12.02.26.07.37.02.05.06.11.1.16-.02.02-.03.04-.04.07-.07.15-.04.32.04.45.02.04.06.08.1.11,0,.02-.02.04-.02.05-.03.15.11.33.26.4,0,.08.01.17.03.24.03.12.13.23.25.28,0,0,0,.01,0,.02-.06.15-.05.26.05.39.04.05.14.13.24.19,0,.2.25.34.45.31.04.04.09.07.16.09.09.02.2.01.26-.04.02.06.08.11.16.13.09.02.15-.02.19-.08.05.08.19.1.3.09.04,0,.09-.02.13-.04.06.11.23.18.36.2.11.01.24,0,.31-.09.04-.04.05-.1.05-.16.07.05.16.07.25.07,0,0,.01,0,.02,0,0,.12.08.22.23.25.08.02.18,0,.25-.05.02-.01.03-.03.04-.04.05.06.14.09.24.09.06,0,.12-.02.17-.06.04.1.14.17.28.17.19,0,.34-.13.38-.29.06.06.17.06.27.02.05-.02.1-.05.14-.09.01,0,.03-.01.04-.02.06-.03.11-.09.14-.15.1-.03.21-.12.23-.22.02-.08-.03-.12-.09-.14.04-.04.07-.1.09-.15.04-.09.05-.23,0-.31.08-.04.15-.16.18-.26.04-.15.02-.32-.07-.43.05,0,.09-.02.13-.06.08-.08.08-.23.08-.34,0-.06-.03-.19-.08-.28.26-.08.24-.57.04-.71.1-.04.15-.15.15-.28,0-.03,0-.06,0-.08.02,0,.04-.02.06-.03.13-.1.16-.29.16-.45.08.1.23.01.31-.08.12-.16.14-.37.03-.53.29.03.35-.32.24-.55.26.1.4-.27.26-.48.34.05.56-.35.49-.66,0,0,0,0,0,0,.3.17.59-.04.69-.33.06-.07.08-.16.05-.27,0,0,0,0,0,0,.23.11.51.03.7-.11.12-.09.2-.23.15-.34.03,0,.07-.03.1-.06,0,0,.01-.02.02-.02.11.02.24-.09.25-.18.09,0,.13-.19.07-.26Z"/>
          <path class="cls-29" d="M46.28,48.79c.02-.05,0-.12-.05-.17-.06-.06-.14-.08-.22-.07,0-.02-.02-.03-.04-.05.08-.03.14-.08.16-.16.03-.14-.14-.15-.28-.13.07-.04.13-.08.18-.14,0,0,0-.02,0-.02-.12-.12-.29-.13-.46-.09.07-.06.1-.14,0-.23-.1-.09-.24-.13-.37-.12,0,0,0,0-.01-.01-.05-.06-.15-.14-.24-.17,0-.09-.05-.2-.11-.28-.07-.08-.17-.17-.28-.18-.05,0-.1,0-.14.03-.02-.05-.04-.09-.07-.12-.06-.08-.15-.14-.25-.15-.03,0-.06,0-.09.01-.02-.06-.04-.11-.08-.16-.06-.07-.14-.15-.24-.16-.09,0-.15.04-.19.11-.05-.21-.22-.33-.44-.29-.07.01-.2.07-.25.15-.09-.22-.28-.42-.53-.38-.13.02-.28.1-.33.2-.03,0-.06,0-.08.01-.04-.06-.11-.06-.18-.02-.24-.09-.5-.08-.49.21-.14-.18-.34-.37-.57-.23-.08.05-.16.14-.19.23-.1-.1-.23-.14-.39-.12-.16.03-.25.14-.25.26-.1-.11-.27-.13-.42-.03-.15.09-.2.23-.17.37-.2-.11-.51.15-.52.37-.09-.04-.21-.04-.29,0-.22.09-.26.33-.24.54-.12-.14-.29-.12-.41.04-.06.08-.1.19-.1.29-.15-.1-.37-.1-.51.05-.11.13-.1.31-.07.46.01.06.03.13.06.19,0,0,0,.02,0,.03,0,0,0,0,0,0-.09,0-.16.05-.19.16-.04.14.05.29.17.39-.1,0-.19.03-.26.12,0,0,0,0,0,0,.01.01.03.02.05.03.08.04.19.08.27.03.03-.02.04-.04.05-.06.03.05.09.09.16.1.17.02.24-.14.24-.28.08.13.24.14.38.07,0,0,.02,0,.02-.01.1.09.25.13.39.04.1-.06.13-.19.14-.3.02,0,.03,0,.05,0,.12-.02.25-.08.33-.18,0,0,0,0,0,0,.03.02.07.03.1.04.1,0,.17-.04.22-.12.03-.04.05-.1.06-.16.14-.05.27-.16.35-.3.09.19.26.35.48.24.09-.05.14-.16.15-.27.14-.07.26-.18.31-.32.13.13.3.24.44.09.01-.01.02-.03.03-.05.02,0,.05,0,.07,0,.03,0,.07,0,.11-.01,0,.15.02.3.16.34.13.04.23-.09.28-.19,0-.02.01-.03.02-.05.07,0,.13-.03.19-.07.06.15.19.26.38.21.06-.02.11-.07.15-.13.18.13.45.18.65.12,0,.12.04.21.16.2.1-.01.15-.14.17-.22,0,0,0-.02,0-.02.09.07.22.09.32.05.03.05.07.09.12.12.07.04.13.03.19,0,.07.05.14.09.23.1.04.01.09.01.13.01-.04.17-.01.35.2.36.15,0,.26-.09.33-.21.04,0,.07-.01.1-.02,0,.03.01.06.02.09.03.08.1.16.19.12.09-.04.13-.14.14-.23.05.07.12.13.21.15.18.05.32-.07.4-.21.02.13.12.2.26.22,0-.01-.01-.02-.02-.03Z"/>
        </g>
        <g>
          <path class="cls-26" d="M33.73,64.58c-.06-.06-.14-.09-.22-.1,0-.03.01-.06.02-.08.02-.08.05-.19.02-.28.08-.02.16-.08.2-.16.09-.18-.05-.34-.22-.4,0-.01.02-.03.02-.05.02-.08,0-.16-.04-.24.21-.13.24-.51.12-.7,0,0,0,0,0,0,.07-.11.02-.28-.03-.38-.03-.05-.06-.09-.1-.12-.03-.07-.08-.1-.15-.1.03-.05.05-.11.03-.19-.04-.18-.19-.23-.35-.24,0-.06,0-.12-.04-.15.1-.04.17-.13.15-.25-.02-.15-.14-.2-.27-.18.08-.08.14-.19.15-.3.01-.14-.08-.18-.19-.16.09-.09.12-.21.05-.33-.05-.08-.13-.12-.22-.13,0-.02,0-.05-.02-.07-.02-.08-.08-.16-.16-.19,0,0-.02,0-.03,0-.02-.06-.08-.1-.18-.12-.15-.03-.21.1-.22.25-.02,0-.05,0-.07,0-.04-.09-.11-.16-.21-.12-.04.02-.08.04-.1.07-.1.03-.22.11-.31.21-.19-.06-.33.08-.37.25-.11-.05-.24-.05-.36.05-.03.03-.06.1-.09.18-.02,0-.03-.01-.04-.02-.23-.05-.37.16-.4.37-.09,0-.19.06-.25.16-.07-.04-.16-.05-.26,0-.09.04-.17.14-.21.24-.17-.02-.4.08-.48.28-.06-.02-.12,0-.2.07-.03.03-.05.06-.07.09-.01,0-.03,0-.04,0-.09,0-.19.07-.25.15-.04-.03-.1-.05-.16-.03-.07.02-.13.06-.16.11-.03-.02-.08-.02-.13,0-.1.03-.16.09-.17.16-.1-.06-.22-.07-.33-.01-.27.13-.1.3.09.4-.02.03-.03.06-.02.08-.09.04-.12.17-.06.25-.02.14.04.23.14.28-.08.09-.08.25.02.34-.06.07-.06.17,0,.23-.08.09-.08.26.03.35v.03c-.16.11-.19.35-.04.48-.09.09-.12.26-.02.35,0,.03,0,.07.01.1-.11.09-.18.29-.06.39-.01.04-.02.08-.01.13-.03,0-.06,0-.07.04-.02.08-.06.31.03.38,0,.04.03.08.06.11-.12.09-.17.3-.02.4-.03.04-.05.09-.04.15,0,.01.01.03.02.04,0,.03.01.05.03.07-.06.09-.08.2-.03.28-.12.07-.16.24-.09.35-.1.1-.17.26-.11.39-.04.11-.05.25-.05.33,0,.02.01.04.04.05-.05.07-.09.16-.12.25,0,.03,0,.06.04.06.06.01.12,0,.18-.02.05.12.14.23.25.3.08.05.19.08.28.05.1-.03.15-.14.18-.24.15.07.31.13.48.11.05,0,.1-.03.13-.05.02,0,.05.01.07.02.18.04.32-.04.38-.17,0,0,.01,0,.02,0,.06.12.19.2.33.19.26-.01.29-.27.31-.48.03-.01.05-.03.07-.05.12.06.27.08.4.03.11-.04.13-.12.12-.21.19.1.51.05.55-.17.01,0,.03.01.04.02.03.02.06.03.09.04,0,0,.02,0,.03,0,.12.14.31.21.45.04.04-.04.06-.09.08-.15.14-.02.17-.22.17-.37.06.09.16.12.27.06.13-.06.18-.19.16-.32.09.07.23.08.34.03.13-.06.19-.17.17-.29.05.04.1.07.17.06.09-.01.14-.1.17-.18.04-.1.04-.21,0-.29.07-.06.12-.16.13-.25,0-.05,0-.11,0-.16.08-.03.14-.1.14-.23,0-.05-.02-.1-.04-.16.02,0,.04-.02.06-.04.1-.1.09-.25.04-.36.34.1.67-.34.38-.62Z"/>
          <path class="cls-5" d="M32.44,59.86c.02-.06,0-.13-.06-.19-.07-.07-.16-.09-.24-.08,0-.02-.02-.04-.04-.05.08-.04.15-.09.17-.17.04-.16-.16-.16-.31-.14.08-.04.14-.09.2-.16,0,0,0-.02,0-.02-.13-.13-.32-.14-.51-.1.08-.06.11-.15,0-.26-.1-.1-.26-.14-.41-.13,0,0,0,0-.01-.01-.06-.07-.16-.15-.26-.19,0-.1-.05-.22-.12-.31-.07-.09-.18-.18-.3-.19-.06,0-.11,0-.15.03-.02-.05-.05-.1-.07-.13-.07-.09-.16-.15-.27-.17-.04,0-.07,0-.1.01-.02-.06-.05-.12-.09-.17-.06-.08-.15-.17-.26-.18-.1-.01-.16.04-.2.12-.06-.23-.24-.37-.49-.32-.08.02-.21.08-.27.16-.1-.24-.31-.46-.59-.42-.14.02-.3.11-.36.22-.03,0-.06,0-.09.01-.04-.07-.12-.07-.19-.03-.27-.1-.55-.09-.54.23-.16-.2-.37-.41-.63-.26-.09.05-.18.15-.21.25-.1-.11-.26-.16-.43-.13-.17.03-.27.15-.27.29-.11-.12-.29-.14-.46-.04-.16.1-.22.26-.19.41-.22-.12-.56.16-.57.41-.1-.05-.23-.04-.32,0-.24.1-.29.36-.26.6-.13-.15-.32-.13-.46.04-.07.09-.11.21-.1.32-.17-.12-.41-.11-.57.06-.12.14-.11.34-.08.51.01.07.03.14.06.2,0,.01,0,.02,0,.03,0,0,0,0,0,0-.1.01-.18.06-.21.18-.05.16.05.32.19.43-.11,0-.21.04-.28.13-.01.02-.02.04-.03.06-.04.02-.08.04-.11.08-.08.09-.09.19-.04.27-.07,0-.13.04-.16.12-.05.14.06.24.19.28-.09.04-.14.12-.14.23,0,.05.02.09.05.12-.03.03-.06.08-.08.13,0,.02-.01.04-.01.06-.26.09-.49.55-.25.74,0,0,.01,0,.02.01-.05.06-.08.13-.11.2-.02.04-.02.08-.03.12-.26.06-.31.36-.23.6.03.11.09.23.18.31-.08.18,0,.47.08.6,0,0,0,.01.01.01-.07.08-.11.2-.13.28-.03.13.02.29.08.41.03.06.06.12.11.18-.02.02-.03.05-.05.07-.08.16-.04.35.05.5.03.05.06.09.1.13-.01.02-.02.04-.02.06-.03.17.12.36.29.44,0,.09.01.19.03.27.03.14.15.25.28.3,0,0,0,.01,0,.02-.07.16-.06.29.05.43.04.06.15.15.27.2.01.22.27.37.5.34.04.05.1.08.18.1.09.03.22.02.28-.04.03.07.09.13.18.14.1.02.17-.02.21-.09.06.09.21.11.33.1.05,0,.1-.02.15-.04.07.12.26.2.4.22.12.01.26,0,.34-.1.04-.05.05-.11.05-.17.07.06.17.08.28.07,0,0,.01,0,.02,0,0,.13.09.24.26.27.09.02.2,0,.27-.05.02-.01.03-.03.04-.05.06.07.15.1.26.1.06,0,.13-.02.18-.06.04.11.15.18.31.18.21,0,.37-.14.42-.32.06.06.19.06.29.02.06-.02.11-.06.15-.1.01,0,.03-.01.04-.02.07-.04.12-.09.15-.16.11-.03.23-.13.25-.24.02-.09-.03-.13-.1-.16.05-.05.08-.11.1-.17.04-.1.06-.25,0-.34.09-.05.16-.18.19-.29.04-.16.02-.36-.08-.47.05,0,.1-.02.14-.06.09-.09.09-.25.08-.37,0-.06-.04-.2-.09-.31.28-.09.27-.63.05-.78.1-.04.16-.16.16-.31,0-.03,0-.06,0-.09.02,0,.04-.02.06-.04.14-.12.17-.32.17-.49.09.12.26.01.34-.09.13-.17.16-.4.04-.58.32.03.39-.35.27-.6.29.11.44-.29.29-.52.38.05.61-.38.54-.72,0,0,0,0,0,0,.33.19.65-.04.75-.36.07-.08.09-.18.06-.3,0,0,0,0,0,0,.25.12.56.03.77-.13.13-.1.22-.25.17-.37.04,0,.07-.03.11-.07,0,0,.02-.02.02-.03.12.02.26-.1.27-.2.1,0,.14-.2.07-.28Z"/>
          <path class="cls-29" d="M32.44,59.86c.02-.06,0-.13-.06-.19-.07-.07-.16-.09-.24-.08,0-.02-.02-.04-.04-.05.08-.04.15-.09.17-.17.04-.16-.16-.16-.31-.14.08-.04.14-.09.2-.16,0,0,0-.02,0-.02-.13-.13-.32-.14-.51-.1.08-.06.11-.15,0-.26-.1-.1-.26-.14-.41-.13,0,0,0,0-.01-.01-.06-.07-.16-.15-.26-.19,0-.1-.05-.22-.12-.31-.07-.09-.18-.18-.3-.19-.06,0-.11,0-.15.03-.02-.05-.05-.1-.07-.13-.07-.09-.16-.15-.27-.17-.04,0-.07,0-.1.01-.02-.06-.05-.12-.09-.17-.06-.08-.15-.17-.26-.18-.1-.01-.16.04-.2.12-.06-.23-.24-.37-.49-.32-.08.02-.21.08-.27.16-.1-.24-.31-.46-.59-.42-.14.02-.3.11-.36.22-.03,0-.06,0-.09.01-.04-.07-.12-.07-.19-.03-.27-.1-.55-.09-.54.23-.16-.2-.37-.41-.63-.26-.09.05-.18.15-.21.25-.1-.11-.26-.16-.43-.13-.17.03-.27.15-.27.29-.11-.12-.29-.14-.46-.04-.16.1-.22.26-.19.41-.22-.12-.56.16-.57.41-.1-.05-.23-.04-.32,0-.24.1-.29.36-.26.6-.13-.15-.32-.13-.46.04-.07.09-.11.21-.1.32-.17-.12-.41-.11-.57.06-.12.14-.11.34-.08.51.01.07.03.14.06.2,0,.01,0,.02,0,.03,0,0,0,0,0,0-.1.01-.18.06-.21.18-.05.16.05.32.19.43-.11,0-.21.04-.28.13,0,0,0,0,0,0,.02.01.03.02.05.03.08.05.2.08.29.03.03-.02.05-.04.06-.07.04.06.09.1.17.11.19.03.26-.15.27-.31.09.14.26.16.42.07,0,0,.02-.01.03-.02.11.1.28.14.43.05.11-.07.14-.2.15-.32.02,0,.04,0,.05,0,.13-.02.28-.09.36-.2,0,0,0,0,0,0,.04.02.07.03.11.04.1,0,.19-.05.25-.13.03-.05.06-.11.07-.18.15-.05.3-.18.39-.33.1.21.29.39.52.26.1-.05.16-.17.17-.3.15-.07.28-.19.34-.35.15.14.33.26.48.1.01-.01.02-.03.03-.05.03,0,.05,0,.08,0,.04,0,.08,0,.12-.02,0,.17.03.33.17.38.14.04.26-.1.31-.21,0-.02.01-.04.02-.05.08,0,.14-.04.21-.08.07.17.2.29.42.22.07-.02.12-.07.16-.14.2.14.5.2.71.13,0,.13.04.23.18.21.11-.02.16-.16.19-.25,0,0,0-.02,0-.03.1.07.24.1.36.06.03.05.08.1.13.13.08.05.15.04.2,0,.07.05.16.09.25.11.05.01.1.01.15.01-.04.19-.01.39.22.4.16,0,.29-.1.37-.23.04,0,.08-.01.11-.03,0,.03.01.07.02.1.03.09.11.18.21.13.1-.04.14-.15.16-.25.05.08.13.14.23.17.19.05.35-.07.44-.23.02.15.13.22.28.24,0-.01-.01-.02-.02-.03Z"/>
        </g>
        <g>
          <path class="cls-26" d="M48.81,63.45c-.06-.06-.14-.09-.22-.1,0-.03.01-.05.02-.08.02-.08.05-.19.02-.28.08-.02.16-.08.2-.15.09-.18-.05-.34-.22-.4,0-.01.02-.03.02-.05.02-.08,0-.16-.04-.24.21-.13.24-.51.12-.7,0,0,0,0,0,0,.07-.11.02-.28-.03-.38-.02-.05-.06-.09-.1-.12-.03-.07-.08-.09-.15-.1.03-.05.05-.11.03-.19-.04-.18-.19-.23-.35-.24,0-.06,0-.12-.04-.15.1-.04.17-.13.15-.25-.02-.15-.14-.2-.27-.18.08-.08.14-.19.15-.3.01-.14-.08-.18-.19-.16.09-.09.12-.21.05-.33-.05-.08-.13-.12-.22-.13,0-.02,0-.05-.02-.07-.02-.08-.08-.16-.16-.19,0,0-.02,0-.03,0-.03-.06-.08-.1-.18-.12-.15-.03-.21.1-.22.25-.02,0-.05,0-.07,0-.04-.09-.11-.16-.21-.12-.04.02-.08.04-.1.07-.1.03-.22.11-.31.21-.19-.06-.33.08-.37.25-.11-.05-.24-.05-.36.05-.03.03-.06.1-.09.18-.02,0-.03-.01-.04-.02-.23-.05-.37.16-.4.37-.09,0-.19.06-.25.16-.07-.04-.16-.05-.26,0-.09.04-.17.14-.21.24-.17-.02-.4.08-.48.28-.06-.02-.12,0-.2.07-.03.03-.05.06-.07.09-.01,0-.03,0-.04,0-.09,0-.19.07-.25.15-.04-.03-.1-.05-.16-.03-.07.02-.13.06-.16.11-.03-.02-.08-.02-.13,0-.1.03-.16.09-.17.16-.09-.06-.22-.07-.33-.01-.27.13-.1.3.09.4-.02.03-.03.06-.02.08-.09.04-.12.17-.06.25-.02.14.04.23.14.28-.08.09-.08.25.02.34-.06.07-.06.17,0,.23-.08.09-.08.25.03.35v.03c-.16.11-.18.35-.04.48-.09.1-.12.26-.02.35,0,.03,0,.07.01.1-.11.09-.18.29-.06.39-.01.04-.02.08-.01.13-.03,0-.06,0-.07.04-.02.08-.06.31.03.38,0,.04.03.08.06.11-.12.09-.17.3-.02.4-.03.04-.05.09-.04.15,0,.01.01.03.02.04,0,.03.01.05.02.07-.06.09-.08.2-.03.28-.12.07-.16.24-.09.35-.1.1-.17.26-.11.39-.04.11-.05.25-.05.33,0,.02.01.04.04.05-.05.07-.09.16-.12.25,0,.03,0,.06.04.06.06.01.12,0,.18-.02.05.12.14.23.25.3.08.05.19.08.28.05.1-.03.15-.14.18-.24.15.07.31.13.48.11.05,0,.1-.03.14-.05.02,0,.04.01.07.02.18.04.32-.04.38-.17,0,0,.01,0,.02,0,.06.12.19.2.33.19.26-.01.29-.27.31-.48.03-.02.05-.03.07-.05.12.06.27.08.4.03.1-.04.13-.12.12-.21.19.1.51.05.55-.17.01,0,.03.01.04.02.03.02.06.03.09.04,0,0,.02,0,.03,0,.12.14.31.21.45.04.04-.04.06-.09.08-.15.15-.02.17-.22.17-.37.06.09.16.12.27.06.12-.06.18-.19.16-.32.09.07.22.08.34.03.13-.06.19-.17.17-.29.05.04.1.07.17.06.09-.01.14-.1.17-.18.04-.1.04-.21,0-.29.07-.06.12-.16.13-.25,0-.05,0-.11,0-.16.08-.03.14-.1.14-.24,0-.05-.02-.1-.04-.16.02,0,.04-.02.06-.04.1-.1.09-.25.04-.36.34.1.67-.34.38-.62Z"/>
          <path class="cls-5" d="M47.52,58.72c.02-.06,0-.13-.06-.19-.07-.07-.16-.09-.24-.08,0-.02-.02-.04-.04-.05.08-.04.16-.09.17-.17.04-.16-.16-.16-.31-.14.07-.04.14-.09.2-.15,0,0,0-.02,0-.02-.13-.13-.32-.14-.5-.1.08-.06.11-.15,0-.26-.1-.1-.26-.14-.41-.13,0,0,0,0-.01-.01-.06-.07-.16-.16-.26-.19,0-.1-.05-.22-.12-.31-.07-.09-.18-.18-.3-.19-.06,0-.11,0-.15.03-.02-.05-.05-.1-.07-.13-.07-.09-.16-.15-.27-.16-.04,0-.07,0-.1.01-.02-.06-.05-.12-.09-.17-.06-.08-.15-.17-.26-.18-.1-.01-.16.04-.2.12-.06-.23-.24-.37-.49-.32-.08.02-.21.08-.27.16-.1-.24-.31-.46-.59-.42-.14.02-.3.11-.36.22-.03,0-.06,0-.09.01-.04-.07-.12-.07-.19-.03-.27-.1-.55-.09-.54.23-.16-.2-.37-.41-.63-.26-.09.05-.18.15-.21.25-.11-.11-.26-.16-.43-.13-.17.03-.27.15-.27.29-.12-.12-.29-.14-.46-.04-.16.1-.22.26-.19.41-.22-.12-.57.16-.57.41-.1-.05-.23-.04-.32,0-.24.1-.29.36-.26.59-.13-.15-.32-.13-.46.04-.07.09-.11.21-.1.32-.17-.12-.41-.11-.57.06-.12.14-.11.34-.08.51.01.07.03.14.06.2,0,.01,0,.02,0,.03,0,0,0,0,0,0-.1,0-.18.06-.21.18-.05.16.05.32.19.43-.11,0-.21.04-.28.13-.01.02-.02.04-.03.06-.04.02-.08.04-.11.08-.08.09-.09.19-.04.27-.07,0-.13.04-.16.12-.05.14.06.24.18.28-.09.04-.14.12-.14.23,0,.05.02.09.05.12-.03.03-.06.08-.08.13,0,.02-.01.04-.02.06-.26.09-.49.55-.25.74,0,0,.01,0,.02.01-.05.06-.08.13-.11.2-.02.04-.02.08-.03.12-.26.06-.31.36-.24.6.03.11.09.23.18.31-.08.18,0,.47.08.6,0,0,0,.01.01.02-.07.08-.11.2-.13.28-.03.14.02.29.08.41.03.06.06.12.11.18-.02.02-.03.05-.05.07-.08.16-.04.35.05.5.03.05.06.09.1.13-.01.02-.02.04-.02.06-.03.17.12.36.29.44,0,.09.01.19.03.27.03.14.15.25.28.3,0,0,0,.01,0,.02-.07.16-.06.29.05.43.04.06.15.15.27.21.01.22.27.37.5.34.04.05.1.08.18.1.09.03.22.02.28-.04.03.07.09.13.18.14.1.02.17-.02.21-.09.06.09.21.11.33.1.05,0,.1-.02.15-.04.07.12.26.2.4.22.12.01.26,0,.34-.1.04-.05.06-.11.05-.17.07.06.17.08.28.07,0,0,.01,0,.02,0,0,.13.09.24.26.27.09.02.2,0,.27-.05.02-.01.03-.03.04-.05.06.07.15.1.26.1.06,0,.13-.02.18-.06.04.11.15.18.31.18.21,0,.37-.14.42-.32.06.06.19.06.29.02.06-.02.11-.06.15-.1.01,0,.03-.01.04-.02.07-.04.12-.09.15-.16.11-.03.23-.13.25-.24.02-.09-.03-.13-.1-.16.05-.05.08-.11.1-.17.04-.1.06-.25,0-.34.09-.05.17-.18.19-.29.04-.16.02-.36-.08-.47.05,0,.1-.02.15-.06.09-.09.09-.25.08-.37,0-.06-.04-.21-.09-.31.28-.09.27-.63.04-.78.1-.04.16-.16.16-.31,0-.03,0-.06,0-.09.02,0,.04-.02.06-.04.14-.12.17-.32.17-.49.09.12.26.01.34-.09.13-.17.16-.4.04-.58.32.03.39-.35.27-.6.29.11.44-.29.29-.52.38.05.61-.38.54-.72,0,0,0,0,0,0,.33.19.65-.04.75-.36.06-.08.09-.18.06-.3,0,0,0,0,0,0,.25.12.56.03.77-.13.13-.1.22-.25.17-.37.04,0,.08-.03.11-.07,0,0,.01-.02.02-.03.13.02.26-.1.27-.2.1,0,.14-.2.07-.28Z"/>
          <path class="cls-29" d="M47.52,58.72c.02-.06,0-.13-.06-.19-.07-.07-.16-.09-.24-.08,0-.02-.02-.04-.04-.05.08-.04.16-.09.17-.17.04-.16-.16-.16-.31-.14.07-.04.14-.09.2-.15,0,0,0-.02,0-.02-.13-.13-.32-.14-.5-.1.08-.06.11-.15,0-.26-.1-.1-.26-.14-.41-.13,0,0,0,0-.01-.01-.06-.07-.16-.16-.26-.19,0-.1-.05-.22-.12-.31-.07-.09-.18-.18-.3-.19-.06,0-.11,0-.15.03-.02-.05-.05-.1-.07-.13-.07-.09-.16-.15-.27-.16-.04,0-.07,0-.1.01-.02-.06-.05-.12-.09-.17-.06-.08-.15-.17-.26-.18-.1-.01-.16.04-.2.12-.06-.23-.24-.37-.49-.32-.08.02-.21.08-.27.16-.1-.24-.31-.46-.59-.42-.14.02-.3.11-.36.22-.03,0-.06,0-.09.01-.04-.07-.12-.07-.19-.03-.27-.1-.55-.09-.54.23-.16-.2-.37-.41-.63-.26-.09.05-.18.15-.21.25-.11-.11-.26-.16-.43-.13-.17.03-.27.15-.27.29-.12-.12-.29-.14-.46-.04-.16.1-.22.26-.19.41-.22-.12-.57.16-.57.41-.1-.05-.23-.04-.32,0-.24.1-.29.36-.26.59-.13-.15-.32-.13-.46.04-.07.09-.11.21-.1.32-.17-.12-.41-.11-.57.06-.12.14-.11.34-.08.51.01.07.03.14.06.2,0,.01,0,.02,0,.03,0,0,0,0,0,0-.1,0-.18.06-.21.18-.05.16.05.32.19.43-.11,0-.21.04-.28.13,0,0,0,0,0,0,.02.01.03.02.05.03.08.05.2.08.29.03.03-.02.05-.04.06-.07.04.06.09.1.17.11.19.03.26-.15.27-.31.09.14.26.16.42.07,0,0,.02-.01.03-.02.11.1.28.14.43.05.11-.07.14-.2.15-.32.02,0,.04,0,.05,0,.13-.03.28-.09.36-.2,0,0,0,0,0,0,.03.02.07.03.11.04.1,0,.19-.05.25-.13.03-.05.05-.11.07-.18.15-.05.3-.18.39-.33.1.21.29.39.52.26.1-.05.16-.17.17-.3.15-.07.28-.19.34-.35.15.14.33.26.48.1.01-.01.02-.03.03-.05.03,0,.05,0,.08,0,.04,0,.08,0,.12-.02,0,.17.03.33.17.38.14.04.26-.1.31-.21,0-.02.01-.04.02-.05.08,0,.14-.04.21-.08.07.17.2.29.42.22.07-.02.12-.07.16-.14.2.14.49.2.71.13,0,.13.04.23.18.22.11-.02.16-.16.19-.25,0,0,0-.02,0-.03.1.07.24.1.36.06.03.05.08.1.13.13.08.05.15.04.2,0,.07.05.16.09.25.11.05.01.1.01.15.01-.04.19-.02.39.22.4.16,0,.29-.1.37-.23.04,0,.08-.01.11-.03,0,.04.01.07.02.1.03.09.11.18.21.13.09-.04.14-.15.16-.25.05.08.13.14.23.17.2.05.35-.07.44-.23.02.14.13.22.28.24,0-.01-.01-.02-.02-.03Z"/>
        </g>
        <g>
          <g>
            <path class="cls-18" d="M36.27,69.83c-.36-.14-1.55-.14-1.91,0,0,0-.24.08.15.21.39.13,1.22.13,1.61,0,.39-.13.15-.21.15-.21Z"/>
            <path class="cls-18" d="M34.51,69.98c-.17-.09-.22-.17-.22-.23h0s0,9.5,0,9.5c0,0,0,0,0,0,0,.06.06.13.22.21.19.11.5.16.8.16v-9.49c-.3,0-.61-.05-.8-.16Z"/>
            <path class="cls-6" d="M36.34,69.74c0,.06-.04.14-.22.24-.2.11-.5.16-.8.16v9.49c.3,0,.61-.05.8-.16.16-.08.21-.16.22-.21,0,0,0,0,0,0v-9.52s0,0,0,.01Z"/>
          </g>
          <g>
            <g>
              <path class="cls-18" d="M34.21,68.45c-.16-.1-.68-.1-.84,0,0,0-.1.06.07.15.17.09.53.09.7,0,.17-.09.07-.15.07-.15Z"/>
              <path class="cls-18" d="M33.45,68.6c-.08-.04-.1-.07-.1-.1h0s0,.03,0,.03l1.08,1.9s0,0,0,0c0,.02.03.06.1.09.09.05.22.07.35.07l-1.08-1.92c-.13,0-.27-.02-.35-.07Z"/>
              <path class="cls-6" d="M34.25,68.5s-.02.06-.1.1c-.08.05-.22.07-.35.07l1.08,1.92c.13,0,.27-.02.35-.07.07-.04.09-.07.1-.09,0,0,0,0,0,0l-1.08-1.93h0Z"/>
            </g>
            <g>
              <path class="cls-18" d="M33.55,65.66c-.16-.1-.68-.1-.84,0,0,0-.1.06.07.15.17.09.53.09.7,0,.17-.09.07-.15.07-.15Z"/>
              <path class="cls-18" d="M32.78,65.8c-.07-.04-.1-.08-.1-.1h0s.66,2.8.66,2.8c0,0,0,0,0,0,0,.02.03.06.1.09.08.05.22.07.35.07l-.66-2.8c-.13,0-.27-.02-.35-.07Z"/>
              <path class="cls-6" d="M33.58,65.7s-.02.06-.1.11c-.08.05-.22.07-.35.07l.66,2.8c.13,0,.27-.02.35-.07.07-.04.09-.07.1-.09,0,0,0,0,0,0l-.66-2.81h0Z"/>
            </g>
            <g>
              <path class="cls-18" d="M29.78,66.32c-.08-.04-.1-.07-.1-.1t0,0l.1.1s3.6,2.24,3.67,2.27c.09.05.22.07.35.07l-3.67-2.27c-.13,0-.27-.02-.35-.07Z"/>
              <path class="cls-6" d="M30.13,66.39l3.67,2.27c.13,0,.27-.02.35-.07.07-.04.09-.07.1-.09,0,0,0,0,0,0l-3.69-2.32s-.3.21-.43.21Z"/>
              <path class="cls-18" d="M30.55,66.17c-.16-.1-.68-.1-.83,0,0,0-.1.06.07.15.17.09.53.09.7,0,.17-.09.07-.15.07-.15Z"/>
            </g>
          </g>
          <g>
            <g>
              <path class="cls-6" d="M38.04,69.07v.03s0-.02,0-.03c0,0,0,0,0,0Z"/>
              <path class="cls-6" d="M40.08,65.24l-2.55,3.52h0l-1.78,1.59c.13,0,.31.05.4,0,.07-.04,1.6-1.47,1.6-1.47-.02.02,2.65-3.68,2.65-3.68l.1-.19s0-.03-.42.22Z"/>
            </g>
            <path class="cls-18" d="M40.49,65.02c-.15-.09-.62-.1-.81-.01h0l-2.47,3.49s-1.92,1.7-1.92,1.7c0,0,0,0,0,0,0,.02.03.06.1.09.09.05.22.07.35.07l1.78-1.59h0l2.55-3.52c.13,0,.42-.22.42-.22Z"/>
          </g>
          <g>
            <g>
              <path class="cls-18" d="M35.73,69.21c-.16-.1-.67-.1-.83,0,0,0-.1.06.07.15.17.09.53.09.7,0,.17-.09.07-.15.07-.15Z"/>
              <path class="cls-18" d="M34.97,69.35c-.08-.04-.1-.07-.1-.1h0s0,1.46,0,1.46c0,0,0,0,0,0,0,.02.03.06.1.09.09.05.22.07.35.07v-1.46c-.13,0-.26-.02-.35-.07Z"/>
              <path class="cls-6" d="M35.76,69.25s-.02.06-.1.1c-.08.05-.22.07-.35.07v1.46c.13,0,.27-.02.35-.07.07-.04.09-.07.1-.09,0,0,0,0,0,0v-1.48h0Z"/>
            </g>
            <g>
              <path class="cls-18" d="M34.71,64.76c-.16-.1-.68-.1-.84,0,0,0-.1.06.07.15.17.09.53.09.7,0,.17-.09.07-.15.07-.15Z"/>
              <path class="cls-18" d="M33.94,64.91c-.08-.04-.1-.07-.1-.1,0,0,0,0,0,0l1.03,4.45s0,0,0,0c0,.02.03.06.1.09.08.05.22.07.35.07l-1.03-4.45c-.13,0-.27-.02-.35-.07Z"/>
              <path class="cls-6" d="M34.74,64.8s-.02.06-.1.1c-.09.05-.22.07-.35.07l1.03,4.45c.13,0,.27-.02.35-.07.07-.04.09-.07.1-.09,0,0,0,0,0,0v-.02l-1.03-4.45s0,0,0,0Z"/>
            </g>
            <g>
              <path class="cls-6" d="M37.61,65.16s-1.88,4.15-1.95,4.19c-.09.05-.22.07-.35.07l1.86-4.11c.13,0,.44-.15.44-.15Z"/>
              <path class="cls-18" d="M37.17,65.31l-1.86,4.11c-.13,0-.27-.02-.35-.07-.07-.04-.09-.07-.1-.09,0,0,0,0,0,0l1.89-4.17s.28.22.42.22Z"/>
              <path class="cls-18" d="M36.76,65.09c.16-.1.68-.1.84,0,0,0,.1.06-.07.15-.17.09-.53.09-.7,0-.17-.09-.07-.15-.07-.15Z"/>
            </g>
          </g>
        </g>
        <g>
          <path class="cls-26" d="M44.58,60.16c-.1-.09-.22-.14-.36-.17.01-.04.02-.09.03-.14.03-.13.08-.31.03-.45.13-.03.26-.13.32-.25.14-.29-.08-.55-.35-.64.02-.02.03-.05.03-.08.03-.12,0-.26-.06-.38.33-.22.39-.82.2-1.13,0,0,0,0,0,0,.11-.18.04-.45-.05-.62-.04-.08-.1-.14-.16-.19-.04-.11-.13-.15-.24-.16.05-.08.08-.18.05-.3-.06-.28-.31-.38-.57-.38,0-.1-.02-.19-.07-.24.16-.07.27-.21.24-.41-.04-.24-.23-.32-.43-.29.13-.13.23-.31.25-.48.02-.23-.13-.29-.3-.27.15-.14.2-.34.07-.54-.08-.13-.22-.2-.36-.2,0-.04-.01-.08-.03-.12-.04-.13-.12-.25-.25-.3-.02,0-.03,0-.05-.01-.04-.09-.13-.17-.3-.2-.24-.04-.34.17-.36.41-.04,0-.08,0-.11,0-.07-.15-.18-.25-.33-.19-.07.03-.13.07-.16.12-.17.05-.36.18-.49.35-.3-.09-.53.12-.6.4-.17-.09-.39-.08-.57.09-.05.04-.1.16-.14.29-.02-.01-.05-.02-.07-.03-.38-.08-.6.26-.64.6-.15,0-.31.1-.4.26-.11-.07-.25-.08-.42,0-.14.07-.28.22-.34.38-.27-.04-.65.13-.78.45-.09-.03-.2,0-.32.11-.05.05-.08.09-.12.14-.02,0-.05,0-.07,0-.15,0-.3.11-.41.25-.07-.05-.16-.08-.25-.05-.12.03-.21.1-.27.18-.05-.03-.12-.04-.21-.01-.17.05-.25.15-.28.26-.15-.09-.35-.12-.54-.02-.44.22-.17.49.14.64-.03.04-.04.09-.03.13-.15.07-.2.28-.09.41-.04.23.06.37.22.46-.13.14-.13.4.03.55-.09.11-.1.27-.01.37-.13.15-.13.41.04.57v.05c-.26.18-.3.57-.07.78-.15.15-.19.43-.03.57-.01.05,0,.11.02.16-.18.15-.3.47-.09.63-.02.06-.03.13-.02.21-.04-.01-.1.01-.11.06-.04.14-.1.5.06.62.01.07.05.12.1.18-.19.14-.27.49-.04.65-.05.07-.08.15-.06.24,0,.02.02.04.03.06,0,.04.02.08.04.11-.09.14-.13.32-.05.45-.2.11-.26.38-.14.56-.16.16-.28.43-.17.63-.06.18-.08.4-.07.53,0,.04.02.07.06.08-.09.11-.15.25-.19.41-.01.04.01.1.06.1.1.02.2,0,.3-.03.08.2.23.37.41.48.13.09.3.13.46.08.16-.06.24-.22.29-.38.24.12.5.22.77.18.09-.01.16-.04.22-.09.04.01.07.02.11.03.29.06.51-.06.62-.27,0,0,.02,0,.03,0,.09.19.3.32.53.31.42-.02.47-.43.5-.78.04-.02.08-.05.11-.09.2.1.44.12.64.04.17-.07.22-.2.2-.33.3.17.83.08.89-.27.02.01.04.02.06.03.05.03.1.05.15.07.01,0,.03.01.04.01.19.23.49.34.72.06.06-.07.1-.15.13-.24.23-.03.27-.35.28-.6.09.14.25.19.44.09.2-.1.29-.31.26-.51.15.12.36.13.54.05.22-.1.31-.28.27-.47.08.07.17.11.27.1.14-.02.23-.17.28-.29.06-.16.06-.34,0-.48.12-.1.2-.26.21-.4,0-.09,0-.18-.01-.26.13-.05.23-.17.22-.38,0-.07-.02-.17-.06-.25.03-.01.06-.04.1-.07.16-.16.15-.4.06-.59.55.16,1.08-.55.62-1Z"/>
          <path class="cls-5" d="M42.49,52.53c.03-.09,0-.21-.09-.3-.11-.11-.25-.14-.39-.12-.01-.03-.04-.06-.06-.09.14-.06.25-.15.28-.28.06-.26-.26-.26-.5-.23.12-.06.23-.14.33-.25,0-.01.01-.03,0-.04-.21-.22-.52-.23-.82-.16.13-.1.18-.25.01-.41-.17-.17-.42-.23-.66-.21,0,0-.01-.02-.02-.02-.09-.11-.26-.25-.42-.31,0-.16-.08-.36-.19-.49-.11-.15-.29-.3-.49-.31-.09,0-.17.01-.24.05-.03-.08-.07-.16-.12-.21-.11-.14-.26-.25-.44-.27-.06,0-.11,0-.16.02-.03-.1-.08-.2-.14-.28-.1-.13-.25-.27-.42-.29-.15-.02-.26.07-.33.19-.09-.37-.38-.59-.79-.51-.13.03-.35.13-.44.27-.16-.39-.5-.75-.95-.68-.22.03-.49.17-.58.35-.05-.01-.1,0-.14.02-.06-.11-.19-.11-.31-.04-.43-.16-.89-.14-.88.37-.25-.32-.6-.66-1.02-.42-.15.09-.29.24-.34.41-.17-.17-.42-.25-.69-.2-.27.05-.44.24-.43.46-.19-.19-.48-.22-.75-.06-.26.16-.36.41-.3.66-.36-.19-.91.26-.92.65-.16-.07-.38-.07-.51,0-.39.17-.46.58-.42.96-.22-.25-.52-.22-.73.07-.11.15-.18.34-.17.52-.27-.19-.66-.18-.91.1-.2.22-.17.55-.13.82.02.11.05.23.1.33,0,.02,0,.03,0,.05,0,0,0,0,0,0-.15.02-.28.09-.34.29-.08.25.09.52.31.69-.17,0-.34.06-.45.22-.02.03-.04.07-.04.1-.06.03-.12.07-.18.13-.13.15-.14.31-.07.43-.11,0-.2.06-.25.2-.08.23.1.39.3.45-.14.06-.23.2-.23.37,0,.09.03.15.08.19-.05.06-.1.12-.13.2-.01.03-.02.06-.02.09-.43.15-.78.88-.4,1.2,0,0,.02.02.03.02-.08.1-.13.21-.17.32-.02.07-.04.13-.04.2-.41.09-.5.58-.38.98.05.18.15.37.29.51-.13.29-.02.76.12.97,0,0,.01.02.02.02-.11.14-.17.33-.2.46-.05.22.04.47.13.66.04.09.1.2.18.29-.03.04-.05.08-.07.12-.13.26-.07.56.07.8.04.07.1.14.17.2-.02.03-.03.06-.03.1-.05.27.2.58.47.7,0,.15.02.3.05.43.05.22.24.41.45.49,0,.01,0,.02-.01.03-.11.26-.09.47.08.7.07.09.24.23.43.33.02.36.44.6.8.54.07.07.16.13.29.17.15.04.35.02.46-.07.04.11.15.2.29.23.16.03.27-.04.33-.15.1.14.34.18.53.16.07,0,.16-.03.23-.07.11.2.42.32.65.35.19.02.42-.01.55-.16.07-.08.09-.18.08-.28.12.09.28.13.45.12.01,0,.02,0,.03,0,0,.21.15.38.41.44.15.03.32.01.44-.09.03-.02.05-.05.07-.08.09.11.24.16.43.16.1,0,.21-.04.29-.1.06.18.25.3.49.3.34,0,.6-.22.68-.52.1.1.3.1.48.03.1-.04.18-.09.24-.16.02,0,.05-.02.07-.03.1-.06.2-.15.25-.26.18-.05.36-.22.41-.39.04-.14-.05-.21-.16-.25.07-.07.13-.19.16-.27.07-.17.09-.4.01-.55.15-.07.27-.28.31-.47.07-.26.04-.57-.13-.76.08,0,.17-.03.23-.1.14-.15.15-.4.13-.59,0-.1-.06-.33-.15-.49.46-.15.43-1.02.07-1.27.17-.07.26-.27.26-.5,0-.05,0-.1,0-.15.04-.01.07-.03.1-.06.22-.19.28-.52.28-.8.15.19.42.02.55-.15.22-.28.25-.65.06-.94.51.05.63-.57.43-.97.46.18.7-.47.46-.84.61.08.99-.62.87-1.17,0,0,0,0,0-.01.54.3,1.05-.07,1.21-.58.1-.12.15-.29.09-.48,0,0,0,0,0,0,.4.19.9.05,1.25-.2.22-.16.36-.4.27-.6.06-.01.12-.05.18-.11.01-.01.02-.03.03-.04.2.03.42-.16.44-.32.15-.01.23-.33.12-.45Z"/>
          <path class="cls-29" d="M42.49,52.53c.03-.09,0-.21-.09-.3-.11-.11-.25-.14-.39-.12-.01-.03-.04-.06-.06-.09.14-.06.25-.15.28-.28.06-.26-.26-.26-.5-.23.12-.06.23-.14.33-.25,0-.01.01-.03,0-.04-.21-.22-.52-.23-.82-.16.13-.1.18-.25.01-.41-.17-.17-.42-.23-.66-.21,0,0-.01-.02-.02-.02-.09-.11-.26-.25-.42-.31,0-.16-.08-.36-.19-.49-.11-.15-.29-.3-.49-.31-.09,0-.17.01-.24.05-.03-.08-.07-.16-.12-.21-.11-.14-.26-.25-.44-.27-.06,0-.11,0-.16.02-.03-.1-.08-.2-.14-.28-.1-.13-.25-.27-.42-.29-.15-.02-.26.07-.33.19-.09-.37-.38-.59-.79-.51-.13.03-.35.13-.44.27-.16-.39-.5-.75-.95-.68-.22.03-.49.17-.58.35-.05-.01-.1,0-.14.02-.06-.11-.19-.11-.31-.04-.43-.16-.89-.14-.88.37-.25-.32-.6-.66-1.02-.42-.15.09-.29.24-.34.41-.17-.17-.42-.25-.69-.2-.27.05-.44.24-.43.46-.19-.19-.48-.22-.75-.06-.26.16-.36.41-.3.66-.36-.19-.91.26-.92.65-.16-.07-.38-.07-.51,0-.39.17-.46.58-.42.96-.22-.25-.52-.22-.73.07-.11.15-.18.34-.17.52-.27-.19-.66-.18-.91.1-.2.22-.17.55-.13.82.02.11.05.23.1.33,0,.02,0,.03,0,.05,0,0,0,0,0,0-.15.02-.28.09-.34.29-.08.25.09.52.31.69-.17,0-.34.06-.45.22,0,0,0,.01,0,.02.03.02.05.04.08.05.14.08.33.14.47.05.05-.03.08-.07.09-.12.06.09.15.16.28.18.31.04.42-.25.43-.5.14.23.42.25.67.12.01,0,.03-.02.04-.03.19.16.45.23.69.08.17-.11.23-.33.24-.52.03,0,.06,0,.09-.01.22-.04.45-.14.58-.32,0,0,0,0,0,0,.06.03.12.06.19.06.17.02.3-.07.4-.21.05-.07.09-.18.11-.28.25-.08.48-.29.62-.53.16.33.47.63.84.42.16-.09.25-.28.27-.48.25-.12.46-.31.55-.56.24.23.54.42.77.16.02-.02.04-.05.05-.08.04,0,.08,0,.12,0,.06,0,.12-.01.19-.02-.01.27.04.54.28.61.23.07.41-.16.49-.34.01-.03.02-.06.03-.09.12-.01.23-.06.34-.13.11.27.33.47.67.36.11-.03.2-.12.26-.23.33.23.8.32,1.15.21,0,.21.06.38.29.35.18-.03.26-.25.31-.4,0-.01,0-.03.01-.04.16.12.39.16.58.09.05.09.13.16.22.22.12.07.24.06.33,0,.12.09.26.15.4.18.08.02.16.02.24.02-.07.31-.02.63.36.64.26,0,.47-.15.59-.37.06,0,.12-.02.18-.04,0,.06.02.11.04.17.04.14.18.29.34.22.15-.07.22-.25.26-.41.09.13.21.22.38.27.32.08.57-.12.71-.37.03.23.22.35.46.38,0-.02-.02-.04-.03-.05Z"/>
        </g>
      </g>
      <g>
        <g>
          <g>
            <path class="cls-21" d="M0,116.44v-1.01l1.59-1.86c.08-.14.13-.31.14-.47l.46-5.93.28-.62,2.04,1.2.21.71.14,6.21c0,.14.03.28.07.41l1.19,3.79v1.13l-1.13-.63-.37-.88-3.22-1.9-.52.36-.88-.52Z"/>
            <path class="cls-25" d="M0,116.44v-1.01l1.59-1.86c.08-.14.13-.31.14-.47l.46-5.93.28-.62,2.04,1.2.21.71.14,6.21c0,.14.03.28.07.41l1.19,3.79v1.13l-1.13-.63-.37-.88-3.22-1.9-.52.36-.88-.52Z"/>
            <path class="cls-9" d="M4.93,115.09l1.19,3.79,22.01-12.22.34-.94-1.19-3.79c-.04-.13-.07-.27-.07-.41l-.14-6.21-2.76,1.63-19.58,11.53.14,6.21c0,.14.03.28.07.41Z"/>
            <polygon class="cls-10" points="28.47 106.85 6.12 120.01 6.12 118.88 28.47 105.72 28.47 106.85"/>
            <polygon class="cls-7" points="26.86 94.6 4.51 107.76 4.72 108.47 27.07 95.31 26.86 94.6"/>
            <polygon class="cls-20" points="4.51 107.76 2.47 106.55 24.82 93.4 26.86 94.6 4.51 107.76"/>
          </g>
          <g>
            <path class="cls-25" d="M25.13,98.26s-.08,4.35.84,7.81l.82.63s-1.62-6.73-1.47-8.44h-.19Z"/>
            <path class="cls-8" d="M25.13,98.26s.74,4.98,1.66,8.44l.42-.25s-1.62-6.78-1.47-8.48l-.61.28Z"/>
          </g>
          <g>
            <path class="cls-25" d="M20.37,101.09s-.08,4.35.84,7.81l.82.63s-1.62-6.73-1.47-8.44h-.19Z"/>
            <path class="cls-13" d="M20.37,101.09s.74,4.98,1.66,8.44l.42-.25s-1.62-6.78-1.47-8.48l-.61.28Z"/>
          </g>
          <g>
            <path class="cls-25" d="M15.45,103.97s-.08,4.35.84,7.81l.82.63s-1.62-6.73-1.47-8.44h-.19Z"/>
            <path class="cls-14" d="M15.45,103.97s.74,4.98,1.66,8.44l.42-.25s-1.62-6.78-1.47-8.48l-.61.28Z"/>
          </g>
          <g>
            <path class="cls-25" d="M10.59,106.85s-.08,4.35.84,7.81l.82.63s-1.62-6.73-1.47-8.44h-.19Z"/>
            <path class="cls-11" d="M10.59,106.85s.74,4.98,1.66,8.44l.42-.25s-1.62-6.78-1.47-8.48l-.61.28Z"/>
          </g>
          <g>
            <path class="cls-25" d="M5.73,109.69s-.08,4.35.84,7.81l.82.63s-1.62-6.73-1.47-8.44h-.19Z"/>
            <path class="cls-12" d="M5.73,109.69s.74,4.98,1.66,8.44l.42-.25s-1.62-6.78-1.47-8.48l-.61.28Z"/>
          </g>
        </g>
        <g>
          <g>
            <path class="cls-36" d="M31.77,97.81v-1.01l1.59-1.86c.08-.14.13-.31.14-.47l.46-5.93.28-.62,2.04,1.2.21.71.14,6.21c0,.14.03.28.07.41l1.19,3.79v1.13l-1.13-.63-.37-.88-3.22-1.9-.52.36-.88-.52Z"/>
            <path class="cls-25" d="M31.77,97.81v-1.01l1.59-1.86c.08-.14.13-.31.14-.47l.46-5.93.28-.62,2.04,1.2.21.71.14,6.21c0,.14.03.28.07.41l1.19,3.79v1.13l-1.13-.63-.37-.88-3.22-1.9-.52.36-.88-.52Z"/>
            <path class="cls-38" d="M36.71,96.47l1.19,3.79,22.01-12.22.34-.94-1.19-3.79c-.04-.13-.07-.27-.07-.41l-.14-6.21-2.76,1.63-19.58,11.53.14,6.21c0,.14.03.28.07.41Z"/>
            <polygon class="cls-37" points="60.25 88.22 37.9 101.38 37.9 100.25 60.25 87.1 60.25 88.22"/>
            <polygon class="cls-31" points="58.63 75.97 36.28 89.13 36.5 89.84 58.85 76.69 58.63 75.97"/>
            <polygon class="cls-20" points="36.28 89.13 34.24 87.93 56.59 74.77 58.63 75.97 36.28 89.13"/>
          </g>
          <g>
            <path class="cls-25" d="M56.91,79.63s-.08,4.35.84,7.81l.82.63s-1.62-6.73-1.47-8.44h-.19Z"/>
            <path class="cls-30" d="M56.91,79.63s.74,4.98,1.66,8.44l.42-.25s-1.62-6.78-1.47-8.48l-.61.28Z"/>
          </g>
          <g>
            <path class="cls-25" d="M52.14,82.47s-.08,4.35.84,7.81l.82.63s-1.62-6.73-1.47-8.44h-.19Z"/>
            <path class="cls-33" d="M52.14,82.47s.74,4.98,1.66,8.44l.42-.25s-1.62-6.78-1.47-8.48l-.61.28Z"/>
          </g>
          <g>
            <path class="cls-25" d="M47.22,85.35s-.08,4.35.84,7.81l.82.63s-1.62-6.73-1.47-8.44h-.19Z"/>
            <path class="cls-32" d="M47.22,85.35s.74,4.98,1.66,8.44l.42-.25s-1.62-6.78-1.47-8.48l-.61.28Z"/>
          </g>
          <g>
            <path class="cls-25" d="M42.36,88.22s-.08,4.35.84,7.81l.82.63s-1.62-6.73-1.47-8.44h-.19Z"/>
            <path class="cls-35" d="M42.36,88.22s.74,4.98,1.66,8.44l.42-.25s-1.62-6.78-1.47-8.48l-.61.28Z"/>
          </g>
          <g>
            <path class="cls-25" d="M37.5,91.06s-.08,4.35.84,7.81l.82.63s-1.62-6.73-1.47-8.44h-.19Z"/>
            <path class="cls-34" d="M37.5,91.06s.74,4.98,1.66,8.44l.42-.25s-1.62-6.78-1.47-8.48l-.61.28Z"/>
          </g>
        </g>
      </g>
      <g>
        <g>
          <polygon class="cls-4" points="71.1 126.23 67.73 124.21 67.73 111.87 66.9 111.37 66.9 4.93 70.95 3.08 73.14 4.4 73.14 2.09 77.2 .23 79.29 1.49 80.56 .91 85.48 3.86 85.13 4.02 85.48 4.22 87.38 5.37 87.38 7.47 92.27 7.64 92.27 7.63 92.27 5.51 94.69 4.4 95.05 4.24 94.69 4.03 97.58 2.71 98.94 3.53 101.41 2.4 104.77 4.43 104.77 6.5 106.73 5.61 109.95 7.53 109.95 18.54 109.96 18.54 109.96 19.89 110.78 20.38 110.78 126.82 106.73 128.66 105.55 127.95 104.53 129.66 100.49 131.51 98.39 130.26 97.12 130.83 92.2 127.89 92.2 127.52 90.31 126.38 90.31 124.28 85.41 124.11 85.41 126.23 82.99 127.34 82.99 127.71 80.1 129.03 78.74 128.22 76.28 129.34 73.07 127.41 71.1 126.23"/>
          <polygon class="cls-4" points="95.05 4.24 94.69 4.4 94.69 4.03 95.05 4.24"/>
          <polygon class="cls-4" points="85.48 3.86 85.48 4.22 85.13 4.02 85.48 3.86"/>
        </g>
        <polygon class="cls-28" points="73.15 96.17 73.15 2.08 79.4 5.83 78.99 111.8 73.15 108.42 73.15 96.17"/>
        <polygon class="cls-28" points="72.99 103.65 72.99 9.56 75.24 10.9 75.24 116.78 72.99 115.9 72.99 103.65"/>
        <polygon class="cls-28" points="66.9 99.02 66.9 4.93 69.15 6.28 69.15 112.16 66.9 111.27 66.9 99.02"/>
        <polygon class="cls-28" points="77.56 103.93 77.56 9.84 79.81 11.19 79.81 117.07 77.56 116.18 77.56 103.93"/>
        <polygon class="cls-19" points="77.57 103.65 77.57 9.84 75.24 10.9 75.24 116.78 77.48 115.9 77.57 103.65"/>
        <polygon class="cls-19" points="98.83 11.49 100.77 10.61 100.49 117.08 98.83 117.93 98.83 11.49"/>
        <polygon class="cls-19" points="107.48 8.67 109.95 7.53 109.67 114.01 107.48 115.11 107.48 8.67"/>
        <polygon class="cls-19" points="100.05 6.59 104.77 4.43 104.5 110.9 100.05 113.03 100.05 6.59"/>
        <polygon class="cls-19" points="102.84 11.85 105.6 10.58 105.32 117.05 102.86 118.3 102.84 11.85"/>
        <polygon class="cls-19" points="105.96 10.79 108.86 9.47 108.58 115.94 105.99 117.24 105.96 10.79"/>
        <polygon class="cls-28" points="100.77 10.61 102.84 11.85 102.86 118.3 100.77 117.04 100.77 10.61"/>
        <rect class="cls-19" x="85.28" y="17.68" width="5.03" height="106.6"/>
        <polygon class="cls-28" points="67.73 111.87 67.73 17.78 71.1 19.8 71.1 126.23 67.73 124.12 67.73 111.87"/>
        <polygon class="cls-28" points="67.72 100.86 67.72 6.77 72.64 9.72 72.24 115.69 67.72 113.11 67.72 100.86"/>
        <polyline class="cls-19" points="71.1 19.8 71.1 126.23 75.82 124.21 75.82 17.64 71.1 19.8"/>
        <polygon class="cls-28" points="67.72 17.78 71.09 19.8 71.09 126.23 67.73 124.21 67.72 17.78"/>
        <polygon class="cls-28" points="75.82 111.73 75.82 17.64 77.79 18.82 77.79 124.7 75.82 123.98 75.82 111.73"/>
        <polygon class="cls-28" points="78.74 115.87 78.74 21.78 80.1 22.6 80.1 129.04 78.74 128.22 78.74 115.87"/>
        <polygon class="cls-19" points="76.28 22.9 78.74 21.78 78.74 128.22 76.43 129.43 76.28 22.9"/>
        <polygon class="cls-19" points="98.28 19.48 100.48 18.47 100.17 125.16 98.28 125.91 98.28 19.48"/>
        <polygon class="cls-19" points="82.95 20.92 85.41 19.8 85.41 126.24 83.11 127.45 82.95 20.92"/>
        <polygon class="cls-28" points="92.55 21.29 90.31 19.95 90.31 126.38 92.63 127.77 92.55 21.29"/>
        <polygon class="cls-28" points="73.06 115.06 73.06 20.97 76.28 22.9 76.43 129.43 73.06 127.32 73.06 115.06"/>
        <polygon class="cls-19" points="82.99 21.28 80.1 22.6 80.1 129.04 82.99 127.71 82.99 21.28"/>
        <polygon class="cls-19" points="110.78 20.38 106.73 22.23 106.73 128.66 110.78 126.82 110.78 20.38"/>
        <polygon class="cls-28" points="92.2 115.54 92.5 21.63 97.12 24.4 97.12 130.84 92.2 127.89 92.2 115.54"/>
        <polygon class="cls-28" points="100.18 112.39 100.48 18.47 106.73 22.23 106.73 128.66 100.18 124.73 100.18 112.39"/>
        <polygon class="cls-19" points="104.53 23.23 100.49 25.08 100.49 131.51 104.53 129.67 104.53 23.23"/>
        <polygon class="cls-1" points="66.9 4.93 68.99 6.19 67.72 6.77 72.64 9.72 72.99 9.56 75.23 10.91 77.56 9.84 79.26 10.86 78.85 13.82 76.91 14.7 74.84 13.46 72.07 14.73 71.72 14.52 68.83 15.84 70.19 16.65 67.73 17.78 71.1 19.8 75.82 17.64 77.78 18.82 73.06 20.97 76.28 22.9 78.74 21.78 80.1 22.6 82.99 21.28 82.63 21.07 85.41 19.8 83.34 18.56 85.28 17.68 90.94 17.86 92.64 18.88 90.31 19.95 92.55 21.29 92.2 21.45 97.12 24.4 98.39 23.82 100.48 25.07 100.49 25.08 104.53 23.23 98.28 19.48 100.48 18.47 106.73 22.23 110.78 20.38 109.96 19.88 108.69 19.12 109.95 18.54 109.95 18.54 105.04 15.59 104.69 15.75 102.45 14.4 100.12 15.47 98.42 14.45 98.83 11.49 100.77 10.61 102.84 11.85 105.61 10.58 105.96 10.79 108.85 9.47 107.49 8.66 109.95 7.53 106.74 5.6 104.77 6.5 102.01 7.76 100.05 6.58 104.77 4.43 101.36 2.33 98.84 3.47 97.58 2.64 94.69 3.97 95.04 4.31 92.27 5.51 94.34 6.75 92.4 7.63 87.37 7.47 85.04 6.43 87.37 5.36 85.3 4.04 85.4 3.74 80.64 .86 79.4 1.44 77.27 .23 73.15 2.08 79.4 5.83 77.2 6.84 73.15 4.4 70.95 2.98 66.9 4.93"/>
        <polygon class="cls-28" points="98.39 23.82 100.49 25.08 100.49 131.51 98.39 130.26 98.39 23.82"/>
        <polygon class="cls-19" points="97.12 24.4 98.39 23.82 98.39 130.25 97.12 130.84 97.12 24.4"/>
        <g>
          <polygon class="cls-27" points="96.32 25.94 93.15 24.12 93.15 24.97 96.32 26.78 96.32 25.94"/>
          <polygon class="cls-27" points="96.32 28.65 93.15 26.83 93.15 27.68 96.32 29.49 96.32 28.65"/>
          <polygon class="cls-27" points="96.32 31.36 93.15 29.55 93.15 30.39 96.32 32.2 96.32 31.36"/>
          <polygon class="cls-27" points="96.32 34.07 93.15 32.26 93.15 33.1 96.32 34.92 96.32 34.07"/>
          <polygon class="cls-27" points="96.32 36.78 93.15 34.97 93.15 35.81 96.32 37.63 96.32 36.78"/>
          <polygon class="cls-27" points="96.32 39.49 93.15 37.68 93.15 38.53 96.32 40.34 96.32 39.49"/>
          <polygon class="cls-27" points="96.32 42.21 93.15 40.39 93.15 41.24 96.32 43.05 96.32 42.21"/>
          <polygon class="cls-27" points="96.32 44.92 93.15 43.1 93.15 43.95 96.32 45.76 96.32 44.92"/>
          <polygon class="cls-27" points="96.32 47.63 93.15 45.81 93.15 46.66 96.32 48.47 96.32 47.63"/>
          <polygon class="cls-27" points="96.32 50.34 93.15 48.53 93.15 49.37 96.32 51.19 96.32 50.34"/>
          <polygon class="cls-27" points="96.32 53.05 93.15 51.24 93.15 52.08 96.32 53.9 96.32 53.05"/>
          <polygon class="cls-27" points="96.32 55.76 93.15 53.95 93.15 54.79 96.32 56.61 96.32 55.76"/>
          <polygon class="cls-27" points="96.32 58.47 93.15 56.66 93.15 57.51 96.32 59.32 96.32 58.47"/>
          <polygon class="cls-27" points="96.32 61.19 93.15 59.37 93.15 60.22 96.32 62.03 96.32 61.19"/>
          <polygon class="cls-27" points="96.32 63.9 93.15 62.08 93.15 62.93 96.32 64.74 96.32 63.9"/>
          <polygon class="cls-27" points="96.32 66.61 93.15 64.8 93.15 65.64 96.32 67.45 96.32 66.61"/>
          <polygon class="cls-27" points="96.32 69.32 93.15 67.51 93.15 68.35 96.32 70.17 96.32 69.32"/>
          <polygon class="cls-27" points="96.32 72.03 93.15 70.22 93.15 71.06 96.32 72.88 96.32 72.03"/>
          <polygon class="cls-27" points="96.32 74.74 93.15 72.93 93.15 73.78 96.32 75.59 96.32 74.74"/>
          <polygon class="cls-27" points="96.32 77.46 93.15 75.64 93.15 76.49 96.32 78.3 96.32 77.46"/>
          <polygon class="cls-27" points="96.32 80.17 93.15 78.35 93.15 79.2 96.32 81.01 96.32 80.17"/>
          <polygon class="cls-27" points="96.32 82.88 93.15 81.07 93.15 81.91 96.32 83.72 96.32 82.88"/>
          <polygon class="cls-27" points="96.32 85.59 93.15 83.78 93.15 84.62 96.32 86.44 96.32 85.59"/>
          <polygon class="cls-27" points="96.32 88.3 93.15 86.49 93.15 87.33 96.32 89.15 96.32 88.3"/>
          <polygon class="cls-27" points="96.32 91.01 93.15 89.2 93.15 90.05 96.32 91.86 96.32 91.01"/>
          <polygon class="cls-27" points="96.32 93.72 93.15 91.91 93.15 92.76 96.32 94.57 96.32 93.72"/>
          <polygon class="cls-27" points="96.32 96.44 93.15 94.62 93.15 95.47 96.32 97.28 96.32 96.44"/>
          <polygon class="cls-27" points="96.32 99.15 93.15 97.33 93.15 98.18 96.32 99.99 96.32 99.15"/>
          <polygon class="cls-27" points="96.32 101.86 93.15 100.05 93.15 100.89 96.32 102.7 96.32 101.86"/>
          <polygon class="cls-27" points="96.32 104.57 93.15 102.76 93.15 103.6 96.32 105.42 96.32 104.57"/>
          <polygon class="cls-27" points="96.32 107.28 93.15 105.47 93.15 106.31 96.32 108.13 96.32 107.28"/>
          <polygon class="cls-27" points="96.32 109.99 93.15 108.18 93.15 109.03 96.32 110.84 96.32 109.99"/>
          <polygon class="cls-27" points="96.32 112.71 93.15 110.89 93.15 111.74 96.32 113.55 96.32 112.71"/>
          <polygon class="cls-27" points="96.32 115.42 93.15 113.6 93.15 114.45 96.32 116.26 96.32 115.42"/>
          <polygon class="cls-27" points="96.32 118.13 93.15 116.32 93.15 117.16 96.32 118.97 96.32 118.13"/>
          <polygon class="cls-27" points="96.32 120.84 93.15 119.03 93.15 119.87 96.32 121.69 96.32 120.84"/>
          <polygon class="cls-27" points="96.32 123.55 93.15 121.74 93.15 122.58 96.32 124.4 96.32 123.55"/>
        </g>
        <g class="cls-2">
          <g>
            <polygon class="cls-27" points="77.34 25.32 74.16 23.51 74.16 24.35 77.34 26.16 77.34 25.32"/>
            <polygon class="cls-27" points="77.34 28.03 74.16 26.22 74.16 27.06 77.34 28.88 77.34 28.03"/>
            <polygon class="cls-27" points="77.34 30.74 74.16 28.93 74.16 29.77 77.34 31.59 77.34 30.74"/>
            <polygon class="cls-27" points="77.34 33.45 74.16 31.64 74.16 32.49 77.34 34.3 77.34 33.45"/>
            <polygon class="cls-27" points="77.34 36.17 74.16 34.35 74.16 35.2 77.34 37.01 77.34 36.17"/>
            <polygon class="cls-27" points="77.34 38.88 74.16 37.06 74.16 37.91 77.34 39.72 77.34 38.88"/>
            <polygon class="cls-27" points="77.34 41.59 74.16 39.78 74.16 40.62 77.34 42.43 77.34 41.59"/>
            <polygon class="cls-27" points="77.34 44.3 74.16 42.49 74.16 43.33 77.34 45.15 77.34 44.3"/>
            <polygon class="cls-27" points="77.34 47.01 74.16 45.2 74.16 46.04 77.34 47.86 77.34 47.01"/>
            <polygon class="cls-27" points="77.34 49.72 74.16 47.91 74.16 48.76 77.34 50.57 77.34 49.72"/>
            <polygon class="cls-27" points="77.34 52.43 74.16 50.62 74.16 51.47 77.34 53.28 77.34 52.43"/>
            <polygon class="cls-27" points="77.34 55.15 74.16 53.33 74.16 54.18 77.34 55.99 77.34 55.15"/>
            <polygon class="cls-27" points="77.34 57.86 74.16 56.04 74.16 56.89 77.34 58.7 77.34 57.86"/>
            <polygon class="cls-27" points="77.34 60.57 74.16 58.76 74.16 59.6 77.34 61.41 77.34 60.57"/>
            <polygon class="cls-27" points="77.34 63.28 74.16 61.47 74.16 62.31 77.34 64.13 77.34 63.28"/>
            <polygon class="cls-27" points="77.34 65.99 74.16 64.18 74.16 65.02 77.34 66.84 77.34 65.99"/>
            <polygon class="cls-27" points="77.34 68.7 74.16 66.89 74.16 67.74 77.34 69.55 77.34 68.7"/>
            <polygon class="cls-27" points="77.34 71.42 74.16 69.6 74.16 70.45 77.34 72.26 77.34 71.42"/>
            <polygon class="cls-27" points="77.34 74.13 74.16 72.31 74.16 73.16 77.34 74.97 77.34 74.13"/>
            <polygon class="cls-27" points="77.34 76.84 74.16 75.03 74.16 75.87 77.34 77.68 77.34 76.84"/>
            <polygon class="cls-27" points="77.34 79.55 74.16 77.74 74.16 78.58 77.34 80.4 77.34 79.55"/>
            <polygon class="cls-27" points="77.34 82.26 74.16 80.45 74.16 81.29 77.34 83.11 77.34 82.26"/>
            <polygon class="cls-27" points="77.34 84.97 74.16 83.16 74.16 84.01 77.34 85.82 77.34 84.97"/>
            <polygon class="cls-27" points="77.34 87.69 74.16 85.87 74.16 86.72 77.34 88.53 77.34 87.69"/>
            <polygon class="cls-27" points="77.34 90.4 74.16 88.58 74.16 89.43 77.34 91.24 77.34 90.4"/>
            <polygon class="cls-27" points="77.34 93.11 74.16 91.29 74.16 92.14 77.34 93.95 77.34 93.11"/>
            <polygon class="cls-27" points="77.34 95.82 74.16 94.01 74.16 94.85 77.34 96.67 77.34 95.82"/>
            <polygon class="cls-27" points="77.34 98.53 74.16 96.72 74.16 97.56 77.34 99.38 77.34 98.53"/>
            <polygon class="cls-27" points="77.34 101.24 74.16 99.43 74.16 100.27 77.34 102.09 77.34 101.24"/>
            <polygon class="cls-27" points="77.34 103.95 74.16 102.14 74.16 102.99 77.34 104.8 77.34 103.95"/>
            <polygon class="cls-27" points="77.34 106.67 74.16 104.85 74.16 105.7 77.34 107.51 77.34 106.67"/>
            <polygon class="cls-27" points="77.34 109.38 74.16 107.56 74.16 108.41 77.34 110.22 77.34 109.38"/>
            <polygon class="cls-27" points="77.34 112.09 74.16 110.28 74.16 111.12 77.34 112.93 77.34 112.09"/>
            <polygon class="cls-27" points="77.34 114.8 74.16 112.99 74.16 113.83 77.34 115.65 77.34 114.8"/>
            <polygon class="cls-27" points="77.34 117.51 74.16 115.7 74.16 116.54 77.34 118.36 77.34 117.51"/>
            <polygon class="cls-27" points="77.34 120.22 74.16 118.41 74.16 119.26 77.34 121.07 77.34 120.22"/>
            <polygon class="cls-27" points="77.34 122.94 74.16 121.12 74.16 121.97 77.34 123.78 77.34 122.94"/>
          </g>
        </g>
        <g class="cls-24">
          <g>
            <polygon class="cls-27" points="71.96 22.23 68.79 20.42 68.79 21.26 71.96 23.08 71.96 22.23"/>
            <polygon class="cls-27" points="71.96 24.94 68.79 23.13 68.79 23.98 71.96 25.79 71.96 24.94"/>
            <polygon class="cls-27" points="71.96 27.65 68.79 25.84 68.79 26.69 71.96 28.5 71.96 27.65"/>
            <polygon class="cls-27" points="71.96 30.37 68.79 28.55 68.79 29.4 71.96 31.21 71.96 30.37"/>
            <polygon class="cls-27" points="71.96 33.08 68.79 31.26 68.79 32.11 71.96 33.92 71.96 33.08"/>
            <polygon class="cls-27" points="71.96 35.79 68.79 33.98 68.79 34.82 71.96 36.63 71.96 35.79"/>
            <polygon class="cls-27" points="71.96 38.5 68.79 36.69 68.79 37.53 71.96 39.35 71.96 38.5"/>
            <polygon class="cls-27" points="71.96 41.21 68.79 39.4 68.79 40.24 71.96 42.06 71.96 41.21"/>
            <polygon class="cls-27" points="71.96 43.92 68.79 42.11 68.79 42.96 71.96 44.77 71.96 43.92"/>
            <polygon class="cls-27" points="71.96 46.64 68.79 44.82 68.79 45.67 71.96 47.48 71.96 46.64"/>
            <polygon class="cls-27" points="71.96 49.35 68.79 47.53 68.79 48.38 71.96 50.19 71.96 49.35"/>
            <polygon class="cls-27" points="71.96 52.06 68.79 50.25 68.79 51.09 71.96 52.9 71.96 52.06"/>
            <polygon class="cls-27" points="71.96 54.77 68.79 52.96 68.79 53.8 71.96 55.62 71.96 54.77"/>
            <polygon class="cls-27" points="71.96 57.48 68.79 55.67 68.79 56.51 71.96 58.33 71.96 57.48"/>
            <polygon class="cls-27" points="71.96 60.19 68.79 58.38 68.79 59.23 71.96 61.04 71.96 60.19"/>
            <polygon class="cls-27" points="71.96 62.91 68.79 61.09 68.79 61.94 71.96 63.75 71.96 62.91"/>
            <polygon class="cls-27" points="71.96 65.62 68.79 63.8 68.79 64.65 71.96 66.46 71.96 65.62"/>
            <polygon class="cls-27" points="71.96 68.33 68.79 66.51 68.79 67.36 71.96 69.17 71.96 68.33"/>
            <polygon class="cls-27" points="71.96 71.04 68.79 69.23 68.79 70.07 71.96 71.89 71.96 71.04"/>
            <polygon class="cls-27" points="71.96 73.75 68.79 71.94 68.79 72.78 71.96 74.6 71.96 73.75"/>
            <polygon class="cls-27" points="71.96 76.46 68.79 74.65 68.79 75.49 71.96 77.31 71.96 76.46"/>
            <polygon class="cls-27" points="71.96 79.17 68.79 77.36 68.79 78.21 71.96 80.02 71.96 79.17"/>
            <polygon class="cls-27" points="71.96 81.89 68.79 80.07 68.79 80.92 71.96 82.73 71.96 81.89"/>
            <polygon class="cls-27" points="71.96 84.6 68.79 82.78 68.79 83.63 71.96 85.44 71.96 84.6"/>
            <polygon class="cls-27" points="71.96 87.31 68.79 85.5 68.79 86.34 71.96 88.15 71.96 87.31"/>
            <polygon class="cls-27" points="71.96 90.02 68.79 88.21 68.79 89.05 71.96 90.87 71.96 90.02"/>
            <polygon class="cls-27" points="71.96 92.73 68.79 90.92 68.79 91.76 71.96 93.58 71.96 92.73"/>
            <polygon class="cls-27" points="71.96 95.44 68.79 93.63 68.79 94.48 71.96 96.29 71.96 95.44"/>
            <polygon class="cls-27" points="71.96 98.16 68.79 96.34 68.79 97.19 71.96 99 71.96 98.16"/>
            <polygon class="cls-27" points="71.96 100.87 68.79 99.05 68.79 99.9 71.96 101.71 71.96 100.87"/>
            <polygon class="cls-27" points="71.96 103.58 68.79 101.77 68.79 102.61 71.96 104.42 71.96 103.58"/>
            <polygon class="cls-27" points="71.96 106.29 68.79 104.48 68.79 105.32 71.96 107.14 71.96 106.29"/>
            <polygon class="cls-27" points="71.96 109 68.79 107.19 68.79 108.03 71.96 109.85 71.96 109"/>
            <polygon class="cls-27" points="71.96 111.71 68.79 109.9 68.79 110.75 71.96 112.56 71.96 111.71"/>
            <polygon class="cls-27" points="71.96 114.42 68.79 112.61 68.79 113.46 71.96 115.27 71.96 114.42"/>
            <polygon class="cls-27" points="71.96 117.14 68.79 115.32 68.79 116.17 71.96 117.98 71.96 117.14"/>
            <polygon class="cls-27" points="71.96 119.85 68.79 118.03 68.79 118.88 71.96 120.69 71.96 119.85"/>
          </g>
        </g>
        <g class="cls-22">
          <g>
            <polygon class="cls-27" points="99.94 27.27 103.12 25.46 103.12 26.3 99.94 28.12 99.94 27.27"/>
            <polygon class="cls-27" points="99.94 29.98 103.12 28.17 103.12 29.01 99.94 30.83 99.94 29.98"/>
            <polygon class="cls-27" points="99.94 32.69 103.12 30.88 103.12 31.73 99.94 33.54 99.94 32.69"/>
            <polygon class="cls-27" points="99.94 35.41 103.12 33.59 103.12 34.44 99.94 36.25 99.94 35.41"/>
            <polygon class="cls-27" points="99.94 38.12 103.12 36.3 103.12 37.15 99.94 38.96 99.94 38.12"/>
            <polygon class="cls-27" points="99.94 40.83 103.12 39.02 103.12 39.86 99.94 41.67 99.94 40.83"/>
            <polygon class="cls-27" points="99.94 43.54 103.12 41.73 103.12 42.57 99.94 44.39 99.94 43.54"/>
            <polygon class="cls-27" points="99.94 46.25 103.12 44.44 103.12 45.28 99.94 47.1 99.94 46.25"/>
            <polygon class="cls-27" points="99.94 48.96 103.12 47.15 103.12 48 99.94 49.81 99.94 48.96"/>
            <polygon class="cls-27" points="99.94 51.67 103.12 49.86 103.12 50.71 99.94 52.52 99.94 51.67"/>
            <polygon class="cls-27" points="99.94 54.39 103.12 52.57 103.12 53.42 99.94 55.23 99.94 54.39"/>
            <polygon class="cls-27" points="99.94 57.1 103.12 55.28 103.12 56.13 99.94 57.94 99.94 57.1"/>
            <polygon class="cls-27" points="99.94 59.81 103.12 58 103.12 58.84 99.94 60.65 99.94 59.81"/>
            <polygon class="cls-27" points="99.94 62.52 103.12 60.71 103.12 61.55 99.94 63.37 99.94 62.52"/>
            <polygon class="cls-27" points="99.94 65.23 103.12 63.42 103.12 64.26 99.94 66.08 99.94 65.23"/>
            <polygon class="cls-27" points="99.94 67.94 103.12 66.13 103.12 66.98 99.94 68.79 99.94 67.94"/>
            <polygon class="cls-27" points="99.94 70.66 103.12 68.84 103.12 69.69 99.94 71.5 99.94 70.66"/>
            <polygon class="cls-27" points="99.94 73.37 103.12 71.55 103.12 72.4 99.94 74.21 99.94 73.37"/>
            <polygon class="cls-27" points="99.94 76.08 103.12 74.27 103.12 75.11 99.94 76.92 99.94 76.08"/>
            <polygon class="cls-27" points="99.94 78.79 103.12 76.98 103.12 77.82 99.94 79.64 99.94 78.79"/>
            <polygon class="cls-27" points="99.94 81.5 103.12 79.69 103.12 80.53 99.94 82.35 99.94 81.5"/>
            <polygon class="cls-27" points="99.94 84.21 103.12 82.4 103.12 83.25 99.94 85.06 99.94 84.21"/>
            <polygon class="cls-27" points="99.94 86.92 103.12 85.11 103.12 85.96 99.94 87.77 99.94 86.92"/>
            <polygon class="cls-27" points="99.94 89.64 103.12 87.82 103.12 88.67 99.94 90.48 99.94 89.64"/>
            <polygon class="cls-27" points="99.94 92.35 103.12 90.53 103.12 91.38 99.94 93.19 99.94 92.35"/>
            <polygon class="cls-27" points="99.94 95.06 103.12 93.25 103.12 94.09 99.94 95.91 99.94 95.06"/>
            <polygon class="cls-27" points="99.94 97.77 103.12 95.96 103.12 96.8 99.94 98.62 99.94 97.77"/>
            <polygon class="cls-27" points="99.94 100.48 103.12 98.67 103.12 99.51 99.94 101.33 99.94 100.48"/>
            <polygon class="cls-27" points="99.94 103.19 103.12 101.38 103.12 102.23 99.94 104.04 99.94 103.19"/>
            <polygon class="cls-27" points="99.94 105.91 103.12 104.09 103.12 104.94 99.94 106.75 99.94 105.91"/>
            <polygon class="cls-27" points="99.94 108.62 103.12 106.8 103.12 107.65 99.94 109.46 99.94 108.62"/>
            <polygon class="cls-27" points="99.94 111.33 103.12 109.52 103.12 110.36 99.94 112.17 99.94 111.33"/>
            <polygon class="cls-27" points="99.94 114.04 103.12 112.23 103.12 113.07 99.94 114.89 99.94 114.04"/>
            <polygon class="cls-27" points="99.94 116.75 103.12 114.94 103.12 115.78 99.94 117.6 99.94 116.75"/>
            <polygon class="cls-27" points="99.94 119.46 103.12 117.65 103.12 118.5 99.94 120.31 99.94 119.46"/>
            <polygon class="cls-27" points="99.94 122.18 103.12 120.36 103.12 121.21 99.94 123.02 99.94 122.18"/>
            <polygon class="cls-27" points="99.94 124.89 103.12 123.07 103.12 123.92 99.94 125.73 99.94 124.89"/>
          </g>
        </g>
        <g class="cls-23">
          <g>
            <polygon class="cls-27" points="106.29 25.37 109.46 23.55 109.46 24.4 106.29 26.21 106.29 25.37"/>
            <polygon class="cls-27" points="106.29 28.08 109.46 26.27 109.46 27.11 106.29 28.92 106.29 28.08"/>
            <polygon class="cls-27" points="106.29 30.79 109.46 28.98 109.46 29.82 106.29 31.64 106.29 30.79"/>
            <polygon class="cls-27" points="106.29 33.5 109.46 31.69 109.46 32.53 106.29 34.35 106.29 33.5"/>
            <polygon class="cls-27" points="106.29 36.21 109.46 34.4 109.46 35.25 106.29 37.06 106.29 36.21"/>
            <polygon class="cls-27" points="106.29 38.92 109.46 37.11 109.46 37.96 106.29 39.77 106.29 38.92"/>
            <polygon class="cls-27" points="106.29 41.64 109.46 39.82 109.46 40.67 106.29 42.48 106.29 41.64"/>
            <polygon class="cls-27" points="106.29 44.35 109.46 42.53 109.46 43.38 106.29 45.19 106.29 44.35"/>
            <polygon class="cls-27" points="106.29 47.06 109.46 45.25 109.46 46.09 106.29 47.9 106.29 47.06"/>
            <polygon class="cls-27" points="106.29 49.77 109.46 47.96 109.46 48.8 106.29 50.62 106.29 49.77"/>
            <polygon class="cls-27" points="106.29 52.48 109.46 50.67 109.46 51.51 106.29 53.33 106.29 52.48"/>
            <polygon class="cls-27" points="106.29 55.19 109.46 53.38 109.46 54.23 106.29 56.04 106.29 55.19"/>
            <polygon class="cls-27" points="106.29 57.91 109.46 56.09 109.46 56.94 106.29 58.75 106.29 57.91"/>
            <polygon class="cls-27" points="106.29 60.62 109.46 58.8 109.46 59.65 106.29 61.46 106.29 60.62"/>
            <polygon class="cls-27" points="106.29 63.33 109.46 61.52 109.46 62.36 106.29 64.17 106.29 63.33"/>
            <polygon class="cls-27" points="106.29 66.04 109.46 64.23 109.46 65.07 106.29 66.89 106.29 66.04"/>
            <polygon class="cls-27" points="106.29 68.75 109.46 66.94 109.46 67.78 106.29 69.6 106.29 68.75"/>
            <polygon class="cls-27" points="106.29 71.46 109.46 69.65 109.46 70.5 106.29 72.31 106.29 71.46"/>
            <polygon class="cls-27" points="106.29 74.17 109.46 72.36 109.46 73.21 106.29 75.02 106.29 74.17"/>
            <polygon class="cls-27" points="106.29 76.89 109.46 75.07 109.46 75.92 106.29 77.73 106.29 76.89"/>
            <polygon class="cls-27" points="106.29 79.6 109.46 77.78 109.46 78.63 106.29 80.44 106.29 79.6"/>
            <polygon class="cls-27" points="106.29 82.31 109.46 80.5 109.46 81.34 106.29 83.16 106.29 82.31"/>
            <polygon class="cls-27" points="106.29 85.02 109.46 83.21 109.46 84.05 106.29 85.87 106.29 85.02"/>
            <polygon class="cls-27" points="106.29 87.73 109.46 85.92 109.46 86.76 106.29 88.58 106.29 87.73"/>
            <polygon class="cls-27" points="106.29 90.44 109.46 88.63 109.46 89.48 106.29 91.29 106.29 90.44"/>
            <polygon class="cls-27" points="106.29 93.16 109.46 91.34 109.46 92.19 106.29 94 106.29 93.16"/>
            <polygon class="cls-27" points="106.29 95.87 109.46 94.05 109.46 94.9 106.29 96.71 106.29 95.87"/>
            <polygon class="cls-27" points="106.29 98.58 109.46 96.77 109.46 97.61 106.29 99.42 106.29 98.58"/>
            <polygon class="cls-27" points="106.29 101.29 109.46 99.48 109.46 100.32 106.29 102.14 106.29 101.29"/>
            <polygon class="cls-27" points="106.29 104 109.46 102.19 109.46 103.03 106.29 104.85 106.29 104"/>
            <polygon class="cls-27" points="106.29 106.71 109.46 104.9 109.46 105.75 106.29 107.56 106.29 106.71"/>
            <polygon class="cls-27" points="106.29 109.43 109.46 107.61 109.46 108.46 106.29 110.27 106.29 109.43"/>
            <polygon class="cls-27" points="106.29 112.14 109.46 110.32 109.46 111.17 106.29 112.98 106.29 112.14"/>
            <polygon class="cls-27" points="106.29 114.85 109.46 113.04 109.46 113.88 106.29 115.69 106.29 114.85"/>
            <polygon class="cls-27" points="106.29 117.56 109.46 115.75 109.46 116.59 106.29 118.41 106.29 117.56"/>
            <polygon class="cls-27" points="106.29 120.27 109.46 118.46 109.46 119.3 106.29 121.12 106.29 120.27"/>
            <polygon class="cls-27" points="106.29 122.98 109.46 121.17 109.46 122.02 106.29 123.83 106.29 122.98"/>
          </g>
        </g>
      </g>
    </g>
  </g>
</svg>