<?xml version="1.0" encoding="UTF-8"?>
<svg id="Layer_2" data-name="Layer 2" xmlns="http://www.w3.org/2000/svg" xmlns:xlink="http://www.w3.org/1999/xlink" viewBox="0 0 521.25 135.7">
  <defs>
    <style>
      .cls-1 {
        stroke: #cc2634;
        stroke-width: 1.23px;
      }

      .cls-1, .cls-2, .cls-3 {
        fill: none;
        stroke-linecap: round;
        stroke-linejoin: round;
      }

      .cls-4 {
        fill: url(#linear-gradient-3);
      }

      .cls-5 {
        fill: url(#linear-gradient-2);
      }

      .cls-2, .cls-3 {
        stroke: #bb202e;
        stroke-width: 4.74px;
      }

      .cls-3 {
        stroke-dasharray: 0 16.81;
      }

      .cls-6 {
        fill: url(#linear-gradient);
      }

      .cls-7 {
        fill: #f38833;
      }
    </style>
    <linearGradient id="linear-gradient" x1="468.11" y1="75.29" x2="595.58" y2="160.28" gradientUnits="userSpaceOnUse">
      <stop offset="0" stop-color="#f9ec42"/>
      <stop offset=".05" stop-color="#f9df31"/>
      <stop offset=".12" stop-color="#fad01f"/>
      <stop offset=".2" stop-color="#fac713"/>
      <stop offset=".28" stop-color="#fbc510"/>
      <stop offset=".67" stop-color="#f08d3f"/>
      <stop offset=".89" stop-color="#eb683c"/>
      <stop offset="1" stop-color="#e63e39"/>
    </linearGradient>
    <linearGradient id="linear-gradient-2" x1="496.64" y1="65.92" x2="502.46" y2="114.23" xlink:href="#linear-gradient"/>
    <linearGradient id="linear-gradient-3" x1="470.89" y1="71.84" x2="526.18" y2="122.48" xlink:href="#linear-gradient"/>
  </defs>
  <g id="Text">
    <g>
      <g>
        <path class="cls-7" d="M90.01,26.16h10.15c11.3,0,18.3,5.9,18.3,18.4s-7,18.65-17.9,18.65h-10.55V26.16ZM99.71,57.27c6.9,0,11.2-3.7,11.2-12.7s-4.3-12.45-11.2-12.45h-2.3v25.15h2.3Z"/>
        <path class="cls-7" d="M125.7,26.16h22.7v6.2h-15.3v8.55h13v6.2h-13v9.9h15.85v6.2h-23.25V26.16Z"/>
        <path class="cls-7" d="M163.8,32.37h-10.4v-6.2h28.3v6.2h-10.5v30.85h-7.4v-30.85Z"/>
        <path class="cls-7" d="M194.8,26.16h8.7l11.9,37.05h-7.75l-2.6-9.5h-12l-2.6,9.5h-7.5l11.85-37.05ZM194.66,47.97h8.8l-1.1-4.05c-1.15-3.85-2.15-8.1-3.2-12.1h-.25c-.95,4.05-2.05,8.25-3.15,12.1l-1.1,4.05Z"/>
        <path class="cls-7" d="M219.75,26.16h7.4v37.05h-7.4V26.16Z"/>
        <path class="cls-7" d="M236.25,26.16h7.4v30.85h15.05v6.2h-22.45V26.16Z"/>
        <path class="cls-7" d="M265.15,26.16h22.7v6.2h-15.3v8.55h13v6.2h-13v9.9h15.85v6.2h-23.25V26.16Z"/>
        <path class="cls-7" d="M295.9,26.16h10.15c11.3,0,18.3,5.9,18.3,18.4s-7,18.65-17.9,18.65h-10.55V26.16ZM305.6,57.27c6.9,0,11.2-3.7,11.2-12.7s-4.3-12.45-11.2-12.45h-2.3v25.15h2.3Z"/>
        <path class="cls-7" d="M342.95,26.16h10.15c11.3,0,18.3,5.9,18.3,18.4s-7,18.65-17.9,18.65h-10.55V26.16ZM352.65,57.27c6.9,0,11.2-3.7,11.2-12.7s-4.3-12.45-11.2-12.45h-2.3v25.15h2.3Z"/>
        <path class="cls-7" d="M378.65,26.16h22.7v6.2h-15.3v8.55h13v6.2h-13v9.9h15.85v6.2h-23.25V26.16Z"/>
        <path class="cls-7" d="M406.95,58.52l4.25-5.1c2.65,2.45,6.15,4.1,9.4,4.1,3.85,0,5.9-1.65,5.9-4.25,0-2.75-2.25-3.6-5.55-5l-4.95-2.1c-3.75-1.55-7.5-4.55-7.5-9.95,0-6.05,5.3-10.7,12.8-10.7,4.3,0,8.6,1.7,11.6,4.75l-3.75,4.65c-2.35-1.95-4.8-3.05-7.85-3.05-3.25,0-5.3,1.45-5.3,3.9,0,2.65,2.6,3.6,5.75,4.85l4.85,2.05c4.5,1.85,7.45,4.7,7.45,10.05,0,6.05-5.05,11.2-13.6,11.2-4.95,0-9.9-1.95-13.5-5.4Z"/>
        <path class="cls-7" d="M440.6,26.16h7.4v37.05h-7.4V26.16Z"/>
        <path class="cls-7" d="M455.25,44.87c0-12.2,7.9-19.35,17.75-19.35,5.35,0,9.05,2.3,11.45,4.75l-3.9,4.7c-1.85-1.75-3.95-3.1-7.3-3.1-6.15,0-10.45,4.8-10.45,12.75s3.7,12.9,11,12.9c1.75,0,3.55-.5,4.6-1.4v-7.3h-6.55v-6.05h13.15v16.7c-2.5,2.45-6.85,4.45-12,4.45-10.05,0-17.75-6.7-17.75-19.05Z"/>
        <path class="cls-7" d="M492.95,26.16h7.55l10.75,19.75,3.7,8h.25c-.35-3.85-.95-8.75-.95-12.95v-14.8h7v37.05h-7.5l-10.7-19.8-3.75-7.95h-.25c.35,4,.9,8.65.9,12.9v14.85h-7V26.16Z"/>
      </g>
      <line class="cls-1" x1="71.91" y1=".62" x2="71.91" y2="83.35"/>
      <path class="cls-7" d="M1.22,79.39v-11.88l27.75-25.69c2.36-2.28,4.35-4.34,5.96-6.17s2.83-3.62,3.67-5.39c.84-1.76,1.26-3.67,1.26-5.73,0-2.28-.52-4.26-1.56-5.92-1.04-1.66-2.46-2.94-4.26-3.84-1.8-.9-3.84-1.35-6.13-1.35s-4.47.48-6.24,1.45c-1.78.96-3.15,2.35-4.11,4.15-.96,1.8-1.45,3.95-1.45,6.43H.45c0-5.1,1.15-9.53,3.46-13.28,2.31-3.75,5.54-6.66,9.71-8.72C17.78,1.4,22.58.38,28.01.38s10.45.98,14.6,2.95c4.15,1.97,7.38,4.69,9.69,8.16s3.46,7.46,3.46,11.95c0,2.94-.58,5.85-1.73,8.72-1.16,2.87-3.2,6.04-6.15,9.53-2.94,3.49-7.09,7.67-12.45,12.54l-11.38,11.15v.53h32.73v13.47H1.22Z"/>
      <g>
        <line class="cls-2" x1="2.37" y1="105.25" x2="2.37" y2="105.25"/>
        <line class="cls-3" x1="19.18" y1="105.25" x2="481.59" y2="105.25"/>
        <line class="cls-2" x1="489.99" y1="105.25" x2="489.99" y2="105.25"/>
      </g>
      <g>
        <polygon class="cls-6" points="514.17 100.45 505.84 95.64 497.51 100.45 505.84 105.25 514.17 100.45"/>
        <polygon class="cls-5" points="505.84 105.25 497.51 100.45 497.51 110.06 505.84 114.87 505.84 105.25"/>
        <polygon class="cls-4" points="514.17 100.45 505.84 105.25 505.84 114.87 514.17 110.06 514.17 100.45"/>
      </g>
      <polygon class="cls-7" points="2.37 135.7 198.81 135.7 214.27 115.53 2.37 115.53 2.37 135.7"/>
    </g>
  </g>
</svg>