<?xml version="1.0" encoding="UTF-8"?>
<svg id="Layer_2" data-name="Layer 2" xmlns="http://www.w3.org/2000/svg" xmlns:xlink="http://www.w3.org/1999/xlink" viewBox="0 0 379.14 135.32">
  <defs>
    <style>
      .cls-1 {
        fill: url(#linear-gradient-3);
      }

      .cls-2 {
        fill: url(#linear-gradient-2);
      }

      .cls-3 {
        fill: url(#linear-gradient);
      }

      .cls-4 {
        fill: #dea639;
      }

      .cls-5 {
        stroke: #c02a31;
        stroke-width: 1.23px;
      }

      .cls-5, .cls-6, .cls-7 {
        fill: none;
        stroke-linecap: round;
        stroke-linejoin: round;
      }

      .cls-6 {
        stroke-dasharray: 0 16.53;
      }

      .cls-6, .cls-7 {
        stroke: #ae252c;
        stroke-width: 4.74px;
      }
    </style>
    <linearGradient id="linear-gradient" x1="333.09" y1="74.92" x2="460.56" y2="159.9" gradientUnits="userSpaceOnUse">
      <stop offset="0" stop-color="#f6e756"/>
      <stop offset=".03" stop-color="#f6de50"/>
      <stop offset=".11" stop-color="#f6cc44"/>
      <stop offset=".19" stop-color="#f6c03c"/>
      <stop offset=".28" stop-color="#f7bd3a"/>
      <stop offset=".67" stop-color="#e98344"/>
      <stop offset=".89" stop-color="#e3613d"/>
      <stop offset="1" stop-color="#dd3d37"/>
    </linearGradient>
    <linearGradient id="linear-gradient-2" x1="361.62" y1="65.54" x2="367.44" y2="113.85" xlink:href="#linear-gradient"/>
    <linearGradient id="linear-gradient-3" x1="335.86" y1="71.46" x2="391.16" y2="122.1" xlink:href="#linear-gradient"/>
  </defs>
  <g id="Text">
    <g>
      <g>
        <path class="cls-4" d="M106.96,31.94h-10.4v-6.2h28.3v6.2h-10.5v30.85h-7.4v-30.85Z"/>
        <path class="cls-4" d="M129.61,25.74h22.7v6.2h-15.3v8.55h13v6.2h-13v9.9h15.85v6.2h-23.25V25.74Z"/>
        <path class="cls-4" d="M159.11,25.74h7.55l10.75,19.75,3.7,8h.25c-.35-3.85-.95-8.75-.95-12.95v-14.8h7v37.05h-7.5l-10.7-19.8-3.75-7.95h-.25c.35,4,.9,8.65.9,12.9v14.85h-7V25.74Z"/>
        <path class="cls-4" d="M195.31,25.74h10.15c11.3,0,18.3,5.9,18.3,18.4s-7,18.65-17.9,18.65h-10.55V25.74ZM205.01,56.84c6.9,0,11.2-3.7,11.2-12.7s-4.3-12.45-11.2-12.45h-2.3v25.15h2.3Z"/>
        <path class="cls-4" d="M229.76,25.74h22.7v6.2h-15.3v8.55h13v6.2h-13v9.9h15.85v6.2h-23.25V25.74Z"/>
        <path class="cls-4" d="M259.26,25.74h12.9c7.75,0,13.9,2.75,13.9,11.25,0,5.55-2.8,9-7.05,10.65l8.65,15.15h-8.25l-7.6-14h-5.15v14h-7.4V25.74ZM271.46,42.94c4.75,0,7.4-2,7.4-5.95s-2.65-5.35-7.4-5.35h-4.8v11.3h4.8Z"/>
        <path class="cls-4" d="M292.11,25.74h7.4v37.05h-7.4V25.74Z"/>
        <path class="cls-4" d="M307.36,25.74h7.55l10.75,19.75,3.7,8h.25c-.35-3.85-.95-8.75-.95-12.95v-14.8h7v37.05h-7.5l-10.7-19.8-3.75-7.95h-.25c.35,4,.9,8.65.9,12.9v14.85h-7V25.74Z"/>
        <path class="cls-4" d="M341.71,44.44c0-12.2,7.9-19.35,17.75-19.35,5.35,0,9.05,2.3,11.45,4.75l-3.9,4.7c-1.85-1.75-3.95-3.1-7.3-3.1-6.15,0-10.45,4.8-10.45,12.75s3.7,12.9,11,12.9c1.75,0,3.55-.5,4.6-1.4v-7.3h-6.55v-6.05h13.15v16.7c-2.5,2.45-6.85,4.45-12,4.45-10.05,0-17.75-6.7-17.75-19.05Z"/>
      </g>
      <line class="cls-5" x1="85.28" y1="1.86" x2="85.28" y2="82.98"/>
      <path class="cls-4" d="M32.23,80.08c-5.68,0-10.74-.98-15.17-2.95-4.43-1.97-7.92-4.68-10.47-8.15-2.55-3.46-3.86-7.47-3.94-12.01h16.59c.1,1.9.73,3.57,1.88,5,1.15,1.43,2.7,2.54,4.62,3.33,1.93.79,4.1,1.18,6.51,1.18s4.73-.44,6.66-1.33c1.93-.89,3.44-2.12,4.53-3.69s1.64-3.39,1.64-5.44-.58-3.93-1.73-5.54c-1.16-1.61-2.8-2.87-4.95-3.79-2.14-.91-4.69-1.37-7.63-1.37h-7.27v-12.1h7.27c2.49,0,4.69-.43,6.6-1.29,1.92-.86,3.41-2.06,4.47-3.6,1.07-1.53,1.6-3.33,1.6-5.38s-.46-3.67-1.39-5.16c-.93-1.48-2.22-2.65-3.88-3.48-1.66-.84-3.6-1.26-5.8-1.26s-4.28.4-6.13,1.2c-1.85.8-3.34,1.94-4.45,3.41-1.12,1.47-1.71,3.2-1.79,5.18H4.22c.08-4.49,1.36-8.45,3.84-11.88,2.49-3.43,5.84-6.11,10.07-8.05S27.13,0,32.46,0s10.09.98,14.12,2.93c4.03,1.96,7.17,4.59,9.42,7.9,2.25,3.31,3.36,7.02,3.33,11.13.03,4.37-1.33,8.01-4.05,10.92s-6.27,4.77-10.64,5.56v.61c5.73.74,10.11,2.72,13.11,5.96s4.5,7.28,4.47,12.12c.03,4.44-1.25,8.39-3.83,11.84-2.58,3.45-6.12,6.17-10.64,8.14-4.52,1.98-9.69,2.97-15.53,2.97Z"/>
      <polygon class="cls-4" points="2.37 135.32 253.56 135.32 269.02 115.15 2.37 115.15 2.37 135.32"/>
      <g>
        <line class="cls-7" x1="2.37" y1="104.88" x2="2.37" y2="104.88"/>
        <line class="cls-6" x1="18.9" y1="104.88" x2="357.86" y2="104.88"/>
        <line class="cls-7" x1="366.12" y1="104.88" x2="366.12" y2="104.88"/>
      </g>
      <g>
        <polygon class="cls-3" points="379.14 100.07 370.81 95.26 362.48 100.07 370.81 104.88 379.14 100.07"/>
        <polygon class="cls-2" points="370.81 104.88 362.48 100.07 362.48 109.69 370.81 114.49 370.81 104.88"/>
        <polygon class="cls-1" points="379.14 100.07 370.81 104.88 370.81 114.49 379.14 109.69 379.14 100.07"/>
      </g>
    </g>
  </g>
</svg>