<?xml version="1.0" encoding="UTF-8"?>
<svg id="Layer_2" data-name="Layer 2" xmlns="http://www.w3.org/2000/svg" xmlns:xlink="http://www.w3.org/1999/xlink" viewBox="0 0 747.69 134.86">
  <defs>
    <style>
      .cls-1 {
        stroke: #cc2634;
        stroke-width: 1.23px;
      }

      .cls-1, .cls-2, .cls-3 {
        fill: none;
        stroke-linecap: round;
        stroke-linejoin: round;
      }

      .cls-4 {
        fill: url(#linear-gradient-3);
      }

      .cls-5 {
        fill: url(#linear-gradient-2);
      }

      .cls-2, .cls-3 {
        stroke: #bb202e;
        stroke-width: 4.74px;
      }

      .cls-6 {
        fill: url(#linear-gradient);
      }

      .cls-7 {
        fill: #b99763;
      }

      .cls-3 {
        stroke-dasharray: 0 16.65;
      }
    </style>
    <linearGradient id="linear-gradient" x1="697.4" y1="74.6" x2="824.87" y2="159.58" gradientUnits="userSpaceOnUse">
      <stop offset="0" stop-color="#f9ec42"/>
      <stop offset=".05" stop-color="#f9df31"/>
      <stop offset=".12" stop-color="#fad01f"/>
      <stop offset=".2" stop-color="#fac713"/>
      <stop offset=".28" stop-color="#fbc510"/>
      <stop offset=".67" stop-color="#f08d3f"/>
      <stop offset=".89" stop-color="#eb683c"/>
      <stop offset="1" stop-color="#e63e39"/>
    </linearGradient>
    <linearGradient id="linear-gradient-2" x1="725.93" y1="65.22" x2="731.75" y2="113.53" xlink:href="#linear-gradient"/>
    <linearGradient id="linear-gradient-3" x1="700.18" y1="71.14" x2="755.47" y2="121.78" xlink:href="#linear-gradient"/>
  </defs>
  <g id="Text">
    <g>
      <polygon class="cls-7" points="2.37 134.86 205.56 134.86 221.02 114.68 2.37 114.68 2.37 134.86"/>
      <g>
        <path class="cls-7" d="M95,45.53c0-12.05,6.75-19.05,16.55-19.05s16.55,7.05,16.55,19.05-6.75,19.35-16.55,19.35-16.55-7.35-16.55-19.35ZM120.55,45.53c0-7.95-3.5-12.7-9-12.7s-9,4.75-9,12.7,3.5,12.95,9,12.95,9-5.05,9-12.95Z"/>
        <path class="cls-7" d="M132.85,27.13h12.15c8.2,0,14.5,2.9,14.5,11.65s-6.35,12.25-14.3,12.25h-4.95v13.15h-7.4V27.13ZM144.7,45.18c5.1,0,7.55-2.15,7.55-6.4s-2.7-5.75-7.8-5.75h-4.2v12.15h4.45Z"/>
        <path class="cls-7" d="M163.7,27.13h22.7v6.2h-15.3v8.55h13v6.2h-13v9.9h15.85v6.2h-23.25V27.13Z"/>
        <path class="cls-7" d="M191.95,27.13h12.9c7.75,0,13.9,2.75,13.9,11.25,0,5.55-2.8,9-7.05,10.65l8.65,15.15h-8.25l-7.6-14h-5.15v14h-7.4V27.13ZM204.15,44.33c4.75,0,7.4-2,7.4-5.95s-2.65-5.35-7.4-5.35h-4.8v11.3h4.8Z"/>
        <path class="cls-7" d="M230.65,27.13h8.7l11.9,37.05h-7.75l-2.6-9.5h-12l-2.6,9.5h-7.5l11.85-37.05ZM230.5,48.93h8.8l-1.1-4.05c-1.15-3.85-2.15-8.1-3.2-12.1h-.25c-.95,4.05-2.05,8.25-3.15,12.1l-1.1,4.05Z"/>
        <path class="cls-7" d="M260.45,33.33h-10.4v-6.2h28.3v6.2h-10.5v30.85h-7.4v-30.85Z"/>
        <path class="cls-7" d="M281.85,27.13h7.4v37.05h-7.4V27.13Z"/>
        <path class="cls-7" d="M293.99,45.53c0-12.05,6.75-19.05,16.55-19.05s16.55,7.05,16.55,19.05-6.75,19.35-16.55,19.35-16.55-7.35-16.55-19.35ZM319.55,45.53c0-7.95-3.5-12.7-9-12.7s-9,4.75-9,12.7,3.5,12.95,9,12.95,9-5.05,9-12.95Z"/>
        <path class="cls-7" d="M331.84,27.13h7.55l10.75,19.75,3.7,8h.25c-.35-3.85-.95-8.75-.95-12.95v-14.8h7v37.05h-7.5l-10.7-19.8-3.75-7.95h-.25c.35,4,.9,8.65.9,12.9v14.85h-7V27.13Z"/>
        <path class="cls-7" d="M372.59,54.38c0-5.15,3.25-8.15,6.95-10.5-1.5-2.8-2.35-5.55-2.35-8,0-5.15,3.8-9.4,9.7-9.4,5.3,0,8.6,3.2,8.6,8.05s-4,7.95-7.95,10.7c2.2,2.75,5.05,5.45,8,7.7,1.95-2.6,3.55-5.75,4.55-9.4h6.65c-1.35,4.6-3.35,8.85-6.25,12.7,2.4,1.35,4.65,2.3,6.6,2.65l-1.8,6c-2.95-.65-6.15-1.95-9.25-3.9-3.05,2.4-6.8,3.9-11.35,3.9-7.75,0-12.1-4.75-12.1-10.5ZM385.59,59.23c1.85,0,3.65-.7,5.4-1.85-3.15-2.6-6-5.55-8.35-8.65-1.8,1.55-3.05,3.2-3.05,5.2,0,3.15,2.45,5.3,6,5.3ZM384.64,40.83c2.9-1.75,5.15-3.55,5.15-6.25,0-1.85-.85-3.2-2.75-3.2-2.2,0-3.75,1.75-3.75,4.5,0,1.55.5,3.2,1.35,4.95Z"/>
        <path class="cls-7" d="M418.94,27.13h8.2l6.3,17.35c.8,2.3,1.5,4.75,2.25,7.1h.25c.8-2.35,1.45-4.8,2.25-7.1l6.15-17.35h8.2v37.05h-6.75v-15.45c0-3.5.55-8.65.95-12.15h-.25l-3,8.7-5.7,15.55h-4.25l-5.75-15.55-2.95-8.7h-.2c.35,3.5.95,8.65.95,12.15v15.45h-6.65V27.13Z"/>
        <path class="cls-7" d="M466.24,27.13h8.7l11.9,37.05h-7.75l-2.6-9.5h-12l-2.6,9.5h-7.5l11.85-37.05ZM466.09,48.93h8.8l-1.1-4.05c-1.15-3.85-2.15-8.1-3.2-12.1h-.25c-.95,4.05-2.05,8.25-3.15,12.1l-1.1,4.05Z"/>
        <path class="cls-7" d="M488.69,27.13h7.4v37.05h-7.4V27.13Z"/>
        <path class="cls-7" d="M502.69,27.13h7.55l10.75,19.75,3.7,8h.25c-.35-3.85-.95-8.75-.95-12.95v-14.8h7v37.05h-7.5l-10.7-19.8-3.75-7.95h-.25c.35,4,.9,8.65.9,12.9v14.85h-7V27.13Z"/>
        <path class="cls-7" d="M544.99,33.33h-10.4v-6.2h28.3v6.2h-10.5v30.85h-7.4v-30.85Z"/>
        <path class="cls-7" d="M566.39,27.13h22.7v6.2h-15.3v8.55h13v6.2h-13v9.9h15.85v6.2h-23.25V27.13Z"/>
        <path class="cls-7" d="M594.64,27.13h7.55l10.75,19.75,3.7,8h.25c-.35-3.85-.95-8.75-.95-12.95v-14.8h7v37.05h-7.5l-10.7-19.8-3.75-7.95h-.25c.35,4,.9,8.65.9,12.9v14.85h-7V27.13Z"/>
        <path class="cls-7" d="M636.69,27.13h8.7l11.9,37.05h-7.75l-2.6-9.5h-12l-2.6,9.5h-7.5l11.85-37.05ZM636.54,48.93h8.8l-1.1-4.05c-1.15-3.85-2.15-8.1-3.2-12.1h-.25c-.95,4.05-2.05,8.25-3.15,12.1l-1.1,4.05Z"/>
        <path class="cls-7" d="M659.14,27.13h7.55l10.75,19.75,3.7,8h.25c-.35-3.85-.95-8.75-.95-12.95v-14.8h7v37.05h-7.5l-10.7-19.8-3.75-7.95h-.25c.35,4,.9,8.65.9,12.9v14.85h-7V27.13Z"/>
        <path class="cls-7" d="M692.24,45.83c0-12.2,7.85-19.35,17.2-19.35,4.7,0,8.45,2.25,10.85,4.75l-3.85,4.7c-1.9-1.8-4.05-3.1-6.85-3.1-5.6,0-9.8,4.8-9.8,12.75s3.8,12.9,9.65,12.9c3.2,0,5.65-1.5,7.65-3.65l3.9,4.6c-3.05,3.55-7,5.45-11.8,5.45-9.35,0-16.95-6.7-16.95-19.05Z"/>
        <path class="cls-7" d="M724.44,27.13h22.7v6.2h-15.3v8.55h13v6.2h-13v9.9h15.85v6.2h-23.25V27.13Z"/>
      </g>
      <line class="cls-1" x1="78.75" y1=".62" x2="78.75" y2="83.35"/>
      <path class="cls-7" d="M32.52,80.46c-5.38,0-10.17-.99-14.37-2.97-4.2-1.98-7.53-4.71-9.99-8.18-2.46-3.48-3.74-7.46-3.84-11.95h15.99c.18,3.02,1.45,5.47,3.81,7.35,2.36,1.88,5.16,2.82,8.41,2.82,2.59,0,4.88-.58,6.87-1.73,1.99-1.15,3.55-2.77,4.68-4.83,1.13-2.07,1.69-4.45,1.69-7.14s-.58-5.15-1.73-7.23c-1.16-2.08-2.75-3.71-4.78-4.87s-4.35-1.76-6.96-1.79c-2.28,0-4.5.47-6.64,1.41-2.14.94-3.81,2.22-5,3.84l-14.65-2.63L9.68,1.44h47.65v13.47H23.27l-2.02,19.53h.46c1.37-1.93,3.44-3.53,6.2-4.8,2.77-1.27,5.86-1.9,9.29-1.9,4.69,0,8.88,1.1,12.56,3.31,3.68,2.21,6.58,5.23,8.72,9.08,2.13,3.84,3.18,8.27,3.16,13.26.02,5.25-1.19,9.92-3.63,13.99-2.45,4.07-5.86,7.27-10.24,9.59-4.38,2.32-9.46,3.48-15.24,3.48Z"/>
      <g>
        <line class="cls-2" x1="2.37" y1="104.56" x2="2.37" y2="104.56"/>
        <line class="cls-3" x1="19.02" y1="104.56" x2="710.18" y2="104.56"/>
        <line class="cls-2" x1="718.51" y1="104.56" x2="718.51" y2="104.56"/>
      </g>
      <g>
        <polygon class="cls-6" points="743.46 99.75 735.13 94.94 726.8 99.75 735.13 104.56 743.46 99.75"/>
        <polygon class="cls-5" points="735.13 104.56 726.8 99.75 726.8 109.37 735.13 114.17 735.13 104.56"/>
        <polygon class="cls-4" points="743.46 99.75 735.13 104.56 735.13 114.17 743.46 109.37 743.46 99.75"/>
      </g>
    </g>
  </g>
</svg>