<?xml version="1.0" encoding="UTF-8"?>
<svg id="Isolation_Mode" data-name="Isolation Mode" xmlns="http://www.w3.org/2000/svg" viewBox="0 0 34.38 27">
  <defs>
    <style>
      .cls-1 {
        fill: #ed1c24;
      }
    </style>
  </defs>
  <g id="layer2">
    <g id="g10495">
      <path id="rect8403" class="cls-1" d="M5.69,0C2.56,0,0,2.56,0,5.69v15.62c0,3.13,2.56,5.69,5.69,5.69h23c3.13,0,5.69-2.56,5.69-5.69V5.69c0-3.13-2.56-5.69-5.69-5.69H5.69ZM5.69,2.45h23c1.81,0,3.23,1.42,3.23,3.24v15.62c0,1.81-1.42,3.24-3.23,3.24H5.69c-1.81,0-3.24-1.42-3.24-3.24V5.69c0-1.81,1.42-3.24,3.24-3.24Z"/>
      <path id="path8745" class="cls-1" d="M5.32,6.47c-.49.46-.52,1.24-.05,1.73l8.28,8.78c2.06,1.83,5.42,1.84,7.03,0l8.54-8.78c.47-.49.46-1.26-.02-1.74-.49-.47-1.26-.46-1.74.02l-8.54,8.77c-.94.96-2.54.93-3.53-.02L7.05,6.52c-.54-.56-1.23-.48-1.73-.05h0Z"/>
    </g>
  </g>
</svg>