<?xml version="1.0" encoding="UTF-8"?>
<svg id="Isolation_Mode" data-name="Isolation Mode" xmlns="http://www.w3.org/2000/svg" viewBox="0 0 14.8 31.86">
  <defs>
    <style>
      .cls-1 {
        fill: #ed1c24;
      }
    </style>
  </defs>
  <path class="cls-1" d="M14.8,5.11c0,.22-.18.4-.4.4h-3.2c-.78,0-1.42.64-1.42,1.42v3.35h4.54c.23,0,.42.2.4.43l-.4,4.72c-.01.21-.19.36-.4.36h-4.15v15.66c0,.22-.18.4-.4.4H3.66c-.22,0-.4-.18-.4-.4v-15.66H.4c-.22,0-.4-.18-.4-.4v-4.71c0-.22.18-.4.4-.4h2.86v-4.54C3.26,2.57,5.83,0,9,0h5.4c.22,0,.4.17.4.4v4.71Z"/>
</svg>