<?xml version="1.0" encoding="UTF-8"?>
<svg id="Layer_2" data-name="Layer 2" xmlns="http://www.w3.org/2000/svg" viewBox="0 0 388.12 88.52">
  <defs>
    <style>
      .cls-1 {
        fill: #8e2e1d;
      }

      .cls-2 {
        fill: #ed1c24;
      }

      .cls-3 {
        fill: none;
        stroke: #8e2e1d;
        stroke-miterlimit: 10;
        stroke-width: .51px;
      }
    </style>
  </defs>
  <g id="Text">
    <g>
      <line class="cls-3" x1="0" y1="60.39" x2="388.12" y2="60.39"/>
      <g>
        <path class="cls-2" d="M1.54.26h7.84c1.71,0,2.99.41,3.84,1.22.85.81,1.27,1.97,1.27,3.47s-.46,2.74-1.39,3.61c-.93.87-2.34,1.3-4.24,1.3h-2.58v5.66H1.54V.26ZM6.28,6.76h1.16c.91,0,1.55-.16,1.92-.47.37-.32.55-.72.55-1.21s-.16-.88-.48-1.22-.92-.5-1.8-.5h-1.34v3.4Z"/>
        <path class="cls-2" d="M16.85.26h4.71v11.5h7.36v3.76h-12.07V.26Z"/>
        <path class="cls-2" d="M40.34,13h-5.35l-.74,2.52h-4.81L35.16.26h5.14l5.73,15.26h-4.94l-.76-2.52ZM39.36,9.7l-1.68-5.48-1.67,5.48h3.35Z"/>
        <path class="cls-2" d="M47.46.26h4.4l5.75,8.44V.26h4.44v15.26h-4.44l-5.71-8.38v8.38h-4.43V.26Z"/>
        <path class="cls-2" d="M65.11.26h4.4l5.75,8.44V.26h4.44v15.26h-4.44l-5.71-8.38v8.38h-4.43V.26Z"/>
        <path class="cls-2" d="M82.91.26h4.72v15.26h-4.72V.26Z"/>
        <path class="cls-2" d="M90.95.26h4.4l5.75,8.44V.26h4.44v15.26h-4.44l-5.71-8.38v8.38h-4.43V.26Z"/>
        <path class="cls-2" d="M116.23,9.99v-3.17h7.29v6.5c-1.39.95-2.63,1.6-3.7,1.94-1.07.34-2.34.52-3.81.52-1.81,0-3.29-.31-4.43-.93-1.14-.62-2.03-1.54-2.65-2.76s-.94-2.62-.94-4.2c0-1.67.34-3.11,1.03-4.35.69-1.23,1.69-2.17,3.02-2.8,1.03-.49,2.42-.74,4.17-.74s2.95.15,3.78.46c.84.31,1.53.78,2.08,1.42.55.64.97,1.46,1.24,2.44l-4.55.81c-.19-.58-.5-1.02-.95-1.32-.45-.31-1.02-.46-1.71-.46-1.03,0-1.86.36-2.47,1.08-.61.72-.92,1.85-.92,3.41,0,1.65.31,2.83.93,3.54.62.71,1.49,1.06,2.6,1.06.53,0,1.03-.08,1.51-.23s1.03-.41,1.64-.78v-1.44h-3.15Z"/>
        <path class="cls-1" d="M136.04,12.69h-4.53l-1.02,2.83h-1.47l4.13-10.82h1.25l4.14,10.82h-1.46l-1.03-2.83ZM131.93,11.52h3.68l-1.84-5.06-1.84,5.06Z"/>
        <path class="cls-1" d="M148.23,15.52h-1.43l-5.45-8.34v8.34h-1.43V4.69h1.43l5.46,8.38V4.69h1.42v10.82Z"/>
        <path class="cls-1" d="M150.69,15.52V4.69h3.06c.94,0,1.77.21,2.5.62.72.42,1.28,1.01,1.68,1.78.39.77.59,1.65.6,2.65v.69c0,1.02-.2,1.92-.59,2.68-.39.77-.96,1.36-1.69,1.77-.73.41-1.58.62-2.55.63h-3ZM152.12,5.86v8.49h1.5c1.1,0,1.96-.34,2.57-1.03s.92-1.66.92-2.92v-.63c0-1.23-.29-2.19-.87-2.87-.58-.68-1.4-1.03-2.46-1.04h-1.67Z"/>
        <path class="cls-2" d="M165.12.26h7c1.38,0,2.5.19,3.35.56.85.37,1.55.91,2.11,1.61.56.7.96,1.52,1.21,2.45.25.93.37,1.92.37,2.96,0,1.63-.19,2.9-.56,3.79-.37.9-.89,1.65-1.55,2.26-.66.61-1.37,1.01-2.12,1.21-1.03.28-1.97.42-2.81.42h-7V.26ZM169.83,3.72v8.34h1.16c.99,0,1.69-.11,2.1-.33.42-.22.74-.6.98-1.15.24-.54.35-1.43.35-2.65,0-1.62-.26-2.72-.79-3.32-.53-.6-1.4-.9-2.62-.9h-1.18Z"/>
        <path class="cls-2" d="M181.52.26h12.63v3.26h-7.91v2.42h7.34v3.11h-7.34v3.01h8.14v3.46h-12.86V.26Z"/>
        <path class="cls-2" d="M195.99,10.47l4.49-.28c.1.73.29,1.28.59,1.67.49.62,1.18.93,2.08.93.67,0,1.19-.16,1.56-.47s.55-.68.55-1.1-.17-.75-.52-1.06-1.15-.61-2.41-.88c-2.07-.46-3.54-1.08-4.42-1.85-.89-.77-1.33-1.75-1.33-2.95,0-.78.23-1.52.68-2.22.45-.7,1.14-1.25,2.05-1.64.91-.4,2.16-.6,3.75-.6,1.95,0,3.44.36,4.46,1.09s1.63,1.88,1.83,3.46l-4.44.26c-.12-.69-.37-1.19-.74-1.5-.38-.31-.9-.47-1.57-.47-.55,0-.96.12-1.24.35-.28.23-.42.52-.42.85,0,.24.11.46.34.66.22.2.75.39,1.58.56,2.06.44,3.54.89,4.43,1.35.89.45,1.54,1.02,1.95,1.69.41.67.61,1.43.61,2.26,0,.98-.27,1.88-.81,2.71-.54.83-1.3,1.45-2.27,1.88s-2.2.64-3.67.64c-2.59,0-4.39-.5-5.39-1.5s-1.56-2.27-1.7-3.81Z"/>
        <path class="cls-2" d="M212.29.26h4.72v15.26h-4.72V.26Z"/>
        <path class="cls-2" d="M227.96,9.99v-3.17h7.29v6.5c-1.39.95-2.63,1.6-3.7,1.94-1.07.34-2.34.52-3.81.52-1.81,0-3.29-.31-4.43-.93-1.14-.62-2.03-1.54-2.65-2.76s-.94-2.62-.94-4.2c0-1.67.34-3.11,1.03-4.35.69-1.23,1.69-2.17,3.02-2.8,1.03-.49,2.42-.74,4.17-.74s2.95.15,3.78.46c.84.31,1.53.78,2.08,1.42.55.64.97,1.46,1.24,2.44l-4.55.81c-.19-.58-.5-1.02-.95-1.32-.45-.31-1.02-.46-1.71-.46-1.03,0-1.86.36-2.47,1.08-.61.72-.92,1.85-.92,3.41,0,1.65.31,2.83.93,3.54.62.71,1.49,1.06,2.6,1.06.53,0,1.03-.08,1.51-.23s1.03-.41,1.64-.78v-1.44h-3.15Z"/>
        <path class="cls-2" d="M237.97.26h4.4l5.75,8.44V.26h4.44v15.26h-4.44l-5.71-8.38v8.38h-4.43V.26Z"/>
        <path class="cls-1" d="M265.4,10.74h-4.54v4.78h-1.43V4.69h6.7v1.17h-5.28v3.71h4.54v1.17Z"/>
        <path class="cls-1" d="M276.1,10.46c0,1.06-.18,1.99-.54,2.78s-.86,1.39-1.52,1.81-1.42.62-2.29.62-1.61-.21-2.27-.63c-.66-.42-1.17-1.02-1.53-1.79s-.55-1.67-.56-2.69v-.78c0-1.04.18-1.96.54-2.76s.87-1.41,1.53-1.83c.66-.42,1.42-.64,2.27-.64s1.63.21,2.29.63c.66.42,1.17,1.03,1.53,1.82.36.8.54,1.72.54,2.78v.68ZM274.68,9.76c0-1.28-.26-2.27-.77-2.95-.52-.69-1.24-1.03-2.16-1.03s-1.61.34-2.13,1.03-.78,1.64-.8,2.86v.8c0,1.24.26,2.22.78,2.93.52.71,1.24,1.07,2.16,1.07s1.64-.34,2.14-1.01.77-1.63.78-2.89v-.8Z"/>
        <path class="cls-1" d="M282.13,11.14h-2.54v4.38h-1.43V4.69h3.58c1.22,0,2.16.28,2.81.83.66.56.98,1.36.98,2.42,0,.67-.18,1.26-.55,1.76s-.87.87-1.52,1.12l2.54,4.59v.09h-1.53l-2.35-4.38ZM279.59,9.97h2.19c.71,0,1.27-.18,1.69-.55.42-.37.63-.86.63-1.47,0-.67-.2-1.18-.6-1.54s-.98-.54-1.73-.54h-2.19v4.11Z"/>
        <path class="cls-2" d="M291.1,10.47l4.49-.28c.1.73.29,1.28.59,1.67.49.62,1.18.93,2.08.93.67,0,1.19-.16,1.56-.47s.55-.68.55-1.1-.17-.75-.52-1.06-1.15-.61-2.41-.88c-2.07-.46-3.54-1.08-4.42-1.85-.89-.77-1.33-1.75-1.33-2.95,0-.78.23-1.52.68-2.22.45-.7,1.14-1.25,2.05-1.64.91-.4,2.16-.6,3.75-.6,1.95,0,3.44.36,4.46,1.09s1.63,1.88,1.83,3.46l-4.44.26c-.12-.69-.37-1.19-.74-1.5-.38-.31-.9-.47-1.57-.47-.55,0-.96.12-1.24.35-.28.23-.42.52-.42.85,0,.24.11.46.34.66.22.2.75.39,1.58.56,2.06.44,3.54.89,4.43,1.35.89.45,1.54,1.02,1.95,1.69.41.67.61,1.43.61,2.26,0,.98-.27,1.88-.81,2.71-.54.83-1.3,1.45-2.27,1.88s-2.2.64-3.67.64c-2.59,0-4.39-.5-5.39-1.5s-1.56-2.27-1.7-3.81Z"/>
        <path class="cls-2" d="M316.59,13h-5.35l-.74,2.52h-4.81l5.73-15.26h5.14l5.73,15.26h-4.94l-.76-2.52ZM315.61,9.7l-1.68-5.48-1.67,5.48h3.35Z"/>
        <path class="cls-2" d="M323.7.26h11.66v3.28h-6.92v2.66h5.91v3.08h-5.91v6.23h-4.74V.26Z"/>
        <path class="cls-2" d="M337.78.26h12.63v3.26h-7.91v2.42h7.34v3.11h-7.34v3.01h8.14v3.46h-12.86V.26Z"/>
        <path class="cls-2" d="M352,.26h14.33v3.77h-4.81v11.49h-4.71V4.03h-4.81V.26Z"/>
        <path class="cls-2" d="M366.82.26h5.24l3.07,5.15,3.08-5.15h5.21l-5.93,8.87v6.39h-4.72v-6.39l-5.94-8.87Z"/>
      </g>
      <g>
        <path class="cls-1" d="M6.14,42.28v9.7h-3.27v-24.78h9.14c2.71,0,4.84.69,6.37,2.08,1.54,1.38,2.31,3.22,2.31,5.5,0,2.41-.75,4.26-2.26,5.56-1.5,1.3-3.66,1.95-6.46,1.95h-5.84ZM6.14,39.61h5.87c1.75,0,3.09-.41,4.02-1.24.93-.82,1.4-2.01,1.4-3.57s-.47-2.66-1.4-3.55c-.93-.89-2.21-1.35-3.83-1.38h-6.06v9.74Z"/>
        <path class="cls-1" d="M28.37,51.99h-3.27v-24.78h3.27v24.78Z"/>
        <path class="cls-1" d="M52.58,44.12c-.31,2.62-1.27,4.64-2.9,6.07-1.63,1.42-3.79,2.14-6.49,2.14-2.93,0-5.27-1.05-7.04-3.15-1.76-2.1-2.65-4.91-2.65-8.43v-2.38c0-2.3.41-4.33,1.23-6.08.82-1.75,1.99-3.09,3.5-4.03s3.26-1.4,5.24-1.4c2.63,0,4.74.73,6.33,2.2,1.59,1.47,2.51,3.5,2.77,6.1h-3.29c-.28-1.98-.9-3.41-1.85-4.3-.95-.89-2.27-1.33-3.97-1.33-2.09,0-3.72.77-4.91,2.32-1.19,1.54-1.78,3.74-1.78,6.59v2.4c0,2.69.56,4.83,1.69,6.42,1.12,1.59,2.69,2.38,4.71,2.38,1.82,0,3.21-.41,4.18-1.23.97-.82,1.61-2.26,1.93-4.3h3.29Z"/>
        <path class="cls-1" d="M74.16,29.88h-7.97v22.11h-3.25v-22.11h-7.95v-2.67h19.17v2.67Z"/>
        <path class="cls-1" d="M96.9,40.39c0,2.43-.41,4.55-1.23,6.36-.82,1.81-1.97,3.19-3.47,4.14s-3.25,1.43-5.24,1.43-3.68-.48-5.19-1.44c-1.51-.96-2.68-2.33-3.51-4.1s-1.26-3.83-1.28-6.17v-1.79c0-2.38.41-4.49,1.24-6.31.83-1.83,2-3.23,3.51-4.2,1.51-.97,3.25-1.46,5.2-1.46s3.74.48,5.25,1.44c1.51.96,2.68,2.35,3.5,4.17s1.23,3.94,1.23,6.36v1.57ZM93.65,38.79c0-2.94-.59-5.19-1.77-6.77-1.18-1.57-2.83-2.36-4.95-2.36s-3.69.79-4.88,2.36c-1.19,1.57-1.8,3.75-1.83,6.54v1.82c0,2.85.6,5.09,1.8,6.71,1.2,1.63,2.84,2.44,4.94,2.44s3.74-.77,4.9-2.31c1.16-1.54,1.75-3.74,1.79-6.61v-1.84Z"/>
        <path class="cls-1" d="M110.89,41.96h-5.82v10.03h-3.29v-24.78h8.2c2.79,0,4.94.64,6.44,1.91,1.5,1.27,2.26,3.12,2.26,5.55,0,1.54-.42,2.89-1.25,4.03-.83,1.15-1.99,2-3.48,2.57l5.82,10.52v.2h-3.51l-5.38-10.03ZM105.07,39.29h5.02c1.62,0,2.91-.42,3.87-1.26.96-.84,1.44-1.97,1.44-3.38,0-1.53-.46-2.71-1.37-3.53s-2.23-1.23-3.96-1.24h-5v9.41Z"/>
        <path class="cls-1" d="M126.77,51.99h-3.27v-24.78h3.27v24.78Z"/>
        <path class="cls-1" d="M146.43,45.5h-10.38l-2.33,6.48h-3.37l9.46-24.78h2.86l9.48,24.78h-3.35l-2.37-6.48ZM137.03,42.83h8.43l-4.22-11.59-4.2,11.59Z"/>
        <path class="cls-1" d="M158.77,49.31h11.74v2.67h-15.03v-24.78h3.28v22.11Z"/>
        <path class="cls-1" d="M201.17,48.73c-.84,1.2-2.01,2.1-3.51,2.7-1.5.6-3.25.89-5.25.89s-3.81-.47-5.38-1.42c-1.57-.95-2.78-2.29-3.63-4.04-.86-1.75-1.3-3.77-1.32-6.08v-2.16c0-3.73.87-6.63,2.61-8.68,1.74-2.05,4.19-3.08,7.34-3.08,2.59,0,4.67.66,6.25,1.98,1.58,1.32,2.54,3.2,2.89,5.63h-3.27c-.61-3.29-2.56-4.94-5.86-4.94-2.19,0-3.85.77-4.98,2.31-1.13,1.54-1.7,3.77-1.71,6.69v2.03c0,2.78.64,4.99,1.91,6.64,1.27,1.64,2.99,2.46,5.16,2.46,1.23,0,2.3-.14,3.22-.41.92-.27,1.68-.73,2.28-1.38v-5.55h-5.74v-2.67h8.99v9.09Z"/>
        <path class="cls-1" d="M224.06,27.2v16.85c-.01,2.34-.75,4.25-2.2,5.74s-3.44,2.32-5.93,2.5l-.87.03c-2.71,0-4.87-.73-6.48-2.2-1.61-1.46-2.43-3.48-2.45-6.04v-16.88h3.23v16.78c0,1.79.49,3.19,1.48,4.18.99.99,2.39,1.49,4.22,1.49s3.26-.49,4.25-1.48c.98-.99,1.47-2.38,1.47-4.17v-16.8h3.29Z"/>
        <path class="cls-1" d="M232.72,51.99h-3.27v-24.78h3.27v24.78Z"/>
        <path class="cls-1" d="M238.7,51.99v-24.78h7c2.16,0,4.06.48,5.72,1.43s2.94,2.31,3.84,4.07c.9,1.76,1.36,3.78,1.37,6.06v1.58c0,2.34-.45,4.39-1.35,6.14s-2.19,3.11-3.86,4.05c-1.67.94-3.62,1.42-5.85,1.45h-6.86ZM241.97,29.88v19.44h3.44c2.52,0,4.48-.78,5.88-2.35s2.1-3.8,2.1-6.7v-1.45c0-2.82-.66-5.01-1.98-6.57-1.32-1.56-3.2-2.35-5.63-2.38h-3.81Z"/>
        <path class="cls-1" d="M275.56,40.53h-10.74v8.78h12.48v2.67h-15.74v-24.78h15.57v2.67h-12.31v7.98h10.74v2.67Z"/>
        <path class="cls-1" d="M305.42,51.99h-16.24v-2.26l8.58-9.53c1.27-1.44,2.15-2.61,2.63-3.51.48-.9.72-1.84.72-2.8,0-1.29-.39-2.35-1.17-3.18s-1.83-1.24-3.13-1.24c-1.57,0-2.78.45-3.65,1.34-.87.89-1.3,2.13-1.3,3.72h-3.15c0-2.28.73-4.12,2.2-5.53,1.47-1.41,3.44-2.11,5.9-2.11,2.3,0,4.12.6,5.46,1.81,1.34,1.21,2.01,2.82,2.01,4.83,0,2.44-1.55,5.34-4.66,8.71l-6.64,7.2h12.44v2.57Z"/>
        <path class="cls-1" d="M324.29,41.42c0,3.69-.63,6.43-1.89,8.22-1.26,1.79-3.23,2.69-5.91,2.69s-4.6-.88-5.87-2.63c-1.27-1.75-1.93-4.37-1.97-7.85v-4.2c0-3.64.63-6.35,1.89-8.12,1.26-1.77,3.23-2.66,5.92-2.66s4.63.85,5.89,2.56,1.91,4.34,1.94,7.91v4.08ZM321.15,37.11c0-2.67-.37-4.61-1.12-5.83-.75-1.22-1.93-1.83-3.56-1.83s-2.79.61-3.52,1.82c-.74,1.21-1.12,3.08-1.14,5.6v5.04c0,2.68.39,4.66,1.17,5.93.78,1.28,1.95,1.91,3.53,1.91s2.71-.6,3.46-1.8c.75-1.2,1.15-3.1,1.18-5.68v-5.16Z"/>
        <path class="cls-1" d="M344.57,51.99h-16.24v-2.26l8.58-9.53c1.27-1.44,2.15-2.61,2.63-3.51.48-.9.72-1.84.72-2.8,0-1.29-.39-2.35-1.17-3.18s-1.83-1.24-3.13-1.24c-1.57,0-2.78.45-3.65,1.34-.87.89-1.3,2.13-1.3,3.72h-3.15c0-2.28.73-4.12,2.2-5.53,1.47-1.41,3.44-2.11,5.9-2.11,2.3,0,4.12.6,5.46,1.81,1.34,1.21,2.01,2.82,2.01,4.83,0,2.44-1.55,5.34-4.66,8.71l-6.64,7.2h12.44v2.57Z"/>
        <path class="cls-1" d="M349.35,39.56l1.26-12.36h12.7v2.91h-10.03l-.75,6.76c1.21-.71,2.59-1.07,4.14-1.07,2.26,0,4.05.75,5.38,2.24,1.33,1.49,1.99,3.51,1.99,6.05s-.69,4.56-2.07,6.03c-1.38,1.47-3.3,2.2-5.78,2.2-2.19,0-3.98-.61-5.36-1.82-1.38-1.21-2.17-2.89-2.37-5.04h2.98c.19,1.42.7,2.49,1.51,3.21.82.72,1.89,1.08,3.23,1.08,1.46,0,2.61-.5,3.45-1.5.83-1,1.25-2.38,1.25-4.14,0-1.66-.45-2.99-1.35-3.99-.9-1-2.1-1.51-3.6-1.51-1.37,0-2.45.3-3.23.9l-.83.68-2.52-.65Z"/>
      </g>
      <g>
        <path class="cls-1" d="M9.86,82.5h-5.65v5.83H1.27v-14.27h9.29v2.38h-6.35v3.69h5.65v2.37Z"/>
        <path class="cls-1" d="M14.07,74.98c0-.42.14-.77.43-1.05.28-.27.67-.41,1.16-.41s.87.14,1.16.41.43.62.43,1.05-.15.78-.44,1.06c-.29.27-.67.41-1.15.41s-.86-.14-1.15-.41c-.29-.27-.44-.63-.44-1.06ZM17.08,88.33h-2.84v-10.61h2.84v10.61Z"/>
        <path class="cls-1" d="M27.38,80.38c-.39-.05-.73-.08-1.02-.08-1.07,0-1.77.36-2.11,1.09v6.94h-2.83v-10.61h2.68l.08,1.26c.57-.97,1.36-1.46,2.36-1.46.31,0,.61.04.88.13l-.04,2.72Z"/>
        <path class="cls-1" d="M36.49,85.4c0-.35-.17-.62-.51-.82s-.89-.38-1.65-.53c-2.52-.53-3.78-1.6-3.78-3.22,0-.94.39-1.73,1.17-2.36.78-.63,1.8-.95,3.06-.95,1.35,0,2.42.32,3.23.95s1.21,1.46,1.21,2.47h-2.83c0-.41-.13-.74-.39-1-.26-.26-.67-.4-1.23-.4-.48,0-.85.11-1.11.32-.26.22-.39.49-.39.82,0,.31.15.57.45.76.3.19.8.36,1.5.5.71.14,1.3.3,1.78.48,1.5.55,2.24,1.5,2.24,2.85,0,.97-.42,1.75-1.24,2.35s-1.9.9-3.21.9c-.89,0-1.68-.16-2.37-.48s-1.23-.75-1.62-1.3c-.39-.55-.59-1.15-.59-1.79h2.69c.03.5.21.89.56,1.16.35.27.81.4,1.39.4.54,0,.95-.1,1.23-.31s.42-.48.42-.81Z"/>
        <path class="cls-1" d="M46.47,75.11v2.61h1.81v2.08h-1.81v5.29c0,.39.08.67.23.84.15.17.44.25.86.25.31,0,.59-.02.83-.07v2.15c-.56.17-1.13.25-1.72.25-1.99,0-3-1-3.04-3.01v-5.71h-1.55v-2.08h1.55v-2.61h2.83Z"/>
        <path class="cls-1" d="M67.65,82.14h-5.65v3.82h6.63v2.36h-9.57v-14.27h9.55v2.38h-6.61v3.4h5.65v2.3Z"/>
        <path class="cls-1" d="M71.73,82.95c0-1.65.37-2.97,1.11-3.95s1.76-1.47,3.04-1.47c1.03,0,1.89.39,2.56,1.16v-5.41h2.84v15.06h-2.56l-.14-1.13c-.71.88-1.61,1.32-2.72,1.32-1.25,0-2.25-.49-3-1.48-.75-.98-1.13-2.35-1.13-4.1ZM74.57,83.16c0,.99.17,1.76.52,2.29.35.53.85.8,1.51.8.88,0,1.49-.37,1.85-1.11v-4.19c-.35-.74-.96-1.11-1.83-1.11-1.37,0-2.05,1.11-2.05,3.33Z"/>
        <path class="cls-1" d="M85.47,74.98c0-.42.14-.77.43-1.05.28-.27.67-.41,1.16-.41s.87.14,1.16.41.43.62.43,1.05-.15.78-.44,1.06c-.29.27-.67.41-1.15.41s-.86-.14-1.15-.41c-.29-.27-.44-.63-.44-1.06ZM88.48,88.33h-2.84v-10.61h2.84v10.61Z"/>
        <path class="cls-1" d="M96.21,75.11v2.61h1.81v2.08h-1.81v5.29c0,.39.08.67.23.84.15.17.44.25.86.25.31,0,.59-.02.83-.07v2.15c-.56.17-1.13.25-1.72.25-1.99,0-3-1-3.04-3.01v-5.71h-1.55v-2.08h1.55v-2.61h2.83Z"/>
        <path class="cls-1" d="M101.59,74.98c0-.42.14-.77.43-1.05.28-.27.67-.41,1.16-.41s.87.14,1.16.41.43.62.43,1.05-.15.78-.44,1.06c-.29.27-.67.41-1.15.41s-.86-.14-1.15-.41c-.29-.27-.44-.63-.44-1.06ZM104.6,88.33h-2.84v-10.61h2.84v10.61Z"/>
        <path class="cls-1" d="M108.5,82.93c0-1.05.2-1.99.61-2.81.41-.82.99-1.46,1.75-1.91s1.65-.68,2.65-.68c1.43,0,2.6.44,3.5,1.31.9.88,1.41,2.06,1.51,3.57l.02.73c0,1.63-.45,2.93-1.36,3.92s-2.13,1.48-3.66,1.48-2.75-.49-3.66-1.47c-.91-.98-1.37-2.31-1.37-4v-.13ZM111.33,83.13c0,1.01.19,1.78.57,2.31.38.53.92.8,1.63.8s1.22-.26,1.61-.79.58-1.37.58-2.53c0-.99-.19-1.75-.58-2.3-.39-.54-.93-.81-1.63-.81s-1.23.27-1.61.81c-.38.54-.57,1.38-.57,2.51Z"/>
        <path class="cls-1" d="M124.91,77.72l.09,1.23c.76-.95,1.77-1.42,3.05-1.42,1.12,0,1.96.33,2.51.99.55.66.83,1.65.84,2.96v6.85h-2.83v-6.78c0-.6-.13-1.04-.39-1.31-.26-.27-.7-.41-1.3-.41-.8,0-1.4.34-1.79,1.02v7.48h-2.83v-10.61h2.67Z"/>
      </g>
    </g>
  </g>
</svg>