<?xml version="1.0" encoding="UTF-8"?>
<svg id="Isolation_Mode" data-name="Isolation Mode" xmlns="http://www.w3.org/2000/svg" viewBox="0 0 33.32 33.32">
  <defs>
    <style>
      .cls-1 {
        fill: #ed1c24;
      }
    </style>
  </defs>
  <path class="cls-1" d="M22.05,16.66c0,2.9-2.36,5.26-5.26,5.26s-5.26-2.36-5.26-5.26,2.36-5.26,5.26-5.26,5.26,2.36,5.26,5.26ZM30.18,10.01v13.3c0,3.79-3.08,6.87-6.87,6.87h-13.3c-3.79,0-6.87-3.08-6.87-6.87v-13.3c0-3.79,3.08-6.87,6.87-6.87h13.3c3.79,0,6.87,3.08,6.87,6.87ZM25,16.66c0-4.52-3.68-8.21-8.21-8.21s-8.21,3.68-8.21,8.21,3.68,8.21,8.21,8.21,8.21-3.68,8.21-8.21ZM29.95,13.35c0-1.08-.88-1.95-1.95-1.95s-1.96.88-1.96,1.95.88,1.96,1.96,1.96,1.95-.88,1.95-1.96ZM33.32,10.01c0-5.52-4.49-10.01-10.01-10.01h-13.3C4.49,0,0,4.49,0,10.01v13.3c0,5.52,4.49,10.01,10.01,10.01h13.3c5.52,0,10.01-4.49,10.01-10.01v-13.3Z"/>
</svg>